<?xml version="1.0" encoding="utf-8" standalone="no"?>
<!DOCTYPE svg PUBLIC "-//W3C//DTD SVG 1.1//EN"
  "http://www.w3.org/Graphics/SVG/1.1/DTD/svg11.dtd">
<!-- Created with matplotlib (https://matplotlib.org/) -->
<svg height="213.49825pt" version="1.1" viewBox="0 0 453.300593 213.49825" width="453.300593pt" xmlns="http://www.w3.org/2000/svg" xmlns:xlink="http://www.w3.org/1999/xlink">
 <defs>
  <style type="text/css">
*{stroke-linecap:butt;stroke-linejoin:round;white-space:pre;}
  </style>
 </defs>
 <g id="figure_1">
  <g id="patch_1">
   <path d="M 0 213.49825 
L 453.300593 213.49825 
L 453.300593 0 
L 0 0 
z
" style="fill:none;"/>
  </g>
  <g id="axes_1">
   <g id="patch_2">
    <path d="M 128.964063 206.29825 
L 442.164062 206.29825 
L 442.164062 43.21825 
L 128.964063 43.21825 
z
" style="fill:none;"/>
   </g>
   <g id="matplotlib.axis_1">
    <g id="xtick_1">
     <g id="line2d_1">
      <path clip-path="url(#peae9f4f28d)" d="M 128.964063 206.29825 
L 128.964063 43.21825 
" style="fill:none;stroke:#cbcbcb;"/>
     </g>
     <g id="line2d_2"/>
    </g>
    <g id="xtick_2">
     <g id="line2d_3">
      <path clip-path="url(#peae9f4f28d)" d="M 183.197829 206.29825 
L 183.197829 43.21825 
" style="fill:none;stroke:#cbcbcb;"/>
     </g>
     <g id="line2d_4"/>
    </g>
    <g id="xtick_3">
     <g id="line2d_5">
      <path clip-path="url(#peae9f4f28d)" d="M 237.431595 206.29825 
L 237.431595 43.21825 
" style="fill:none;stroke:#cbcbcb;"/>
     </g>
     <g id="line2d_6"/>
    </g>
    <g id="xtick_4">
     <g id="line2d_7">
      <path clip-path="url(#peae9f4f28d)" d="M 291.665361 206.29825 
L 291.665361 43.21825 
" style="fill:none;stroke:#cbcbcb;"/>
     </g>
     <g id="line2d_8"/>
    </g>
    <g id="xtick_5">
     <g id="line2d_9">
      <path clip-path="url(#peae9f4f28d)" d="M 345.899127 206.29825 
L 345.899127 43.21825 
" style="fill:none;stroke:#cbcbcb;"/>
     </g>
     <g id="line2d_10"/>
    </g>
    <g id="xtick_6">
     <g id="line2d_11">
      <path clip-path="url(#peae9f4f28d)" d="M 400.132894 206.29825 
L 400.132894 43.21825 
" style="fill:none;stroke:#cbcbcb;"/>
     </g>
     <g id="line2d_12"/>
    </g>
   </g>
   <g id="matplotlib.axis_2">
    <g id="ytick_1">
     <g id="line2d_13"/>
     <g id="text_1">
      <!-- Anti-White extremists -->
      <defs>
       <path d="M 54.6875 0 
L 45.796875 22.703125 
L 17.1875 22.703125 
L 8.40625 0 
L 0 0 
L 28.21875 71.6875 
L 35.203125 71.6875 
L 63.28125 0 
z
M 43.21875 30.171875 
L 34.90625 52.296875 
Q 33.296875 56.5 31.59375 62.59375 
Q 30.515625 57.90625 28.515625 52.296875 
L 20.125 30.171875 
z
" id="OpenSans-Regular-65"/>
       <path d="M 45.21875 0 
L 45.21875 34.625 
Q 45.21875 41.15625 42.234375 44.375 
Q 39.265625 47.609375 32.90625 47.609375 
Q 24.515625 47.609375 20.609375 43.0625 
Q 16.703125 38.53125 16.703125 28.078125 
L 16.703125 0 
L 8.59375 0 
L 8.59375 53.515625 
L 15.1875 53.515625 
L 16.5 46.1875 
L 16.890625 46.1875 
Q 19.390625 50.140625 23.875 52.3125 
Q 28.375 54.5 33.890625 54.5 
Q 43.5625 54.5 48.4375 49.828125 
Q 53.328125 45.171875 53.328125 34.90625 
L 53.328125 0 
z
" id="OpenSans-Regular-110"/>
       <path d="M 25.875 5.71875 
Q 28.03125 5.71875 30.03125 6.03125 
Q 32.03125 6.34375 33.203125 6.6875 
L 33.203125 0.484375 
Q 31.890625 -0.140625 29.328125 -0.5625 
Q 26.765625 -0.984375 24.703125 -0.984375 
Q 9.1875 -0.984375 9.1875 15.375 
L 9.1875 47.21875 
L 1.515625 47.21875 
L 1.515625 51.125 
L 9.1875 54.5 
L 12.59375 65.921875 
L 17.28125 65.921875 
L 17.28125 53.515625 
L 32.8125 53.515625 
L 32.8125 47.21875 
L 17.28125 47.21875 
L 17.28125 15.71875 
Q 17.28125 10.890625 19.578125 8.296875 
Q 21.875 5.71875 25.875 5.71875 
z
" id="OpenSans-Regular-116"/>
       <path d="M 16.703125 0 
L 8.59375 0 
L 8.59375 53.515625 
L 16.703125 53.515625 
z
M 7.90625 68.015625 
Q 7.90625 70.796875 9.265625 72.09375 
Q 10.640625 73.390625 12.703125 73.390625 
Q 14.65625 73.390625 16.0625 72.0625 
Q 17.484375 70.75 17.484375 68.015625 
Q 17.484375 65.28125 16.0625 63.9375 
Q 14.65625 62.59375 12.703125 62.59375 
Q 10.640625 62.59375 9.265625 63.9375 
Q 7.90625 65.28125 7.90625 68.015625 
z
" id="OpenSans-Regular-105"/>
       <path d="M 4.109375 23.09375 
L 4.109375 30.515625 
L 28.078125 30.515625 
L 28.078125 23.09375 
z
" id="OpenSans-Regular-45"/>
       <path d="M 72.125 0 
L 63.921875 0 
L 49.515625 47.796875 
Q 48.484375 50.984375 47.21875 55.8125 
Q 45.953125 60.640625 45.90625 61.625 
Q 44.828125 55.171875 42.484375 47.515625 
L 28.515625 0 
L 20.3125 0 
L 1.3125 71.390625 
L 10.109375 71.390625 
L 21.390625 27.296875 
Q 23.734375 18.015625 24.8125 10.5 
Q 26.125 19.4375 28.71875 27.984375 
L 41.5 71.390625 
L 50.296875 71.390625 
L 63.71875 27.59375 
Q 66.0625 20.015625 67.671875 10.5 
Q 68.609375 17.4375 71.1875 27.390625 
L 82.421875 71.390625 
L 91.21875 71.390625 
z
" id="OpenSans-Regular-87"/>
       <path d="M 45.21875 0 
L 45.21875 34.625 
Q 45.21875 41.15625 42.234375 44.375 
Q 39.265625 47.609375 32.90625 47.609375 
Q 24.46875 47.609375 20.578125 43.015625 
Q 16.703125 38.421875 16.703125 27.984375 
L 16.703125 0 
L 8.59375 0 
L 8.59375 75.984375 
L 16.703125 75.984375 
L 16.703125 52.984375 
Q 16.703125 48.828125 16.3125 46.09375 
L 16.796875 46.09375 
Q 19.1875 49.953125 23.609375 52.171875 
Q 28.03125 54.390625 33.6875 54.390625 
Q 43.5 54.390625 48.40625 49.71875 
Q 53.328125 45.0625 53.328125 34.90625 
L 53.328125 0 
z
" id="OpenSans-Regular-104"/>
       <path d="M 31.203125 -0.984375 
Q 19.34375 -0.984375 12.46875 6.25 
Q 5.609375 13.484375 5.609375 26.3125 
Q 5.609375 39.265625 11.984375 46.875 
Q 18.359375 54.5 29.109375 54.5 
Q 39.15625 54.5 45.015625 47.875 
Q 50.875 41.265625 50.875 30.421875 
L 50.875 25.296875 
L 14.015625 25.296875 
Q 14.265625 15.875 18.78125 10.984375 
Q 23.296875 6.109375 31.5 6.109375 
Q 40.140625 6.109375 48.578125 9.71875 
L 48.578125 2.484375 
Q 44.28125 0.640625 40.453125 -0.171875 
Q 36.625 -0.984375 31.203125 -0.984375 
z
M 29 47.703125 
Q 22.5625 47.703125 18.71875 43.5 
Q 14.890625 39.3125 14.203125 31.890625 
L 42.1875 31.890625 
Q 42.1875 39.546875 38.765625 43.625 
Q 35.359375 47.703125 29 47.703125 
z
" id="OpenSans-Regular-101"/>
       <path id="OpenSans-Regular-32"/>
       <path d="M 21.484375 27.390625 
L 2.875 53.515625 
L 12.109375 53.515625 
L 26.21875 33.015625 
L 40.28125 53.515625 
L 49.421875 53.515625 
L 30.8125 27.390625 
L 50.390625 0 
L 41.21875 0 
L 26.21875 21.6875 
L 11.078125 0 
L 1.90625 0 
z
" id="OpenSans-Regular-120"/>
       <path d="M 33.015625 54.5 
Q 36.578125 54.5 39.40625 53.90625 
L 38.28125 46.390625 
Q 34.96875 47.125 32.421875 47.125 
Q 25.921875 47.125 21.3125 41.84375 
Q 16.703125 36.578125 16.703125 28.71875 
L 16.703125 0 
L 8.59375 0 
L 8.59375 53.515625 
L 15.28125 53.515625 
L 16.21875 43.609375 
L 16.609375 43.609375 
Q 19.578125 48.828125 23.78125 51.65625 
Q 27.984375 54.5 33.015625 54.5 
z
" id="OpenSans-Regular-114"/>
       <path d="M 76.8125 0 
L 76.8125 34.8125 
Q 76.8125 41.21875 74.078125 44.40625 
Q 71.34375 47.609375 65.578125 47.609375 
Q 58.015625 47.609375 54.390625 43.265625 
Q 50.78125 38.921875 50.78125 29.890625 
L 50.78125 0 
L 42.671875 0 
L 42.671875 34.8125 
Q 42.671875 41.21875 39.9375 44.40625 
Q 37.203125 47.609375 31.390625 47.609375 
Q 23.78125 47.609375 20.234375 43.046875 
Q 16.703125 38.484375 16.703125 28.078125 
L 16.703125 0 
L 8.59375 0 
L 8.59375 53.515625 
L 15.1875 53.515625 
L 16.5 46.1875 
L 16.890625 46.1875 
Q 19.1875 50.09375 23.359375 52.296875 
Q 27.546875 54.5 32.71875 54.5 
Q 45.265625 54.5 49.125 45.40625 
L 49.515625 45.40625 
Q 51.90625 49.609375 56.4375 52.046875 
Q 60.984375 54.5 66.796875 54.5 
Q 75.875 54.5 80.390625 49.828125 
Q 84.90625 45.171875 84.90625 34.90625 
L 84.90625 0 
z
" id="OpenSans-Regular-109"/>
       <path d="M 43.109375 14.59375 
Q 43.109375 7.125 37.546875 3.0625 
Q 31.984375 -0.984375 21.921875 -0.984375 
Q 11.28125 -0.984375 5.328125 2.390625 
L 5.328125 9.90625 
Q 9.1875 7.953125 13.59375 6.828125 
Q 18.015625 5.71875 22.125 5.71875 
Q 28.46875 5.71875 31.875 7.734375 
Q 35.296875 9.765625 35.296875 13.921875 
Q 35.296875 17.046875 32.59375 19.265625 
Q 29.890625 21.484375 22.015625 24.515625 
Q 14.546875 27.296875 11.390625 29.375 
Q 8.25 31.453125 6.703125 34.078125 
Q 5.171875 36.71875 5.171875 40.375 
Q 5.171875 46.921875 10.5 50.703125 
Q 15.828125 54.5 25.09375 54.5 
Q 33.734375 54.5 42 50.984375 
L 39.109375 44.390625 
Q 31.0625 47.703125 24.515625 47.703125 
Q 18.75 47.703125 15.8125 45.890625 
Q 12.890625 44.09375 12.890625 40.921875 
Q 12.890625 38.765625 13.984375 37.25 
Q 15.09375 35.75 17.53125 34.375 
Q 19.96875 33.015625 26.90625 30.421875 
Q 36.421875 26.953125 39.765625 23.4375 
Q 43.109375 19.921875 43.109375 14.59375 
z
" id="OpenSans-Regular-115"/>
      </defs>
      <g style="opacity:0.8;" transform="translate(25.082813 192.587906)scale(0.1 -0.1)">
       <use xlink:href="#OpenSans-Regular-65"/>
       <use x="63.28125" xlink:href="#OpenSans-Regular-110"/>
       <use x="124.658203" xlink:href="#OpenSans-Regular-116"/>
       <use x="159.960938" xlink:href="#OpenSans-Regular-105"/>
       <use x="185.253906" xlink:href="#OpenSans-Regular-45"/>
       <use x="217.431641" xlink:href="#OpenSans-Regular-87"/>
       <use x="310.009766" xlink:href="#OpenSans-Regular-104"/>
       <use x="371.386719" xlink:href="#OpenSans-Regular-105"/>
       <use x="396.679688" xlink:href="#OpenSans-Regular-116"/>
       <use x="431.982422" xlink:href="#OpenSans-Regular-101"/>
       <use x="488.085938" xlink:href="#OpenSans-Regular-32"/>
       <use x="514.0625" xlink:href="#OpenSans-Regular-101"/>
       <use x="570.166016" xlink:href="#OpenSans-Regular-120"/>
       <use x="622.558594" xlink:href="#OpenSans-Regular-116"/>
       <use x="657.861328" xlink:href="#OpenSans-Regular-114"/>
       <use x="698.681641" xlink:href="#OpenSans-Regular-101"/>
       <use x="754.785156" xlink:href="#OpenSans-Regular-109"/>
       <use x="847.802734" xlink:href="#OpenSans-Regular-105"/>
       <use x="873.095703" xlink:href="#OpenSans-Regular-115"/>
       <use x="920.800781" xlink:href="#OpenSans-Regular-116"/>
       <use x="956.103516" xlink:href="#OpenSans-Regular-115"/>
      </g>
     </g>
    </g>
    <g id="ytick_2">
     <g id="line2d_14"/>
     <g id="text_2">
      <!-- Anti-Muslim extremists -->
      <defs>
       <path d="M 41.40625 0 
L 17.1875 63.28125 
L 16.796875 63.28125 
Q 17.484375 55.765625 17.484375 45.40625 
L 17.484375 0 
L 9.8125 0 
L 9.8125 71.390625 
L 22.3125 71.390625 
L 44.921875 12.5 
L 45.3125 12.5 
L 68.109375 71.390625 
L 80.515625 71.390625 
L 80.515625 0 
L 72.21875 0 
L 72.21875 46 
Q 72.21875 53.90625 72.90625 63.1875 
L 72.515625 63.1875 
L 48.09375 0 
z
" id="OpenSans-Regular-77"/>
       <path d="M 16.21875 53.515625 
L 16.21875 18.796875 
Q 16.21875 12.25 19.1875 9.03125 
Q 22.171875 5.8125 28.515625 5.8125 
Q 36.921875 5.8125 40.796875 10.390625 
Q 44.671875 14.984375 44.671875 25.390625 
L 44.671875 53.515625 
L 52.78125 53.515625 
L 52.78125 0 
L 46.09375 0 
L 44.921875 7.171875 
L 44.484375 7.171875 
Q 42 3.21875 37.578125 1.109375 
Q 33.15625 -0.984375 27.484375 -0.984375 
Q 17.71875 -0.984375 12.859375 3.65625 
Q 8.015625 8.296875 8.015625 18.5 
L 8.015625 53.515625 
z
" id="OpenSans-Regular-117"/>
       <path d="M 16.703125 0 
L 8.59375 0 
L 8.59375 75.984375 
L 16.703125 75.984375 
z
" id="OpenSans-Regular-108"/>
      </defs>
      <g style="opacity:0.8;" transform="translate(17.851562 159.971906)scale(0.1 -0.1)">
       <use xlink:href="#OpenSans-Regular-65"/>
       <use x="63.28125" xlink:href="#OpenSans-Regular-110"/>
       <use x="124.658203" xlink:href="#OpenSans-Regular-116"/>
       <use x="159.960938" xlink:href="#OpenSans-Regular-105"/>
       <use x="185.253906" xlink:href="#OpenSans-Regular-45"/>
       <use x="217.431641" xlink:href="#OpenSans-Regular-77"/>
       <use x="307.714844" xlink:href="#OpenSans-Regular-117"/>
       <use x="369.091797" xlink:href="#OpenSans-Regular-115"/>
       <use x="416.796875" xlink:href="#OpenSans-Regular-108"/>
       <use x="442.089844" xlink:href="#OpenSans-Regular-105"/>
       <use x="467.382812" xlink:href="#OpenSans-Regular-109"/>
       <use x="560.400391" xlink:href="#OpenSans-Regular-32"/>
       <use x="586.376953" xlink:href="#OpenSans-Regular-101"/>
       <use x="642.480469" xlink:href="#OpenSans-Regular-120"/>
       <use x="694.873047" xlink:href="#OpenSans-Regular-116"/>
       <use x="730.175781" xlink:href="#OpenSans-Regular-114"/>
       <use x="770.996094" xlink:href="#OpenSans-Regular-101"/>
       <use x="827.099609" xlink:href="#OpenSans-Regular-109"/>
       <use x="920.117188" xlink:href="#OpenSans-Regular-105"/>
       <use x="945.410156" xlink:href="#OpenSans-Regular-115"/>
       <use x="993.115234" xlink:href="#OpenSans-Regular-116"/>
       <use x="1028.417969" xlink:href="#OpenSans-Regular-115"/>
      </g>
     </g>
    </g>
    <g id="ytick_3">
     <g id="line2d_15"/>
     <g id="text_3">
      <!-- White extremists -->
      <g style="opacity:0.8;" transform="translate(46.825 127.355906)scale(0.1 -0.1)">
       <use xlink:href="#OpenSans-Regular-87"/>
       <use x="92.578125" xlink:href="#OpenSans-Regular-104"/>
       <use x="153.955078" xlink:href="#OpenSans-Regular-105"/>
       <use x="179.248047" xlink:href="#OpenSans-Regular-116"/>
       <use x="214.550781" xlink:href="#OpenSans-Regular-101"/>
       <use x="270.654297" xlink:href="#OpenSans-Regular-32"/>
       <use x="296.630859" xlink:href="#OpenSans-Regular-101"/>
       <use x="352.734375" xlink:href="#OpenSans-Regular-120"/>
       <use x="405.126953" xlink:href="#OpenSans-Regular-116"/>
       <use x="440.429688" xlink:href="#OpenSans-Regular-114"/>
       <use x="481.25" xlink:href="#OpenSans-Regular-101"/>
       <use x="537.353516" xlink:href="#OpenSans-Regular-109"/>
       <use x="630.371094" xlink:href="#OpenSans-Regular-105"/>
       <use x="655.664062" xlink:href="#OpenSans-Regular-115"/>
       <use x="703.369141" xlink:href="#OpenSans-Regular-116"/>
       <use x="738.671875" xlink:href="#OpenSans-Regular-115"/>
      </g>
     </g>
    </g>
    <g id="ytick_4">
     <g id="line2d_16"/>
     <g id="text_4">
      <!-- Jihadi-inspired extremists -->
      <defs>
       <path d="M -0.59375 -18.796875 
Q -5.171875 -18.796875 -7.8125 -17.484375 
L -7.8125 -10.40625 
Q -4.34375 -11.375 -0.59375 -11.375 
Q 4.25 -11.375 6.765625 -8.4375 
Q 9.28125 -5.515625 9.28125 0 
L 9.28125 71.390625 
L 17.578125 71.390625 
L 17.578125 0.6875 
Q 17.578125 -8.59375 12.890625 -13.6875 
Q 8.203125 -18.796875 -0.59375 -18.796875 
z
" id="OpenSans-Regular-74"/>
       <path d="M 41.5 0 
L 39.890625 7.625 
L 39.5 7.625 
Q 35.5 2.59375 31.515625 0.796875 
Q 27.546875 -0.984375 21.578125 -0.984375 
Q 13.625 -0.984375 9.109375 3.125 
Q 4.59375 7.234375 4.59375 14.796875 
Q 4.59375 31 30.515625 31.78125 
L 39.59375 32.078125 
L 39.59375 35.40625 
Q 39.59375 41.703125 36.890625 44.703125 
Q 34.1875 47.703125 28.21875 47.703125 
Q 21.53125 47.703125 13.09375 43.609375 
L 10.59375 49.8125 
Q 14.546875 51.953125 19.25 53.171875 
Q 23.96875 54.390625 28.71875 54.390625 
Q 38.28125 54.390625 42.890625 50.140625 
Q 47.515625 45.90625 47.515625 36.53125 
L 47.515625 0 
z
M 23.1875 5.71875 
Q 30.765625 5.71875 35.078125 9.859375 
Q 39.40625 14.015625 39.40625 21.484375 
L 39.40625 26.3125 
L 31.296875 25.984375 
Q 21.625 25.640625 17.359375 22.96875 
Q 13.09375 20.3125 13.09375 14.703125 
Q 13.09375 10.296875 15.75 8 
Q 18.40625 5.71875 23.1875 5.71875 
z
" id="OpenSans-Regular-97"/>
       <path d="M 45.015625 7.171875 
L 44.578125 7.171875 
Q 38.96875 -0.984375 27.78125 -0.984375 
Q 17.28125 -0.984375 11.4375 6.1875 
Q 5.609375 13.375 5.609375 26.609375 
Q 5.609375 39.84375 11.46875 47.171875 
Q 17.328125 54.5 27.78125 54.5 
Q 38.671875 54.5 44.484375 46.578125 
L 45.125 46.578125 
L 44.78125 50.4375 
L 44.578125 54.203125 
L 44.578125 75.984375 
L 52.6875 75.984375 
L 52.6875 0 
L 46.09375 0 
z
M 28.8125 5.8125 
Q 37.109375 5.8125 40.84375 10.328125 
Q 44.578125 14.84375 44.578125 24.90625 
L 44.578125 26.609375 
Q 44.578125 37.984375 40.796875 42.84375 
Q 37.015625 47.703125 28.71875 47.703125 
Q 21.578125 47.703125 17.796875 42.15625 
Q 14.015625 36.625 14.015625 26.515625 
Q 14.015625 16.265625 17.765625 11.03125 
Q 21.53125 5.8125 28.8125 5.8125 
z
" id="OpenSans-Regular-100"/>
       <path d="M 33.5 -0.984375 
Q 28.265625 -0.984375 23.9375 0.9375 
Q 19.625 2.875 16.703125 6.890625 
L 16.109375 6.890625 
Q 16.703125 2.203125 16.703125 -2 
L 16.703125 -24.03125 
L 8.59375 -24.03125 
L 8.59375 53.515625 
L 15.1875 53.515625 
L 16.3125 46.1875 
L 16.703125 46.1875 
Q 19.828125 50.59375 23.96875 52.546875 
Q 28.125 54.5 33.5 54.5 
Q 44.140625 54.5 49.921875 47.21875 
Q 55.71875 39.9375 55.71875 26.8125 
Q 55.71875 13.625 49.828125 6.3125 
Q 43.953125 -0.984375 33.5 -0.984375 
z
M 32.328125 47.609375 
Q 24.125 47.609375 20.453125 43.0625 
Q 16.796875 38.53125 16.703125 28.609375 
L 16.703125 26.8125 
Q 16.703125 15.53125 20.453125 10.671875 
Q 24.21875 5.8125 32.515625 5.8125 
Q 39.453125 5.8125 43.375 11.421875 
Q 47.3125 17.046875 47.3125 26.90625 
Q 47.3125 36.921875 43.375 42.265625 
Q 39.453125 47.609375 32.328125 47.609375 
z
" id="OpenSans-Regular-112"/>
      </defs>
      <g style="opacity:0.8;" transform="translate(7.2 94.739906)scale(0.1 -0.1)">
       <use xlink:href="#OpenSans-Regular-74"/>
       <use x="26.708984" xlink:href="#OpenSans-Regular-105"/>
       <use x="52.001953" xlink:href="#OpenSans-Regular-104"/>
       <use x="113.378906" xlink:href="#OpenSans-Regular-97"/>
       <use x="168.994141" xlink:href="#OpenSans-Regular-100"/>
       <use x="230.273438" xlink:href="#OpenSans-Regular-105"/>
       <use x="255.566406" xlink:href="#OpenSans-Regular-45"/>
       <use x="287.744141" xlink:href="#OpenSans-Regular-105"/>
       <use x="313.037109" xlink:href="#OpenSans-Regular-110"/>
       <use x="374.414062" xlink:href="#OpenSans-Regular-115"/>
       <use x="422.119141" xlink:href="#OpenSans-Regular-112"/>
       <use x="483.398438" xlink:href="#OpenSans-Regular-105"/>
       <use x="508.691406" xlink:href="#OpenSans-Regular-114"/>
       <use x="549.511719" xlink:href="#OpenSans-Regular-101"/>
       <use x="605.615234" xlink:href="#OpenSans-Regular-100"/>
       <use x="666.894531" xlink:href="#OpenSans-Regular-32"/>
       <use x="692.871094" xlink:href="#OpenSans-Regular-101"/>
       <use x="748.974609" xlink:href="#OpenSans-Regular-120"/>
       <use x="801.367188" xlink:href="#OpenSans-Regular-116"/>
       <use x="836.669922" xlink:href="#OpenSans-Regular-114"/>
       <use x="877.490234" xlink:href="#OpenSans-Regular-101"/>
       <use x="933.59375" xlink:href="#OpenSans-Regular-109"/>
       <use x="1026.611328" xlink:href="#OpenSans-Regular-105"/>
       <use x="1051.904297" xlink:href="#OpenSans-Regular-115"/>
       <use x="1099.609375" xlink:href="#OpenSans-Regular-116"/>
       <use x="1134.912109" xlink:href="#OpenSans-Regular-115"/>
      </g>
     </g>
    </g>
    <g id="ytick_5">
     <g id="line2d_17"/>
     <g id="text_5">
      <!-- Unknown -->
      <defs>
       <path d="M 63.71875 71.390625 
L 63.71875 25.203125 
Q 63.71875 12.984375 56.34375 6 
Q 48.96875 -0.984375 36.078125 -0.984375 
Q 23.1875 -0.984375 16.125 6.046875 
Q 9.078125 13.09375 9.078125 25.390625 
L 9.078125 71.390625 
L 17.390625 71.390625 
L 17.390625 24.8125 
Q 17.390625 15.875 22.265625 11.078125 
Q 27.15625 6.296875 36.625 6.296875 
Q 45.65625 6.296875 50.53125 11.109375 
Q 55.421875 15.921875 55.421875 24.90625 
L 55.421875 71.390625 
z
" id="OpenSans-Regular-85"/>
       <path d="M 16.609375 27.390625 
Q 18.703125 30.375 23 35.203125 
L 40.28125 53.515625 
L 49.90625 53.515625 
L 28.21875 30.71875 
L 51.421875 0 
L 41.609375 0 
L 22.703125 25.296875 
L 16.609375 20.015625 
L 16.609375 0 
L 8.59375 0 
L 8.59375 75.984375 
L 16.609375 75.984375 
L 16.609375 35.6875 
Q 16.609375 33.015625 16.21875 27.390625 
z
" id="OpenSans-Regular-107"/>
       <path d="M 54.78125 26.8125 
Q 54.78125 13.71875 48.1875 6.359375 
Q 41.609375 -0.984375 29.984375 -0.984375 
Q 22.796875 -0.984375 17.234375 2.390625 
Q 11.671875 5.765625 8.640625 12.0625 
Q 5.609375 18.359375 5.609375 26.8125 
Q 5.609375 39.890625 12.15625 47.1875 
Q 18.703125 54.5 30.328125 54.5 
Q 41.546875 54.5 48.15625 47.015625 
Q 54.78125 39.546875 54.78125 26.8125 
z
M 14.015625 26.8125 
Q 14.015625 16.546875 18.109375 11.171875 
Q 22.21875 5.8125 30.171875 5.8125 
Q 38.140625 5.8125 42.265625 11.15625 
Q 46.390625 16.5 46.390625 26.8125 
Q 46.390625 37.015625 42.265625 42.3125 
Q 38.140625 47.609375 30.078125 47.609375 
Q 22.125 47.609375 18.0625 42.375 
Q 14.015625 37.15625 14.015625 26.8125 
z
" id="OpenSans-Regular-111"/>
       <path d="M 52.296875 0 
L 42.484375 31.390625 
Q 41.546875 34.28125 39.015625 44.484375 
L 38.625 44.484375 
Q 36.671875 35.9375 35.203125 31.296875 
L 25.09375 0 
L 15.71875 0 
L 1.125 53.515625 
L 9.625 53.515625 
Q 14.796875 33.34375 17.5 22.796875 
Q 20.21875 12.25 20.609375 8.59375 
L 21 8.59375 
Q 21.53125 11.375 22.71875 15.796875 
Q 23.921875 20.21875 24.8125 22.796875 
L 34.625 53.515625 
L 43.40625 53.515625 
L 52.984375 22.796875 
Q 55.71875 14.40625 56.6875 8.6875 
L 57.078125 8.6875 
Q 57.28125 10.453125 58.125 14.109375 
Q 58.984375 17.78125 68.3125 53.515625 
L 76.703125 53.515625 
L 61.921875 0 
z
" id="OpenSans-Regular-119"/>
      </defs>
      <g style="opacity:0.8;" transform="translate(80.704688 62.123906)scale(0.1 -0.1)">
       <use xlink:href="#OpenSans-Regular-85"/>
       <use x="72.802734" xlink:href="#OpenSans-Regular-110"/>
       <use x="134.179688" xlink:href="#OpenSans-Regular-107"/>
       <use x="186.669922" xlink:href="#OpenSans-Regular-110"/>
       <use x="248.046875" xlink:href="#OpenSans-Regular-111"/>
       <use x="308.447266" xlink:href="#OpenSans-Regular-119"/>
       <use x="386.230469" xlink:href="#OpenSans-Regular-110"/>
      </g>
     </g>
    </g>
   </g>
   <g id="patch_3">
    <path clip-path="url(#peae9f4f28d)" d="M 128.964063 198.14425 
L 161.504322 198.14425 
L 161.504322 181.83625 
L 128.964063 181.83625 
z
" style="fill:#cc5b51;opacity:0.9;"/>
   </g>
   <g id="patch_4">
    <path clip-path="url(#peae9f4f28d)" d="M 128.964063 165.52825 
L 188.621205 165.52825 
L 188.621205 149.22025 
L 128.964063 149.22025 
z
" style="fill:#cc5b51;opacity:0.9;"/>
   </g>
   <g id="patch_5">
    <path clip-path="url(#peae9f4f28d)" d="M 128.964063 132.91225 
L 188.621205 132.91225 
L 188.621205 116.60425 
L 128.964063 116.60425 
z
" style="fill:#cc5b51;opacity:0.9;"/>
   </g>
   <g id="patch_6">
    <path clip-path="url(#peae9f4f28d)" d="M 128.964063 100.29625 
L 194.044582 100.29625 
L 194.044582 83.98825 
L 128.964063 83.98825 
z
" style="fill:#cc5b51;opacity:0.9;"/>
   </g>
   <g id="patch_7">
    <path clip-path="url(#peae9f4f28d)" d="M 128.964063 67.68025 
L 427.249777 67.68025 
L 427.249777 51.37225 
L 128.964063 51.37225 
z
" style="fill:#cc5b51;opacity:0.9;"/>
   </g>
   <g id="patch_8">
    <path d="M 128.964063 206.29825 
L 128.964063 43.21825 
" style="fill:none;stroke:#f0f0f0;stroke-linecap:square;stroke-linejoin:miter;stroke-width:3;"/>
   </g>
   <g id="patch_9">
    <path d="M 442.164062 206.29825 
L 442.164062 43.21825 
" style="fill:none;stroke:#f0f0f0;stroke-linecap:square;stroke-linejoin:miter;stroke-width:3;"/>
   </g>
   <g id="patch_10">
    <path d="M 128.964063 206.29825 
L 442.164062 206.29825 
" style="fill:none;stroke:#f0f0f0;stroke-linecap:square;stroke-linejoin:miter;stroke-width:3;"/>
   </g>
   <g id="patch_11">
    <path d="M 128.964063 43.21825 
L 442.164062 43.21825 
" style="fill:none;stroke:#f0f0f0;stroke-linecap:square;stroke-linejoin:miter;stroke-width:3;"/>
   </g>
   <g id="text_6">
    <!-- 6 -->
    <defs>
     <path d="M 5.71875 30.515625 
Q 5.71875 51.5625 13.890625 61.984375 
Q 22.078125 72.40625 38.09375 72.40625 
Q 43.609375 72.40625 46.78125 71.484375 
L 46.78125 64.5 
Q 43.015625 65.71875 38.1875 65.71875 
Q 26.703125 65.71875 20.640625 58.5625 
Q 14.59375 51.421875 14.015625 36.078125 
L 14.59375 36.078125 
Q 19.96875 44.484375 31.59375 44.484375 
Q 41.21875 44.484375 46.75 38.671875 
Q 52.296875 32.859375 52.296875 22.90625 
Q 52.296875 11.765625 46.21875 5.390625 
Q 40.140625 -0.984375 29.78125 -0.984375 
Q 18.703125 -0.984375 12.203125 7.34375 
Q 5.71875 15.671875 5.71875 30.515625 
z
M 29.6875 5.90625 
Q 36.625 5.90625 40.453125 10.28125 
Q 44.28125 14.65625 44.28125 22.90625 
Q 44.28125 29.984375 40.71875 34.03125 
Q 37.15625 38.09375 30.078125 38.09375 
Q 25.6875 38.09375 22.015625 36.28125 
Q 18.359375 34.46875 16.1875 31.296875 
Q 14.015625 28.125 14.015625 24.703125 
Q 14.015625 19.671875 15.96875 15.328125 
Q 17.921875 10.984375 21.5 8.4375 
Q 25.09375 5.90625 29.6875 5.90625 
z
" id="OpenSans-Regular-54"/>
    </defs>
    <g style="fill:#808080;" transform="translate(168.349044 193.626969)scale(0.14 -0.14)">
     <use xlink:href="#OpenSans-Regular-54"/>
    </g>
   </g>
   <g id="text_7">
    <!-- 11 -->
    <defs>
     <path d="M 34.90625 0 
L 27 0 
L 27 50.875 
Q 27 57.234375 27.390625 62.890625 
Q 26.375 61.859375 25.09375 60.734375 
Q 23.828125 59.625 13.484375 51.21875 
L 9.1875 56.78125 
L 28.078125 71.390625 
L 34.90625 71.390625 
z
" id="OpenSans-Regular-49"/>
    </defs>
    <g style="fill:#808080;" transform="translate(191.463896 161.010969)scale(0.14 -0.14)">
     <use xlink:href="#OpenSans-Regular-49"/>
     <use x="57.177734" xlink:href="#OpenSans-Regular-49"/>
    </g>
   </g>
   <g id="text_8">
    <!-- 11 -->
    <g style="fill:#808080;" transform="translate(191.463896 128.394969)scale(0.14 -0.14)">
     <use xlink:href="#OpenSans-Regular-49"/>
     <use x="57.177734" xlink:href="#OpenSans-Regular-49"/>
    </g>
   </g>
   <g id="text_9">
    <!-- 12 -->
    <defs>
     <path d="M 51.8125 0 
L 4.890625 0 
L 4.890625 6.984375 
L 23.6875 25.875 
Q 32.28125 34.578125 35.015625 38.28125 
Q 37.75 42 39.109375 45.515625 
Q 40.484375 49.03125 40.484375 53.078125 
Q 40.484375 58.796875 37.015625 62.140625 
Q 33.546875 65.484375 27.390625 65.484375 
Q 22.953125 65.484375 18.96875 64.015625 
Q 14.984375 62.546875 10.109375 58.6875 
L 5.8125 64.203125 
Q 15.671875 72.40625 27.296875 72.40625 
Q 37.359375 72.40625 43.0625 67.25 
Q 48.78125 62.109375 48.78125 53.421875 
Q 48.78125 46.625 44.96875 39.984375 
Q 41.15625 33.34375 30.71875 23.1875 
L 15.09375 7.90625 
L 15.09375 7.515625 
L 51.8125 7.515625 
z
" id="OpenSans-Regular-50"/>
    </defs>
    <g style="fill:#808080;" transform="translate(196.887273 95.778969)scale(0.14 -0.14)">
     <use xlink:href="#OpenSans-Regular-49"/>
     <use x="57.177734" xlink:href="#OpenSans-Regular-50"/>
    </g>
   </g>
   <g id="text_10">
    <!-- 55 -->
    <defs>
     <path d="M 27.203125 43.609375 
Q 38.484375 43.609375 44.953125 38.015625 
Q 51.421875 32.421875 51.421875 22.703125 
Q 51.421875 11.625 44.359375 5.3125 
Q 37.3125 -0.984375 24.90625 -0.984375 
Q 12.84375 -0.984375 6.5 2.875 
L 6.5 10.6875 
Q 9.90625 8.5 14.984375 7.25 
Q 20.0625 6 25 6 
Q 33.59375 6 38.34375 10.046875 
Q 43.109375 14.109375 43.109375 21.78125 
Q 43.109375 36.71875 24.8125 36.71875 
Q 20.171875 36.71875 12.40625 35.296875 
L 8.203125 37.984375 
L 10.890625 71.390625 
L 46.390625 71.390625 
L 46.390625 63.921875 
L 17.828125 63.921875 
L 16.015625 42.484375 
Q 21.625 43.609375 27.203125 43.609375 
z
" id="OpenSans-Regular-53"/>
    </defs>
    <g style="fill:#808080;" transform="translate(430.092468 63.162969)scale(0.14 -0.14)">
     <use xlink:href="#OpenSans-Regular-53"/>
     <use x="57.177734" xlink:href="#OpenSans-Regular-53"/>
    </g>
   </g>
   <g id="text_11">
    <!-- Unknown Groups Dwarf Others -->
    <defs>
     <path d="M 41.21875 37.40625 
L 65.484375 37.40625 
L 65.484375 2.6875 
Q 59.8125 0.875 53.953125 -0.046875 
Q 48.09375 -0.984375 40.375 -0.984375 
Q 24.171875 -0.984375 15.140625 8.65625 
Q 6.109375 18.3125 6.109375 35.6875 
Q 6.109375 46.828125 10.578125 55.203125 
Q 15.046875 63.578125 23.4375 67.984375 
Q 31.84375 72.40625 43.109375 72.40625 
Q 54.546875 72.40625 64.40625 68.21875 
L 61.1875 60.890625 
Q 51.515625 64.984375 42.578125 64.984375 
Q 29.546875 64.984375 22.21875 57.21875 
Q 14.890625 49.46875 14.890625 35.6875 
Q 14.890625 21.234375 21.9375 13.765625 
Q 29 6.296875 42.671875 6.296875 
Q 50.09375 6.296875 57.171875 8.015625 
L 57.171875 29.984375 
L 41.21875 29.984375 
z
" id="OpenSans-Regular-71"/>
     <path d="M 66.796875 36.375 
Q 66.796875 18.703125 57.203125 9.34375 
Q 47.609375 0 29.59375 0 
L 9.8125 0 
L 9.8125 71.390625 
L 31.6875 71.390625 
Q 48.34375 71.390625 57.5625 62.15625 
Q 66.796875 52.9375 66.796875 36.375 
z
M 58.015625 36.078125 
Q 58.015625 50.046875 51 57.125 
Q 44 64.203125 30.171875 64.203125 
L 18.109375 64.203125 
L 18.109375 7.171875 
L 28.21875 7.171875 
Q 43.0625 7.171875 50.53125 14.46875 
Q 58.015625 21.78125 58.015625 36.078125 
z
" id="OpenSans-Regular-68"/>
     <path d="M 32.71875 47.21875 
L 19.09375 47.21875 
L 19.09375 0 
L 10.984375 0 
L 10.984375 47.21875 
L 1.421875 47.21875 
L 1.421875 50.875 
L 10.984375 53.8125 
L 10.984375 56.78125 
Q 10.984375 76.515625 28.21875 76.515625 
Q 32.46875 76.515625 38.1875 74.8125 
L 36.078125 68.3125 
Q 31.390625 69.828125 28.078125 69.828125 
Q 23.484375 69.828125 21.28125 66.765625 
Q 19.09375 63.71875 19.09375 56.984375 
L 19.09375 53.515625 
L 32.71875 53.515625 
z
" id="OpenSans-Regular-102"/>
     <path d="M 71.78125 35.796875 
Q 71.78125 18.65625 63.109375 8.828125 
Q 54.4375 -0.984375 39.015625 -0.984375 
Q 23.25 -0.984375 14.671875 8.65625 
Q 6.109375 18.3125 6.109375 35.890625 
Q 6.109375 53.328125 14.703125 62.921875 
Q 23.296875 72.515625 39.109375 72.515625 
Q 54.5 72.515625 63.140625 62.75 
Q 71.78125 52.984375 71.78125 35.796875 
z
M 14.890625 35.796875 
Q 14.890625 21.296875 21.0625 13.796875 
Q 27.25 6.296875 39.015625 6.296875 
Q 50.875 6.296875 56.921875 13.765625 
Q 62.984375 21.234375 62.984375 35.796875 
Q 62.984375 50.203125 56.953125 57.640625 
Q 50.921875 65.09375 39.109375 65.09375 
Q 27.25 65.09375 21.0625 57.59375 
Q 14.890625 50.09375 14.890625 35.796875 
z
" id="OpenSans-Regular-79"/>
    </defs>
    <g transform="translate(73.863812 18.21825)scale(0.144 -0.144)">
     <use xlink:href="#OpenSans-Regular-85"/>
     <use x="72.802734" xlink:href="#OpenSans-Regular-110"/>
     <use x="134.179688" xlink:href="#OpenSans-Regular-107"/>
     <use x="186.669922" xlink:href="#OpenSans-Regular-110"/>
     <use x="248.046875" xlink:href="#OpenSans-Regular-111"/>
     <use x="308.447266" xlink:href="#OpenSans-Regular-119"/>
     <use x="386.230469" xlink:href="#OpenSans-Regular-110"/>
     <use x="447.607422" xlink:href="#OpenSans-Regular-32"/>
     <use x="473.583984" xlink:href="#OpenSans-Regular-71"/>
     <use x="546.386719" xlink:href="#OpenSans-Regular-114"/>
     <use x="587.207031" xlink:href="#OpenSans-Regular-111"/>
     <use x="647.607422" xlink:href="#OpenSans-Regular-117"/>
     <use x="708.984375" xlink:href="#OpenSans-Regular-112"/>
     <use x="770.263672" xlink:href="#OpenSans-Regular-115"/>
     <use x="817.96875" xlink:href="#OpenSans-Regular-32"/>
     <use x="843.945312" xlink:href="#OpenSans-Regular-68"/>
     <use x="916.845703" xlink:href="#OpenSans-Regular-119"/>
     <use x="994.628906" xlink:href="#OpenSans-Regular-97"/>
     <use x="1050.244141" xlink:href="#OpenSans-Regular-114"/>
     <use x="1091.064453" xlink:href="#OpenSans-Regular-102"/>
     <use x="1124.951172" xlink:href="#OpenSans-Regular-32"/>
     <use x="1150.927734" xlink:href="#OpenSans-Regular-79"/>
     <use x="1228.808594" xlink:href="#OpenSans-Regular-116"/>
     <use x="1264.111328" xlink:href="#OpenSans-Regular-104"/>
     <use x="1325.488281" xlink:href="#OpenSans-Regular-101"/>
     <use x="1381.591797" xlink:href="#OpenSans-Regular-114"/>
     <use x="1422.412109" xlink:href="#OpenSans-Regular-115"/>
    </g>
   </g>
  </g>
  <g id="text_12">
   <!-- The number of "Unknown"  -->
   <defs>
    <path d="M 36.53125 0 
L 21.390625 0 
L 21.390625 58.796875 
L 2 58.796875 
L 2 71.390625 
L 55.90625 71.390625 
L 55.90625 58.796875 
L 36.53125 58.796875 
z
" id="OpenSans-Bold-84"/>
    <path d="M 58.203125 0 
L 43.3125 0 
L 43.3125 31.890625 
Q 43.3125 43.703125 34.515625 43.703125 
Q 28.265625 43.703125 25.484375 39.453125 
Q 22.703125 35.203125 22.703125 25.6875 
L 22.703125 0 
L 7.8125 0 
L 7.8125 75.984375 
L 22.703125 75.984375 
L 22.703125 60.5 
Q 22.703125 58.6875 22.359375 52 
L 22.015625 47.609375 
L 22.796875 47.609375 
Q 27.78125 55.609375 38.625 55.609375 
Q 48.25 55.609375 53.21875 50.4375 
Q 58.203125 45.265625 58.203125 35.59375 
z
" id="OpenSans-Bold-104"/>
    <path d="M 30.421875 45.015625 
Q 25.6875 45.015625 23 42.015625 
Q 20.3125 39.015625 19.921875 33.5 
L 40.828125 33.5 
Q 40.71875 39.015625 37.9375 42.015625 
Q 35.15625 45.015625 30.421875 45.015625 
z
M 32.515625 -0.984375 
Q 19.34375 -0.984375 11.921875 6.296875 
Q 4.5 13.578125 4.5 26.90625 
Q 4.5 40.625 11.359375 48.109375 
Q 18.21875 55.609375 30.328125 55.609375 
Q 41.890625 55.609375 48.328125 49.015625 
Q 54.78125 42.4375 54.78125 30.8125 
L 54.78125 23.578125 
L 19.578125 23.578125 
Q 19.828125 17.234375 23.34375 13.671875 
Q 26.859375 10.109375 33.203125 10.109375 
Q 38.140625 10.109375 42.53125 11.125 
Q 46.921875 12.15625 51.703125 14.40625 
L 51.703125 2.875 
Q 47.796875 0.921875 43.359375 -0.03125 
Q 38.921875 -0.984375 32.515625 -0.984375 
z
" id="OpenSans-Bold-101"/>
    <path id="OpenSans-Bold-32"/>
    <path d="M 58.203125 0 
L 43.3125 0 
L 43.3125 31.890625 
Q 43.3125 37.796875 41.203125 40.75 
Q 39.109375 43.703125 34.515625 43.703125 
Q 28.265625 43.703125 25.484375 39.53125 
Q 22.703125 35.359375 22.703125 25.6875 
L 22.703125 0 
L 7.8125 0 
L 7.8125 54.59375 
L 19.1875 54.59375 
L 21.1875 47.609375 
L 22.015625 47.609375 
Q 24.515625 51.5625 28.875 53.578125 
Q 33.25 55.609375 38.8125 55.609375 
Q 48.34375 55.609375 53.265625 50.453125 
Q 58.203125 45.3125 58.203125 35.59375 
z
" id="OpenSans-Bold-110"/>
    <path d="M 46.484375 0 
L 44.484375 6.984375 
L 43.703125 6.984375 
Q 41.3125 3.171875 36.90625 1.09375 
Q 32.515625 -0.984375 26.90625 -0.984375 
Q 17.28125 -0.984375 12.390625 4.171875 
Q 7.515625 9.328125 7.515625 19 
L 7.515625 54.59375 
L 22.40625 54.59375 
L 22.40625 22.703125 
Q 22.40625 16.796875 24.5 13.84375 
Q 26.609375 10.890625 31.203125 10.890625 
Q 37.453125 10.890625 40.234375 15.0625 
Q 43.015625 19.234375 43.015625 28.90625 
L 43.015625 54.59375 
L 57.90625 54.59375 
L 57.90625 0 
z
" id="OpenSans-Bold-117"/>
    <path d="M 56.6875 0 
L 41.796875 0 
L 41.796875 31.890625 
Q 41.796875 37.796875 39.8125 40.75 
Q 37.84375 43.703125 33.59375 43.703125 
Q 27.875 43.703125 25.28125 39.5 
Q 22.703125 35.296875 22.703125 25.6875 
L 22.703125 0 
L 7.8125 0 
L 7.8125 54.59375 
L 19.1875 54.59375 
L 21.1875 47.609375 
L 22.015625 47.609375 
Q 24.21875 51.375 28.359375 53.484375 
Q 32.515625 55.609375 37.890625 55.609375 
Q 50.140625 55.609375 54.5 47.609375 
L 55.8125 47.609375 
Q 58.015625 51.421875 62.28125 53.515625 
Q 66.546875 55.609375 71.921875 55.609375 
Q 81.203125 55.609375 85.953125 50.84375 
Q 90.71875 46.09375 90.71875 35.59375 
L 90.71875 0 
L 75.78125 0 
L 75.78125 31.890625 
Q 75.78125 37.796875 73.796875 40.75 
Q 71.828125 43.703125 67.578125 43.703125 
Q 62.109375 43.703125 59.390625 39.796875 
Q 56.6875 35.890625 56.6875 27.390625 
z
" id="OpenSans-Bold-109"/>
    <path d="M 38.1875 55.609375 
Q 47.859375 55.609375 53.328125 48.0625 
Q 58.796875 40.53125 58.796875 27.390625 
Q 58.796875 13.875 53.15625 6.4375 
Q 47.515625 -0.984375 37.796875 -0.984375 
Q 28.171875 -0.984375 22.703125 6 
L 21.6875 6 
L 19.1875 0 
L 7.8125 0 
L 7.8125 75.984375 
L 22.703125 75.984375 
L 22.703125 58.296875 
Q 22.703125 54.9375 22.125 47.515625 
L 22.703125 47.515625 
Q 27.9375 55.609375 38.1875 55.609375 
z
M 33.40625 43.703125 
Q 27.875 43.703125 25.328125 40.3125 
Q 22.796875 36.921875 22.703125 29.109375 
L 22.703125 27.484375 
Q 22.703125 18.703125 25.3125 14.890625 
Q 27.9375 11.078125 33.59375 11.078125 
Q 38.1875 11.078125 40.890625 15.296875 
Q 43.609375 19.53125 43.609375 27.59375 
Q 43.609375 35.640625 40.875 39.671875 
Q 38.140625 43.703125 33.40625 43.703125 
z
" id="OpenSans-Bold-98"/>
    <path d="M 38.28125 55.609375 
Q 41.3125 55.609375 43.3125 55.171875 
L 42.1875 41.21875 
Q 40.375 41.703125 37.796875 41.703125 
Q 30.671875 41.703125 26.6875 38.03125 
Q 22.703125 34.375 22.703125 27.78125 
L 22.703125 0 
L 7.8125 0 
L 7.8125 54.59375 
L 19.09375 54.59375 
L 21.296875 45.40625 
L 22.015625 45.40625 
Q 24.5625 50 28.875 52.796875 
Q 33.203125 55.609375 38.28125 55.609375 
z
" id="OpenSans-Bold-114"/>
    <path d="M 19.671875 27.390625 
Q 19.671875 19.28125 22.328125 15.125 
Q 25 10.984375 31 10.984375 
Q 36.96875 10.984375 39.578125 15.109375 
Q 42.1875 19.234375 42.1875 27.390625 
Q 42.1875 35.5 39.546875 39.546875 
Q 36.921875 43.609375 30.90625 43.609375 
Q 24.953125 43.609375 22.3125 39.578125 
Q 19.671875 35.546875 19.671875 27.390625 
z
M 57.421875 27.390625 
Q 57.421875 14.0625 50.390625 6.53125 
Q 43.359375 -0.984375 30.8125 -0.984375 
Q 22.953125 -0.984375 16.9375 2.453125 
Q 10.9375 5.90625 7.71875 12.34375 
Q 4.5 18.796875 4.5 27.390625 
Q 4.5 40.765625 11.46875 48.1875 
Q 18.453125 55.609375 31.109375 55.609375 
Q 38.96875 55.609375 44.96875 52.1875 
Q 50.984375 48.78125 54.203125 42.375 
Q 57.421875 35.984375 57.421875 27.390625 
z
" id="OpenSans-Bold-111"/>
    <path d="M 37.984375 43.40625 
L 25.09375 43.40625 
L 25.09375 0 
L 10.203125 0 
L 10.203125 43.40625 
L 2 43.40625 
L 2 50.59375 
L 10.203125 54.59375 
L 10.203125 58.59375 
Q 10.203125 67.921875 14.796875 72.21875 
Q 19.390625 76.515625 29.5 76.515625 
Q 37.203125 76.515625 43.21875 74.21875 
L 39.40625 63.28125 
Q 34.90625 64.703125 31.109375 64.703125 
Q 27.9375 64.703125 26.515625 62.8125 
Q 25.09375 60.9375 25.09375 58.015625 
L 25.09375 54.59375 
L 37.984375 54.59375 
z
" id="OpenSans-Bold-102"/>
    <path d="M 20.125 71.390625 
L 18.109375 45.609375 
L 8.5 45.609375 
L 6.5 71.390625 
z
M 40.71875 71.390625 
L 38.71875 45.609375 
L 29.109375 45.609375 
L 27.09375 71.390625 
z
" id="OpenSans-Bold-34"/>
    <path d="M 67.09375 71.390625 
L 67.09375 25.203125 
Q 67.09375 17.28125 63.546875 11.328125 
Q 60.015625 5.375 53.3125 2.1875 
Q 46.625 -0.984375 37.5 -0.984375 
Q 23.734375 -0.984375 16.109375 6.078125 
Q 8.5 13.140625 8.5 25.390625 
L 8.5 71.390625 
L 23.578125 71.390625 
L 23.578125 27.6875 
Q 23.578125 19.4375 26.890625 15.578125 
Q 30.21875 11.71875 37.890625 11.71875 
Q 45.3125 11.71875 48.65625 15.59375 
Q 52 19.484375 52 27.78125 
L 52 71.390625 
z
" id="OpenSans-Bold-85"/>
    <path d="M 22.125 29.6875 
L 28.609375 37.984375 
L 43.890625 54.59375 
L 60.6875 54.59375 
L 39.015625 30.90625 
L 62.015625 0 
L 44.828125 0 
L 29.109375 22.125 
L 22.703125 17 
L 22.703125 0 
L 7.8125 0 
L 7.8125 75.984375 
L 22.703125 75.984375 
L 22.703125 42.09375 
L 21.921875 29.6875 
z
" id="OpenSans-Bold-107"/>
    <path d="M 52.6875 0 
L 48.484375 19.09375 
L 42.828125 43.21875 
L 42.484375 43.21875 
L 32.515625 0 
L 16.5 0 
L 0.984375 54.59375 
L 15.828125 54.59375 
L 22.125 30.421875 
Q 23.640625 23.921875 25.203125 12.5 
L 25.484375 12.5 
Q 25.6875 16.21875 27.203125 24.265625 
L 27.984375 28.421875 
L 34.71875 54.59375 
L 51.125 54.59375 
L 57.515625 28.421875 
Q 57.71875 27.34375 58.125 25.234375 
Q 58.546875 23.140625 58.9375 20.765625 
Q 59.328125 18.40625 59.640625 16.140625 
Q 59.96875 13.875 60.015625 12.5 
L 60.296875 12.5 
Q 60.75 16.015625 61.859375 22.140625 
Q 62.984375 28.265625 63.484375 30.421875 
L 70.015625 54.59375 
L 84.625 54.59375 
L 68.890625 0 
z
" id="OpenSans-Bold-119"/>
   </defs>
   <g transform="translate(89.569375 32.256063)scale(0.14 -0.14)">
    <use xlink:href="#OpenSans-Bold-84"/>
    <use x="57.910156" xlink:href="#OpenSans-Bold-104"/>
    <use x="123.632812" xlink:href="#OpenSans-Bold-101"/>
    <use x="182.714844" xlink:href="#OpenSans-Bold-32"/>
    <use x="208.691406" xlink:href="#OpenSans-Bold-110"/>
    <use x="274.414062" xlink:href="#OpenSans-Bold-117"/>
    <use x="340.136719" xlink:href="#OpenSans-Bold-109"/>
    <use x="438.330078" xlink:href="#OpenSans-Bold-98"/>
    <use x="501.611328" xlink:href="#OpenSans-Bold-101"/>
    <use x="560.693359" xlink:href="#OpenSans-Bold-114"/>
    <use x="606.103516" xlink:href="#OpenSans-Bold-32"/>
    <use x="632.080078" xlink:href="#OpenSans-Bold-111"/>
    <use x="693.994141" xlink:href="#OpenSans-Bold-102"/>
    <use x="732.714844" xlink:href="#OpenSans-Bold-32"/>
    <use x="758.691406" xlink:href="#OpenSans-Bold-34"/>
    <use x="805.908203" xlink:href="#OpenSans-Bold-85"/>
    <use x="881.494141" xlink:href="#OpenSans-Bold-110"/>
    <use x="947.216797" xlink:href="#OpenSans-Bold-107"/>
    <use x="1009.228516" xlink:href="#OpenSans-Bold-110"/>
    <use x="1074.951172" xlink:href="#OpenSans-Bold-111"/>
    <use x="1136.865234" xlink:href="#OpenSans-Bold-119"/>
    <use x="1222.460938" xlink:href="#OpenSans-Bold-110"/>
    <use x="1288.183594" xlink:href="#OpenSans-Bold-34"/>
    <use x="1335.400391" xlink:href="#OpenSans-Bold-32"/>
   </g>
  </g>
 </g>
 <defs>
  <clipPath id="peae9f4f28d">
   <rect height="163.08" width="313.2" x="128.964063" y="43.21825"/>
  </clipPath>
 </defs>
</svg>
