<svg id="Layer_1" data-name="Layer 1" xmlns="http://www.w3.org/2000/svg" viewBox="0 0 1127.49 1137.7">
  <defs>
    <style>
      .cls-1, .cls-2, .cls-4, .cls-6, .cls-7 {
        fill: none;
      }

      .cls-1, .cls-2 {
        stroke: #fff;
      }

      .cls-1, .cls-2, .cls-6, .cls-7 {
        stroke-linecap: square;
      }

      .cls-1, .cls-6, .cls-7 {
        stroke-linejoin: round;
      }

      .cls-1 {
        stroke-width: 0.8px;
      }

      .cls-2 {
        stroke-miterlimit: 10;
      }

      .cls-3 {
        fill: #e5e5e5;
      }

      .cls-5 {
        fill: #555;
      }

      .cls-6 {
        stroke: #175282;
      }

      .cls-6, .cls-7 {
        stroke-width: 1.5px;
      }

      .cls-7 {
        stroke: #b43632;
      }
    </style>
  </defs>
  <title>all_lines_performance</title>
  <line class="cls-1" x1="5.7" y1="266.51" x2="165.13" y2="266.51"/>
  <line class="cls-2" x1="5.7" y1="266.51" x2="165.13" y2="266.51"/>
  <line class="cls-1" x1="197.02" y1="266.51" x2="356.44" y2="266.51"/>
  <line class="cls-2" x1="197.02" y1="266.51" x2="356.44" y2="266.51"/>
  <line class="cls-1" x1="388.33" y1="266.51" x2="547.76" y2="266.51"/>
  <line class="cls-2" x1="388.33" y1="266.51" x2="547.76" y2="266.51"/>
  <line class="cls-1" x1="579.64" y1="266.51" x2="739.07" y2="266.51"/>
  <line class="cls-2" x1="579.64" y1="266.51" x2="739.07" y2="266.51"/>
  <line class="cls-1" x1="770.96" y1="266.51" x2="930.39" y2="266.51"/>
  <line class="cls-2" x1="770.96" y1="266.51" x2="930.39" y2="266.51"/>
  <line class="cls-1" x1="962.27" y1="266.51" x2="1121.7" y2="266.51"/>
  <line class="cls-2" x1="962.27" y1="266.51" x2="1121.7" y2="266.51"/>
  <g>
    <rect class="cls-3" x="5.7" y="30.16" width="159.43" height="236.35"/>
    <line class="cls-1" x1="5.7" y1="266.51" x2="5.7" y2="30.16"/>
    <rect class="cls-4" x="5.7" y="30.16" width="159.43" height="236.35"/>
    <line class="cls-1" x1="37.59" y1="266.51" x2="37.59" y2="30.16"/>
    <rect class="cls-4" x="5.7" y="30.16" width="159.43" height="236.35"/>
    <line class="cls-1" x1="69.47" y1="266.51" x2="69.47" y2="30.16"/>
    <line class="cls-1" x1="101.36" y1="266.51" x2="101.36" y2="30.16"/>
    <line class="cls-1" x1="133.24" y1="266.51" x2="133.24" y2="30.16"/>
    <line class="cls-1" x1="165.13" y1="266.51" x2="165.13" y2="30.16"/>
    <rect class="cls-4" x="5.7" y="30.16" width="159.43" height="236.35"/>
    <rect class="cls-4" x="5.7" y="30.16" width="159.43" height="236.35"/>
    <g>
      <path class="cls-5" d="M11.57,263.31H10.3v-8.14c0-.68,0-1.32.07-1.93l-.37.35-1.86,1.52-.69-.89,3-2.34h1.09Z"/>
      <path class="cls-5" d="M19.48,256.33a4.22,4.22,0,0,1,2.84.89,3.09,3.09,0,0,1,1,2.45,3.53,3.53,0,0,1-1.13,2.78,4.46,4.46,0,0,1-3.11,1,5.77,5.77,0,0,1-2.95-.61V261.6a4.88,4.88,0,0,0,1.36.55,6.87,6.87,0,0,0,1.6.2,3.22,3.22,0,0,0,2.14-.65,2.32,2.32,0,0,0,.76-1.88c0-1.59-1-2.39-2.93-2.39a11.76,11.76,0,0,0-2,.23l-.68-.43.43-5.35h5.68v1.2H18l-.29,3.43A9.13,9.13,0,0,1,19.48,256.33Z"/>
      <path class="cls-5" d="M29.75,255.29a4.89,4.89,0,0,1-.6,2.69,2,2,0,0,1-1.75.91,1.91,1.91,0,0,1-1.7-.93,4.84,4.84,0,0,1-.61-2.67,5,5,0,0,1,.58-2.67,1.93,1.93,0,0,1,1.73-.9,2,2,0,0,1,1.74.93A4.77,4.77,0,0,1,29.75,255.29Zm-3.58,0a5.25,5.25,0,0,0,.29,2,1,1,0,0,0,.94.67c.85,0,1.28-.89,1.28-2.66s-.43-2.64-1.28-2.64a1,1,0,0,0-.94.66A5.19,5.19,0,0,0,26.17,255.29Zm8.45-3.41-6.34,11.43H27.13l6.34-11.43Zm2,8a4.88,4.88,0,0,1-.6,2.68,1.94,1.94,0,0,1-1.75.91,1.92,1.92,0,0,1-1.71-.93,6.36,6.36,0,0,1,0-5.33,1.92,1.92,0,0,1,1.72-.9,2,2,0,0,1,1.73.92A4.74,4.74,0,0,1,36.63,259.87Zm-3.58,0a5.34,5.34,0,0,0,.28,2,1,1,0,0,0,1,.66,1,1,0,0,0,1-.66,4.81,4.81,0,0,0,.31-2,4.74,4.74,0,0,0-.31-2,1,1,0,0,0-1-.65,1,1,0,0,0-1,.65A5.19,5.19,0,0,0,33.05,259.87Z"/>
    </g>
    <line class="cls-1" x1="5.7" y1="227.12" x2="165.13" y2="227.12"/>
    <rect class="cls-4" x="5.7" y="30.16" width="159.43" height="236.35"/>
    <line class="cls-1" x1="5.7" y1="187.73" x2="165.13" y2="187.73"/>
    <line class="cls-1" x1="5.7" y1="148.34" x2="165.13" y2="148.34"/>
    <line class="cls-1" x1="5.7" y1="108.94" x2="165.13" y2="108.94"/>
    <line class="cls-1" x1="5.7" y1="69.55" x2="165.13" y2="69.55"/>
    <line class="cls-1" x1="5.7" y1="30.16" x2="165.13" y2="30.16"/>
    <rect class="cls-4" x="5.7" y="30.16" width="159.43" height="236.35"/>
    <g>
      <path class="cls-5" d="M11.57,45H10.3V36.82c0-.68,0-1.32.07-1.92l-.37.34L8.14,36.76l-.69-.89,3-2.33h1.09Z"/>
      <path class="cls-5" d="M19.69,33.37a3.84,3.84,0,0,1,2.48.73,2.41,2.41,0,0,1,.91,2,2.51,2.51,0,0,1-.52,1.54,4.62,4.62,0,0,1-1.67,1.26,5.54,5.54,0,0,1,2,1.4A2.61,2.61,0,0,1,23.45,42a2.84,2.84,0,0,1-1,2.27,4.08,4.08,0,0,1-2.72.84,4.3,4.3,0,0,1-2.81-.8,2.75,2.75,0,0,1-1-2.27c0-1.3.8-2.32,2.39-3a4.5,4.5,0,0,1-1.54-1.32,2.82,2.82,0,0,1-.47-1.58,2.38,2.38,0,0,1,.92-2A3.81,3.81,0,0,1,19.69,33.37Zm-2.46,8.71a1.76,1.76,0,0,0,.65,1.46,2.83,2.83,0,0,0,1.83.52,2.68,2.68,0,0,0,1.81-.55,1.85,1.85,0,0,0,.65-1.5,1.8,1.8,0,0,0-.61-1.34,6,6,0,0,0-2.12-1.15,4.5,4.5,0,0,0-1.69,1.11A2.12,2.12,0,0,0,17.23,42.08Zm2.45-7.65a2.26,2.26,0,0,0-1.53.47,1.56,1.56,0,0,0-.56,1.25,1.8,1.8,0,0,0,.46,1.23,4.87,4.87,0,0,0,1.71,1,4.26,4.26,0,0,0,1.58-1,1.84,1.84,0,0,0,.46-1.25,1.56,1.56,0,0,0-.56-1.26A2.4,2.4,0,0,0,19.68,34.43Z"/>
      <path class="cls-5" d="M29.75,36.94a4.89,4.89,0,0,1-.6,2.69,2,2,0,0,1-1.75.91,1.91,1.91,0,0,1-1.7-.93,4.82,4.82,0,0,1-.61-2.67,5,5,0,0,1,.58-2.67,1.93,1.93,0,0,1,1.73-.9,2,2,0,0,1,1.74.93A4.77,4.77,0,0,1,29.75,36.94Zm-3.58,0a5.25,5.25,0,0,0,.29,2,1,1,0,0,0,.94.67c.85,0,1.28-.89,1.28-2.66s-.43-2.64-1.28-2.64a1,1,0,0,0-.94.66A5.23,5.23,0,0,0,26.17,36.94Zm8.45-3.4L28.28,45H27.13l6.34-11.42Zm2,8A4.88,4.88,0,0,1,36,44.2a1.94,1.94,0,0,1-1.75.91,1.9,1.9,0,0,1-1.71-.93A4.88,4.88,0,0,1,32,41.52a5,5,0,0,1,.58-2.67,1.92,1.92,0,0,1,1.72-.9,2,2,0,0,1,1.73.92A4.74,4.74,0,0,1,36.63,41.52Zm-3.58,0a5.34,5.34,0,0,0,.28,2,1,1,0,0,0,1,.66,1,1,0,0,0,1-.66,4.81,4.81,0,0,0,.31-2,4.74,4.74,0,0,0-.31-2,1,1,0,0,0-1-.64,1,1,0,0,0-1,.64A5.19,5.19,0,0,0,33.05,41.52Z"/>
    </g>
    <polyline class="cls-6" points="5.7 148.71 37.59 112.73 69.47 110.1 101.36 126.82 133.25 160 165.13 152.86"/>
    <rect class="cls-3" x="197.02" y="30.16" width="159.43" height="236.35"/>
    <line class="cls-1" x1="197.02" y1="266.51" x2="197.02" y2="30.16"/>
    <rect class="cls-4" x="197.02" y="30.16" width="159.43" height="236.35"/>
    <line class="cls-1" x1="228.9" y1="266.51" x2="228.9" y2="30.16"/>
    <rect class="cls-4" x="197.02" y="30.16" width="159.43" height="236.35"/>
    <line class="cls-1" x1="260.79" y1="266.51" x2="260.79" y2="30.16"/>
    <line class="cls-1" x1="292.67" y1="266.51" x2="292.67" y2="30.16"/>
    <line class="cls-1" x1="324.56" y1="266.51" x2="324.56" y2="30.16"/>
    <line class="cls-1" x1="356.44" y1="266.51" x2="356.44" y2="30.16"/>
    <rect class="cls-4" x="197.02" y="30.16" width="159.43" height="236.35"/>
    <rect class="cls-4" x="197.02" y="30.16" width="159.43" height="236.35"/>
    <line class="cls-1" x1="197.02" y1="227.12" x2="356.44" y2="227.12"/>
    <rect class="cls-4" x="197.02" y="30.16" width="159.43" height="236.35"/>
    <line class="cls-1" x1="197.02" y1="187.73" x2="356.44" y2="187.73"/>
    <line class="cls-1" x1="197.02" y1="148.34" x2="356.44" y2="148.34"/>
    <line class="cls-1" x1="197.02" y1="108.94" x2="356.44" y2="108.94"/>
    <line class="cls-1" x1="197.02" y1="69.55" x2="356.44" y2="69.55"/>
    <line class="cls-1" x1="197.02" y1="30.16" x2="356.44" y2="30.16"/>
    <rect class="cls-4" x="197.02" y="30.16" width="159.43" height="236.35"/>
    <polyline class="cls-7" points="197.02 164.2 228.9 122.08 260.79 114.07 292.67 111.55 324.56 137.99 356.44 161.35"/>
    <rect class="cls-3" x="388.33" y="30.16" width="159.43" height="236.35"/>
    <line class="cls-1" x1="388.33" y1="266.51" x2="388.33" y2="30.16"/>
    <rect class="cls-4" x="388.33" y="30.16" width="159.43" height="236.35"/>
    <line class="cls-1" x1="420.22" y1="266.51" x2="420.22" y2="30.16"/>
    <rect class="cls-4" x="388.33" y="30.16" width="159.43" height="236.35"/>
    <line class="cls-1" x1="452.1" y1="266.51" x2="452.1" y2="30.16"/>
    <line class="cls-1" x1="483.99" y1="266.51" x2="483.99" y2="30.16"/>
    <line class="cls-1" x1="515.87" y1="266.51" x2="515.87" y2="30.16"/>
    <line class="cls-1" x1="547.76" y1="266.51" x2="547.76" y2="30.16"/>
    <rect class="cls-4" x="388.33" y="30.16" width="159.43" height="236.35"/>
    <rect class="cls-4" x="388.33" y="30.16" width="159.43" height="236.35"/>
    <line class="cls-1" x1="388.33" y1="227.12" x2="547.76" y2="227.12"/>
    <rect class="cls-4" x="388.33" y="30.16" width="159.43" height="236.35"/>
    <line class="cls-1" x1="388.33" y1="187.73" x2="547.76" y2="187.73"/>
    <line class="cls-1" x1="388.33" y1="148.34" x2="547.76" y2="148.34"/>
    <line class="cls-1" x1="388.33" y1="108.94" x2="547.76" y2="108.94"/>
    <line class="cls-1" x1="388.33" y1="69.55" x2="547.76" y2="69.55"/>
    <line class="cls-1" x1="388.33" y1="30.16" x2="547.76" y2="30.16"/>
    <rect class="cls-4" x="388.33" y="30.16" width="159.43" height="236.35"/>
    <polyline class="cls-7" points="388.33 165.93 420.22 124.34 452.1 111.71 483.99 114.99 515.87 142.6 547.76 151.67"/>
    <rect class="cls-3" x="579.64" y="30.16" width="159.43" height="236.35"/>
    <line class="cls-1" x1="579.64" y1="266.51" x2="579.64" y2="30.16"/>
    <rect class="cls-4" x="579.64" y="30.16" width="159.43" height="236.35"/>
    <line class="cls-1" x1="611.53" y1="266.51" x2="611.53" y2="30.16"/>
    <rect class="cls-4" x="579.64" y="30.16" width="159.43" height="236.35"/>
    <line class="cls-1" x1="643.42" y1="266.51" x2="643.42" y2="30.16"/>
    <line class="cls-1" x1="675.3" y1="266.51" x2="675.3" y2="30.16"/>
    <line class="cls-1" x1="707.19" y1="266.51" x2="707.19" y2="30.16"/>
    <line class="cls-1" x1="739.07" y1="266.51" x2="739.07" y2="30.16"/>
    <rect class="cls-4" x="579.64" y="30.16" width="159.43" height="236.35"/>
    <rect class="cls-4" x="579.64" y="30.16" width="159.43" height="236.35"/>
    <line class="cls-1" x1="579.64" y1="227.12" x2="739.07" y2="227.12"/>
    <rect class="cls-4" x="579.64" y="30.16" width="159.43" height="236.35"/>
    <line class="cls-1" x1="579.64" y1="187.73" x2="739.07" y2="187.73"/>
    <line class="cls-1" x1="579.64" y1="148.34" x2="739.07" y2="148.34"/>
    <line class="cls-1" x1="579.64" y1="108.94" x2="739.07" y2="108.94"/>
    <line class="cls-1" x1="579.64" y1="69.55" x2="739.07" y2="69.55"/>
    <line class="cls-1" x1="579.64" y1="30.16" x2="739.07" y2="30.16"/>
    <rect class="cls-4" x="579.64" y="30.16" width="159.43" height="236.35"/>
    <polyline class="cls-7" points="579.64 131.21 611.53 98.19 643.42 99.24 675.3 104.99 707.19 172.41 739.07 205.19"/>
    <rect class="cls-3" x="770.96" y="30.16" width="159.43" height="236.35"/>
    <line class="cls-1" x1="770.96" y1="266.51" x2="770.96" y2="30.16"/>
    <rect class="cls-4" x="770.96" y="30.16" width="159.43" height="236.35"/>
    <line class="cls-1" x1="802.85" y1="266.51" x2="802.85" y2="30.16"/>
    <rect class="cls-4" x="770.96" y="30.16" width="159.43" height="236.35"/>
    <line class="cls-1" x1="834.73" y1="266.51" x2="834.73" y2="30.16"/>
    <line class="cls-1" x1="866.62" y1="266.51" x2="866.62" y2="30.16"/>
    <line class="cls-1" x1="898.5" y1="266.51" x2="898.5" y2="30.16"/>
    <line class="cls-1" x1="930.39" y1="266.51" x2="930.39" y2="30.16"/>
    <rect class="cls-4" x="770.96" y="30.16" width="159.43" height="236.35"/>
    <rect class="cls-4" x="770.96" y="30.16" width="159.43" height="236.35"/>
    <line class="cls-1" x1="770.96" y1="227.12" x2="930.39" y2="227.12"/>
    <rect class="cls-4" x="770.96" y="30.16" width="159.43" height="236.35"/>
    <line class="cls-1" x1="770.96" y1="187.73" x2="930.39" y2="187.73"/>
    <line class="cls-1" x1="770.96" y1="148.34" x2="930.39" y2="148.34"/>
    <line class="cls-1" x1="770.96" y1="108.94" x2="930.39" y2="108.94"/>
    <line class="cls-1" x1="770.96" y1="69.55" x2="930.39" y2="69.55"/>
    <line class="cls-1" x1="770.96" y1="30.16" x2="930.39" y2="30.16"/>
    <rect class="cls-4" x="770.96" y="30.16" width="159.43" height="236.35"/>
    <polyline class="cls-7" points="770.96 130.03 802.85 92.92 834.73 103.15 866.62 107.99 898.5 170.12 930.39 207.02"/>
    <rect class="cls-3" x="962.27" y="30.16" width="159.43" height="236.35"/>
    <line class="cls-1" x1="962.27" y1="266.51" x2="962.27" y2="30.16"/>
    <rect class="cls-4" x="962.27" y="30.16" width="159.43" height="236.35"/>
    <line class="cls-1" x1="994.16" y1="266.51" x2="994.16" y2="30.16"/>
    <rect class="cls-4" x="962.27" y="30.16" width="159.43" height="236.35"/>
    <line class="cls-1" x1="1026.05" y1="266.51" x2="1026.05" y2="30.16"/>
    <line class="cls-1" x1="1057.93" y1="266.51" x2="1057.93" y2="30.16"/>
    <line class="cls-1" x1="1089.82" y1="266.51" x2="1089.82" y2="30.16"/>
    <line class="cls-1" x1="1121.7" y1="266.51" x2="1121.7" y2="30.16"/>
    <rect class="cls-4" x="962.27" y="30.16" width="159.43" height="236.35"/>
    <rect class="cls-4" x="962.27" y="30.16" width="159.43" height="236.35"/>
    <line class="cls-1" x1="962.27" y1="227.12" x2="1121.7" y2="227.12"/>
    <rect class="cls-4" x="962.27" y="30.16" width="159.43" height="236.35"/>
    <line class="cls-1" x1="962.27" y1="187.73" x2="1121.7" y2="187.73"/>
    <line class="cls-1" x1="962.27" y1="148.34" x2="1121.7" y2="148.34"/>
    <line class="cls-1" x1="962.27" y1="108.94" x2="1121.7" y2="108.94"/>
    <line class="cls-1" x1="962.27" y1="69.55" x2="1121.7" y2="69.55"/>
    <line class="cls-1" x1="962.27" y1="30.16" x2="1121.7" y2="30.16"/>
    <rect class="cls-4" x="962.27" y="30.16" width="159.43" height="236.35"/>
    <polyline class="cls-7" points="962.27 91.75 994.16 74.53 1026.05 85.52 1057.93 104.38 1089.82 203.67 1121.7 251.38"/>
    <g>
      <path d="M87.47,57.16H86V47.49c0-.8,0-1.56.07-2.28-.13.13-.27.27-.43.41s-.9.75-2.21,1.81l-.82-1.06,3.59-2.77h1.3Z"/>
      <path d="M282,57.16h-8.92V55.83l3.57-3.59a25,25,0,0,0,2.15-2.35,5.86,5.86,0,0,0,.78-1.37,3.84,3.84,0,0,0,.26-1.44,2.26,2.26,0,0,0-.66-1.72,2.46,2.46,0,0,0-1.82-.64,4.45,4.45,0,0,0-1.6.28,6.14,6.14,0,0,0-1.69,1l-.81-1a6.25,6.25,0,0,1,4.08-1.56,4.31,4.31,0,0,1,3,1A3.35,3.35,0,0,1,281.42,47a5.09,5.09,0,0,1-.72,2.55A16.45,16.45,0,0,1,278,52.75l-3,2.91v.07h7Z"/>
      <path d="M472.8,46.79a3.05,3.05,0,0,1-.73,2.12A3.65,3.65,0,0,1,470,50v.07a3.89,3.89,0,0,1,2.42,1,3.1,3.1,0,0,1,.79,2.19,3.54,3.54,0,0,1-1.35,3,6.07,6.07,0,0,1-3.82,1.05,10.87,10.87,0,0,1-2-.17,6.12,6.12,0,0,1-1.74-.57V55.15a8.37,8.37,0,0,0,1.88.66,8.55,8.55,0,0,0,1.89.23q3.51,0,3.51-2.76,0-2.46-3.88-2.46h-1.33V49.49h1.35a4.08,4.08,0,0,0,2.52-.7,2.32,2.32,0,0,0,.92-1.94,1.88,1.88,0,0,0-.68-1.56,2.78,2.78,0,0,0-1.85-.57A5.78,5.78,0,0,0,467,45a7.81,7.81,0,0,0-1.8.89l-.78-1a6.48,6.48,0,0,1,1.93-1,7,7,0,0,1,2.29-.38,4.68,4.68,0,0,1,3.08.91A3.07,3.07,0,0,1,472.8,46.79Z"/>
      <path d="M665.26,54h-2v3.12h-1.47V54h-6.6V52.7l6.44-9.18h1.63v9.12h2Zm-3.48-1.4V48.13c0-.88,0-1.88.09-3h-.08a13.08,13.08,0,0,1-.83,1.47l-4.24,6Z"/>
      <path d="M851.26,48.88a5,5,0,0,1,3.38,1.06,3.65,3.65,0,0,1,1.23,2.91,4.19,4.19,0,0,1-1.35,3.3,5.32,5.32,0,0,1-3.69,1.2,6.78,6.78,0,0,1-3.5-.74V55.13a5.06,5.06,0,0,0,1.61.65,7.93,7.93,0,0,0,1.91.24,3.8,3.8,0,0,0,2.53-.77,2.73,2.73,0,0,0,.91-2.23q0-2.84-3.48-2.84a13.88,13.88,0,0,0-2.36.27l-.8-.51.51-6.34h6.75V45h-5.43l-.34,4.07A11,11,0,0,1,851.26,48.88Z"/>
      <path d="M1038.5,51.36c0-2.66.51-4.66,1.55-6a5.48,5.48,0,0,1,4.6-2,6,6,0,0,1,1.65.18v1.33a5.13,5.13,0,0,0-1.63-.24,4.15,4.15,0,0,0-3.34,1.36,7.07,7.07,0,0,0-1.26,4.28h.11a3.55,3.55,0,0,1,3.23-1.6,3.8,3.8,0,0,1,2.88,1.1,4.15,4.15,0,0,1,1.06,3,4.64,4.64,0,0,1-1.16,3.33,4.13,4.13,0,0,1-3.12,1.21,4,4,0,0,1-3.34-1.58A7,7,0,0,1,1038.5,51.36Zm4.55,4.68a2.6,2.6,0,0,0,2-.83,3.55,3.55,0,0,0,.72-2.4,3.07,3.07,0,0,0-.67-2.11,2.54,2.54,0,0,0-2-.77,3.43,3.43,0,0,0-1.53.34,2.81,2.81,0,0,0-1.1.94,2.19,2.19,0,0,0-.42,1.26,4.43,4.43,0,0,0,.37,1.78,3.13,3.13,0,0,0,1.06,1.31A2.61,2.61,0,0,0,1043.05,56Z"/>
    </g>
  </g>
  <line class="cls-1" x1="5.7" y1="537.13" x2="5.7" y2="300.78"/>
  <line class="cls-1" x1="5.7" y1="537.13" x2="165.13" y2="537.13"/>
  <line class="cls-1" x1="5.7" y1="313.78" x2="165.13" y2="313.78"/>
  <line class="cls-2" x1="5.7" y1="537.13" x2="165.13" y2="537.13"/>
  <line class="cls-1" x1="197.02" y1="537.13" x2="356.44" y2="537.13"/>
  <line class="cls-1" x1="197.02" y1="313.78" x2="356.44" y2="313.78"/>
  <line class="cls-2" x1="197.02" y1="537.13" x2="356.44" y2="537.13"/>
  <line class="cls-1" x1="388.33" y1="537.13" x2="547.76" y2="537.13"/>
  <line class="cls-1" x1="388.33" y1="313.78" x2="547.76" y2="313.78"/>
  <line class="cls-2" x1="388.33" y1="537.13" x2="547.76" y2="537.13"/>
  <line class="cls-1" x1="579.64" y1="537.13" x2="739.07" y2="537.13"/>
  <line class="cls-1" x1="579.64" y1="313.78" x2="739.07" y2="313.78"/>
  <line class="cls-2" x1="579.64" y1="537.13" x2="739.07" y2="537.13"/>
  <line class="cls-1" x1="770.96" y1="537.13" x2="930.39" y2="537.13"/>
  <line class="cls-1" x1="770.96" y1="313.78" x2="930.39" y2="313.78"/>
  <line class="cls-2" x1="770.96" y1="537.13" x2="930.39" y2="537.13"/>
  <line class="cls-1" x1="962.27" y1="537.13" x2="1121.7" y2="537.13"/>
  <line class="cls-1" x1="962.27" y1="313.78" x2="1121.7" y2="313.78"/>
  <line class="cls-2" x1="962.27" y1="537.13" x2="1121.7" y2="537.13"/>
  <g>
    <rect class="cls-3" x="5.7" y="295.23" width="159.43" height="236.35"/>
    <rect class="cls-4" x="5.7" y="295.23" width="159.43" height="236.35"/>
    <line class="cls-1" x1="37.59" y1="531.58" x2="37.59" y2="295.23"/>
    <rect class="cls-4" x="5.7" y="295.23" width="159.43" height="236.35"/>
    <line class="cls-1" x1="69.47" y1="531.58" x2="69.47" y2="295.23"/>
    <line class="cls-1" x1="101.36" y1="531.58" x2="101.36" y2="295.23"/>
    <line class="cls-1" x1="133.24" y1="531.58" x2="133.24" y2="295.23"/>
    <line class="cls-1" x1="165.13" y1="531.58" x2="165.13" y2="295.23"/>
    <rect class="cls-4" x="5.7" y="295.23" width="159.43" height="236.35"/>
    <rect class="cls-4" x="5.7" y="295.23" width="159.43" height="236.35"/>
    <g>
      <path class="cls-5" d="M11.57,528.38H10.3v-8.14c0-.68,0-1.32.07-1.92l-.37.34-1.86,1.52-.69-.89,3-2.33h1.09Z"/>
      <path class="cls-5" d="M19.48,521.4a4.17,4.17,0,0,1,2.84.9,3.06,3.06,0,0,1,1,2.45,3.54,3.54,0,0,1-1.13,2.78,4.51,4.51,0,0,1-3.11,1,5.76,5.76,0,0,1-2.95-.62v-1.25a4.6,4.6,0,0,0,1.36.55,6.87,6.87,0,0,0,1.6.2,3.22,3.22,0,0,0,2.14-.65,2.32,2.32,0,0,0,.76-1.88c0-1.59-1-2.39-2.93-2.39a11.76,11.76,0,0,0-2,.23l-.68-.43.43-5.34h5.68v1.19H18l-.29,3.43A9.13,9.13,0,0,1,19.48,521.4Z"/>
      <path class="cls-5" d="M29.75,520.36a4.89,4.89,0,0,1-.6,2.69,2,2,0,0,1-1.75.91,1.91,1.91,0,0,1-1.7-.92,4.88,4.88,0,0,1-.61-2.68,5,5,0,0,1,.58-2.67,1.93,1.93,0,0,1,1.73-.9,2,2,0,0,1,1.74.93A4.77,4.77,0,0,1,29.75,520.36Zm-3.58,0a5.34,5.34,0,0,0,.29,2,1,1,0,0,0,.94.66c.85,0,1.28-.89,1.28-2.66s-.43-2.64-1.28-2.64a1,1,0,0,0-.94.66A5.23,5.23,0,0,0,26.17,520.36Zm8.45-3.4-6.34,11.42H27.13L33.47,517Zm2,8a4.88,4.88,0,0,1-.6,2.68,2,2,0,0,1-1.75.92,1.92,1.92,0,0,1-1.71-.93,6.39,6.39,0,0,1,0-5.34,1.92,1.92,0,0,1,1.72-.9,2,2,0,0,1,1.73.92A4.76,4.76,0,0,1,36.63,524.94Zm-3.58,0a5.34,5.34,0,0,0,.28,2,1,1,0,0,0,1,.66,1,1,0,0,0,1-.65,4.9,4.9,0,0,0,.31-2,4.74,4.74,0,0,0-.31-2,1,1,0,0,0-1-.64,1,1,0,0,0-1,.64A5.19,5.19,0,0,0,33.05,524.94Z"/>
    </g>
    <line class="cls-1" x1="5.7" y1="492.19" x2="165.13" y2="492.19"/>
    <rect class="cls-4" x="5.7" y="295.23" width="159.43" height="236.35"/>
    <line class="cls-1" x1="5.7" y1="452.8" x2="165.13" y2="452.8"/>
    <line class="cls-1" x1="5.7" y1="413.41" x2="165.13" y2="413.41"/>
    <line class="cls-1" x1="5.7" y1="374.02" x2="165.13" y2="374.02"/>
    <line class="cls-1" x1="5.7" y1="334.63" x2="165.13" y2="334.63"/>
    <rect class="cls-4" x="5.7" y="295.23" width="159.43" height="236.35"/>
    <g>
      <path class="cls-5" d="M11.57,310H10.3v-8.14c0-.68,0-1.32.07-1.92l-.37.34-1.86,1.53L7.45,301l3-2.34h1.09Z"/>
      <path class="cls-5" d="M19.69,298.45a3.89,3.89,0,0,1,2.48.72,2.44,2.44,0,0,1,.91,2,2.49,2.49,0,0,1-.52,1.54A4.62,4.62,0,0,1,20.89,304a5.66,5.66,0,0,1,2,1.4,2.63,2.63,0,0,1,.58,1.69,2.84,2.84,0,0,1-1,2.27,4,4,0,0,1-2.72.85,4.36,4.36,0,0,1-2.81-.8,2.76,2.76,0,0,1-1-2.27c0-1.31.8-2.33,2.39-3.06a4.38,4.38,0,0,1-1.54-1.31,2.85,2.85,0,0,1-.47-1.59,2.41,2.41,0,0,1,.92-2A3.8,3.8,0,0,1,19.69,298.45Zm-2.46,8.7a1.76,1.76,0,0,0,.65,1.46,2.83,2.83,0,0,0,1.83.52,2.73,2.73,0,0,0,1.81-.54,1.88,1.88,0,0,0,.65-1.5,1.81,1.81,0,0,0-.61-1.35,6.18,6.18,0,0,0-2.12-1.15,4.75,4.75,0,0,0-1.69,1.11A2.13,2.13,0,0,0,17.23,307.15Zm2.45-7.65a2.31,2.31,0,0,0-1.53.47,1.56,1.56,0,0,0-.56,1.25,1.8,1.8,0,0,0,.46,1.23,4.72,4.72,0,0,0,1.71,1,4.26,4.26,0,0,0,1.58-1,1.87,1.87,0,0,0,.46-1.26,1.56,1.56,0,0,0-.56-1.26A2.46,2.46,0,0,0,19.68,299.5Z"/>
      <path class="cls-5" d="M29.75,302a4.94,4.94,0,0,1-.6,2.69,2,2,0,0,1-1.75.91,1.91,1.91,0,0,1-1.7-.93,4.84,4.84,0,0,1-.61-2.67,5.05,5.05,0,0,1,.58-2.68,2,2,0,0,1,1.73-.89,2,2,0,0,1,1.74.92A4.81,4.81,0,0,1,29.75,302Zm-3.58,0a5.29,5.29,0,0,0,.29,2,1,1,0,0,0,.94.66c.85,0,1.28-.88,1.28-2.65s-.43-2.65-1.28-2.65a1,1,0,0,0-.94.66A5.25,5.25,0,0,0,26.17,302Zm8.45-3.41L28.28,310H27.13l6.34-11.42Zm2,8a4.92,4.92,0,0,1-.6,2.69,2,2,0,0,1-1.75.91,1.92,1.92,0,0,1-1.71-.93,6.39,6.39,0,0,1,0-5.34,1.92,1.92,0,0,1,1.72-.9,2,2,0,0,1,1.73.92A4.76,4.76,0,0,1,36.63,306.59Zm-3.58,0a5.34,5.34,0,0,0,.28,2,1,1,0,0,0,1,.66,1,1,0,0,0,1-.65,4.87,4.87,0,0,0,.31-2,4.74,4.74,0,0,0-.31-2,1,1,0,0,0-1-.64,1,1,0,0,0-1,.64A5.19,5.19,0,0,0,33.05,306.59Z"/>
    </g>
    <polyline class="cls-7" points="5.7 434.77 37.59 402.12 69.47 386.91 101.36 378.78 133.25 391.13 165.13 407.95"/>
    <rect class="cls-3" x="197.02" y="295.23" width="159.43" height="236.35"/>
    <line class="cls-1" x1="197.02" y1="531.58" x2="197.02" y2="295.23"/>
    <rect class="cls-4" x="197.02" y="295.23" width="159.43" height="236.35"/>
    <line class="cls-1" x1="228.9" y1="531.58" x2="228.9" y2="295.23"/>
    <rect class="cls-4" x="197.02" y="295.23" width="159.43" height="236.35"/>
    <line class="cls-1" x1="260.79" y1="531.58" x2="260.79" y2="295.23"/>
    <line class="cls-1" x1="292.67" y1="531.58" x2="292.67" y2="295.23"/>
    <line class="cls-1" x1="324.56" y1="531.58" x2="324.56" y2="295.23"/>
    <line class="cls-1" x1="356.44" y1="531.58" x2="356.44" y2="295.23"/>
    <rect class="cls-4" x="197.02" y="295.23" width="159.43" height="236.35"/>
    <rect class="cls-4" x="197.02" y="295.23" width="159.43" height="236.35"/>
    <line class="cls-1" x1="197.02" y1="492.19" x2="356.44" y2="492.19"/>
    <rect class="cls-4" x="197.02" y="295.23" width="159.43" height="236.35"/>
    <line class="cls-1" x1="197.02" y1="452.8" x2="356.44" y2="452.8"/>
    <line class="cls-1" x1="197.02" y1="413.41" x2="356.44" y2="413.41"/>
    <line class="cls-1" x1="197.02" y1="374.02" x2="356.44" y2="374.02"/>
    <line class="cls-1" x1="197.02" y1="334.63" x2="356.44" y2="334.63"/>
    <rect class="cls-4" x="197.02" y="295.23" width="159.43" height="236.35"/>
    <polyline class="cls-6" points="197.02 462.91 228.9 415.69 260.79 386.26 292.67 381.79 324.56 378.09 356.44 376.93"/>
    <rect class="cls-3" x="388.33" y="295.23" width="159.43" height="236.35"/>
    <line class="cls-1" x1="388.33" y1="531.58" x2="388.33" y2="295.23"/>
    <rect class="cls-4" x="388.33" y="295.23" width="159.43" height="236.35"/>
    <line class="cls-1" x1="420.22" y1="531.58" x2="420.22" y2="295.23"/>
    <rect class="cls-4" x="388.33" y="295.23" width="159.43" height="236.35"/>
    <line class="cls-1" x1="452.1" y1="531.58" x2="452.1" y2="295.23"/>
    <line class="cls-1" x1="483.99" y1="531.58" x2="483.99" y2="295.23"/>
    <line class="cls-1" x1="515.87" y1="531.58" x2="515.87" y2="295.23"/>
    <line class="cls-1" x1="547.76" y1="531.58" x2="547.76" y2="295.23"/>
    <rect class="cls-4" x="388.33" y="295.23" width="159.43" height="236.35"/>
    <rect class="cls-4" x="388.33" y="295.23" width="159.43" height="236.35"/>
    <line class="cls-1" x1="388.33" y1="492.19" x2="547.76" y2="492.19"/>
    <rect class="cls-4" x="388.33" y="295.23" width="159.43" height="236.35"/>
    <line class="cls-1" x1="388.33" y1="452.8" x2="547.76" y2="452.8"/>
    <line class="cls-1" x1="388.33" y1="413.41" x2="547.76" y2="413.41"/>
    <line class="cls-1" x1="388.33" y1="374.02" x2="547.76" y2="374.02"/>
    <line class="cls-1" x1="388.33" y1="334.63" x2="547.76" y2="334.63"/>
    <rect class="cls-4" x="388.33" y="295.23" width="159.43" height="236.35"/>
    <polyline class="cls-7" points="388.33 422.95 420.22 385.75 452.1 376.45 483.99 380.27 515.87 392.15 547.76 444.1"/>
    <rect class="cls-3" x="579.64" y="295.23" width="159.43" height="236.35"/>
    <line class="cls-1" x1="579.64" y1="531.58" x2="579.64" y2="295.23"/>
    <rect class="cls-4" x="579.64" y="295.23" width="159.43" height="236.35"/>
    <line class="cls-1" x1="611.53" y1="531.58" x2="611.53" y2="295.23"/>
    <rect class="cls-4" x="579.64" y="295.23" width="159.43" height="236.35"/>
    <line class="cls-1" x1="643.42" y1="531.58" x2="643.42" y2="295.23"/>
    <line class="cls-1" x1="675.3" y1="531.58" x2="675.3" y2="295.23"/>
    <line class="cls-1" x1="707.19" y1="531.58" x2="707.19" y2="295.23"/>
    <line class="cls-1" x1="739.07" y1="531.58" x2="739.07" y2="295.23"/>
    <rect class="cls-4" x="579.64" y="295.23" width="159.43" height="236.35"/>
    <rect class="cls-4" x="579.64" y="295.23" width="159.43" height="236.35"/>
    <line class="cls-1" x1="579.64" y1="492.19" x2="739.07" y2="492.19"/>
    <rect class="cls-4" x="579.64" y="295.23" width="159.43" height="236.35"/>
    <line class="cls-1" x1="579.64" y1="452.8" x2="739.07" y2="452.8"/>
    <line class="cls-1" x1="579.64" y1="413.41" x2="739.07" y2="413.41"/>
    <line class="cls-1" x1="579.64" y1="374.02" x2="739.07" y2="374.02"/>
    <line class="cls-1" x1="579.64" y1="334.63" x2="739.07" y2="334.63"/>
    <rect class="cls-4" x="579.64" y="295.23" width="159.43" height="236.35"/>
    <polyline class="cls-7" points="579.64 452.6 611.53 408.91 643.42 384.34 675.3 379.87 707.19 381.09 739.07 394.85"/>
    <rect class="cls-3" x="770.96" y="295.23" width="159.43" height="236.35"/>
    <line class="cls-1" x1="770.96" y1="531.58" x2="770.96" y2="295.23"/>
    <rect class="cls-4" x="770.96" y="295.23" width="159.43" height="236.35"/>
    <line class="cls-1" x1="802.85" y1="531.58" x2="802.85" y2="295.23"/>
    <rect class="cls-4" x="770.96" y="295.23" width="159.43" height="236.35"/>
    <line class="cls-1" x1="834.73" y1="531.58" x2="834.73" y2="295.23"/>
    <line class="cls-1" x1="866.62" y1="531.58" x2="866.62" y2="295.23"/>
    <line class="cls-1" x1="898.5" y1="531.58" x2="898.5" y2="295.23"/>
    <line class="cls-1" x1="930.39" y1="531.58" x2="930.39" y2="295.23"/>
    <rect class="cls-4" x="770.96" y="295.23" width="159.43" height="236.35"/>
    <rect class="cls-4" x="770.96" y="295.23" width="159.43" height="236.35"/>
    <line class="cls-1" x1="770.96" y1="492.19" x2="930.39" y2="492.19"/>
    <rect class="cls-4" x="770.96" y="295.23" width="159.43" height="236.35"/>
    <line class="cls-1" x1="770.96" y1="452.8" x2="930.39" y2="452.8"/>
    <line class="cls-1" x1="770.96" y1="413.41" x2="930.39" y2="413.41"/>
    <line class="cls-1" x1="770.96" y1="374.02" x2="930.39" y2="374.02"/>
    <line class="cls-1" x1="770.96" y1="334.63" x2="930.39" y2="334.63"/>
    <rect class="cls-4" x="770.96" y="295.23" width="159.43" height="236.35"/>
    <polyline class="cls-7" points="770.96 430.78 802.85 386.73 834.73 379.5 866.62 372.6 898.5 395.72 930.39 436.34"/>
    <rect class="cls-3" x="962.27" y="295.23" width="159.43" height="236.35"/>
    <line class="cls-1" x1="962.27" y1="531.58" x2="962.27" y2="295.23"/>
    <rect class="cls-4" x="962.27" y="295.23" width="159.43" height="236.35"/>
    <line class="cls-1" x1="994.16" y1="531.58" x2="994.16" y2="295.23"/>
    <rect class="cls-4" x="962.27" y="295.23" width="159.43" height="236.35"/>
    <line class="cls-1" x1="1026.05" y1="531.58" x2="1026.05" y2="295.23"/>
    <line class="cls-1" x1="1057.93" y1="531.58" x2="1057.93" y2="295.23"/>
    <line class="cls-1" x1="1089.82" y1="531.58" x2="1089.82" y2="295.23"/>
    <line class="cls-1" x1="1121.7" y1="531.58" x2="1121.7" y2="295.23"/>
    <rect class="cls-4" x="962.27" y="295.23" width="159.43" height="236.35"/>
    <rect class="cls-4" x="962.27" y="295.23" width="159.43" height="236.35"/>
    <line class="cls-1" x1="962.27" y1="492.19" x2="1121.7" y2="492.19"/>
    <rect class="cls-4" x="962.27" y="295.23" width="159.43" height="236.35"/>
    <line class="cls-1" x1="962.27" y1="452.8" x2="1121.7" y2="452.8"/>
    <line class="cls-1" x1="962.27" y1="413.41" x2="1121.7" y2="413.41"/>
    <line class="cls-1" x1="962.27" y1="374.02" x2="1121.7" y2="374.02"/>
    <line class="cls-1" x1="962.27" y1="334.63" x2="1121.7" y2="334.63"/>
    <rect class="cls-4" x="962.27" y="295.23" width="159.43" height="236.35"/>
    <polyline class="cls-6" points="962.27 426.29 994.16 388.47 1026.05 373.69 1057.93 394.98 1089.82 410.63 1121.7 407.62"/>
    <g>
      <path d="M83.48,323.23l5.62-12.14H81.71v-1.42h9v1.23l-5.55,12.33Z"/>
      <path d="M282.2,323.23l-1.69-4.31h-5.44l-1.67,4.31h-1.59l5.36-13.61h1.33l5.33,13.61ZM280,317.5l-1.58-4.2c-.2-.53-.41-1.19-.63-2a19.45,19.45,0,0,1-.58,2l-1.6,4.2Z"/>
      <path d="M465,309.67h3.83a7.21,7.21,0,0,1,3.91.81,2.86,2.86,0,0,1,1.21,2.55,3,3,0,0,1-.68,2,3.28,3.28,0,0,1-2,1v.09q3.09.53,3.09,3.24a3.48,3.48,0,0,1-1.23,2.84,5.23,5.23,0,0,1-3.44,1H465Zm1.58,5.81h2.6a4.22,4.22,0,0,0,2.4-.53,2,2,0,0,0,.73-1.76,1.8,1.8,0,0,0-.81-1.65,5.08,5.08,0,0,0-2.6-.51h-2.32Zm0,1.33v5.08h2.83a4,4,0,0,0,2.47-.64,2.34,2.34,0,0,0,.83-2,2.08,2.08,0,0,0-.85-1.85,4.47,4.47,0,0,0-2.58-.6Z"/>
      <path d="M662,310.89a4.43,4.43,0,0,0-3.53,1.48,6.05,6.05,0,0,0-1.3,4.08,6.15,6.15,0,0,0,1.25,4.12A4.43,4.43,0,0,0,662,322a12.13,12.13,0,0,0,3.24-.51v1.38a10,10,0,0,1-3.48.53,5.91,5.91,0,0,1-4.63-1.82,7.5,7.5,0,0,1-1.62-5.17,8.19,8.19,0,0,1,.78-3.67,5.65,5.65,0,0,1,2.26-2.43,6.86,6.86,0,0,1,3.49-.85,8.43,8.43,0,0,1,3.73.78l-.67,1.35A7.22,7.22,0,0,0,662,310.89Z"/>
      <path d="M857.83,316.32a6.85,6.85,0,0,1-1.83,5.14,7.21,7.21,0,0,1-5.24,1.77H847V309.67h4.16a6.09,6.09,0,0,1,6.67,6.65Zm-1.67.06a5.5,5.5,0,0,0-1.33-4,5.34,5.34,0,0,0-4-1.35h-2.29v10.84h1.92a5.82,5.82,0,0,0,4.24-1.39A5.5,5.5,0,0,0,856.16,316.38Z"/>
      <path d="M1046.87,323.23h-7.56V309.67h7.56v1.4h-6v4.37h5.63v1.39h-5.63v5h6Z"/>
    </g>
  </g>
  <g>
    <rect class="cls-3" x="4.68" y="560.31" width="159.43" height="236.35"/>
    <line class="cls-1" x1="4.68" y1="796.65" x2="4.68" y2="560.31"/>
    <rect class="cls-4" x="4.68" y="560.31" width="159.43" height="236.35"/>
    <line class="cls-1" x1="36.57" y1="796.65" x2="36.57" y2="560.31"/>
    <rect class="cls-4" x="4.68" y="560.31" width="159.43" height="236.35"/>
    <line class="cls-1" x1="68.45" y1="796.65" x2="68.45" y2="560.31"/>
    <line class="cls-1" x1="100.34" y1="796.65" x2="100.34" y2="560.31"/>
    <line class="cls-1" x1="132.22" y1="796.65" x2="132.22" y2="560.31"/>
    <line class="cls-1" x1="164.11" y1="796.65" x2="164.11" y2="560.31"/>
    <rect class="cls-4" x="4.68" y="560.31" width="159.43" height="236.35"/>
    <line class="cls-1" x1="4.68" y1="796.65" x2="164.11" y2="796.65"/>
    <rect class="cls-4" x="4.68" y="560.31" width="159.43" height="236.35"/>
    <g>
      <path class="cls-5" d="M10.55,793.45H9.28v-8.14q0-1,.06-1.92c-.1.11-.23.22-.36.34l-1.86,1.53-.69-.9,3-2.33h1.1Z"/>
      <path class="cls-5" d="M18.46,786.47a4.17,4.17,0,0,1,2.84.9,3.07,3.07,0,0,1,1,2.45,3.54,3.54,0,0,1-1.13,2.78,4.52,4.52,0,0,1-3.12,1,5.74,5.74,0,0,1-2.94-.62v-1.25a4.49,4.49,0,0,0,1.36.55,6.81,6.81,0,0,0,1.6.2,3.22,3.22,0,0,0,2.14-.65A2.35,2.35,0,0,0,21,790c0-1.6-1-2.39-2.93-2.39a11.67,11.67,0,0,0-2,.22l-.67-.43.43-5.34h5.68v1.19H17l-.29,3.43A9.13,9.13,0,0,1,18.46,786.47Z"/>
      <path class="cls-5" d="M28.73,785.43a5,5,0,0,1-.6,2.7,2,2,0,0,1-1.75.91,1.91,1.91,0,0,1-1.7-.93,4.86,4.86,0,0,1-.61-2.68,5,5,0,0,1,.58-2.67,1.93,1.93,0,0,1,1.73-.9,2,2,0,0,1,1.74.93A4.86,4.86,0,0,1,28.73,785.43Zm-3.58,0a5.34,5.34,0,0,0,.29,2,1,1,0,0,0,.94.66c.85,0,1.28-.88,1.28-2.66s-.43-2.64-1.28-2.64a1,1,0,0,0-.94.66A5.23,5.23,0,0,0,25.15,785.43Zm8.44-3.4-6.33,11.42H26.11L32.45,782Zm2,8a4.92,4.92,0,0,1-.6,2.69,2,2,0,0,1-1.75.91,1.92,1.92,0,0,1-1.71-.93,6.29,6.29,0,0,1,0-5.34,1.91,1.91,0,0,1,1.72-.9,2,2,0,0,1,1.73.92A4.76,4.76,0,0,1,35.61,790ZM32,790a5.31,5.31,0,0,0,.29,2,1,1,0,0,0,.95.66,1,1,0,0,0,1-.65,4.9,4.9,0,0,0,.31-2,4.74,4.74,0,0,0-.31-2,1,1,0,0,0-1-.64,1,1,0,0,0-.95.64A5.16,5.16,0,0,0,32,790Z"/>
    </g>
    <line class="cls-1" x1="4.68" y1="757.26" x2="164.11" y2="757.26"/>
    <rect class="cls-4" x="4.68" y="560.31" width="159.43" height="236.35"/>
    <line class="cls-1" x1="4.68" y1="717.87" x2="164.11" y2="717.87"/>
    <line class="cls-1" x1="4.68" y1="678.48" x2="164.11" y2="678.48"/>
    <line class="cls-1" x1="4.68" y1="639.09" x2="164.11" y2="639.09"/>
    <line class="cls-1" x1="4.68" y1="599.7" x2="164.11" y2="599.7"/>
    <line class="cls-1" x1="4.68" y1="560.31" x2="164.11" y2="560.31"/>
    <rect class="cls-4" x="4.68" y="560.31" width="159.43" height="236.35"/>
    <g>
      <path class="cls-5" d="M10.55,575.1H9.28V567q0-1,.06-1.92c-.1.11-.23.22-.36.34l-1.86,1.53L6.43,566l3-2.34h1.1Z"/>
      <path class="cls-5" d="M18.67,563.52a3.91,3.91,0,0,1,2.48.72,2.44,2.44,0,0,1,.91,2,2.49,2.49,0,0,1-.52,1.54,4.72,4.72,0,0,1-1.67,1.27,5.57,5.57,0,0,1,2,1.39,2.58,2.58,0,0,1,.59,1.69,2.83,2.83,0,0,1-1,2.27,4,4,0,0,1-2.72.85,4.36,4.36,0,0,1-2.81-.8,2.76,2.76,0,0,1-1-2.27c0-1.31.8-2.33,2.39-3.06a4.29,4.29,0,0,1-1.54-1.31,2.74,2.74,0,0,1-.47-1.58,2.38,2.38,0,0,1,.92-2A3.75,3.75,0,0,1,18.67,563.52Zm-2.47,8.7a1.75,1.75,0,0,0,.66,1.46,2.83,2.83,0,0,0,1.83.52,2.75,2.75,0,0,0,1.81-.54,1.88,1.88,0,0,0,.65-1.5,1.81,1.81,0,0,0-.61-1.35,6.29,6.29,0,0,0-2.12-1.14,4.61,4.61,0,0,0-1.69,1.1A2.14,2.14,0,0,0,16.2,572.22Zm2.46-7.65a2.31,2.31,0,0,0-1.53.47,1.56,1.56,0,0,0-.56,1.25,1.8,1.8,0,0,0,.46,1.24,5,5,0,0,0,1.71,1,4.39,4.39,0,0,0,1.58-1,1.87,1.87,0,0,0,.46-1.26,1.54,1.54,0,0,0-.56-1.25A2.4,2.4,0,0,0,18.66,564.57Z"/>
      <path class="cls-5" d="M28.73,567.09a4.92,4.92,0,0,1-.6,2.69,2,2,0,0,1-1.75.91,1.91,1.91,0,0,1-1.7-.93,4.84,4.84,0,0,1-.61-2.67,5,5,0,0,1,.58-2.67,1.93,1.93,0,0,1,1.73-.9,2,2,0,0,1,1.74.93A4.86,4.86,0,0,1,28.73,567.09Zm-3.58,0a5.29,5.29,0,0,0,.29,2,1,1,0,0,0,.94.66c.85,0,1.28-.88,1.28-2.65s-.43-2.64-1.28-2.64a1,1,0,0,0-.94.65A5.25,5.25,0,0,0,25.15,567.09Zm8.44-3.41L27.26,575.1H26.11l6.34-11.42Zm2,8a4.9,4.9,0,0,1-.6,2.68,2,2,0,0,1-1.75.91,1.92,1.92,0,0,1-1.71-.93,6.29,6.29,0,0,1,0-5.34,1.92,1.92,0,0,1,1.72-.89A2,2,0,0,1,35,569,4.8,4.8,0,0,1,35.61,571.67Zm-3.59,0a5.25,5.25,0,0,0,.29,2,1,1,0,0,0,.95.66,1,1,0,0,0,1-.65,4.81,4.81,0,0,0,.31-2,4.74,4.74,0,0,0-.31-2,1,1,0,0,0-1-.65,1,1,0,0,0-.95.65A5.16,5.16,0,0,0,32,571.67Z"/>
    </g>
    <polyline class="cls-7" points="4.68 677.59 36.57 654.66 68.45 637.97 100.34 637.82 132.22 662.11 164.11 721.95"/>
    <line class="cls-2" x1="4.68" y1="796.65" x2="164.11" y2="796.65"/>
    <rect class="cls-3" x="196" y="560.31" width="159.43" height="236.35"/>
    <line class="cls-1" x1="196" y1="796.65" x2="196" y2="560.31"/>
    <rect class="cls-4" x="196" y="560.31" width="159.43" height="236.35"/>
    <line class="cls-1" x1="227.88" y1="796.65" x2="227.88" y2="560.31"/>
    <rect class="cls-4" x="196" y="560.31" width="159.43" height="236.35"/>
    <line class="cls-1" x1="259.77" y1="796.65" x2="259.77" y2="560.31"/>
    <line class="cls-1" x1="291.65" y1="796.65" x2="291.65" y2="560.31"/>
    <line class="cls-1" x1="323.54" y1="796.65" x2="323.54" y2="560.31"/>
    <line class="cls-1" x1="355.42" y1="796.65" x2="355.42" y2="560.31"/>
    <rect class="cls-4" x="196" y="560.31" width="159.43" height="236.35"/>
    <line class="cls-1" x1="196" y1="796.65" x2="355.42" y2="796.65"/>
    <rect class="cls-4" x="196" y="560.31" width="159.43" height="236.35"/>
    <line class="cls-1" x1="196" y1="757.26" x2="355.42" y2="757.26"/>
    <rect class="cls-4" x="196" y="560.31" width="159.43" height="236.35"/>
    <line class="cls-1" x1="196" y1="717.87" x2="355.42" y2="717.87"/>
    <line class="cls-1" x1="196" y1="678.48" x2="355.42" y2="678.48"/>
    <line class="cls-1" x1="196" y1="639.09" x2="355.42" y2="639.09"/>
    <line class="cls-1" x1="196" y1="599.7" x2="355.42" y2="599.7"/>
    <line class="cls-1" x1="196" y1="560.31" x2="355.42" y2="560.31"/>
    <rect class="cls-4" x="196" y="560.31" width="159.43" height="236.35"/>
    <polyline class="cls-7" points="196 724.4 227.88 685.86 259.77 633.42 291.65 641.53 323.54 648.26 355.42 658.63"/>
    <line class="cls-2" x1="196" y1="796.65" x2="355.42" y2="796.65"/>
    <rect class="cls-3" x="387.31" y="560.31" width="159.43" height="236.35"/>
    <line class="cls-1" x1="387.31" y1="796.65" x2="387.31" y2="560.31"/>
    <rect class="cls-4" x="387.31" y="560.31" width="159.43" height="236.35"/>
    <line class="cls-1" x1="419.2" y1="796.65" x2="419.2" y2="560.31"/>
    <rect class="cls-4" x="387.31" y="560.31" width="159.43" height="236.35"/>
    <line class="cls-1" x1="451.08" y1="796.65" x2="451.08" y2="560.31"/>
    <line class="cls-1" x1="482.97" y1="796.65" x2="482.97" y2="560.31"/>
    <line class="cls-1" x1="514.85" y1="796.65" x2="514.85" y2="560.31"/>
    <line class="cls-1" x1="546.74" y1="796.65" x2="546.74" y2="560.31"/>
    <rect class="cls-4" x="387.31" y="560.31" width="159.43" height="236.35"/>
    <line class="cls-1" x1="387.31" y1="796.65" x2="546.74" y2="796.65"/>
    <rect class="cls-4" x="387.31" y="560.31" width="159.43" height="236.35"/>
    <line class="cls-1" x1="387.31" y1="757.26" x2="546.74" y2="757.26"/>
    <rect class="cls-4" x="387.31" y="560.31" width="159.43" height="236.35"/>
    <line class="cls-1" x1="387.31" y1="717.87" x2="546.74" y2="717.87"/>
    <line class="cls-1" x1="387.31" y1="678.48" x2="546.74" y2="678.48"/>
    <line class="cls-1" x1="387.31" y1="639.09" x2="546.74" y2="639.09"/>
    <line class="cls-1" x1="387.31" y1="599.7" x2="546.74" y2="599.7"/>
    <line class="cls-1" x1="387.31" y1="560.31" x2="546.74" y2="560.31"/>
    <rect class="cls-4" x="387.31" y="560.31" width="159.43" height="236.35"/>
    <polyline class="cls-7" points="387.31 738.82 419.19 697.48 451.08 660.61 482.97 617.42 514.85 620.28 546.74 657.5"/>
    <line class="cls-2" x1="387.31" y1="796.65" x2="546.74" y2="796.65"/>
    <rect class="cls-3" x="578.62" y="560.31" width="159.43" height="236.35"/>
    <line class="cls-1" x1="578.62" y1="796.65" x2="578.62" y2="560.31"/>
    <rect class="cls-4" x="578.62" y="560.31" width="159.43" height="236.35"/>
    <line class="cls-1" x1="610.51" y1="796.65" x2="610.51" y2="560.31"/>
    <rect class="cls-4" x="578.62" y="560.31" width="159.43" height="236.35"/>
    <line class="cls-1" x1="642.4" y1="796.65" x2="642.4" y2="560.31"/>
    <line class="cls-1" x1="674.28" y1="796.65" x2="674.28" y2="560.31"/>
    <line class="cls-1" x1="706.17" y1="796.65" x2="706.17" y2="560.31"/>
    <line class="cls-1" x1="738.05" y1="796.65" x2="738.05" y2="560.31"/>
    <rect class="cls-4" x="578.62" y="560.31" width="159.43" height="236.35"/>
    <line class="cls-1" x1="578.62" y1="796.65" x2="738.05" y2="796.65"/>
    <rect class="cls-4" x="578.62" y="560.31" width="159.43" height="236.35"/>
    <line class="cls-1" x1="578.62" y1="757.26" x2="738.05" y2="757.26"/>
    <rect class="cls-4" x="578.62" y="560.31" width="159.43" height="236.35"/>
    <line class="cls-1" x1="578.62" y1="717.87" x2="738.05" y2="717.87"/>
    <line class="cls-1" x1="578.62" y1="678.48" x2="738.05" y2="678.48"/>
    <line class="cls-1" x1="578.62" y1="639.09" x2="738.05" y2="639.09"/>
    <line class="cls-1" x1="578.62" y1="599.7" x2="738.05" y2="599.7"/>
    <line class="cls-1" x1="578.62" y1="560.31" x2="738.05" y2="560.31"/>
    <rect class="cls-4" x="578.62" y="560.31" width="159.43" height="236.35"/>
    <polyline class="cls-7" points="578.62 684.1 610.51 634.71 642.39 646.81 674.28 653.75 706.17 662.32 738.05 710.41"/>
    <line class="cls-2" x1="578.62" y1="796.65" x2="738.05" y2="796.65"/>
    <rect class="cls-3" x="769.94" y="560.31" width="159.43" height="236.35"/>
    <line class="cls-1" x1="769.94" y1="796.65" x2="769.94" y2="560.31"/>
    <rect class="cls-4" x="769.94" y="560.31" width="159.43" height="236.35"/>
    <line class="cls-1" x1="801.82" y1="796.65" x2="801.82" y2="560.31"/>
    <rect class="cls-4" x="769.94" y="560.31" width="159.43" height="236.35"/>
    <line class="cls-1" x1="833.71" y1="796.65" x2="833.71" y2="560.31"/>
    <line class="cls-1" x1="865.6" y1="796.65" x2="865.6" y2="560.31"/>
    <line class="cls-1" x1="897.48" y1="796.65" x2="897.48" y2="560.31"/>
    <line class="cls-1" x1="929.37" y1="796.65" x2="929.37" y2="560.31"/>
    <rect class="cls-4" x="769.94" y="560.31" width="159.43" height="236.35"/>
    <line class="cls-1" x1="769.94" y1="796.65" x2="929.37" y2="796.65"/>
    <rect class="cls-4" x="769.94" y="560.31" width="159.43" height="236.35"/>
    <line class="cls-1" x1="769.94" y1="757.26" x2="929.37" y2="757.26"/>
    <rect class="cls-4" x="769.94" y="560.31" width="159.43" height="236.35"/>
    <line class="cls-1" x1="769.94" y1="717.87" x2="929.37" y2="717.87"/>
    <line class="cls-1" x1="769.94" y1="678.48" x2="929.37" y2="678.48"/>
    <line class="cls-1" x1="769.94" y1="639.09" x2="929.37" y2="639.09"/>
    <line class="cls-1" x1="769.94" y1="599.7" x2="929.37" y2="599.7"/>
    <line class="cls-1" x1="769.94" y1="560.31" x2="929.37" y2="560.31"/>
    <rect class="cls-4" x="769.94" y="560.31" width="159.43" height="236.35"/>
    <polyline class="cls-7" points="769.94 684.09 801.82 649.79 833.71 633.45 865.6 640.14 897.48 675.18 929.37 709.44"/>
    <line class="cls-2" x1="769.94" y1="796.65" x2="929.37" y2="796.65"/>
    <rect class="cls-3" x="961.25" y="560.31" width="159.43" height="236.35"/>
    <line class="cls-1" x1="961.25" y1="796.65" x2="961.25" y2="560.31"/>
    <rect class="cls-4" x="961.25" y="560.31" width="159.43" height="236.35"/>
    <line class="cls-1" x1="993.14" y1="796.65" x2="993.14" y2="560.31"/>
    <rect class="cls-4" x="961.25" y="560.31" width="159.43" height="236.35"/>
    <line class="cls-1" x1="1025.02" y1="796.65" x2="1025.02" y2="560.31"/>
    <line class="cls-1" x1="1056.91" y1="796.65" x2="1056.91" y2="560.31"/>
    <line class="cls-1" x1="1088.8" y1="796.65" x2="1088.8" y2="560.31"/>
    <line class="cls-1" x1="1120.68" y1="796.65" x2="1120.68" y2="560.31"/>
    <rect class="cls-4" x="961.25" y="560.31" width="159.43" height="236.35"/>
    <line class="cls-1" x1="961.25" y1="796.65" x2="1120.68" y2="796.65"/>
    <rect class="cls-4" x="961.25" y="560.31" width="159.43" height="236.35"/>
    <line class="cls-1" x1="961.25" y1="757.26" x2="1120.68" y2="757.26"/>
    <rect class="cls-4" x="961.25" y="560.31" width="159.43" height="236.35"/>
    <line class="cls-1" x1="961.25" y1="717.87" x2="1120.68" y2="717.87"/>
    <line class="cls-1" x1="961.25" y1="678.48" x2="1120.68" y2="678.48"/>
    <line class="cls-1" x1="961.25" y1="639.09" x2="1120.68" y2="639.09"/>
    <line class="cls-1" x1="961.25" y1="599.7" x2="1120.68" y2="599.7"/>
    <line class="cls-1" x1="961.25" y1="560.31" x2="1120.68" y2="560.31"/>
    <rect class="cls-4" x="961.25" y="560.31" width="159.43" height="236.35"/>
    <polyline class="cls-7" points="961.25 670.14 993.14 635.36 1025.02 636.08 1056.91 670.07 1088.8 671.01 1120.68 709.44"/>
    <line class="cls-2" x1="961.25" y1="796.65" x2="1120.68" y2="796.65"/>
    <g>
      <path d="M83.7,589.31H82.12V575.74h7.56v1.4h-6v5h5.62v1.4H83.7Z"/>
      <path d="M278,582.2h4.61v6.6a15.15,15.15,0,0,1-2.19.52,17.69,17.69,0,0,1-2.58.17,6.24,6.24,0,0,1-4.79-1.83,7.18,7.18,0,0,1-1.72-5.13,7.73,7.73,0,0,1,.85-3.71,5.78,5.78,0,0,1,2.44-2.43,7.93,7.93,0,0,1,3.74-.84,10.1,10.1,0,0,1,4.05.8l-.61,1.39a9.08,9.08,0,0,0-3.54-.78,5.08,5.08,0,0,0-3.87,1.47,5.74,5.74,0,0,0-1.39,4.1,5.86,5.86,0,0,0,1.34,4.16,5.15,5.15,0,0,0,3.94,1.42,12,12,0,0,0,2.75-.32v-4.18h-3Z"/>
      <path d="M464.79,592.88a3.12,3.12,0,0,1-1.38-.25v-1.35a4.84,4.84,0,0,0,1.38.19,1.74,1.74,0,0,0,1.39-.56,2.37,2.37,0,0,0,.48-1.6V575.74h1.58v13.44a3.92,3.92,0,0,1-.89,2.73A3.3,3.3,0,0,1,464.79,592.88Z"/>
      <path d="M656.2,589.31V575.74h1.57v12.14h6v1.43Z"/>
      <path d="M851.31,589.31l-4.6-12h-.08c.09,1,.13,2.09.13,3.4v8.63h-1.45V575.74h2.37l4.3,11.19h.07l4.33-11.19h2.36v13.57h-1.58v-8.74c0-1,.05-2.09.13-3.27h-.07l-4.64,12Z"/>
      <path d="M1048,589.31h-1.8l-7.41-11.39h-.07c.1,1.34.15,2.56.15,3.68v7.71h-1.46V575.74h1.78l7.39,11.34h.08c0-.17,0-.7-.08-1.61s-.06-1.55,0-1.94v-7.79H1048Z"/>
    </g>
  </g>
  <g>
    <g>
      <path class="cls-5" d="M12.45,286.75h-7V285.7l2.82-2.83A20.45,20.45,0,0,0,9.93,281a4.65,4.65,0,0,0,.62-1.08,3.29,3.29,0,0,0,.2-1.14,1.8,1.8,0,0,0-.52-1.36,2,2,0,0,0-1.44-.5,3.52,3.52,0,0,0-1.26.22,5,5,0,0,0-1.33.8l-.65-.83a4.94,4.94,0,0,1,3.22-1.23,3.43,3.43,0,0,1,2.37.77,2.68,2.68,0,0,1,.86,2.08,4,4,0,0,1-.57,2,12.62,12.62,0,0,1-2.14,2.52l-2.35,2.3v.05h5.51Z"/>
      <path class="cls-5" d="M21.09,281.38a7.86,7.86,0,0,1-.88,4.15,3,3,0,0,1-2.68,1.37,2.93,2.93,0,0,1-2.62-1.4,7.6,7.6,0,0,1-.91-4.12,7.72,7.72,0,0,1,.88-4.15,2.94,2.94,0,0,1,2.65-1.36,3,3,0,0,1,2.65,1.42A7.56,7.56,0,0,1,21.09,281.38Zm-5.86,0a8,8,0,0,0,.55,3.41,2,2,0,0,0,3.52,0,10.88,10.88,0,0,0,0-6.77,2,2,0,0,0-3.52,0A7.86,7.86,0,0,0,15.23,281.38Z"/>
      <path class="cls-5" d="M27.07,286.75H25.88v-7.63c0-.63,0-1.24.06-1.8-.1.1-.21.21-.34.32l-1.74,1.43-.65-.84L26.05,276h1Z"/>
      <path class="cls-5" d="M37.78,278.56a2.4,2.4,0,0,1-.58,1.68,2.78,2.78,0,0,1-1.63.87v.06a3.11,3.11,0,0,1,1.92.82,2.44,2.44,0,0,1,.62,1.73,2.8,2.8,0,0,1-1.06,2.35,4.84,4.84,0,0,1-3,.83,8.34,8.34,0,0,1-1.56-.13,5.24,5.24,0,0,1-1.37-.45v-1.16a6.88,6.88,0,0,0,3,.71c1.85,0,2.78-.73,2.78-2.18s-1-1.95-3.06-1.95H32.73v-1H33.8a3.22,3.22,0,0,0,2-.56,1.83,1.83,0,0,0,.73-1.53,1.49,1.49,0,0,0-.54-1.23,2.22,2.22,0,0,0-1.46-.45,4.46,4.46,0,0,0-1.33.19,6.35,6.35,0,0,0-1.42.7l-.61-.82a5,5,0,0,1,1.52-.81,5.46,5.46,0,0,1,1.81-.3,3.71,3.71,0,0,1,2.42.71A2.4,2.4,0,0,1,37.78,278.56Z"/>
    </g>
    <g>
      <path class="cls-5" d="M137.88,286.75h-7V285.7l2.82-2.83a20.45,20.45,0,0,0,1.7-1.86,5,5,0,0,0,.62-1.08,3.29,3.29,0,0,0,.2-1.14,1.8,1.8,0,0,0-.52-1.36,2,2,0,0,0-1.44-.5,3.48,3.48,0,0,0-1.26.22,4.87,4.87,0,0,0-1.33.8l-.65-.83a4.94,4.94,0,0,1,3.22-1.23,3.43,3.43,0,0,1,2.37.77,2.68,2.68,0,0,1,.86,2.08,3.9,3.9,0,0,1-.58,2,12.5,12.5,0,0,1-2.13,2.52l-2.35,2.3v.05h5.51Z"/>
      <path class="cls-5" d="M146.52,281.38a7.86,7.86,0,0,1-.88,4.15,3.24,3.24,0,0,1-5.31,0,7.7,7.7,0,0,1-.9-4.12,7.82,7.82,0,0,1,.87-4.15,3.23,3.23,0,0,1,5.31.06A7.65,7.65,0,0,1,146.52,281.38Zm-5.86,0a8,8,0,0,0,.55,3.41,1.84,1.84,0,0,0,1.75,1.06,1.86,1.86,0,0,0,1.77-1.08,10.88,10.88,0,0,0,0-6.77,1.86,1.86,0,0,0-1.77-1.07,1.84,1.84,0,0,0-1.75,1.06A7.86,7.86,0,0,0,140.66,281.38Z"/>
      <path class="cls-5" d="M152.5,286.75h-1.19v-7.63c0-.63,0-1.24.06-1.8l-.34.32-1.75,1.43-.64-.84,2.83-2.19h1Z"/>
      <path class="cls-5" d="M160.12,275.89a3.66,3.66,0,0,1,2.32.68,2.28,2.28,0,0,1,.86,1.88,2.36,2.36,0,0,1-.5,1.45,4.19,4.19,0,0,1-1.56,1.18,5.3,5.3,0,0,1,1.85,1.31,2.44,2.44,0,0,1,.55,1.59,2.64,2.64,0,0,1-.93,2.12,3.8,3.8,0,0,1-2.55.8,4.11,4.11,0,0,1-2.64-.75,2.6,2.6,0,0,1-.92-2.13c0-1.23.75-2.18,2.24-2.86a4.26,4.26,0,0,1-1.45-1.24,2.63,2.63,0,0,1-.44-1.48,2.27,2.27,0,0,1,.86-1.86A3.59,3.59,0,0,1,160.12,275.89Zm-2.32,8.16a1.69,1.69,0,0,0,.61,1.37,2.67,2.67,0,0,0,1.72.49,2.56,2.56,0,0,0,1.7-.51,1.8,1.8,0,0,0,0-2.67,5.87,5.87,0,0,0-2-1.08,4.5,4.5,0,0,0-1.58,1A2,2,0,0,0,157.8,284.05Zm2.3-7.17a2.14,2.14,0,0,0-1.43.44,1.44,1.44,0,0,0-.52,1.17,1.67,1.67,0,0,0,.43,1.16,4.52,4.52,0,0,0,1.6,1,4,4,0,0,0,1.48-.94,1.75,1.75,0,0,0,.43-1.18,1.45,1.45,0,0,0-.53-1.18A2.23,2.23,0,0,0,160.1,276.88Z"/>
    </g>
  </g>
  <line class="cls-1" x1="5.7" y1="897.01" x2="165.13" y2="897.01"/>
  <line class="cls-1" x1="197.02" y1="897.01" x2="356.44" y2="897.01"/>
  <line class="cls-1" x1="388.33" y1="897.01" x2="547.76" y2="897.01"/>
  <line class="cls-1" x1="579.64" y1="897.01" x2="739.07" y2="897.01"/>
  <line class="cls-1" x1="770.96" y1="897.01" x2="930.39" y2="897.01"/>
  <g>
    <rect class="cls-3" x="5.7" y="825.38" width="159.43" height="236.35"/>
    <line class="cls-1" x1="5.7" y1="1061.73" x2="5.7" y2="825.38"/>
    <rect class="cls-4" x="5.7" y="825.38" width="159.43" height="236.35"/>
    <line class="cls-1" x1="37.59" y1="1061.73" x2="37.59" y2="825.38"/>
    <rect class="cls-4" x="5.7" y="825.38" width="159.43" height="236.35"/>
    <line class="cls-1" x1="69.47" y1="1061.73" x2="69.47" y2="825.38"/>
    <line class="cls-1" x1="101.36" y1="1061.73" x2="101.36" y2="825.38"/>
    <line class="cls-1" x1="133.25" y1="1061.73" x2="133.25" y2="825.38"/>
    <line class="cls-1" x1="165.13" y1="1061.73" x2="165.13" y2="825.38"/>
    <rect class="cls-4" x="5.7" y="825.38" width="159.43" height="236.35"/>
    <line class="cls-1" x1="5.7" y1="1061.73" x2="165.13" y2="1061.73"/>
    <rect class="cls-4" x="5.7" y="825.38" width="159.43" height="236.35"/>
    <g>
      <path class="cls-5" d="M11.57,1058.52H10.3v-8.14c0-.67,0-1.32.07-1.92l-.37.34-1.86,1.53-.69-.89,3-2.34h1.09Z"/>
      <path class="cls-5" d="M19.48,1051.55a4.17,4.17,0,0,1,2.84.89,3.07,3.07,0,0,1,1,2.45,3.54,3.54,0,0,1-1.13,2.78,4.51,4.51,0,0,1-3.11,1,5.76,5.76,0,0,1-2.95-.62v-1.25a4.34,4.34,0,0,0,1.36.55,6.38,6.38,0,0,0,1.6.2,3.17,3.17,0,0,0,2.14-.65A2.3,2.3,0,0,0,22,1055c0-1.6-1-2.39-2.93-2.39a11.57,11.57,0,0,0-2,.22l-.68-.43.43-5.34h5.68v1.2H18l-.29,3.43A9.13,9.13,0,0,1,19.48,1051.55Z"/>
      <path class="cls-5" d="M29.75,1050.51a4.94,4.94,0,0,1-.6,2.69,2,2,0,0,1-1.75.91,1.91,1.91,0,0,1-1.7-.93,4.84,4.84,0,0,1-.61-2.67,5,5,0,0,1,.58-2.67,1.93,1.93,0,0,1,1.73-.9,2,2,0,0,1,1.74.93A4.77,4.77,0,0,1,29.75,1050.51Zm-3.58,0a5.29,5.29,0,0,0,.29,2,1,1,0,0,0,.94.66c.85,0,1.28-.88,1.28-2.65s-.43-2.64-1.28-2.64a1,1,0,0,0-.94.65A5.25,5.25,0,0,0,26.17,1050.51Zm8.45-3.41-6.34,11.42H27.13l6.34-11.42Zm2,8a4.9,4.9,0,0,1-.6,2.68,1.94,1.94,0,0,1-1.75.91,1.92,1.92,0,0,1-1.71-.93,6.39,6.39,0,0,1,0-5.34,1.91,1.91,0,0,1,1.72-.89,2,2,0,0,1,1.73.91A4.8,4.8,0,0,1,36.63,1055.09Zm-3.58,0a5.28,5.28,0,0,0,.28,2,1,1,0,0,0,1,.66,1,1,0,0,0,1-.65,4.85,4.85,0,0,0,.31-2,4.76,4.76,0,0,0-.31-2,1,1,0,0,0-1-.64,1,1,0,0,0-1,.64A5.22,5.22,0,0,0,33.05,1055.09Z"/>
    </g>
    <line class="cls-1" x1="5.7" y1="1022.33" x2="165.13" y2="1022.33"/>
    <rect class="cls-4" x="5.7" y="825.38" width="159.43" height="236.35"/>
    <line class="cls-1" x1="5.7" y1="982.94" x2="165.13" y2="982.94"/>
    <line class="cls-1" x1="5.7" y1="943.55" x2="165.13" y2="943.55"/>
    <line class="cls-1" x1="5.7" y1="904.16" x2="165.13" y2="904.16"/>
    <line class="cls-1" x1="5.7" y1="864.77" x2="165.13" y2="864.77"/>
    <rect class="cls-4" x="5.7" y="825.38" width="159.43" height="236.35"/>
    <g>
      <path class="cls-5" d="M11.57,840.18H10.3V832c0-.67,0-1.31.07-1.92l-.37.35L8.14,832l-.69-.89,3-2.34h1.09Z"/>
      <path class="cls-5" d="M19.69,828.59a3.84,3.84,0,0,1,2.48.73,2.4,2.4,0,0,1,.91,2,2.47,2.47,0,0,1-.52,1.54,4.52,4.52,0,0,1-1.67,1.27,5.66,5.66,0,0,1,2,1.39,2.63,2.63,0,0,1,.58,1.69,2.83,2.83,0,0,1-1,2.27,4,4,0,0,1-2.72.85,4.36,4.36,0,0,1-2.81-.8,2.75,2.75,0,0,1-1-2.27c0-1.31.8-2.32,2.39-3a4.5,4.5,0,0,1-1.54-1.32,2.82,2.82,0,0,1-.47-1.58,2.38,2.38,0,0,1,.92-2A3.81,3.81,0,0,1,19.69,828.59Zm-2.46,8.7a1.75,1.75,0,0,0,.65,1.46,2.83,2.83,0,0,0,1.83.53,2.74,2.74,0,0,0,1.81-.55,1.85,1.85,0,0,0,.65-1.5,1.82,1.82,0,0,0-.61-1.35,6.19,6.19,0,0,0-2.12-1.14,4.61,4.61,0,0,0-1.69,1.1A2.15,2.15,0,0,0,17.23,837.29Zm2.45-7.65a2.31,2.31,0,0,0-1.53.47,1.57,1.57,0,0,0-.56,1.25,1.85,1.85,0,0,0,.46,1.24,5,5,0,0,0,1.71,1,4.26,4.26,0,0,0,1.58-1,1.87,1.87,0,0,0,.46-1.26,1.56,1.56,0,0,0-.56-1.25A2.4,2.4,0,0,0,19.68,829.64Z"/>
      <path class="cls-5" d="M29.75,832.16a4.92,4.92,0,0,1-.6,2.69,2,2,0,0,1-1.75.91,1.91,1.91,0,0,1-1.7-.93,4.84,4.84,0,0,1-.61-2.67,5,5,0,0,1,.58-2.67,1.93,1.93,0,0,1,1.73-.9,2,2,0,0,1,1.74.93A4.77,4.77,0,0,1,29.75,832.16Zm-3.58,0a5.25,5.25,0,0,0,.29,2,1,1,0,0,0,.94.67c.85,0,1.28-.89,1.28-2.66s-.43-2.64-1.28-2.64a1,1,0,0,0-.94.66A5.16,5.16,0,0,0,26.17,832.16Zm8.45-3.41-6.34,11.43H27.13l6.34-11.43Zm2,8a4.9,4.9,0,0,1-.6,2.68,1.94,1.94,0,0,1-1.75.91,1.92,1.92,0,0,1-1.71-.93,6.36,6.36,0,0,1,0-5.33,1.92,1.92,0,0,1,1.72-.9,2,2,0,0,1,1.73.92A4.74,4.74,0,0,1,36.63,836.74Zm-3.58,0a5.28,5.28,0,0,0,.28,2,1,1,0,0,0,1,.66,1,1,0,0,0,1-.65,4.81,4.81,0,0,0,.31-2,4.74,4.74,0,0,0-.31-2,1,1,0,0,0-1-.65,1,1,0,0,0-1,.65A5.19,5.19,0,0,0,33.05,836.74Z"/>
    </g>
    <polyline class="cls-7" points="5.7 1006.65 37.59 977.91 69.47 964.86 101.36 977.78 133.25 826.08 165.13 829.26"/>
    <line class="cls-2" x1="5.7" y1="1061.73" x2="165.13" y2="1061.73"/>
    <rect class="cls-3" x="197.02" y="825.38" width="159.43" height="236.35"/>
    <line class="cls-1" x1="197.02" y1="1061.73" x2="197.02" y2="825.38"/>
    <rect class="cls-4" x="197.02" y="825.38" width="159.43" height="236.35"/>
    <line class="cls-1" x1="228.9" y1="1061.73" x2="228.9" y2="825.38"/>
    <rect class="cls-4" x="197.02" y="825.38" width="159.43" height="236.35"/>
    <line class="cls-1" x1="260.79" y1="1061.73" x2="260.79" y2="825.38"/>
    <line class="cls-1" x1="292.67" y1="1061.73" x2="292.67" y2="825.38"/>
    <line class="cls-1" x1="324.56" y1="1061.73" x2="324.56" y2="825.38"/>
    <line class="cls-1" x1="356.45" y1="1061.73" x2="356.45" y2="825.38"/>
    <rect class="cls-4" x="197.02" y="825.38" width="159.43" height="236.35"/>
    <line class="cls-1" x1="197.02" y1="1061.73" x2="356.45" y2="1061.73"/>
    <rect class="cls-4" x="197.02" y="825.38" width="159.43" height="236.35"/>
    <line class="cls-1" x1="197.02" y1="1022.33" x2="356.45" y2="1022.33"/>
    <rect class="cls-4" x="197.02" y="825.38" width="159.43" height="236.35"/>
    <line class="cls-1" x1="197.02" y1="982.94" x2="356.45" y2="982.94"/>
    <line class="cls-1" x1="197.02" y1="943.55" x2="356.45" y2="943.55"/>
    <line class="cls-1" x1="197.02" y1="904.16" x2="356.45" y2="904.16"/>
    <line class="cls-1" x1="197.02" y1="864.77" x2="356.45" y2="864.77"/>
    <rect class="cls-4" x="197.02" y="825.38" width="159.43" height="236.35"/>
    <polyline class="cls-7" points="197.02 960.2 228.9 930.24 260.79 911.92 292.67 918.53 324.56 925.91 356.44 935.73"/>
    <line class="cls-2" x1="197.02" y1="1061.73" x2="356.45" y2="1061.73"/>
    <rect class="cls-3" x="388.33" y="825.38" width="159.43" height="236.35"/>
    <line class="cls-1" x1="388.33" y1="1061.73" x2="388.33" y2="825.38"/>
    <rect class="cls-4" x="388.33" y="825.38" width="159.43" height="236.35"/>
    <line class="cls-1" x1="420.22" y1="1061.73" x2="420.22" y2="825.38"/>
    <rect class="cls-4" x="388.33" y="825.38" width="159.43" height="236.35"/>
    <line class="cls-1" x1="452.1" y1="1061.73" x2="452.1" y2="825.38"/>
    <line class="cls-1" x1="483.99" y1="1061.73" x2="483.99" y2="825.38"/>
    <line class="cls-1" x1="515.87" y1="1061.73" x2="515.87" y2="825.38"/>
    <line class="cls-1" x1="547.76" y1="1061.73" x2="547.76" y2="825.38"/>
    <rect class="cls-4" x="388.33" y="825.38" width="159.43" height="236.35"/>
    <line class="cls-1" x1="388.33" y1="1061.73" x2="547.76" y2="1061.73"/>
    <rect class="cls-4" x="388.33" y="825.38" width="159.43" height="236.35"/>
    <line class="cls-1" x1="388.33" y1="1022.33" x2="547.76" y2="1022.33"/>
    <rect class="cls-4" x="388.33" y="825.38" width="159.43" height="236.35"/>
    <line class="cls-1" x1="388.33" y1="982.94" x2="547.76" y2="982.94"/>
    <line class="cls-1" x1="388.33" y1="943.55" x2="547.76" y2="943.55"/>
    <line class="cls-1" x1="388.33" y1="904.16" x2="547.76" y2="904.16"/>
    <line class="cls-1" x1="388.33" y1="864.77" x2="547.76" y2="864.77"/>
    <rect class="cls-4" x="388.33" y="825.38" width="159.43" height="236.35"/>
    <polyline class="cls-6" points="388.33 957.6 420.22 911.51 452.1 901.71 483.99 930.77 515.87 941.16 547.76 939.78"/>
    <line class="cls-2" x1="388.33" y1="1061.73" x2="547.76" y2="1061.73"/>
    <rect class="cls-3" x="579.65" y="825.38" width="159.43" height="236.35"/>
    <line class="cls-1" x1="579.65" y1="1061.73" x2="579.65" y2="825.38"/>
    <rect class="cls-4" x="579.65" y="825.38" width="159.43" height="236.35"/>
    <line class="cls-1" x1="611.53" y1="1061.73" x2="611.53" y2="825.38"/>
    <rect class="cls-4" x="579.65" y="825.38" width="159.43" height="236.35"/>
    <line class="cls-1" x1="643.42" y1="1061.73" x2="643.42" y2="825.38"/>
    <line class="cls-1" x1="675.3" y1="1061.73" x2="675.3" y2="825.38"/>
    <line class="cls-1" x1="707.19" y1="1061.73" x2="707.19" y2="825.38"/>
    <line class="cls-1" x1="739.07" y1="1061.73" x2="739.07" y2="825.38"/>
    <rect class="cls-4" x="579.65" y="825.38" width="159.43" height="236.35"/>
    <line class="cls-1" x1="579.65" y1="1061.73" x2="739.07" y2="1061.73"/>
    <rect class="cls-4" x="579.65" y="825.38" width="159.43" height="236.35"/>
    <line class="cls-1" x1="579.65" y1="1022.33" x2="739.07" y2="1022.33"/>
    <rect class="cls-4" x="579.65" y="825.38" width="159.43" height="236.35"/>
    <line class="cls-1" x1="579.65" y1="982.94" x2="739.07" y2="982.94"/>
    <line class="cls-1" x1="579.65" y1="943.55" x2="739.07" y2="943.55"/>
    <line class="cls-1" x1="579.65" y1="904.16" x2="739.07" y2="904.16"/>
    <line class="cls-1" x1="579.65" y1="864.77" x2="739.07" y2="864.77"/>
    <rect class="cls-4" x="579.65" y="825.38" width="159.43" height="236.35"/>
    <polyline class="cls-7" points="579.64 958.87 611.53 926.01 643.42 906.86 675.3 916.57 707.19 924.65 739.07 949.58"/>
    <line class="cls-2" x1="579.65" y1="1061.73" x2="739.07" y2="1061.73"/>
    <rect class="cls-3" x="770.96" y="825.38" width="159.43" height="236.35"/>
    <line class="cls-1" x1="770.96" y1="1061.73" x2="770.96" y2="825.38"/>
    <rect class="cls-4" x="770.96" y="825.38" width="159.43" height="236.35"/>
    <line class="cls-1" x1="802.85" y1="1061.73" x2="802.85" y2="825.38"/>
    <rect class="cls-4" x="770.96" y="825.38" width="159.43" height="236.35"/>
    <line class="cls-1" x1="834.73" y1="1061.73" x2="834.73" y2="825.38"/>
    <line class="cls-1" x1="866.62" y1="1061.73" x2="866.62" y2="825.38"/>
    <line class="cls-1" x1="898.5" y1="1061.73" x2="898.5" y2="825.38"/>
    <line class="cls-1" x1="930.39" y1="1061.73" x2="930.39" y2="825.38"/>
    <rect class="cls-4" x="770.96" y="825.38" width="159.43" height="236.35"/>
    <line class="cls-1" x1="770.96" y1="1061.73" x2="930.39" y2="1061.73"/>
    <rect class="cls-4" x="770.96" y="825.38" width="159.43" height="236.35"/>
    <line class="cls-1" x1="770.96" y1="1022.33" x2="930.39" y2="1022.33"/>
    <rect class="cls-4" x="770.96" y="825.38" width="159.43" height="236.35"/>
    <line class="cls-1" x1="770.96" y1="982.94" x2="930.39" y2="982.94"/>
    <line class="cls-1" x1="770.96" y1="943.55" x2="930.39" y2="943.55"/>
    <line class="cls-1" x1="770.96" y1="904.16" x2="930.39" y2="904.16"/>
    <line class="cls-1" x1="770.96" y1="864.77" x2="930.39" y2="864.77"/>
    <rect class="cls-4" x="770.96" y="825.38" width="159.43" height="236.35"/>
    <polyline class="cls-7" points="770.96 1008.19 802.85 964.36 834.73 930.49 866.62 880.43 898.5 884.8 930.39 914.26"/>
    <line class="cls-2" x1="770.96" y1="1061.73" x2="930.39" y2="1061.73"/>
    <g>
      <path d="M93.39,848.58a8.19,8.19,0,0,1-1,4.33,5.22,5.22,0,0,1-3,2.34l3.23,3.36H90.32l-2.64-3.06h-.51a5.88,5.88,0,0,1-4.63-1.83,9,9,0,0,1,0-10.31,5.93,5.93,0,0,1,4.64-1.82,5.79,5.79,0,0,1,4.57,1.86A7.46,7.46,0,0,1,93.39,848.58Zm-10.81,0a6.39,6.39,0,0,0,1.18,4.18,4.79,4.79,0,0,0,6.81,0,6.49,6.49,0,0,0,1.15-4.18,6.42,6.42,0,0,0-1.15-4.15A4.08,4.08,0,0,0,87.18,843a4.17,4.17,0,0,0-3.42,1.43A6.33,6.33,0,0,0,82.58,848.58Z"/>
      <path d="M275.17,849.74v5.64H273.6V841.81h3.72a5.81,5.81,0,0,1,3.68,1,3.47,3.47,0,0,1,1.2,2.88,3.6,3.6,0,0,1-2.73,3.63l3.68,6.1h-1.86L278,849.74Zm0-1.36h2.16a3.74,3.74,0,0,0,2.45-.66,2.47,2.47,0,0,0,.78-2,2.26,2.26,0,0,0-.79-1.94,4.28,4.28,0,0,0-2.55-.59h-2.05Z"/>
      <path d="M473,851.77a3.32,3.32,0,0,1-1.3,2.79,5.6,5.6,0,0,1-3.52,1,8.72,8.72,0,0,1-3.71-.62v-1.52a9.46,9.46,0,0,0,1.82.56,9.91,9.91,0,0,0,1.94.2,3.92,3.92,0,0,0,2.38-.6,2,2,0,0,0,.8-1.66,2.14,2.14,0,0,0-.29-1.16,2.61,2.61,0,0,0-.94-.83,13.57,13.57,0,0,0-2-.86,6.4,6.4,0,0,1-2.7-1.61,3.48,3.48,0,0,1-.82-2.42,3,3,0,0,1,1.18-2.49,4.91,4.91,0,0,1,3.12-.93,9.25,9.25,0,0,1,3.72.74l-.49,1.38a8.43,8.43,0,0,0-3.27-.71,3.12,3.12,0,0,0-1.95.54,1.76,1.76,0,0,0-.71,1.49,2.34,2.34,0,0,0,.26,1.16,2.43,2.43,0,0,0,.88.82,10.78,10.78,0,0,0,1.88.83,7.33,7.33,0,0,1,2.94,1.64A3.17,3.17,0,0,1,473,851.77Z"/>
      <path d="M666,855.38h-1.56l-2.74-9.08c-.13-.41-.28-.91-.44-1.53a10,10,0,0,1-.25-1.1,19.5,19.5,0,0,1-.65,2.68l-2.65,9H656.1l-3.61-13.57h1.67l2.15,8.38c.29,1.18.51,2.24.65,3.19a21.85,21.85,0,0,1,.74-3.32l2.43-8.25h1.67l2.55,8.33a24.3,24.3,0,0,1,.75,3.24,28.23,28.23,0,0,1,.67-3.21l2.13-8.36h1.67Z"/>
      <path d="M855.83,855.38H846.5v-1.24l7.2-10.91h-7v-1.42h8.89v1.24L848.43,854h7.4Z"/>
    </g>
  </g>
  <g>
    <g>
      <path class="cls-5" d="M12.45,551.29h-7v-1l2.82-2.84a20.45,20.45,0,0,0,1.7-1.86,4.65,4.65,0,0,0,.62-1.08,3.25,3.25,0,0,0,.2-1.14,1.8,1.8,0,0,0-.52-1.36,2,2,0,0,0-1.44-.5,3.75,3.75,0,0,0-1.26.22,5,5,0,0,0-1.33.8l-.65-.83a4.94,4.94,0,0,1,3.22-1.23,3.39,3.39,0,0,1,2.37.78,2.64,2.64,0,0,1,.86,2.07,4.05,4.05,0,0,1-.57,2,13.2,13.2,0,0,1-2.14,2.52l-2.35,2.29v.06h5.51Z"/>
      <path class="cls-5" d="M21.09,545.93a7.82,7.82,0,0,1-.88,4.14,3,3,0,0,1-2.68,1.37,2.93,2.93,0,0,1-2.62-1.4,7.59,7.59,0,0,1-.91-4.11,7.76,7.76,0,0,1,.88-4.16,2.93,2.93,0,0,1,2.65-1.35,2.94,2.94,0,0,1,2.65,1.41A7.57,7.57,0,0,1,21.09,545.93Zm-5.86,0a8,8,0,0,0,.55,3.4,2,2,0,0,0,3.52,0,10.85,10.85,0,0,0,0-6.76,2,2,0,0,0-3.52,0A7.92,7.92,0,0,0,15.23,545.93Z"/>
      <path class="cls-5" d="M27.07,551.29H25.88v-7.63q0-.95.06-1.8c-.1.1-.21.21-.34.32s-.71.59-1.74,1.43l-.65-.83,2.84-2.19h1Z"/>
      <path class="cls-5" d="M37.78,543.11a2.39,2.39,0,0,1-.58,1.67,2.78,2.78,0,0,1-1.63.87v.06a3.11,3.11,0,0,1,1.92.82,2.44,2.44,0,0,1,.62,1.73,2.84,2.84,0,0,1-1.06,2.36,4.84,4.84,0,0,1-3,.82,8.34,8.34,0,0,1-1.56-.13,4.89,4.89,0,0,1-1.37-.45V549.7a6.88,6.88,0,0,0,3,.71c1.85,0,2.78-.73,2.78-2.18s-1-2-3.06-2H32.73v-1H33.8a3.22,3.22,0,0,0,2-.56,1.82,1.82,0,0,0,.73-1.53,1.52,1.52,0,0,0-.54-1.23,2.22,2.22,0,0,0-1.46-.45,4.8,4.8,0,0,0-1.33.19,6,6,0,0,0-1.42.71l-.61-.82a5,5,0,0,1,1.52-.82,5.46,5.46,0,0,1,1.81-.3,3.66,3.66,0,0,1,2.42.72A2.39,2.39,0,0,1,37.78,543.11Z"/>
    </g>
    <g>
      <path class="cls-5" d="M137.88,551.29h-7v-1l2.82-2.84a20.45,20.45,0,0,0,1.7-1.86,5,5,0,0,0,.62-1.08,3.25,3.25,0,0,0,.2-1.14,1.8,1.8,0,0,0-.52-1.36,2,2,0,0,0-1.44-.5,3.71,3.71,0,0,0-1.26.22,4.87,4.87,0,0,0-1.33.8l-.65-.83a4.94,4.94,0,0,1,3.22-1.23,3.39,3.39,0,0,1,2.37.78,2.64,2.64,0,0,1,.86,2.07,4,4,0,0,1-.58,2,13.07,13.07,0,0,1-2.13,2.52l-2.35,2.29v.06h5.51Z"/>
      <path class="cls-5" d="M146.52,545.93a7.82,7.82,0,0,1-.88,4.14,3.24,3.24,0,0,1-5.31,0,7.69,7.69,0,0,1-.9-4.11,7.86,7.86,0,0,1,.87-4.16,3.24,3.24,0,0,1,5.31.06A7.67,7.67,0,0,1,146.52,545.93Zm-5.86,0a8,8,0,0,0,.55,3.4,1.84,1.84,0,0,0,1.75,1.06,1.86,1.86,0,0,0,1.77-1.08,10.85,10.85,0,0,0,0-6.76,2,2,0,0,0-3.52,0A7.92,7.92,0,0,0,140.66,545.93Z"/>
      <path class="cls-5" d="M152.5,551.29h-1.19v-7.63q0-.95.06-1.8l-.34.32c-.13.12-.71.59-1.75,1.43l-.64-.83,2.83-2.19h1Z"/>
      <path class="cls-5" d="M160.12,540.43a3.66,3.66,0,0,1,2.32.68,2.3,2.3,0,0,1,.86,1.89,2.35,2.35,0,0,1-.5,1.44,4.31,4.31,0,0,1-1.56,1.19,5.3,5.3,0,0,1,1.85,1.3,2.46,2.46,0,0,1,.55,1.59,2.66,2.66,0,0,1-.93,2.13,3.8,3.8,0,0,1-2.55.79,4.11,4.11,0,0,1-2.64-.75,2.6,2.6,0,0,1-.92-2.13c0-1.22.75-2.18,2.24-2.86a4.15,4.15,0,0,1-1.45-1.24A2.63,2.63,0,0,1,157,543a2.28,2.28,0,0,1,.86-1.86A3.59,3.59,0,0,1,160.12,540.43Zm-2.32,8.16a1.68,1.68,0,0,0,.61,1.37,2.67,2.67,0,0,0,1.72.49,2.56,2.56,0,0,0,1.7-.51,1.8,1.8,0,0,0,0-2.67,5.71,5.71,0,0,0-2-1.07,4.36,4.36,0,0,0-1.58,1A2,2,0,0,0,157.8,548.59Zm2.3-7.17a2.14,2.14,0,0,0-1.43.44,1.44,1.44,0,0,0-.52,1.17,1.67,1.67,0,0,0,.43,1.16,4.67,4.67,0,0,0,1.6,1,4.1,4.1,0,0,0,1.48-.95,1.75,1.75,0,0,0,.43-1.18,1.42,1.42,0,0,0-.53-1.17A2.23,2.23,0,0,0,160.1,541.42Z"/>
    </g>
  </g>
  <g>
    <g>
      <path class="cls-5" d="M12.45,815.84h-7v-1.05L8.23,812a20.45,20.45,0,0,0,1.7-1.86,4.91,4.91,0,0,0,.62-1.09,3.24,3.24,0,0,0,.2-1.13,1.77,1.77,0,0,0-.52-1.36,2,2,0,0,0-1.44-.5,3.52,3.52,0,0,0-1.26.22A5,5,0,0,0,6.2,807l-.65-.82A4.94,4.94,0,0,1,8.77,805a3.38,3.38,0,0,1,2.37.77,2.66,2.66,0,0,1,.86,2.07,4,4,0,0,1-.57,2,13.2,13.2,0,0,1-2.14,2.52l-2.35,2.29v.06h5.51Z"/>
      <path class="cls-5" d="M21.09,810.47a7.82,7.82,0,0,1-.88,4.14A2.93,2.93,0,0,1,17.53,816a2.91,2.91,0,0,1-2.62-1.4,7.54,7.54,0,0,1-.91-4.11,7.69,7.69,0,0,1,.88-4.15A2.92,2.92,0,0,1,17.53,805a2.94,2.94,0,0,1,2.65,1.41A7.6,7.6,0,0,1,21.09,810.47Zm-5.86,0a7.92,7.92,0,0,0,.55,3.4,2,2,0,0,0,3.52,0,8,8,0,0,0,.54-3.39,7.9,7.9,0,0,0-.54-3.38A1.84,1.84,0,0,0,17.53,806a1.84,1.84,0,0,0-1.75,1.05A7.92,7.92,0,0,0,15.23,810.47Z"/>
      <path class="cls-5" d="M27.07,815.84H25.88v-7.63c0-.64,0-1.24.06-1.81-.1.11-.21.21-.34.33l-1.74,1.42-.65-.83,2.84-2.19h1Z"/>
      <path class="cls-5" d="M37.78,807.65a2.44,2.44,0,0,1-.58,1.68,2.89,2.89,0,0,1-1.63.87v.06a3.06,3.06,0,0,1,1.92.82,2.43,2.43,0,0,1,.62,1.73,2.82,2.82,0,0,1-1.06,2.35,4.84,4.84,0,0,1-3,.82,9.33,9.33,0,0,1-1.56-.12,5.64,5.64,0,0,1-1.37-.45v-1.16a7.07,7.07,0,0,0,3,.7c1.85,0,2.78-.72,2.78-2.17q0-1.95-3.06-1.95H32.73v-1.05H33.8a3.22,3.22,0,0,0,2-.55,1.84,1.84,0,0,0,.73-1.54,1.52,1.52,0,0,0-.54-1.23,2.21,2.21,0,0,0-1.46-.44,4.46,4.46,0,0,0-1.33.19,5.94,5.94,0,0,0-1.42.7l-.61-.82a5,5,0,0,1,1.52-.82,5.45,5.45,0,0,1,1.81-.29,3.66,3.66,0,0,1,2.42.71A2.4,2.4,0,0,1,37.78,807.65Z"/>
    </g>
    <g>
      <path class="cls-5" d="M137.88,815.84h-7v-1.05l2.82-2.83a20.45,20.45,0,0,0,1.7-1.86A5.34,5.34,0,0,0,136,809a3.24,3.24,0,0,0,.2-1.13,1.77,1.77,0,0,0-.52-1.36,2,2,0,0,0-1.44-.5,3.48,3.48,0,0,0-1.26.22,4.81,4.81,0,0,0-1.33.79l-.65-.82A4.94,4.94,0,0,1,134.2,805a3.38,3.38,0,0,1,2.37.77,2.66,2.66,0,0,1,.86,2.07,3.94,3.94,0,0,1-.58,2,13.07,13.07,0,0,1-2.13,2.52l-2.35,2.29v.06h5.51Z"/>
      <path class="cls-5" d="M146.52,810.47a7.82,7.82,0,0,1-.88,4.14,3.24,3.24,0,0,1-5.31,0,7.64,7.64,0,0,1-.9-4.11,7.8,7.8,0,0,1,.87-4.15,3.24,3.24,0,0,1,5.31,0A7.69,7.69,0,0,1,146.52,810.47Zm-5.86,0a7.92,7.92,0,0,0,.55,3.4,2,2,0,0,0,3.52,0,8,8,0,0,0,.54-3.39,7.9,7.9,0,0,0-.54-3.38,2,2,0,0,0-3.52,0A7.92,7.92,0,0,0,140.66,810.47Z"/>
      <path class="cls-5" d="M152.5,815.84h-1.19v-7.63c0-.64,0-1.24.06-1.81-.1.11-.22.21-.34.33l-1.75,1.42-.64-.83,2.83-2.19h1Z"/>
      <path class="cls-5" d="M160.12,805a3.6,3.6,0,0,1,2.32.68,2.27,2.27,0,0,1,.86,1.88,2.31,2.31,0,0,1-.5,1.44,4.2,4.2,0,0,1-1.56,1.19,5.18,5.18,0,0,1,1.85,1.31,2.41,2.41,0,0,1,.55,1.58,2.66,2.66,0,0,1-.93,2.13,3.8,3.8,0,0,1-2.55.79,4.11,4.11,0,0,1-2.64-.75,2.6,2.6,0,0,1-.92-2.13c0-1.22.75-2.17,2.24-2.86a4.24,4.24,0,0,1-1.45-1.23,2.66,2.66,0,0,1-.44-1.49,2.26,2.26,0,0,1,.86-1.85A3.59,3.59,0,0,1,160.12,805Zm-2.32,8.15a1.66,1.66,0,0,0,.61,1.37,2.67,2.67,0,0,0,1.72.5,2.56,2.56,0,0,0,1.7-.52,1.8,1.8,0,0,0,0-2.67,5.88,5.88,0,0,0-2-1.07,4.37,4.37,0,0,0-1.58,1A2,2,0,0,0,157.8,813.13Zm2.3-7.17a2.14,2.14,0,0,0-1.43.44,1.47,1.47,0,0,0-.52,1.18,1.66,1.66,0,0,0,.43,1.15,4.37,4.37,0,0,0,1.6,1,4.1,4.1,0,0,0,1.48-.94,1.77,1.77,0,0,0,.43-1.18,1.42,1.42,0,0,0-.53-1.18A2.23,2.23,0,0,0,160.1,806Z"/>
    </g>
  </g>
</svg>
