<?xml version="1.0" encoding="utf-8" standalone="no"?>
<!DOCTYPE svg PUBLIC "-//W3C//DTD SVG 1.1//EN"
  "http://www.w3.org/Graphics/SVG/1.1/DTD/svg11.dtd">
<!-- Created with matplotlib (https://matplotlib.org/) -->
<svg height="286.2pt" version="1.1" viewBox="0 0 327.6 286.2" width="327.6pt" xmlns="http://www.w3.org/2000/svg" xmlns:xlink="http://www.w3.org/1999/xlink">
 <defs>
  <style type="text/css">
*{stroke-linecap:butt;stroke-linejoin:round;white-space:pre;}
  </style>
 </defs>
 <g id="figure_1">
  <g id="patch_1">
   <path d="M 0 286.2 
L 327.6 286.2 
L 327.6 0 
L 0 0 
z
" style="fill:none;"/>
  </g>
  <g id="axes_1">
   <g id="patch_2">
    <path d="M 7.2 279 
L 320.4 279 
L 320.4 7.2 
L 7.2 7.2 
z
" style="fill:none;"/>
   </g>
   <g id="matplotlib.axis_1">
    <g id="xtick_1">
     <g id="line2d_1">
      <path clip-path="url(#p872e2cdc3f)" d="M 7.2 279 
L 7.2 7.2 
" style="fill:none;stroke:#ffffff;"/>
     </g>
     <g id="line2d_2"/>
    </g>
    <g id="xtick_2">
     <g id="line2d_3">
      <path clip-path="url(#p872e2cdc3f)" d="M 75.286957 279 
L 75.286957 7.2 
" style="fill:none;stroke:#ffffff;"/>
     </g>
     <g id="line2d_4"/>
    </g>
    <g id="xtick_3">
     <g id="line2d_5">
      <path clip-path="url(#p872e2cdc3f)" d="M 143.373913 279 
L 143.373913 7.2 
" style="fill:none;stroke:#ffffff;"/>
     </g>
     <g id="line2d_6"/>
    </g>
    <g id="xtick_4">
     <g id="line2d_7">
      <path clip-path="url(#p872e2cdc3f)" d="M 211.46087 279 
L 211.46087 7.2 
" style="fill:none;stroke:#ffffff;"/>
     </g>
     <g id="line2d_8"/>
    </g>
    <g id="xtick_5">
     <g id="line2d_9">
      <path clip-path="url(#p872e2cdc3f)" d="M 279.547826 279 
L 279.547826 7.2 
" style="fill:none;stroke:#ffffff;"/>
     </g>
     <g id="line2d_10"/>
    </g>
   </g>
   <g id="matplotlib.axis_2">
    <g id="ytick_1">
     <g id="line2d_11">
      <path clip-path="url(#p872e2cdc3f)" d="M 7.2 279 
L 320.4 279 
" style="fill:none;stroke:#ffffff;"/>
     </g>
     <g id="line2d_12"/>
    </g>
    <g id="ytick_2">
     <g id="line2d_13">
      <path clip-path="url(#p872e2cdc3f)" d="M 7.2 245.025 
L 320.4 245.025 
" style="fill:none;stroke:#ffffff;"/>
     </g>
     <g id="line2d_14"/>
    </g>
    <g id="ytick_3">
     <g id="line2d_15">
      <path clip-path="url(#p872e2cdc3f)" d="M 7.2 211.05 
L 320.4 211.05 
" style="fill:none;stroke:#ffffff;"/>
     </g>
     <g id="line2d_16"/>
    </g>
    <g id="ytick_4">
     <g id="line2d_17">
      <path clip-path="url(#p872e2cdc3f)" d="M 7.2 177.075 
L 320.4 177.075 
" style="fill:none;stroke:#ffffff;"/>
     </g>
     <g id="line2d_18"/>
    </g>
    <g id="ytick_5">
     <g id="line2d_19">
      <path clip-path="url(#p872e2cdc3f)" d="M 7.2 143.1 
L 320.4 143.1 
" style="fill:none;stroke:#ffffff;"/>
     </g>
     <g id="line2d_20"/>
    </g>
    <g id="ytick_6">
     <g id="line2d_21">
      <path clip-path="url(#p872e2cdc3f)" d="M 7.2 109.125 
L 320.4 109.125 
" style="fill:none;stroke:#ffffff;"/>
     </g>
     <g id="line2d_22"/>
    </g>
    <g id="ytick_7">
     <g id="line2d_23">
      <path clip-path="url(#p872e2cdc3f)" d="M 7.2 75.15 
L 320.4 75.15 
" style="fill:none;stroke:#ffffff;"/>
     </g>
     <g id="line2d_24"/>
    </g>
    <g id="ytick_8">
     <g id="line2d_25">
      <path clip-path="url(#p872e2cdc3f)" d="M 7.2 41.175 
L 320.4 41.175 
" style="fill:none;stroke:#ffffff;"/>
     </g>
     <g id="line2d_26"/>
    </g>
    <g id="ytick_9">
     <g id="line2d_27">
      <path clip-path="url(#p872e2cdc3f)" d="M 7.2 7.2 
L 320.4 7.2 
" style="fill:none;stroke:#ffffff;"/>
     </g>
     <g id="line2d_28"/>
    </g>
   </g>
   <g id="PathCollection_1">
    <defs>
     <path d="M 0 4.330127 
C 1.148363 4.330127 2.249847 3.873878 3.061862 3.061862 
C 3.873878 2.249847 4.330127 1.148363 4.330127 0 
C 4.330127 -1.148363 3.873878 -2.249847 3.061862 -3.061862 
C 2.249847 -3.873878 1.148363 -4.330127 0 -4.330127 
C -1.148363 -4.330127 -2.249847 -3.873878 -3.061862 -3.061862 
C -3.873878 -2.249847 -4.330127 -1.148363 -4.330127 0 
C -4.330127 1.148363 -3.873878 2.249847 -3.061862 3.061862 
C -2.249847 3.873878 -1.148363 4.330127 0 4.330127 
z
" id="meff3fee1e3" style="stroke:#5e8066;stroke-width:0.5;"/>
    </defs>
    <g clip-path="url(#p872e2cdc3f)">
     <use style="fill:#5e8066;stroke:#5e8066;stroke-width:0.5;" x="213.725857" xlink:href="#meff3fee1e3" y="231.435"/>
     <use style="fill:#5e8066;stroke:#5e8066;stroke-width:0.5;" x="313.319923" xlink:href="#meff3fee1e3" y="163.485"/>
     <use style="fill:#5e8066;stroke:#5e8066;stroke-width:0.5;" x="177.354064" xlink:href="#meff3fee1e3" y="95.535"/>
     <use style="fill:#5e8066;stroke:#5e8066;stroke-width:0.5;" x="166.515716" xlink:href="#meff3fee1e3" y="27.585"/>
    </g>
   </g>
   <g id="PathCollection_2">
    <defs>
     <path d="M 0 4.330127 
C 1.148363 4.330127 2.249847 3.873878 3.061862 3.061862 
C 3.873878 2.249847 4.330127 1.148363 4.330127 0 
C 4.330127 -1.148363 3.873878 -2.249847 3.061862 -3.061862 
C 2.249847 -3.873878 1.148363 -4.330127 0 -4.330127 
C -1.148363 -4.330127 -2.249847 -3.873878 -3.061862 -3.061862 
C -3.873878 -2.249847 -4.330127 -1.148363 -4.330127 0 
C -4.330127 1.148363 -3.873878 2.249847 -3.061862 3.061862 
C -2.249847 3.873878 -1.148363 4.330127 0 4.330127 
z
" id="mb1470cf974" style="stroke:#8ebf99;stroke-width:0.5;"/>
    </defs>
    <g clip-path="url(#p872e2cdc3f)">
     <use style="fill:#8ebf99;stroke:#8ebf99;stroke-width:0.5;" x="176.217393" xlink:href="#mb1470cf974" y="238.23"/>
     <use style="fill:#8ebf99;stroke:#8ebf99;stroke-width:0.5;" x="177.617594" xlink:href="#mb1470cf974" y="170.28"/>
     <use style="fill:#8ebf99;stroke:#8ebf99;stroke-width:0.5;" x="154.572815" xlink:href="#mb1470cf974" y="102.33"/>
     <use style="fill:#8ebf99;stroke:#8ebf99;stroke-width:0.5;" x="142.061918" xlink:href="#mb1470cf974" y="34.38"/>
    </g>
   </g>
   <g id="PathCollection_3">
    <defs>
     <path d="M 0 4.330127 
C 1.148363 4.330127 2.249847 3.873878 3.061862 3.061862 
C 3.873878 2.249847 4.330127 1.148363 4.330127 0 
C 4.330127 -1.148363 3.873878 -2.249847 3.061862 -3.061862 
C 2.249847 -3.873878 1.148363 -4.330127 0 -4.330127 
C -1.148363 -4.330127 -2.249847 -3.873878 -3.061862 -3.061862 
C -3.873878 -2.249847 -4.330127 -1.148363 -4.330127 0 
C -4.330127 1.148363 -3.873878 2.249847 -3.061862 3.061862 
C -2.249847 3.873878 -1.148363 4.330127 0 4.330127 
z
" id="meac464cd03" style="stroke:#7bccc4;stroke-width:0.5;"/>
    </defs>
    <g clip-path="url(#p872e2cdc3f)">
     <use style="fill:#7bccc4;stroke:#7bccc4;stroke-width:0.5;" x="122.890783" xlink:href="#meac464cd03" y="245.025"/>
     <use style="fill:#7bccc4;stroke:#7bccc4;stroke-width:0.5;" x="116.562624" xlink:href="#meac464cd03" y="177.075"/>
     <use style="fill:#7bccc4;stroke:#7bccc4;stroke-width:0.5;" x="146.457081" xlink:href="#meac464cd03" y="109.125"/>
     <use style="fill:#7bccc4;stroke:#7bccc4;stroke-width:0.5;" x="148.556359" xlink:href="#meac464cd03" y="41.175"/>
    </g>
   </g>
   <g id="PathCollection_4">
    <defs>
     <path d="M 0 4.330127 
C 1.148363 4.330127 2.249847 3.873878 3.061862 3.061862 
C 3.873878 2.249847 4.330127 1.148363 4.330127 0 
C 4.330127 -1.148363 3.873878 -2.249847 3.061862 -3.061862 
C 2.249847 -3.873878 1.148363 -4.330127 0 -4.330127 
C -1.148363 -4.330127 -2.249847 -3.873878 -3.061862 -3.061862 
C -3.873878 -2.249847 -4.330127 -1.148363 -4.330127 0 
C -4.330127 1.148363 -3.873878 2.249847 -3.061862 3.061862 
C -2.249847 3.873878 -1.148363 4.330127 0 4.330127 
z
" id="m1585753165" style="stroke:#43a2ca;stroke-width:0.5;"/>
    </defs>
    <g clip-path="url(#p872e2cdc3f)">
     <use style="fill:#43a2ca;stroke:#43a2ca;stroke-width:0.5;" x="108.188821" xlink:href="#m1585753165" y="251.82"/>
     <use style="fill:#43a2ca;stroke:#43a2ca;stroke-width:0.5;" x="69.690685" xlink:href="#m1585753165" y="183.87"/>
     <use style="fill:#43a2ca;stroke:#43a2ca;stroke-width:0.5;" x="77.551066" xlink:href="#m1585753165" y="115.92"/>
     <use style="fill:#43a2ca;stroke:#43a2ca;stroke-width:0.5;" x="117.104781" xlink:href="#m1585753165" y="47.97"/>
    </g>
   </g>
   <g id="PathCollection_5">
    <defs>
     <path d="M 0 4.330127 
C 1.148363 4.330127 2.249847 3.873878 3.061862 3.061862 
C 3.873878 2.249847 4.330127 1.148363 4.330127 0 
C 4.330127 -1.148363 3.873878 -2.249847 3.061862 -3.061862 
C 2.249847 -3.873878 1.148363 -4.330127 0 -4.330127 
C -1.148363 -4.330127 -2.249847 -3.873878 -3.061862 -3.061862 
C -3.873878 -2.249847 -4.330127 -1.148363 -4.330127 0 
C -4.330127 1.148363 -3.873878 2.249847 -3.061862 3.061862 
C -2.249847 3.873878 -1.148363 4.330127 0 4.330127 
z
" id="mdddb15ba53" style="stroke:#2c7bb6;stroke-width:0.5;"/>
    </defs>
    <g clip-path="url(#p872e2cdc3f)">
     <use style="fill:#2c7bb6;stroke:#2c7bb6;stroke-width:0.5;" x="81.133938" xlink:href="#mdddb15ba53" y="258.615"/>
     <use style="fill:#2c7bb6;stroke:#2c7bb6;stroke-width:0.5;" x="13.629063" xlink:href="#mdddb15ba53" y="190.665"/>
     <use style="fill:#2c7bb6;stroke:#2c7bb6;stroke-width:0.5;" x="81.906942" xlink:href="#mdddb15ba53" y="122.715"/>
     <use style="fill:#2c7bb6;stroke:#2c7bb6;stroke-width:0.5;" x="75.410153" xlink:href="#mdddb15ba53" y="54.765"/>
    </g>
   </g>
   <g id="LineCollection_1">
    <path clip-path="url(#p872e2cdc3f)" d="M 143.373913 231.435 
L 213.725857 231.435 
" style="fill:none;stroke:#5e8066;stroke-width:4;"/>
    <path clip-path="url(#p872e2cdc3f)" d="M 143.373913 163.485 
L 313.319923 163.485 
" style="fill:none;stroke:#5e8066;stroke-width:4;"/>
    <path clip-path="url(#p872e2cdc3f)" d="M 143.373913 95.535 
L 177.354064 95.535 
" style="fill:none;stroke:#5e8066;stroke-width:4;"/>
    <path clip-path="url(#p872e2cdc3f)" d="M 143.373913 27.585 
L 166.515716 27.585 
" style="fill:none;stroke:#5e8066;stroke-width:4;"/>
   </g>
   <g id="LineCollection_2">
    <path clip-path="url(#p872e2cdc3f)" d="M 143.373913 238.23 
L 176.217393 238.23 
" style="fill:none;stroke:#8ebf99;stroke-width:4;"/>
    <path clip-path="url(#p872e2cdc3f)" d="M 143.373913 170.28 
L 177.617594 170.28 
" style="fill:none;stroke:#8ebf99;stroke-width:4;"/>
    <path clip-path="url(#p872e2cdc3f)" d="M 143.373913 102.33 
L 154.572815 102.33 
" style="fill:none;stroke:#8ebf99;stroke-width:4;"/>
    <path clip-path="url(#p872e2cdc3f)" d="M 143.373913 34.38 
L 142.061918 34.38 
" style="fill:none;stroke:#8ebf99;stroke-width:4;"/>
   </g>
   <g id="LineCollection_3">
    <path clip-path="url(#p872e2cdc3f)" d="M 143.373913 245.025 
L 122.890783 245.025 
" style="fill:none;stroke:#7bccc4;stroke-width:4;"/>
    <path clip-path="url(#p872e2cdc3f)" d="M 143.373913 177.075 
L 116.562624 177.075 
" style="fill:none;stroke:#7bccc4;stroke-width:4;"/>
    <path clip-path="url(#p872e2cdc3f)" d="M 143.373913 109.125 
L 146.457081 109.125 
" style="fill:none;stroke:#7bccc4;stroke-width:4;"/>
    <path clip-path="url(#p872e2cdc3f)" d="M 143.373913 41.175 
L 148.556359 41.175 
" style="fill:none;stroke:#7bccc4;stroke-width:4;"/>
   </g>
   <g id="LineCollection_4">
    <path clip-path="url(#p872e2cdc3f)" d="M 108.188821 251.82 
L 143.373913 251.82 
" style="fill:none;stroke:#43a2ca;stroke-width:4;"/>
    <path clip-path="url(#p872e2cdc3f)" d="M 69.690685 183.87 
L 143.373913 183.87 
" style="fill:none;stroke:#43a2ca;stroke-width:4;"/>
    <path clip-path="url(#p872e2cdc3f)" d="M 77.551066 115.92 
L 143.373913 115.92 
" style="fill:none;stroke:#43a2ca;stroke-width:4;"/>
    <path clip-path="url(#p872e2cdc3f)" d="M 117.104781 47.97 
L 143.373913 47.97 
" style="fill:none;stroke:#43a2ca;stroke-width:4;"/>
   </g>
   <g id="LineCollection_5">
    <path clip-path="url(#p872e2cdc3f)" d="M 81.133938 258.615 
L 143.373913 258.615 
" style="fill:none;stroke:#2c7bb6;stroke-width:4;"/>
    <path clip-path="url(#p872e2cdc3f)" d="M 13.629063 190.665 
L 143.373913 190.665 
" style="fill:none;stroke:#2c7bb6;stroke-width:4;"/>
    <path clip-path="url(#p872e2cdc3f)" d="M 81.906942 122.715 
L 143.373913 122.715 
" style="fill:none;stroke:#2c7bb6;stroke-width:4;"/>
    <path clip-path="url(#p872e2cdc3f)" d="M 75.410153 54.765 
L 143.373913 54.765 
" style="fill:none;stroke:#2c7bb6;stroke-width:4;"/>
   </g>
   <g id="patch_3">
    <path d="M 7.2 279 
L 7.2 7.2 
" style="fill:none;stroke:#ffffff;stroke-linecap:square;stroke-linejoin:miter;"/>
   </g>
   <g id="patch_4">
    <path d="M 320.4 279 
L 320.4 7.2 
" style="fill:none;stroke:#ffffff;stroke-linecap:square;stroke-linejoin:miter;"/>
   </g>
   <g id="patch_5">
    <path d="M 7.2 279 
L 320.4 279 
" style="fill:none;stroke:#ffffff;stroke-linecap:square;stroke-linejoin:miter;"/>
   </g>
   <g id="patch_6">
    <path d="M 7.2 7.2 
L 320.4 7.2 
" style="fill:none;stroke:#ffffff;stroke-linecap:square;stroke-linejoin:miter;"/>
   </g>
  </g>
 </g>
 <defs>
  <clipPath id="p872e2cdc3f">
   <rect height="271.8" width="313.2" x="7.2" y="7.2"/>
  </clipPath>
 </defs>
</svg>
