<?xml version="1.0" encoding="utf-8" standalone="no"?>
<!DOCTYPE svg PUBLIC "-//W3C//DTD SVG 1.1//EN"
  "http://www.w3.org/Graphics/SVG/1.1/DTD/svg11.dtd">
<!-- Created with matplotlib (https://matplotlib.org/) -->
<svg height="360.306561pt" version="1.1" viewBox="0 0 671.5825 360.306561" width="671.5825pt" xmlns="http://www.w3.org/2000/svg" xmlns:xlink="http://www.w3.org/1999/xlink">
 <defs>
  <style type="text/css">
*{stroke-linecap:butt;stroke-linejoin:round;white-space:pre;}
  </style>
 </defs>
 <g id="figure_1">
  <g id="patch_1">
   <path d="M 0 360.306561 
L 671.5825 360.306561 
L 671.5825 -0 
L 0 -0 
z
" style="fill:#f0f0f0;"/>
  </g>
  <g id="axes_1">
   <g id="patch_2">
    <path d="M 37.9825 325.516562 
L 664.3825 325.516562 
L 664.3825 33.916562 
L 37.9825 33.916562 
z
" style="fill:#f0f0f0;"/>
   </g>
   <g id="matplotlib.axis_1">
    <g id="xtick_1">
     <g id="line2d_1">
      <path clip-path="url(#p77e5df7499)" d="M 37.9825 325.516562 
L 37.9825 33.916562 
" style="fill:none;stroke:#cbcbcb;"/>
     </g>
     <g id="line2d_2"/>
     <g id="text_1">
      <!-- 2000 -->
      <defs>
       <path d="M 50.203125 0 
L 5.515625 0 
L 5.515625 4.296875 
L 24.515625 24.125 
Q 32.515625 32.421875 35.734375 36.8125 
Q 38.96875 41.21875 40.484375 45.21875 
Q 42 49.21875 42 53.609375 
Q 42 60.015625 37.796875 64.015625 
Q 33.59375 68.015625 26.90625 68.015625 
Q 17.96875 68.015625 9.8125 61.53125 
L 7.171875 64.890625 
Q 16.109375 72.40625 27 72.40625 
Q 36.328125 72.40625 41.671875 67.421875 
Q 47.015625 62.453125 47.015625 53.71875 
Q 47.015625 46.625 43.421875 40.015625 
Q 39.84375 33.40625 30.328125 23.6875 
L 12.015625 4.890625 
L 12.015625 4.6875 
L 50.203125 4.6875 
z
" id="OpenSans-Light-50"/>
       <path d="M 51.515625 35.890625 
Q 51.515625 17.09375 45.78125 8.046875 
Q 40.046875 -0.984375 28.421875 -0.984375 
Q 17.234375 -0.984375 11.421875 8.3125 
Q 5.609375 17.625 5.609375 35.890625 
Q 5.609375 54.546875 11.25 63.53125 
Q 16.890625 72.515625 28.421875 72.515625 
Q 39.703125 72.515625 45.609375 63.203125 
Q 51.515625 53.90625 51.515625 35.890625 
z
M 10.890625 35.890625 
Q 10.890625 19.28125 15.234375 11.34375 
Q 19.578125 3.421875 28.421875 3.421875 
Q 37.640625 3.421875 41.859375 11.625 
Q 46.09375 19.828125 46.09375 35.890625 
Q 46.09375 51.703125 41.859375 59.90625 
Q 37.640625 68.109375 28.421875 68.109375 
Q 19.1875 68.109375 15.03125 59.90625 
Q 10.890625 51.703125 10.890625 35.890625 
z
" id="OpenSans-Light-48"/>
      </defs>
      <g transform="translate(24.208281 349.945083)rotate(-20)scale(0.14 -0.14)">
       <use xlink:href="#OpenSans-Light-50"/>
       <use x="57.080078" xlink:href="#OpenSans-Light-48"/>
       <use x="114.160156" xlink:href="#OpenSans-Light-48"/>
       <use x="171.240234" xlink:href="#OpenSans-Light-48"/>
      </g>
     </g>
    </g>
    <g id="xtick_2">
     <g id="line2d_3">
      <path clip-path="url(#p77e5df7499)" d="M 111.676618 325.516562 
L 111.676618 33.916562 
" style="fill:none;stroke:#cbcbcb;"/>
     </g>
     <g id="line2d_4"/>
     <g id="text_2">
      <!-- '02 -->
      <defs>
       <path d="M 12.703125 71.390625 
L 11.078125 45.609375 
L 8.109375 45.609375 
L 6.5 71.390625 
z
" id="OpenSans-Light-39"/>
      </defs>
      <g transform="translate(104.149299 345.397711)rotate(-20)scale(0.14 -0.14)">
       <use xlink:href="#OpenSans-Light-39"/>
       <use x="19.189453" xlink:href="#OpenSans-Light-48"/>
       <use x="76.269531" xlink:href="#OpenSans-Light-50"/>
      </g>
     </g>
    </g>
    <g id="xtick_3">
     <g id="line2d_5">
      <path clip-path="url(#p77e5df7499)" d="M 185.370735 325.516562 
L 185.370735 33.916562 
" style="fill:none;stroke:#cbcbcb;"/>
     </g>
     <g id="line2d_6"/>
     <g id="text_3">
      <!-- '04 -->
      <defs>
       <path d="M 55.71875 18.21875 
L 43.40625 18.21875 
L 43.40625 0 
L 38.8125 0 
L 38.8125 18.21875 
L 2.09375 18.21875 
L 2.09375 21.484375 
L 37.5 71.78125 
L 43.40625 71.78125 
L 43.40625 22.40625 
L 55.71875 22.40625 
z
M 38.8125 22.40625 
L 38.8125 42.828125 
Q 38.8125 57.5625 39.5 67.578125 
L 39.109375 67.578125 
Q 38.140625 65.765625 33.109375 58.40625 
L 7.90625 22.40625 
z
" id="OpenSans-Light-52"/>
      </defs>
      <g transform="translate(177.843417 345.397711)rotate(-20)scale(0.14 -0.14)">
       <use xlink:href="#OpenSans-Light-39"/>
       <use x="19.189453" xlink:href="#OpenSans-Light-48"/>
       <use x="76.269531" xlink:href="#OpenSans-Light-52"/>
      </g>
     </g>
    </g>
    <g id="xtick_4">
     <g id="line2d_7">
      <path clip-path="url(#p77e5df7499)" d="M 259.064853 325.516562 
L 259.064853 33.916562 
" style="fill:none;stroke:#cbcbcb;"/>
     </g>
     <g id="line2d_8"/>
     <g id="text_4">
      <!-- '06 -->
      <defs>
       <path d="M 6.390625 30.421875 
Q 6.390625 44.34375 10.171875 53.828125 
Q 13.96875 63.328125 20.921875 67.921875 
Q 27.875 72.515625 37.703125 72.515625 
Q 42.28125 72.515625 46.09375 71.390625 
L 46.09375 67.09375 
Q 42.53125 68.40625 37.5 68.40625 
Q 25.4375 68.40625 18.71875 59.71875 
Q 12.015625 51.03125 11.1875 34.421875 
L 11.8125 34.421875 
Q 15.53125 39.203125 20.3125 41.640625 
Q 25.09375 44.09375 30.421875 44.09375 
Q 40.4375 44.09375 46.0625 38.375 
Q 51.703125 32.671875 51.703125 22.609375 
Q 51.703125 11.671875 45.765625 5.34375 
Q 39.84375 -0.984375 29.78125 -0.984375 
Q 18.953125 -0.984375 12.671875 7.296875 
Q 6.390625 15.578125 6.390625 30.421875 
z
M 29.78125 3.328125 
Q 37.796875 3.328125 42.234375 8.34375 
Q 46.6875 13.375 46.6875 22.703125 
Q 46.6875 30.90625 42.28125 35.5 
Q 37.890625 40.09375 30.328125 40.09375 
Q 25.34375 40.09375 21.0625 37.890625 
Q 16.796875 35.6875 14.25 32.046875 
Q 11.71875 28.421875 11.71875 24.609375 
Q 11.71875 19.1875 14.125 14.1875 
Q 16.546875 9.1875 20.671875 6.25 
Q 24.8125 3.328125 29.78125 3.328125 
z
" id="OpenSans-Light-54"/>
      </defs>
      <g transform="translate(251.537534 345.397711)rotate(-20)scale(0.14 -0.14)">
       <use xlink:href="#OpenSans-Light-39"/>
       <use x="19.189453" xlink:href="#OpenSans-Light-48"/>
       <use x="76.269531" xlink:href="#OpenSans-Light-54"/>
      </g>
     </g>
    </g>
    <g id="xtick_5">
     <g id="line2d_9">
      <path clip-path="url(#p77e5df7499)" d="M 332.758971 325.516562 
L 332.758971 33.916562 
" style="fill:none;stroke:#cbcbcb;"/>
     </g>
     <g id="line2d_10"/>
     <g id="text_5">
      <!-- '08 -->
      <defs>
       <path d="M 28.421875 72.609375 
Q 37.5 72.609375 43.03125 67.96875 
Q 48.578125 63.328125 48.578125 55.421875 
Q 48.578125 49.953125 45.140625 45.75 
Q 41.703125 41.546875 33.984375 37.984375 
Q 43.359375 34.125 47.171875 29.53125 
Q 50.984375 24.953125 50.984375 18.40625 
Q 50.984375 9.578125 44.796875 4.296875 
Q 38.625 -0.984375 28.21875 -0.984375 
Q 17.4375 -0.984375 11.671875 3.953125 
Q 5.90625 8.890625 5.90625 18.3125 
Q 5.90625 24.703125 9.953125 29.53125 
Q 14.015625 34.375 22.515625 37.796875 
Q 14.65625 41.5 11.421875 45.625 
Q 8.203125 49.75 8.203125 55.515625 
Q 8.203125 60.640625 10.78125 64.515625 
Q 13.375 68.40625 18.03125 70.5 
Q 22.703125 72.609375 28.421875 72.609375 
z
M 10.890625 17.578125 
Q 10.890625 10.84375 15.453125 7.125 
Q 20.015625 3.421875 28.21875 3.421875 
Q 36.234375 3.421875 41.109375 7.34375 
Q 46 11.28125 46 18.015625 
Q 46 24.078125 42.15625 27.859375 
Q 38.328125 31.640625 27.390625 35.796875 
Q 18.40625 32.328125 14.640625 28.125 
Q 10.890625 23.921875 10.890625 17.578125 
z
M 28.328125 68.21875 
Q 21.4375 68.21875 17.265625 64.8125 
Q 13.09375 61.421875 13.09375 55.515625 
Q 13.09375 52.09375 14.625 49.484375 
Q 16.15625 46.875 19.0625 44.75 
Q 21.96875 42.625 28.8125 39.796875 
Q 36.765625 42.875 40.234375 46.578125 
Q 43.703125 50.296875 43.703125 55.515625 
Q 43.703125 61.375 39.578125 64.796875 
Q 35.453125 68.21875 28.328125 68.21875 
z
" id="OpenSans-Light-56"/>
      </defs>
      <g transform="translate(325.231652 345.397711)rotate(-20)scale(0.14 -0.14)">
       <use xlink:href="#OpenSans-Light-39"/>
       <use x="19.189453" xlink:href="#OpenSans-Light-48"/>
       <use x="76.269531" xlink:href="#OpenSans-Light-56"/>
      </g>
     </g>
    </g>
    <g id="xtick_6">
     <g id="line2d_11">
      <path clip-path="url(#p77e5df7499)" d="M 406.453088 325.516562 
L 406.453088 33.916562 
" style="fill:none;stroke:#cbcbcb;"/>
     </g>
     <g id="line2d_12"/>
     <g id="text_6">
      <!-- '10 -->
      <defs>
       <path d="M 33.296875 0 
L 28.515625 0 
L 28.515625 52 
Q 28.515625 59.078125 29.109375 66.703125 
Q 28.375 65.96875 27.59375 65.28125 
Q 26.8125 64.59375 12.5 53.421875 
L 9.71875 56.890625 
L 29.109375 71.390625 
L 33.296875 71.390625 
z
" id="OpenSans-Light-49"/>
      </defs>
      <g transform="translate(398.92577 345.397711)rotate(-20)scale(0.14 -0.14)">
       <use xlink:href="#OpenSans-Light-39"/>
       <use x="19.189453" xlink:href="#OpenSans-Light-49"/>
       <use x="76.269531" xlink:href="#OpenSans-Light-48"/>
      </g>
     </g>
    </g>
    <g id="xtick_7">
     <g id="line2d_13">
      <path clip-path="url(#p77e5df7499)" d="M 480.147206 325.516562 
L 480.147206 33.916562 
" style="fill:none;stroke:#cbcbcb;"/>
     </g>
     <g id="line2d_14"/>
     <g id="text_7">
      <!-- '12 -->
      <g transform="translate(472.619887 345.397711)rotate(-20)scale(0.14 -0.14)">
       <use xlink:href="#OpenSans-Light-39"/>
       <use x="19.189453" xlink:href="#OpenSans-Light-49"/>
       <use x="76.269531" xlink:href="#OpenSans-Light-50"/>
      </g>
     </g>
    </g>
    <g id="xtick_8">
     <g id="line2d_15">
      <path clip-path="url(#p77e5df7499)" d="M 553.841324 325.516562 
L 553.841324 33.916562 
" style="fill:none;stroke:#cbcbcb;"/>
     </g>
     <g id="line2d_16"/>
     <g id="text_8">
      <!-- '14 -->
      <g transform="translate(546.314005 345.397711)rotate(-20)scale(0.14 -0.14)">
       <use xlink:href="#OpenSans-Light-39"/>
       <use x="19.189453" xlink:href="#OpenSans-Light-49"/>
       <use x="76.269531" xlink:href="#OpenSans-Light-52"/>
      </g>
     </g>
    </g>
    <g id="xtick_9">
     <g id="line2d_17">
      <path clip-path="url(#p77e5df7499)" d="M 627.535441 325.516562 
L 627.535441 33.916562 
" style="fill:none;stroke:#cbcbcb;"/>
     </g>
     <g id="line2d_18"/>
     <g id="text_9">
      <!-- '16 -->
      <g transform="translate(620.008123 345.397711)rotate(-20)scale(0.14 -0.14)">
       <use xlink:href="#OpenSans-Light-39"/>
       <use x="19.189453" xlink:href="#OpenSans-Light-49"/>
       <use x="76.269531" xlink:href="#OpenSans-Light-54"/>
      </g>
     </g>
    </g>
   </g>
   <g id="matplotlib.axis_2">
    <g id="ytick_1">
     <g id="line2d_19">
      <path clip-path="url(#p77e5df7499)" d="M 37.9825 311.630848 
L 664.3825 311.630848 
" style="fill:none;stroke:#cbcbcb;"/>
     </g>
     <g id="line2d_20"/>
     <g id="text_10">
      <!-- 0 -->
      <g transform="translate(26.491563 316.949754)scale(0.14 -0.14)">
       <use xlink:href="#OpenSans-Light-48"/>
      </g>
     </g>
    </g>
    <g id="ytick_2">
     <g id="line2d_21">
      <path clip-path="url(#p77e5df7499)" d="M 37.9825 256.087991 
L 664.3825 256.087991 
" style="fill:none;stroke:#cbcbcb;"/>
     </g>
     <g id="line2d_22"/>
     <g id="text_11">
      <!-- 20 -->
      <g transform="translate(18.500625 261.406897)scale(0.14 -0.14)">
       <use xlink:href="#OpenSans-Light-50"/>
       <use x="57.080078" xlink:href="#OpenSans-Light-48"/>
      </g>
     </g>
    </g>
    <g id="ytick_3">
     <g id="line2d_23">
      <path clip-path="url(#p77e5df7499)" d="M 37.9825 200.545134 
L 664.3825 200.545134 
" style="fill:none;stroke:#cbcbcb;"/>
     </g>
     <g id="line2d_24"/>
     <g id="text_12">
      <!-- 40 -->
      <g transform="translate(18.500625 205.86404)scale(0.14 -0.14)">
       <use xlink:href="#OpenSans-Light-52"/>
       <use x="57.080078" xlink:href="#OpenSans-Light-48"/>
      </g>
     </g>
    </g>
    <g id="ytick_4">
     <g id="line2d_25">
      <path clip-path="url(#p77e5df7499)" d="M 37.9825 145.002277 
L 664.3825 145.002277 
" style="fill:none;stroke:#cbcbcb;"/>
     </g>
     <g id="line2d_26"/>
     <g id="text_13">
      <!-- 60 -->
      <g transform="translate(18.500625 150.321183)scale(0.14 -0.14)">
       <use xlink:href="#OpenSans-Light-54"/>
       <use x="57.080078" xlink:href="#OpenSans-Light-48"/>
      </g>
     </g>
    </g>
    <g id="ytick_5">
     <g id="line2d_27">
      <path clip-path="url(#p77e5df7499)" d="M 37.9825 89.45942 
L 664.3825 89.45942 
" style="fill:none;stroke:#cbcbcb;"/>
     </g>
     <g id="line2d_28"/>
     <g id="text_14">
      <!-- 80% -->
      <defs>
       <path d="M 10.296875 50.09375 
Q 10.296875 41.015625 12.5 36.453125 
Q 14.703125 31.890625 19.390625 31.890625 
Q 28.8125 31.890625 28.8125 50.09375 
Q 28.8125 59.078125 26.390625 63.59375 
Q 23.96875 68.109375 19.390625 68.109375 
Q 14.703125 68.109375 12.5 63.59375 
Q 10.296875 59.078125 10.296875 50.09375 
z
M 33.59375 50.09375 
Q 33.59375 39.0625 29.921875 33.328125 
Q 26.265625 27.59375 19.390625 27.59375 
Q 12.890625 27.59375 9.203125 33.46875 
Q 5.515625 39.359375 5.515625 50.09375 
Q 5.515625 60.984375 9.03125 66.6875 
Q 12.546875 72.40625 19.390625 72.40625 
Q 26.171875 72.40625 29.875 66.515625 
Q 33.59375 60.640625 33.59375 50.09375 
z
M 51.90625 21.390625 
Q 51.90625 12.359375 54.09375 7.84375 
Q 56.296875 3.328125 60.984375 3.328125 
Q 70.40625 3.328125 70.40625 21.390625 
Q 70.40625 39.40625 60.984375 39.40625 
Q 56.296875 39.40625 54.09375 34.9375 
Q 51.90625 30.46875 51.90625 21.390625 
z
M 75.203125 21.390625 
Q 75.203125 10.359375 71.578125 4.609375 
Q 67.96875 -1.125 61.078125 -1.125 
Q 54.4375 -1.125 50.78125 4.8125 
Q 47.125 10.75 47.125 21.390625 
Q 47.125 32.375 50.703125 38.03125 
Q 54.296875 43.703125 61.078125 43.703125 
Q 67.78125 43.703125 71.484375 37.84375 
Q 75.203125 31.984375 75.203125 21.390625 
z
M 62.5 71.390625 
L 22.90625 0 
L 18.21875 0 
L 57.8125 71.390625 
z
" id="OpenSans-Light-37"/>
      </defs>
      <g transform="translate(7.2 94.778326)scale(0.14 -0.14)">
       <use xlink:href="#OpenSans-Light-56"/>
       <use x="57.080078" xlink:href="#OpenSans-Light-48"/>
       <use x="114.160156" xlink:href="#OpenSans-Light-37"/>
      </g>
     </g>
    </g>
    <g id="ytick_6">
     <g id="line2d_29">
      <path clip-path="url(#p77e5df7499)" d="M 37.9825 33.916562 
L 664.3825 33.916562 
" style="fill:none;stroke:#cbcbcb;"/>
     </g>
     <g id="line2d_30"/>
    </g>
   </g>
   <g id="LineCollection_1">
    <path clip-path="url(#p77e5df7499)" d="M -1 243.929356 
L 332.758971 243.929356 
" style="fill:none;stroke:#5580b6;stroke-opacity:0.5;stroke-width:4;"/>
   </g>
   <g id="LineCollection_2">
    <path clip-path="url(#p77e5df7499)" d="M 332.758971 210.275269 
L 664.3825 210.275269 
" style="fill:none;stroke:#5580b6;stroke-opacity:0.5;stroke-width:4;"/>
   </g>
   <g id="line2d_31">
    <path clip-path="url(#p77e5df7499)" d="M 37.9825 276.916562 
L 74.829559 203.254542 
L 111.676618 294.799679 
L 148.523676 261.137342 
L 185.370735 249.916562 
L 222.217794 192.61044 
L 259.064853 311.630848 
L 295.911912 276.916562 
L 332.758971 172.773705 
L 369.606029 261.137342 
L 406.453088 246.28631 
L 443.300147 89.45942 
L 480.147206 269.973705 
L 516.994265 256.087991 
L 553.841324 244.596365 
L 590.688382 187.390247 
L 627.535441 155.416562 
L 664.3825 230.452826 
" style="fill:none;stroke:#b2584c;stroke-width:4;"/>
   </g>
   <g id="patch_3">
    <path d="M 37.9825 325.516562 
L 37.9825 33.916562 
" style="fill:none;stroke:#f0f0f0;stroke-linecap:square;stroke-linejoin:miter;stroke-width:3;"/>
   </g>
   <g id="patch_4">
    <path d="M 664.3825 325.516562 
L 664.3825 33.916562 
" style="fill:none;stroke:#f0f0f0;stroke-linecap:square;stroke-linejoin:miter;stroke-width:3;"/>
   </g>
   <g id="patch_5">
    <path d="M 37.9825 325.516562 
L 664.3825 325.516562 
" style="fill:none;stroke:#f0f0f0;stroke-linecap:square;stroke-linejoin:miter;stroke-width:3;"/>
   </g>
   <g id="patch_6">
    <path d="M 37.9825 33.916562 
L 664.3825 33.916562 
" style="fill:none;stroke:#f0f0f0;stroke-linecap:square;stroke-linejoin:miter;stroke-width:3;"/>
   </g>
   <g id="text_15">
    <g id="patch_7">
     <path d="M 67.084853 71.889509 
L 374.004228 71.889509 
L 374.004228 33.637571 
L 67.084853 33.637571 
z
" style="fill:#f0f0f0;stroke:#f0f0f0;stroke-linejoin:miter;stroke-width:0.5;"/>
    </g>
    <!-- Unknowns have shot up and down throughout -->
    <defs>
     <path d="M 62.59375 71.390625 
L 62.59375 25.203125 
Q 62.59375 12.890625 55.46875 5.953125 
Q 48.34375 -0.984375 35.59375 -0.984375 
Q 23.1875 -0.984375 16.234375 5.96875 
Q 9.28125 12.9375 9.28125 25.390625 
L 9.28125 71.390625 
L 14.3125 71.390625 
L 14.3125 25.203125 
Q 14.3125 14.890625 20.015625 9.15625 
Q 25.734375 3.421875 36.1875 3.421875 
Q 46.390625 3.421875 52 9.0625 
Q 57.625 14.703125 57.625 24.703125 
L 57.625 71.390625 
z
" id="OpenSans-Light-85"/>
     <path d="M 45.90625 0 
L 45.90625 34.421875 
Q 45.90625 42.4375 42.53125 46.0625 
Q 39.15625 49.703125 32.078125 49.703125 
Q 22.5625 49.703125 18.140625 44.890625 
Q 13.71875 40.09375 13.71875 29.296875 
L 13.71875 0 
L 8.890625 0 
L 8.890625 53.078125 
L 12.984375 53.078125 
L 13.921875 45.796875 
L 14.203125 45.796875 
Q 19.390625 54.109375 32.625 54.109375 
Q 50.6875 54.109375 50.6875 34.71875 
L 50.6875 0 
z
" id="OpenSans-Light-110"/>
     <path d="M 13.625 23.296875 
L 40.71875 53.078125 
L 46.578125 53.078125 
L 25.6875 30.421875 
L 48.390625 0 
L 42.578125 0 
L 22.40625 26.8125 
L 13.71875 18.890625 
L 13.71875 0 
L 8.890625 0 
L 8.890625 75.984375 
L 13.71875 75.984375 
L 13.71875 37.890625 
L 13.375 23.296875 
z
" id="OpenSans-Light-107"/>
     <path d="M 52.78125 26.609375 
Q 52.78125 13.625 46.484375 6.3125 
Q 40.1875 -0.984375 29.109375 -0.984375 
Q 22.125 -0.984375 16.796875 2.390625 
Q 11.46875 5.765625 8.640625 12.0625 
Q 5.8125 18.359375 5.8125 26.609375 
Q 5.8125 39.59375 12.109375 46.84375 
Q 18.40625 54.109375 29.390625 54.109375 
Q 40.328125 54.109375 46.546875 46.75 
Q 52.78125 39.40625 52.78125 26.609375 
z
M 10.890625 26.609375 
Q 10.890625 15.671875 15.703125 9.546875 
Q 20.515625 3.421875 29.296875 3.421875 
Q 38.09375 3.421875 42.890625 9.546875 
Q 47.703125 15.671875 47.703125 26.609375 
Q 47.703125 37.59375 42.84375 43.640625 
Q 37.984375 49.703125 29.203125 49.703125 
Q 20.40625 49.703125 15.640625 43.671875 
Q 10.890625 37.640625 10.890625 26.609375 
z
" id="OpenSans-Light-111"/>
     <path d="M 51.3125 0 
L 39.703125 35.5 
Q 38.578125 39.109375 36.8125 46.09375 
L 36.53125 46.09375 
L 35.5 42.484375 
L 33.296875 35.40625 
L 21.484375 0 
L 16.703125 0 
L 1.515625 53.078125 
L 6.6875 53.078125 
L 15.1875 22.3125 
Q 18.171875 10.890625 19.09375 5.515625 
L 19.390625 5.515625 
Q 22.265625 16.9375 23.578125 20.703125 
L 34.515625 53.078125 
L 38.921875 53.078125 
L 49.3125 20.796875 
Q 52.828125 9.328125 53.609375 5.609375 
L 53.90625 5.609375 
Q 54.296875 8.796875 57.8125 22.609375 
L 65.921875 53.078125 
L 70.796875 53.078125 
L 56.390625 0 
z
" id="OpenSans-Light-119"/>
     <path d="M 41.796875 13.8125 
Q 41.796875 6.6875 36.375 2.84375 
Q 30.953125 -0.984375 21 -0.984375 
Q 10.359375 -0.984375 4.109375 2.296875 
L 4.109375 7.515625 
Q 12.109375 3.515625 21 3.515625 
Q 28.859375 3.515625 32.9375 6.125 
Q 37.015625 8.734375 37.015625 13.09375 
Q 37.015625 17.09375 33.765625 19.828125 
Q 30.515625 22.5625 23.09375 25.203125 
Q 15.140625 28.078125 11.90625 30.15625 
Q 8.6875 32.234375 7.046875 34.84375 
Q 5.421875 37.453125 5.421875 41.21875 
Q 5.421875 47.171875 10.421875 50.640625 
Q 15.4375 54.109375 24.421875 54.109375 
Q 33.015625 54.109375 40.71875 50.875 
L 38.921875 46.484375 
Q 31.109375 49.703125 24.421875 49.703125 
Q 17.921875 49.703125 14.109375 47.546875 
Q 10.296875 45.40625 10.296875 41.609375 
Q 10.296875 37.453125 13.25 34.953125 
Q 16.21875 32.46875 24.8125 29.390625 
Q 31.984375 26.8125 35.25 24.734375 
Q 38.53125 22.65625 40.15625 20.015625 
Q 41.796875 17.390625 41.796875 13.8125 
z
" id="OpenSans-Light-115"/>
     <path id="OpenSans-Light-32"/>
     <path d="M 45.90625 0 
L 45.90625 34.421875 
Q 45.90625 42.4375 42.53125 46.0625 
Q 39.15625 49.703125 32.078125 49.703125 
Q 22.5625 49.703125 18.140625 44.890625 
Q 13.71875 40.09375 13.71875 29.296875 
L 13.71875 0 
L 8.890625 0 
L 8.890625 75.984375 
L 13.71875 75.984375 
L 13.71875 51.8125 
L 13.484375 45.015625 
L 13.8125 45.015625 
Q 16.796875 49.8125 21.328125 51.953125 
Q 25.875 54.109375 32.625 54.109375 
Q 50.6875 54.109375 50.6875 34.71875 
L 50.6875 0 
z
" id="OpenSans-Light-104"/>
     <path d="M 41.109375 0 
L 39.890625 8.40625 
L 39.5 8.40625 
Q 35.5 3.265625 31.265625 1.140625 
Q 27.046875 -0.984375 21.296875 -0.984375 
Q 13.484375 -0.984375 9.125 3.015625 
Q 4.78125 7.03125 4.78125 14.109375 
Q 4.78125 21.875 11.25 26.171875 
Q 17.71875 30.46875 29.984375 30.71875 
L 40.09375 31 
L 40.09375 34.515625 
Q 40.09375 42.09375 37.015625 45.953125 
Q 33.9375 49.8125 27.09375 49.8125 
Q 19.734375 49.8125 11.8125 45.703125 
L 10.015625 49.90625 
Q 18.75 54 27.296875 54 
Q 36.03125 54 40.34375 49.453125 
Q 44.671875 44.921875 44.671875 35.296875 
L 44.671875 0 
z
M 21.578125 3.421875 
Q 30.078125 3.421875 34.984375 8.28125 
Q 39.890625 13.140625 39.890625 21.78125 
L 39.890625 27 
L 30.609375 26.609375 
Q 19.4375 26.078125 14.671875 23.125 
Q 9.90625 20.171875 9.90625 13.921875 
Q 9.90625 8.9375 12.953125 6.171875 
Q 16.015625 3.421875 21.578125 3.421875 
z
" id="OpenSans-Light-97"/>
     <path d="M 20.515625 0 
L 0 53.078125 
L 4.984375 53.078125 
L 18.703125 17 
Q 21.4375 10.0625 22.796875 4.890625 
L 23.09375 4.890625 
Q 25.09375 11.53125 27.203125 17.09375 
L 40.921875 53.078125 
L 45.90625 53.078125 
L 25.390625 0 
z
" id="OpenSans-Light-118"/>
     <path d="M 30.328125 -0.984375 
Q 18.75 -0.984375 12.28125 6.140625 
Q 5.8125 13.28125 5.8125 26.125 
Q 5.8125 38.8125 12.0625 46.453125 
Q 18.3125 54.109375 28.90625 54.109375 
Q 38.28125 54.109375 43.703125 47.5625 
Q 49.125 41.015625 49.125 29.78125 
L 49.125 25.875 
L 10.890625 25.875 
Q 10.984375 14.9375 15.984375 9.171875 
Q 21 3.421875 30.328125 3.421875 
Q 34.859375 3.421875 38.296875 4.046875 
Q 41.75 4.6875 47.015625 6.78125 
L 47.015625 2.390625 
Q 42.53125 0.4375 38.71875 -0.265625 
Q 34.90625 -0.984375 30.328125 -0.984375 
z
M 28.90625 49.8125 
Q 21.234375 49.8125 16.59375 44.75 
Q 11.96875 39.703125 11.1875 30.171875 
L 44 30.171875 
Q 44 39.40625 39.984375 44.609375 
Q 35.984375 49.8125 28.90625 49.8125 
z
" id="OpenSans-Light-101"/>
     <path d="M 22.90625 3.328125 
Q 27.484375 3.328125 30.90625 4.109375 
L 30.90625 0.203125 
Q 27.390625 -0.984375 22.796875 -0.984375 
Q 15.765625 -0.984375 12.421875 2.78125 
Q 9.078125 6.546875 9.078125 14.59375 
L 9.078125 48.875 
L 1.21875 48.875 
L 1.21875 51.703125 
L 9.078125 53.90625 
L 11.53125 65.921875 
L 14.015625 65.921875 
L 14.015625 53.078125 
L 29.59375 53.078125 
L 29.59375 48.875 
L 14.015625 48.875 
L 14.015625 15.28125 
Q 14.015625 9.1875 16.15625 6.25 
Q 18.3125 3.328125 22.90625 3.328125 
z
" id="OpenSans-Light-116"/>
     <path d="M 13.09375 53.078125 
L 13.09375 18.703125 
Q 13.09375 10.6875 16.453125 7.046875 
Q 19.828125 3.421875 26.90625 3.421875 
Q 36.375 3.421875 40.84375 8.203125 
Q 45.3125 12.984375 45.3125 23.78125 
L 45.3125 53.078125 
L 50.09375 53.078125 
L 50.09375 0 
L 46 0 
L 45.125 7.328125 
L 44.828125 7.328125 
Q 39.65625 -0.984375 26.421875 -0.984375 
Q 8.296875 -0.984375 8.296875 18.40625 
L 8.296875 53.078125 
z
" id="OpenSans-Light-117"/>
     <path d="M 31.59375 -0.984375 
Q 19.34375 -0.984375 13.71875 8.203125 
L 13.375 8.203125 
L 13.53125 4.109375 
Q 13.71875 0.484375 13.71875 -3.8125 
L 13.71875 -24.03125 
L 8.890625 -24.03125 
L 8.890625 53.078125 
L 12.984375 53.078125 
L 13.921875 45.515625 
L 14.203125 45.515625 
Q 19.671875 54.109375 31.6875 54.109375 
Q 42.4375 54.109375 48.078125 47.046875 
Q 53.71875 39.984375 53.71875 26.515625 
Q 53.71875 13.421875 47.78125 6.21875 
Q 41.84375 -0.984375 31.59375 -0.984375 
z
M 31.5 3.328125 
Q 39.65625 3.328125 44.109375 9.375 
Q 48.578125 15.4375 48.578125 26.3125 
Q 48.578125 49.703125 31.6875 49.703125 
Q 22.40625 49.703125 18.0625 44.59375 
Q 13.71875 39.5 13.71875 27.984375 
L 13.71875 26.421875 
Q 13.71875 13.96875 17.890625 8.640625 
Q 22.078125 3.328125 31.5 3.328125 
z
" id="OpenSans-Light-112"/>
     <path d="M 28.328125 54.109375 
Q 34.078125 54.109375 38.28125 52 
Q 42.484375 49.90625 45.796875 44.828125 
L 46.09375 44.828125 
Q 45.796875 50.984375 45.796875 56.890625 
L 45.796875 75.984375 
L 50.59375 75.984375 
L 50.59375 0 
L 47.40625 0 
L 46.1875 8.109375 
L 45.796875 8.109375 
Q 39.75 -0.984375 28.421875 -0.984375 
Q 17.4375 -0.984375 11.625 5.859375 
Q 5.8125 12.703125 5.8125 25.78125 
Q 5.8125 39.546875 11.5625 46.828125 
Q 17.328125 54.109375 28.328125 54.109375 
z
M 28.328125 49.703125 
Q 19.625 49.703125 15.25 43.59375 
Q 10.890625 37.5 10.890625 25.875 
Q 10.890625 3.328125 28.421875 3.328125 
Q 37.40625 3.328125 41.59375 8.546875 
Q 45.796875 13.765625 45.796875 25.78125 
L 45.796875 26.609375 
Q 45.796875 38.921875 41.671875 44.3125 
Q 37.546875 49.703125 28.328125 49.703125 
z
" id="OpenSans-Light-100"/>
     <path d="M 29.78125 54.109375 
Q 33.15625 54.109375 37.015625 53.421875 
L 36.078125 48.78125 
Q 32.765625 49.609375 29.203125 49.609375 
Q 22.40625 49.609375 18.0625 43.84375 
Q 13.71875 38.09375 13.71875 29.296875 
L 13.71875 0 
L 8.890625 0 
L 8.890625 53.078125 
L 12.984375 53.078125 
L 13.484375 43.5 
L 13.8125 43.5 
Q 17.09375 49.359375 20.796875 51.734375 
Q 24.515625 54.109375 29.78125 54.109375 
z
" id="OpenSans-Light-114"/>
     <path d="M 50.296875 53.078125 
L 50.296875 49.703125 
L 39.3125 49.03125 
Q 43.703125 43.5625 43.703125 37.015625 
Q 43.703125 29.34375 38.59375 24.578125 
Q 33.5 19.828125 24.90625 19.828125 
Q 21.296875 19.828125 19.828125 20.125 
Q 16.9375 18.609375 15.421875 16.546875 
Q 13.921875 14.5 13.921875 12.203125 
Q 13.921875 9.671875 15.84375 8.5 
Q 17.78125 7.328125 22.3125 7.328125 
L 31.59375 7.328125 
Q 40.234375 7.328125 44.828125 3.828125 
Q 49.421875 0.34375 49.421875 -6.5 
Q 49.421875 -14.890625 42.609375 -19.453125 
Q 35.796875 -24.03125 23.1875 -24.03125 
Q 13.1875 -24.03125 7.6875 -20.171875 
Q 2.203125 -16.3125 2.203125 -9.421875 
Q 2.203125 -3.953125 5.59375 -0.34375 
Q 8.984375 3.265625 14.796875 4.59375 
Q 12.40625 5.609375 10.953125 7.484375 
Q 9.515625 9.375 9.515625 11.8125 
Q 9.515625 17.140625 16.3125 21.1875 
Q 11.671875 23.09375 9.078125 27.171875 
Q 6.5 31.25 6.5 36.53125 
Q 6.5 44.484375 11.546875 49.296875 
Q 16.609375 54.109375 25.203125 54.109375 
Q 30.421875 54.109375 33.296875 53.078125 
z
M 7.328125 -8.984375 
Q 7.328125 -19.921875 23.578125 -19.921875 
Q 44.484375 -19.921875 44.484375 -6.59375 
Q 44.484375 -1.8125 41.203125 0.328125 
Q 37.9375 2.484375 30.609375 2.484375 
L 21.921875 2.484375 
Q 7.328125 2.484375 7.328125 -8.984375 
z
M 11.375 36.53125 
Q 11.375 30.375 15.109375 26.96875 
Q 18.84375 23.578125 25.09375 23.578125 
Q 31.734375 23.578125 35.265625 26.953125 
Q 38.8125 30.328125 38.8125 36.71875 
Q 38.8125 43.5 35.171875 46.890625 
Q 31.546875 50.296875 25 50.296875 
Q 18.65625 50.296875 15.015625 46.65625 
Q 11.375 43.015625 11.375 36.53125 
z
" id="OpenSans-Light-103"/>
    </defs>
    <g transform="translate(71.144853 48.335384)scale(0.14 -0.14)">
     <use xlink:href="#OpenSans-Light-85"/>
     <use x="71.923828" xlink:href="#OpenSans-Light-110"/>
     <use x="130.908203" xlink:href="#OpenSans-Light-107"/>
     <use x="179.296875" xlink:href="#OpenSans-Light-110"/>
     <use x="238.28125" xlink:href="#OpenSans-Light-111"/>
     <use x="296.875" xlink:href="#OpenSans-Light-119"/>
     <use x="369.189453" xlink:href="#OpenSans-Light-110"/>
     <use x="428.173828" xlink:href="#OpenSans-Light-115"/>
     <use x="474.755859" xlink:href="#OpenSans-Light-32"/>
     <use x="500.732422" xlink:href="#OpenSans-Light-104"/>
     <use x="559.716797" xlink:href="#OpenSans-Light-97"/>
     <use x="612.695312" xlink:href="#OpenSans-Light-118"/>
     <use x="658.59375" xlink:href="#OpenSans-Light-101"/>
     <use x="713.476562" xlink:href="#OpenSans-Light-32"/>
     <use x="739.453125" xlink:href="#OpenSans-Light-115"/>
     <use x="786.035156" xlink:href="#OpenSans-Light-104"/>
     <use x="845.019531" xlink:href="#OpenSans-Light-111"/>
     <use x="903.613281" xlink:href="#OpenSans-Light-116"/>
     <use x="937.109375" xlink:href="#OpenSans-Light-32"/>
     <use x="963.085938" xlink:href="#OpenSans-Light-117"/>
     <use x="1022.070312" xlink:href="#OpenSans-Light-112"/>
     <use x="1081.591797" xlink:href="#OpenSans-Light-32"/>
     <use x="1107.568359" xlink:href="#OpenSans-Light-97"/>
     <use x="1160.546875" xlink:href="#OpenSans-Light-110"/>
     <use x="1219.53125" xlink:href="#OpenSans-Light-100"/>
     <use x="1279.052734" xlink:href="#OpenSans-Light-32"/>
     <use x="1305.029297" xlink:href="#OpenSans-Light-100"/>
     <use x="1364.550781" xlink:href="#OpenSans-Light-111"/>
     <use x="1423.144531" xlink:href="#OpenSans-Light-119"/>
     <use x="1495.458984" xlink:href="#OpenSans-Light-110"/>
     <use x="1554.443359" xlink:href="#OpenSans-Light-32"/>
     <use x="1580.419922" xlink:href="#OpenSans-Light-116"/>
     <use x="1613.916016" xlink:href="#OpenSans-Light-104"/>
     <use x="1672.900391" xlink:href="#OpenSans-Light-114"/>
     <use x="1711.816406" xlink:href="#OpenSans-Light-111"/>
     <use x="1770.410156" xlink:href="#OpenSans-Light-117"/>
     <use x="1829.394531" xlink:href="#OpenSans-Light-103"/>
     <use x="1881.689453" xlink:href="#OpenSans-Light-104"/>
     <use x="1940.673828" xlink:href="#OpenSans-Light-111"/>
     <use x="1999.267578" xlink:href="#OpenSans-Light-117"/>
     <use x="2058.251953" xlink:href="#OpenSans-Light-116"/>
    </g>
    <!-- the year, but the 9-year average is up over 10%. -->
    <defs>
     <path d="M 0 53.078125 
L 4.984375 53.078125 
L 16.21875 23.296875 
Q 21.34375 9.578125 22.703125 4.78125 
L 23 4.78125 
Q 25.046875 11.078125 29.6875 23.578125 
L 40.921875 53.078125 
L 45.90625 53.078125 
L 22.125 -8.59375 
Q 19.234375 -16.109375 17.28125 -18.75 
Q 15.328125 -21.390625 12.71875 -22.703125 
Q 10.109375 -24.03125 6.390625 -24.03125 
Q 3.609375 -24.03125 0.203125 -23 
L 0.203125 -18.796875 
Q 3.03125 -19.578125 6.296875 -19.578125 
Q 8.796875 -19.578125 10.6875 -18.40625 
Q 12.59375 -17.234375 14.125 -14.765625 
Q 15.671875 -12.3125 17.703125 -6.953125 
Q 19.734375 -1.609375 20.3125 0 
z
" id="OpenSans-Light-121"/>
     <path d="M 14.40625 11.625 
L 14.984375 10.59375 
Q 11.328125 -2.34375 6.5 -12.890625 
L 3.328125 -12.890625 
Q 7.078125 0.53125 8.6875 11.625 
z
" id="OpenSans-Light-44"/>
     <path d="M 31.296875 54.109375 
Q 42.4375 54.109375 48.078125 47.09375 
Q 53.71875 40.09375 53.71875 26.609375 
Q 53.71875 13.375 47.78125 6.1875 
Q 41.84375 -0.984375 31.109375 -0.984375 
Q 25.4375 -0.984375 20.890625 1.359375 
Q 16.359375 3.71875 13.71875 8.015625 
L 13.28125 8.015625 
L 11.921875 0 
L 8.890625 0 
L 8.890625 75.984375 
L 13.71875 75.984375 
L 13.71875 56.890625 
Q 13.71875 52.59375 13.53125 48.96875 
L 13.375 44.828125 
L 13.71875 44.828125 
Q 16.75 49.609375 21.015625 51.859375 
Q 25.296875 54.109375 31.296875 54.109375 
z
M 31.203125 49.703125 
Q 21.828125 49.703125 17.765625 44.328125 
Q 13.71875 38.96875 13.71875 26.609375 
L 13.71875 25.78125 
Q 13.71875 13.765625 17.9375 8.546875 
Q 22.171875 3.328125 31.109375 3.328125 
Q 39.796875 3.328125 44.1875 9.40625 
Q 48.578125 15.484375 48.578125 26.703125 
Q 48.578125 49.703125 31.203125 49.703125 
z
" id="OpenSans-Light-98"/>
     <path d="M 50.59375 41.109375 
Q 50.59375 27.046875 46.90625 17.578125 
Q 43.21875 8.109375 36.15625 3.5625 
Q 29.109375 -0.984375 19.09375 -0.984375 
Q 14.015625 -0.984375 9.71875 0.296875 
L 9.71875 4.5 
Q 11.8125 3.8125 14.765625 3.4375 
Q 17.71875 3.078125 19.28125 3.078125 
Q 31.34375 3.078125 38.171875 11.796875 
Q 45.015625 20.515625 45.796875 37.203125 
L 45.21875 37.203125 
Q 41.65625 32.515625 36.71875 30 
Q 31.78125 27.484375 26.421875 27.484375 
Q 16.5 27.484375 10.953125 32.953125 
Q 5.421875 38.421875 5.421875 48.484375 
Q 5.421875 59.234375 11.5 65.875 
Q 17.578125 72.515625 27.296875 72.515625 
Q 34.328125 72.515625 39.59375 68.828125 
Q 44.875 65.140625 47.734375 58 
Q 50.59375 50.875 50.59375 41.109375 
z
M 27.296875 68.21875 
Q 19.578125 68.21875 14.984375 63.015625 
Q 10.40625 57.8125 10.40625 48.78125 
Q 10.40625 40.28125 14.640625 35.890625 
Q 18.890625 31.5 26.8125 31.5 
Q 31.734375 31.5 36 33.6875 
Q 40.28125 35.890625 42.796875 39.53125 
Q 45.3125 43.171875 45.3125 46.921875 
Q 45.3125 52.640625 43.03125 57.609375 
Q 40.765625 62.59375 36.6875 65.40625 
Q 32.625 68.21875 27.296875 68.21875 
z
" id="OpenSans-Light-57"/>
     <path d="M 4.5 25 
L 4.5 29 
L 27.6875 29 
L 27.6875 25 
z
" id="OpenSans-Light-45"/>
     <path d="M 13.71875 0 
L 8.890625 0 
L 8.890625 53.078125 
L 13.71875 53.078125 
z
M 8.203125 67.828125 
Q 8.203125 72.515625 11.28125 72.515625 
Q 12.796875 72.515625 13.640625 71.28125 
Q 14.5 70.0625 14.5 67.828125 
Q 14.5 65.625 13.640625 64.359375 
Q 12.796875 63.09375 11.28125 63.09375 
Q 8.203125 63.09375 8.203125 67.828125 
z
" id="OpenSans-Light-105"/>
     <path d="M 7.90625 3.8125 
Q 7.90625 8.59375 11.8125 8.59375 
Q 15.828125 8.59375 15.828125 3.8125 
Q 15.828125 -0.984375 11.8125 -0.984375 
Q 7.90625 -0.984375 7.90625 3.8125 
z
" id="OpenSans-Light-46"/>
    </defs>
    <g transform="translate(71.144853 64.465134)scale(0.14 -0.14)">
     <use xlink:href="#OpenSans-Light-116"/>
     <use x="33.496094" xlink:href="#OpenSans-Light-104"/>
     <use x="92.480469" xlink:href="#OpenSans-Light-101"/>
     <use x="147.363281" xlink:href="#OpenSans-Light-32"/>
     <use x="173.339844" xlink:href="#OpenSans-Light-121"/>
     <use x="219.238281" xlink:href="#OpenSans-Light-101"/>
     <use x="274.121094" xlink:href="#OpenSans-Light-97"/>
     <use x="327.099609" xlink:href="#OpenSans-Light-114"/>
     <use x="366.015625" xlink:href="#OpenSans-Light-44"/>
     <use x="387.5" xlink:href="#OpenSans-Light-32"/>
     <use x="413.476562" xlink:href="#OpenSans-Light-98"/>
     <use x="472.998047" xlink:href="#OpenSans-Light-117"/>
     <use x="531.982422" xlink:href="#OpenSans-Light-116"/>
     <use x="565.478516" xlink:href="#OpenSans-Light-32"/>
     <use x="591.455078" xlink:href="#OpenSans-Light-116"/>
     <use x="624.951172" xlink:href="#OpenSans-Light-104"/>
     <use x="683.935547" xlink:href="#OpenSans-Light-101"/>
     <use x="738.818359" xlink:href="#OpenSans-Light-32"/>
     <use x="764.794922" xlink:href="#OpenSans-Light-57"/>
     <use x="821.875" xlink:href="#OpenSans-Light-45"/>
     <use x="854.052734" xlink:href="#OpenSans-Light-121"/>
     <use x="899.951172" xlink:href="#OpenSans-Light-101"/>
     <use x="954.833984" xlink:href="#OpenSans-Light-97"/>
     <use x="1007.8125" xlink:href="#OpenSans-Light-114"/>
     <use x="1046.728516" xlink:href="#OpenSans-Light-32"/>
     <use x="1072.705078" xlink:href="#OpenSans-Light-97"/>
     <use x="1125.683594" xlink:href="#OpenSans-Light-118"/>
     <use x="1171.582031" xlink:href="#OpenSans-Light-101"/>
     <use x="1226.464844" xlink:href="#OpenSans-Light-114"/>
     <use x="1265.380859" xlink:href="#OpenSans-Light-97"/>
     <use x="1318.359375" xlink:href="#OpenSans-Light-103"/>
     <use x="1370.654297" xlink:href="#OpenSans-Light-101"/>
     <use x="1425.537109" xlink:href="#OpenSans-Light-32"/>
     <use x="1451.513672" xlink:href="#OpenSans-Light-105"/>
     <use x="1474.121094" xlink:href="#OpenSans-Light-115"/>
     <use x="1520.703125" xlink:href="#OpenSans-Light-32"/>
     <use x="1546.679688" xlink:href="#OpenSans-Light-117"/>
     <use x="1605.664062" xlink:href="#OpenSans-Light-112"/>
     <use x="1665.185547" xlink:href="#OpenSans-Light-32"/>
     <use x="1691.162109" xlink:href="#OpenSans-Light-111"/>
     <use x="1749.755859" xlink:href="#OpenSans-Light-118"/>
     <use x="1795.654297" xlink:href="#OpenSans-Light-101"/>
     <use x="1850.537109" xlink:href="#OpenSans-Light-114"/>
     <use x="1889.453125" xlink:href="#OpenSans-Light-32"/>
     <use x="1915.429688" xlink:href="#OpenSans-Light-49"/>
     <use x="1972.509766" xlink:href="#OpenSans-Light-48"/>
     <use x="2029.589844" xlink:href="#OpenSans-Light-37"/>
     <use x="2110.302734" xlink:href="#OpenSans-Light-46"/>
    </g>
   </g>
   <g id="text_16">
    <!-- The Unknowns Have Been Shaky -->
    <defs>
     <path d="M 36.53125 0 
L 21.390625 0 
L 21.390625 58.796875 
L 2 58.796875 
L 2 71.390625 
L 55.90625 71.390625 
L 55.90625 58.796875 
L 36.53125 58.796875 
z
" id="OpenSans-Bold-84"/>
     <path d="M 58.203125 0 
L 43.3125 0 
L 43.3125 31.890625 
Q 43.3125 43.703125 34.515625 43.703125 
Q 28.265625 43.703125 25.484375 39.453125 
Q 22.703125 35.203125 22.703125 25.6875 
L 22.703125 0 
L 7.8125 0 
L 7.8125 75.984375 
L 22.703125 75.984375 
L 22.703125 60.5 
Q 22.703125 58.6875 22.359375 52 
L 22.015625 47.609375 
L 22.796875 47.609375 
Q 27.78125 55.609375 38.625 55.609375 
Q 48.25 55.609375 53.21875 50.4375 
Q 58.203125 45.265625 58.203125 35.59375 
z
" id="OpenSans-Bold-104"/>
     <path d="M 30.421875 45.015625 
Q 25.6875 45.015625 23 42.015625 
Q 20.3125 39.015625 19.921875 33.5 
L 40.828125 33.5 
Q 40.71875 39.015625 37.9375 42.015625 
Q 35.15625 45.015625 30.421875 45.015625 
z
M 32.515625 -0.984375 
Q 19.34375 -0.984375 11.921875 6.296875 
Q 4.5 13.578125 4.5 26.90625 
Q 4.5 40.625 11.359375 48.109375 
Q 18.21875 55.609375 30.328125 55.609375 
Q 41.890625 55.609375 48.328125 49.015625 
Q 54.78125 42.4375 54.78125 30.8125 
L 54.78125 23.578125 
L 19.578125 23.578125 
Q 19.828125 17.234375 23.34375 13.671875 
Q 26.859375 10.109375 33.203125 10.109375 
Q 38.140625 10.109375 42.53125 11.125 
Q 46.921875 12.15625 51.703125 14.40625 
L 51.703125 2.875 
Q 47.796875 0.921875 43.359375 -0.03125 
Q 38.921875 -0.984375 32.515625 -0.984375 
z
" id="OpenSans-Bold-101"/>
     <path id="OpenSans-Bold-32"/>
     <path d="M 67.09375 71.390625 
L 67.09375 25.203125 
Q 67.09375 17.28125 63.546875 11.328125 
Q 60.015625 5.375 53.3125 2.1875 
Q 46.625 -0.984375 37.5 -0.984375 
Q 23.734375 -0.984375 16.109375 6.078125 
Q 8.5 13.140625 8.5 25.390625 
L 8.5 71.390625 
L 23.578125 71.390625 
L 23.578125 27.6875 
Q 23.578125 19.4375 26.890625 15.578125 
Q 30.21875 11.71875 37.890625 11.71875 
Q 45.3125 11.71875 48.65625 15.59375 
Q 52 19.484375 52 27.78125 
L 52 71.390625 
z
" id="OpenSans-Bold-85"/>
     <path d="M 58.203125 0 
L 43.3125 0 
L 43.3125 31.890625 
Q 43.3125 37.796875 41.203125 40.75 
Q 39.109375 43.703125 34.515625 43.703125 
Q 28.265625 43.703125 25.484375 39.53125 
Q 22.703125 35.359375 22.703125 25.6875 
L 22.703125 0 
L 7.8125 0 
L 7.8125 54.59375 
L 19.1875 54.59375 
L 21.1875 47.609375 
L 22.015625 47.609375 
Q 24.515625 51.5625 28.875 53.578125 
Q 33.25 55.609375 38.8125 55.609375 
Q 48.34375 55.609375 53.265625 50.453125 
Q 58.203125 45.3125 58.203125 35.59375 
z
" id="OpenSans-Bold-110"/>
     <path d="M 22.125 29.6875 
L 28.609375 37.984375 
L 43.890625 54.59375 
L 60.6875 54.59375 
L 39.015625 30.90625 
L 62.015625 0 
L 44.828125 0 
L 29.109375 22.125 
L 22.703125 17 
L 22.703125 0 
L 7.8125 0 
L 7.8125 75.984375 
L 22.703125 75.984375 
L 22.703125 42.09375 
L 21.921875 29.6875 
z
" id="OpenSans-Bold-107"/>
     <path d="M 19.671875 27.390625 
Q 19.671875 19.28125 22.328125 15.125 
Q 25 10.984375 31 10.984375 
Q 36.96875 10.984375 39.578125 15.109375 
Q 42.1875 19.234375 42.1875 27.390625 
Q 42.1875 35.5 39.546875 39.546875 
Q 36.921875 43.609375 30.90625 43.609375 
Q 24.953125 43.609375 22.3125 39.578125 
Q 19.671875 35.546875 19.671875 27.390625 
z
M 57.421875 27.390625 
Q 57.421875 14.0625 50.390625 6.53125 
Q 43.359375 -0.984375 30.8125 -0.984375 
Q 22.953125 -0.984375 16.9375 2.453125 
Q 10.9375 5.90625 7.71875 12.34375 
Q 4.5 18.796875 4.5 27.390625 
Q 4.5 40.765625 11.46875 48.1875 
Q 18.453125 55.609375 31.109375 55.609375 
Q 38.96875 55.609375 44.96875 52.1875 
Q 50.984375 48.78125 54.203125 42.375 
Q 57.421875 35.984375 57.421875 27.390625 
z
" id="OpenSans-Bold-111"/>
     <path d="M 52.6875 0 
L 48.484375 19.09375 
L 42.828125 43.21875 
L 42.484375 43.21875 
L 32.515625 0 
L 16.5 0 
L 0.984375 54.59375 
L 15.828125 54.59375 
L 22.125 30.421875 
Q 23.640625 23.921875 25.203125 12.5 
L 25.484375 12.5 
Q 25.6875 16.21875 27.203125 24.265625 
L 27.984375 28.421875 
L 34.71875 54.59375 
L 51.125 54.59375 
L 57.515625 28.421875 
Q 57.71875 27.34375 58.125 25.234375 
Q 58.546875 23.140625 58.9375 20.765625 
Q 59.328125 18.40625 59.640625 16.140625 
Q 59.96875 13.875 60.015625 12.5 
L 60.296875 12.5 
Q 60.75 16.015625 61.859375 22.140625 
Q 62.984375 28.265625 63.484375 30.421875 
L 70.015625 54.59375 
L 84.625 54.59375 
L 68.890625 0 
z
" id="OpenSans-Bold-119"/>
     <path d="M 45.90625 16.21875 
Q 45.90625 7.8125 40.0625 3.40625 
Q 34.234375 -0.984375 22.609375 -0.984375 
Q 16.65625 -0.984375 12.453125 -0.171875 
Q 8.25 0.640625 4.59375 2.203125 
L 4.59375 14.5 
Q 8.734375 12.546875 13.9375 11.21875 
Q 19.140625 9.90625 23.09375 9.90625 
Q 31.203125 9.90625 31.203125 14.59375 
Q 31.203125 16.359375 30.125 17.453125 
Q 29.046875 18.5625 26.40625 19.953125 
Q 23.78125 21.34375 19.390625 23.1875 
Q 13.09375 25.828125 10.125 28.078125 
Q 7.171875 30.328125 5.828125 33.234375 
Q 4.5 36.140625 4.5 40.375 
Q 4.5 47.65625 10.125 51.625 
Q 15.765625 55.609375 26.125 55.609375 
Q 35.984375 55.609375 45.3125 51.3125 
L 40.828125 40.578125 
Q 36.71875 42.328125 33.15625 43.453125 
Q 29.59375 44.578125 25.875 44.578125 
Q 19.28125 44.578125 19.28125 41.015625 
Q 19.28125 39.015625 21.40625 37.546875 
Q 23.53125 36.078125 30.71875 33.203125 
Q 37.109375 30.609375 40.078125 28.359375 
Q 43.0625 26.125 44.484375 23.1875 
Q 45.90625 20.265625 45.90625 16.21875 
z
" id="OpenSans-Bold-115"/>
     <path d="M 67.484375 0 
L 52.390625 0 
L 52.390625 30.8125 
L 24.125 30.8125 
L 24.125 0 
L 8.984375 0 
L 8.984375 71.390625 
L 24.125 71.390625 
L 24.125 43.40625 
L 52.390625 43.40625 
L 52.390625 71.390625 
L 67.484375 71.390625 
z
" id="OpenSans-Bold-72"/>
     <path d="M 42.484375 0 
L 39.59375 7.421875 
L 39.203125 7.421875 
Q 35.453125 2.6875 31.46875 0.84375 
Q 27.484375 -0.984375 21.09375 -0.984375 
Q 13.234375 -0.984375 8.71875 3.515625 
Q 4.203125 8.015625 4.203125 16.3125 
Q 4.203125 25 10.28125 29.125 
Q 16.359375 33.25 28.609375 33.6875 
L 38.09375 33.984375 
L 38.09375 36.375 
Q 38.09375 44.671875 29.59375 44.671875 
Q 23.046875 44.671875 14.203125 40.71875 
L 9.28125 50.78125 
Q 18.703125 55.71875 30.171875 55.71875 
Q 41.15625 55.71875 47.015625 50.921875 
Q 52.875 46.140625 52.875 36.375 
L 52.875 0 
z
M 38.09375 25.296875 
L 32.328125 25.09375 
Q 25.828125 24.90625 22.65625 22.75 
Q 19.484375 20.609375 19.484375 16.21875 
Q 19.484375 9.90625 26.703125 9.90625 
Q 31.890625 9.90625 34.984375 12.890625 
Q 38.09375 15.875 38.09375 20.796875 
z
" id="OpenSans-Bold-97"/>
     <path d="M 20.796875 0 
L 0 54.59375 
L 15.578125 54.59375 
L 26.125 23.484375 
Q 27.875 17.578125 28.328125 12.3125 
L 28.609375 12.3125 
Q 28.859375 17 30.8125 23.484375 
L 41.3125 54.59375 
L 56.890625 54.59375 
L 36.078125 0 
z
" id="OpenSans-Bold-118"/>
     <path d="M 8.984375 71.390625 
L 31.203125 71.390625 
Q 46.390625 71.390625 53.25 67.0625 
Q 60.109375 62.75 60.109375 53.328125 
Q 60.109375 46.921875 57.109375 42.8125 
Q 54.109375 38.71875 49.125 37.890625 
L 49.125 37.40625 
Q 55.90625 35.890625 58.90625 31.734375 
Q 61.921875 27.59375 61.921875 20.703125 
Q 61.921875 10.9375 54.859375 5.46875 
Q 47.796875 0 35.6875 0 
L 8.984375 0 
z
M 24.125 43.109375 
L 32.90625 43.109375 
Q 39.0625 43.109375 41.8125 45.015625 
Q 44.578125 46.921875 44.578125 51.3125 
Q 44.578125 55.421875 41.578125 57.203125 
Q 38.578125 58.984375 32.078125 58.984375 
L 24.125 58.984375 
z
M 24.125 31.109375 
L 24.125 12.5 
L 33.984375 12.5 
Q 40.234375 12.5 43.203125 14.890625 
Q 46.1875 17.28125 46.1875 22.21875 
Q 46.1875 31.109375 33.5 31.109375 
z
" id="OpenSans-Bold-66"/>
     <path d="M 51.125 19.828125 
Q 51.125 10.15625 44.15625 4.578125 
Q 37.203125 -0.984375 24.8125 -0.984375 
Q 13.375 -0.984375 4.59375 3.328125 
L 4.59375 17.390625 
Q 11.8125 14.15625 16.8125 12.84375 
Q 21.828125 11.53125 25.984375 11.53125 
Q 30.953125 11.53125 33.609375 13.421875 
Q 36.28125 15.328125 36.28125 19.09375 
Q 36.28125 21.1875 35.109375 22.828125 
Q 33.9375 24.46875 31.65625 25.96875 
Q 29.390625 27.484375 22.40625 30.8125 
Q 15.875 33.890625 12.59375 36.71875 
Q 9.328125 39.546875 7.375 43.3125 
Q 5.421875 47.078125 5.421875 52.09375 
Q 5.421875 61.578125 11.84375 66.984375 
Q 18.265625 72.40625 29.59375 72.40625 
Q 35.15625 72.40625 40.203125 71.09375 
Q 45.265625 69.78125 50.78125 67.390625 
L 45.90625 55.609375 
Q 40.1875 57.953125 36.453125 58.875 
Q 32.71875 59.8125 29.109375 59.8125 
Q 24.8125 59.8125 22.515625 57.8125 
Q 20.21875 55.8125 20.21875 52.59375 
Q 20.21875 50.59375 21.140625 49.09375 
Q 22.078125 47.609375 24.09375 46.21875 
Q 26.125 44.828125 33.6875 41.21875 
Q 43.703125 36.421875 47.40625 31.609375 
Q 51.125 26.8125 51.125 19.828125 
z
" id="OpenSans-Bold-83"/>
     <path d="M 0 54.59375 
L 16.3125 54.59375 
L 26.609375 23.875 
Q 27.9375 19.875 28.421875 14.40625 
L 28.71875 14.40625 
Q 29.25 19.4375 30.8125 23.875 
L 40.921875 54.59375 
L 56.890625 54.59375 
L 33.796875 -6.984375 
Q 30.609375 -15.53125 24.71875 -19.78125 
Q 18.84375 -24.03125 10.984375 -24.03125 
Q 7.125 -24.03125 3.421875 -23.1875 
L 3.421875 -11.375 
Q 6.109375 -12.015625 9.28125 -12.015625 
Q 13.234375 -12.015625 16.1875 -9.59375 
Q 19.140625 -7.171875 20.796875 -2.296875 
L 21.6875 0.390625 
z
" id="OpenSans-Bold-121"/>
    </defs>
    <g transform="translate(37.9825 23.916562)scale(0.22 -0.22)">
     <use xlink:href="#OpenSans-Bold-84"/>
     <use x="57.910156" xlink:href="#OpenSans-Bold-104"/>
     <use x="123.632812" xlink:href="#OpenSans-Bold-101"/>
     <use x="182.714844" xlink:href="#OpenSans-Bold-32"/>
     <use x="208.691406" xlink:href="#OpenSans-Bold-85"/>
     <use x="284.277344" xlink:href="#OpenSans-Bold-110"/>
     <use x="350" xlink:href="#OpenSans-Bold-107"/>
     <use x="412.011719" xlink:href="#OpenSans-Bold-110"/>
     <use x="477.734375" xlink:href="#OpenSans-Bold-111"/>
     <use x="539.648438" xlink:href="#OpenSans-Bold-119"/>
     <use x="625.244141" xlink:href="#OpenSans-Bold-110"/>
     <use x="690.966797" xlink:href="#OpenSans-Bold-115"/>
     <use x="740.673828" xlink:href="#OpenSans-Bold-32"/>
     <use x="766.650391" xlink:href="#OpenSans-Bold-72"/>
     <use x="843.164062" xlink:href="#OpenSans-Bold-97"/>
     <use x="903.564453" xlink:href="#OpenSans-Bold-118"/>
     <use x="960.449219" xlink:href="#OpenSans-Bold-101"/>
     <use x="1019.53125" xlink:href="#OpenSans-Bold-32"/>
     <use x="1045.507812" xlink:href="#OpenSans-Bold-66"/>
     <use x="1112.695312" xlink:href="#OpenSans-Bold-101"/>
     <use x="1171.777344" xlink:href="#OpenSans-Bold-101"/>
     <use x="1230.859375" xlink:href="#OpenSans-Bold-110"/>
     <use x="1296.582031" xlink:href="#OpenSans-Bold-32"/>
     <use x="1322.558594" xlink:href="#OpenSans-Bold-83"/>
     <use x="1377.636719" xlink:href="#OpenSans-Bold-104"/>
     <use x="1443.359375" xlink:href="#OpenSans-Bold-97"/>
     <use x="1503.759766" xlink:href="#OpenSans-Bold-107"/>
     <use x="1565.771484" xlink:href="#OpenSans-Bold-121"/>
    </g>
   </g>
   <g id="legend_1">
    <g id="patch_8">
     <path d="M 540.685 43.628687 
L 564.685 43.628687 
L 564.685 35.228687 
L 540.685 35.228687 
z
" style="fill:#b2584c;stroke:#b2584c;stroke-linejoin:miter;stroke-width:0.5;"/>
    </g>
    <g id="text_17">
     <!-- unknown -->
     <g transform="translate(574.285 43.628687)scale(0.12 -0.12)">
      <use xlink:href="#OpenSans-Light-117"/>
      <use x="58.984375" xlink:href="#OpenSans-Light-110"/>
      <use x="117.96875" xlink:href="#OpenSans-Light-107"/>
      <use x="166.357422" xlink:href="#OpenSans-Light-110"/>
      <use x="225.341797" xlink:href="#OpenSans-Light-111"/>
      <use x="283.935547" xlink:href="#OpenSans-Light-119"/>
      <use x="356.25" xlink:href="#OpenSans-Light-110"/>
     </g>
    </g>
    <g id="patch_9">
     <path d="M 540.685 61.630562 
L 564.685 61.630562 
L 564.685 53.230562 
L 540.685 53.230562 
z
" style="fill:#5580b6;opacity:0.5;stroke:#5580b6;stroke-linejoin:miter;stroke-width:0.5;"/>
    </g>
    <g id="text_18">
     <!-- 9-year average -->
     <g transform="translate(574.285 61.630562)scale(0.12 -0.12)">
      <use xlink:href="#OpenSans-Light-57"/>
      <use x="57.080078" xlink:href="#OpenSans-Light-45"/>
      <use x="89.257812" xlink:href="#OpenSans-Light-121"/>
      <use x="135.15625" xlink:href="#OpenSans-Light-101"/>
      <use x="190.039062" xlink:href="#OpenSans-Light-97"/>
      <use x="243.017578" xlink:href="#OpenSans-Light-114"/>
      <use x="281.933594" xlink:href="#OpenSans-Light-32"/>
      <use x="307.910156" xlink:href="#OpenSans-Light-97"/>
      <use x="360.888672" xlink:href="#OpenSans-Light-118"/>
      <use x="406.787109" xlink:href="#OpenSans-Light-101"/>
      <use x="461.669922" xlink:href="#OpenSans-Light-114"/>
      <use x="500.585938" xlink:href="#OpenSans-Light-97"/>
      <use x="553.564453" xlink:href="#OpenSans-Light-103"/>
      <use x="605.859375" xlink:href="#OpenSans-Light-101"/>
     </g>
    </g>
   </g>
  </g>
 </g>
 <defs>
  <clipPath id="p77e5df7499">
   <rect height="291.6" width="626.4" x="37.9825" y="33.916562"/>
  </clipPath>
 </defs>
</svg>
