<svg width="954" height="954" xmlns="http://www.w3.org/2000/svg" xmlns:xlink="http://www.w3.org/1999/xlink"><g transform="translate(477 477)"><path id="a" d="M0-64s6.954-1.639 10.587-2.006a66.668 66.668 0 0111.212-.198c3.788.26 7.685.831 11.518 1.757a72.497 72.497 0 0111.48 3.797 75.409 75.409 0 0111.075 5.865 78.32 78.32 0 0110.296 7.892 81.136 81.136 0 019.149 9.812 84.134 84.134 0 017.646 11.558 87.04 87.04 0 015.817 13.066 89.943 89.943 0 013.702 14.273 92.844 92.844 0 011.35 15.13 95.744 95.744 0 01-1.18 15.591 98.643 98.643 0 01-3.816 15.622 101.54 101.54 0 01-6.49 15.2 104.436 104.436 0 01-9.118 14.315 107.331 107.331 0 01-11.624 12.974 110.225 110.225 0 01-13.925 11.194 113.117 113.117 0 01-15.946 9.005 116.008 116.008 0 01-17.616 6.457 118.898 118.898 0 01-18.867 3.603c-6.42.686-13.056.884-19.65.516a124.675 124.675 0 01-19.92-2.727 127.563 127.563 0 01-19.646-6.039 130.449 130.449 0 01-18.816-9.328 133.335 133.335 0 01-17.432-12.5 136.22 136.22 0 01-15.508-15.463 139.103 139.103 0 01-13.08-18.12 141.987 141.987 0 01-10.195-20.392 144.87 144.87 0 01-6.918-22.193 147.751 147.751 0 01-3.326-23.462 150.633 150.633 0 01.495-24.141c.823-8.055 2.3-16.228 4.445-24.19a156.394 156.394 0 018.419-23.589 159.274 159.274 0 0112.31-22.327 162.153 162.153 0 0116.008-20.418 165.032 165.032 0 0119.403-17.896 167.91 167.91 0 0122.394-14.805A170.788 170.788 0 01-40.88-167.38a173.665 173.665 0 0126.795-7.203 176.542 176.542 0 0128.05-2.868c9.442-.198 19.099.346 28.599 1.681s19.094 3.45 28.4 6.33a185.17 185.17 0 0127.443 10.957 188.046 188.046 0 0125.726 15.433 190.921 190.921 0 0123.274 19.635 193.796 193.796 0 0120.132 23.442 196.67 196.67 0 0116.367 26.742 199.545 199.545 0 0112.058 29.428 202.419 202.419 0 017.309 31.415 205.293 205.293 0 012.233 32.629 208.166 208.166 0 01-3.043 33.016 211.04 211.04 0 01-8.383 32.545 213.912 213.912 0 01-13.647 31.205 216.785 216.785 0 01-18.693 29.008 219.657 219.657 0 01-23.38 25.994 222.53 222.53 0 01-27.575 22.217 225.402 225.402 0 01-31.157 17.762 228.274 228.274 0 01-34.011 12.729 231.145 231.145 0 01-36.047 7.236 234.017 234.017 0 01-37.191 1.418 236.888 236.888 0 01-37.39-4.578 239.76 239.76 0 01-36.618-10.6 242.63 242.63 0 01-34.87-16.49 245.5 245.5 0 01-32.173-22.085 248.372 248.372 0 01-28.574-27.238 251.242 251.242 0 01-24.146-31.798 254.112 254.112 0 01-18.99-35.635 256.982 256.982 0 01-13.223-38.63 259.853 259.853 0 01-6.984-40.688 262.722 262.722 0 01-.426-41.732 265.592 265.592 0 016.286-41.715 268.462 268.462 0 0112.98-40.614 271.331 271.331 0 0119.479-38.435 274.2 274.2 0 0125.61-35.213 277.07 277.07 0 0131.205-31.01 279.94 279.94 0 0136.106-25.918 282.808 282.808 0 0140.172-20.048 285.677 285.677 0 0143.28-13.541 288.526 288.526 0 0145.33-6.552c15.262-.968 30.874-.741 46.246.744 15.372 1.485 30.9 4.218 45.985 8.165 15.086 3.948 30.126 9.164 44.53 15.52s28.557 13.969 41.894 22.615c13.337 8.646 26.222 18.504 38.127 29.26 11.904 10.757 23.163 22.648 33.302 35.277 10.138 12.628 19.45 26.284 27.527 40.494 8.077 14.21 15.166 29.31 20.935 44.763a314.257 314.257 0 0113.68 47.955c3.27 16.321 5.3 33.186 5.941 49.969.642 16.783-.04 33.909-2.091 50.73-2.051 16.82-5.476 33.77-10.215 50.196a325.86 325.86 0 01-18.217 48.36c-7.352 15.6-16.072 30.884-25.893 45.243-9.821 14.359-20.954 28.183-33.034 40.909-12.081 12.725-25.382 24.708-39.45 35.444-14.067 10.737-29.23 20.538-44.957 28.975-15.727 8.437-32.394 15.766-49.403 21.648-17.009 5.881-34.776 10.51-52.65 13.641-17.876 3.132-36.305 4.894-54.6 5.15-18.297.256-55.177-3.615-55.177-3.615" fill="none" stroke="none"/><rect class="rect date-20200306" transform="rotate(-168.86 23.186 -66.095)" rx="5" ry="5" x="23.186" y="-66.095" width="10.158" height=".02" fill="#fff7ec"/><rect class="rect date-20200307" transform="rotate(-159.45 34.7 -64.1)" rx="5" ry="5" x="34.7" y="-64.099" width="10.158" height=".015" fill="#fff7ec"/><rect class="rect date-20200309" transform="rotate(-142.02 55.607 -54.955)" rx="5" ry="5" x="55.607" y="-54.955" width="10.158" height=".02" fill="#fff7ec"/><rect class="rect date-20200310" transform="rotate(-133.563 64.971 -47.96)" rx="5" ry="5" x="64.971" y="-47.959" width="10.158" height=".005" fill="#fff7ec"/><rect class="rect date-20200311" transform="rotate(-125.367 73.2 -39.657)" rx="5" ry="5" x="73.201" y="-39.657" width="10.158" height=".041" fill="#fff7ec"/><rect class="rect date-20200312" transform="rotate(-117.412 80.157 -30.262)" rx="5" ry="5" x="80.157" y="-30.262" width="10.158" height=".01" fill="#fff7ec"/><rect class="rect date-20200313" transform="rotate(-109.676 85.741 -19.992)" rx="5" ry="5" x="85.741" y="-19.992" width="10.158" height=".082" fill="#fff7ec"/><rect class="rect date-20200314" transform="rotate(-102.144 89.889 -9.061)" rx="5" ry="5" x="89.889" y="-9.061" width="10.158" height=".061" fill="#fff7ec"/><rect class="rect date-20200315" transform="rotate(-94.8 92.567 2.319)" rx="5" ry="5" x="92.567" y="2.319" width="10.158" height=".026" fill="#fff7ec"/><rect class="rect date-20200316" transform="rotate(-87.63 93.764 13.95)" rx="5" ry="5" x="93.764" y="13.949" width="10.158" height=".005" fill="#fff7ec"/><rect class="rect date-20200317" transform="rotate(-80.624 93.492 25.638)" rx="5" ry="5" x="93.492" y="25.638" width="10.158" height=".036" fill="#fff7ec"/><rect class="rect date-20200318" transform="rotate(-73.77 91.792 37.206)" rx="5" ry="5" x="91.792" y="37.206" width="10.158" height=".097" fill="#fff7ec"/><rect class="rect date-20200319" transform="rotate(-67.06 88.725 48.49)" rx="5" ry="5" x="88.725" y="48.49" width="10.158" height=".307" fill="#fff7eb"/><rect class="rect date-20200320" transform="rotate(-60.484 84.356 59.336)" rx="5" ry="5" x="84.356" y="59.336" width="10.158" height=".261" fill="#fff7eb"/><rect class="rect date-20200321" transform="rotate(-54.035 78.766 69.606)" rx="5" ry="5" x="78.766" y="69.606" width="10.158" height=".562" fill="#fff6ea"/><rect class="rect date-20200322" transform="rotate(-47.705 72.058 79.185)" rx="5" ry="5" x="72.058" y="79.185" width="10.158" height=".153" fill="#fff7ec"/><rect class="rect date-20200323" transform="rotate(-41.49 64.336 87.966)" rx="5" ry="5" x="64.336" y="87.966" width="10.158" height=".092" fill="#fff7ec"/><rect class="rect date-20200324" transform="rotate(-35.382 55.7 95.851)" rx="5" ry="5" x="55.701" y="95.851" width="10.158" height=".297" fill="#fff7eb"/><rect class="rect date-20200325" transform="rotate(-29.376 46.277 102.775)" rx="5" ry="5" x="46.277" y="102.775" width="10.158" height="2.884" fill="#fff3e3"/><rect class="rect date-20200326" transform="rotate(-23.468 36.18 108.674)" rx="5" ry="5" x="36.179" y="108.674" width="10.158" height="2.158" fill="#fff4e5"/><rect class="rect date-20200327" transform="rotate(-17.652 25.524 113.494)" rx="5" ry="5" x="25.524" y="113.494" width="10.158" height="1.713" fill="#fff5e7"/><rect class="rect date-20200328" transform="rotate(-11.925 14.437 117.215)" rx="5" ry="5" x="14.437" y="117.215" width="10.158" height="1.641" fill="#fff5e7"/><rect class="rect date-20200329" transform="rotate(-6.283 3.033 119.804)" rx="5" ry="5" x="3.033" y="119.804" width="10.158" height="2.556" fill="#fff4e4"/><rect class="rect date-20200330" transform="rotate(-.722 -8.572 121.255)" rx="5" ry="5" x="-8.572" y="121.255" width="10.158" height="1.662" fill="#fff5e7"/><rect class="rect date-20200331" transform="rotate(4.762 -20.262 121.58)" rx="5" ry="5" x="-20.262" y="121.58" width="10.158" height="1.989" fill="#fff4e6"/><rect class="rect date-20200401" transform="rotate(10.17 -31.93 120.775)" rx="5" ry="5" x="-31.93" y="120.775" width="10.158" height="3.737" fill="#fff2e0"/><rect class="rect date-20200402" transform="rotate(15.508 -43.47 118.88)" rx="5" ry="5" x="-43.471" y="118.88" width="10.158" height="3.436" fill="#fff2e1"/><rect class="rect date-20200403" transform="rotate(20.776 -54.783 115.912)" rx="5" ry="5" x="-54.783" y="115.912" width="10.158" height="3.38" fill="#fff3e1"/><rect class="rect date-20200404" transform="rotate(25.978 -65.775 111.918)" rx="5" ry="5" x="-65.775" y="111.918" width="10.158" height="3.988" fill="#fff2df"/><rect class="rect date-20200405" transform="rotate(31.117 -76.36 106.944)" rx="5" ry="5" x="-76.361" y="106.944" width="10.158" height="3.589" fill="#fff2e1"/><rect class="rect date-20200406" transform="rotate(36.193 -86.454 101.036)" rx="5" ry="5" x="-86.454" y="101.036" width="10.158" height="2.372" fill="#fff4e4"/><rect class="rect date-20200407" transform="rotate(41.21 -95.99 94.263)" rx="5" ry="5" x="-95.989" y="94.263" width="10.158" height="5.041" fill="#fff0dc"/><rect class="rect date-20200408" transform="rotate(46.17 -104.888 86.673)" rx="5" ry="5" x="-104.888" y="86.673" width="10.158" height="5.578" fill="#fff0da"/><rect class="rect date-20200409" transform="rotate(51.075 -113.104 78.349)" rx="5" ry="5" x="-113.104" y="78.349" width="10.158" height="4.484" fill="#fff1de"/><rect class="rect date-20200410" transform="rotate(55.925 -120.569 69.344)" rx="5" ry="5" x="-120.569" y="69.344" width="10.158" height="7.368" fill="#feedd4"/><rect class="rect date-20200411" transform="rotate(60.724 -127.252 59.746)" rx="5" ry="5" x="-127.252" y="59.746" width="10.158" height="4.55" fill="#fff1de"/><rect class="rect date-20200412" transform="rotate(65.472 -133.1 49.616)" rx="5" ry="5" x="-133.1" y="49.616" width="10.158" height="4.719" fill="#fff1dd"/><rect class="rect date-20200413" transform="rotate(70.172 -138.096 39.041)" rx="5" ry="5" x="-138.096" y="39.041" width="10.158" height="2.158" fill="#fff4e5"/><rect class="rect date-20200414" transform="rotate(74.824 -142.199 28.088)" rx="5" ry="5" x="-142.199" y="28.088" width="10.158" height="3.671" fill="#fff2e0"/><rect class="rect date-20200415" transform="rotate(79.43 -145.408 16.84)" rx="5" ry="5" x="-145.408" y="16.84" width="10.158" height="4.438" fill="#fff1de"/><rect class="rect date-20200416" transform="rotate(83.992 -147.692 5.369)" rx="5" ry="5" x="-147.692" y="5.369" width="10.158" height="4.924" fill="#fff0dc"/><rect class="rect date-20200417" transform="rotate(88.51 -149.066 -6.247)" rx="5" ry="5" x="-149.066" y="-6.247" width="10.158" height="4.683" fill="#fff1dd"/><rect class="rect date-20200418" transform="rotate(-267.013 -149.508 -17.935)" rx="5" ry="5" x="-149.508" y="-17.935" width="10.158" height="4.545" fill="#fff1de"/><rect class="rect date-20200419" transform="rotate(-262.578 -149.046 -29.622)" rx="5" ry="5" x="-149.046" y="-29.622" width="10.158" height="3.39" fill="#fff3e1"/><rect class="rect date-20200420" transform="rotate(-258.182 -147.67 -41.238)" rx="5" ry="5" x="-147.671" y="-41.238" width="10.158" height="2.735" fill="#fff3e3"/><rect class="rect date-20200421" transform="rotate(-253.826 -145.418 -52.716)" rx="5" ry="5" x="-145.418" y="-52.716" width="10.158" height="3.773" fill="#fff2e0"/><rect class="rect date-20200422" transform="rotate(-249.507 -142.288 -63.986)" rx="5" ry="5" x="-142.288" y="-63.986" width="10.158" height="4.464" fill="#fff1de"/><rect class="rect date-20200423" transform="rotate(-245.225 -138.327 -74.992)" rx="5" ry="5" x="-138.327" y="-74.992" width="10.158" height="4.474" fill="#fff1de"/><rect class="rect date-20200424" transform="rotate(-240.98 -133.547 -85.667)" rx="5" ry="5" x="-133.547" y="-85.667" width="10.158" height="4.407" fill="#fff1de"/><rect class="rect date-20200425" transform="rotate(-236.768 -127.994 -95.962)" rx="5" ry="5" x="-127.994" y="-95.962" width="10.158" height="4.944" fill="#fff0dc"/><rect class="rect date-20200426" transform="rotate(-232.591 -121.695 -105.818)" rx="5" ry="5" x="-121.695" y="-105.818" width="10.158" height="4.387" fill="#fff1de"/><rect class="rect date-20200427" transform="rotate(-228.448 -114.697 -115.19)" rx="5" ry="5" x="-114.697" y="-115.191" width="10.158" height="3.405" fill="#fff2e1"/><rect class="rect date-20200428" transform="rotate(-224.337 -107.039 -124.032)" rx="5" ry="5" x="-107.039" y="-124.032" width="10.158" height="4.469" fill="#fff1de"/><rect class="rect date-20200429" transform="rotate(-220.258 -98.764 -132.3)" rx="5" ry="5" x="-98.764" y="-132.299" width="10.158" height="4.515" fill="#fff1de"/><rect class="rect date-20200430" transform="rotate(-216.21 -89.925 -139.961)" rx="5" ry="5" x="-89.925" y="-139.961" width="10.158" height="5.282" fill="#fff0db"/><rect class="rect date-20200501" transform="rotate(-212.193 -80.562 -146.972)" rx="5" ry="5" x="-80.562" y="-146.972" width="10.158" height="5.839" fill="#feefd9"/><rect class="rect date-20200502" transform="rotate(-208.205 -70.735 -153.317)" rx="5" ry="5" x="-70.735" y="-153.317" width="10.158" height="6.611" fill="#feeed7"/><rect class="rect date-20200503" transform="rotate(-204.247 -60.486 -158.954)" rx="5" ry="5" x="-60.486" y="-158.954" width="10.158" height="5.246" fill="#fff0db"/><rect class="rect date-20200504" transform="rotate(-200.317 -49.875 -163.876)" rx="5" ry="5" x="-49.875" y="-163.876" width="10.158" height="4.008" fill="#fff2df"/><rect class="rect date-20200505" transform="rotate(-196.415 -38.95 -168.055)" rx="5" ry="5" x="-38.949" y="-168.055" width="10.158" height="5.302" fill="#fff0db"/><rect class="rect date-20200506" transform="rotate(-192.54 -27.765 -171.48)" rx="5" ry="5" x="-27.765" y="-171.48" width="10.158" height="5.384" fill="#fff0db"/><rect class="rect date-20200507" transform="rotate(-188.692 -16.375 -174.146)" rx="5" ry="5" x="-16.375" y="-174.146" width="10.158" height="4.949" fill="#fff0dc"/><rect class="rect date-20200508" transform="rotate(-184.87 -4.83 -176.03)" rx="5" ry="5" x="-4.83" y="-176.031" width="10.158" height="6.233" fill="#feefd8"/><rect class="rect date-20200509" transform="rotate(-181.073 6.813 -177.151)" rx="5" ry="5" x="6.813" y="-177.151" width="10.158" height="6.396" fill="#feeed8"/><rect class="rect date-20200510" transform="rotate(-177.302 18.506 -177.489)" rx="5" ry="5" x="18.506" y="-177.489" width="10.158" height="5.159" fill="#fff0dc"/><rect class="rect date-20200511" transform="rotate(-173.555 30.195 -177.061)" rx="5" ry="5" x="30.195" y="-177.061" width="10.158" height="5.113" fill="#fff0dc"/><rect class="rect date-20200512" transform="rotate(-169.833 41.832 -175.871)" rx="5" ry="5" x="41.832" y="-175.871" width="10.158" height="6.028" fill="#feefd9"/><rect class="rect date-20200513" transform="rotate(-166.134 53.366 -173.92)" rx="5" ry="5" x="53.366" y="-173.92" width="10.158" height="6.928" fill="#feeed6"/><rect class="rect date-20200514" transform="rotate(-162.459 64.752 -171.238)" rx="5" ry="5" x="64.752" y="-171.238" width="10.158" height="7.403" fill="#feedd4"/><rect class="rect date-20200515" transform="rotate(-158.807 75.94 -167.822)" rx="5" ry="5" x="75.94" y="-167.822" width="10.158" height="6.887" fill="#feeed6"/><rect class="rect date-20200516" transform="rotate(-155.176 86.889 -163.705)" rx="5" ry="5" x="86.889" y="-163.705" width="10.158" height="9.208" fill="#feeace"/><rect class="rect date-20200517" transform="rotate(-151.568 97.555 -158.903)" rx="5" ry="5" x="97.555" y="-158.903" width="10.158" height="4.014" fill="#fff2df"/><rect class="rect date-20200518" transform="rotate(-147.982 107.895 -153.433)" rx="5" ry="5" x="107.895" y="-153.433" width="10.158" height="4.648" fill="#fff1dd"/><rect class="rect date-20200519" transform="rotate(-144.416 117.877 -147.333)" rx="5" ry="5" x="117.877" y="-147.333" width="10.158" height="6.233" fill="#feefd8"/><rect class="rect date-20200520" transform="rotate(-140.872 127.455 -140.618)" rx="5" ry="5" x="127.455" y="-140.618" width="10.158" height="7.214" fill="#feedd5"/><rect class="rect date-20200521" transform="rotate(-137.348 136.601 -133.326)" rx="5" ry="5" x="136.601" y="-133.326" width="10.158" height="4.832" fill="#fff1dd"/><rect class="rect date-20200522" transform="rotate(-133.844 145.285 -125.487)" rx="5" ry="5" x="145.285" y="-125.487" width="10.158" height="6.038" fill="#feefd9"/><rect class="rect date-20200523" transform="rotate(-130.36 153.465 -117.126)" rx="5" ry="5" x="153.465" y="-117.126" width="10.158" height="5.42" fill="#fff0db"/><rect class="rect date-20200524" transform="rotate(-126.896 161.13 -108.288)" rx="5" ry="5" x="161.129" y="-108.288" width="10.158" height="4.29" fill="#fff1de"/><rect class="rect date-20200525" transform="rotate(-123.45 168.241 -99.001)" rx="5" ry="5" x="168.241" y="-99.001" width="10.158" height="3.185" fill="#fff3e2"/><rect class="rect date-20200526" transform="rotate(-120.024 174.78 -89.301)" rx="5" ry="5" x="174.78" y="-89.301" width="10.158" height="3.011" fill="#fff3e2"/><rect class="rect date-20200527" transform="rotate(-116.616 180.734 -79.232)" rx="5" ry="5" x="180.734" y="-79.232" width="10.158" height="6.959" fill="#feeed6"/><rect class="rect date-20200528" transform="rotate(-113.227 186.07 -68.822)" rx="5" ry="5" x="186.07" y="-68.822" width="10.158" height="9.484" fill="#feeacd"/><rect class="rect date-20200529" transform="rotate(-109.855 190.784 -58.116)" rx="5" ry="5" x="190.784" y="-58.116" width="10.158" height="6.289" fill="#feefd8"/><rect class="rect date-20200530" transform="rotate(-106.5 194.864 -47.152)" rx="5" ry="5" x="194.864" y="-47.152" width="10.158" height="6.81" fill="#feeed6"/><rect class="rect date-20200531" transform="rotate(-103.164 198.286 -35.966)" rx="5" ry="5" x="198.286" y="-35.966" width="10.158" height="9.965" fill="#fee9cc"/><rect class="rect date-20200601" transform="rotate(-99.845 201.058 -24.602)" rx="5" ry="5" x="201.058" y="-24.602" width="10.158" height="3.032" fill="#fff3e2"/><rect class="rect date-20200602" transform="rotate(-96.542 203.166 -13.095)" rx="5" ry="5" x="203.166" y="-13.095" width="10.158" height="8.631" fill="#feebd0"/><rect class="rect date-20200603" transform="rotate(-93.256 204.6 -1.485)" rx="5" ry="5" x="204.601" y="-1.485" width="10.158" height="8.707" fill="#feebd0"/><rect class="rect date-20200604" transform="rotate(-89.986 205.376 10.187)" rx="5" ry="5" x="205.376" y="10.187" width="10.158" height="8.431" fill="#feecd1"/><rect class="rect date-20200605" transform="rotate(-86.733 205.479 21.884)" rx="5" ry="5" x="205.479" y="21.884" width="10.158" height="8.656" fill="#feebd0"/><rect class="rect date-20200606" transform="rotate(-83.495 204.915 33.569)" rx="5" ry="5" x="204.915" y="33.569" width="10.158" height="9.919" fill="#fee9cc"/><rect class="rect date-20200607" transform="rotate(-80.273 203.699 45.204)" rx="5" ry="5" x="203.699" y="45.204" width="10.158" height="7.286" fill="#feedd5"/><rect class="rect date-20200608" transform="rotate(-77.066 201.823 56.75)" rx="5" ry="5" x="201.823" y="56.75" width="10.158" height="3.262" fill="#fff3e2"/><rect class="rect date-20200609" transform="rotate(-73.875 199.306 68.174)" rx="5" ry="5" x="199.306" y="68.174" width="10.158" height="8.37" fill="#feecd1"/><rect class="rect date-20200610" transform="rotate(-70.699 196.161 79.442)" rx="5" ry="5" x="196.161" y="79.442" width="10.158" height="12.803" fill="#fee5c2"/><rect class="rect date-20200611" transform="rotate(-67.537 192.389 90.515)" rx="5" ry="5" x="192.389" y="90.515" width="10.158" height="9.336" fill="#feeace"/><rect class="rect date-20200612" transform="rotate(-64.39 188.014 101.364)" rx="5" ry="5" x="188.014" y="101.364" width="10.158" height="10.722" fill="#fee8c9"/><rect class="rect date-20200613" transform="rotate(-61.258 183.055 111.959)" rx="5" ry="5" x="183.055" y="111.959" width="10.158" height="11.918" fill="#fee6c5"/><rect class="rect date-20200614" transform="rotate(-58.14 177.515 122.262)" rx="5" ry="5" x="177.515" y="122.262" width="10.158" height="9.423" fill="#feeace"/><rect class="rect date-20200615" transform="rotate(-55.035 171.427 132.252)" rx="5" ry="5" x="171.427" y="132.252" width="10.158" height="6.412" fill="#feeed8"/><rect class="rect date-20200616" transform="rotate(-51.944 164.81 141.898)" rx="5" ry="5" x="164.81" y="141.898" width="10.158" height="20.952" fill="#fdd7a6"/><rect class="rect date-20200617" transform="rotate(-48.868 157.675 151.169)" rx="5" ry="5" x="157.675" y="151.169" width="10.158" height="15.998" fill="#fee0b7"/><rect class="rect date-20200618" transform="rotate(-45.804 150.056 160.045)" rx="5" ry="5" x="150.056" y="160.045" width="10.158" height="17.977" fill="#fddcb0"/><rect class="rect date-20200619" transform="rotate(-42.754 141.976 168.505)" rx="5" ry="5" x="141.976" y="168.505" width="10.158" height="17.66" fill="#fdddb1"/><rect class="rect date-20200620" transform="rotate(-39.717 133.451 176.516)" rx="5" ry="5" x="133.451" y="176.516" width="10.158" height="22.65" fill="#fdd3a1"/><rect class="rect date-20200621" transform="rotate(-36.693 124.517 184.067)" rx="5" ry="5" x="124.517" y="184.067" width="10.158" height="19.766" fill="#fdd9aa"/><rect class="rect date-20200622" transform="rotate(-33.681 115.198 191.14)" rx="5" ry="5" x="115.198" y="191.14" width="10.158" height="16.77" fill="#fedeb4"/><rect class="rect date-20200623" transform="rotate(-30.683 105.516 197.705)" rx="5" ry="5" x="105.516" y="197.705" width="10.158" height="28.064" fill="#fdc892"/><rect class="rect date-20200624" transform="rotate(-27.696 95.506 203.758)" rx="5" ry="5" x="95.506" y="203.758" width="10.158" height="28.381" fill="#fdc791"/><rect class="rect date-20200625" transform="rotate(-24.722 85.196 209.286)" rx="5" ry="5" x="85.196" y="209.286" width="10.158" height="30.657" fill="#fdc28b"/><rect class="rect date-20200626" transform="rotate(-21.76 74.61 214.263)" rx="5" ry="5" x="74.609" y="214.263" width="10.158" height="29.179" fill="#fdc58f"/><rect class="rect date-20200627" transform="rotate(-18.81 63.78 218.689)" rx="5" ry="5" x="63.78" y="218.689" width="10.158" height="29.384" fill="#fdc58f"/><rect class="rect date-20200628" transform="rotate(-15.873 52.74 222.556)" rx="5" ry="5" x="52.74" y="222.556" width="10.158" height="27.39" fill="#fdc994"/><rect class="rect date-20200629" transform="rotate(-12.947 41.513 225.845)" rx="5" ry="5" x="41.513" y="225.845" width="10.158" height="21.898" fill="#fdd5a3"/><rect class="rect date-20200630" transform="rotate(-10.032 30.134 228.558)" rx="5" ry="5" x="30.134" y="228.558" width="10.158" height="35.662" fill="#fdb37d"/><rect class="rect date-20200701" transform="rotate(-7.129 18.632 230.694)" rx="5" ry="5" x="18.632" y="230.694" width="10.158" height="41.291" fill="#fc9e6a"/><rect class="rect date-20200702" transform="rotate(-4.237 7.036 232.238)" rx="5" ry="5" x="7.036" y="232.238" width="10.158" height="40.468" fill="#fca16d"/><rect class="rect date-20200703" transform="rotate(-1.357 -4.623 233.194)" rx="5" ry="5" x="-4.623" y="233.194" width="10.158" height="38.628" fill="#fca873"/><rect class="rect date-20200704" transform="rotate(1.513 -16.315 233.569)" rx="5" ry="5" x="-16.315" y="233.569" width="10.158" height="42.222" fill="#fc9b67"/><rect class="rect date-20200705" transform="rotate(4.372 -28.012 233.354)" rx="5" ry="5" x="-28.012" y="233.354" width="10.158" height="17.634" fill="#fdddb1"/><rect class="rect date-20200706" transform="rotate(7.22 -39.683 232.551)" rx="5" ry="5" x="-39.683" y="232.551" width="10.158" height="27.19" fill="#fdca94"/><rect class="rect date-20200707" transform="rotate(10.057 -51.3 231.177)" rx="5" ry="5" x="-51.3" y="231.177" width="10.158" height="51.272" fill="#f57950"/><rect class="rect date-20200708" transform="rotate(12.883 -62.835 229.228)" rx="5" ry="5" x="-62.835" y="229.228" width="10.158" height="51.021" fill="#f57a51"/><rect class="rect date-20200709" transform="rotate(15.7 -74.258 226.705)" rx="5" ry="5" x="-74.258" y="226.705" width="10.158" height="50.014" fill="#f67d53"/><rect class="rect date-20200710" transform="rotate(18.505 -85.545 223.63)" rx="5" ry="5" x="-85.545" y="223.63" width="10.158" height="49.927" fill="#f67e53"/><rect class="rect date-20200711" transform="rotate(21.301 -96.669 220.008)" rx="5" ry="5" x="-96.669" y="220.008" width="10.158" height="52.923" fill="#f3734d"/><rect class="rect date-20200712" transform="rotate(24.086 -107.599 215.84)" rx="5" ry="5" x="-107.599" y="215.839" width="10.158" height="41.905" fill="#fc9c68"/><rect class="rect date-20200713" transform="rotate(26.862 -118.316 211.148)" rx="5" ry="5" x="-118.316" y="211.148" width="10.158" height="28.913" fill="#fdc690"/><rect class="rect date-20200714" transform="rotate(29.628 -128.794 205.947)" rx="5" ry="5" x="-128.794" y="205.947" width="10.158" height="54.938" fill="#f06b49"/><rect class="rect date-20200715" transform="rotate(32.383 -139.007 200.241)" rx="5" ry="5" x="-139.007" y="200.241" width="10.158" height="37.36" fill="#fdad77"/><rect class="rect date-20200716" transform="rotate(35.13 -148.933 194.05)" rx="5" ry="5" x="-148.933" y="194.05" width="10.158" height="52.616" fill="#f3744e"/><rect class="rect date-20200717" transform="rotate(37.866 -158.554 187.395)" rx="5" ry="5" x="-158.554" y="187.395" width="10.158" height="76.263" fill="#bd110b"/><rect class="rect date-20200718" transform="rotate(40.593 -167.845 180.287)" rx="5" ry="5" x="-167.845" y="180.287" width="10.158" height="51.936" fill="#f4764f"/><rect class="rect date-20200719" transform="rotate(43.31 -176.783 172.739)" rx="5" ry="5" x="-176.783" y="172.739" width="10.158" height="37.324" fill="#fdad77"/><rect class="rect date-20200720" transform="rotate(46.02 -185.357 164.78)" rx="5" ry="5" x="-185.357" y="164.781" width="10.158" height="37.856" fill="#fdab75"/><rect class="rect date-20200721" transform="rotate(48.718 -193.547 156.427)" rx="5" ry="5" x="-193.547" y="156.427" width="10.158" height="47.575" fill="#f98658"/><rect class="rect date-20200722" transform="rotate(51.408 -201.329 147.692)" rx="5" ry="5" x="-201.329" y="147.692" width="10.158" height="50.51" fill="#f67c52"/><rect class="rect date-20200723" transform="rotate(54.09 -208.694 138.603)" rx="5" ry="5" x="-208.694" y="138.603" width="10.158" height="48.608" fill="#f88356"/><rect class="rect date-20200724" transform="rotate(56.762 -215.63 129.182)" rx="5" ry="5" x="-215.63" y="129.182" width="10.158" height="44.487" fill="#fb9260"/><rect class="rect date-20200725" transform="rotate(59.425 -222.114 119.446)" rx="5" ry="5" x="-222.114" y="119.446" width="10.158" height="30.779" fill="#fdc18b"/><rect class="rect date-20200726" transform="rotate(62.08 -228.137 109.416)" rx="5" ry="5" x="-228.137" y="109.416" width="10.158" height="29.706" fill="#fdc48e"/><rect class="rect date-20200727" transform="rotate(64.725 -233.694 99.122)" rx="5" ry="5" x="-233.694" y="99.122" width="10.158" height="21.817" fill="#fdd5a4"/><rect class="rect date-20200728" transform="rotate(67.363 -238.77 88.582)" rx="5" ry="5" x="-238.77" y="88.582" width="10.158" height="42.651" fill="#fb9966"/><rect class="rect date-20200729" transform="rotate(69.991 -243.348 77.816)" rx="5" ry="5" x="-243.348" y="77.816" width="10.158" height="46.23" fill="#fa8b5c"/><rect class="rect date-20200730" transform="rotate(72.612 -247.431 66.854)" rx="5" ry="5" x="-247.431" y="66.854" width="10.158" height="44.993" fill="#fa905f"/><rect class="rect date-20200731" transform="rotate(75.224 -251.014 55.717)" rx="5" ry="5" x="-251.014" y="55.717" width="10.158" height="45.193" fill="#fa8f5e"/><rect class="rect date-20200801" transform="rotate(77.828 -254.079 44.427)" rx="5" ry="5" x="-254.079" y="44.427" width="10.158" height="48.772" fill="#f88256"/><rect class="rect date-20200803" transform="rotate(83.01 -258.658 21.489)" rx="5" ry="5" x="-258.658" y="21.489" width="10.158" height="58.946" fill="#ea5a3f"/><rect class="rect date-20200804" transform="rotate(85.59 -260.17 9.888)" rx="5" ry="5" x="-260.17" y="9.888" width="10.158" height="46.87" fill="#f9895a"/><rect class="rect date-20200805" transform="rotate(88.162 -261.149 -1.77)" rx="5" ry="5" x="-261.149" y="-1.77" width="10.158" height="44.513" fill="#fb9260"/><rect class="rect date-20200806" transform="rotate(-269.274 -261.608 -13.46)" rx="5" ry="5" x="-261.608" y="-13.459" width="10.158" height="38.847" fill="#fca772"/><rect class="rect date-20200807" transform="rotate(-266.719 -261.548 -25.158)" rx="5" ry="5" x="-261.548" y="-25.158" width="10.158" height="35.989" fill="#fdb27b"/><rect class="rect date-20200808" transform="rotate(-264.17 -260.962 -36.842)" rx="5" ry="5" x="-260.962" y="-36.842" width="10.158" height="35.58" fill="#fdb37d"/><rect class="rect date-20200809" transform="rotate(-261.63 -259.853 -48.488)" rx="5" ry="5" x="-259.853" y="-48.488" width="10.158" height="24.946" fill="#fdcf9a"/><rect class="rect date-20200810" transform="rotate(-259.097 -258.234 -60.074)" rx="5" ry="5" x="-258.234" y="-60.074" width="10.158" height="22.778" fill="#fdd3a1"/><rect class="rect date-20200811" transform="rotate(-256.572 -256.107 -71.577)" rx="5" ry="5" x="-256.107" y="-71.577" width="10.158" height="50.121" fill="#f67d53"/><rect class="rect date-20200812" transform="rotate(-254.054 -253.468 -82.974)" rx="5" ry="5" x="-253.468" y="-82.974" width="10.158" height="31.7" fill="#fdbf88"/><rect class="rect date-20200813" transform="rotate(-251.543 -250.331 -94.245)" rx="5" ry="5" x="-250.331" y="-94.245" width="10.158" height="34.537" fill="#fdb680"/><rect class="rect date-20200814" transform="rotate(-249.04 -246.71 -105.368)" rx="5" ry="5" x="-246.71" y="-105.368" width="10.158" height="35.882" fill="#fdb27c"/><rect class="rect date-20200815" transform="rotate(-246.545 -242.604 -116.323)" rx="5" ry="5" x="-242.604" y="-116.323" width="10.158" height="42.156" fill="#fc9b67"/><rect class="rect date-20200816" transform="rotate(-244.056 -238.018 -127.085)" rx="5" ry="5" x="-238.018" y="-127.085" width="10.158" height="34.481" fill="#fdb780"/><rect class="rect date-20200817" transform="rotate(-241.574 -232.974 -137.64)" rx="5" ry="5" x="-232.974" y="-137.641" width="10.158" height="37.672" fill="#fdac76"/><rect class="rect date-20200818" transform="rotate(-239.1 -227.48 -147.97)" rx="5" ry="5" x="-227.481" y="-147.97" width="10.158" height="37.232" fill="#fdad77"/><rect class="rect date-20200819" transform="rotate(-236.633 -221.542 -158.049)" rx="5" ry="5" x="-221.542" y="-158.049" width="10.158" height="35.913" fill="#fdb27c"/><rect class="rect date-20200820" transform="rotate(-234.172 -215.172 -167.861)" rx="5" ry="5" x="-215.172" y="-167.861" width="10.158" height="27.113" fill="#fdca95"/><rect class="rect date-20200821" transform="rotate(-231.718 -208.392 -177.394)" rx="5" ry="5" x="-208.392" y="-177.394" width="10.158" height="25.672" fill="#fdcd98"/><rect class="rect date-20200822" transform="rotate(-229.272 -201.21 -186.63)" rx="5" ry="5" x="-201.211" y="-186.63" width="10.158" height="28.422" fill="#fdc791"/><rect class="rect date-20200823" transform="rotate(-226.832 -193.636 -195.545)" rx="5" ry="5" x="-193.636" y="-195.545" width="10.158" height="22.486" fill="#fdd4a2"/><rect class="rect date-20200824" transform="rotate(-224.399 -185.69 -204.13)" rx="5" ry="5" x="-185.69" y="-204.131" width="10.158" height="14.556" fill="#fee2bc"/><rect class="rect date-20200825" transform="rotate(-221.972 -177.39 -212.375)" rx="5" ry="5" x="-177.389" y="-212.375" width="10.158" height="32.446" fill="#fdbd86"/><rect class="rect date-20200826" transform="rotate(-219.552 -168.748 -220.26)" rx="5" ry="5" x="-168.748" y="-220.26" width="10.158" height="27.645" fill="#fdc993"/><rect class="rect date-20200827" transform="rotate(-217.14 -159.775 -227.768)" rx="5" ry="5" x="-159.775" y="-227.768" width="10.158" height="28.632" fill="#fdc791"/><rect class="rect date-20200828" transform="rotate(-214.732 -150.496 -234.893)" rx="5" ry="5" x="-150.496" y="-234.893" width="10.158" height="20.61" fill="#fdd7a7"/><rect class="rect date-20200829" transform="rotate(-212.332 -140.93 -241.626)" rx="5" ry="5" x="-140.93" y="-241.626" width="10.158" height="24.347" fill="#fdd09c"/><rect class="rect date-20200830" transform="rotate(-209.938 -131.089 -247.951)" rx="5" ry="5" x="-131.089" y="-247.951" width="10.158" height="19.552" fill="#fdd9ab"/><rect class="rect date-20200831" transform="rotate(-207.55 -120.988 -253.853)" rx="5" ry="5" x="-120.988" y="-253.853" width="10.158" height="13.37" fill="#fee4c0"/><rect class="rect date-20200901" transform="rotate(-205.17 -110.652 -259.334)" rx="5" ry="5" x="-110.652" y="-259.334" width="10.158" height="22.313" fill="#fdd4a2"/><rect class="rect date-20200902" transform="rotate(-202.794 -100.1 -264.384)" rx="5" ry="5" x="-100.1" y="-264.384" width="10.158" height="22.159" fill="#fdd4a3"/><rect class="rect date-20200903" transform="rotate(-200.426 -89.345 -268.988)" rx="5" ry="5" x="-89.345" y="-268.988" width="10.158" height="18.815" fill="#fddbad"/><rect class="rect date-20200904" transform="rotate(-198.063 -78.408 -273.14)" rx="5" ry="5" x="-78.408" y="-273.14" width="10.158" height="28.029" fill="#fdc892"/><rect class="rect date-20200905" transform="rotate(-195.707 -67.31 -276.842)" rx="5" ry="5" x="-67.31" y="-276.842" width="10.158" height="22.936" fill="#fdd3a0"/><rect class="rect date-20200906" transform="rotate(-193.356 -56.07 -280.087)" rx="5" ry="5" x="-56.071" y="-280.087" width="10.158" height="15.313" fill="#fee1b9"/><rect class="rect date-20200907" transform="rotate(-191.012 -44.706 -282.864)" rx="5" ry="5" x="-44.706" y="-282.864" width="10.158" height="10.532" fill="#fee8ca"/><rect class="rect date-20200908" transform="rotate(-188.674 -33.237 -285.17)" rx="5" ry="5" x="-33.237" y="-285.171" width="10.158" height="7.265" fill="#feedd5"/><rect class="rect date-20200909" transform="rotate(-186.341 -21.684 -287.012)" rx="5" ry="5" x="-21.684" y="-287.012" width="10.158" height="20.451" fill="#fdd8a8"/><rect class="rect date-20200910" transform="rotate(-184.014 -10.066 -288.385)" rx="5" ry="5" x="-10.066" y="-288.385" width="10.158" height="20.543" fill="#fdd7a8"/><rect class="rect date-20200911" transform="rotate(-181.694 1.598 -289.279)" rx="5" ry="5" x="1.598" y="-289.279" width="10.158" height="18.135" fill="#fddcb0"/><rect class="rect date-20200912" transform="rotate(-179.379 13.29 -289.697)" rx="5" ry="5" x="13.29" y="-289.697" width="10.158" height="21.643" fill="#fdd5a4"/><rect class="rect date-20200913" transform="rotate(-177.07 24.988 -289.648)" rx="5" ry="5" x="24.988" y="-289.648" width="10.158" height="9.433" fill="#feeace"/><rect class="rect date-20200914" transform="rotate(-174.766 36.676 -289.13)" rx="5" ry="5" x="36.676" y="-289.13" width="10.158" height="20.508" fill="#fdd8a8"/><rect class="rect date-20200915" transform="rotate(-172.468 48.332 -288.136)" rx="5" ry="5" x="48.332" y="-288.136" width="10.158" height="27.103" fill="#fdca95"/><rect class="rect date-20200916" transform="rotate(-170.176 59.94 -286.674)" rx="5" ry="5" x="59.939" y="-286.674" width="10.158" height="30.81" fill="#fdc18b"/><rect class="rect date-20200917" transform="rotate(-167.89 71.48 -284.754)" rx="5" ry="5" x="71.479" y="-284.754" width="10.158" height="20.692" fill="#fdd7a7"/><rect class="rect date-20200918" transform="rotate(-165.608 82.934 -282.378)" rx="5" ry="5" x="82.934" y="-282.378" width="10.158" height="17.496" fill="#fdddb2"/><rect class="rect date-20200919" transform="rotate(-163.333 94.284 -279.541)" rx="5" ry="5" x="94.284" y="-279.541" width="10.158" height="19.567" fill="#fdd9ab"/><rect class="rect date-20200920" transform="rotate(-161.063 105.511 -276.254)" rx="5" ry="5" x="105.511" y="-276.254" width="10.158" height="12.608" fill="#fee5c3"/><rect class="rect date-20200921" transform="rotate(-158.798 116.602 -272.53)" rx="5" ry="5" x="116.602" y="-272.529" width="10.158" height="50.377" fill="#f67c52"/><rect class="rect date-20200922" transform="rotate(-156.54 127.537 -268.372)" rx="5" ry="5" x="127.537" y="-268.372" width="10.158" height="91.111" fill="#7f0000"/><rect class="rect date-20200923" transform="rotate(-154.285 138.297 -263.782)" rx="5" ry="5" x="138.297" y="-263.782" width="10.158" height="17.343" fill="#feddb2"/><rect class="rect date-20200924" transform="rotate(-152.037 148.868 -258.77)" rx="5" ry="5" x="148.868" y="-258.769" width="10.158" height="22.088" fill="#fdd5a3"/><rect class="rect date-20200925" transform="rotate(-149.793 159.236 -253.35)" rx="5" ry="5" x="159.236" y="-253.35" width="10.158" height="23.688" fill="#fdd19e"/><rect class="rect date-20200926" transform="rotate(-147.555 169.385 -247.532)" rx="5" ry="5" x="169.385" y="-247.532" width="10.158" height="24.981" fill="#fdcf9a"/><rect class="rect date-20200927" transform="rotate(-145.322 179.297 -241.317)" rx="5" ry="5" x="179.297" y="-241.317" width="10.158" height="8.661" fill="#feebd0"/><rect class="rect date-20200928" transform="rotate(-143.095 188.957 -234.718)" rx="5" ry="5" x="188.957" y="-234.718" width="10.158" height="23.575" fill="#fdd29e"/><rect class="rect date-20200929" transform="rotate(-140.872 198.356 -227.753)" rx="5" ry="5" x="198.356" y="-227.753" width="10.158" height="18.105" fill="#fddcb0"/><rect class="rect date-20200930" transform="rotate(-138.655 207.48 -220.43)" rx="5" ry="5" x="207.48" y="-220.43" width="10.158" height="29.056" fill="#fdc68f"/><rect class="rect date-20201001" transform="rotate(-136.442 216.311 -212.757)" rx="5" ry="5" x="216.311" y="-212.757" width="10.158" height="18.069" fill="#fddcb0"/><rect class="rect date-20201002" transform="rotate(-134.235 224.836 -204.745)" rx="5" ry="5" x="224.836" y="-204.745" width="10.158" height="17.91" fill="#fddcb0"/><rect class="rect date-20201003" transform="rotate(-132.032 233.05 -196.414)" rx="5" ry="5" x="233.049" y="-196.414" width="10.158" height="35.821" fill="#fdb27c"/><rect class="rect date-20201004" transform="rotate(-129.835 240.939 -187.776)" rx="5" ry="5" x="240.939" y="-187.776" width="10.158" height="14.745" fill="#fee2bb"/><rect class="rect date-20201005" transform="rotate(-127.643 248.49 -178.84)" rx="5" ry="5" x="248.49" y="-178.84" width="10.158" height="17.43" fill="#fdddb2"/><rect class="rect date-20201006" transform="rotate(-125.455 255.688 -169.618)" rx="5" ry="5" x="255.688" y="-169.618" width="10.158" height="21.126" fill="#fdd6a6"/><rect class="rect date-20201007" transform="rotate(-123.272 262.532 -160.13)" rx="5" ry="5" x="262.532" y="-160.13" width="10.158" height="21.07" fill="#fdd6a6"/><rect class="rect date-20201008" transform="rotate(-121.094 269.013 -150.39)" rx="5" ry="5" x="269.013" y="-150.39" width="10.158" height="21.668" fill="#fdd5a4"/><rect class="rect date-20201009" transform="rotate(-118.921 275.119 -140.411)" rx="5" ry="5" x="275.119" y="-140.411" width="10.158" height="20.635" fill="#fdd7a7"/><rect class="rect date-20201010" transform="rotate(-116.753 280.835 -130.204)" rx="5" ry="5" x="280.835" y="-130.204" width="10.158" height="21.627" fill="#fdd5a4"/><rect class="rect date-20201011" transform="rotate(-114.59 286.163 -119.789)" rx="5" ry="5" x="286.163" y="-119.789" width="10.158" height="12.363" fill="#fee6c4"/><rect class="rect date-20201012" transform="rotate(-112.43 291.099 -109.182)" rx="5" ry="5" x="291.099" y="-109.182" width="10.158" height="13.539" fill="#fee4c0"/><rect class="rect date-20201013" transform="rotate(-110.276 295.631 -98.397)" rx="5" ry="5" x="295.631" y="-98.397" width="10.158" height="27.042" fill="#fdca95"/><rect class="rect date-20201014" transform="rotate(-108.126 299.749 -87.447)" rx="5" ry="5" x="299.749" y="-87.447" width="10.158" height="23.862" fill="#fdd19d"/><rect class="rect date-20201015" transform="rotate(-105.981 303.453 -76.35)" rx="5" ry="5" x="303.453" y="-76.35" width="10.158" height="24.163" fill="#fdd09d"/><rect class="rect date-20201016" transform="rotate(-103.84 306.744 -65.123)" rx="5" ry="5" x="306.744" y="-65.123" width="10.158" height="30.012" fill="#fdc38d"/><rect class="rect date-20201017" transform="rotate(-101.705 309.615 -53.782)" rx="5" ry="5" x="309.615" y="-53.782" width="10.158" height="24.976" fill="#fdcf9a"/><rect class="rect date-20201018" transform="rotate(-99.574 312.056 -42.34)" rx="5" ry="5" x="312.056" y="-42.341" width="10.158" height="16.443" fill="#fedfb5"/><rect class="rect date-20201019" transform="rotate(-97.447 314.067 -30.816)" rx="5" ry="5" x="314.067" y="-30.816" width="10.158" height="9.684" fill="#feeacd"/><rect class="rect date-20201020" transform="rotate(-95.324 315.653 -19.225)" rx="5" ry="5" x="315.653" y="-19.225" width="10.158" height="40.31" fill="#fca26d"/><rect class="rect date-20201021" transform="rotate(-93.207 316.813 -7.584)" rx="5" ry="5" x="316.813" y="-7.584" width="10.158" height="26.853" fill="#fdcb95"/><rect class="rect date-20201022" transform="rotate(-91.093 317.538 4.093)" rx="5" ry="5" x="317.538" y="4.093" width="10.158" height="32.165" fill="#fdbd87"/><rect class="rect date-20201023" transform="rotate(-88.984 317.827 15.788)" rx="5" ry="5" x="317.827" y="15.788" width="10.158" height="33.09" fill="#fdbb84"/><rect class="rect date-20201024" transform="rotate(-86.88 317.687 27.486)" rx="5" ry="5" x="317.687" y="27.486" width="10.158" height="33.228" fill="#fdba84"/><rect class="rect date-20201025" transform="rotate(-84.779 317.123 39.171)" rx="5" ry="5" x="317.123" y="39.171" width="10.158" height="22.006" fill="#fdd5a3"/><rect class="rect date-20201026" transform="rotate(-82.683 316.131 50.828)" rx="5" ry="5" x="316.131" y="50.828" width="10.158" height="24.03" fill="#fdd19d"/><rect class="rect date-20201027" transform="rotate(-80.59 314.706 62.44)" rx="5" ry="5" x="314.706" y="62.44" width="10.158" height="37.283" fill="#fdad77"/><rect class="rect date-20201028" transform="rotate(-78.503 312.858 73.992)" rx="5" ry="5" x="312.858" y="73.992" width="10.158" height="28.77" fill="#fdc690"/><rect class="rect date-20201029" transform="rotate(-76.42 310.596 85.47)" rx="5" ry="5" x="310.596" y="85.47" width="10.158" height="34.9" fill="#fdb57f"/><rect class="rect date-20201030" transform="rotate(-74.34 307.92 96.86)" rx="5" ry="5" x="307.92" y="96.859" width="10.158" height="33.903" fill="#fdb882"/><rect class="rect date-20201031" transform="rotate(-72.265 304.827 108.142)" rx="5" ry="5" x="304.827" y="108.142" width="10.158" height="36.531" fill="#fdb07a"/><rect class="rect date-20201101" transform="rotate(-70.194 301.325 119.304)" rx="5" ry="5" x="301.325" y="119.304" width="10.158" height="21.776" fill="#fdd5a4"/><rect class="rect date-20201102" transform="rotate(-68.042 297.254 130.79)" rx="5" ry="5" x="297.254" y="130.791" width="10.158" height="22.507" fill="#fdd4a1"/><rect class="rect date-20201103" transform="rotate(-65.98 292.947 141.668)" rx="5" ry="5" x="292.947" y="141.668" width="10.158" height="38.428" fill="#fca973"/><rect class="rect date-20201104" transform="rotate(-63.92 288.249 152.382)" rx="5" ry="5" x="288.249" y="152.382" width="10.158" height="49.221" fill="#f78055"/><rect class="rect date-20201105" transform="rotate(-61.867 283.163 162.918)" rx="5" ry="5" x="283.163" y="162.918" width="10.158" height="43.94" fill="#fb9462"/><rect class="rect date-20201106" transform="rotate(-59.816 277.704 173.265)" rx="5" ry="5" x="277.704" y="173.265" width="10.158" height="38.577" fill="#fca873"/><rect class="rect date-20201107" transform="rotate(-57.77 271.883 183.413)" rx="5" ry="5" x="271.883" y="183.413" width="10.158" height="40.954" fill="#fca06b"/><rect class="rect date-20201108" transform="rotate(-55.728 265.705 193.347)" rx="5" ry="5" x="265.705" y="193.347" width="10.158" height="29.067" fill="#fdc68f"/><rect class="rect date-20201109" transform="rotate(-53.69 259.17 203.051)" rx="5" ry="5" x="259.171" y="203.051" width="10.158" height="34.691" fill="#fdb680"/><rect class="rect date-20201110" transform="rotate(-51.655 252.294 212.516)" rx="5" ry="5" x="252.294" y="212.516" width="10.158" height="57.32" fill="#ed6143"/><rect class="rect date-20201111" transform="rotate(-49.624 245.09 221.733)" rx="5" ry="5" x="245.09" y="221.733" width="10.158" height="57.008" fill="#ed6344"/><rect class="rect date-20201112" transform="rotate(-47.597 237.565 230.692)" rx="5" ry="5" x="237.565" y="230.692" width="10.158" height="43.26" fill="#fb9764"/><rect class="rect date-20201113" transform="rotate(-45.575 229.727 239.377)" rx="5" ry="5" x="229.727" y="239.377" width="10.158" height="56.967" fill="#ed6344"/><rect class="rect date-20201114" transform="rotate(-43.556 221.582 247.775)" rx="5" ry="5" x="221.582" y="247.775" width="10.158" height="46.921" fill="#f9895a"/><rect class="rect date-20201115" transform="rotate(-41.54 213.149 255.883)" rx="5" ry="5" x="213.149" y="255.883" width="10.158" height="33.545" fill="#fdb983"/><rect class="rect date-20201116" transform="rotate(-39.53 204.438 263.693)" rx="5" ry="5" x="204.438" y="263.693" width="10.158" height="36.649" fill="#fdaf79"/><rect class="rect date-20201117" transform="rotate(-37.522 195.46 271.193)" rx="5" ry="5" x="195.46" y="271.193" width="10.158" height="59.432" fill="#e9583d"/><rect class="rect date-20201118" transform="rotate(-35.518 186.22 278.37)" rx="5" ry="5" x="186.22" y="278.37" width="10.158" height="45.351" fill="#fa8f5e"/><rect class="rect date-20201119" transform="rotate(-33.518 176.735 285.217)" rx="5" ry="5" x="176.735" y="285.217" width="10.158" height="63.911" fill="#e0452f"/><rect class="rect date-20201120" transform="rotate(-31.522 167.018 291.732)" rx="5" ry="5" x="167.018" y="291.732" width="10.158" height="60.408" fill="#e7543a"/><rect class="rect date-20201121" transform="rotate(-29.529 157.082 297.908)" rx="5" ry="5" x="157.082" y="297.908" width="10.158" height="65.578" fill="#dc3d2a"/><rect class="rect date-20201122" transform="rotate(-27.54 146.936 303.733)" rx="5" ry="5" x="146.936" y="303.733" width="10.158" height="44.743" fill="#fa9160"/><rect class="rect date-20201123" transform="rotate(-25.555 136.591 309.197)" rx="5" ry="5" x="136.591" y="309.197" width="10.158" height="34.277" fill="#fdb781"/><rect class="rect date-20201124" transform="rotate(-23.573 126.064 314.3)" rx="5" ry="5" x="126.064" y="314.3" width="10.158" height="73.584" fill="#c61b11"/><rect class="rect date-20201125" transform="rotate(-21.595 115.369 319.041)" rx="5" ry="5" x="115.369" y="319.041" width="10.158" height="79.807" fill="#b00805"/><rect class="rect date-20201126" transform="rotate(-19.62 104.517 323.411)" rx="5" ry="5" x="104.517" y="323.411" width="10.158" height="64.606" fill="#de422d"/><rect class="rect date-20201127" transform="rotate(-17.65 93.519 327.4)" rx="5" ry="5" x="93.519" y="327.401" width="10.158" height="17.532" fill="#fdddb2"/><rect class="rect date-20201128" transform="rotate(-15.682 82.389 331.006)" rx="5" ry="5" x="82.389" y="331.006" width="10.158" height="20.574" fill="#fdd7a8"/><rect class="rect date-20201129" transform="rotate(-13.719 71.143 334.23)" rx="5" ry="5" x="71.143" y="334.23" width="10.158" height="31.72" fill="#fdbf88"/><rect class="rect date-20201130" transform="rotate(-11.758 59.794 337.07)" rx="5" ry="5" x="59.794" y="337.07" width="10.158" height="55.413" fill="#f06948"/><rect class="rect date-20201201" transform="rotate(-9.802 48.355 339.521)" rx="5" ry="5" x="48.355" y="339.521" width="10.158" height="82.516" fill="#a50302"/><rect class="rect date-20201202" transform="rotate(-7.848 36.837 341.573)" rx="5" ry="5" x="36.837" y="341.573" width="10.158" height="83.974" fill="#9f0201"/><rect class="rect date-20201203" transform="rotate(-5.899 25.256 343.231)" rx="5" ry="5" x="25.256" y="343.231" width="10.158" height="73.825" fill="#c51a11"/><rect class="rect date-20201204" transform="rotate(-3.952 13.626 344.499)" rx="5" ry="5" x="13.626" y="344.499" width="10.158" height="70.041" fill="#d0291b"/><rect class="rect date-20201205" transform="rotate(-2.01 1.96 345.373)" rx="5" ry="5" x="1.959" y="345.373" width="10.158" height="61.037" fill="#e65138"/><rect class="rect date-20201206" transform="rotate(-.07 -9.73 345.85)" rx="5" ry="5" x="-9.73" y="345.849" width="10.158" height="43.833" fill="#fb9562"/><rect class="rect date-20201207" transform="rotate(1.866 -21.427 345.8)" rx="5" ry="5" x="-21.427" y="345.799" width="10.158" height="45.458" fill="#fa8e5e"/><rect class="rect date-20201208" transform="rotate(3.8 -33.112 345.228)" rx="5" ry="5" x="-33.112" y="345.228" width="10.158" height="73.063" fill="#c71d13"/><rect class="rect date-20201209" transform="rotate(5.733 -44.783 344.403)" rx="5" ry="5" x="-44.783" y="344.403" width="10.158" height="57.111" fill="#ed6244"/><rect class="rect date-20201210" transform="rotate(7.663 -56.44 343.416)" rx="5" ry="5" x="-56.441" y="343.416" width="10.158" height="63.696" fill="#e04630"/><rect class="rect date-20201211" transform="rotate(9.586 -68.087 342.294)" rx="5" ry="5" x="-68.087" y="342.294" width="10.158" height="60.056" fill="#e8563b"/><rect class="background date-20200304" transform="rotate(-180 0 -64)" rx="5" ry="5" height="91.111" y="-64" width="10.158" fill="none"/><rect class="background date-20200305" transform="rotate(-178.662 11.502 -66.093)" rx="5" ry="5" x="11.502" height="91.111" y="-66.093" width="10.158" fill="none"/><rect class="background date-20200306" transform="rotate(-168.86 23.186 -66.095)" rx="5" ry="5" x="23.186" height="91.111" y="-66.095" width="10.158" fill="none"/><rect class="background date-20200307" transform="rotate(-159.45 34.7 -64.1)" rx="5" ry="5" x="34.7" height="91.111" y="-64.099" width="10.158" fill="none"/><rect class="background date-20200308" transform="rotate(-150.397 45.732 -60.242)" rx="5" ry="5" x="45.732" height="91.111" y="-60.242" width="10.158" fill="none"/><rect class="background date-20200309" transform="rotate(-142.02 55.607 -54.955)" rx="5" ry="5" x="55.607" height="91.111" y="-54.955" width="10.158" fill="none"/><rect class="background date-20200310" transform="rotate(-133.563 64.971 -47.96)" rx="5" ry="5" x="64.971" height="91.111" y="-47.959" width="10.158" fill="none"/><rect class="background date-20200311" transform="rotate(-125.367 73.2 -39.657)" rx="5" ry="5" x="73.201" height="91.111" y="-39.657" width="10.158" fill="none"/><rect class="background date-20200312" transform="rotate(-117.412 80.157 -30.262)" rx="5" ry="5" x="80.157" height="91.111" y="-30.262" width="10.158" fill="none"/><rect class="background date-20200313" transform="rotate(-109.676 85.741 -19.992)" rx="5" ry="5" x="85.741" height="91.111" y="-19.992" width="10.158" fill="none"/><rect class="background date-20200314" transform="rotate(-102.144 89.889 -9.061)" rx="5" ry="5" x="89.889" height="91.111" y="-9.061" width="10.158" fill="none"/><rect class="background date-20200315" transform="rotate(-94.8 92.567 2.319)" rx="5" ry="5" x="92.567" height="91.111" y="2.319" width="10.158" fill="none"/><rect class="background date-20200316" transform="rotate(-87.63 93.764 13.95)" rx="5" ry="5" x="93.764" height="91.111" y="13.949" width="10.158" fill="none"/><rect class="background date-20200317" transform="rotate(-80.624 93.492 25.638)" rx="5" ry="5" x="93.492" height="91.111" y="25.638" width="10.158" fill="none"/><rect class="background date-20200318" transform="rotate(-73.77 91.792 37.206)" rx="5" ry="5" x="91.792" height="91.111" y="37.206" width="10.158" fill="none"/><rect class="background date-20200319" transform="rotate(-67.06 88.725 48.49)" rx="5" ry="5" x="88.725" height="91.111" y="48.49" width="10.158" fill="none"/><rect class="background date-20200320" transform="rotate(-60.484 84.356 59.336)" rx="5" ry="5" x="84.356" height="91.111" y="59.336" width="10.158" fill="none"/><rect class="background date-20200321" transform="rotate(-54.035 78.766 69.606)" rx="5" ry="5" x="78.766" height="91.111" y="69.606" width="10.158" fill="none"/><rect class="background date-20200322" transform="rotate(-47.705 72.058 79.185)" rx="5" ry="5" x="72.058" height="91.111" y="79.185" width="10.158" fill="none"/><rect class="background date-20200323" transform="rotate(-41.49 64.336 87.966)" rx="5" ry="5" x="64.336" height="91.111" y="87.966" width="10.158" fill="none"/><rect class="background date-20200324" transform="rotate(-35.382 55.7 95.851)" rx="5" ry="5" x="55.701" height="91.111" y="95.851" width="10.158" fill="none"/><rect class="background date-20200325" transform="rotate(-29.376 46.277 102.775)" rx="5" ry="5" x="46.277" height="91.111" y="102.775" width="10.158" fill="none"/><rect class="background date-20200326" transform="rotate(-23.468 36.18 108.674)" rx="5" ry="5" x="36.179" height="91.111" y="108.674" width="10.158" fill="none"/><rect class="background date-20200327" transform="rotate(-17.652 25.524 113.494)" rx="5" ry="5" x="25.524" height="91.111" y="113.494" width="10.158" fill="none"/><rect class="background date-20200328" transform="rotate(-11.925 14.437 117.215)" rx="5" ry="5" x="14.437" height="91.111" y="117.215" width="10.158" fill="none"/><rect class="background date-20200329" transform="rotate(-6.283 3.033 119.804)" rx="5" ry="5" x="3.033" height="91.111" y="119.804" width="10.158" fill="none"/><rect class="background date-20200330" transform="rotate(-.722 -8.572 121.255)" rx="5" ry="5" x="-8.572" height="91.111" y="121.255" width="10.158" fill="none"/><rect class="background date-20200331" transform="rotate(4.762 -20.262 121.58)" rx="5" ry="5" x="-20.262" height="91.111" y="121.58" width="10.158" fill="none"/><rect class="background date-20200401" transform="rotate(10.17 -31.93 120.775)" rx="5" ry="5" x="-31.93" height="91.111" y="120.775" width="10.158" fill="none"/><rect class="background date-20200402" transform="rotate(15.508 -43.47 118.88)" rx="5" ry="5" x="-43.471" height="91.111" y="118.88" width="10.158" fill="none"/><rect class="background date-20200403" transform="rotate(20.776 -54.783 115.912)" rx="5" ry="5" x="-54.783" height="91.111" y="115.912" width="10.158" fill="none"/><rect class="background date-20200404" transform="rotate(25.978 -65.775 111.918)" rx="5" ry="5" x="-65.775" height="91.111" y="111.918" width="10.158" fill="none"/><rect class="background date-20200405" transform="rotate(31.117 -76.36 106.944)" rx="5" ry="5" x="-76.361" height="91.111" y="106.944" width="10.158" fill="none"/><rect class="background date-20200406" transform="rotate(36.193 -86.454 101.036)" rx="5" ry="5" x="-86.454" height="91.111" y="101.036" width="10.158" fill="none"/><rect class="background date-20200407" transform="rotate(41.21 -95.99 94.263)" rx="5" ry="5" x="-95.989" height="91.111" y="94.263" width="10.158" fill="none"/><rect class="background date-20200408" transform="rotate(46.17 -104.888 86.673)" rx="5" ry="5" x="-104.888" height="91.111" y="86.673" width="10.158" fill="none"/><rect class="background date-20200409" transform="rotate(51.075 -113.104 78.349)" rx="5" ry="5" x="-113.104" height="91.111" y="78.349" width="10.158" fill="none"/><rect class="background date-20200410" transform="rotate(55.925 -120.569 69.344)" rx="5" ry="5" x="-120.569" height="91.111" y="69.344" width="10.158" fill="none"/><rect class="background date-20200411" transform="rotate(60.724 -127.252 59.746)" rx="5" ry="5" x="-127.252" height="91.111" y="59.746" width="10.158" fill="none"/><rect class="background date-20200412" transform="rotate(65.472 -133.1 49.616)" rx="5" ry="5" x="-133.1" height="91.111" y="49.616" width="10.158" fill="none"/><rect class="background date-20200413" transform="rotate(70.172 -138.096 39.041)" rx="5" ry="5" x="-138.096" height="91.111" y="39.041" width="10.158" fill="none"/><rect class="background date-20200414" transform="rotate(74.824 -142.199 28.088)" rx="5" ry="5" x="-142.199" height="91.111" y="28.088" width="10.158" fill="none"/><rect class="background date-20200415" transform="rotate(79.43 -145.408 16.84)" rx="5" ry="5" x="-145.408" height="91.111" y="16.84" width="10.158" fill="none"/><rect class="background date-20200416" transform="rotate(83.992 -147.692 5.369)" rx="5" ry="5" x="-147.692" height="91.111" y="5.369" width="10.158" fill="none"/><rect class="background date-20200417" transform="rotate(88.51 -149.066 -6.247)" rx="5" ry="5" x="-149.066" height="91.111" y="-6.247" width="10.158" fill="none"/><rect class="background date-20200418" transform="rotate(-267.013 -149.508 -17.935)" rx="5" ry="5" x="-149.508" height="91.111" y="-17.935" width="10.158" fill="none"/><rect class="background date-20200419" transform="rotate(-262.578 -149.046 -29.622)" rx="5" ry="5" x="-149.046" height="91.111" y="-29.622" width="10.158" fill="none"/><rect class="background date-20200420" transform="rotate(-258.182 -147.67 -41.238)" rx="5" ry="5" x="-147.671" height="91.111" y="-41.238" width="10.158" fill="none"/><rect class="background date-20200421" transform="rotate(-253.826 -145.418 -52.716)" rx="5" ry="5" x="-145.418" height="91.111" y="-52.716" width="10.158" fill="none"/><rect class="background date-20200422" transform="rotate(-249.507 -142.288 -63.986)" rx="5" ry="5" x="-142.288" height="91.111" y="-63.986" width="10.158" fill="none"/><rect class="background date-20200423" transform="rotate(-245.225 -138.327 -74.992)" rx="5" ry="5" x="-138.327" height="91.111" y="-74.992" width="10.158" fill="none"/><rect class="background date-20200424" transform="rotate(-240.98 -133.547 -85.667)" rx="5" ry="5" x="-133.547" height="91.111" y="-85.667" width="10.158" fill="none"/><rect class="background date-20200425" transform="rotate(-236.768 -127.994 -95.962)" rx="5" ry="5" x="-127.994" height="91.111" y="-95.962" width="10.158" fill="none"/><rect class="background date-20200426" transform="rotate(-232.591 -121.695 -105.818)" rx="5" ry="5" x="-121.695" height="91.111" y="-105.818" width="10.158" fill="none"/><rect class="background date-20200427" transform="rotate(-228.448 -114.697 -115.19)" rx="5" ry="5" x="-114.697" height="91.111" y="-115.191" width="10.158" fill="none"/><rect class="background date-20200428" transform="rotate(-224.337 -107.039 -124.032)" rx="5" ry="5" x="-107.039" height="91.111" y="-124.032" width="10.158" fill="none"/><rect class="background date-20200429" transform="rotate(-220.258 -98.764 -132.3)" rx="5" ry="5" x="-98.764" height="91.111" y="-132.299" width="10.158" fill="none"/><rect class="background date-20200430" transform="rotate(-216.21 -89.925 -139.961)" rx="5" ry="5" x="-89.925" height="91.111" y="-139.961" width="10.158" fill="none"/><rect class="background date-20200501" transform="rotate(-212.193 -80.562 -146.972)" rx="5" ry="5" x="-80.562" height="91.111" y="-146.972" width="10.158" fill="none"/><rect class="background date-20200502" transform="rotate(-208.205 -70.735 -153.317)" rx="5" ry="5" x="-70.735" height="91.111" y="-153.317" width="10.158" fill="none"/><rect class="background date-20200503" transform="rotate(-204.247 -60.486 -158.954)" rx="5" ry="5" x="-60.486" height="91.111" y="-158.954" width="10.158" fill="none"/><rect class="background date-20200504" transform="rotate(-200.317 -49.875 -163.876)" rx="5" ry="5" x="-49.875" height="91.111" y="-163.876" width="10.158" fill="none"/><rect class="background date-20200505" transform="rotate(-196.415 -38.95 -168.055)" rx="5" ry="5" x="-38.949" height="91.111" y="-168.055" width="10.158" fill="none"/><rect class="background date-20200506" transform="rotate(-192.54 -27.765 -171.48)" rx="5" ry="5" x="-27.765" height="91.111" y="-171.48" width="10.158" fill="none"/><rect class="background date-20200507" transform="rotate(-188.692 -16.375 -174.146)" rx="5" ry="5" x="-16.375" height="91.111" y="-174.146" width="10.158" fill="none"/><rect class="background date-20200508" transform="rotate(-184.87 -4.83 -176.03)" rx="5" ry="5" x="-4.83" height="91.111" y="-176.031" width="10.158" fill="none"/><rect class="background date-20200509" transform="rotate(-181.073 6.813 -177.151)" rx="5" ry="5" x="6.813" height="91.111" y="-177.151" width="10.158" fill="none"/><rect class="background date-20200510" transform="rotate(-177.302 18.506 -177.489)" rx="5" ry="5" x="18.506" height="91.111" y="-177.489" width="10.158" fill="none"/><rect class="background date-20200511" transform="rotate(-173.555 30.195 -177.061)" rx="5" ry="5" x="30.195" height="91.111" y="-177.061" width="10.158" fill="none"/><rect class="background date-20200512" transform="rotate(-169.833 41.832 -175.871)" rx="5" ry="5" x="41.832" height="91.111" y="-175.871" width="10.158" fill="none"/><rect class="background date-20200513" transform="rotate(-166.134 53.366 -173.92)" rx="5" ry="5" x="53.366" height="91.111" y="-173.92" width="10.158" fill="none"/><rect class="background date-20200514" transform="rotate(-162.459 64.752 -171.238)" rx="5" ry="5" x="64.752" height="91.111" y="-171.238" width="10.158" fill="none"/><rect class="background date-20200515" transform="rotate(-158.807 75.94 -167.822)" rx="5" ry="5" x="75.94" height="91.111" y="-167.822" width="10.158" fill="none"/><rect class="background date-20200516" transform="rotate(-155.176 86.889 -163.705)" rx="5" ry="5" x="86.889" height="91.111" y="-163.705" width="10.158" fill="none"/><rect class="background date-20200517" transform="rotate(-151.568 97.555 -158.903)" rx="5" ry="5" x="97.555" height="91.111" y="-158.903" width="10.158" fill="none"/><rect class="background date-20200518" transform="rotate(-147.982 107.895 -153.433)" rx="5" ry="5" x="107.895" height="91.111" y="-153.433" width="10.158" fill="none"/><rect class="background date-20200519" transform="rotate(-144.416 117.877 -147.333)" rx="5" ry="5" x="117.877" height="91.111" y="-147.333" width="10.158" fill="none"/><rect class="background date-20200520" transform="rotate(-140.872 127.455 -140.618)" rx="5" ry="5" x="127.455" height="91.111" y="-140.618" width="10.158" fill="none"/><rect class="background date-20200521" transform="rotate(-137.348 136.601 -133.326)" rx="5" ry="5" x="136.601" height="91.111" y="-133.326" width="10.158" fill="none"/><rect class="background date-20200522" transform="rotate(-133.844 145.285 -125.487)" rx="5" ry="5" x="145.285" height="91.111" y="-125.487" width="10.158" fill="none"/><rect class="background date-20200523" transform="rotate(-130.36 153.465 -117.126)" rx="5" ry="5" x="153.465" height="91.111" y="-117.126" width="10.158" fill="none"/><rect class="background date-20200524" transform="rotate(-126.896 161.13 -108.288)" rx="5" ry="5" x="161.129" height="91.111" y="-108.288" width="10.158" fill="none"/><rect class="background date-20200525" transform="rotate(-123.45 168.241 -99.001)" rx="5" ry="5" x="168.241" height="91.111" y="-99.001" width="10.158" fill="none"/><rect class="background date-20200526" transform="rotate(-120.024 174.78 -89.301)" rx="5" ry="5" x="174.78" height="91.111" y="-89.301" width="10.158" fill="none"/><rect class="background date-20200527" transform="rotate(-116.616 180.734 -79.232)" rx="5" ry="5" x="180.734" height="91.111" y="-79.232" width="10.158" fill="none"/><rect class="background date-20200528" transform="rotate(-113.227 186.07 -68.822)" rx="5" ry="5" x="186.07" height="91.111" y="-68.822" width="10.158" fill="none"/><rect class="background date-20200529" transform="rotate(-109.855 190.784 -58.116)" rx="5" ry="5" x="190.784" height="91.111" y="-58.116" width="10.158" fill="none"/><rect class="background date-20200530" transform="rotate(-106.5 194.864 -47.152)" rx="5" ry="5" x="194.864" height="91.111" y="-47.152" width="10.158" fill="none"/><rect class="background date-20200531" transform="rotate(-103.164 198.286 -35.966)" rx="5" ry="5" x="198.286" height="91.111" y="-35.966" width="10.158" fill="none"/><rect class="background date-20200601" transform="rotate(-99.845 201.058 -24.602)" rx="5" ry="5" x="201.058" height="91.111" y="-24.602" width="10.158" fill="none"/><rect class="background date-20200602" transform="rotate(-96.542 203.166 -13.095)" rx="5" ry="5" x="203.166" height="91.111" y="-13.095" width="10.158" fill="none"/><rect class="background date-20200603" transform="rotate(-93.256 204.6 -1.485)" rx="5" ry="5" x="204.601" height="91.111" y="-1.485" width="10.158" fill="none"/><rect class="background date-20200604" transform="rotate(-89.986 205.376 10.187)" rx="5" ry="5" x="205.376" height="91.111" y="10.187" width="10.158" fill="none"/><rect class="background date-20200605" transform="rotate(-86.733 205.479 21.884)" rx="5" ry="5" x="205.479" height="91.111" y="21.884" width="10.158" fill="none"/><rect class="background date-20200606" transform="rotate(-83.495 204.915 33.569)" rx="5" ry="5" x="204.915" height="91.111" y="33.569" width="10.158" fill="none"/><rect class="background date-20200607" transform="rotate(-80.273 203.699 45.204)" rx="5" ry="5" x="203.699" height="91.111" y="45.204" width="10.158" fill="none"/><rect class="background date-20200608" transform="rotate(-77.066 201.823 56.75)" rx="5" ry="5" x="201.823" height="91.111" y="56.75" width="10.158" fill="none"/><rect class="background date-20200609" transform="rotate(-73.875 199.306 68.174)" rx="5" ry="5" x="199.306" height="91.111" y="68.174" width="10.158" fill="none"/><rect class="background date-20200610" transform="rotate(-70.699 196.161 79.442)" rx="5" ry="5" x="196.161" height="91.111" y="79.442" width="10.158" fill="none"/><rect class="background date-20200611" transform="rotate(-67.537 192.389 90.515)" rx="5" ry="5" x="192.389" height="91.111" y="90.515" width="10.158" fill="none"/><rect class="background date-20200612" transform="rotate(-64.39 188.014 101.364)" rx="5" ry="5" x="188.014" height="91.111" y="101.364" width="10.158" fill="none"/><rect class="background date-20200613" transform="rotate(-61.258 183.055 111.959)" rx="5" ry="5" x="183.055" height="91.111" y="111.959" width="10.158" fill="none"/><rect class="background date-20200614" transform="rotate(-58.14 177.515 122.262)" rx="5" ry="5" x="177.515" height="91.111" y="122.262" width="10.158" fill="none"/><rect class="background date-20200615" transform="rotate(-55.035 171.427 132.252)" rx="5" ry="5" x="171.427" height="91.111" y="132.252" width="10.158" fill="none"/><rect class="background date-20200616" transform="rotate(-51.944 164.81 141.898)" rx="5" ry="5" x="164.81" height="91.111" y="141.898" width="10.158" fill="none"/><rect class="background date-20200617" transform="rotate(-48.868 157.675 151.169)" rx="5" ry="5" x="157.675" height="91.111" y="151.169" width="10.158" fill="none"/><rect class="background date-20200618" transform="rotate(-45.804 150.056 160.045)" rx="5" ry="5" x="150.056" height="91.111" y="160.045" width="10.158" fill="none"/><rect class="background date-20200619" transform="rotate(-42.754 141.976 168.505)" rx="5" ry="5" x="141.976" height="91.111" y="168.505" width="10.158" fill="none"/><rect class="background date-20200620" transform="rotate(-39.717 133.451 176.516)" rx="5" ry="5" x="133.451" height="91.111" y="176.516" width="10.158" fill="none"/><rect class="background date-20200621" transform="rotate(-36.693 124.517 184.067)" rx="5" ry="5" x="124.517" height="91.111" y="184.067" width="10.158" fill="none"/><rect class="background date-20200622" transform="rotate(-33.681 115.198 191.14)" rx="5" ry="5" x="115.198" height="91.111" y="191.14" width="10.158" fill="none"/><rect class="background date-20200623" transform="rotate(-30.683 105.516 197.705)" rx="5" ry="5" x="105.516" height="91.111" y="197.705" width="10.158" fill="none"/><rect class="background date-20200624" transform="rotate(-27.696 95.506 203.758)" rx="5" ry="5" x="95.506" height="91.111" y="203.758" width="10.158" fill="none"/><rect class="background date-20200625" transform="rotate(-24.722 85.196 209.286)" rx="5" ry="5" x="85.196" height="91.111" y="209.286" width="10.158" fill="none"/><rect class="background date-20200626" transform="rotate(-21.76 74.61 214.263)" rx="5" ry="5" x="74.609" height="91.111" y="214.263" width="10.158" fill="none"/><rect class="background date-20200627" transform="rotate(-18.81 63.78 218.689)" rx="5" ry="5" x="63.78" height="91.111" y="218.689" width="10.158" fill="none"/><rect class="background date-20200628" transform="rotate(-15.873 52.74 222.556)" rx="5" ry="5" x="52.74" height="91.111" y="222.556" width="10.158" fill="none"/><rect class="background date-20200629" transform="rotate(-12.947 41.513 225.845)" rx="5" ry="5" x="41.513" height="91.111" y="225.845" width="10.158" fill="none"/><rect class="background date-20200630" transform="rotate(-10.032 30.134 228.558)" rx="5" ry="5" x="30.134" height="91.111" y="228.558" width="10.158" fill="none"/><rect class="background date-20200701" transform="rotate(-7.129 18.632 230.694)" rx="5" ry="5" x="18.632" height="91.111" y="230.694" width="10.158" fill="none"/><rect class="background date-20200702" transform="rotate(-4.237 7.036 232.238)" rx="5" ry="5" x="7.036" height="91.111" y="232.238" width="10.158" fill="none"/><rect class="background date-20200703" transform="rotate(-1.357 -4.623 233.194)" rx="5" ry="5" x="-4.623" height="91.111" y="233.194" width="10.158" fill="none"/><rect class="background date-20200704" transform="rotate(1.513 -16.315 233.569)" rx="5" ry="5" x="-16.315" height="91.111" y="233.569" width="10.158" fill="none"/><rect class="background date-20200705" transform="rotate(4.372 -28.012 233.354)" rx="5" ry="5" x="-28.012" height="91.111" y="233.354" width="10.158" fill="none"/><rect class="background date-20200706" transform="rotate(7.22 -39.683 232.551)" rx="5" ry="5" x="-39.683" height="91.111" y="232.551" width="10.158" fill="none"/><rect class="background date-20200707" transform="rotate(10.057 -51.3 231.177)" rx="5" ry="5" x="-51.3" height="91.111" y="231.177" width="10.158" fill="none"/><rect class="background date-20200708" transform="rotate(12.883 -62.835 229.228)" rx="5" ry="5" x="-62.835" height="91.111" y="229.228" width="10.158" fill="none"/><rect class="background date-20200709" transform="rotate(15.7 -74.258 226.705)" rx="5" ry="5" x="-74.258" height="91.111" y="226.705" width="10.158" fill="none"/><rect class="background date-20200710" transform="rotate(18.505 -85.545 223.63)" rx="5" ry="5" x="-85.545" height="91.111" y="223.63" width="10.158" fill="none"/><rect class="background date-20200711" transform="rotate(21.301 -96.669 220.008)" rx="5" ry="5" x="-96.669" height="91.111" y="220.008" width="10.158" fill="none"/><rect class="background date-20200712" transform="rotate(24.086 -107.599 215.84)" rx="5" ry="5" x="-107.599" height="91.111" y="215.839" width="10.158" fill="none"/><rect class="background date-20200713" transform="rotate(26.862 -118.316 211.148)" rx="5" ry="5" x="-118.316" height="91.111" y="211.148" width="10.158" fill="none"/><rect class="background date-20200714" transform="rotate(29.628 -128.794 205.947)" rx="5" ry="5" x="-128.794" height="91.111" y="205.947" width="10.158" fill="none"/><rect class="background date-20200715" transform="rotate(32.383 -139.007 200.241)" rx="5" ry="5" x="-139.007" height="91.111" y="200.241" width="10.158" fill="none"/><rect class="background date-20200716" transform="rotate(35.13 -148.933 194.05)" rx="5" ry="5" x="-148.933" height="91.111" y="194.05" width="10.158" fill="none"/><rect class="background date-20200717" transform="rotate(37.866 -158.554 187.395)" rx="5" ry="5" x="-158.554" height="91.111" y="187.395" width="10.158" fill="none"/><rect class="background date-20200718" transform="rotate(40.593 -167.845 180.287)" rx="5" ry="5" x="-167.845" height="91.111" y="180.287" width="10.158" fill="none"/><rect class="background date-20200719" transform="rotate(43.31 -176.783 172.739)" rx="5" ry="5" x="-176.783" height="91.111" y="172.739" width="10.158" fill="none"/><rect class="background date-20200720" transform="rotate(46.02 -185.357 164.78)" rx="5" ry="5" x="-185.357" height="91.111" y="164.781" width="10.158" fill="none"/><rect class="background date-20200721" transform="rotate(48.718 -193.547 156.427)" rx="5" ry="5" x="-193.547" height="91.111" y="156.427" width="10.158" fill="none"/><rect class="background date-20200722" transform="rotate(51.408 -201.329 147.692)" rx="5" ry="5" x="-201.329" height="91.111" y="147.692" width="10.158" fill="none"/><rect class="background date-20200723" transform="rotate(54.09 -208.694 138.603)" rx="5" ry="5" x="-208.694" height="91.111" y="138.603" width="10.158" fill="none"/><rect class="background date-20200724" transform="rotate(56.762 -215.63 129.182)" rx="5" ry="5" x="-215.63" height="91.111" y="129.182" width="10.158" fill="none"/><rect class="background date-20200725" transform="rotate(59.425 -222.114 119.446)" rx="5" ry="5" x="-222.114" height="91.111" y="119.446" width="10.158" fill="none"/><rect class="background date-20200726" transform="rotate(62.08 -228.137 109.416)" rx="5" ry="5" x="-228.137" height="91.111" y="109.416" width="10.158" fill="none"/><rect class="background date-20200727" transform="rotate(64.725 -233.694 99.122)" rx="5" ry="5" x="-233.694" height="91.111" y="99.122" width="10.158" fill="none"/><rect class="background date-20200728" transform="rotate(67.363 -238.77 88.582)" rx="5" ry="5" x="-238.77" height="91.111" y="88.582" width="10.158" fill="none"/><rect class="background date-20200729" transform="rotate(69.991 -243.348 77.816)" rx="5" ry="5" x="-243.348" height="91.111" y="77.816" width="10.158" fill="none"/><rect class="background date-20200730" transform="rotate(72.612 -247.431 66.854)" rx="5" ry="5" x="-247.431" height="91.111" y="66.854" width="10.158" fill="none"/><rect class="background date-20200731" transform="rotate(75.224 -251.014 55.717)" rx="5" ry="5" x="-251.014" height="91.111" y="55.717" width="10.158" fill="none"/><rect class="background date-20200801" transform="rotate(77.828 -254.079 44.427)" rx="5" ry="5" x="-254.079" height="91.111" y="44.427" width="10.158" fill="none"/><rect class="background date-20200802" transform="rotate(80.423 -256.625 33.01)" rx="5" ry="5" x="-256.625" height="91.111" y="33.009" width="10.158" fill="none"/><rect class="background date-20200803" transform="rotate(83.01 -258.658 21.489)" rx="5" ry="5" x="-258.658" height="91.111" y="21.489" width="10.158" fill="none"/><rect class="background date-20200804" transform="rotate(85.59 -260.17 9.888)" rx="5" ry="5" x="-260.17" height="91.111" y="9.888" width="10.158" fill="none"/><rect class="background date-20200805" transform="rotate(88.162 -261.149 -1.77)" rx="5" ry="5" x="-261.149" height="91.111" y="-1.77" width="10.158" fill="none"/><rect class="background date-20200806" transform="rotate(-269.274 -261.608 -13.46)" rx="5" ry="5" x="-261.608" height="91.111" y="-13.459" width="10.158" fill="none"/><rect class="background date-20200807" transform="rotate(-266.719 -261.548 -25.158)" rx="5" ry="5" x="-261.548" height="91.111" y="-25.158" width="10.158" fill="none"/><rect class="background date-20200808" transform="rotate(-264.17 -260.962 -36.842)" rx="5" ry="5" x="-260.962" height="91.111" y="-36.842" width="10.158" fill="none"/><rect class="background date-20200809" transform="rotate(-261.63 -259.853 -48.488)" rx="5" ry="5" x="-259.853" height="91.111" y="-48.488" width="10.158" fill="none"/><rect class="background date-20200810" transform="rotate(-259.097 -258.234 -60.074)" rx="5" ry="5" x="-258.234" height="91.111" y="-60.074" width="10.158" fill="none"/><rect class="background date-20200811" transform="rotate(-256.572 -256.107 -71.577)" rx="5" ry="5" x="-256.107" height="91.111" y="-71.577" width="10.158" fill="none"/><rect class="background date-20200812" transform="rotate(-254.054 -253.468 -82.974)" rx="5" ry="5" x="-253.468" height="91.111" y="-82.974" width="10.158" fill="none"/><rect class="background date-20200813" transform="rotate(-251.543 -250.331 -94.245)" rx="5" ry="5" x="-250.331" height="91.111" y="-94.245" width="10.158" fill="none"/><rect class="background date-20200814" transform="rotate(-249.04 -246.71 -105.368)" rx="5" ry="5" x="-246.71" height="91.111" y="-105.368" width="10.158" fill="none"/><rect class="background date-20200815" transform="rotate(-246.545 -242.604 -116.323)" rx="5" ry="5" x="-242.604" height="91.111" y="-116.323" width="10.158" fill="none"/><rect class="background date-20200816" transform="rotate(-244.056 -238.018 -127.085)" rx="5" ry="5" x="-238.018" height="91.111" y="-127.085" width="10.158" fill="none"/><rect class="background date-20200817" transform="rotate(-241.574 -232.974 -137.64)" rx="5" ry="5" x="-232.974" height="91.111" y="-137.641" width="10.158" fill="none"/><rect class="background date-20200818" transform="rotate(-239.1 -227.48 -147.97)" rx="5" ry="5" x="-227.481" height="91.111" y="-147.97" width="10.158" fill="none"/><rect class="background date-20200819" transform="rotate(-236.633 -221.542 -158.049)" rx="5" ry="5" x="-221.542" height="91.111" y="-158.049" width="10.158" fill="none"/><rect class="background date-20200820" transform="rotate(-234.172 -215.172 -167.861)" rx="5" ry="5" x="-215.172" height="91.111" y="-167.861" width="10.158" fill="none"/><rect class="background date-20200821" transform="rotate(-231.718 -208.392 -177.394)" rx="5" ry="5" x="-208.392" height="91.111" y="-177.394" width="10.158" fill="none"/><rect class="background date-20200822" transform="rotate(-229.272 -201.21 -186.63)" rx="5" ry="5" x="-201.211" height="91.111" y="-186.63" width="10.158" fill="none"/><rect class="background date-20200823" transform="rotate(-226.832 -193.636 -195.545)" rx="5" ry="5" x="-193.636" height="91.111" y="-195.545" width="10.158" fill="none"/><rect class="background date-20200824" transform="rotate(-224.399 -185.69 -204.13)" rx="5" ry="5" x="-185.69" height="91.111" y="-204.131" width="10.158" fill="none"/><rect class="background date-20200825" transform="rotate(-221.972 -177.39 -212.375)" rx="5" ry="5" x="-177.389" height="91.111" y="-212.375" width="10.158" fill="none"/><rect class="background date-20200826" transform="rotate(-219.552 -168.748 -220.26)" rx="5" ry="5" x="-168.748" height="91.111" y="-220.26" width="10.158" fill="none"/><rect class="background date-20200827" transform="rotate(-217.14 -159.775 -227.768)" rx="5" ry="5" x="-159.775" height="91.111" y="-227.768" width="10.158" fill="none"/><rect class="background date-20200828" transform="rotate(-214.732 -150.496 -234.893)" rx="5" ry="5" x="-150.496" height="91.111" y="-234.893" width="10.158" fill="none"/><rect class="background date-20200829" transform="rotate(-212.332 -140.93 -241.626)" rx="5" ry="5" x="-140.93" height="91.111" y="-241.626" width="10.158" fill="none"/><rect class="background date-20200830" transform="rotate(-209.938 -131.089 -247.951)" rx="5" ry="5" x="-131.089" height="91.111" y="-247.951" width="10.158" fill="none"/><rect class="background date-20200831" transform="rotate(-207.55 -120.988 -253.853)" rx="5" ry="5" x="-120.988" height="91.111" y="-253.853" width="10.158" fill="none"/><rect class="background date-20200901" transform="rotate(-205.17 -110.652 -259.334)" rx="5" ry="5" x="-110.652" height="91.111" y="-259.334" width="10.158" fill="none"/><rect class="background date-20200902" transform="rotate(-202.794 -100.1 -264.384)" rx="5" ry="5" x="-100.1" height="91.111" y="-264.384" width="10.158" fill="none"/><rect class="background date-20200903" transform="rotate(-200.426 -89.345 -268.988)" rx="5" ry="5" x="-89.345" height="91.111" y="-268.988" width="10.158" fill="none"/><rect class="background date-20200904" transform="rotate(-198.063 -78.408 -273.14)" rx="5" ry="5" x="-78.408" height="91.111" y="-273.14" width="10.158" fill="none"/><rect class="background date-20200905" transform="rotate(-195.707 -67.31 -276.842)" rx="5" ry="5" x="-67.31" height="91.111" y="-276.842" width="10.158" fill="none"/><rect class="background date-20200906" transform="rotate(-193.356 -56.07 -280.087)" rx="5" ry="5" x="-56.071" height="91.111" y="-280.087" width="10.158" fill="none"/><rect class="background date-20200907" transform="rotate(-191.012 -44.706 -282.864)" rx="5" ry="5" x="-44.706" height="91.111" y="-282.864" width="10.158" fill="none"/><rect class="background date-20200908" transform="rotate(-188.674 -33.237 -285.17)" rx="5" ry="5" x="-33.237" height="91.111" y="-285.171" width="10.158" fill="none"/><rect class="background date-20200909" transform="rotate(-186.341 -21.684 -287.012)" rx="5" ry="5" x="-21.684" height="91.111" y="-287.012" width="10.158" fill="none"/><rect class="background date-20200910" transform="rotate(-184.014 -10.066 -288.385)" rx="5" ry="5" x="-10.066" height="91.111" y="-288.385" width="10.158" fill="none"/><rect class="background date-20200911" transform="rotate(-181.694 1.598 -289.279)" rx="5" ry="5" x="1.598" height="91.111" y="-289.279" width="10.158" fill="none"/><rect class="background date-20200912" transform="rotate(-179.379 13.29 -289.697)" rx="5" ry="5" x="13.29" height="91.111" y="-289.697" width="10.158" fill="none"/><rect class="background date-20200913" transform="rotate(-177.07 24.988 -289.648)" rx="5" ry="5" x="24.988" height="91.111" y="-289.648" width="10.158" fill="none"/><rect class="background date-20200914" transform="rotate(-174.766 36.676 -289.13)" rx="5" ry="5" x="36.676" height="91.111" y="-289.13" width="10.158" fill="none"/><rect class="background date-20200915" transform="rotate(-172.468 48.332 -288.136)" rx="5" ry="5" x="48.332" height="91.111" y="-288.136" width="10.158" fill="none"/><rect class="background date-20200916" transform="rotate(-170.176 59.94 -286.674)" rx="5" ry="5" x="59.939" height="91.111" y="-286.674" width="10.158" fill="none"/><rect class="background date-20200917" transform="rotate(-167.89 71.48 -284.754)" rx="5" ry="5" x="71.479" height="91.111" y="-284.754" width="10.158" fill="none"/><rect class="background date-20200918" transform="rotate(-165.608 82.934 -282.378)" rx="5" ry="5" x="82.934" height="91.111" y="-282.378" width="10.158" fill="none"/><rect class="background date-20200919" transform="rotate(-163.333 94.284 -279.541)" rx="5" ry="5" x="94.284" height="91.111" y="-279.541" width="10.158" fill="none"/><rect class="background date-20200920" transform="rotate(-161.063 105.511 -276.254)" rx="5" ry="5" x="105.511" height="91.111" y="-276.254" width="10.158" fill="none"/><rect class="background date-20200921" transform="rotate(-158.798 116.602 -272.53)" rx="5" ry="5" x="116.602" height="91.111" y="-272.529" width="10.158" fill="none"/><rect class="background date-20200922" transform="rotate(-156.54 127.537 -268.372)" rx="5" ry="5" x="127.537" height="91.111" y="-268.372" width="10.158" fill="none"/><rect class="background date-20200923" transform="rotate(-154.285 138.297 -263.782)" rx="5" ry="5" x="138.297" height="91.111" y="-263.782" width="10.158" fill="none"/><rect class="background date-20200924" transform="rotate(-152.037 148.868 -258.77)" rx="5" ry="5" x="148.868" height="91.111" y="-258.769" width="10.158" fill="none"/><rect class="background date-20200925" transform="rotate(-149.793 159.236 -253.35)" rx="5" ry="5" x="159.236" height="91.111" y="-253.35" width="10.158" fill="none"/><rect class="background date-20200926" transform="rotate(-147.555 169.385 -247.532)" rx="5" ry="5" x="169.385" height="91.111" y="-247.532" width="10.158" fill="none"/><rect class="background date-20200927" transform="rotate(-145.322 179.297 -241.317)" rx="5" ry="5" x="179.297" height="91.111" y="-241.317" width="10.158" fill="none"/><rect class="background date-20200928" transform="rotate(-143.095 188.957 -234.718)" rx="5" ry="5" x="188.957" height="91.111" y="-234.718" width="10.158" fill="none"/><rect class="background date-20200929" transform="rotate(-140.872 198.356 -227.753)" rx="5" ry="5" x="198.356" height="91.111" y="-227.753" width="10.158" fill="none"/><rect class="background date-20200930" transform="rotate(-138.655 207.48 -220.43)" rx="5" ry="5" x="207.48" height="91.111" y="-220.43" width="10.158" fill="none"/><rect class="background date-20201001" transform="rotate(-136.442 216.311 -212.757)" rx="5" ry="5" x="216.311" height="91.111" y="-212.757" width="10.158" fill="none"/><rect class="background date-20201002" transform="rotate(-134.235 224.836 -204.745)" rx="5" ry="5" x="224.836" height="91.111" y="-204.745" width="10.158" fill="none"/><rect class="background date-20201003" transform="rotate(-132.032 233.05 -196.414)" rx="5" ry="5" x="233.049" height="91.111" y="-196.414" width="10.158" fill="none"/><rect class="background date-20201004" transform="rotate(-129.835 240.939 -187.776)" rx="5" ry="5" x="240.939" height="91.111" y="-187.776" width="10.158" fill="none"/><rect class="background date-20201005" transform="rotate(-127.643 248.49 -178.84)" rx="5" ry="5" x="248.49" height="91.111" y="-178.84" width="10.158" fill="none"/><rect class="background date-20201006" transform="rotate(-125.455 255.688 -169.618)" rx="5" ry="5" x="255.688" height="91.111" y="-169.618" width="10.158" fill="none"/><rect class="background date-20201007" transform="rotate(-123.272 262.532 -160.13)" rx="5" ry="5" x="262.532" height="91.111" y="-160.13" width="10.158" fill="none"/><rect class="background date-20201008" transform="rotate(-121.094 269.013 -150.39)" rx="5" ry="5" x="269.013" height="91.111" y="-150.39" width="10.158" fill="none"/><rect class="background date-20201009" transform="rotate(-118.921 275.119 -140.411)" rx="5" ry="5" x="275.119" height="91.111" y="-140.411" width="10.158" fill="none"/><rect class="background date-20201010" transform="rotate(-116.753 280.835 -130.204)" rx="5" ry="5" x="280.835" height="91.111" y="-130.204" width="10.158" fill="none"/><rect class="background date-20201011" transform="rotate(-114.59 286.163 -119.789)" rx="5" ry="5" x="286.163" height="91.111" y="-119.789" width="10.158" fill="none"/><rect class="background date-20201012" transform="rotate(-112.43 291.099 -109.182)" rx="5" ry="5" x="291.099" height="91.111" y="-109.182" width="10.158" fill="none"/><rect class="background date-20201013" transform="rotate(-110.276 295.631 -98.397)" rx="5" ry="5" x="295.631" height="91.111" y="-98.397" width="10.158" fill="none"/><rect class="background date-20201014" transform="rotate(-108.126 299.749 -87.447)" rx="5" ry="5" x="299.749" height="91.111" y="-87.447" width="10.158" fill="none"/><rect class="background date-20201015" transform="rotate(-105.981 303.453 -76.35)" rx="5" ry="5" x="303.453" height="91.111" y="-76.35" width="10.158" fill="none"/><rect class="background date-20201016" transform="rotate(-103.84 306.744 -65.123)" rx="5" ry="5" x="306.744" height="91.111" y="-65.123" width="10.158" fill="none"/><rect class="background date-20201017" transform="rotate(-101.705 309.615 -53.782)" rx="5" ry="5" x="309.615" height="91.111" y="-53.782" width="10.158" fill="none"/><rect class="background date-20201018" transform="rotate(-99.574 312.056 -42.34)" rx="5" ry="5" x="312.056" height="91.111" y="-42.341" width="10.158" fill="none"/><rect class="background date-20201019" transform="rotate(-97.447 314.067 -30.816)" rx="5" ry="5" x="314.067" height="91.111" y="-30.816" width="10.158" fill="none"/><rect class="background date-20201020" transform="rotate(-95.324 315.653 -19.225)" rx="5" ry="5" x="315.653" height="91.111" y="-19.225" width="10.158" fill="none"/><rect class="background date-20201021" transform="rotate(-93.207 316.813 -7.584)" rx="5" ry="5" x="316.813" height="91.111" y="-7.584" width="10.158" fill="none"/><rect class="background date-20201022" transform="rotate(-91.093 317.538 4.093)" rx="5" ry="5" x="317.538" height="91.111" y="4.093" width="10.158" fill="none"/><rect class="background date-20201023" transform="rotate(-88.984 317.827 15.788)" rx="5" ry="5" x="317.827" height="91.111" y="15.788" width="10.158" fill="none"/><rect class="background date-20201024" transform="rotate(-86.88 317.687 27.486)" rx="5" ry="5" x="317.687" height="91.111" y="27.486" width="10.158" fill="none"/><rect class="background date-20201025" transform="rotate(-84.779 317.123 39.171)" rx="5" ry="5" x="317.123" height="91.111" y="39.171" width="10.158" fill="none"/><rect class="background date-20201026" transform="rotate(-82.683 316.131 50.828)" rx="5" ry="5" x="316.131" height="91.111" y="50.828" width="10.158" fill="none"/><rect class="background date-20201027" transform="rotate(-80.59 314.706 62.44)" rx="5" ry="5" x="314.706" height="91.111" y="62.44" width="10.158" fill="none"/><rect class="background date-20201028" transform="rotate(-78.503 312.858 73.992)" rx="5" ry="5" x="312.858" height="91.111" y="73.992" width="10.158" fill="none"/><rect class="background date-20201029" transform="rotate(-76.42 310.596 85.47)" rx="5" ry="5" x="310.596" height="91.111" y="85.47" width="10.158" fill="none"/><rect class="background date-20201030" transform="rotate(-74.34 307.92 96.86)" rx="5" ry="5" x="307.92" height="91.111" y="96.859" width="10.158" fill="none"/><rect class="background date-20201031" transform="rotate(-72.265 304.827 108.142)" rx="5" ry="5" x="304.827" height="91.111" y="108.142" width="10.158" fill="none"/><rect class="background date-20201101" transform="rotate(-70.194 301.325 119.304)" rx="5" ry="5" x="301.325" height="91.111" y="119.304" width="10.158" fill="none"/><rect class="background date-20201102" transform="rotate(-68.042 297.254 130.79)" rx="5" ry="5" x="297.254" height="91.111" y="130.791" width="10.158" fill="none"/><rect class="background date-20201103" transform="rotate(-65.98 292.947 141.668)" rx="5" ry="5" x="292.947" height="91.111" y="141.668" width="10.158" fill="none"/><rect class="background date-20201104" transform="rotate(-63.92 288.249 152.382)" rx="5" ry="5" x="288.249" height="91.111" y="152.382" width="10.158" fill="none"/><rect class="background date-20201105" transform="rotate(-61.867 283.163 162.918)" rx="5" ry="5" x="283.163" height="91.111" y="162.918" width="10.158" fill="none"/><rect class="background date-20201106" transform="rotate(-59.816 277.704 173.265)" rx="5" ry="5" x="277.704" height="91.111" y="173.265" width="10.158" fill="none"/><rect class="background date-20201107" transform="rotate(-57.77 271.883 183.413)" rx="5" ry="5" x="271.883" height="91.111" y="183.413" width="10.158" fill="none"/><rect class="background date-20201108" transform="rotate(-55.728 265.705 193.347)" rx="5" ry="5" x="265.705" height="91.111" y="193.347" width="10.158" fill="none"/><rect class="background date-20201109" transform="rotate(-53.69 259.17 203.051)" rx="5" ry="5" x="259.171" height="91.111" y="203.051" width="10.158" fill="none"/><rect class="background date-20201110" transform="rotate(-51.655 252.294 212.516)" rx="5" ry="5" x="252.294" height="91.111" y="212.516" width="10.158" fill="none"/><rect class="background date-20201111" transform="rotate(-49.624 245.09 221.733)" rx="5" ry="5" x="245.09" height="91.111" y="221.733" width="10.158" fill="none"/><rect class="background date-20201112" transform="rotate(-47.597 237.565 230.692)" rx="5" ry="5" x="237.565" height="91.111" y="230.692" width="10.158" fill="none"/><rect class="background date-20201113" transform="rotate(-45.575 229.727 239.377)" rx="5" ry="5" x="229.727" height="91.111" y="239.377" width="10.158" fill="none"/><rect class="background date-20201114" transform="rotate(-43.556 221.582 247.775)" rx="5" ry="5" x="221.582" height="91.111" y="247.775" width="10.158" fill="none"/><rect class="background date-20201115" transform="rotate(-41.54 213.149 255.883)" rx="5" ry="5" x="213.149" height="91.111" y="255.883" width="10.158" fill="none"/><rect class="background date-20201116" transform="rotate(-39.53 204.438 263.693)" rx="5" ry="5" x="204.438" height="91.111" y="263.693" width="10.158" fill="none"/><rect class="background date-20201117" transform="rotate(-37.522 195.46 271.193)" rx="5" ry="5" x="195.46" height="91.111" y="271.193" width="10.158" fill="none"/><rect class="background date-20201118" transform="rotate(-35.518 186.22 278.37)" rx="5" ry="5" x="186.22" height="91.111" y="278.37" width="10.158" fill="none"/><rect class="background date-20201119" transform="rotate(-33.518 176.735 285.217)" rx="5" ry="5" x="176.735" height="91.111" y="285.217" width="10.158" fill="none"/><rect class="background date-20201120" transform="rotate(-31.522 167.018 291.732)" rx="5" ry="5" x="167.018" height="91.111" y="291.732" width="10.158" fill="none"/><rect class="background date-20201121" transform="rotate(-29.529 157.082 297.908)" rx="5" ry="5" x="157.082" height="91.111" y="297.908" width="10.158" fill="none"/><rect class="background date-20201122" transform="rotate(-27.54 146.936 303.733)" rx="5" ry="5" x="146.936" height="91.111" y="303.733" width="10.158" fill="none"/><rect class="background date-20201123" transform="rotate(-25.555 136.591 309.197)" rx="5" ry="5" x="136.591" height="91.111" y="309.197" width="10.158" fill="none"/><rect class="background date-20201124" transform="rotate(-23.573 126.064 314.3)" rx="5" ry="5" x="126.064" height="91.111" y="314.3" width="10.158" fill="none"/><rect class="background date-20201125" transform="rotate(-21.595 115.369 319.041)" rx="5" ry="5" x="115.369" height="91.111" y="319.041" width="10.158" fill="none"/><rect class="background date-20201126" transform="rotate(-19.62 104.517 323.411)" rx="5" ry="5" x="104.517" height="91.111" y="323.411" width="10.158" fill="none"/><rect class="background date-20201127" transform="rotate(-17.65 93.519 327.4)" rx="5" ry="5" x="93.519" height="91.111" y="327.401" width="10.158" fill="none"/><rect class="background date-20201128" transform="rotate(-15.682 82.389 331.006)" rx="5" ry="5" x="82.389" height="91.111" y="331.006" width="10.158" fill="none"/><rect class="background date-20201129" transform="rotate(-13.719 71.143 334.23)" rx="5" ry="5" x="71.143" height="91.111" y="334.23" width="10.158" fill="none"/><rect class="background date-20201130" transform="rotate(-11.758 59.794 337.07)" rx="5" ry="5" x="59.794" height="91.111" y="337.07" width="10.158" fill="none"/><rect class="background date-20201201" transform="rotate(-9.802 48.355 339.521)" rx="5" ry="5" x="48.355" height="91.111" y="339.521" width="10.158" fill="none"/><rect class="background date-20201202" transform="rotate(-7.848 36.837 341.573)" rx="5" ry="5" x="36.837" height="91.111" y="341.573" width="10.158" fill="none"/><rect class="background date-20201203" transform="rotate(-5.899 25.256 343.231)" rx="5" ry="5" x="25.256" height="91.111" y="343.231" width="10.158" fill="none"/><rect class="background date-20201204" transform="rotate(-3.952 13.626 344.499)" rx="5" ry="5" x="13.626" height="91.111" y="344.499" width="10.158" fill="none"/><rect class="background date-20201205" transform="rotate(-2.01 1.96 345.373)" rx="5" ry="5" x="1.959" height="91.111" y="345.373" width="10.158" fill="none"/><rect class="background date-20201206" transform="rotate(-.07 -9.73 345.85)" rx="5" ry="5" x="-9.73" height="91.111" y="345.849" width="10.158" fill="none"/><rect class="background date-20201207" transform="rotate(1.866 -21.427 345.8)" rx="5" ry="5" x="-21.427" height="91.111" y="345.799" width="10.158" fill="none"/><rect class="background date-20201208" transform="rotate(3.8 -33.112 345.228)" rx="5" ry="5" x="-33.112" height="91.111" y="345.228" width="10.158" fill="none"/><rect class="background date-20201209" transform="rotate(5.733 -44.783 344.403)" rx="5" ry="5" x="-44.783" height="91.111" y="344.403" width="10.158" fill="none"/><rect class="background date-20201210" transform="rotate(7.663 -56.44 343.416)" rx="5" ry="5" x="-56.441" height="91.111" y="343.416" width="10.158" fill="none"/><rect class="background date-20201211" transform="rotate(9.586 -68.087 342.294)" rx="5" ry="5" x="-68.087" height="91.111" y="342.294" width="10.158" fill="none"/><text class="axis-text" dy="15" style="font:14px Avenir" letter-spacing="1"><textPath xlink:href="#a" startOffset="9.914%" fill="gray">Apr. 2020</textPath></text><text class="axis-text" dy="15" style="font:14px Avenir" letter-spacing="1"><textPath xlink:href="#a" startOffset="20.553%" fill="gray">May</textPath></text><text class="axis-text" dy="15" style="font:14px Avenir" letter-spacing="1"><textPath xlink:href="#a" startOffset="31.546%" fill="gray">June</textPath></text><text class="axis-text" dy="15" style="font:14px Avenir" letter-spacing="1"><textPath xlink:href="#a" startOffset="42.184%" fill="gray">July</textPath></text><text class="axis-text" dy="15" style="font:14px Avenir" letter-spacing="1"><textPath xlink:href="#a" startOffset="53.177%" fill="gray">Aug.</textPath></text><text class="axis-text" dy="15" style="font:14px Avenir" letter-spacing="1"><textPath xlink:href="#a" startOffset="64.17%" fill="gray">Sept.</textPath></text><text class="axis-text" dy="15" style="font:14px Avenir" letter-spacing="1"><textPath xlink:href="#a" startOffset="74.808%" fill="gray">Oct.</textPath></text><text class="axis-text" dy="15" style="font:14px Avenir" letter-spacing="1"><textPath xlink:href="#a" startOffset="85.801%" fill="gray">Nov.</textPath></text><text class="axis-text" dy="15" style="font:14px Avenir" letter-spacing="1"><textPath xlink:href="#a" startOffset="96.454%" fill="gray">Dec.</textPath></text></g></svg>