<svg id="Layer_1" data-name="Layer 1" xmlns="http://www.w3.org/2000/svg" viewBox="0 0 507.05 1101"><title>drugs_2018_cost</title><line x1="89.45" y1="1087.2" x2="89.45" style="fill:none;stroke:#cbcbcb;stroke-linejoin:round"/><text transform="translate(81.49 1098.29)" style="font-size:10px;font-family:OpenSans, Open Sans">0.0</text><line x1="165.44" y1="1087.2" x2="165.44" style="fill:none;stroke:#cbcbcb;stroke-linejoin:round"/><text transform="translate(162.49 1098.29)" style="font-size:10px;font-family:OpenSans, Open Sans">2</text><line x1="241.44" y1="1087.2" x2="241.44" style="fill:none;stroke:#cbcbcb;stroke-linejoin:round"/><text transform="translate(238.48 1098.29)" style="font-size:10px;font-family:OpenSans, Open Sans">4</text><line x1="317.43" y1="1087.2" x2="317.43" style="fill:none;stroke:#cbcbcb;stroke-linejoin:round"/><text transform="translate(314.48 1098.29)" style="font-size:10px;font-family:OpenSans, Open Sans">6</text><line x1="393.43" y1="1087.2" x2="393.43" style="fill:none;stroke:#cbcbcb;stroke-linejoin:round"/><text transform="translate(390.48 1098.29)" style="font-size:10px;font-family:OpenSans, Open Sans">8</text><line x1="469.42" y1="1087.2" x2="469.42" style="fill:none;stroke:#cbcbcb;stroke-linejoin:round"/><text transform="translate(464.47 1098.29)" style="font-size:10px;font-family:OpenSans, Open Sans">10</text><text transform="translate(48.16 1078.92)" style="font-size:10px;font-family:OpenSans, Open Sans">KANSAS</text><text transform="translate(33.77 1054.76)" style="font-size:10px;font-family:OpenSans, Open Sans">DELAWARE</text><text transform="translate(53.9 1030.6)" style="font-size:10px;font-family:OpenSans, Open Sans">IDAHO</text><text transform="translate(4.36 1006.44)" style="font-size:10px;font-family:OpenSans, Open Sans">NEW HAMPSHIRE</text><text transform="translate(37.89 982.28)" style="font-size:10px;font-family:OpenSans, Open Sans">VERMONT</text><text transform="translate(36.19 958.12)" style="font-size:10px;font-family:OpenSans, Open Sans">WYOMING</text><text transform="translate(30.81 933.96)" style="font-size:10px;font-family:OpenSans, Open Sans">COLORADO</text><text transform="translate(0 909.8)" style="font-size:10px;font-family:OpenSans, Open Sans">NORTH CAROLINA</text><text transform="translate(35.37 885.64)" style="font-size:10px;font-family:OpenSans, Open Sans">KENTUCKY</text><text transform="translate(18.55 861.48)" style="font-size:10px;font-family:OpenSans, Open Sans">WASHINGTON</text><text transform="translate(30.49 837.32)" style="font-size:10px;font-family:OpenSans, Open Sans">WISCONSIN</text><text transform="translate(54.23 813.16)" style="font-size:10px;font-family:OpenSans, Open Sans">MAINE</text><text transform="translate(58.95 789)" style="font-size:10px;font-family:OpenSans, Open Sans">UTAH</text><text transform="translate(38.64 764.84)" style="font-size:10px;font-family:OpenSans, Open Sans">MISSOURI</text><text transform="translate(14.05 740.68)" style="font-size:10px;font-family:OpenSans, Open Sans">RHODE ISLAND</text><text transform="translate(35.42 716.52)" style="font-size:10px;font-family:OpenSans, Open Sans">NEBRASKA</text><text transform="translate(59.31 692.36)" style="font-size:10px;font-family:OpenSans, Open Sans">IOWA</text><text transform="translate(35.65 668.2)" style="font-size:10px;font-family:OpenSans, Open Sans">ARKANSAS</text><text transform="translate(31.3 644.04)" style="font-size:10px;font-family:OpenSans, Open Sans">MISSISSIPPI</text><text transform="translate(39.46 619.88)" style="font-size:10px;font-family:OpenSans, Open Sans">ALABAMA</text><text transform="translate(46.47 595.72)" style="font-size:10px;font-family:OpenSans, Open Sans">NEVADA</text><text transform="translate(43.33 571.56)" style="font-size:10px;font-family:OpenSans, Open Sans">OREGON</text><text transform="translate(50.6 547.4)" style="font-size:10px;font-family:OpenSans, Open Sans">HAWAII</text><text transform="translate(29.5 523.24)" style="font-size:10px;font-family:OpenSans, Open Sans">OKLAHOMA</text><text transform="translate(0.95 499.08)" style="font-size:10px;font-family:OpenSans, Open Sans">SOUTH CAROLINA</text><text transform="translate(16.98 474.92)" style="font-size:10px;font-family:OpenSans, Open Sans">CONNECTICUT</text><text transform="translate(36.03 450.76)" style="font-size:10px;font-family:OpenSans, Open Sans">MICHIGAN</text><text transform="translate(44.87 426.6)" style="font-size:10px;font-family:OpenSans, Open Sans">INDIANA</text><text transform="translate(31.64 402.44)" style="font-size:10px;font-family:OpenSans, Open Sans">TENNESSEE</text><text transform="translate(23.27 378.28)" style="font-size:10px;font-family:OpenSans, Open Sans">NEW MEXICO</text><text transform="translate(27.88 354.12)" style="font-size:10px;font-family:OpenSans, Open Sans">MINNESOTA</text><text transform="translate(59.73 329.96)" style="font-size:10px;font-family:OpenSans, Open Sans">OHIO</text><text transform="translate(42.81 305.8)" style="font-size:10px;font-family:OpenSans, Open Sans">ARIZONA</text><text transform="translate(33.95 281.64)" style="font-size:10px;font-family:OpenSans, Open Sans">LOUISIANA</text><text transform="translate(44.74 257.48)" style="font-size:10px;font-family:OpenSans, Open Sans">FLORIDA</text><text transform="translate(31.98 233.32)" style="font-size:10px;font-family:OpenSans, Open Sans">MARYLAND</text><text transform="translate(13.59 209.16)" style="font-size:10px;font-family:OpenSans, Open Sans">PENNSYLVANIA</text><text transform="translate(4.24 185)" style="font-size:10px;font-family:OpenSans, Open Sans">MASSACHUSETTS</text><text transform="translate(42.26 160.84)" style="font-size:10px;font-family:OpenSans, Open Sans">GEORGIA</text><text transform="translate(45.91 136.68)" style="font-size:10px;font-family:OpenSans, Open Sans">ILLINOIS</text><text transform="translate(43.82 112.52)" style="font-size:10px;font-family:OpenSans, Open Sans">VIRGINIA</text><text transform="translate(56.79 88.36)" style="font-size:10px;font-family:OpenSans, Open Sans">TEXAS</text><text transform="translate(29.45 64.2)" style="font-size:10px;font-family:OpenSans, Open Sans">NEW JERSEY</text><text transform="translate(29.07 40.04)" style="font-size:10px;font-family:OpenSans, Open Sans">CALIFORNIA</text><text transform="translate(34.8 15.88)" style="font-size:10px;font-family:OpenSans, Open Sans">NEW YORK</text><polygon points="89.45 1081.16 89.45 1081.16 89.45 1069.08 89.45 1081.16" style="fill:#f8cd00"/><polygon points="89.45 1057 89.45 1057 89.45 1044.92 89.45 1057" style="fill:#f8cd00"/><rect x="89.45" y="1020.76" width="1.3" height="12.08" style="fill:#fc6042"/><rect x="89.45" y="996.6" width="2.35" height="12.08" style="fill:#f8cd00"/><rect x="89.45" y="972.44" width="2.73" height="12.08" style="fill:#2cc990"/><rect x="89.45" y="948.28" width="2.92" height="12.08" style="fill:#f8cd00"/><rect x="89.45" y="924.12" width="3.55" height="12.08" style="fill:#2cc990"/><rect x="89.45" y="899.96" width="4.62" height="12.08" style="fill:#f8cd00"/><rect x="89.45" y="875.8" width="5.48" height="12.08" style="fill:#f8cd00"/><rect x="89.45" y="851.64" width="5.72" height="12.08" style="fill:#2cc990"/><rect x="89.45" y="827.48" width="6.48" height="12.08" style="fill:#f8cd00"/><rect x="89.45" y="803.32" width="7" height="12.08" style="fill:#2cc990"/><rect x="89.45" y="779.16" width="7.02" height="12.08" style="fill:#f8cd00"/><rect x="89.45" y="755" width="7.12" height="12.08" style="fill:#f8cd00"/><rect x="89.45" y="730.84" width="7.19" height="12.08" style="fill:#f8cd00"/><rect x="89.45" y="706.68" width="7.38" height="12.08" style="fill:#fc6042"/><rect x="89.45" y="682.52" width="7.78" height="12.08" style="fill:#f8cd00"/><rect x="89.45" y="658.36" width="11.37" height="12.08" style="fill:#f8cd00"/><rect x="89.45" y="634.2" width="14.24" height="12.08" style="fill:#f8cd00"/><rect x="89.45" y="610.04" width="20.46" height="12.08" style="fill:#f8cd00"/><rect x="89.45" y="585.88" width="22.32" height="12.08" style="fill:#2cc990"/><rect x="89.45" y="561.72" width="23.36" height="12.08" style="fill:#2cc990"/><rect x="89.45" y="537.56" width="25.46" height="12.08" style="fill:#f8cd00"/><rect x="89.45" y="513.4" width="25.79" height="12.08" style="fill:#f8cd00"/><rect x="89.45" y="489.24" width="26.08" height="12.08" style="fill:#f8cd00"/><rect x="89.45" y="465.08" width="28.61" height="12.08" style="fill:#f8cd00"/><rect x="89.45" y="440.92" width="29.87" height="12.08" style="fill:#2cc990"/><rect x="89.45" y="416.76" width="30.88" height="12.08" style="fill:#f8cd00"/><rect x="89.45" y="392.6" width="34.23" height="12.08" style="fill:#f8cd00"/><rect x="89.45" y="368.44" width="39.43" height="12.08" style="fill:#f8cd00"/><rect x="89.45" y="344.28" width="39.89" height="12.08" style="fill:#f8cd00"/><rect x="89.45" y="320.12" width="42.66" height="12.08" style="fill:#f8cd00"/><rect x="89.45" y="295.96" width="46.08" height="12.08" style="fill:#f8cd00"/><rect x="89.45" y="271.8" width="48.67" height="12.08" style="fill:#fc6042"/><rect x="89.45" y="247.64" width="51.11" height="12.08" style="fill:#f8cd00"/><rect x="89.45" y="223.48" width="52.14" height="12.08" style="fill:#f8cd00"/><rect x="89.45" y="199.32" width="59.89" height="12.08" style="fill:#f8cd00"/><rect x="89.45" y="175.16" width="62.07" height="12.08" style="fill:#2cc990"/><rect x="89.45" y="151" width="83.3" height="12.08" style="fill:#f8cd00"/><rect x="89.45" y="126.84" width="92.6" height="12.08" style="fill:#2cc990"/><rect x="89.45" y="102.68" width="101.61" height="12.08" style="fill:#f8cd00"/><rect x="89.45" y="78.52" width="107.14" height="12.08" style="fill:#f8cd00"/><rect x="89.45" y="54.36" width="128.95" height="12.08" style="fill:#f8cd00"/><rect x="89.45" y="30.2" width="244.08" height="12.08" style="fill:#2cc990"/><rect x="89.45" y="6.04" width="417.6" height="12.08" style="fill:#f8cd00"/></svg>