<svg id="Layer_1" data-name="Layer 1" xmlns="http://www.w3.org/2000/svg" viewBox="0 0 507.54 1101"><title>drugs_2018_arrested</title><line x1="89.94" y1="1087.2" x2="89.94" style="fill:none;stroke:#cbcbcb;stroke-linejoin:round"/><text transform="translate(86.76 1098.29)" style="font-size:10px;font-family:OpenSans, Open Sans">0</text><line x1="182.33" y1="1087.2" x2="182.33" style="fill:none;stroke:#cbcbcb;stroke-linejoin:round"/><text transform="translate(175.97 1098.29)" style="font-size:10px;font-family:OpenSans, Open Sans">50</text><line x1="274.72" y1="1087.2" x2="274.72" style="fill:none;stroke:#cbcbcb;stroke-linejoin:round"/><text transform="translate(265.18 1098.29)" style="font-size:10px;font-family:OpenSans, Open Sans">100</text><line x1="367.11" y1="1087.2" x2="367.11" style="fill:none;stroke:#cbcbcb;stroke-linejoin:round"/><text transform="translate(357.57 1098.29)" style="font-size:10px;font-family:OpenSans, Open Sans">150</text><line x1="459.5" y1="1087.2" x2="459.5" style="fill:none;stroke:#cbcbcb;stroke-linejoin:round"/><text transform="translate(449.96 1098.29)" style="font-size:10px;font-family:OpenSans, Open Sans">200</text><text transform="translate(31.3 1078.92)" style="font-size:10px;font-family:OpenSans, Open Sans">MISSISSIPPI</text><text transform="translate(33.77 1054.76)" style="font-size:10px;font-family:OpenSans, Open Sans">DELAWARE</text><text transform="translate(48.16 1030.6)" style="font-size:10px;font-family:OpenSans, Open Sans">KANSAS</text><text transform="translate(42.81 1006.44)" style="font-size:10px;font-family:OpenSans, Open Sans">ARIZONA</text><text transform="translate(60.23 982.28)" style="font-size:10px;font-family:OpenSans, Open Sans">OHIO</text><text transform="translate(35.37 958.12)" style="font-size:10px;font-family:OpenSans, Open Sans">KENTUCKY</text><text transform="translate(58.88 933.96)" style="font-size:10px;font-family:OpenSans, Open Sans">IOWA</text><text transform="translate(30.49 909.8)" style="font-size:10px;font-family:OpenSans, Open Sans">WISCONSIN</text><text transform="translate(54.23 885.64)" style="font-size:10px;font-family:OpenSans, Open Sans">MAINE</text><text transform="translate(53.9 861.48)" style="font-size:10px;font-family:OpenSans, Open Sans">IDAHO</text><text transform="translate(38.64 837.32)" style="font-size:10px;font-family:OpenSans, Open Sans">MISSOURI</text><text transform="translate(35.42 813.16)" style="font-size:10px;font-family:OpenSans, Open Sans">NEBRASKA</text><text transform="translate(37.89 789)" style="font-size:10px;font-family:OpenSans, Open Sans">VERMONT</text><text transform="translate(0 764.84)" style="font-size:10px;font-family:OpenSans, Open Sans">NORTH CAROLINA</text><text transform="translate(33.95 740.68)" style="font-size:10px;font-family:OpenSans, Open Sans">LOUISIANA</text><text transform="translate(36.19 716.52)" style="font-size:10px;font-family:OpenSans, Open Sans">WYOMING</text><text transform="translate(31.64 692.36)" style="font-size:10px;font-family:OpenSans, Open Sans">TENNESSEE</text><text transform="translate(30.81 668.2)" style="font-size:10px;font-family:OpenSans, Open Sans">COLORADO</text><text transform="translate(50.6 644.04)" style="font-size:10px;font-family:OpenSans, Open Sans">HAWAII</text><text transform="translate(23.27 619.88)" style="font-size:10px;font-family:OpenSans, Open Sans">NEW MEXICO</text><text transform="translate(45.91 595.72)" style="font-size:10px;font-family:OpenSans, Open Sans">ILLINOIS</text><text transform="translate(46.47 571.56)" style="font-size:10px;font-family:OpenSans, Open Sans">NEVADA</text><text transform="translate(56.79 547.4)" style="font-size:10px;font-family:OpenSans, Open Sans">TEXAS</text><text transform="translate(14.05 523.24)" style="font-size:10px;font-family:OpenSans, Open Sans">RHODE ISLAND</text><text transform="translate(18.55 499.08)" style="font-size:10px;font-family:OpenSans, Open Sans">WASHINGTON</text><text transform="translate(4.36 474.92)" style="font-size:10px;font-family:OpenSans, Open Sans">NEW HAMPSHIRE</text><text transform="translate(39.46 450.76)" style="font-size:10px;font-family:OpenSans, Open Sans">ALABAMA</text><text transform="translate(36.03 426.6)" style="font-size:10px;font-family:OpenSans, Open Sans">MICHIGAN</text><text transform="translate(44.74 402.44)" style="font-size:10px;font-family:OpenSans, Open Sans">FLORIDA</text><text transform="translate(42.26 378.28)" style="font-size:10px;font-family:OpenSans, Open Sans">GEORGIA</text><text transform="translate(43.82 354.12)" style="font-size:10px;font-family:OpenSans, Open Sans">VIRGINIA</text><text transform="translate(43.33 329.96)" style="font-size:10px;font-family:OpenSans, Open Sans">OREGON</text><text transform="translate(35.65 305.8)" style="font-size:10px;font-family:OpenSans, Open Sans">ARKANSAS</text><text transform="translate(58.65 281.64)" style="font-size:10px;font-family:OpenSans, Open Sans">UTAH</text><text transform="translate(0.95 257.48)" style="font-size:10px;font-family:OpenSans, Open Sans">SOUTH CAROLINA</text><text transform="translate(29.5 233.32)" style="font-size:10px;font-family:OpenSans, Open Sans">OKLAHOMA</text><text transform="translate(13.59 209.16)" style="font-size:10px;font-family:OpenSans, Open Sans">PENNSYLVANIA</text><text transform="translate(31.98 185)" style="font-size:10px;font-family:OpenSans, Open Sans">MARYLAND</text><text transform="translate(44.87 160.84)" style="font-size:10px;font-family:OpenSans, Open Sans">INDIANA</text><text transform="translate(4.24 136.68)" style="font-size:10px;font-family:OpenSans, Open Sans">MASSACHUSETTS</text><text transform="translate(29.45 112.52)" style="font-size:10px;font-family:OpenSans, Open Sans">NEW JERSEY</text><text transform="translate(16.98 88.36)" style="font-size:10px;font-family:OpenSans, Open Sans">CONNECTICUT</text><text transform="translate(27.88 64.2)" style="font-size:10px;font-family:OpenSans, Open Sans">MINNESOTA</text><text transform="translate(29.07 40.04)" style="font-size:10px;font-family:OpenSans, Open Sans">CALIFORNIA</text><text transform="translate(34.8 15.88)" style="font-size:10px;font-family:OpenSans, Open Sans">NEW YORK</text><polygon points="89.94 1081.16 89.94 1081.16 89.94 1069.08 89.94 1081.16" style="fill:#f8cd00"/><polygon points="89.94 1057 89.94 1057 89.94 1044.92 89.94 1057" style="fill:#f8cd00"/><polygon points="89.94 1032.84 89.94 1032.84 89.94 1020.76 89.94 1032.84" style="fill:#f8cd00"/><rect x="89.94" y="996.6" width="3.7" height="12.08" style="fill:#f8cd00"/><rect x="89.94" y="972.44" width="3.7" height="12.08" style="fill:#f8cd00"/><rect x="89.94" y="948.28" width="3.7" height="12.08" style="fill:#f8cd00"/><rect x="89.94" y="924.12" width="3.7" height="12.08" style="fill:#f8cd00"/><rect x="89.94" y="899.96" width="7.39" height="12.08" style="fill:#f8cd00"/><rect x="89.94" y="875.8" width="16.63" height="12.08" style="fill:#2cc990"/><rect x="89.94" y="851.64" width="16.63" height="12.08" style="fill:#fc6042"/><rect x="89.94" y="827.48" width="18.48" height="12.08" style="fill:#f8cd00"/><rect x="89.94" y="803.32" width="20.33" height="12.08" style="fill:#fc6042"/><rect x="89.94" y="779.16" width="24.02" height="12.08" style="fill:#2cc990"/><rect x="89.94" y="755" width="25.87" height="12.08" style="fill:#f8cd00"/><rect x="89.94" y="730.84" width="25.87" height="12.08" style="fill:#fc6042"/><rect x="89.94" y="706.68" width="27.72" height="12.08" style="fill:#f8cd00"/><rect x="89.94" y="682.52" width="31.41" height="12.08" style="fill:#f8cd00"/><rect x="89.94" y="658.36" width="33.26" height="12.08" style="fill:#2cc990"/><rect x="89.94" y="634.2" width="33.26" height="12.08" style="fill:#f8cd00"/><rect x="89.94" y="610.04" width="36.96" height="12.08" style="fill:#f8cd00"/><rect x="89.94" y="585.88" width="38.8" height="12.08" style="fill:#2cc990"/><rect x="89.94" y="561.72" width="42.5" height="12.08" style="fill:#2cc990"/><rect x="89.94" y="537.56" width="46.19" height="12.08" style="fill:#f8cd00"/><rect x="89.94" y="513.4" width="53.59" height="12.08" style="fill:#f8cd00"/><rect x="89.94" y="489.24" width="53.59" height="12.08" style="fill:#2cc990"/><rect x="89.94" y="465.08" width="57.28" height="12.08" style="fill:#f8cd00"/><rect x="89.94" y="440.92" width="64.67" height="12.08" style="fill:#f8cd00"/><rect x="89.94" y="416.76" width="68.37" height="12.08" style="fill:#2cc990"/><rect x="89.94" y="392.6" width="70.22" height="12.08" style="fill:#f8cd00"/><rect x="89.94" y="368.44" width="75.76" height="12.08" style="fill:#f8cd00"/><rect x="89.94" y="344.28" width="79.45" height="12.08" style="fill:#f8cd00"/><rect x="89.94" y="320.12" width="86.85" height="12.08" style="fill:#2cc990"/><rect x="89.94" y="295.96" width="88.69" height="12.08" style="fill:#f8cd00"/><rect x="89.94" y="271.8" width="97.93" height="12.08" style="fill:#f8cd00"/><rect x="89.94" y="247.64" width="101.63" height="12.08" style="fill:#f8cd00"/><rect x="89.94" y="223.48" width="105.32" height="12.08" style="fill:#f8cd00"/><rect x="89.94" y="199.32" width="129.35" height="12.08" style="fill:#f8cd00"/><rect x="89.94" y="175.16" width="136.74" height="12.08" style="fill:#f8cd00"/><rect x="89.94" y="151" width="136.74" height="12.08" style="fill:#f8cd00"/><rect x="89.94" y="126.84" width="136.74" height="12.08" style="fill:#2cc990"/><rect x="89.94" y="102.68" width="155.21" height="12.08" style="fill:#f8cd00"/><rect x="89.94" y="78.52" width="184.78" height="12.08" style="fill:#f8cd00"/><rect x="89.94" y="54.36" width="253.15" height="12.08" style="fill:#f8cd00"/><rect x="89.94" y="30.2" width="336.3" height="12.08" style="fill:#2cc990"/><rect x="89.94" y="6.04" width="417.6" height="12.08" style="fill:#f8cd00"/></svg>