<svg id="Layer_1" data-name="Layer 1" xmlns="http://www.w3.org/2000/svg" viewBox="0 0 702.47 1131.71"><title>drugs_per_state_per_capita</title><line x1="107.87" y1="1109.34" x2="107.87" y2="22.14" style="fill:none;stroke:#cbcbcb;stroke-linejoin:round"/><text transform="translate(97.91 1121.43)" style="font-size:12px;font-family:OpenSans, Open Sans">0.0</text><line x1="180.42" y1="1109.34" x2="180.42" y2="22.14" style="fill:none;stroke:#cbcbcb;stroke-linejoin:round"/><text transform="translate(167.17 1121.43) scale(1.33 1)" style="font-size:12px;font-family:OpenSans, Open Sans">2.5</text><line x1="252.97" y1="1109.34" x2="252.97" y2="22.14" style="fill:none;stroke:#cbcbcb;stroke-linejoin:round"/><text transform="translate(239.72 1121.43) scale(1.33 1)" style="font-size:12px;font-family:OpenSans, Open Sans">5.0</text><line x1="325.53" y1="1109.34" x2="325.53" y2="22.14" style="fill:none;stroke:#cbcbcb;stroke-linejoin:round"/><text transform="translate(312.27 1121.43) scale(1.33 1)" style="font-size:12px;font-family:OpenSans, Open Sans">7.5</text><line x1="398.08" y1="1109.34" x2="398.08" y2="22.14" style="fill:none;stroke:#cbcbcb;stroke-linejoin:round"/><text transform="translate(380.59 1121.43) scale(1.33 1)" style="font-size:12px;font-family:OpenSans, Open Sans">10.0</text><line x1="470.63" y1="1109.34" x2="470.63" y2="22.14" style="fill:none;stroke:#cbcbcb;stroke-linejoin:round"/><text transform="translate(453.15 1121.43) scale(1.33 1)" style="font-size:12px;font-family:OpenSans, Open Sans">12.5</text><line x1="543.19" y1="1109.34" x2="543.19" y2="22.14" style="fill:none;stroke:#cbcbcb;stroke-linejoin:round"/><text transform="translate(525.7 1121.43) scale(1.33 1)" style="font-size:12px;font-family:OpenSans, Open Sans">15.0</text><line x1="615.74" y1="1109.34" x2="615.74" y2="22.14" style="fill:none;stroke:#cbcbcb;stroke-linejoin:round"/><text transform="translate(598.26 1121.43) scale(1.33 1)" style="font-size:12px;font-family:OpenSans, Open Sans">17.5</text><line x1="688.3" y1="1109.34" x2="688.3" y2="22.14" style="fill:none;stroke:#cbcbcb;stroke-linejoin:round"/><text transform="translate(670.81 1121.43) scale(1.33 1)" style="font-size:12px;font-family:OpenSans, Open Sans">20.0</text><text transform="translate(36.58 1102.05)" style="font-size:12px;font-family:OpenSans, Open Sans">WISCONSIN</text><text transform="translate(22.26 1077.89)" style="font-size:12px;font-family:OpenSans, Open Sans">WASHINGTON</text><text transform="translate(40.53 1053.73)" style="font-size:12px;font-family:OpenSans, Open Sans">DELAWARE</text><text transform="translate(64.68 1029.57)" style="font-size:12px;font-family:OpenSans, Open Sans">IDAHO</text><text transform="translate(71.17 1005.41)" style="font-size:12px;font-family:OpenSans, Open Sans">IOWA</text><text transform="translate(57.79 981.25)" style="font-size:12px;font-family:OpenSans, Open Sans">KANSAS</text><text transform="translate(5.23 957.09)" style="font-size:12px;font-family:OpenSans, Open Sans">NEW HAMPSHIRE</text><text transform="translate(71.67 932.93)" style="font-size:12px;font-family:OpenSans, Open Sans">OHIO</text><text transform="translate(46.37 908.77)" style="font-size:12px;font-family:OpenSans, Open Sans">MISSOURI</text><text transform="translate(35.4 884.61)" style="font-size:12px;font-family:OpenSans, Open Sans">OKLAHOMA</text><text transform="translate(36.97 860.45)" style="font-size:12px;font-family:OpenSans, Open Sans">COLORADO</text><text transform="translate(0 836.29)" style="font-size:12px;font-family:OpenSans, Open Sans">NORTH CAROLINA</text><text transform="translate(47.35 812.13)" style="font-size:12px;font-family:OpenSans, Open Sans">ALABAMA</text><text transform="translate(16.31 787.97)" style="font-size:12px;font-family:OpenSans, Open Sans">PENNSYLVANIA</text><text transform="translate(43.43 763.81)" style="font-size:12px;font-family:OpenSans, Open Sans">WYOMING</text><text transform="translate(42.78 739.65)" style="font-size:12px;font-family:OpenSans, Open Sans">ARKANSAS</text><text transform="translate(43.24 715.49)" style="font-size:12px;font-family:OpenSans, Open Sans">MICHIGAN</text><text transform="translate(68.15 691.33)" style="font-size:12px;font-family:OpenSans, Open Sans">TEXAS</text><text transform="translate(53.69 667.17)" style="font-size:12px;font-family:OpenSans, Open Sans">FLORIDA</text><text transform="translate(50.71 643.01)" style="font-size:12px;font-family:OpenSans, Open Sans">GEORGIA</text><text transform="translate(52.59 618.85)" style="font-size:12px;font-family:OpenSans, Open Sans">VIRGINIA</text><text transform="translate(65.07 594.69)" style="font-size:12px;font-family:OpenSans, Open Sans">MAINE</text><text transform="translate(53.84 570.53)" style="font-size:12px;font-family:OpenSans, Open Sans">INDIANA</text><text transform="translate(16.86 546.37)" style="font-size:12px;font-family:OpenSans, Open Sans">RHODE ISLAND</text><text transform="translate(1.14 522.21)" style="font-size:12px;font-family:OpenSans, Open Sans">SOUTH CAROLINA</text><text transform="translate(60.72 498.05)" style="font-size:12px;font-family:OpenSans, Open Sans">HAWAII</text><text transform="translate(33.45 473.89)" style="font-size:12px;font-family:OpenSans, Open Sans">MINNESOTA</text><text transform="translate(42.51 449.73)" style="font-size:12px;font-family:OpenSans, Open Sans">NEBRASKA</text><text transform="translate(37.97 425.57)" style="font-size:12px;font-family:OpenSans, Open Sans">TENNESSEE</text><text transform="translate(55.76 401.41)" style="font-size:12px;font-family:OpenSans, Open Sans">NEVADA</text><text transform="translate(52 377.25)" style="font-size:12px;font-family:OpenSans, Open Sans">OREGON</text><text transform="translate(38.38 353.09)" style="font-size:12px;font-family:OpenSans, Open Sans">MARYLAND</text><text transform="translate(37.55 328.93)" style="font-size:12px;font-family:OpenSans, Open Sans">MISSISSIPPI</text><text transform="translate(20.38 304.77)" style="font-size:12px;font-family:OpenSans, Open Sans">CONNECTICUT</text><text transform="translate(34.88 280.61)" style="font-size:12px;font-family:OpenSans, Open Sans">CALIFORNIA</text><text transform="translate(40.74 256.45)" style="font-size:12px;font-family:OpenSans, Open Sans">LOUISIANA</text><text transform="translate(55.09 232.29)" style="font-size:12px;font-family:OpenSans, Open Sans">ILLINOIS</text><text transform="translate(42.45 208.13)" style="font-size:12px;font-family:OpenSans, Open Sans">KENTUCKY</text><text transform="translate(51.37 183.97)" style="font-size:12px;font-family:OpenSans, Open Sans">ARIZONA</text><text transform="translate(5.09 159.81)" style="font-size:12px;font-family:OpenSans, Open Sans">MASSACHUSETTS</text><text transform="translate(70.74 135.65)" style="font-size:12px;font-family:OpenSans, Open Sans">UTAH</text><text transform="translate(41.76 111.49)" style="font-size:12px;font-family:OpenSans, Open Sans">NEW YORK</text><text transform="translate(35.34 87.33)" style="font-size:12px;font-family:OpenSans, Open Sans">NEW JERSEY</text><text transform="translate(27.92 63.17)" style="font-size:12px;font-family:OpenSans, Open Sans">NEW MEXICO</text><text transform="translate(45.47 39.01)" style="font-size:12px;font-family:OpenSans, Open Sans">VERMONT</text><rect x="107.87" y="1091.22" width="14.98" height="12.08" style="fill:#f8cd00"/><rect x="107.87" y="1067.06" width="19.26" height="12.08" style="fill:#2cc990"/><rect x="107.87" y="1042.9" width="30.01" height="12.08" style="fill:#f8cd00"/><rect x="107.87" y="1018.74" width="33.09" height="12.08" style="fill:#fc6042"/><rect x="107.87" y="994.58" width="36.78" height="12.08" style="fill:#f8cd00"/><rect x="107.87" y="970.42" width="39.87" height="12.08" style="fill:#f8cd00"/><rect x="107.87" y="946.26" width="42.79" height="12.08" style="fill:#f8cd00"/><rect x="107.87" y="922.1" width="49.65" height="12.08" style="fill:#f8cd00"/><rect x="107.87" y="897.94" width="71.06" height="12.08" style="fill:#f8cd00"/><rect x="107.87" y="873.78" width="73.6" height="12.08" style="fill:#f8cd00"/><rect x="107.87" y="849.62" width="81.53" height="12.08" style="fill:#2cc990"/><rect x="107.87" y="825.46" width="86.64" height="12.08" style="fill:#f8cd00"/><rect x="107.87" y="801.3" width="89.06" height="12.08" style="fill:#f8cd00"/><rect x="107.87" y="777.14" width="92.91" height="12.08" style="fill:#f8cd00"/><rect x="107.87" y="752.98" width="100.47" height="12.08" style="fill:#f8cd00"/><rect x="107.87" y="728.82" width="105.92" height="12.08" style="fill:#f8cd00"/><rect x="107.87" y="704.66" width="107.42" height="12.08" style="fill:#2cc990"/><rect x="107.87" y="680.5" width="109.2" height="12.08" style="fill:#f8cd00"/><rect x="107.87" y="656.34" width="114.45" height="12.08" style="fill:#f8cd00"/><rect x="107.87" y="632.18" width="124.15" height="12.08" style="fill:#f8cd00"/><rect x="107.87" y="608.02" width="126.07" height="12.08" style="fill:#f8cd00"/><rect x="107.87" y="583.86" width="130.1" height="12.08" style="fill:#2cc990"/><rect x="107.87" y="559.7" width="134.44" height="12.08" style="fill:#f8cd00"/><rect x="107.87" y="535.54" width="137.24" height="12.08" style="fill:#f8cd00"/><rect x="107.87" y="511.38" width="142.71" height="12.08" style="fill:#f8cd00"/><rect x="107.87" y="487.22" width="143.01" height="12.08" style="fill:#f8cd00"/><rect x="107.87" y="463.06" width="144.82" height="12.08" style="fill:#f8cd00"/><rect x="107.87" y="438.9" width="150.43" height="12.08" style="fill:#fc6042"/><rect x="107.87" y="414.74" width="162.9" height="12.08" style="fill:#f8cd00"/><rect x="107.87" y="390.58" width="172.16" height="12.08" style="fill:#2cc990"/><rect x="107.87" y="366.42" width="173.13" height="12.08" style="fill:#2cc990"/><rect x="107.87" y="342.26" width="177.7" height="12.08" style="fill:#f8cd00"/><rect x="107.87" y="318.1" width="184.63" height="12.08" style="fill:#f8cd00"/><rect x="107.87" y="293.94" width="186.83" height="12.08" style="fill:#f8cd00"/><rect x="107.87" y="269.78" width="201.76" height="12.08" style="fill:#2cc990"/><rect x="107.87" y="245.62" width="205.52" height="12.08" style="fill:#fc6042"/><rect x="107.87" y="221.46" width="223.22" height="12.08" style="fill:#2cc990"/><rect x="107.87" y="197.3" width="233.81" height="12.08" style="fill:#f8cd00"/><rect x="107.87" y="173.14" width="242.8" height="12.08" style="fill:#f8cd00"/><rect x="107.87" y="148.98" width="243.87" height="12.08" style="fill:#2cc990"/><rect x="107.87" y="124.82" width="247.88" height="12.08" style="fill:#f8cd00"/><rect x="107.87" y="100.66" width="329.69" height="12.08" style="fill:#f8cd00"/><rect x="107.87" y="76.5" width="364.87" height="12.08" style="fill:#f8cd00"/><rect x="107.87" y="52.34" width="554" height="12.08" style="fill:#f8cd00"/><rect x="107.87" y="28.18" width="556.06" height="12.08" style="fill:#2cc990"/><rect x="459.11" y="130.3" width="187.71" height="85.68" rx="2.78" style="fill:#f0f0f0;opacity:0.800000011920929"/><rect x="459.11" y="130.3" width="187.71" height="85.68" rx="2.78" style="fill:none;stroke:#ccc;stroke-miterlimit:10;stroke-width:0.5px;opacity:0.800000011920929"/><text transform="translate(482.21 146.4)" style="font-size:13.888665199279785px;font-family:OpenSans, Open Sans">Legality of Cannabis</text><rect x="464.67" y="157.06" width="27.78" height="9.72" style="fill:#2cc990"/><rect x="464.67" y="157.06" width="27.78" height="9.72" style="fill:none;stroke:#2cc990;stroke-miterlimit:10;stroke-width:0.5px"/><text transform="translate(503.56 166.78)" style="font-size:13.888665199279785px;font-family:OpenSans, Open Sans">Recreationally legal</text><rect x="464.67" y="177.43" width="27.78" height="9.72" style="fill:#f8cd00"/><rect x="464.67" y="177.43" width="27.78" height="9.72" style="fill:none;stroke:#f8cd00;stroke-miterlimit:10;stroke-width:0.5px"/><text transform="translate(503.56 187.16)" style="font-size:13.888665199279785px;font-family:OpenSans, Open Sans">Medicinally legal</text><rect x="464.67" y="197.81" width="27.78" height="9.72" style="fill:#fc6042"/><rect x="464.67" y="197.81" width="27.78" height="9.72" style="fill:none;stroke:#fc6042;stroke-miterlimit:10;stroke-width:0.5px"/><text transform="translate(503.56 207.53)" style="font-size:13.888665199279785px;font-family:OpenSans, Open Sans">Entirely illegal</text><rect x="6.52" width="96.04" height="1131.71" style="fill:none"/></svg>