<svg id="Layer_1" data-name="Layer 1" xmlns="http://www.w3.org/2000/svg" viewBox="0 0 891.15 323.05">
  <defs>
    <style>
      .cls-1, .cls-9 {
        fill: #e5e5e5;
      }

      .cls-10, .cls-11, .cls-2, .cls-3 {
        fill: none;
      }

      .cls-2, .cls-3, .cls-4, .cls-6, .cls-7, .cls-8, .cls-9 {
        opacity: 0.19;
      }

      .cls-10, .cls-3 {
        stroke: #fff;
        stroke-linecap: square;
        stroke-linejoin: round;
        stroke-width: 0.8px;
      }

      .cls-5 {
        fill: #555;
      }

      .cls-12, .cls-6 {
        fill: #5580b6;
      }

      .cls-14, .cls-7 {
        fill: #f07b7b;
      }

      .cls-13, .cls-8 {
        fill: #f4d678;
      }
    </style>
  </defs>
  <title>ridership_increase_a_line</title>
  <rect class="cls-1" y="40.2" width="891.15" height="282.86"/>
  <rect class="cls-2" x="28.93" y="129.34" width="181.96" height="172.96"/>
  <rect class="cls-2" x="28.93" y="129.34" width="181.96" height="172.96"/>
  <rect class="cls-2" x="28.93" y="129.34" width="181.96" height="172.96"/>
  <rect class="cls-2" x="28.93" y="129.34" width="181.96" height="172.96"/>
  <rect class="cls-2" x="28.93" y="129.34" width="181.96" height="172.96"/>
  <rect class="cls-2" x="28.93" y="129.34" width="181.96" height="172.96"/>
  <line class="cls-3" x1="28.93" y1="281.65" x2="210.89" y2="281.65"/>
  <line class="cls-3" x1="28.93" y1="256.65" x2="210.89" y2="256.65"/>
  <line class="cls-3" x1="28.93" y1="231.64" x2="210.89" y2="231.64"/>
  <line class="cls-3" x1="28.93" y1="206.63" x2="210.89" y2="206.63"/>
  <line class="cls-3" x1="28.93" y1="181.63" x2="210.89" y2="181.63"/>
  <line class="cls-3" x1="28.93" y1="156.62" x2="210.89" y2="156.62"/>
  <line class="cls-3" x1="28.93" y1="131.61" x2="210.89" y2="131.61"/>
  <rect class="cls-2" x="28.93" y="129.34" width="181.96" height="172.96"/>
  <g class="cls-4">
    <g>
      <path class="cls-5" d="M13.47,274.62v-.8H19.1v.8Z"/>
      <path class="cls-5" d="M25.94,278.45H20.3v-.84l2.26-2.27a16.94,16.94,0,0,0,1.36-1.48,3.87,3.87,0,0,0,.49-.87,2.46,2.46,0,0,0,.17-.91,1.44,1.44,0,0,0-.42-1.09,1.62,1.62,0,0,0-1.15-.4,2.79,2.79,0,0,0-1,.18,4.06,4.06,0,0,0-1.07.64l-.51-.66a3.92,3.92,0,0,1,2.57-1,2.75,2.75,0,0,1,1.9.62,2.13,2.13,0,0,1,.68,1.66,3.25,3.25,0,0,1-.45,1.61,10.65,10.65,0,0,1-1.72,2l-1.87,1.83v.05h4.41Z"/>
    </g>
    <g>
      <path class="cls-5" d="M13.47,249.62v-.81H19.1v.81Z"/>
      <path class="cls-5" d="M23.91,253.44H23v-6.1c0-.51,0-1,.05-1.44l-.28.25-1.39,1.15-.52-.67,2.27-1.75h.82Z"/>
    </g>
    <path class="cls-5" d="M24.84,224.14a6.24,6.24,0,0,1-.7,3.32A2.36,2.36,0,0,1,22,228.55a2.35,2.35,0,0,1-2.11-1.12,6.13,6.13,0,0,1-.72-3.29,6.29,6.29,0,0,1,.7-3.32A2.35,2.35,0,0,1,22,219.74a2.36,2.36,0,0,1,2.12,1.13A6.1,6.1,0,0,1,24.84,224.14Zm-4.68,0a6.15,6.15,0,0,0,.44,2.72,1.57,1.57,0,0,0,2.81,0,8.72,8.72,0,0,0,0-5.41,1.58,1.58,0,0,0-2.81,0A6.1,6.1,0,0,0,20.16,224.14Z"/>
    <path class="cls-5" d="M22.76,203.43h-.94v-6.11c0-.5,0-1,0-1.44a3.38,3.38,0,0,1-.27.26l-1.4,1.14-.51-.66,2.26-1.76h.82Z"/>
    <path class="cls-5" d="M24.79,178.42H19.16v-.83l2.26-2.27a18.39,18.39,0,0,0,1.36-1.49,3.87,3.87,0,0,0,.49-.87,2.45,2.45,0,0,0,.16-.91A1.45,1.45,0,0,0,23,171a1.6,1.6,0,0,0-1.16-.4,2.86,2.86,0,0,0-1,.17,4,4,0,0,0-1.06.64l-.52-.66a3.94,3.94,0,0,1,2.58-1,2.71,2.71,0,0,1,1.89.62,2.12,2.12,0,0,1,.69,1.66,3.13,3.13,0,0,1-.46,1.61,9.63,9.63,0,0,1-1.71,2l-1.87,1.83v.05h4.4Z"/>
    <path class="cls-5" d="M24.47,146.87a2,2,0,0,1-.46,1.34,2.31,2.31,0,0,1-1.3.69v0a2.53,2.53,0,0,1,1.53.66,1.93,1.93,0,0,1,.49,1.38,2.22,2.22,0,0,1-.85,1.88,3.84,3.84,0,0,1-2.41.66,7,7,0,0,1-1.25-.1,4.36,4.36,0,0,1-1.09-.36v-.93a4.73,4.73,0,0,0,1.18.42,5.17,5.17,0,0,0,1.19.15c1.49,0,2.23-.58,2.23-1.74s-.82-1.56-2.45-1.56h-.85v-.84h.86a2.61,2.61,0,0,0,1.59-.44,1.46,1.46,0,0,0,.58-1.23,1.18,1.18,0,0,0-.43-1,1.78,1.78,0,0,0-1.17-.36,3.67,3.67,0,0,0-1.06.15,4.7,4.7,0,0,0-1.13.56l-.5-.65a4.09,4.09,0,0,1,1.22-.66,4.63,4.63,0,0,1,1.45-.23,3,3,0,0,1,1.94.57A1.92,1.92,0,0,1,24.47,146.87Z"/>
    <g>
      <path class="cls-5" d="M25.2,126.44H23.92v2H23v-2H18.83v-.85l4.06-5.79h1v5.76H25.2ZM23,125.56v-2.85q0-.84.06-1.89H23a9.15,9.15,0,0,1-.52.93l-2.68,3.81Z"/>
      <path class="cls-5" d="M32.66,122.4a3.71,3.71,0,0,1-.45,2,1.49,1.49,0,0,1-1.32.68,1.42,1.42,0,0,1-1.27-.7,3.59,3.59,0,0,1-.46-2,3.75,3.75,0,0,1,.44-2,1.43,1.43,0,0,1,1.29-.67,1.47,1.47,0,0,1,1.31.7A3.62,3.62,0,0,1,32.66,122.4Zm-2.69,0a3.8,3.8,0,0,0,.22,1.49.73.73,0,0,0,.7.5c.64,0,1-.66,1-2s-.32-2-1-2a.72.72,0,0,0-.7.49A3.76,3.76,0,0,0,30,122.4Zm6.34-2.56-4.76,8.57h-.86l4.75-8.57Zm1.51,6a3.65,3.65,0,0,1-.45,2,1.48,1.48,0,0,1-1.32.69,1.45,1.45,0,0,1-1.28-.7,4.82,4.82,0,0,1,0-4,1.44,1.44,0,0,1,1.29-.68,1.48,1.48,0,0,1,1.3.69A3.55,3.55,0,0,1,37.82,125.83Zm-2.69,0a4.05,4.05,0,0,0,.21,1.5.74.74,0,0,0,.71.49.77.77,0,0,0,.73-.49,3.55,3.55,0,0,0,.23-1.5,3.48,3.48,0,0,0-.23-1.48.77.77,0,0,0-.73-.49.74.74,0,0,0-.71.49A3.9,3.9,0,0,0,35.13,125.83Z"/>
    </g>
  </g>
  <rect class="cls-6" x="38.03" y="162.4" width="18.2" height="69.24"/>
  <rect class="cls-2" x="28.93" y="129.34" width="181.96" height="172.96"/>
  <rect class="cls-6" x="74.42" y="226.72" width="18.2" height="4.92"/>
  <rect class="cls-2" x="28.93" y="129.34" width="181.96" height="172.96"/>
  <rect class="cls-7" x="110.81" y="231.64" width="18.2" height="31.24"/>
  <rect class="cls-2" x="28.93" y="129.34" width="181.96" height="172.96"/>
  <rect class="cls-7" x="147.21" y="231.64" width="18.2" height="62.8"/>
  <rect class="cls-6" x="183.6" y="217.78" width="18.2" height="13.86"/>
  <rect class="cls-8" x="162.46" y="122.36" width="50.41" height="23.52"/>
  <g class="cls-4">
    <path d="M174.73,138H173.6v-7.12c0-.59,0-1.15.05-1.68l-.32.3-1.66,1.33-.61-.78,2.69-2h1Z"/>
    <path d="M184,138h-1.16V127.38H184Z"/>
    <path d="M186.34,128.49a.74.74,0,0,1,.2-.57.73.73,0,0,1,1,0,.71.71,0,0,1,.21.57.74.74,0,0,1-.21.57.7.7,0,0,1-1,0A.77.77,0,0,1,186.34,128.49Zm1.25,9.52h-1.15v-7.49h1.15Z"/>
    <path d="M195.27,138v-4.84a1.89,1.89,0,0,0-.43-1.37,1.74,1.74,0,0,0-1.33-.45,2.21,2.21,0,0,0-1.75.63,3.2,3.2,0,0,0-.56,2.1V138h-1.15v-7.49H191l.18,1h.06a2.42,2.42,0,0,1,1-.85,3.22,3.22,0,0,1,1.43-.31,2.93,2.93,0,0,1,2.08.66,2.74,2.74,0,0,1,.69,2.08V138Z"/>
    <path d="M202,138.15a3.55,3.55,0,0,1-2.67-1,3.89,3.89,0,0,1-1-2.81,4.32,4.32,0,0,1,.91-2.88,3.05,3.05,0,0,1,2.44-1.07,2.9,2.9,0,0,1,2.27.93,3.5,3.5,0,0,1,.84,2.44v.72h-5.26a2.9,2.9,0,0,0,.68,2,2.35,2.35,0,0,0,1.81.69,6.21,6.21,0,0,0,2.44-.51v1a6.25,6.25,0,0,1-1.16.38A7,7,0,0,1,202,138.15Zm-.31-6.82a1.92,1.92,0,0,0-1.47.59,2.66,2.66,0,0,0-.64,1.63h4a2.44,2.44,0,0,0-.49-1.65A1.72,1.72,0,0,0,201.71,131.33Z"/>
  </g>
  <rect class="cls-9" x="247.28" y="129.34" width="181.96" height="172.96"/>
  <line class="cls-3" x1="247.28" y1="281.65" x2="429.24" y2="281.65"/>
  <rect class="cls-2" x="247.28" y="129.34" width="181.96" height="172.96"/>
  <line class="cls-3" x1="247.28" y1="256.65" x2="429.24" y2="256.65"/>
  <rect class="cls-2" x="247.28" y="129.34" width="181.96" height="172.96"/>
  <line class="cls-3" x1="247.28" y1="231.64" x2="429.24" y2="231.64"/>
  <rect class="cls-2" x="247.28" y="129.34" width="181.96" height="172.96"/>
  <line class="cls-3" x1="247.28" y1="206.63" x2="429.24" y2="206.63"/>
  <rect class="cls-2" x="247.28" y="129.34" width="181.96" height="172.96"/>
  <line class="cls-3" x1="247.28" y1="181.63" x2="429.24" y2="181.63"/>
  <rect class="cls-2" x="247.28" y="129.34" width="181.96" height="172.96"/>
  <line class="cls-3" x1="247.28" y1="156.62" x2="429.24" y2="156.62"/>
  <rect class="cls-2" x="247.28" y="129.34" width="181.96" height="172.96"/>
  <line class="cls-3" x1="247.28" y1="131.61" x2="429.24" y2="131.61"/>
  <rect class="cls-2" x="247.28" y="129.34" width="181.96" height="172.96"/>
  <rect class="cls-6" x="256.38" y="158.15" width="18.2" height="73.49"/>
  <rect class="cls-2" x="247.28" y="129.34" width="181.96" height="172.96"/>
  <rect class="cls-6" x="292.77" y="203.74" width="18.2" height="27.9"/>
  <rect class="cls-2" x="247.28" y="129.34" width="181.96" height="172.96"/>
  <rect class="cls-7" x="329.16" y="231.64" width="18.2" height="39.75"/>
  <rect class="cls-2" x="247.28" y="129.34" width="181.96" height="172.96"/>
  <rect class="cls-7" x="365.55" y="231.64" width="18.2" height="29.68"/>
  <rect class="cls-6" x="401.95" y="225.86" width="18.2" height="5.78"/>
  <rect class="cls-8" x="382.23" y="122.36" width="50.34" height="23.52"/>
  <g class="cls-4">
    <path d="M395.28,138.25H389.7v-10h5.58v1h-4.41v3.22H395v1h-4.14v3.68h4.41Z"/>
    <path d="M402.09,138.25H401V127.61h1.13Z"/>
    <path d="M404.4,128.72a.78.78,0,0,1,.19-.57.68.68,0,0,1,.48-.18.64.64,0,0,1,.47.19.7.7,0,0,1,.2.56.71.71,0,0,1-.2.57.64.64,0,0,1-.47.19.65.65,0,0,1-.48-.19A.78.78,0,0,1,404.4,128.72Zm1.23,9.53H404.5v-7.5h1.13Z"/>
    <path d="M413.17,138.25V133.4a2,2,0,0,0-.42-1.37,1.72,1.72,0,0,0-1.31-.45,2.13,2.13,0,0,0-1.72.64,3.17,3.17,0,0,0-.55,2.1v3.93H408v-7.5H409l.19,1h.05a2.29,2.29,0,0,1,1-.86,3.19,3.19,0,0,1,1.4-.3,2.84,2.84,0,0,1,2,.65,2.81,2.81,0,0,1,.68,2.09v4.89Z"/>
    <path d="M419.8,138.38a3.44,3.44,0,0,1-2.63-1,3.91,3.91,0,0,1-1-2.81,4.32,4.32,0,0,1,.9-2.88,3,3,0,0,1,2.39-1.06,2.85,2.85,0,0,1,2.23.92,3.56,3.56,0,0,1,.82,2.45v.72h-5.16a2.93,2.93,0,0,0,.67,2,2.31,2.31,0,0,0,1.78.68,6.17,6.17,0,0,0,2.39-.5v1a6.54,6.54,0,0,1-1.14.37A6.08,6.08,0,0,1,419.8,138.38Zm-.31-6.81a1.84,1.84,0,0,0-1.44.59,2.65,2.65,0,0,0-.63,1.62h3.91a2.54,2.54,0,0,0-.47-1.64A1.7,1.7,0,0,0,419.49,131.57Z"/>
  </g>
  <rect class="cls-9" x="465.63" y="129.34" width="181.96" height="172.96"/>
  <line class="cls-3" x1="465.63" y1="281.65" x2="647.59" y2="281.65"/>
  <rect class="cls-2" x="465.63" y="129.34" width="181.96" height="172.96"/>
  <line class="cls-3" x1="465.63" y1="256.65" x2="647.59" y2="256.65"/>
  <rect class="cls-2" x="465.63" y="129.34" width="181.96" height="172.96"/>
  <line class="cls-3" x1="465.63" y1="231.64" x2="647.59" y2="231.64"/>
  <rect class="cls-2" x="465.63" y="129.34" width="181.96" height="172.96"/>
  <line class="cls-3" x1="465.63" y1="206.63" x2="647.59" y2="206.63"/>
  <rect class="cls-2" x="465.63" y="129.34" width="181.96" height="172.96"/>
  <line class="cls-3" x1="465.63" y1="181.63" x2="647.59" y2="181.63"/>
  <rect class="cls-2" x="465.63" y="129.34" width="181.96" height="172.96"/>
  <line class="cls-3" x1="465.63" y1="156.62" x2="647.59" y2="156.62"/>
  <rect class="cls-2" x="465.63" y="129.34" width="181.96" height="172.96"/>
  <line class="cls-3" x1="465.63" y1="131.61" x2="647.59" y2="131.61"/>
  <rect class="cls-2" x="465.63" y="129.34" width="181.96" height="172.96"/>
  <rect class="cls-6" x="474.73" y="142" width="18.2" height="89.64"/>
  <rect class="cls-2" x="465.63" y="129.34" width="181.96" height="172.96"/>
  <rect class="cls-6" x="511.12" y="213.23" width="18.2" height="18.41"/>
  <rect class="cls-2" x="465.63" y="129.34" width="181.96" height="172.96"/>
  <rect class="cls-7" x="547.51" y="231.64" width="18.2" height="54.16"/>
  <rect class="cls-2" x="465.63" y="129.34" width="181.96" height="172.96"/>
  <rect class="cls-7" x="583.9" y="231.64" width="18.2" height="19.8"/>
  <rect class="cls-6" x="620.29" y="229" width="18.2" height="2.64"/>
  <rect class="cls-8" x="599.09" y="122.36" width="50.38" height="23.52"/>
  <g class="cls-4">
    <g>
      <path d="M613.68,135.35a2.44,2.44,0,0,1-1,2.06,4.29,4.29,0,0,1-2.64.74,6.67,6.67,0,0,1-2.79-.46v-1.12a7.58,7.58,0,0,0,1.37.41,7.31,7.31,0,0,0,1.46.15,3,3,0,0,0,1.78-.44,1.43,1.43,0,0,0,.6-1.23,1.57,1.57,0,0,0-.21-.85,2,2,0,0,0-.71-.61,9.88,9.88,0,0,0-1.52-.64,4.85,4.85,0,0,1-2-1.18,2.6,2.6,0,0,1-.61-1.78,2.2,2.2,0,0,1,.89-1.84,3.7,3.7,0,0,1,2.34-.69,7.09,7.09,0,0,1,2.79.55l-.37,1a6.54,6.54,0,0,0-2.45-.52,2.42,2.42,0,0,0-1.47.4,1.3,1.3,0,0,0-.53,1.1,1.64,1.64,0,0,0,.2.85,1.79,1.79,0,0,0,.66.61,8.16,8.16,0,0,0,1.41.61,5.78,5.78,0,0,1,2.21,1.2A2.36,2.36,0,0,1,613.68,135.35Z"/>
      <path d="M620.45,138h-1.16V127.38h1.16Z"/>
      <path d="M622.8,128.49a.74.74,0,0,1,.19-.57.71.71,0,0,1,.49-.18.68.68,0,0,1,.48.18.71.71,0,0,1,.2.57.74.74,0,0,1-.2.57.65.65,0,0,1-.48.19.67.67,0,0,1-.49-.19A.77.77,0,0,1,622.8,128.49Zm1.25,9.52H622.9v-7.49h1.15Z"/>
      <path d="M631.73,138v-4.84a1.94,1.94,0,0,0-.43-1.37,1.75,1.75,0,0,0-1.33-.45,2.21,2.21,0,0,0-1.75.63,3.14,3.14,0,0,0-.56,2.1V138H626.5v-7.49h.94l.19,1h.06a2.36,2.36,0,0,1,1-.85,3.22,3.22,0,0,1,1.43-.31,2.93,2.93,0,0,1,2.08.66,2.74,2.74,0,0,1,.69,2.08V138Z"/>
      <path d="M638.48,138.15a3.55,3.55,0,0,1-2.67-1,3.89,3.89,0,0,1-1-2.81,4.27,4.27,0,0,1,.91-2.88,3.05,3.05,0,0,1,2.44-1.07,2.9,2.9,0,0,1,2.27.93,3.5,3.5,0,0,1,.84,2.44v.72H636a2.9,2.9,0,0,0,.68,2,2.35,2.35,0,0,0,1.81.69,6.21,6.21,0,0,0,2.44-.51v1a6.25,6.25,0,0,1-1.16.38A7.08,7.08,0,0,1,638.48,138.15Zm-.31-6.82a1.91,1.91,0,0,0-1.47.59,2.66,2.66,0,0,0-.64,1.63h4a2.5,2.5,0,0,0-.49-1.65A1.74,1.74,0,0,0,638.17,131.33Z"/>
    </g>
  </g>
  <g>
    <rect class="cls-1" x="683.98" y="129.34" width="181.96" height="172.96"/>
    <line class="cls-10" x1="683.98" y1="281.65" x2="865.93" y2="281.65"/>
    <rect class="cls-11" x="683.98" y="129.34" width="181.96" height="172.96"/>
    <line class="cls-10" x1="683.98" y1="256.65" x2="865.93" y2="256.65"/>
    <rect class="cls-11" x="683.98" y="129.34" width="181.96" height="172.96"/>
    <line class="cls-10" x1="683.98" y1="231.64" x2="865.93" y2="231.64"/>
    <rect class="cls-11" x="683.98" y="129.34" width="181.96" height="172.96"/>
    <line class="cls-10" x1="683.98" y1="206.63" x2="865.93" y2="206.63"/>
    <rect class="cls-11" x="683.98" y="129.34" width="181.96" height="172.96"/>
    <line class="cls-10" x1="683.98" y1="181.63" x2="865.93" y2="181.63"/>
    <rect class="cls-11" x="683.98" y="129.34" width="181.96" height="172.96"/>
    <line class="cls-10" x1="683.98" y1="156.62" x2="865.93" y2="156.62"/>
    <rect class="cls-11" x="683.98" y="129.34" width="181.96" height="172.96"/>
    <line class="cls-10" x1="683.98" y1="131.61" x2="865.93" y2="131.61"/>
    <rect class="cls-11" x="683.98" y="129.34" width="181.96" height="172.96"/>
    <rect class="cls-12" x="693.08" y="137.2" width="18.2" height="94.44"/>
    <rect class="cls-11" x="683.98" y="129.34" width="181.96" height="172.96"/>
    <rect class="cls-12" x="729.47" y="174.94" width="18.2" height="56.7"/>
    <rect class="cls-11" x="683.98" y="129.34" width="181.96" height="172.96"/>
    <rect class="cls-12" x="765.86" y="223.2" width="18.2" height="8.44"/>
    <rect class="cls-11" x="683.98" y="129.34" width="181.96" height="172.96"/>
    <rect class="cls-12" x="802.25" y="224.69" width="18.2" height="6.95"/>
    <rect class="cls-12" x="838.64" y="229.47" width="18.2" height="2.17"/>
    <rect class="cls-13" x="817.01" y="122.36" width="51.13" height="23.52"/>
    <g>
      <path d="M832.22,138.25,831,135.07h-4l-1.23,3.18h-1.18l4-10h1l3.93,10ZM830.61,134l-1.16-3.1c-.15-.39-.31-.87-.47-1.44a11.87,11.87,0,0,1-.43,1.44l-1.17,3.1Z"/>
      <path d="M839.4,138.25h-1.14V127.61h1.14Z"/>
      <path d="M841.71,128.72a.74.74,0,0,1,.19-.57.66.66,0,0,1,.48-.18.64.64,0,0,1,.47.19.73.73,0,0,1,.2.56.74.74,0,0,1-.2.57.64.64,0,0,1-.47.19.63.63,0,0,1-.48-.19A.74.74,0,0,1,841.71,128.72Zm1.23,9.53H841.8v-7.5h1.14Z"/>
      <path d="M850.47,138.25V133.4a2,2,0,0,0-.42-1.37,1.69,1.69,0,0,0-1.3-.45,2.15,2.15,0,0,0-1.73.64,3.23,3.23,0,0,0-.54,2.1v3.93h-1.14v-7.5h.93l.18,1h0a2.34,2.34,0,0,1,1-.86,3.23,3.23,0,0,1,1.4-.3,2.83,2.83,0,0,1,2,.65,2.77,2.77,0,0,1,.68,2.09v4.89Z"/>
      <path d="M857.1,138.38a3.41,3.41,0,0,1-2.62-1,3.91,3.91,0,0,1-1-2.81,4.37,4.37,0,0,1,.89-2.88,3,3,0,0,1,2.4-1.06,2.85,2.85,0,0,1,2.23.92,3.61,3.61,0,0,1,.82,2.45v.72h-5.17a3,3,0,0,0,.67,2,2.33,2.33,0,0,0,1.78.68,6.1,6.1,0,0,0,2.39-.5v1a6.73,6.73,0,0,1-1.13.37A6.12,6.12,0,0,1,857.1,138.38Zm-.31-6.81a1.84,1.84,0,0,0-1.44.59,2.78,2.78,0,0,0-.63,1.62h3.92a2.49,2.49,0,0,0-.48-1.64A1.68,1.68,0,0,0,856.79,131.57Z"/>
    </g>
  </g>
  <g>
    <rect class="cls-13" x="7.81" y="13.81" width="412.33" height="52.57"/>
    <g>
      <path d="M25.56,28.13a6.79,6.79,0,0,1-1.86,5.14A7.49,7.49,0,0,1,18.33,35h-3.8V21.48h4.2a6.93,6.93,0,0,1,5,1.74A6.53,6.53,0,0,1,25.56,28.13Zm-2.33.08q0-4.87-4.56-4.87H16.75v9.84h1.58C21.59,33.18,23.23,31.52,23.23,28.21Z"/>
      <path d="M32.73,35.23A5,5,0,0,1,29,33.83,5.29,5.29,0,0,1,27.63,30,5.76,5.76,0,0,1,28.89,26a4.31,4.31,0,0,1,3.44-1.44,4.25,4.25,0,0,1,3.21,1.23,4.75,4.75,0,0,1,1.18,3.4V30.4H29.88a3.35,3.35,0,0,0,.81,2.3,2.78,2.78,0,0,0,2.14.8,7.57,7.57,0,0,0,1.69-.17,8.41,8.41,0,0,0,1.69-.57v1.77a6.3,6.3,0,0,1-1.62.54A9.41,9.41,0,0,1,32.73,35.23Zm-.4-9a2.19,2.19,0,0,0-1.67.66,3.12,3.12,0,0,0-.74,1.92h4.65A2.82,2.82,0,0,0,34,26.9,2.12,2.12,0,0,0,32.33,26.25Z"/>
      <path d="M46.09,32.12A2.71,2.71,0,0,1,45,34.43a5.26,5.26,0,0,1-3.13.8,7.5,7.5,0,0,1-3.3-.62V32.72a8.07,8.07,0,0,0,3.37.84c1.34,0,2-.41,2-1.22a1,1,0,0,0-.22-.65,2.59,2.59,0,0,0-.73-.53,11.52,11.52,0,0,0-1.42-.63,6.6,6.6,0,0,1-2.4-1.38,2.53,2.53,0,0,1-.63-1.78,2.32,2.32,0,0,1,1.07-2,5,5,0,0,1,2.89-.73,8.18,8.18,0,0,1,3.42.73L45.21,27a7.47,7.47,0,0,0-2.79-.68c-1.15,0-1.72.32-1.72,1a1,1,0,0,0,.45.82,10.12,10.12,0,0,0,2,.91,9,9,0,0,1,1.84.9,2.52,2.52,0,0,1,1.14,2.22Z"/>
      <path d="M53.65,35.23a3.62,3.62,0,0,1-3-1.4h-.13c.09.86.13,1.39.13,1.58v4.2H48.44V24.78h1.77c0,.19.15.65.3,1.38h.11a3.41,3.41,0,0,1,3.06-1.56,3.58,3.58,0,0,1,3,1.39,6.3,6.3,0,0,1,1.07,3.9,6.33,6.33,0,0,1-1.09,3.93A3.6,3.6,0,0,1,53.65,35.23Zm-.53-8.85a2.26,2.26,0,0,0-1.9.76,3.94,3.94,0,0,0-.6,2.43v.32a4.78,4.78,0,0,0,.6,2.72,2.2,2.2,0,0,0,1.94.84,2,2,0,0,0,1.74-.93,4.77,4.77,0,0,0,.61-2.64,4.61,4.61,0,0,0-.61-2.62A2,2,0,0,0,53.12,26.38Z"/>
      <path d="M60.15,22.06a1.1,1.1,0,0,1,1.23-1.21,1.22,1.22,0,0,1,.9.31,1.24,1.24,0,0,1,.32.9,1.19,1.19,0,0,1-.32.88,1.22,1.22,0,0,1-.9.32,1.24,1.24,0,0,1-.91-.32A1.19,1.19,0,0,1,60.15,22.06Zm2.31,13H60.28V24.78h2.18Z"/>
      <path d="M69.4,33.47a5.61,5.61,0,0,0,1.6-.25v1.64a5,5,0,0,1-.94.26,6.47,6.47,0,0,1-1.18.11q-3.1,0-3.1-3.27V26.43h-1.4v-1l1.5-.8.75-2.17H68v2.28h2.92v1.65H68v5.5a1.51,1.51,0,0,0,.4,1.16A1.42,1.42,0,0,0,69.4,33.47Z"/>
      <path d="M77.53,35.23a5,5,0,0,1-3.75-1.4A5.29,5.29,0,0,1,72.43,30,5.76,5.76,0,0,1,73.69,26a4.31,4.31,0,0,1,3.44-1.44,4.25,4.25,0,0,1,3.21,1.23,4.75,4.75,0,0,1,1.18,3.4V30.4H74.68a3.35,3.35,0,0,0,.81,2.3,2.78,2.78,0,0,0,2.14.8,7.57,7.57,0,0,0,1.69-.17A8.41,8.41,0,0,0,81,32.76v1.77a6.3,6.3,0,0,1-1.62.54A9.41,9.41,0,0,1,77.53,35.23Zm-.4-9a2.21,2.21,0,0,0-1.67.66,3.12,3.12,0,0,0-.74,1.92h4.65a2.82,2.82,0,0,0-.61-1.93A2.12,2.12,0,0,0,77.13,26.25Z"/>
      <path d="M92.75,33.47a5.61,5.61,0,0,0,1.6-.25v1.64a4.75,4.75,0,0,1-.94.26,6.47,6.47,0,0,1-1.18.11c-2.06,0-3.1-1.09-3.1-3.27V26.43h-1.4v-1l1.5-.8L90,22.5h1.34v2.28h2.92v1.65H91.32v5.5a1.51,1.51,0,0,0,.4,1.16A1.42,1.42,0,0,0,92.75,33.47Z"/>
      <path d="M105.42,35h-2.19V28.73a2.75,2.75,0,0,0-.47-1.77,1.86,1.86,0,0,0-1.52-.58,2.4,2.4,0,0,0-2,.82A4.52,4.52,0,0,0,98.58,30V35H96.4V20.61h2.18v3.66a18.31,18.31,0,0,1-.11,1.89h.13A3,3,0,0,1,99.84,25a3.91,3.91,0,0,1,1.85-.41q3.74,0,3.73,3.75Z"/>
      <path d="M112.94,35.23a5,5,0,0,1-3.75-1.4A5.33,5.33,0,0,1,107.85,30,5.76,5.76,0,0,1,109.1,26a4.31,4.31,0,0,1,3.44-1.44,4.25,4.25,0,0,1,3.21,1.23,4.75,4.75,0,0,1,1.18,3.4V30.4h-6.84a3.35,3.35,0,0,0,.81,2.3,2.78,2.78,0,0,0,2.14.8,7.5,7.5,0,0,0,1.69-.17,8.21,8.21,0,0,0,1.69-.57v1.77a6.18,6.18,0,0,1-1.62.54A9.41,9.41,0,0,1,112.94,35.23Zm-.4-9a2.21,2.21,0,0,0-1.67.66,3.18,3.18,0,0,0-.74,1.92h4.65a2.82,2.82,0,0,0-.61-1.93A2.1,2.1,0,0,0,112.54,26.25Z"/>
      <path d="M135.6,28.13a6.79,6.79,0,0,1-1.86,5.14A7.51,7.51,0,0,1,128.37,35h-3.8V21.48h4.2a6.94,6.94,0,0,1,5,1.74A6.53,6.53,0,0,1,135.6,28.13Zm-2.33.08q0-4.87-4.56-4.87h-1.92v9.84h1.58C131.63,33.18,133.27,31.52,133.27,28.21Z"/>
      <path d="M142.77,35.23a5,5,0,0,1-3.75-1.4A5.29,5.29,0,0,1,137.67,30,5.81,5.81,0,0,1,138.92,26a4.35,4.35,0,0,1,3.45-1.44,4.25,4.25,0,0,1,3.21,1.23,4.74,4.74,0,0,1,1.17,3.4V30.4h-6.83a3.39,3.39,0,0,0,.8,2.3,2.81,2.81,0,0,0,2.15.8,7.57,7.57,0,0,0,1.69-.17,8.34,8.34,0,0,0,1.68-.57v1.77a6.23,6.23,0,0,1-1.61.54A9.48,9.48,0,0,1,142.77,35.23Zm-.4-9a2.19,2.19,0,0,0-1.67.66,3.13,3.13,0,0,0-.75,1.92h4.66A2.87,2.87,0,0,0,144,26.9,2.12,2.12,0,0,0,142.37,26.25Z"/>
      <path d="M153.37,35.23a4.49,4.49,0,0,1-3.54-1.36,5.68,5.68,0,0,1-1.21-3.9,5.68,5.68,0,0,1,1.27-4,4.68,4.68,0,0,1,3.66-1.39,6.9,6.9,0,0,1,2.92.6L155.81,27a6.75,6.75,0,0,0-2.28-.53c-1.78,0-2.67,1.17-2.67,3.53a4.24,4.24,0,0,0,.67,2.59,2.29,2.29,0,0,0,1.94.87,5.63,5.63,0,0,0,2.76-.72v1.9a4.34,4.34,0,0,1-1.25.49A7.41,7.41,0,0,1,153.37,35.23Z"/>
      <path d="M160.82,35h-2.18V20.61h2.18Z"/>
      <path d="M163.81,22.06a1.2,1.2,0,0,1,.32-.9,1.23,1.23,0,0,1,.91-.31,1.1,1.1,0,0,1,1.22,1.21,1.19,1.19,0,0,1-.32.88,1.25,1.25,0,0,1-.9.32,1.23,1.23,0,0,1-.91-.32A1.15,1.15,0,0,1,163.81,22.06Zm2.31,13h-2.18V24.78h2.18Z"/>
      <path d="M178.26,35h-2.19V28.73a2.75,2.75,0,0,0-.48-1.77,1.83,1.83,0,0,0-1.51-.58,2.43,2.43,0,0,0-2,.81,4.58,4.58,0,0,0-.64,2.74V35h-2.18V24.78h1.71l.31,1.35h.11A3,3,0,0,1,172.68,25a4.33,4.33,0,0,1,1.89-.4q3.69,0,3.69,3.75Z"/>
      <path d="M185.77,35.23a5,5,0,0,1-3.74-1.4A5.29,5.29,0,0,1,180.68,30,5.81,5.81,0,0,1,181.93,26a4.35,4.35,0,0,1,3.45-1.44,4.25,4.25,0,0,1,3.21,1.23,4.74,4.74,0,0,1,1.17,3.4V30.4h-6.83a3.39,3.39,0,0,0,.8,2.3,2.81,2.81,0,0,0,2.15.8,7.57,7.57,0,0,0,1.69-.17,8.34,8.34,0,0,0,1.68-.57v1.77a6.23,6.23,0,0,1-1.61.54A9.52,9.52,0,0,1,185.77,35.23Zm-.39-9a2.19,2.19,0,0,0-1.67.66,3.13,3.13,0,0,0-.75,1.92h4.66A2.87,2.87,0,0,0,187,26.9,2.12,2.12,0,0,0,185.38,26.25Z"/>
      <path d="M194.5,33.05a30.38,30.38,0,0,1-1.63,4.44h-1.6c.42-1.67.74-3.22.95-4.65h2.15Z"/>
      <path d="M210.3,31.36A3.41,3.41,0,0,1,209,34.2a5.7,5.7,0,0,1-3.61,1,8.56,8.56,0,0,1-3.77-.72V32.42a10,10,0,0,0,2,.68,8.28,8.28,0,0,0,1.95.25,3.06,3.06,0,0,0,1.94-.5,1.62,1.62,0,0,0,.63-1.34,1.7,1.7,0,0,0-.58-1.29A8.73,8.73,0,0,0,205.16,29a6.32,6.32,0,0,1-2.62-1.72,3.62,3.62,0,0,1-.76-2.32,3.25,3.25,0,0,1,1.2-2.67,5,5,0,0,1,3.24-1,9.51,9.51,0,0,1,3.88.85L209.4,24a8.47,8.47,0,0,0-3.23-.76,2.45,2.45,0,0,0-1.64.47,1.52,1.52,0,0,0-.55,1.23,1.73,1.73,0,0,0,.22.91,2.26,2.26,0,0,0,.73.71,13,13,0,0,0,1.84.88A9.63,9.63,0,0,1,209,28.55a3.5,3.5,0,0,1,1,1.21A3.66,3.66,0,0,1,210.3,31.36Z"/>
      <path d="M216.52,33.47a5.61,5.61,0,0,0,1.6-.25v1.64a5,5,0,0,1-.94.26,6.47,6.47,0,0,1-1.18.11q-3.1,0-3.1-3.27V26.43h-1.4v-1l1.5-.8.75-2.17h1.34v2.28H218v1.65h-2.92v5.5a1.51,1.51,0,0,0,.4,1.16A1.42,1.42,0,0,0,216.52,33.47Z"/>
      <path d="M226.59,35l-.44-1.43h-.07a4.28,4.28,0,0,1-1.5,1.28,4.64,4.64,0,0,1-1.93.34,3.24,3.24,0,0,1-2.36-.82,3.06,3.06,0,0,1-.85-2.31,2.7,2.7,0,0,1,1.18-2.39,6.79,6.79,0,0,1,3.59-.88l1.77-.06v-.55a2.07,2.07,0,0,0-.46-1.47,1.87,1.87,0,0,0-1.42-.48,4.72,4.72,0,0,0-1.51.23,10.05,10.05,0,0,0-1.39.55l-.71-1.56a8.12,8.12,0,0,1,1.83-.67,8.41,8.41,0,0,1,1.87-.22,4.45,4.45,0,0,1,3,.85,3.35,3.35,0,0,1,1,2.68V35Zm-3.25-1.48a2.72,2.72,0,0,0,1.91-.66A2.46,2.46,0,0,0,226,31v-.89l-1.31.05a4.46,4.46,0,0,0-2.24.52,1.54,1.54,0,0,0-.7,1.4,1.37,1.37,0,0,0,.4,1.06A1.78,1.78,0,0,0,223.34,33.56Z"/>
      <path d="M235,33.47a5.61,5.61,0,0,0,1.6-.25v1.64a5,5,0,0,1-.94.26,6.47,6.47,0,0,1-1.18.11q-3.11,0-3.1-3.27V26.43H230v-1l1.5-.8.75-2.17h1.34v2.28h2.92v1.65h-2.92v5.5a1.51,1.51,0,0,0,.4,1.16A1.42,1.42,0,0,0,235,33.47Z"/>
      <path d="M238.53,22.06a1.2,1.2,0,0,1,.32-.9,1.23,1.23,0,0,1,.91-.31A1.11,1.11,0,0,1,241,22.06a1.15,1.15,0,0,1-.33.88,1.21,1.21,0,0,1-.89.32,1.23,1.23,0,0,1-.91-.32A1.15,1.15,0,0,1,238.53,22.06Zm2.31,13h-2.18V24.78h2.18Z"/>
      <path d="M253.06,29.89a5.65,5.65,0,0,1-1.29,3.93,4.63,4.63,0,0,1-3.6,1.41,5,5,0,0,1-2.54-.65,4.22,4.22,0,0,1-1.69-1.87,6.29,6.29,0,0,1-.6-2.82A5.56,5.56,0,0,1,244.62,26a4.64,4.64,0,0,1,3.61-1.4A4.51,4.51,0,0,1,251.76,26,5.56,5.56,0,0,1,253.06,29.89Zm-7.47,0q0,3.55,2.62,3.56t2.6-3.56q0-3.51-2.62-3.51a2.23,2.23,0,0,0-2,.91A4.61,4.61,0,0,0,245.59,29.89Z"/>
      <path d="M264.59,35H262.4V28.73a2.75,2.75,0,0,0-.48-1.77,1.86,1.86,0,0,0-1.52-.58,2.42,2.42,0,0,0-2,.81,4.51,4.51,0,0,0-.64,2.74V35h-2.18V24.78h1.71l.3,1.35h.11A3,3,0,0,1,259,25a4.36,4.36,0,0,1,1.89-.4c2.46,0,3.7,1.25,3.7,3.75Z"/>
      <path d="M274.51,32.12a2.7,2.7,0,0,1-1.09,2.31,5.29,5.29,0,0,1-3.14.8,7.48,7.48,0,0,1-3.29-.62V32.72a8,8,0,0,0,3.37.84c1.34,0,2-.41,2-1.22a1,1,0,0,0-.22-.65,2.67,2.67,0,0,0-.74-.53,10.87,10.87,0,0,0-1.42-.63,6.45,6.45,0,0,1-2.39-1.38,2.53,2.53,0,0,1-.63-1.78,2.32,2.32,0,0,1,1.06-2,5,5,0,0,1,2.89-.73,8.19,8.19,0,0,1,3.43.73L273.64,27a7.56,7.56,0,0,0-2.79-.68c-1.15,0-1.73.32-1.73,1a1,1,0,0,0,.45.82,10.44,10.44,0,0,0,2,.91,9.08,9.08,0,0,1,1.85.9,2.71,2.71,0,0,1,.85,1A2.65,2.65,0,0,1,274.51,32.12Z"/>
      <path d="M290.45,35l-1.35-3.76h-5.19L282.58,35h-2.33l5.07-13.62h2.41L292.81,35Zm-1.94-5.67-1.27-3.7c-.09-.24-.22-.63-.38-1.17s-.28-.92-.34-1.16a21.43,21.43,0,0,1-.73,2.49l-1.23,3.54Z"/>
      <path d="M296.55,35h-2.18V20.61h2.18Z"/>
      <path d="M308.77,29.89a5.61,5.61,0,0,1-1.29,3.93,4.63,4.63,0,0,1-3.59,1.41,5,5,0,0,1-2.55-.65,4.22,4.22,0,0,1-1.69-1.87,6.29,6.29,0,0,1-.6-2.82A5.56,5.56,0,0,1,300.33,26a4.64,4.64,0,0,1,3.61-1.4A4.51,4.51,0,0,1,307.47,26,5.56,5.56,0,0,1,308.77,29.89Zm-7.47,0q0,3.55,2.62,3.56t2.6-3.56q0-3.51-2.62-3.51a2.24,2.24,0,0,0-2,.91A4.61,4.61,0,0,0,301.3,29.89Z"/>
      <path d="M320.3,35h-2.19V28.73a2.75,2.75,0,0,0-.48-1.77,1.84,1.84,0,0,0-1.52-.58,2.42,2.42,0,0,0-2,.81,4.51,4.51,0,0,0-.64,2.74V35h-2.18V24.78H313l.3,1.35h.12A2.91,2.91,0,0,1,314.71,25a4.36,4.36,0,0,1,1.89-.4q3.7,0,3.7,3.75Z"/>
      <path d="M332,24.78V26l-1.76.32a2.85,2.85,0,0,1,.4.8,3,3,0,0,1,.16,1,3.08,3.08,0,0,1-1.1,2.5,4.55,4.55,0,0,1-3,.91,4.74,4.74,0,0,1-.89-.08,1.26,1.26,0,0,0-.71,1,.55.55,0,0,0,.33.52,2.82,2.82,0,0,0,1.21.18h1.79a4,4,0,0,1,2.58.72,2.55,2.55,0,0,1,.88,2.09,3,3,0,0,1-1.43,2.69,7.6,7.6,0,0,1-4.16,1,5.78,5.78,0,0,1-3.2-.74A2.4,2.4,0,0,1,322,36.75a2.29,2.29,0,0,1,.6-1.59,3.24,3.24,0,0,1,1.68-.9,1.64,1.64,0,0,1-.72-.59,1.52,1.52,0,0,1-.28-.87,1.5,1.5,0,0,1,.32-1,3.91,3.91,0,0,1,1-.78,2.88,2.88,0,0,1-1.3-1.12,3.31,3.31,0,0,1-.49-1.82,3.24,3.24,0,0,1,1.05-2.58,4.38,4.38,0,0,1,3-.92,7.31,7.31,0,0,1,.91.06,6.58,6.58,0,0,1,.72.12Zm-8.07,11.86a1.2,1.2,0,0,0,.64,1.08,3.41,3.41,0,0,0,1.78.38,5.42,5.42,0,0,0,2.66-.51,1.53,1.53,0,0,0,.87-1.35,1,1,0,0,0-.48-1,3.82,3.82,0,0,0-1.77-.28H326a2.26,2.26,0,0,0-1.49.44A1.44,1.44,0,0,0,323.93,36.64Zm.94-8.54a2.08,2.08,0,0,0,.5,1.49,1.85,1.85,0,0,0,1.42.52c1.26,0,1.89-.68,1.89-2a2.31,2.31,0,0,0-.46-1.55,2.16,2.16,0,0,0-2.86,0A2.23,2.23,0,0,0,324.87,28.1Z"/>
      <path d="M16.73,57.84h-2.2V44.28h7.66v1.87H16.73v4.24h5.11v1.89H16.73Z"/>
      <path d="M33.52,52.69a5.65,5.65,0,0,1-1.29,3.93A4.63,4.63,0,0,1,28.64,58a5,5,0,0,1-2.55-.65,4.22,4.22,0,0,1-1.69-1.87,6.29,6.29,0,0,1-.6-2.82,5.56,5.56,0,0,1,1.28-3.89,4.64,4.64,0,0,1,3.61-1.4,4.51,4.51,0,0,1,3.53,1.43A5.56,5.56,0,0,1,33.52,52.69Zm-7.47,0q0,3.56,2.62,3.56t2.6-3.56q0-3.51-2.62-3.51a2.24,2.24,0,0,0-2,.91A4.61,4.61,0,0,0,26.05,52.69Z"/>
      <path d="M43.26,57.84,43,56.5h-.11a3.11,3.11,0,0,1-1.3,1.12,4.32,4.32,0,0,1-1.91.41,3.75,3.75,0,0,1-2.78-.93,3.81,3.81,0,0,1-.92-2.81V47.58h2.2v6.33a2.77,2.77,0,0,0,.48,1.77,1.84,1.84,0,0,0,1.51.59,2.4,2.4,0,0,0,2-.83,4.5,4.5,0,0,0,.64-2.75V47.58H45V57.84Z"/>
      <path d="M53.29,47.4a5.38,5.38,0,0,1,1.08.09l-.21,2a4.37,4.37,0,0,0-1-.11,2.79,2.79,0,0,0-2.12.85,3.1,3.1,0,0,0-.81,2.22v5.36H48.08V47.58h1.71l.29,1.81h.11a4,4,0,0,1,1.33-1.45A3.13,3.13,0,0,1,53.29,47.4Z"/>
      <path d="M61.44,57.84V44.28h2.22V55.94H69.4v1.9Z"/>
      <path d="M71.38,44.86a1.18,1.18,0,0,1,.32-.9,1.23,1.23,0,0,1,.91-.31,1.21,1.21,0,0,1,.89.31,1.19,1.19,0,0,1,.33.9,1.15,1.15,0,0,1-.33.88,1.21,1.21,0,0,1-.89.32,1.23,1.23,0,0,1-.91-.32A1.15,1.15,0,0,1,71.38,44.86Zm2.31,13H71.51V47.58h2.18Z"/>
      <path d="M85.83,57.84H83.64V51.53a2.75,2.75,0,0,0-.48-1.77,1.83,1.83,0,0,0-1.51-.58,2.43,2.43,0,0,0-2,.81A4.58,4.58,0,0,0,79,52.73v5.11H76.8V47.58h1.71l.31,1.35h.11a3,3,0,0,1,1.32-1.13,4.29,4.29,0,0,1,1.89-.4q3.69,0,3.69,3.75Z"/>
      <path d="M93.34,58a5,5,0,0,1-3.74-1.4,5.29,5.29,0,0,1-1.35-3.84,5.86,5.86,0,0,1,1.25-4A4.37,4.37,0,0,1,93,47.4a4.25,4.25,0,0,1,3.21,1.23A4.74,4.74,0,0,1,97.33,52V53.2H90.5a3.39,3.39,0,0,0,.8,2.3,2.8,2.8,0,0,0,2.15.8,7.57,7.57,0,0,0,1.69-.17,8.34,8.34,0,0,0,1.68-.57v1.77a6.23,6.23,0,0,1-1.61.54A9.52,9.52,0,0,1,93.34,58Zm-.39-9a2.19,2.19,0,0,0-1.67.66,3.13,3.13,0,0,0-.75,1.92h4.66a2.87,2.87,0,0,0-.61-1.93A2.12,2.12,0,0,0,93,49.05Z"/>
      <path d="M106.7,54.92a2.7,2.7,0,0,1-1.09,2.31,5.29,5.29,0,0,1-3.14.8,7.48,7.48,0,0,1-3.29-.62V55.52a8.07,8.07,0,0,0,3.37.84c1.34,0,2-.41,2-1.22a1,1,0,0,0-.22-.65,2.59,2.59,0,0,0-.73-.53,11.52,11.52,0,0,0-1.42-.63A6.52,6.52,0,0,1,99.79,52a2.53,2.53,0,0,1-.63-1.78,2.34,2.34,0,0,1,1.06-2,5,5,0,0,1,2.89-.73,8.19,8.19,0,0,1,3.43.73l-.71,1.64a7.56,7.56,0,0,0-2.79-.68c-1.15,0-1.73.32-1.73,1a1,1,0,0,0,.45.82,10.31,10.31,0,0,0,2,.91,9.22,9.22,0,0,1,1.84.9,2.48,2.48,0,0,1,1.13,2.22Z"/>
      <path d="M122.05,54.16A3.42,3.42,0,0,1,120.74,57a5.66,5.66,0,0,1-3.61,1,8.51,8.51,0,0,1-3.76-.72V55.22a9.54,9.54,0,0,0,2,.68,8.13,8.13,0,0,0,1.94.25,3,3,0,0,0,1.94-.5,1.62,1.62,0,0,0,.63-1.34,1.66,1.66,0,0,0-.58-1.29,8.57,8.57,0,0,0-2.37-1.25,6.32,6.32,0,0,1-2.62-1.72,3.67,3.67,0,0,1-.76-2.32,3.23,3.23,0,0,1,1.21-2.67,5,5,0,0,1,3.24-1,9.44,9.44,0,0,1,3.87.86l-.7,1.81a8.42,8.42,0,0,0-3.23-.76,2.42,2.42,0,0,0-1.63.47,1.53,1.53,0,0,0-.56,1.23,1.83,1.83,0,0,0,.22.91,2.3,2.3,0,0,0,.74.71,13.35,13.35,0,0,0,1.83.88,9.63,9.63,0,0,1,2.19,1.16,3.29,3.29,0,0,1,1,1.21A3.66,3.66,0,0,1,122.05,54.16Z"/>
      <path d="M130.86,57.84l-.43-1.43h-.08a4.17,4.17,0,0,1-1.49,1.28,4.67,4.67,0,0,1-1.93.34,3.23,3.23,0,0,1-2.36-.82,3,3,0,0,1-.85-2.31,2.7,2.7,0,0,1,1.18-2.39,6.76,6.76,0,0,1,3.59-.88l1.77-.06V51a2.07,2.07,0,0,0-.46-1.47,1.89,1.89,0,0,0-1.42-.48,4.83,4.83,0,0,0-1.52.23,11.16,11.16,0,0,0-1.39.55l-.7-1.56a7.86,7.86,0,0,1,1.82-.67,8.56,8.56,0,0,1,1.88-.22,4.42,4.42,0,0,1,2.95.85,3.32,3.32,0,0,1,1,2.68v6.91Zm-3.24-1.48a2.7,2.7,0,0,0,1.9-.66,2.43,2.43,0,0,0,.72-1.86v-.9l-1.32.06a4.52,4.52,0,0,0-2.24.52,1.56,1.56,0,0,0-.7,1.4,1.37,1.37,0,0,0,.41,1.06A1.76,1.76,0,0,0,127.62,56.36Z"/>
      <path d="M143.88,57.84l-1.33-4.78q-.24-.77-.87-3.54h-.08c-.36,1.67-.65,2.86-.86,3.55l-1.36,4.77H137l-2.88-10.26h2.23l1.31,5.06q.44,1.88.63,3.21h.05c.06-.45.16-1,.28-1.56s.24-1,.33-1.31l1.56-5.4h2.4l1.51,5.4c.09.31.21.77.35,1.39a9.79,9.79,0,0,1,.24,1.46h.08a28.07,28.07,0,0,1,.65-3.19L147,47.58h2.19l-2.89,10.26Z"/>
      <path d="M164.57,57.84l-1.36-3.76H158l-1.33,3.76h-2.34l5.08-13.62h2.41l5.07,13.62Zm-1.94-5.67-1.27-3.7c-.1-.24-.22-.63-.39-1.17s-.28-.92-.34-1.16a19.63,19.63,0,0,1-.73,2.49l-1.22,3.54Z"/>
      <path d="M177.51,57.84h-2.19V51.53a2.75,2.75,0,0,0-.48-1.77,1.84,1.84,0,0,0-1.52-.58,2.42,2.42,0,0,0-2,.81,4.58,4.58,0,0,0-.64,2.74v5.11h-2.18V47.58h1.71l.31,1.35h.11a3,3,0,0,1,1.31-1.13,4.37,4.37,0,0,1,1.9-.4q3.69,0,3.69,3.75Z"/>
      <path d="M185.71,57.84V44.28h2.22V57.84Z"/>
      <path d="M200.3,57.84h-2.19V51.53a2.81,2.81,0,0,0-.47-1.77,1.86,1.86,0,0,0-1.52-.58,2.41,2.41,0,0,0-2,.81,4.51,4.51,0,0,0-.64,2.74v5.11h-2.18V47.58H193l.31,1.35h.11a3,3,0,0,1,1.32-1.13,4.36,4.36,0,0,1,1.89-.4q3.69,0,3.69,3.75Z"/>
      <path d="M207.47,58a4.45,4.45,0,0,1-3.53-1.36,5.68,5.68,0,0,1-1.22-3.9,5.73,5.73,0,0,1,1.27-4,4.69,4.69,0,0,1,3.66-1.39,6.87,6.87,0,0,1,2.92.6l-.66,1.75a6.75,6.75,0,0,0-2.28-.53c-1.77,0-2.66,1.17-2.66,3.53a4.24,4.24,0,0,0,.66,2.59,2.31,2.31,0,0,0,2,.87,5.56,5.56,0,0,0,2.75-.72v1.9a4.23,4.23,0,0,1-1.25.49A7.34,7.34,0,0,1,207.47,58Z"/>
      <path d="M218,47.4a5.31,5.31,0,0,1,1.08.09l-.21,2a4.35,4.35,0,0,0-1-.11,2.77,2.77,0,0,0-2.12.85,3.06,3.06,0,0,0-.82,2.22v5.36h-2.18V47.58h1.71l.29,1.81h.11a4,4,0,0,1,1.33-1.45A3.17,3.17,0,0,1,218,47.4Z"/>
      <path d="M225.42,58a5,5,0,0,1-3.75-1.4,5.29,5.29,0,0,1-1.35-3.84,5.81,5.81,0,0,1,1.26-4A4.34,4.34,0,0,1,225,47.4a4.25,4.25,0,0,1,3.21,1.23,4.75,4.75,0,0,1,1.18,3.4V53.2h-6.84a3.35,3.35,0,0,0,.81,2.3,2.78,2.78,0,0,0,2.14.8,7.5,7.5,0,0,0,1.69-.17,8.41,8.41,0,0,0,1.69-.57v1.77a6.3,6.3,0,0,1-1.62.54A9.41,9.41,0,0,1,225.42,58Zm-.4-9a2.21,2.21,0,0,0-1.67.66,3.18,3.18,0,0,0-.74,1.92h4.65a2.82,2.82,0,0,0-.61-1.93A2.12,2.12,0,0,0,225,49.05Z"/>
      <path d="M238.3,57.84l-.43-1.43h-.08a4.17,4.17,0,0,1-1.49,1.28,4.67,4.67,0,0,1-1.93.34,3.23,3.23,0,0,1-2.36-.82,3,3,0,0,1-.85-2.31,2.7,2.7,0,0,1,1.18-2.39,6.76,6.76,0,0,1,3.59-.88l1.77-.06V51a2.07,2.07,0,0,0-.46-1.47,1.87,1.87,0,0,0-1.42-.48,4.83,4.83,0,0,0-1.52.23,11.16,11.16,0,0,0-1.39.55l-.7-1.56a7.78,7.78,0,0,1,1.83-.67,8.41,8.41,0,0,1,1.87-.22,4.42,4.42,0,0,1,3,.85,3.32,3.32,0,0,1,1,2.68v6.91Zm-3.24-1.48a2.7,2.7,0,0,0,1.9-.66,2.43,2.43,0,0,0,.72-1.86v-.9l-1.32.06a4.52,4.52,0,0,0-2.24.52,1.56,1.56,0,0,0-.7,1.4,1.37,1.37,0,0,0,.41,1.06A1.76,1.76,0,0,0,235.06,56.36Z"/>
      <path d="M249.8,54.92a2.71,2.71,0,0,1-1.1,2.31,5.26,5.26,0,0,1-3.13.8,7.5,7.5,0,0,1-3.3-.62V55.52a8.07,8.07,0,0,0,3.37.84c1.34,0,2-.41,2-1.22a1,1,0,0,0-.22-.65,2.59,2.59,0,0,0-.73-.53,10.87,10.87,0,0,0-1.42-.63,6.6,6.6,0,0,1-2.4-1.38,2.53,2.53,0,0,1-.62-1.78,2.32,2.32,0,0,1,1.06-2,5,5,0,0,1,2.89-.73,8.15,8.15,0,0,1,3.42.73l-.7,1.64a7.56,7.56,0,0,0-2.8-.68c-1.15,0-1.72.32-1.72,1a1,1,0,0,0,.45.82,10.12,10.12,0,0,0,2,.91,9.36,9.36,0,0,1,1.85.9,2.81,2.81,0,0,1,.85.95A2.65,2.65,0,0,1,249.8,54.92Z"/>
      <path d="M256.64,58a5,5,0,0,1-3.75-1.4,5.29,5.29,0,0,1-1.35-3.84,5.81,5.81,0,0,1,1.26-4,4.34,4.34,0,0,1,3.44-1.43,4.25,4.25,0,0,1,3.21,1.23,4.75,4.75,0,0,1,1.18,3.4V53.2h-6.84a3.39,3.39,0,0,0,.8,2.3,2.81,2.81,0,0,0,2.15.8,7.57,7.57,0,0,0,1.69-.17,8.14,8.14,0,0,0,1.68-.57v1.77a6.23,6.23,0,0,1-1.61.54A9.48,9.48,0,0,1,256.64,58Zm-.4-9a2.19,2.19,0,0,0-1.67.66,3.13,3.13,0,0,0-.75,1.92h4.66a2.82,2.82,0,0,0-.61-1.93A2.12,2.12,0,0,0,256.24,49.05Z"/>
      <path d="M268.27,57.84V44.28h2.22V57.84Z"/>
      <path d="M282.86,57.84h-2.19V51.53a2.81,2.81,0,0,0-.47-1.77,1.86,1.86,0,0,0-1.52-.58,2.41,2.41,0,0,0-2,.81,4.51,4.51,0,0,0-.64,2.74v5.11h-2.18V47.58h1.7l.31,1.35H276a3,3,0,0,1,1.32-1.13,4.36,4.36,0,0,1,1.89-.4q3.69,0,3.69,3.75Z"/>
      <path d="M293.28,52.43v5.41h-2.22V44.28h3.84a6.31,6.31,0,0,1,3.88,1,3.55,3.55,0,0,1,1.27,3,3.71,3.71,0,0,1-2.64,3.61l3.83,6h-2.52l-3.25-5.41Zm0-1.84h1.54a3.51,3.51,0,0,0,2.25-.58,2.08,2.08,0,0,0,.69-1.7,1.86,1.86,0,0,0-.75-1.66,4.14,4.14,0,0,0-2.26-.5h-1.47Z"/>
      <path d="M302.85,44.86a1.18,1.18,0,0,1,.32-.9A1.48,1.48,0,0,1,305,44a1.22,1.22,0,0,1,.32.9,1.19,1.19,0,0,1-.32.88,1.44,1.44,0,0,1-1.81,0A1.15,1.15,0,0,1,302.85,44.86Zm2.31,13H303V47.58h2.18Z"/>
      <path d="M311.73,58a3.58,3.58,0,0,1-3-1.39,6.25,6.25,0,0,1-1.08-3.91,6.27,6.27,0,0,1,1.09-3.93,3.62,3.62,0,0,1,3-1.4,3.54,3.54,0,0,1,3.08,1.49H315a13.83,13.83,0,0,1-.15-1.74V43.41H317V57.84h-1.7l-.38-1.34h-.1A3.5,3.5,0,0,1,311.73,58Zm.59-1.76a2.39,2.39,0,0,0,2-.76,4,4,0,0,0,.63-2.45v-.31a4.64,4.64,0,0,0-.63-2.76,2.35,2.35,0,0,0-2-.81,2,2,0,0,0-1.77.93,4.74,4.74,0,0,0-.62,2.66,4.67,4.67,0,0,0,.6,2.6A2,2,0,0,0,312.32,56.27Z"/>
      <path d="M324.59,58a5,5,0,0,1-3.74-1.4,5.29,5.29,0,0,1-1.35-3.84,5.86,5.86,0,0,1,1.25-4,4.35,4.35,0,0,1,3.44-1.43,4.22,4.22,0,0,1,3.21,1.23,4.71,4.71,0,0,1,1.18,3.4V53.2h-6.84a3.39,3.39,0,0,0,.81,2.3,2.79,2.79,0,0,0,2.14.8,7.66,7.66,0,0,0,1.7-.17,8.34,8.34,0,0,0,1.68-.57v1.77a6.23,6.23,0,0,1-1.61.54A9.59,9.59,0,0,1,324.59,58Zm-.4-9a2.18,2.18,0,0,0-1.66.66,3.13,3.13,0,0,0-.75,1.92h4.66a2.87,2.87,0,0,0-.61-1.93A2.12,2.12,0,0,0,324.19,49.05Z"/>
      <path d="M336.26,47.4a5.49,5.49,0,0,1,1.09.09l-.21,2a4.44,4.44,0,0,0-1-.11,2.79,2.79,0,0,0-2.12.85,3.1,3.1,0,0,0-.81,2.22v5.36h-2.18V47.58h1.71l.28,1.81h.11a4.08,4.08,0,0,1,1.34-1.45A3.12,3.12,0,0,1,336.26,47.4Z"/>
      <path d="M346.14,54.92a2.7,2.7,0,0,1-1.09,2.31,5.29,5.29,0,0,1-3.14.8,7.48,7.48,0,0,1-3.29-.62V55.52a8.07,8.07,0,0,0,3.37.84c1.34,0,2-.41,2-1.22a1,1,0,0,0-.22-.65,2.59,2.59,0,0,0-.73-.53,12.25,12.25,0,0,0-1.42-.63,6.52,6.52,0,0,1-2.4-1.38,2.53,2.53,0,0,1-.63-1.78,2.32,2.32,0,0,1,1.06-2,5,5,0,0,1,2.89-.73,8.19,8.19,0,0,1,3.43.73l-.71,1.64a7.56,7.56,0,0,0-2.79-.68c-1.15,0-1.73.32-1.73,1a1,1,0,0,0,.45.82,10.31,10.31,0,0,0,2,.91,9.22,9.22,0,0,1,1.84.9,2.48,2.48,0,0,1,1.13,2.22Z"/>
      <path d="M357.53,57.84h-2.19V51.53a2.75,2.75,0,0,0-.48-1.77,1.84,1.84,0,0,0-1.52-.58,2.39,2.39,0,0,0-2,.82,4.51,4.51,0,0,0-.65,2.75v5.09H348.5V43.41h2.18v3.66a18.31,18.31,0,0,1-.11,1.89h.14A3,3,0,0,1,352,47.81a3.88,3.88,0,0,1,1.85-.41c2.48,0,3.73,1.25,3.73,3.75Z"/>
      <path d="M360.43,44.86a1.22,1.22,0,0,1,.32-.9,1.24,1.24,0,0,1,.91-.31,1.1,1.1,0,0,1,1.22,1.21,1.19,1.19,0,0,1-.32.88,1.22,1.22,0,0,1-.9.32,1.24,1.24,0,0,1-.91-.32A1.19,1.19,0,0,1,360.43,44.86Zm2.31,13h-2.18V47.58h2.18Z"/>
      <path d="M371.06,58a3.6,3.6,0,0,1-3-1.4h-.13c.08.86.13,1.39.13,1.58v4.2h-2.18V47.58h1.76c.05.19.15.65.31,1.38H368a3.41,3.41,0,0,1,3.06-1.56,3.55,3.55,0,0,1,3,1.39,6.24,6.24,0,0,1,1.07,3.9,6.27,6.27,0,0,1-1.09,3.93A3.58,3.58,0,0,1,371.06,58Zm-.53-8.85a2.25,2.25,0,0,0-1.89.76,3.94,3.94,0,0,0-.6,2.43v.32a4.88,4.88,0,0,0,.59,2.72,2.21,2.21,0,0,0,1.94.84,2,2,0,0,0,1.74-.93,4.77,4.77,0,0,0,.62-2.64,4.69,4.69,0,0,0-.61-2.62A2,2,0,0,0,370.53,49.18Z"/>
    </g>
  </g>
  <g>
    <rect class="cls-12" x="799.09" y="64.05" width="18.2" height="5.78"/>
    <rect class="cls-14" x="799.09" y="78.85" width="18.2" height="5.78"/>
    <g>
      <path d="M824.78,70.45V61.89h1v8.56Z"/>
      <path d="M832.36,70.45V66.3a1.67,1.67,0,0,0-.36-1.17,1.43,1.43,0,0,0-1.11-.39,1.83,1.83,0,0,0-1.48.55,2.75,2.75,0,0,0-.46,1.79v3.37h-1V64h.78l.16.88H829a2,2,0,0,1,.83-.73,2.65,2.65,0,0,1,1.2-.27,2.45,2.45,0,0,1,1.75.56,2.39,2.39,0,0,1,.58,1.79v4.19Z"/>
      <path d="M837.88,70.57a2.74,2.74,0,0,1-2.15-.86,3.52,3.52,0,0,1-.76-2.43,3.69,3.69,0,0,1,.77-2.49,2.81,2.81,0,0,1,2.21-.88,4.8,4.8,0,0,1,.92.1,3.27,3.27,0,0,1,.73.24l-.3.82a6.41,6.41,0,0,0-.7-.21,3,3,0,0,0-.67-.08c-1.31,0-2,.83-2,2.49a3,3,0,0,0,.48,1.82,1.66,1.66,0,0,0,1.41.63,4.3,4.3,0,0,0,1.64-.34v.86A3.48,3.48,0,0,1,837.88,70.57Z"/>
      <path d="M844,63.91a4.28,4.28,0,0,1,.76.07l-.13.91a3.27,3.27,0,0,0-.7-.09,1.71,1.71,0,0,0-1.33.63A2.31,2.31,0,0,0,842,67v3.44h-1V64h.81l.11,1.19h0a2.93,2.93,0,0,1,.86-1A2,2,0,0,1,844,63.91Z"/>
      <path d="M848.62,70.57a2.92,2.92,0,0,1-2.24-.87,3.33,3.33,0,0,1-.83-2.4,3.73,3.73,0,0,1,.77-2.47,2.53,2.53,0,0,1,2-.92,2.41,2.41,0,0,1,1.9.8,3,3,0,0,1,.7,2.09v.62h-4.41a2.59,2.59,0,0,0,.57,1.72,2,2,0,0,0,1.52.58,5.17,5.17,0,0,0,2.05-.43v.86a4.77,4.77,0,0,1-1,.32A5.13,5.13,0,0,1,848.62,70.57Zm-.27-5.84a1.61,1.61,0,0,0-1.23.5,2.41,2.41,0,0,0-.54,1.4h3.35a2.08,2.08,0,0,0-.41-1.41A1.42,1.42,0,0,0,848.35,64.73Z"/>
      <path d="M856.57,70.45l-.19-.91h0a2.81,2.81,0,0,1-1,.82,2.92,2.92,0,0,1-1.19.21,2.13,2.13,0,0,1-1.49-.49,1.81,1.81,0,0,1-.54-1.4c0-1.3,1-2,3.1-2l1.09,0v-.39a1.66,1.66,0,0,0-.32-1.12,1.35,1.35,0,0,0-1-.36,4.14,4.14,0,0,0-1.81.49l-.3-.74a4.6,4.6,0,0,1,1-.41,4.79,4.79,0,0,1,1.13-.14,2.45,2.45,0,0,1,1.7.51,2.15,2.15,0,0,1,.55,1.63v4.38Zm-2.19-.68a2,2,0,0,0,1.42-.5,1.86,1.86,0,0,0,.52-1.39V67.3l-1,0a3.36,3.36,0,0,0-1.67.36,1.08,1.08,0,0,0-.51,1,1,1,0,0,0,.32.8A1.27,1.27,0,0,0,854.38,69.77Z"/>
      <path d="M863.42,68.7a1.59,1.59,0,0,1-.67,1.38,3.06,3.06,0,0,1-1.87.49,4,4,0,0,1-2-.4v-.91a4.31,4.31,0,0,0,1,.37,4.1,4.1,0,0,0,1,.14,2.26,2.26,0,0,0,1.17-.25.84.84,0,0,0,.08-1.38,5,5,0,0,0-1.27-.63,6.59,6.59,0,0,1-1.27-.58,1.78,1.78,0,0,1-.56-.57,1.49,1.49,0,0,1-.18-.75,1.44,1.44,0,0,1,.63-1.24,3,3,0,0,1,1.75-.46,5.18,5.18,0,0,1,2,.43l-.35.79a4.56,4.56,0,0,0-1.75-.4,2,2,0,0,0-1,.22.67.67,0,0,0-.35.59.7.7,0,0,0,.13.44,1.33,1.33,0,0,0,.43.35,8.3,8.3,0,0,0,1.12.47,4.27,4.27,0,0,1,1.54.84A1.47,1.47,0,0,1,863.42,68.7Z"/>
      <path d="M867.71,70.57a3,3,0,0,1-2.25-.87,3.37,3.37,0,0,1-.82-2.4,3.73,3.73,0,0,1,.77-2.47,2.52,2.52,0,0,1,2-.92,2.42,2.42,0,0,1,1.91.8,3,3,0,0,1,.7,2.09v.62h-4.41a2.59,2.59,0,0,0,.57,1.72,2,2,0,0,0,1.52.58,5.17,5.17,0,0,0,2-.43v.86a4.85,4.85,0,0,1-1,.32A5,5,0,0,1,867.71,70.57Zm-.27-5.84a1.61,1.61,0,0,0-1.23.5,2.41,2.41,0,0,0-.54,1.4H869a2.14,2.14,0,0,0-.41-1.41A1.42,1.42,0,0,0,867.44,64.73Z"/>
    </g>
    <g>
      <path d="M831.61,80.89a4.36,4.36,0,0,1-1.15,3.24,4.54,4.54,0,0,1-3.31,1.12h-2.37V76.69h2.62a3.84,3.84,0,0,1,4.21,4.2Zm-1.06,0a3.44,3.44,0,0,0-.84-2.52,3.33,3.33,0,0,0-2.49-.85h-1.44v6.84H827a3.7,3.7,0,0,0,2.67-.87A3.48,3.48,0,0,0,830.55,80.92Z"/>
      <path d="M836.07,85.37a2.94,2.94,0,0,1-2.24-.87,3.35,3.35,0,0,1-.82-2.41,3.71,3.71,0,0,1,.76-2.46,2.53,2.53,0,0,1,2.05-.92,2.43,2.43,0,0,1,1.91.8,3.09,3.09,0,0,1,.7,2.09v.62H834a2.54,2.54,0,0,0,.57,1.71,2,2,0,0,0,1.53.59,5.09,5.09,0,0,0,2-.43V85a4.58,4.58,0,0,1-1,.32A5.13,5.13,0,0,1,836.07,85.37Zm-.26-5.84a1.58,1.58,0,0,0-1.23.5,2.28,2.28,0,0,0-.54,1.4h3.35A2.14,2.14,0,0,0,837,80,1.42,1.42,0,0,0,835.81,79.53Z"/>
      <path d="M842.64,85.37a2.74,2.74,0,0,1-2.15-.86,3.52,3.52,0,0,1-.76-2.43,3.64,3.64,0,0,1,.77-2.49,2.81,2.81,0,0,1,2.21-.88,4.8,4.8,0,0,1,.92.1,3.27,3.27,0,0,1,.73.24l-.3.82a6.41,6.41,0,0,0-.7-.21,3,3,0,0,0-.68-.08q-1.95,0-1.95,2.49a3,3,0,0,0,.48,1.82,1.66,1.66,0,0,0,1.41.63,4.14,4.14,0,0,0,1.64-.35V85A3.54,3.54,0,0,1,842.64,85.37Z"/>
      <path d="M848.71,78.71a4.28,4.28,0,0,1,.76.07l-.13.91a3.27,3.27,0,0,0-.7-.09,1.69,1.69,0,0,0-1.33.63,2.31,2.31,0,0,0-.56,1.58v3.44h-1V78.83h.8l.11,1.19h0a2.93,2.93,0,0,1,.86-1A2,2,0,0,1,848.71,78.71Z"/>
      <path d="M853.38,85.37a3,3,0,0,1-2.25-.87,3.4,3.4,0,0,1-.82-2.41,3.72,3.72,0,0,1,.77-2.46,2.52,2.52,0,0,1,2-.92,2.41,2.41,0,0,1,1.9.8,3,3,0,0,1,.7,2.09v.62h-4.41a2.54,2.54,0,0,0,.57,1.71,1.94,1.94,0,0,0,1.52.59,5.17,5.17,0,0,0,2.05-.43V85a4.85,4.85,0,0,1-1,.32A5,5,0,0,1,853.38,85.37Zm-.27-5.84a1.61,1.61,0,0,0-1.23.5,2.41,2.41,0,0,0-.54,1.4h3.35a2.14,2.14,0,0,0-.41-1.41A1.42,1.42,0,0,0,853.11,79.53Z"/>
      <path d="M861.33,85.25l-.2-.91h0a2.81,2.81,0,0,1-1,.82,3,3,0,0,1-1.19.21,2.13,2.13,0,0,1-1.49-.49,1.81,1.81,0,0,1-.54-1.4c0-1.3,1-2,3.1-2l1.09,0V81a1.65,1.65,0,0,0-.32-1.11,1.35,1.35,0,0,0-1-.36,4.22,4.22,0,0,0-1.82.49l-.29-.74a4.18,4.18,0,0,1,1-.41,4.32,4.32,0,0,1,1.13-.14,2.41,2.41,0,0,1,1.69.51,2.11,2.11,0,0,1,.56,1.63v4.38Zm-2.19-.68a2,2,0,0,0,1.42-.5,1.87,1.87,0,0,0,.52-1.4v-.58l-1,0a3.33,3.33,0,0,0-1.67.36,1.09,1.09,0,0,0-.52,1,1,1,0,0,0,.32.8A1.31,1.31,0,0,0,859.14,84.57Z"/>
      <path d="M868.18,83.5a1.59,1.59,0,0,1-.67,1.38,3.08,3.08,0,0,1-1.87.49,4.08,4.08,0,0,1-2-.4v-.91a4.69,4.69,0,0,0,1,.37,4.24,4.24,0,0,0,1,.14,2.2,2.2,0,0,0,1.16-.25.78.78,0,0,0,.41-.74.82.82,0,0,0-.32-.64,5,5,0,0,0-1.27-.63,7.27,7.27,0,0,1-1.27-.58,1.78,1.78,0,0,1-.56-.57,1.49,1.49,0,0,1-.18-.75,1.44,1.44,0,0,1,.63-1.24,3,3,0,0,1,1.75-.46,4.92,4.92,0,0,1,2,.43l-.34.79a4.56,4.56,0,0,0-1.75-.4,1.94,1.94,0,0,0-1,.22.67.67,0,0,0-.35.59.72.72,0,0,0,.13.44,1.33,1.33,0,0,0,.43.35,7.74,7.74,0,0,0,1.12.47,4.27,4.27,0,0,1,1.54.84A1.52,1.52,0,0,1,868.18,83.5Z"/>
      <path d="M872.46,85.37a2.94,2.94,0,0,1-2.24-.87,3.35,3.35,0,0,1-.82-2.41,3.77,3.77,0,0,1,.76-2.46,2.55,2.55,0,0,1,2.05-.92,2.42,2.42,0,0,1,1.91.8,3,3,0,0,1,.7,2.09v.62h-4.41a2.54,2.54,0,0,0,.57,1.71,1.92,1.92,0,0,0,1.52.59,5.09,5.09,0,0,0,2-.43V85a4.58,4.58,0,0,1-1,.32A5,5,0,0,1,872.46,85.37Zm-.26-5.84A1.61,1.61,0,0,0,871,80a2.28,2.28,0,0,0-.54,1.4h3.35a2.14,2.14,0,0,0-.41-1.41A1.42,1.42,0,0,0,872.2,79.53Z"/>
    </g>
  </g>
  <g>
    <path d="M816.75,299.24a2.1,2.1,0,0,1-.83,1.76,3.71,3.71,0,0,1-2.27.63,5.81,5.81,0,0,1-2.39-.39v-1a6.67,6.67,0,0,0,1.17.35,6,6,0,0,0,1.25.13,2.57,2.57,0,0,0,1.53-.38,1.24,1.24,0,0,0,.52-1.05,1.26,1.26,0,0,0-.19-.73,1.62,1.62,0,0,0-.61-.52,7.93,7.93,0,0,0-1.29-.55,4.13,4.13,0,0,1-1.74-1,2.2,2.2,0,0,1-.52-1.53,1.9,1.9,0,0,1,.75-1.58,3.22,3.22,0,0,1,2-.58,6,6,0,0,1,2.39.46l-.32.87a5.57,5.57,0,0,0-2.1-.44,2,2,0,0,0-1.25.34,1.09,1.09,0,0,0-.46.94,1.43,1.43,0,0,0,.17.73,1.58,1.58,0,0,0,.56.52,7.7,7.7,0,0,0,1.22.53,4.88,4.88,0,0,1,1.89,1A2,2,0,0,1,816.75,299.24Z"/>
    <path d="M824,298.3a3.53,3.53,0,0,1-.8,2.45,2.86,2.86,0,0,1-2.23.88,3,3,0,0,1-1.56-.4,2.75,2.75,0,0,1-1.05-1.16,4.11,4.11,0,0,1-.37-1.77,3.53,3.53,0,0,1,.8-2.45A2.88,2.88,0,0,1,821,295a2.79,2.79,0,0,1,2.18.89A3.5,3.5,0,0,1,824,298.3Zm-5,0a3,3,0,0,0,.5,1.87,2,2,0,0,0,3,0,3,3,0,0,0,.51-1.88,2.9,2.9,0,0,0-.51-1.86,2,2,0,0,0-3,0A3,3,0,0,0,819.05,298.3Z"/>
    <path d="M826.7,295.09v4.17a1.63,1.63,0,0,0,.37,1.17,1.48,1.48,0,0,0,1.14.39,1.91,1.91,0,0,0,1.5-.55,2.79,2.79,0,0,0,.47-1.8v-3.38h1v6.43h-.82l-.14-.87h-.05a2,2,0,0,1-.85.73,2.85,2.85,0,0,1-1.23.25,2.54,2.54,0,0,1-1.79-.55,2.38,2.38,0,0,1-.59-1.79v-4.2Z"/>
    <path d="M836.26,295a3.71,3.71,0,0,1,.78.07l-.14.9a3.36,3.36,0,0,0-.72-.09,1.75,1.75,0,0,0-1.35.63,2.29,2.29,0,0,0-.57,1.58v3.45h-1v-6.43h.82l.11,1.19h0a2.83,2.83,0,0,1,.88-1A2,2,0,0,1,836.26,295Z"/>
    <path d="M840.88,301.63a2.79,2.79,0,0,1-2.2-.86,3.47,3.47,0,0,1-.78-2.42,3.56,3.56,0,0,1,.79-2.49,2.85,2.85,0,0,1,2.25-.88,4.29,4.29,0,0,1,.94.1,2.7,2.7,0,0,1,.74.23l-.3.83a4.68,4.68,0,0,0-.72-.22,3.65,3.65,0,0,0-.68-.08c-1.33,0-2,.83-2,2.49a3,3,0,0,0,.49,1.82,1.7,1.7,0,0,0,1.44.63,4.46,4.46,0,0,0,1.68-.34v.86A3.67,3.67,0,0,1,840.88,301.63Z"/>
    <path d="M846.84,301.63a3.08,3.08,0,0,1-2.29-.86,3.37,3.37,0,0,1-.83-2.41,3.68,3.68,0,0,1,.78-2.47,2.58,2.58,0,0,1,2.09-.91,2.46,2.46,0,0,1,1.94.79,3,3,0,0,1,.72,2.1v.61h-4.51a2.52,2.52,0,0,0,.59,1.72,2,2,0,0,0,1.55.58,5.36,5.36,0,0,0,2.09-.43v.87a5.49,5.49,0,0,1-1,.32A6,6,0,0,1,846.84,301.63Zm-.26-5.84a1.65,1.65,0,0,0-1.26.5,2.31,2.31,0,0,0-.55,1.4h3.42a2.12,2.12,0,0,0-.42-1.41A1.48,1.48,0,0,0,846.58,295.79Z"/>
    <path d="M850.79,295.72c0-.53.24-.79.71-.79s.73.26.73.79a.84.84,0,0,1-.19.59.73.73,0,0,1-.54.2.71.71,0,0,1-.5-.18A.79.79,0,0,1,850.79,295.72Zm0,5.17a.85.85,0,0,1,.19-.59.67.67,0,0,1,.52-.2.73.73,0,0,1,.54.2.81.81,0,0,1,.19.59.82.82,0,0,1-.19.59.7.7,0,0,1-.54.21.72.72,0,0,1-.5-.19A.76.76,0,0,1,850.79,300.89Z"/>
    <path d="M861.38,301.52l-3-7.6h0c0,.6.08,1.32.08,2.15v5.45h-.94V293H859l2.77,7.07h0l2.79-7.07h1.52v8.57h-1V296c0-.64,0-1.32.09-2.07h-.05l-3,7.59Z"/>
    <path d="M871.24,301.52h-1v-7.69h-2.76V293H874v.88h-2.76Z"/>
    <path d="M880.8,301.52l-1.09-2.73h-3.5l-1.07,2.73h-1l3.45-8.61h.86l3.43,8.61Zm-1.41-3.63-1-2.65c-.13-.34-.27-.75-.41-1.24a9.84,9.84,0,0,1-.37,1.24l-1,2.65Z"/>
    <path d="M765.55,311.43h3v4.16a8.49,8.49,0,0,1-1.41.33,10.17,10.17,0,0,1-1.66.11,4,4,0,0,1-3.08-1.15,4.53,4.53,0,0,1-1.11-3.25,4.87,4.87,0,0,1,.55-2.34,3.68,3.68,0,0,1,1.57-1.53,5.13,5.13,0,0,1,2.41-.53,6.58,6.58,0,0,1,2.6.5l-.39.88a5.9,5.9,0,0,0-2.28-.49,3.3,3.3,0,0,0-2.49.93,3.59,3.59,0,0,0-.89,2.58,3.65,3.65,0,0,0,.86,2.63,3.35,3.35,0,0,0,2.53.9,7.54,7.54,0,0,0,1.78-.21v-2.63h-2Z"/>
    <path d="M773.44,309.38a3.71,3.71,0,0,1,.78.07l-.13.9a3.36,3.36,0,0,0-.72-.09,1.77,1.77,0,0,0-1.36.63,2.33,2.33,0,0,0-.56,1.58v3.45h-1v-6.43h.82l.11,1.19h.05a2.72,2.72,0,0,1,.87-1A2,2,0,0,1,773.44,309.38Z"/>
    <path d="M779.47,315.92l-.2-.92h0a2.72,2.72,0,0,1-1,.82A3.1,3.1,0,0,1,777,316a2.21,2.21,0,0,1-1.52-.49,1.77,1.77,0,0,1-.55-1.4c0-1.3,1-2,3.17-2l1.11,0v-.4a1.61,1.61,0,0,0-.33-1.12,1.4,1.4,0,0,0-1.06-.36,4.3,4.3,0,0,0-1.85.49l-.31-.74a5,5,0,0,1,1.06-.41,5,5,0,0,1,1.16-.14,2.52,2.52,0,0,1,1.73.51,2.08,2.08,0,0,1,.56,1.63v4.39Zm-2.24-.69a2,2,0,0,0,1.45-.5,1.79,1.79,0,0,0,.53-1.39v-.58l-1,0a3.71,3.71,0,0,0-1.7.36,1.07,1.07,0,0,0-.52,1,1,1,0,0,0,.32.8A1.34,1.34,0,0,0,777.23,315.23Z"/>
    <path d="M785.29,316a2.78,2.78,0,0,1-1.17-.23,2.09,2.09,0,0,1-.88-.71h-.08a8.06,8.06,0,0,1,.08,1.07v2.64h-1v-9.31h.8l.14.88h0a2.29,2.29,0,0,1,.89-.76,2.64,2.64,0,0,1,1.16-.23,2.44,2.44,0,0,1,2,.87,3.8,3.8,0,0,1,.7,2.45,3.85,3.85,0,0,1-.71,2.46A2.46,2.46,0,0,1,785.29,316Zm-.14-5.83a1.74,1.74,0,0,0-1.45.55,2.69,2.69,0,0,0-.46,1.73v.22a3.11,3.11,0,0,0,.46,1.93,1.74,1.74,0,0,0,1.47.59,1.55,1.55,0,0,0,1.33-.68,3.13,3.13,0,0,0,.48-1.85,3.07,3.07,0,0,0-.48-1.85A1.61,1.61,0,0,0,785.15,310.2Z"/>
    <path d="M794.21,315.92v-4.16a1.67,1.67,0,0,0-.36-1.17,1.51,1.51,0,0,0-1.14-.39,1.92,1.92,0,0,0-1.51.55,2.75,2.75,0,0,0-.47,1.81v3.36h-1V306.8h1v2.76a6,6,0,0,1-.05.82h.06a2,2,0,0,1,.83-.73,2.85,2.85,0,0,1,1.23-.26,2.52,2.52,0,0,1,1.8.56,2.32,2.32,0,0,1,.6,1.78v4.19Z"/>
    <path d="M797.15,307.75a.66.66,0,0,1,.17-.49.6.6,0,0,1,.42-.15.57.57,0,0,1,.41.16.59.59,0,0,1,.17.48.62.62,0,0,1-.17.49.57.57,0,0,1-.41.16.57.57,0,0,1-.42-.16A.66.66,0,0,1,797.15,307.75Zm1.08,8.17h-1v-6.43h1Z"/>
    <path d="M802.94,316a2.81,2.81,0,0,1-2.2-.86,3.47,3.47,0,0,1-.78-2.42,3.61,3.61,0,0,1,.8-2.5,2.87,2.87,0,0,1,2.25-.87,4.29,4.29,0,0,1,.94.1,2.82,2.82,0,0,1,.74.23l-.3.83a4.68,4.68,0,0,0-.72-.22,3.75,3.75,0,0,0-.69-.08c-1.32,0-2,.83-2,2.49a2.9,2.9,0,0,0,.49,1.82,1.7,1.7,0,0,0,1.44.63,4.54,4.54,0,0,0,1.68-.34v.86A3.69,3.69,0,0,1,802.94,316Z"/>
    <path d="M806,310.12c0-.53.24-.79.71-.79s.73.26.73.79a.84.84,0,0,1-.19.59.73.73,0,0,1-.54.2.71.71,0,0,1-.5-.18A.79.79,0,0,1,806,310.12Zm0,5.17a.85.85,0,0,1,.19-.59.64.64,0,0,1,.52-.2.69.69,0,0,1,.54.2.81.81,0,0,1,.19.59.82.82,0,0,1-.19.59.69.69,0,0,1-.54.2.71.71,0,0,1-.5-.18A.76.76,0,0,1,806,315.29Z"/>
    <path d="M817.65,313.64a2.08,2.08,0,0,1-.84,1.76,3.67,3.67,0,0,1-2.27.63,5.76,5.76,0,0,1-2.38-.39v-1a6.67,6.67,0,0,0,1.17.35,6,6,0,0,0,1.25.13,2.57,2.57,0,0,0,1.53-.38,1.23,1.23,0,0,0,.51-1,1.34,1.34,0,0,0-.18-.73,1.62,1.62,0,0,0-.61-.52,8.11,8.11,0,0,0-1.3-.55,4.13,4.13,0,0,1-1.74-1,2.25,2.25,0,0,1-.52-1.53,1.88,1.88,0,0,1,.76-1.58,3.17,3.17,0,0,1,2-.58,6.08,6.08,0,0,1,2.4.46l-.32.87a5.42,5.42,0,0,0-2.1-.44,2,2,0,0,0-1.26.34,1.1,1.1,0,0,0-.45.94,1.44,1.44,0,0,0,.16.73,1.62,1.62,0,0,0,.57.52,6.82,6.82,0,0,0,1.21.52,4.85,4.85,0,0,1,1.89,1A2,2,0,0,1,817.65,313.64Z"/>
    <path d="M823.31,315.92l-.2-.92h-.05a2.72,2.72,0,0,1-1,.82,3.1,3.1,0,0,1-1.22.21,2.17,2.17,0,0,1-1.52-.49,1.77,1.77,0,0,1-.56-1.4c0-1.3,1.06-2,3.17-2l1.11,0v-.4a1.61,1.61,0,0,0-.33-1.12,1.37,1.37,0,0,0-1.06-.36,4.37,4.37,0,0,0-1.85.49l-.3-.74a4.77,4.77,0,0,1,1.06-.41,5,5,0,0,1,1.15-.14,2.55,2.55,0,0,1,1.74.51,2.11,2.11,0,0,1,.56,1.63v4.39Zm-2.24-.69a2,2,0,0,0,1.45-.5,1.83,1.83,0,0,0,.53-1.39v-.58l-1,0a3.68,3.68,0,0,0-1.7.36,1.07,1.07,0,0,0-.53,1,1,1,0,0,0,.33.8A1.34,1.34,0,0,0,821.07,315.23Z"/>
    <path d="M831.42,315.92l-1.2-3.77c-.07-.23-.21-.76-.42-1.57h0c-.16.68-.3,1.21-.42,1.58l-1.23,3.76H827l-1.78-6.43h1l1,3.69a14.51,14.51,0,0,1,.38,1.7h.05c0-.22.11-.51.21-.86s.18-.63.25-.84l1.2-3.69h1.08l1.17,3.69a12.83,12.83,0,0,1,.45,1.69h0a4.82,4.82,0,0,1,.13-.65c.07-.29.48-1.87,1.24-4.73h1l-1.81,6.43Z"/>
    <path d="M834.55,309.49h1.06l1.43,3.67a13.1,13.1,0,0,1,.59,1.81h0c.05-.2.16-.54.32-1s.71-2,1.62-4.45h1.07l-2.82,7.32a3.54,3.54,0,0,1-1,1.53,2.06,2.06,0,0,1-1.37.46,4.59,4.59,0,0,1-.9-.1v-.78a3.38,3.38,0,0,0,.74.07,1.51,1.51,0,0,0,1.45-1.13l.37-.91Z"/>
    <path d="M844.51,316a3.06,3.06,0,0,1-2.29-.86,3.34,3.34,0,0,1-.84-2.41,3.68,3.68,0,0,1,.78-2.47,2.61,2.61,0,0,1,2.09-.91,2.5,2.5,0,0,1,2,.79,3,3,0,0,1,.72,2.09v.62h-4.51a2.52,2.52,0,0,0,.58,1.72,2,2,0,0,0,1.56.58,5.36,5.36,0,0,0,2.09-.43v.87a6.74,6.74,0,0,1-1,.32A6.08,6.08,0,0,1,844.51,316Zm-.27-5.84a1.64,1.64,0,0,0-1.25.5,2.32,2.32,0,0,0-.56,1.4h3.42a2.17,2.17,0,0,0-.41-1.41A1.48,1.48,0,0,0,844.24,310.19Z"/>
    <path d="M851.59,309.38a3.71,3.71,0,0,1,.78.07l-.14.9a3.35,3.35,0,0,0-.71-.09,1.77,1.77,0,0,0-1.36.63,2.28,2.28,0,0,0-.56,1.58v3.45h-1v-6.43h.81l.12,1.19h0a2.84,2.84,0,0,1,.88-1A2,2,0,0,1,851.59,309.38Z"/>
    <path d="M860.65,308.12a2.89,2.89,0,0,0-2.27.94,3.75,3.75,0,0,0-.83,2.57,3.85,3.85,0,0,0,.8,2.6,2.9,2.9,0,0,0,2.29.92,8.19,8.19,0,0,0,2.09-.32v.87a6.66,6.66,0,0,1-2.24.33,3.81,3.81,0,0,1-3-1.15,4.65,4.65,0,0,1-1-3.26,5,5,0,0,1,.51-2.32,3.62,3.62,0,0,1,1.46-1.54,4.55,4.55,0,0,1,2.24-.53,5.5,5.5,0,0,1,2.4.49l-.43.85A4.79,4.79,0,0,0,860.65,308.12Z"/>
    <path d="M865.47,315.92h-1V306.8h1Z"/>
    <path d="M867.49,307.75a.62.62,0,0,1,.17-.49.63.63,0,0,1,.83,0,.62.62,0,0,1,.17.48.66.66,0,0,1-.17.49.6.6,0,0,1-.42.16.56.56,0,0,1-.41-.16A.62.62,0,0,1,867.49,307.75Zm1.07,8.17h-1v-6.43h1Z"/>
    <path d="M873.28,316a2.79,2.79,0,0,1-2.2-.86,3.47,3.47,0,0,1-.78-2.42,3.61,3.61,0,0,1,.79-2.5,2.89,2.89,0,0,1,2.25-.87,4.38,4.38,0,0,1,.95.1,3,3,0,0,1,.74.23l-.31.83a4.91,4.91,0,0,0-.71-.22,3.75,3.75,0,0,0-.69-.08c-1.33,0-2,.83-2,2.49a3,3,0,0,0,.48,1.82,1.72,1.72,0,0,0,1.44.63,4.46,4.46,0,0,0,1.68-.34v.86A3.67,3.67,0,0,1,873.28,316Z"/>
    <path d="M877.46,312.63a11.41,11.41,0,0,1,.78-.94l2.12-2.2h1.17l-2.65,2.74,2.84,3.69h-1.2l-2.31-3-.75.63v2.41h-1V306.8h1v4.83c0,.22,0,.55-.05,1Z"/>
  </g>
</svg>
