<svg id="Layer_1" data-name="Layer 1" xmlns="http://www.w3.org/2000/svg" viewBox="0 0 891.15 323.05">
  <defs>
    <style>
      .cls-1 {
        fill: #e5e5e5;
      }

      .cls-2, .cls-3 {
        fill: none;
      }

      .cls-3 {
        stroke: #fff;
        stroke-linecap: square;
        stroke-linejoin: round;
        stroke-width: 0.8px;
      }

      .cls-4 {
        fill: #555;
      }

      .cls-5 {
        fill: #606060;
      }

      .cls-6 {
        fill: #5580b6;
      }

      .cls-7 {
        fill: #f07b7b;
      }

      .cls-8 {
        fill: #f4d678;
      }

      .cls-9 {
        fill: #545454;
      }
    </style>
  </defs>
  <title>ridership_increase</title>
  <rect class="cls-1" y="40.2" width="891.15" height="282.86"/>
  <rect class="cls-2" x="28.93" y="129.34" width="181.96" height="172.96"/>
  <rect class="cls-2" x="28.93" y="129.34" width="181.96" height="172.96"/>
  <rect class="cls-2" x="28.93" y="129.34" width="181.96" height="172.96"/>
  <rect class="cls-2" x="28.93" y="129.34" width="181.96" height="172.96"/>
  <rect class="cls-2" x="28.93" y="129.34" width="181.96" height="172.96"/>
  <rect class="cls-2" x="28.93" y="129.34" width="181.96" height="172.96"/>
  <line class="cls-3" x1="28.93" y1="281.65" x2="210.89" y2="281.65"/>
  <line class="cls-3" x1="28.93" y1="256.65" x2="210.89" y2="256.65"/>
  <line class="cls-3" x1="28.93" y1="231.64" x2="210.89" y2="231.64"/>
  <line class="cls-3" x1="28.93" y1="206.63" x2="210.89" y2="206.63"/>
  <line class="cls-3" x1="28.93" y1="181.63" x2="210.89" y2="181.63"/>
  <line class="cls-3" x1="28.93" y1="156.62" x2="210.89" y2="156.62"/>
  <line class="cls-3" x1="41.45" y1="131.61" x2="210.89" y2="131.61"/>
  <rect class="cls-2" x="28.93" y="129.34" width="181.96" height="172.96"/>
  <g>
    <path class="cls-4" d="M13.47,281.62v-.8H19.1v.8Z"/>
    <path class="cls-4" d="M25.94,285.45H20.3v-.84l2.26-2.27a17.28,17.28,0,0,0,1.36-1.48,4.14,4.14,0,0,0,.49-.87,2.58,2.58,0,0,0,.17-.91,1.43,1.43,0,0,0-.42-1.09,1.62,1.62,0,0,0-1.15-.4,2.85,2.85,0,0,0-1,.18,4,4,0,0,0-1.07.64l-.51-.66a3.94,3.94,0,0,1,2.57-1,2.73,2.73,0,0,1,1.9.62,2.13,2.13,0,0,1,.68,1.66,3.25,3.25,0,0,1-.45,1.61,10.63,10.63,0,0,1-1.72,2l-1.87,1.83v0H26Z"/>
  </g>
  <g>
    <path class="cls-4" d="M13.47,256.62v-.81H19.1v.81Z"/>
    <path class="cls-4" d="M23.91,260.44H23v-6.1a13.2,13.2,0,0,1,.05-1.44l-.28.25-1.39,1.15-.52-.67,2.27-1.75H24Z"/>
  </g>
  <path class="cls-4" d="M24.84,231.14a6.18,6.18,0,0,1-.7,3.32A2.36,2.36,0,0,1,22,235.55a2.35,2.35,0,0,1-2.11-1.12,6.18,6.18,0,0,1-.72-3.29,6.27,6.27,0,0,1,.7-3.32A2.36,2.36,0,0,1,22,226.74a2.35,2.35,0,0,1,2.12,1.13A6.09,6.09,0,0,1,24.84,231.14Zm-4.68,0a6.16,6.16,0,0,0,.44,2.72,1.57,1.57,0,0,0,2.11.7,1.53,1.53,0,0,0,.7-.7,8.77,8.77,0,0,0,0-5.41,1.58,1.58,0,0,0-2.13-.68,1.59,1.59,0,0,0-.68.68A6,6,0,0,0,20.16,231.14Z"/>
  <path class="cls-4" d="M22.76,210.43h-.94v-7.55l-.27.26-1.4,1.14-.51-.66,2.26-1.76h.82Z"/>
  <path class="cls-4" d="M24.79,185.42H19.16v-.83l2.26-2.27a19.22,19.22,0,0,0,1.36-1.49,4.14,4.14,0,0,0,.49-.87,2.57,2.57,0,0,0,.16-.91A1.44,1.44,0,0,0,23,178a1.6,1.6,0,0,0-1.16-.4,2.84,2.84,0,0,0-1,.17,4.11,4.11,0,0,0-1.06.64l-.52-.66a4,4,0,0,1,2.58-1,2.7,2.7,0,0,1,1.89.62,2.12,2.12,0,0,1,.69,1.66,3,3,0,0,1-.46,1.61,9.9,9.9,0,0,1-1.71,2l-1.87,1.83v.05h4.4Z"/>
  <path class="cls-4" d="M24.47,153.87a2,2,0,0,1-.46,1.34,2.27,2.27,0,0,1-1.3.69h0a2.5,2.5,0,0,1,1.53.66,1.94,1.94,0,0,1,.49,1.38,2.21,2.21,0,0,1-.85,1.88,3.9,3.9,0,0,1-2.41.66,7.44,7.44,0,0,1-1.25-.1,4.23,4.23,0,0,1-1.09-.36v-.93a4.88,4.88,0,0,0,1.18.42,4.79,4.79,0,0,0,1.19.15c1.49,0,2.23-.58,2.23-1.74s-.82-1.56-2.45-1.56h-.85v-.84h.86a2.65,2.65,0,0,0,1.59-.44,1.48,1.48,0,0,0,.58-1.23,1.17,1.17,0,0,0-.43-1,1.83,1.83,0,0,0-1.17-.36,3.77,3.77,0,0,0-1.06.15,4.76,4.76,0,0,0-1.13.56l-.5-.65a4.13,4.13,0,0,1,1.22-.66,4.78,4.78,0,0,1,1.45-.23,3,3,0,0,1,1.94.57A1.93,1.93,0,0,1,24.47,153.87Z"/>
  <path class="cls-5" d="M25.2,133.44H23.92v2H23v-2H18.83v-.85l4.06-5.79h1v5.76H25.2Zm-2.2-.88v-2.85q0-.84.06-1.89H23a10.53,10.53,0,0,1-.52.93l-2.68,3.81Z"/>
  <path class="cls-4" d="M32.32,129.4a3.75,3.75,0,0,1-.45,2,1.49,1.49,0,0,1-1.32.68,1.43,1.43,0,0,1-1.27-.7,3.67,3.67,0,0,1-.46-2,3.76,3.76,0,0,1,.44-2,1.43,1.43,0,0,1,1.29-.67,1.48,1.48,0,0,1,1.31.7A3.65,3.65,0,0,1,32.32,129.4Zm-2.69,0a4,4,0,0,0,.22,1.49.73.73,0,0,0,.7.5c.64,0,1-.66,1-2s-.32-2-1-2a.71.71,0,0,0-.7.49A3.93,3.93,0,0,0,29.63,129.4ZM36,126.84l-4.76,8.57h-.86l4.76-8.57Zm1.51,6a3.66,3.66,0,0,1-.45,2,1.49,1.49,0,0,1-1.32.69,1.45,1.45,0,0,1-1.28-.7,3.76,3.76,0,0,1-.44-2,3.67,3.67,0,0,1,.43-2,1.45,1.45,0,0,1,1.29-.68,1.48,1.48,0,0,1,1.3.69,3.55,3.55,0,0,1,.44,2Zm-2.69,0a3.83,3.83,0,0,0,.22,1.5.71.71,0,0,0,.7.49.76.76,0,0,0,.73-.49,3.51,3.51,0,0,0,.24-1.5,3.42,3.42,0,0,0-.24-1.48.76.76,0,0,0-.73-.49.71.71,0,0,0-.7.49,3.7,3.7,0,0,0-.25,1.47Z"/>
  <rect class="cls-6" x="38.03" y="162.4" width="18.2" height="69.24"/>
  <rect class="cls-2" x="28.93" y="129.34" width="181.96" height="172.96"/>
  <rect class="cls-6" x="74.42" y="226.72" width="18.2" height="4.92"/>
  <rect class="cls-2" x="28.93" y="129.34" width="181.96" height="172.96"/>
  <rect class="cls-7" x="110.81" y="231.64" width="18.2" height="31.24"/>
  <rect class="cls-2" x="28.93" y="129.34" width="181.96" height="172.96"/>
  <rect class="cls-7" x="147.21" y="231.64" width="18.2" height="62.8"/>
  <rect class="cls-6" x="183.6" y="217.78" width="18.2" height="13.86"/>
  <rect class="cls-8" x="162.46" y="122.36" width="50.41" height="23.52"/>
  <g>
    <path d="M174.73,138H173.6v-7.12c0-.59,0-1.15.05-1.68l-.32.3-1.66,1.33-.61-.78,2.69-2h1Z"/>
    <path d="M184,138h-1.16V127.38H184Z"/>
    <path d="M186.34,128.49a.7.7,0,0,1,1.2-.57.72.72,0,0,1,.21.57.75.75,0,0,1-.21.57.7.7,0,0,1-1,0h0A.78.78,0,0,1,186.34,128.49Zm1.25,9.52h-1.15v-7.49h1.15Z"/>
    <path d="M195.27,138v-4.84a1.88,1.88,0,0,0-.43-1.37,1.75,1.75,0,0,0-1.33-.45,2.19,2.19,0,0,0-1.75.63,3.2,3.2,0,0,0-.56,2.1V138h-1.15v-7.49H191l.18,1h.06a2.43,2.43,0,0,1,1-.85,3.24,3.24,0,0,1,1.43-.31,2.91,2.91,0,0,1,2.08.66,2.74,2.74,0,0,1,.69,2.08V138Z"/>
    <path d="M202,138.15a3.57,3.57,0,0,1-2.67-1,3.93,3.93,0,0,1-1-2.81,4.33,4.33,0,0,1,.91-2.88,3.05,3.05,0,0,1,2.44-1.07,2.9,2.9,0,0,1,2.27.93,3.51,3.51,0,0,1,.84,2.44v.72h-5.26a2.92,2.92,0,0,0,.68,2,2.36,2.36,0,0,0,1.81.69,6.2,6.2,0,0,0,2.44-.51v1a6.56,6.56,0,0,1-1.16.38A7.06,7.06,0,0,1,202,138.15Zm-.31-6.82a1.93,1.93,0,0,0-1.47.59,2.66,2.66,0,0,0-.64,1.63h4a2.44,2.44,0,0,0-.49-1.65,1.73,1.73,0,0,0-1.38-.57Z"/>
  </g>
  <rect class="cls-1" x="247.28" y="129.34" width="181.96" height="172.96"/>
  <line class="cls-3" x1="247.28" y1="281.65" x2="429.24" y2="281.65"/>
  <rect class="cls-2" x="247.28" y="129.34" width="181.96" height="172.96"/>
  <line class="cls-3" x1="247.28" y1="256.65" x2="429.24" y2="256.65"/>
  <rect class="cls-2" x="247.28" y="129.34" width="181.96" height="172.96"/>
  <line class="cls-3" x1="247.28" y1="231.64" x2="429.24" y2="231.64"/>
  <rect class="cls-2" x="247.28" y="129.34" width="181.96" height="172.96"/>
  <line class="cls-3" x1="247.28" y1="206.63" x2="429.24" y2="206.63"/>
  <rect class="cls-2" x="247.28" y="129.34" width="181.96" height="172.96"/>
  <line class="cls-3" x1="247.28" y1="181.63" x2="429.24" y2="181.63"/>
  <rect class="cls-2" x="247.28" y="129.34" width="181.96" height="172.96"/>
  <line class="cls-3" x1="247.28" y1="156.62" x2="429.24" y2="156.62"/>
  <rect class="cls-2" x="247.28" y="129.34" width="181.96" height="172.96"/>
  <line class="cls-3" x1="247.28" y1="131.61" x2="429.24" y2="131.61"/>
  <rect class="cls-2" x="247.28" y="129.34" width="181.96" height="172.96"/>
  <rect class="cls-6" x="256.38" y="158.15" width="18.2" height="73.49"/>
  <rect class="cls-2" x="247.28" y="129.34" width="181.96" height="172.96"/>
  <rect class="cls-6" x="292.77" y="203.74" width="18.2" height="27.9"/>
  <rect class="cls-2" x="247.28" y="129.34" width="181.96" height="172.96"/>
  <rect class="cls-7" x="329.16" y="231.64" width="18.2" height="39.75"/>
  <rect class="cls-2" x="247.28" y="129.34" width="181.96" height="172.96"/>
  <rect class="cls-7" x="365.55" y="231.64" width="18.2" height="29.68"/>
  <rect class="cls-6" x="401.95" y="225.86" width="18.2" height="5.78"/>
  <rect class="cls-8" x="382.23" y="122.36" width="50.34" height="23.52"/>
  <g>
    <path d="M395.28,138.25H389.7v-10h5.58v1h-4.41v3.22H395v1h-4.14v3.68h4.41Z"/>
    <path d="M402.09,138.25H401V127.61h1.13Z"/>
    <path d="M404.4,128.72a.75.75,0,0,1,.19-.57.7.7,0,0,1,.48-.18.63.63,0,0,1,.47.19.69.69,0,0,1,.2.56.71.71,0,0,1-.2.57.69.69,0,0,1-1,0A.75.75,0,0,1,404.4,128.72Zm1.23,9.53H404.5v-7.5h1.13Z"/>
    <path d="M413.17,138.25V133.4a2,2,0,0,0-.42-1.37,1.7,1.7,0,0,0-1.31-.45,2.13,2.13,0,0,0-1.72.64,3.19,3.19,0,0,0-.55,2.1v3.93H408v-7.5h1l.19,1h.05a2.26,2.26,0,0,1,1-.86,3.24,3.24,0,0,1,1.4-.3,2.84,2.84,0,0,1,2,.65,2.81,2.81,0,0,1,.68,2.09v4.89Z"/>
    <path d="M419.8,138.38a3.43,3.43,0,0,1-2.63-1,3.93,3.93,0,0,1-1-2.81,4.27,4.27,0,0,1,.9-2.88,3,3,0,0,1,2.39-1.06,2.85,2.85,0,0,1,2.23.92,3.59,3.59,0,0,1,.82,2.45v.72h-5.16a3,3,0,0,0,.67,2,2.33,2.33,0,0,0,1.78.68,6.35,6.35,0,0,0,2.39-.5v1a6.6,6.6,0,0,1-1.14.37A5.81,5.81,0,0,1,419.8,138.38Zm-.31-6.81a1.83,1.83,0,0,0-1.44.59,2.6,2.6,0,0,0-.63,1.62h3.91a2.54,2.54,0,0,0-.47-1.64A1.7,1.7,0,0,0,419.49,131.57Z"/>
  </g>
  <rect class="cls-1" x="465.63" y="129.34" width="181.96" height="172.96"/>
  <line class="cls-3" x1="465.63" y1="281.65" x2="647.59" y2="281.65"/>
  <rect class="cls-2" x="465.63" y="129.34" width="181.96" height="172.96"/>
  <line class="cls-3" x1="465.63" y1="256.65" x2="647.59" y2="256.65"/>
  <rect class="cls-2" x="465.63" y="129.34" width="181.96" height="172.96"/>
  <line class="cls-3" x1="465.63" y1="231.64" x2="647.59" y2="231.64"/>
  <rect class="cls-2" x="465.63" y="129.34" width="181.96" height="172.96"/>
  <line class="cls-3" x1="465.63" y1="206.63" x2="647.59" y2="206.63"/>
  <rect class="cls-2" x="465.63" y="129.34" width="181.96" height="172.96"/>
  <line class="cls-3" x1="465.63" y1="181.63" x2="647.59" y2="181.63"/>
  <rect class="cls-2" x="465.63" y="129.34" width="181.96" height="172.96"/>
  <line class="cls-3" x1="465.63" y1="156.62" x2="647.59" y2="156.62"/>
  <rect class="cls-2" x="465.63" y="129.34" width="181.96" height="172.96"/>
  <line class="cls-3" x1="465.63" y1="131.61" x2="647.59" y2="131.61"/>
  <rect class="cls-2" x="465.63" y="129.34" width="181.96" height="172.96"/>
  <rect class="cls-6" x="474.73" y="142" width="18.2" height="89.64"/>
  <rect class="cls-2" x="465.63" y="129.34" width="181.96" height="172.96"/>
  <rect class="cls-6" x="511.12" y="213.23" width="18.2" height="18.41"/>
  <rect class="cls-2" x="465.63" y="129.34" width="181.96" height="172.96"/>
  <rect class="cls-7" x="547.51" y="231.64" width="18.2" height="54.16"/>
  <rect class="cls-2" x="465.63" y="129.34" width="181.96" height="172.96"/>
  <rect class="cls-7" x="583.9" y="231.64" width="18.2" height="19.8"/>
  <rect class="cls-6" x="620.29" y="229" width="18.2" height="2.64"/>
  <rect class="cls-8" x="599.09" y="122.36" width="50.38" height="23.52"/>
  <g>
    <path d="M613.68,135.35a2.45,2.45,0,0,1-1,2.06,4.28,4.28,0,0,1-2.64.74,6.67,6.67,0,0,1-2.79-.46v-1.12a7.7,7.7,0,0,0,2.83.56,3,3,0,0,0,1.78-.44,1.42,1.42,0,0,0,.6-1.23,1.58,1.58,0,0,0-.21-.85,2,2,0,0,0-.71-.61,9.6,9.6,0,0,0-1.52-.64,4.9,4.9,0,0,1-2-1.18,2.58,2.58,0,0,1-.61-1.78,2.21,2.21,0,0,1,.89-1.84,3.69,3.69,0,0,1,2.34-.69,7,7,0,0,1,2.79.55l-.37,1a6.49,6.49,0,0,0-2.45-.52,2.39,2.39,0,0,0-1.47.4,1.3,1.3,0,0,0-.53,1.1,1.67,1.67,0,0,0,.2.85,1.68,1.68,0,0,0,.66.61,8,8,0,0,0,1.41.61,5.68,5.68,0,0,1,2.21,1.2A2.35,2.35,0,0,1,613.68,135.35Z"/>
    <path d="M620.45,138h-1.16V127.38h1.16Z"/>
    <path d="M622.8,128.49a.74.74,0,0,1,.19-.57.72.72,0,0,1,.49-.18.7.7,0,0,1,.48.18.71.71,0,0,1,.2.57.74.74,0,0,1-.2.57.63.63,0,0,1-.48.19.65.65,0,0,1-.49-.19A.75.75,0,0,1,622.8,128.49Zm1.25,9.52H622.9v-7.49h1.15Z"/>
    <path d="M631.73,138v-4.84a1.94,1.94,0,0,0-.43-1.37,1.75,1.75,0,0,0-1.33-.45,2.19,2.19,0,0,0-1.75.63,3.14,3.14,0,0,0-.56,2.1V138H626.5v-7.49h.94l.19,1h.06a2.36,2.36,0,0,1,1-.85,3.24,3.24,0,0,1,1.43-.31,2.91,2.91,0,0,1,2.08.66,2.74,2.74,0,0,1,.69,2.08V138Z"/>
    <path d="M638.48,138.15a3.57,3.57,0,0,1-2.67-1,3.93,3.93,0,0,1-1-2.81,4.28,4.28,0,0,1,.91-2.88,3.05,3.05,0,0,1,2.44-1.07,2.9,2.9,0,0,1,2.27.93,3.51,3.51,0,0,1,.84,2.44v.72H636a2.92,2.92,0,0,0,.68,2,2.36,2.36,0,0,0,1.81.69,6.2,6.2,0,0,0,2.44-.51v1a6.56,6.56,0,0,1-1.16.38A7,7,0,0,1,638.48,138.15Zm-.31-6.82a1.9,1.9,0,0,0-1.47.59,2.66,2.66,0,0,0-.64,1.63h4a2.5,2.5,0,0,0-.49-1.65,1.77,1.77,0,0,0-1.4-.57Z"/>
  </g>
  <g>
    <rect class="cls-1" x="683.98" y="129.34" width="181.96" height="172.96"/>
    <line class="cls-3" x1="683.98" y1="281.65" x2="865.93" y2="281.65"/>
    <rect class="cls-2" x="683.98" y="129.34" width="181.96" height="172.96"/>
    <line class="cls-3" x1="683.98" y1="256.65" x2="865.93" y2="256.65"/>
    <rect class="cls-2" x="683.98" y="129.34" width="181.96" height="172.96"/>
    <line class="cls-3" x1="683.98" y1="231.64" x2="865.93" y2="231.64"/>
    <rect class="cls-2" x="683.98" y="129.34" width="181.96" height="172.96"/>
    <line class="cls-3" x1="683.98" y1="206.63" x2="865.93" y2="206.63"/>
    <rect class="cls-2" x="683.98" y="129.34" width="181.96" height="172.96"/>
    <line class="cls-3" x1="683.98" y1="181.63" x2="865.93" y2="181.63"/>
    <rect class="cls-2" x="683.98" y="129.34" width="181.96" height="172.96"/>
    <line class="cls-3" x1="683.98" y1="156.62" x2="865.93" y2="156.62"/>
    <rect class="cls-2" x="683.98" y="129.34" width="181.96" height="172.96"/>
    <line class="cls-3" x1="683.98" y1="131.61" x2="865.93" y2="131.61"/>
    <rect class="cls-2" x="683.98" y="129.34" width="181.96" height="172.96"/>
    <rect class="cls-6" x="693.08" y="137.2" width="18.2" height="94.44"/>
    <rect class="cls-2" x="683.98" y="129.34" width="181.96" height="172.96"/>
    <rect class="cls-6" x="729.47" y="174.94" width="18.2" height="56.7"/>
    <rect class="cls-2" x="683.98" y="129.34" width="181.96" height="172.96"/>
    <rect class="cls-6" x="765.86" y="223.2" width="18.2" height="8.44"/>
    <rect class="cls-2" x="683.98" y="129.34" width="181.96" height="172.96"/>
    <rect class="cls-6" x="802.25" y="224.69" width="18.2" height="6.95"/>
    <rect class="cls-6" x="838.64" y="229.47" width="18.2" height="2.17"/>
    <rect class="cls-8" x="817.01" y="122.36" width="51.13" height="23.52"/>
    <g>
      <path d="M832.22,138.25,831,135.07h-4l-1.23,3.18h-1.18l4-10h1l3.93,10ZM830.61,134l-1.16-3.1c-.15-.39-.31-.87-.47-1.44a11.92,11.92,0,0,1-.43,1.44l-1.17,3.1Z"/>
      <path d="M839.4,138.25h-1.14V127.61h1.14Z"/>
      <path d="M841.71,128.72a.74.74,0,0,1,.19-.57.66.66,0,0,1,.48-.18.63.63,0,0,1,.47.19.72.72,0,0,1,.2.56.74.74,0,0,1-.2.57.69.69,0,0,1-1,0A.74.74,0,0,1,841.71,128.72Zm1.23,9.53H841.8v-7.5h1.14Z"/>
      <path d="M850.47,138.25V133.4a2,2,0,0,0-.42-1.37,1.68,1.68,0,0,0-1.3-.45,2.15,2.15,0,0,0-1.73.64,3.2,3.2,0,0,0-.54,2.1v3.93h-1.14v-7.5h.93l.18,1h0a2.26,2.26,0,0,1,1-.86,3.24,3.24,0,0,1,1.4-.3,2.8,2.8,0,0,1,2,.65,2.75,2.75,0,0,1,.68,2.09v4.89Z"/>
      <path d="M857.1,138.38a3.41,3.41,0,0,1-2.62-1,3.93,3.93,0,0,1-1-2.81,4.37,4.37,0,0,1,.89-2.88,3,3,0,0,1,2.4-1.06,2.85,2.85,0,0,1,2.23.92,3.59,3.59,0,0,1,.82,2.45v.72h-5.17a3,3,0,0,0,.67,2,2.33,2.33,0,0,0,1.78.68,6,6,0,0,0,2.39-.5v1a6.23,6.23,0,0,1-1.13.37A6,6,0,0,1,857.1,138.38Zm-.31-6.81a1.83,1.83,0,0,0-1.44.59,2.77,2.77,0,0,0-.63,1.62h3.92a2.46,2.46,0,0,0-.48-1.64A1.69,1.69,0,0,0,856.79,131.57Z"/>
    </g>
  </g>
  <rect class="cls-8" x="7.81" y="21.67" width="330.45" height="37.47"/>
  <g>
    <path d="M17.15,46.56H14.72v-15h8.46v2.07h-6v4.69H22.8V40.4H17.15Z"/>
    <path d="M30.6,46.77a5.49,5.49,0,0,1-4.14-1.54A5.85,5.85,0,0,1,25,41a6.45,6.45,0,0,1,1.38-4.37A4.8,4.8,0,0,1,30.15,35a4.67,4.67,0,0,1,3.55,1.36A5.2,5.2,0,0,1,35,40.13v1.31H27.45A3.68,3.68,0,0,0,28.34,44a3.08,3.08,0,0,0,2.37.89,8.36,8.36,0,0,0,1.87-.19,9.48,9.48,0,0,0,1.86-.7v2a7.3,7.3,0,0,1-1.78.59A10.18,10.18,0,0,1,30.6,46.77Zm-.45-9.93a2.43,2.43,0,0,0-1.84.73,3.52,3.52,0,0,0-.82,2.12h5.15A3.17,3.17,0,0,0,32,37.57,2.29,2.29,0,0,0,30.15,36.84Z"/>
    <path d="M47,46.56l-1.46-5.29c-.18-.56-.5-1.86-1-3.9h-.09c-.4,1.84-.71,3.15-.94,3.92L42,46.56H39.4L36.22,35.22h2.47l1.44,5.59c.33,1.38.56,2.56.7,3.55h.06c.07-.5.17-1.07.31-1.72a14.67,14.67,0,0,1,.37-1.45l1.72-6h2.65l1.67,6c.1.34.23.85.38,1.54a11,11,0,0,1,.27,1.61h.08a35,35,0,0,1,.72-3.53l1.47-5.59H53L49.8,46.56Z"/>
    <path d="M60.61,46.56v-15h2.45v12.9h6.35v2.1Z"/>
    <path d="M71.59,32.22a1.35,1.35,0,0,1,.35-1,1.42,1.42,0,0,1,1-.34A1.22,1.22,0,0,1,74.29,32a1.13,1.13,0,0,1,0,.26,1.29,1.29,0,0,1-.36,1,1.31,1.31,0,0,1-1,.35,1.41,1.41,0,0,1-1-.35A1.31,1.31,0,0,1,71.59,32.22Zm2.55,14.34H71.73V35.22h2.41Z"/>
    <path d="M87.57,46.56H85.15v-7a3.09,3.09,0,0,0-.53-2A2,2,0,0,0,82.94,37a2.67,2.67,0,0,0-2.23.9,4.94,4.94,0,0,0-.71,3v5.65H77.59V35.22h1.89l.33,1.49h.13a3.26,3.26,0,0,1,1.45-1.25A4.72,4.72,0,0,1,83.48,35q4.09,0,4.09,4.15Z"/>
    <path d="M95.87,46.77a5.54,5.54,0,0,1-4.14-1.54A5.88,5.88,0,0,1,90.24,41a6.39,6.39,0,0,1,1.39-4.37A4.78,4.78,0,0,1,95.43,35,4.68,4.68,0,0,1,99,36.38a5.21,5.21,0,0,1,1.3,3.75v1.31H92.72a3.76,3.76,0,0,0,.9,2.53,3,3,0,0,0,2.36.89,8.51,8.51,0,0,0,1.88-.19A10.33,10.33,0,0,0,99.72,44v2a7.52,7.52,0,0,1-1.79.59A10.18,10.18,0,0,1,95.87,46.77Zm-.44-9.93a2.43,2.43,0,0,0-1.84.73,3.44,3.44,0,0,0-.83,2.12h5.15a3.18,3.18,0,0,0-.67-2.12A2.3,2.3,0,0,0,95.43,36.84Z"/>
    <path d="M110.64,43.33a3,3,0,0,1-1.21,2.55,5.81,5.81,0,0,1-3.47.89,8.12,8.12,0,0,1-3.64-.69V44a8.92,8.92,0,0,0,3.72.92c1.49,0,2.23-.44,2.23-1.34a1,1,0,0,0-.25-.72,3,3,0,0,0-.81-.59,13,13,0,0,0-1.57-.7A7.27,7.27,0,0,1,103,40.05a2.81,2.81,0,0,1-.69-2,2.59,2.59,0,0,1,1.17-2.26,5.62,5.62,0,0,1,3.2-.8,9,9,0,0,1,3.78.81l-.78,1.81a8.61,8.61,0,0,0-3.08-.76c-1.27,0-1.91.37-1.91,1.09a1.07,1.07,0,0,0,.5.9,10.16,10.16,0,0,0,2.17,1,10.1,10.1,0,0,1,2,1,2.77,2.77,0,0,1,1.28,2.49Z"/>
    <path d="M119,46.56v-15h2.45v15Z"/>
    <path d="M135.08,46.56h-2.42v-7a3,3,0,0,0-.53-2,2,2,0,0,0-1.67-.64,2.68,2.68,0,0,0-2.24.9,5,5,0,0,0-.7,3v5.65h-2.41V35.22H127l.34,1.49h.12a3.41,3.41,0,0,1,1.46-1.25A4.82,4.82,0,0,1,131,35q4.08,0,4.08,4.15Z"/>
    <path d="M143,46.77a5,5,0,0,1-3.91-1.5A6.32,6.32,0,0,1,137.76,41a6.33,6.33,0,0,1,1.4-4.39,5.17,5.17,0,0,1,4-1.54,7.66,7.66,0,0,1,3.23.66l-.72,1.94a7.6,7.6,0,0,0-2.53-.59q-2.94,0-2.94,3.9a4.71,4.71,0,0,0,.8,2.82,2.54,2.54,0,0,0,2.15,1,6.2,6.2,0,0,0,3-.8v2.1a4.56,4.56,0,0,1-1.38.54A8.08,8.08,0,0,1,143,46.77Z"/>
    <path d="M154.59,35a5.41,5.41,0,0,1,1.2.1l-.24,2.25a4.29,4.29,0,0,0-1.07-.13,3.08,3.08,0,0,0-2.34,1,3.37,3.37,0,0,0-.9,2.45v5.92h-2.41V35.22h1.89l.32,2h.12a4.64,4.64,0,0,1,1.47-1.61A3.6,3.6,0,0,1,154.59,35Z"/>
    <path d="M162.84,46.77a5.54,5.54,0,0,1-4.14-1.54A5.88,5.88,0,0,1,157.21,41a6.45,6.45,0,0,1,1.38-4.37A4.81,4.81,0,0,1,162.4,35a4.67,4.67,0,0,1,3.6,1.38,5.21,5.21,0,0,1,1.3,3.75v1.31h-7.56a3.72,3.72,0,0,0,.89,2.53,3.08,3.08,0,0,0,2.37.89,8.36,8.36,0,0,0,1.87-.19,10.28,10.28,0,0,0,1.87-.63v2a7.52,7.52,0,0,1-1.79.59A10.65,10.65,0,0,1,162.84,46.77Zm-.44-9.93a2.43,2.43,0,0,0-1.84.73,3.44,3.44,0,0,0-.83,2.12h5.15a3.12,3.12,0,0,0-.68-2.12A2.27,2.27,0,0,0,162.4,36.84Z"/>
    <path d="M177.08,46.56,176.6,45h-.08a4.67,4.67,0,0,1-1.65,1.41,5.41,5.41,0,0,1-2.14.38,3.59,3.59,0,0,1-2.6-.9,3.37,3.37,0,0,1-.94-2.56,3,3,0,0,1,1.3-2.64,7.47,7.47,0,0,1,4-1l2-.06V39a2.29,2.29,0,0,0-.51-1.63,2.09,2.09,0,0,0-1.58-.54,5.55,5.55,0,0,0-1.67.26,14.27,14.27,0,0,0-1.53.6L170.35,36a8.26,8.26,0,0,1,2-.73,9,9,0,0,1,2.07-.25,4.89,4.89,0,0,1,3.26.94,3.66,3.66,0,0,1,1.11,3V46.6Zm-3.59-1.64a3,3,0,0,0,2.11-.73,2.69,2.69,0,0,0,.8-2.06v-1l-1.46.06a5,5,0,0,0-2.48.57,1.73,1.73,0,0,0-.77,1.55,1.53,1.53,0,0,0,.45,1.18A2,2,0,0,0,173.49,44.92Z"/>
    <path d="M189.79,43.33a3,3,0,0,1-1.21,2.55,5.81,5.81,0,0,1-3.47.89,8.12,8.12,0,0,1-3.64-.69V44a8.77,8.77,0,0,0,3.72.92c1.49,0,2.23-.44,2.23-1.34a1,1,0,0,0-.25-.72,3,3,0,0,0-.81-.59,13,13,0,0,0-1.57-.7,7.25,7.25,0,0,1-2.65-1.52,2.81,2.81,0,0,1-.69-2,2.59,2.59,0,0,1,1.17-2.26,5.62,5.62,0,0,1,3.2-.8,9,9,0,0,1,3.78.81l-.78,1.81a8.61,8.61,0,0,0-3.08-.76c-1.27,0-1.91.37-1.91,1.09a1.07,1.07,0,0,0,.5.9,10.16,10.16,0,0,0,2.17,1,10.1,10.1,0,0,1,2,1,2.8,2.8,0,0,1,1.29,2.49Z"/>
    <path d="M197.34,46.77a5.5,5.5,0,0,1-4.13-1.54,5.83,5.83,0,0,1-1.5-4.25,6.45,6.45,0,0,1,1.39-4.37A4.74,4.74,0,0,1,196.9,35a4.67,4.67,0,0,1,3.55,1.36,5.21,5.21,0,0,1,1.3,3.75v1.31H194.2a3.7,3.7,0,0,0,.89,2.53,3.08,3.08,0,0,0,2.37.89,8.36,8.36,0,0,0,1.87-.19,10.19,10.19,0,0,0,1.86-.63v2a7.3,7.3,0,0,1-1.78.59A11,11,0,0,1,197.34,46.77Zm-.44-9.93a2.43,2.43,0,0,0-1.84.73,3.52,3.52,0,0,0-.82,2.12h5.14a3.06,3.06,0,0,0-.67-2.12A2.3,2.3,0,0,0,196.9,36.84Z"/>
    <path d="M208.32,46.77A4,4,0,0,1,205,45.23a7,7,0,0,1-1.19-4.32A7,7,0,0,1,205,36.57,4,4,0,0,1,208.36,35a3.9,3.9,0,0,1,3.4,1.65h.12a15.55,15.55,0,0,1-.17-1.93V30.61h2.42v16h-1.89l-.42-1.48h-.11A3.85,3.85,0,0,1,208.32,46.77Zm.64-2a2.65,2.65,0,0,0,2.17-.84,4.4,4.4,0,0,0,.69-2.71v-.34a5.16,5.16,0,0,0-.69-3,2.61,2.61,0,0,0-2.19-.9,2.22,2.22,0,0,0-2,1,5.21,5.21,0,0,0-.64,3,5.28,5.28,0,0,0,.66,2.88,2.27,2.27,0,0,0,2,.94Z"/>
    <path d="M225.74,40.58v6h-2.45v-15h4.23a6.88,6.88,0,0,1,4.3,1.09A3.89,3.89,0,0,1,233.21,36a4.1,4.1,0,0,1-2.91,4l4.24,6.63h-2.79l-3.59-6Zm0-2h1.7a4,4,0,0,0,2.48-.63,2.3,2.3,0,0,0,.77-1.89,2,2,0,0,0-.83-1.82,4.54,4.54,0,0,0-2.5-.56h-1.62Z"/>
    <path d="M236.31,32.22a1.35,1.35,0,0,1,.35-1,1.42,1.42,0,0,1,1-.34A1.22,1.22,0,0,1,239,32a1,1,0,0,1,0,.25,1.29,1.29,0,0,1-.36,1,1.31,1.31,0,0,1-1,.35,1.41,1.41,0,0,1-1-.35A1.35,1.35,0,0,1,236.31,32.22Zm2.55,14.34h-2.41V35.22h2.41Z"/>
    <path d="M246.13,46.77a3.94,3.94,0,0,1-3.31-1.54,7,7,0,0,1-1.19-4.32,6.91,6.91,0,0,1,1.21-4.34A4,4,0,0,1,246.17,35a3.93,3.93,0,0,1,3.41,1.65h.12a13.84,13.84,0,0,1-.17-1.93V30.61H252v16h-1.89l-.42-1.48h-.11A3.9,3.9,0,0,1,246.13,46.77Zm.65-2a2.63,2.63,0,0,0,2.16-.84,4.39,4.39,0,0,0,.7-2.71v-.34a5,5,0,0,0-.7-3,2.59,2.59,0,0,0-2.18-.9,2.22,2.22,0,0,0-2,1,5.28,5.28,0,0,0-.69,2.93,5.08,5.08,0,0,0,.67,2.88,2.23,2.23,0,0,0,2,1Z"/>
    <path d="M260.34,46.77a5.5,5.5,0,0,1-4.13-1.54,5.83,5.83,0,0,1-1.5-4.25,6.45,6.45,0,0,1,1.39-4.37A4.74,4.74,0,0,1,259.9,35a4.67,4.67,0,0,1,3.55,1.36,5.21,5.21,0,0,1,1.3,3.75v1.31H257.2a3.7,3.7,0,0,0,.89,2.53,3.08,3.08,0,0,0,2.37.89,8.36,8.36,0,0,0,1.87-.19,10.19,10.19,0,0,0,1.86-.63v2a7.1,7.1,0,0,1-1.79.59A10.94,10.94,0,0,1,260.34,46.77Zm-.44-9.93a2.43,2.43,0,0,0-1.84.73,3.52,3.52,0,0,0-.82,2.12h5.14a3.06,3.06,0,0,0-.67-2.12A2.3,2.3,0,0,0,259.9,36.84Z"/>
    <path d="M273.24,35a5.41,5.41,0,0,1,1.2.1l-.23,2.25a4.29,4.29,0,0,0-1.07-.13,3.08,3.08,0,0,0-2.34,1,3.37,3.37,0,0,0-.9,2.45v5.92h-2.41V35.22h1.89l.32,2h.12a4.54,4.54,0,0,1,1.47-1.61A3.57,3.57,0,0,1,273.24,35Z"/>
    <path d="M284.16,43.33A3,3,0,0,1,283,45.88a5.78,5.78,0,0,1-3.46.89,8.12,8.12,0,0,1-3.64-.69V44a8.77,8.77,0,0,0,3.72.92c1.48,0,2.23-.44,2.23-1.34a1.06,1.06,0,0,0-.25-.72,3,3,0,0,0-.81-.59,13,13,0,0,0-1.57-.7,7.17,7.17,0,0,1-2.65-1.52,2.81,2.81,0,0,1-.69-2A2.59,2.59,0,0,1,277,35.82a5.62,5.62,0,0,1,3.2-.8,9,9,0,0,1,3.78.81l-.78,1.81a8.46,8.46,0,0,0-3.09-.76c-1.27,0-1.9.37-1.9,1.09a1.07,1.07,0,0,0,.49.9,10.68,10.68,0,0,0,2.17,1,9.59,9.59,0,0,1,2,1,3,3,0,0,1,.95,1A3.07,3.07,0,0,1,284.16,43.33Z"/>
    <path d="M296.74,46.56h-2.42v-7a3.08,3.08,0,0,0-.52-2,2,2,0,0,0-1.68-.64,2.67,2.67,0,0,0-2.23.9,5.09,5.09,0,0,0-.71,3v5.63h-2.41v-16h2.41v4a18.13,18.13,0,0,1-.12,2.08h.15a3.23,3.23,0,0,1,1.37-1.27,4.34,4.34,0,0,1,2-.45c2.75,0,4.13,1.38,4.12,4.15Z"/>
    <path d="M300,32.22a1.37,1.37,0,0,1,2.27-1.1,1.34,1.34,0,0,1,.44,1.1,1.31,1.31,0,0,1-.35,1,1.59,1.59,0,0,1-2,0A1.29,1.29,0,0,1,300,32.22Zm2.56,14.34H300.1V35.22h2.41Z"/>
    <path d="M311.71,46.77a4,4,0,0,1-3.35-1.55h-.14c.09,1,.14,1.54.14,1.74v4.65H306V35.22H308c.06.21.17.72.34,1.52h.12A3.77,3.77,0,0,1,311.75,35a3.93,3.93,0,0,1,3.3,1.54,6.93,6.93,0,0,1,1.19,4.31A6.91,6.91,0,0,1,315,45.21,4,4,0,0,1,311.71,46.77ZM311.12,37a2.51,2.51,0,0,0-2.1.84,4.3,4.3,0,0,0-.66,2.68v.36a5.32,5.32,0,0,0,.66,3,2.46,2.46,0,0,0,2.14.93,2.15,2.15,0,0,0,1.93-1,5.32,5.32,0,0,0,.68-2.92A5.21,5.21,0,0,0,313.1,38,2.24,2.24,0,0,0,311.12,37Z"/>
  </g>
  <g>
    <g>
      <path class="cls-9" d="M11.89,316.3a2.08,2.08,0,0,1-.82,1.77,3.61,3.61,0,0,1-2.23.63,5.66,5.66,0,0,1-2.34-.39v-1a6.63,6.63,0,0,0,1.15.35,6.34,6.34,0,0,0,1.23.13,2.55,2.55,0,0,0,1.5-.38,1.24,1.24,0,0,0,.5-1.05,1.32,1.32,0,0,0-.18-.73,1.67,1.67,0,0,0-.59-.53,7.55,7.55,0,0,0-1.28-.54,4.12,4.12,0,0,1-1.71-1A2.28,2.28,0,0,1,6.61,312a1.92,1.92,0,0,1,.74-1.58,3.12,3.12,0,0,1,2-.59,5.74,5.74,0,0,1,2.35.47l-.31.87a5.23,5.23,0,0,0-2.06-.45,2.1,2.1,0,0,0-1.24.34,1.17,1.17,0,0,0-.44.95,1.44,1.44,0,0,0,.16.73,1.47,1.47,0,0,0,.56.52,6.6,6.6,0,0,0,1.19.52,4.7,4.7,0,0,1,1.85,1A2,2,0,0,1,11.89,316.3Z"/>
      <path class="cls-9" d="M19,315.37a3.56,3.56,0,0,1-.79,2.45,2.78,2.78,0,0,1-2.19.88,2.92,2.92,0,0,1-1.53-.4,2.68,2.68,0,0,1-1-1.16,4.16,4.16,0,0,1-.36-1.77,3.5,3.5,0,0,1,.78-2.45A2.8,2.8,0,0,1,16.1,312a2.68,2.68,0,0,1,2.14.9A3.51,3.51,0,0,1,19,315.37Zm-4.89,0a3,3,0,0,0,.49,1.87,1.73,1.73,0,0,0,1.45.65,1.73,1.73,0,0,0,1.45-.65,3,3,0,0,0,.49-1.87,3,3,0,0,0-.49-1.86,1.73,1.73,0,0,0-1.47-.64,1.74,1.74,0,0,0-1.44.63,3.08,3.08,0,0,0-.44,1.87Z"/>
      <path class="cls-9" d="M21.66,312.16v4.17A1.64,1.64,0,0,0,22,317.5a1.43,1.43,0,0,0,1.11.39,1.83,1.83,0,0,0,1.48-.56,2.72,2.72,0,0,0,.46-1.79v-3.38h1v6.42h-.81l-.14-.86h-.05a2,2,0,0,1-.83.73,2.79,2.79,0,0,1-1.21.25,2.43,2.43,0,0,1-1.75-.56,2.37,2.37,0,0,1-.59-1.78v-4.2Z"/>
      <path class="cls-9" d="M31,312a3.94,3.94,0,0,1,.77.07l-.14.91a2.74,2.74,0,0,0-.7-.09,1.7,1.7,0,0,0-1.33.63A2.29,2.29,0,0,0,29,315.1v3.44H28v-6.42h.8l.11,1.19H29a3,3,0,0,1,.86-1A2,2,0,0,1,31,312Z"/>
      <path class="cls-9" d="M35.57,318.7a2.75,2.75,0,0,1-2.16-.86,3.5,3.5,0,0,1-.76-2.43,3.62,3.62,0,0,1,.78-2.49,2.79,2.79,0,0,1,2.21-.88,4.71,4.71,0,0,1,.92.1,3.12,3.12,0,0,1,.73.24l-.3.82c-.23-.08-.46-.15-.7-.21a3.08,3.08,0,0,0-.68-.08c-1.3,0-2,.83-2,2.49a3,3,0,0,0,.48,1.82,1.64,1.64,0,0,0,1.41.63,4.07,4.07,0,0,0,1.65-.35v.87A3.56,3.56,0,0,1,35.57,318.7Z"/>
      <path class="cls-9" d="M41.43,318.7a2.93,2.93,0,0,1-2.24-.87,3.37,3.37,0,0,1-.83-2.41,3.74,3.74,0,0,1,.77-2.46,2.53,2.53,0,0,1,2-.92,2.43,2.43,0,0,1,1.91.8,3,3,0,0,1,.7,2.09v.62H39.37a2.53,2.53,0,0,0,.57,1.71,2,2,0,0,0,1.53.59,5.16,5.16,0,0,0,2.05-.43v.86a5.06,5.06,0,0,1-1,.32A5,5,0,0,1,41.43,318.7Zm-.26-5.84a1.59,1.59,0,0,0-1.23.5,2.39,2.39,0,0,0-.55,1.4h3.36a2.17,2.17,0,0,0-.41-1.41,1.41,1.41,0,0,0-1.17-.49Z"/>
      <path class="cls-9" d="M45.31,312.79c0-.53.23-.79.69-.79s.72.26.72.79a.77.77,0,0,1-.19.58.7.7,0,0,1-.53.21.65.65,0,0,1-.49-.19A.77.77,0,0,1,45.31,312.79Zm0,5.17a.85.85,0,0,1,.18-.59.65.65,0,0,1,.51-.2.66.66,0,0,1,.53.2,1,1,0,0,1,0,1.18.69.69,0,0,1-.53.2.68.68,0,0,1-.49-.18.8.8,0,0,1-.2-.57Z"/>
      <path class="cls-9" d="M55.7,318.58,52.79,311h0c0,.6.08,1.32.08,2.14v5.45H52V310h1.5l2.71,7.06h.05l2.7-7.06h1.48v8.56h-1V313a18.7,18.7,0,0,1,.08-2.06h0l-2.93,7.58Z"/>
      <path class="cls-9" d="M65.38,318.58h-1V310.9H61.67V310h6.42v.88H65.38Z"/>
      <path class="cls-9" d="M74.77,318.58l-1.07-2.72H70.27l-1.06,2.72h-1L71.6,310h.84l3.37,8.6ZM73.39,315l-1-2.65c-.12-.34-.26-.75-.39-1.24a11,11,0,0,1-.37,1.24l-1,2.65Z"/>
    </g>
    <g>
      <path class="cls-9" d="M822.34,316.3a2.13,2.13,0,0,1-.82,1.77,3.61,3.61,0,0,1-2.23.63,5.5,5.5,0,0,1-2.34-.39v-1a6.63,6.63,0,0,0,1.15.35,6.34,6.34,0,0,0,1.23.13,2.55,2.55,0,0,0,1.5-.38,1.24,1.24,0,0,0,.5-1.05,1.32,1.32,0,0,0-.18-.73,1.71,1.71,0,0,0-.6-.53,7.45,7.45,0,0,0-1.27-.54,4,4,0,0,1-1.71-1,2.28,2.28,0,0,1-.51-1.52,1.92,1.92,0,0,1,.74-1.58,3.12,3.12,0,0,1,2-.59,5.74,5.74,0,0,1,2.35.47l-.31.87a5.23,5.23,0,0,0-2.06-.45,2.1,2.1,0,0,0-1.24.34,1.14,1.14,0,0,0-.44.95,1.44,1.44,0,0,0,.16.73,1.52,1.52,0,0,0,.55.52,6.4,6.4,0,0,0,1.2.52,4.77,4.77,0,0,1,1.85,1A2,2,0,0,1,822.34,316.3Z"/>
      <path class="cls-9" d="M827.89,318.58l-.19-.91h-.05a2.83,2.83,0,0,1-1,.82,3,3,0,0,1-1.19.21,2.16,2.16,0,0,1-1.5-.49,1.84,1.84,0,0,1-.54-1.4c0-1.3,1-2,3.11-2h1.09v-.4a1.58,1.58,0,0,0-.32-1.11,1.36,1.36,0,0,0-1-.36,4.12,4.12,0,0,0-1.82.49l-.3-.74a4.58,4.58,0,0,1,1-.41,4.4,4.4,0,0,1,1.14-.14,2.42,2.42,0,0,1,1.7.51,2.08,2.08,0,0,1,.55,1.63v4.38Zm-2.19-.68a2,2,0,0,0,1.42-.5,1.86,1.86,0,0,0,.52-1.4v-.58l-1,.05a3.34,3.34,0,0,0-1.67.36,1.07,1.07,0,0,0-.52,1,1,1,0,0,0,.32.8A1.3,1.3,0,0,0,825.7,317.9Z"/>
      <path class="cls-9" d="M835.86,318.58l-1.18-3.76c-.07-.24-.21-.76-.41-1.57h0c-.16.68-.29,1.21-.41,1.58l-1.21,3.75h-1.13l-1.75-6.42h1c.41,1.61.73,2.84,1,3.69a16.62,16.62,0,0,1,.37,1.7h.05a4.41,4.41,0,0,1,.2-.86c.09-.35.18-.64.25-.84l1.18-3.69h1l1.15,3.69a12.38,12.38,0,0,1,.45,1.69h.05a3.55,3.55,0,0,1,.12-.65c.07-.29.48-1.87,1.22-4.73h1L837,318.58Z"/>
      <path class="cls-9" d="M838.93,312.16h1l1.41,3.66a16.56,16.56,0,0,1,.58,1.81h0a4.81,4.81,0,0,1,.32-1c.16-.46.69-2,1.59-4.45H845l-2.76,7.31a3.68,3.68,0,0,1-1,1.54,2.07,2.07,0,0,1-1.35.46,4.32,4.32,0,0,1-.88-.1v-.78a3.51,3.51,0,0,0,.72.07,1.48,1.48,0,0,0,1.43-1.13l.36-.91Z"/>
      <path class="cls-9" d="M848.71,318.7a3,3,0,0,1-2.25-.87,3.38,3.38,0,0,1-.82-2.41,3.74,3.74,0,0,1,.77-2.46,2.53,2.53,0,0,1,2.05-.92,2.44,2.44,0,0,1,1.91.8,3,3,0,0,1,.7,2.09v.62h-4.42a2.53,2.53,0,0,0,.57,1.71,2,2,0,0,0,1.53.59,5.1,5.1,0,0,0,2-.43v.86a5.06,5.06,0,0,1-1,.32A5.16,5.16,0,0,1,848.71,318.7Zm-.26-5.84a1.6,1.6,0,0,0-1.24.5,2.48,2.48,0,0,0-.54,1.4H850a2.17,2.17,0,0,0-.41-1.41,1.41,1.41,0,0,0-1.14-.49Z"/>
      <path class="cls-9" d="M855.66,312a3.94,3.94,0,0,1,.77.07l-.14.91a2.74,2.74,0,0,0-.7-.09,1.71,1.71,0,0,0-1.33.63,2.29,2.29,0,0,0-.56,1.58v3.44h-1v-6.42h.8l.11,1.19h0a3,3,0,0,1,.86-1A2,2,0,0,1,855.66,312Z"/>
      <path class="cls-9" d="M864.56,310.78a2.82,2.82,0,0,0-2.23.94,3.82,3.82,0,0,0-.82,2.58,3.86,3.86,0,0,0,.79,2.6,2.82,2.82,0,0,0,2.25.92,7.54,7.54,0,0,0,2-.33v.88a6.26,6.26,0,0,1-2.19.33,3.68,3.68,0,0,1-2.92-1.15,4.68,4.68,0,0,1-1-3.26,5.15,5.15,0,0,1,.49-2.32,3.55,3.55,0,0,1,1.43-1.54,4.32,4.32,0,0,1,2.2-.54,5.22,5.22,0,0,1,2.36.5l-.42.85A4.68,4.68,0,0,0,864.56,310.78Z"/>
      <path class="cls-9" d="M869.29,318.58h-1v-9.11h1Z"/>
      <path class="cls-9" d="M871.27,310.42a.62.62,0,0,1,.16-.49.64.64,0,0,1,.82,0,.78.78,0,0,1,0,1,.61.61,0,0,1-.82,0A.68.68,0,0,1,871.27,310.42Zm1.05,8.16h-1v-6.42h1Z"/>
      <path class="cls-9" d="M877,318.7a2.75,2.75,0,0,1-2.16-.86,3.5,3.5,0,0,1-.76-2.43,3.62,3.62,0,0,1,.78-2.49A2.82,2.82,0,0,1,877,312a4.71,4.71,0,0,1,.92.1,3.12,3.12,0,0,1,.73.24l-.3.82c-.23-.08-.46-.15-.7-.21a3.08,3.08,0,0,0-.68-.08c-1.3,0-2,.83-2,2.49a3,3,0,0,0,.47,1.82,1.66,1.66,0,0,0,1.42.63,4.07,4.07,0,0,0,1.65-.35v.87A3.61,3.61,0,0,1,877,318.7Z"/>
      <path class="cls-9" d="M881.06,315.3a11.67,11.67,0,0,1,.77-.94l2.07-2.2h1.16l-2.6,2.74,2.78,3.68h-1.18l-2.27-3-.73.63v2.4h-1V309.5h1v5.8Z"/>
    </g>
  </g>
  <g>
    <path d="M20.64,68.87a4.35,4.35,0,0,1-.95,3,3.39,3.39,0,0,1-2.69,1,3.4,3.4,0,0,1-2.67-1.06,5.13,5.13,0,0,1,0-6A3.44,3.44,0,0,1,17,64.79a3.38,3.38,0,0,1,2.64,1.07A4.39,4.39,0,0,1,20.64,68.87Zm-6.26,0a3.73,3.73,0,0,0,.68,2.42,2.38,2.38,0,0,0,2,.82,2.41,2.41,0,0,0,2-.82,3.79,3.79,0,0,0,.66-2.42,3.73,3.73,0,0,0-.66-2.4,2.38,2.38,0,0,0-2-.82,2.44,2.44,0,0,0-2,.82A3.69,3.69,0,0,0,14.38,68.87Z"/>
    <path d="M26.28,72.81V69A1.59,1.59,0,0,0,26,67.92a1.35,1.35,0,0,0-1-.35,1.7,1.7,0,0,0-1.35.5,2.48,2.48,0,0,0-.43,1.65v3.09h-.89V66.92H23l.15.81h0a1.81,1.81,0,0,1,.77-.68,2.45,2.45,0,0,1,1.1-.24,2.17,2.17,0,0,1,1.6.52A2.14,2.14,0,0,1,27.18,69v3.84Z"/>
    <path d="M29.9,72.81H29V64.45h.89Z"/>
    <path d="M30.85,66.92h1l1.29,3.36a13.92,13.92,0,0,1,.53,1.66h0A4.43,4.43,0,0,1,34,71c.15-.44.64-1.8,1.46-4.08h1l-2.53,6.7A3.32,3.32,0,0,1,33,75a1.89,1.89,0,0,1-1.23.42,3.72,3.72,0,0,1-.81-.09v-.72a3,3,0,0,0,.66.07,1.36,1.36,0,0,0,1.31-1l.33-.84Z"/>
    <path d="M42.84,67.61h-1.5v5.2h-.89v-5.2H39.4v-.4l1.05-.32v-.33c0-1.45.63-2.17,1.9-2.17a3.67,3.67,0,0,1,1.09.19l-.23.71a2.91,2.91,0,0,0-.88-.16.85.85,0,0,0-.74.33,1.84,1.84,0,0,0-.25,1.08v.38h1.5Z"/>
    <path d="M49,69.86a3.22,3.22,0,0,1-.73,2.25,2.56,2.56,0,0,1-2,.8,2.65,2.65,0,0,1-1.4-.37,2.38,2.38,0,0,1-.95-1.06,3.76,3.76,0,0,1-.33-1.62,3.25,3.25,0,0,1,.72-2.24,2.56,2.56,0,0,1,2-.81,2.52,2.52,0,0,1,2,.82A3.21,3.21,0,0,1,49,69.86Zm-4.49,0A2.77,2.77,0,0,0,45,71.58a1.8,1.8,0,0,0,2.53.13l.13-.13a3.49,3.49,0,0,0,0-3.43,1.83,1.83,0,0,0-2.59-.07l-.07.07A2.74,2.74,0,0,0,44.51,69.86Z"/>
    <path d="M51.4,66.92v3.82a1.52,1.52,0,0,0,.33,1.07,1.29,1.29,0,0,0,1,.36,1.64,1.64,0,0,0,1.35-.51A2.51,2.51,0,0,0,54.53,70V66.92h.89v5.89h-.73L54.56,72h-.05a1.74,1.74,0,0,1-.76.66,2.51,2.51,0,0,1-1.11.23A2.26,2.26,0,0,1,51,72.4a2.17,2.17,0,0,1-.53-1.63V66.92Z"/>
    <path d="M60,66.81a3.26,3.26,0,0,1,.7.07l-.12.82a3.5,3.5,0,0,0-.65-.08,1.6,1.6,0,0,0-1.22.58,2.08,2.08,0,0,0-.51,1.45v3.16h-.89V66.92h.74l.1,1.09h0a2.6,2.6,0,0,1,.79-.89A1.8,1.8,0,0,1,60,66.81Z"/>
    <path d="M69.74,69.86A3.27,3.27,0,0,1,69,72.11a2.87,2.87,0,0,1-3.4.43,2.42,2.42,0,0,1-.94-1.06,3.63,3.63,0,0,1-.34-1.62A3.25,3.25,0,0,1,65,67.62a2.56,2.56,0,0,1,2-.81,2.52,2.52,0,0,1,2,.82A3.27,3.27,0,0,1,69.74,69.86Zm-4.48,0a2.82,2.82,0,0,0,.45,1.72,1.78,1.78,0,0,0,2.51.14l.14-.14a2.76,2.76,0,0,0,.46-1.72,2.72,2.72,0,0,0-.46-1.71,1.83,1.83,0,0,0-2.59-.07.46.46,0,0,0-.07.07A2.8,2.8,0,0,0,65.26,69.86Z"/>
    <path d="M74,67.61H72.5v5.2h-.89v-5.2h-1.1v-.4l1.06-.32v-.33c0-1.45.63-2.17,1.89-2.17a3.79,3.79,0,0,1,1.1.19l-.23.71a2.91,2.91,0,0,0-.88-.16.87.87,0,0,0-.75.33,1.85,1.85,0,0,0-.24,1.08v.38H74Z"/>
    <path d="M79.79,72.18a1.77,1.77,0,0,0,.46,0,2,2,0,0,0,.35-.07v.68a1.62,1.62,0,0,1-.43.12,4.34,4.34,0,0,1-.51,0q-1.71,0-1.71-1.8v-3.5h-.84v-.43l.84-.37.38-1.25h.52v1.36h1.7v.69h-1.7v3.47a1.19,1.19,0,0,0,.25.81A.91.91,0,0,0,79.79,72.18Z"/>
    <path d="M85.8,72.81V69a1.56,1.56,0,0,0-.33-1.08,1.35,1.35,0,0,0-1-.35,1.73,1.73,0,0,0-1.36.5,2.57,2.57,0,0,0-.43,1.66v3.08h-.89V64.45h.89V67a4.82,4.82,0,0,1,0,.76h0a1.8,1.8,0,0,1,.75-.67,2.37,2.37,0,0,1,1.11-.25,2.22,2.22,0,0,1,1.62.52A2.14,2.14,0,0,1,86.69,69v3.84Z"/>
    <path d="M91,72.91a2.71,2.71,0,0,1-2-.79,3.07,3.07,0,0,1-.75-2.21,3.42,3.42,0,0,1,.7-2.26,2.31,2.31,0,0,1,1.88-.84,2.24,2.24,0,0,1,1.75.73,2.8,2.8,0,0,1,.65,1.92V70H89.12a2.34,2.34,0,0,0,.52,1.58,1.84,1.84,0,0,0,1.4.54,4.84,4.84,0,0,0,1.88-.4v.79a4.66,4.66,0,0,1-.89.3A5.89,5.89,0,0,1,91,72.91Zm-.24-5.35a1.45,1.45,0,0,0-1.13.46,2.15,2.15,0,0,0-.5,1.28h3.08a2,2,0,0,0-.37-1.3,1.31,1.31,0,0,0-1.07-.44Z"/>
    <path d="M102.31,72.81H97.14V72l2.07-2a16.11,16.11,0,0,0,1.25-1.36,4.2,4.2,0,0,0,.45-.8,2.34,2.34,0,0,0,.15-.83,1.34,1.34,0,0,0-.38-1,1.47,1.47,0,0,0-1.06-.37,2.69,2.69,0,0,0-.93.17,3.58,3.58,0,0,0-1,.58l-.47-.61a3.65,3.65,0,0,1,2.36-.9,2.47,2.47,0,0,1,1.73.57,1.91,1.91,0,0,1,.63,1.52,3,3,0,0,1-.42,1.48A9.73,9.73,0,0,1,100,70.26l-1.72,1.68h4Z"/>
    <path d="M108.3,66.8a1.77,1.77,0,0,1-.42,1.23,2.14,2.14,0,0,1-1.2.64h0a2.24,2.24,0,0,1,1.41.61,1.77,1.77,0,0,1,.45,1.26,2,2,0,0,1-.78,1.73,3.54,3.54,0,0,1-2.21.6,7.3,7.3,0,0,1-1.14-.09,3.56,3.56,0,0,1-1-.33V71.6a5.25,5.25,0,0,0,1.09.39,5.7,5.7,0,0,0,1.09.13c1.36,0,2-.53,2-1.6s-.75-1.43-2.25-1.43h-.77v-.77h.78a2.36,2.36,0,0,0,1.46-.4,1.32,1.32,0,0,0,.54-1.13,1.11,1.11,0,0,0-.4-.9,1.66,1.66,0,0,0-1.07-.33,3.36,3.36,0,0,0-1,.14,4.75,4.75,0,0,0-1,.52l-.46-.6a3.67,3.67,0,0,1,1.12-.6,4,4,0,0,1,1.33-.22,2.7,2.7,0,0,1,1.78.53A1.73,1.73,0,0,1,108.3,66.8Z"/>
    <path d="M113.88,72.81H113V64.45h.89Z"/>
    <path d="M115.7,65.32a.59.59,0,0,1,.15-.44.53.53,0,0,1,.74,0,.56.56,0,0,1,.16.44.54.54,0,0,1-.16.45.53.53,0,0,1-.74,0A.62.62,0,0,1,115.7,65.32Zm1,7.49h-.89V66.92h.89Z"/>
    <path d="M122.58,72.81V69a1.56,1.56,0,0,0-.33-1.08,1.31,1.31,0,0,0-1-.35,1.7,1.7,0,0,0-1.35.5,2.48,2.48,0,0,0-.43,1.65v3.09h-.9V66.92h.73l.14.81h0a1.92,1.92,0,0,1,.76-.68,2.52,2.52,0,0,1,1.11-.24,1.86,1.86,0,0,1,2.16,1.52,1.89,1.89,0,0,1,0,.67v3.84Z"/>
    <path d="M127.79,72.91a2.72,2.72,0,0,1-2.06-.79,3.07,3.07,0,0,1-.75-2.21,3.42,3.42,0,0,1,.7-2.26,2.31,2.31,0,0,1,1.88-.84,2.24,2.24,0,0,1,1.75.73,2.8,2.8,0,0,1,.65,1.92V70H125.9a2.28,2.28,0,0,0,.53,1.58,1.8,1.8,0,0,0,1.39.54,4.84,4.84,0,0,0,1.88-.4v.79a4.66,4.66,0,0,1-.89.3A5.87,5.87,0,0,1,127.79,72.91Zm-.24-5.35a1.45,1.45,0,0,0-1.13.46,2.15,2.15,0,0,0-.5,1.28H129a1.93,1.93,0,0,0-.38-1.29A1.32,1.32,0,0,0,127.55,67.56Z"/>
    <path d="M135.27,71.2a1.45,1.45,0,0,1-.61,1.27,2.81,2.81,0,0,1-1.72.44,3.57,3.57,0,0,1-1.82-.37v-.82a5,5,0,0,0,.91.33,3.26,3.26,0,0,0,.93.13,2.31,2.31,0,0,0,1-.18.75.75,0,0,0,.37-.68.72.72,0,0,0-.29-.59,4.26,4.26,0,0,0-1.17-.58,6.38,6.38,0,0,1-1.16-.53,1.61,1.61,0,0,1-.52-.52,1.42,1.42,0,0,1-.17-.7,1.32,1.32,0,0,1,.59-1.13,2.75,2.75,0,0,1,1.6-.42,4.6,4.6,0,0,1,1.86.39l-.32.72a4.44,4.44,0,0,0-1.6-.36,1.82,1.82,0,0,0-1,.2.62.62,0,0,0-.32.55.72.72,0,0,0,.12.4,1.34,1.34,0,0,0,.39.32,8.85,8.85,0,0,0,1,.43,3.71,3.71,0,0,1,1.42.77A1.4,1.4,0,0,1,135.27,71.2Z"/>
    <path d="M143.61,72.81V69a1.56,1.56,0,0,0-.33-1.08,1.35,1.35,0,0,0-1-.35,1.73,1.73,0,0,0-1.36.5,2.57,2.57,0,0,0-.43,1.66v3.08h-.89V64.45h.89V67a4.82,4.82,0,0,1,0,.76h0a1.8,1.8,0,0,1,.75-.67,2.37,2.37,0,0,1,1.11-.25,2.22,2.22,0,0,1,1.62.52A2.14,2.14,0,0,1,144.5,69v3.84Z"/>
    <path d="M150,72.81l-.17-.84h-.05a2.36,2.36,0,0,1-.88.75,2.73,2.73,0,0,1-1.09.19,1.94,1.94,0,0,1-1.37-.45,1.65,1.65,0,0,1-.5-1.28c0-1.19,1-1.81,2.85-1.87h1v-.37a1.55,1.55,0,0,0-.29-1,1.26,1.26,0,0,0-1-.33,3.85,3.85,0,0,0-1.66.45l-.28-.68a4.5,4.5,0,0,1,2-.51,2.25,2.25,0,0,1,1.56.47,2,2,0,0,1,.5,1.5v4Zm-2-.63a1.81,1.81,0,0,0,1.31-.46,1.69,1.69,0,0,0,.47-1.28v-.53h-.89a3.11,3.11,0,0,0-1.53.33,1,1,0,0,0-.47.91.93.93,0,0,0,.29.74,1.23,1.23,0,0,0,.76.29Z"/>
    <path d="M156.46,72h-.05a2.09,2.09,0,0,1-1.85.89,2.14,2.14,0,0,1-1.79-.79,3.45,3.45,0,0,1-.65-2.24,3.51,3.51,0,0,1,.65-2.26,2.38,2.38,0,0,1,3.63.06h.07V64.45h.89v8.36h-.72Zm-1.79.15a1.66,1.66,0,0,0,1.33-.5,2.52,2.52,0,0,0,.41-1.6v-.19a3,3,0,0,0-.42-1.79,1.59,1.59,0,0,0-1.33-.53,1.36,1.36,0,0,0-1.2.61,3.13,3.13,0,0,0-.41,1.72,2.89,2.89,0,0,0,.41,1.7,1.38,1.38,0,0,0,1.21.6Z"/>
    <path d="M165.67,72.81l-.18-.84h0a2.45,2.45,0,0,1-.88.75,2.73,2.73,0,0,1-1.09.19,1.94,1.94,0,0,1-1.37-.45,1.62,1.62,0,0,1-.5-1.28c0-1.19.95-1.81,2.85-1.87h1v-.37a1.5,1.5,0,0,0-.3-1,1.23,1.23,0,0,0-.95-.33,3.93,3.93,0,0,0-1.67.45l-.27-.68a4.37,4.37,0,0,1,2-.51,2.25,2.25,0,0,1,1.56.47,1.92,1.92,0,0,1,.51,1.5v4Zm-2-.63a1.76,1.76,0,0,0,1.31-.46,1.65,1.65,0,0,0,.48-1.28v-.53h-.89a3.17,3.17,0,0,0-1.54.33,1,1,0,0,0-.47.91.91.91,0,0,0,.3.74,1.2,1.2,0,0,0,.79.29Z"/>
    <path d="M172.19,72.81V69a1.55,1.55,0,0,0-.32-1.08,1.35,1.35,0,0,0-1-.35,1.7,1.7,0,0,0-1.35.5,2.48,2.48,0,0,0-.43,1.65v3.09h-.89V66.92h.72l.15.81h0a1.81,1.81,0,0,1,.77-.68,2.45,2.45,0,0,1,1.1-.24,2.17,2.17,0,0,1,1.6.52,2.14,2.14,0,0,1,.54,1.64v3.84Z"/>
    <path d="M177.7,65.32a.59.59,0,0,1,.15-.44.54.54,0,0,1,.38-.15.51.51,0,0,1,.37.15.59.59,0,0,1,.15.44.62.62,0,0,1-.15.45.51.51,0,0,1-.37.15.54.54,0,0,1-.38-.15A.62.62,0,0,1,177.7,65.32Zm1,7.49h-.89V66.92h.89Z"/>
    <path d="M184.59,72.81V69a1.56,1.56,0,0,0-.33-1.08,1.35,1.35,0,0,0-1-.35,1.7,1.7,0,0,0-1.35.5,2.48,2.48,0,0,0-.43,1.65v3.09h-.89V66.92h.72l.15.81h0a1.81,1.81,0,0,1,.77-.68,2.59,2.59,0,0,1,1.1-.24,2.17,2.17,0,0,1,1.6.52,2.14,2.14,0,0,1,.54,1.64v3.84Z"/>
    <path d="M189.66,72.91a2.54,2.54,0,0,1-2-.78,3.27,3.27,0,0,1-.7-2.23,3.36,3.36,0,0,1,.71-2.28,2.56,2.56,0,0,1,2-.81,4,4,0,0,1,.85.09,3.09,3.09,0,0,1,.67.22l-.28.76a4.75,4.75,0,0,0-.64-.2,3.19,3.19,0,0,0-.62-.08c-1.2,0-1.79.76-1.79,2.29a2.74,2.74,0,0,0,.43,1.67,1.55,1.55,0,0,0,1.3.58,4.13,4.13,0,0,0,1.51-.32v.79A3.24,3.24,0,0,1,189.66,72.91Z"/>
    <path d="M195.23,66.81a3.35,3.35,0,0,1,.71.07l-.13.82a3.4,3.4,0,0,0-.64-.08,1.57,1.57,0,0,0-1.22.58,2.08,2.08,0,0,0-.51,1.45v3.16h-.89V66.92h.73l.1,1.09h.05a2.6,2.6,0,0,1,.79-.89A1.82,1.82,0,0,1,195.23,66.81Z"/>
    <path d="M199.52,72.91a2.72,2.72,0,0,1-2.06-.79,3.07,3.07,0,0,1-.75-2.21,3.42,3.42,0,0,1,.7-2.26,2.31,2.31,0,0,1,1.88-.84,2.24,2.24,0,0,1,1.75.73,2.8,2.8,0,0,1,.65,1.92V70h-4.06a2.28,2.28,0,0,0,.53,1.58,1.8,1.8,0,0,0,1.4.54,4.84,4.84,0,0,0,1.88-.4v.79a4.76,4.76,0,0,1-.9.3A5.87,5.87,0,0,1,199.52,72.91Zm-.24-5.35a1.45,1.45,0,0,0-1.13.46,2.15,2.15,0,0,0-.5,1.28h3.08a2,2,0,0,0-.37-1.29A1.34,1.34,0,0,0,199.28,67.56Z"/>
    <path d="M206.83,72.81l-.18-.84h0a2.55,2.55,0,0,1-.88.75,2.73,2.73,0,0,1-1.09.19,2,2,0,0,1-1.38-.45,1.64,1.64,0,0,1-.49-1.28c0-1.19.95-1.81,2.85-1.87h1v-.37a1.5,1.5,0,0,0-.3-1,1.24,1.24,0,0,0-1-.33,3.93,3.93,0,0,0-1.67.45l-.27-.68a4.37,4.37,0,0,1,2-.51,2.25,2.25,0,0,1,1.56.47,1.92,1.92,0,0,1,.51,1.5v4Zm-2-.63a1.81,1.81,0,0,0,1.31-.46,1.65,1.65,0,0,0,.48-1.28v-.53h-.89a3.17,3.17,0,0,0-1.54.33,1,1,0,0,0-.47.91,1,1,0,0,0,.29.74,1.25,1.25,0,0,0,.8.29Z"/>
    <path d="M213.12,71.2a1.45,1.45,0,0,1-.61,1.27,2.81,2.81,0,0,1-1.72.44,3.57,3.57,0,0,1-1.82-.37v-.82a5,5,0,0,0,.91.33,3.26,3.26,0,0,0,.93.13,2.25,2.25,0,0,0,1.08-.22.78.78,0,0,0,.26-1.06.76.76,0,0,0-.19-.21,4.2,4.2,0,0,0-1.16-.58,6.87,6.87,0,0,1-1.17-.53,1.58,1.58,0,0,1-.51-.52,1.42,1.42,0,0,1-.17-.7,1.31,1.31,0,0,1,.58-1.13,2.76,2.76,0,0,1,1.61-.42,4.6,4.6,0,0,1,1.86.39l-.32.72a4.44,4.44,0,0,0-1.6-.36,1.82,1.82,0,0,0-1,.2.62.62,0,0,0-.32.55.72.72,0,0,0,.12.4,1.34,1.34,0,0,0,.39.32,8.85,8.85,0,0,0,1,.43,3.67,3.67,0,0,1,1.41.77A1.37,1.37,0,0,1,213.12,71.2Z"/>
    <path d="M217.06,72.91a2.72,2.72,0,0,1-2.06-.79,3.07,3.07,0,0,1-.75-2.21,3.42,3.42,0,0,1,.7-2.26,2.31,2.31,0,0,1,1.88-.84,2.24,2.24,0,0,1,1.75.73,2.79,2.79,0,0,1,.64,1.92V70h-4.05a2.34,2.34,0,0,0,.52,1.58,1.84,1.84,0,0,0,1.4.54,4.84,4.84,0,0,0,1.88-.4v.79a4.66,4.66,0,0,1-.89.3A5.87,5.87,0,0,1,217.06,72.91Zm-.24-5.35a1.45,1.45,0,0,0-1.13.46,2.15,2.15,0,0,0-.5,1.28h3.08a2,2,0,0,0-.38-1.29,1.32,1.32,0,0,0-1.07-.45Z"/>
    <path d="M226.25,67.61h-1.49v5.2h-.9v-5.2h-1.05v-.4l1.05-.32v-.33c0-1.45.64-2.17,1.9-2.17a3.79,3.79,0,0,1,1.1.19l-.23.71a3,3,0,0,0-.89-.16.85.85,0,0,0-.74.33,1.85,1.85,0,0,0-.24,1.08v.38h1.49Z"/>
    <path d="M230,66.81a3.35,3.35,0,0,1,.71.07l-.13.82a2.74,2.74,0,0,0-.64-.08,1.57,1.57,0,0,0-1.22.58,2.08,2.08,0,0,0-.51,1.45v3.16h-.89V66.92h.73l.11,1.09h0a2.6,2.6,0,0,1,.79-.89A1.87,1.87,0,0,1,230,66.81Z"/>
    <path d="M236.9,69.86a3.27,3.27,0,0,1-.72,2.25,2.87,2.87,0,0,1-3.4.43,2.44,2.44,0,0,1-1-1.06,3.76,3.76,0,0,1-.33-1.62,3.25,3.25,0,0,1,.72-2.24,2.56,2.56,0,0,1,2-.81,2.52,2.52,0,0,1,2,.82A3.18,3.18,0,0,1,236.9,69.86Zm-4.48,0a2.82,2.82,0,0,0,.45,1.72,1.78,1.78,0,0,0,2.51.14l.14-.14a2.76,2.76,0,0,0,.46-1.72,2.72,2.72,0,0,0-.46-1.71,1.83,1.83,0,0,0-2.59-.07.46.46,0,0,0-.07.07A2.8,2.8,0,0,0,232.42,69.86Z"/>
    <path d="M246,72.81V69a1.61,1.61,0,0,0-.3-1.06,1.18,1.18,0,0,0-.94-.35,1.51,1.51,0,0,0-1.23.48,2.27,2.27,0,0,0-.4,1.47v3.29h-.89V69a1.61,1.61,0,0,0-.3-1.06,1.18,1.18,0,0,0-.94-.35,1.47,1.47,0,0,0-1.23.5,2.72,2.72,0,0,0-.39,1.65v3.09h-.89V66.92h.73l.14.81h0a1.72,1.72,0,0,1,.71-.68,2.17,2.17,0,0,1,1-.24,1.75,1.75,0,0,1,1.8,1h0a1.87,1.87,0,0,1,.77-.73,2.26,2.26,0,0,1,1.14-.27,2,2,0,0,1,1.49.52,2.31,2.31,0,0,1,.5,1.64v3.84Z"/>
    <path d="M18.44,86H13.28v-.77l2.07-2.08a16,16,0,0,0,1.24-1.36,3.77,3.77,0,0,0,.46-.8,2.34,2.34,0,0,0,.15-.83,1.3,1.3,0,0,0-.39-1,1.46,1.46,0,0,0-1-.37,2.69,2.69,0,0,0-.93.17,3.58,3.58,0,0,0-1,.58l-.47-.61a3.69,3.69,0,0,1,2.37-.9,2.47,2.47,0,0,1,1.73.57,1.91,1.91,0,0,1,.63,1.52,3,3,0,0,1-.42,1.48,9.56,9.56,0,0,1-1.57,1.85L14.4,85.14h4Z"/>
    <path d="M24.77,82.07a5.77,5.77,0,0,1-.64,3,2.17,2.17,0,0,1-2,1,2.15,2.15,0,0,1-1.93-1,5.69,5.69,0,0,1-.66-3,5.77,5.77,0,0,1,.64-3,2.37,2.37,0,0,1,3.89,0A5.61,5.61,0,0,1,24.77,82.07Zm-4.29,0a5.73,5.73,0,0,0,.41,2.49,1.33,1.33,0,0,0,1.28.79,1.37,1.37,0,0,0,1.29-.8,7.92,7.92,0,0,0,0-5,1.36,1.36,0,0,0-1.29-.79,1.33,1.33,0,0,0-1.28.78A5.62,5.62,0,0,0,20.48,82.07Z"/>
    <path d="M29.16,86h-.87V80.4a11.13,11.13,0,0,1,.05-1.32l-.26.24-1.28,1-.47-.61,2.08-1.61h.75Z"/>
    <path d="M33.14,86l3.26-7H32.12v-.83h5.22v.72L34.13,86Z"/>
    <path d="M43.61,85.38a1.69,1.69,0,0,0,.45,0,1.36,1.36,0,0,0,.35-.07V86a1.62,1.62,0,0,1-.43.12h-.5q-1.71,0-1.71-1.8v-3.5h-.84v-.43l.84-.37.37-1.25h.52v1.36h1.71v.69H42.66v3.47a1.19,1.19,0,0,0,.25.81A.92.92,0,0,0,43.61,85.38Z"/>
    <path d="M50.67,83.06a3.22,3.22,0,0,1-.73,2.25,2.56,2.56,0,0,1-2,.8,2.65,2.65,0,0,1-1.4-.37,2.38,2.38,0,0,1-.95-1.06,3.76,3.76,0,0,1-.33-1.62A3.26,3.26,0,0,1,46,80.82a2.85,2.85,0,0,1,4,0A3.19,3.19,0,0,1,50.67,83.06Zm-4.49,0a2.82,2.82,0,0,0,.45,1.72,1.8,1.8,0,0,0,2.53.13,1.59,1.59,0,0,0,.13-.13,3.49,3.49,0,0,0,0-3.43,1.83,1.83,0,0,0-2.59-.07.46.46,0,0,0-.07.07A2.81,2.81,0,0,0,46.18,83.06Z"/>
    <path d="M59.84,86H54.68v-.77l2.07-2.08A17.68,17.68,0,0,0,58,81.8a3.33,3.33,0,0,0,.46-.8,2.34,2.34,0,0,0,.15-.83,1.3,1.3,0,0,0-.39-1,1.45,1.45,0,0,0-1-.37,2.69,2.69,0,0,0-.93.17,3.58,3.58,0,0,0-1,.58l-.48-.61a3.69,3.69,0,0,1,2.37-.9,2.47,2.47,0,0,1,1.73.57,1.91,1.91,0,0,1,.63,1.52,3,3,0,0,1-.42,1.48,9.56,9.56,0,0,1-1.57,1.85l-1.7,1.68h4Z"/>
    <path d="M66.17,82.07a5.77,5.77,0,0,1-.64,3,2.38,2.38,0,0,1-3.89,0,5.69,5.69,0,0,1-.66-3,5.77,5.77,0,0,1,.64-3,2.37,2.37,0,0,1,3.89,0A5.69,5.69,0,0,1,66.17,82.07Zm-4.29,0a5.73,5.73,0,0,0,.41,2.49,1.33,1.33,0,0,0,1.28.79,1.37,1.37,0,0,0,1.29-.8,7.92,7.92,0,0,0,0-5,1.36,1.36,0,0,0-1.29-.79,1.33,1.33,0,0,0-1.28.78A5.62,5.62,0,0,0,61.88,82.07Z"/>
    <path d="M70.56,86h-.87V79.08l-.26.24-1.27,1-.48-.61,2.08-1.61h.75Z"/>
    <path d="M76.15,78a2.64,2.64,0,0,1,1.7.5,1.87,1.87,0,0,1,.27,2.5,3.08,3.08,0,0,1-1.15.87,3.85,3.85,0,0,1,1.36,1,1.76,1.76,0,0,1,.4,1.16,2,2,0,0,1-.68,1.56,2.8,2.8,0,0,1-1.87.58,3,3,0,0,1-1.93-.55A1.86,1.86,0,0,1,73.57,84a2.34,2.34,0,0,1,1.64-2.1,3.07,3.07,0,0,1-1.06-.9,2,2,0,0,1-.32-1.09,1.67,1.67,0,0,1,.63-1.36A2.58,2.58,0,0,1,76.15,78Zm-1.7,6a1.2,1.2,0,0,0,.45,1,2,2,0,0,0,1.26.36A1.91,1.91,0,0,0,77.41,85a1.28,1.28,0,0,0,.44-1,1.24,1.24,0,0,0-.42-.92A4.14,4.14,0,0,0,76,82.27a3.2,3.2,0,0,0-1.16.76A1.5,1.5,0,0,0,74.45,84Zm1.69-5.25a1.57,1.57,0,0,0-1,.32,1.06,1.06,0,0,0-.39.86,1.27,1.27,0,0,0,.32.85,3.6,3.6,0,0,0,1.17.71,3,3,0,0,0,1.09-.7A1.26,1.26,0,0,0,77.6,80a1.06,1.06,0,0,0-.39-.86,1.6,1.6,0,0,0-1.07-.37Z"/>
    <path d="M81.18,84.73l.08.12c-.09.36-.23.78-.4,1.25s-.36.92-.55,1.32h-.67c.1-.37.2-.83.32-1.38s.2-1,.24-1.31Z"/>
    <path d="M87.7,85.38a1.77,1.77,0,0,0,.46,0,2,2,0,0,0,.35-.07V86a1.62,1.62,0,0,1-.43.12h-.51c-1.14,0-1.7-.6-1.7-1.8v-3.5H85v-.43l.85-.37.37-1.25h.52v1.36h1.7v.69h-1.7v3.47a1.19,1.19,0,0,0,.25.81A.86.86,0,0,0,87.7,85.38Z"/>
    <path d="M93.71,86V82.2a1.56,1.56,0,0,0-.33-1.08,1.31,1.31,0,0,0-1-.35,1.73,1.73,0,0,0-1.36.5,2.64,2.64,0,0,0-.42,1.66V86h-.9V77.65h.9v2.53a4.82,4.82,0,0,1,0,.76h.06a1.74,1.74,0,0,1,.75-.67,2.33,2.33,0,0,1,1.1-.25,2.22,2.22,0,0,1,1.62.52,2.16,2.16,0,0,1,.54,1.63V86Z"/>
    <path d="M101.52,83.06a3.23,3.23,0,0,1-.73,2.25,2.87,2.87,0,0,1-3.4.43,2.38,2.38,0,0,1-1-1.06,3.76,3.76,0,0,1-.33-1.62,3.25,3.25,0,0,1,.72-2.24,2.81,2.81,0,0,1,4,0l0,0A3.26,3.26,0,0,1,101.52,83.06Zm-4.49,0a2.82,2.82,0,0,0,.45,1.72,1.8,1.8,0,0,0,2.53.13l.13-.13a3.49,3.49,0,0,0,0-3.43,1.83,1.83,0,0,0-2.66,0A2.83,2.83,0,0,0,97,83.06Z"/>
    <path d="M103.92,80.12v3.82a1.52,1.52,0,0,0,.33,1.07,1.29,1.29,0,0,0,1,.36,1.64,1.64,0,0,0,1.35-.51,2.48,2.48,0,0,0,.43-1.65V80.12h.89V86h-.74l-.12-.79h0a1.8,1.8,0,0,1-.76.66,2.51,2.51,0,0,1-1.11.23,2.24,2.24,0,0,1-1.61-.51A2.17,2.17,0,0,1,103,84V80.12Z"/>
    <path d="M114.65,80.12v.56l-1.09.13a2.12,2.12,0,0,1,.27.49,1.89,1.89,0,0,1,.17.7,1.72,1.72,0,0,1-.6,1.38,2.37,2.37,0,0,1-1.62.52,2,2,0,0,1-.49,0,.89.89,0,0,0-.57.76.4.4,0,0,0,.2.36,1.6,1.6,0,0,0,.68.11h1a2.33,2.33,0,0,1,1.47.41,1.38,1.38,0,0,1,.51,1.17,1.66,1.66,0,0,1-.78,1.49,4.24,4.24,0,0,1-2.29.51,3.1,3.1,0,0,1-1.78-.43A1.39,1.39,0,0,1,109.1,87a1.34,1.34,0,0,1,.34-.93,1.86,1.86,0,0,1,1-.54.82.82,0,0,1-.38-.31.81.81,0,0,1-.16-.5,1,1,0,0,1,.18-.57,1.7,1.7,0,0,1,.54-.46,1.67,1.67,0,0,1-.75-.64,2.13,2.13,0,0,1,.3-2.52,2.33,2.33,0,0,1,1.64-.53,2.91,2.91,0,0,1,.83.11ZM110,87a.8.8,0,0,0,.41.72,2.28,2.28,0,0,0,1.15.25,3.19,3.19,0,0,0,1.66-.34,1,1,0,0,0,.54-.91.71.71,0,0,0-.29-.66,2.23,2.23,0,0,0-1.11-.19h-1.07a1.41,1.41,0,0,0-1,.29A1.07,1.07,0,0,0,110,87Zm.49-5a1.15,1.15,0,0,0,.35.93,1.4,1.4,0,0,0,1,.32,1.15,1.15,0,0,0,1.3-1,1.61,1.61,0,0,0,0-.31,1.18,1.18,0,0,0-1-1.33.92.92,0,0,0-.33,0,1.31,1.31,0,0,0-1,.34,1.36,1.36,0,0,0-.38,1Z"/>
    <path d="M119.89,86V82.2a1.56,1.56,0,0,0-.33-1.08,1.35,1.35,0,0,0-1-.35,1.7,1.7,0,0,0-1.35.5,2.57,2.57,0,0,0-.43,1.66V86h-.89V77.65h.89v2.53c0,.25,0,.51,0,.76h0a1.8,1.8,0,0,1,.75-.67,2.37,2.37,0,0,1,1.11-.25,2.22,2.22,0,0,1,1.62.52,2.16,2.16,0,0,1,.54,1.63V86Z"/>
    <path d="M128.12,80.81h-1.5V86h-.89V80.8h-1v-.4l1-.32v-.33c0-1.45.63-2.17,1.9-2.17a3.67,3.67,0,0,1,1.09.19l-.23.71a2.91,2.91,0,0,0-.88-.16.87.87,0,0,0-.75.33,1.85,1.85,0,0,0-.24,1.08v.38h1.5Z"/>
    <path d="M134.27,83.06a3.27,3.27,0,0,1-.72,2.25,2.56,2.56,0,0,1-2,.8,2.68,2.68,0,0,1-1.41-.37,2.42,2.42,0,0,1-.94-1.06,3.76,3.76,0,0,1-.33-1.62,3.25,3.25,0,0,1,.72-2.24,2.81,2.81,0,0,1,4,0l0,0A3.23,3.23,0,0,1,134.27,83.06Zm-4.48,0a2.82,2.82,0,0,0,.45,1.72,1.79,1.79,0,0,0,2.66,0,3.49,3.49,0,0,0,0-3.43,1.61,1.61,0,0,0-1.34-.58,1.55,1.55,0,0,0-1.32.57,2.82,2.82,0,0,0-.45,1.72Z"/>
    <path d="M138.52,80a3.35,3.35,0,0,1,.71.07l-.13.82a2.74,2.74,0,0,0-.64-.08,1.57,1.57,0,0,0-1.22.58,2.08,2.08,0,0,0-.51,1.45V86h-.89V80.12h.73l.11,1.09h0a2.6,2.6,0,0,1,.79-.89A1.88,1.88,0,0,1,138.52,80Z"/>
    <path d="M146.81,86l-.18-.84h0a2.55,2.55,0,0,1-.88.75,2.74,2.74,0,0,1-1.1.19,1.94,1.94,0,0,1-1.37-.45,1.64,1.64,0,0,1-.49-1.28c0-1.19,1-1.81,2.85-1.87h1v-.37a1.5,1.5,0,0,0-.3-1,1.26,1.26,0,0,0-1-.33,3.85,3.85,0,0,0-1.66.45l-.27-.68a4,4,0,0,1,1-.37,3.77,3.77,0,0,1,1-.14,2.25,2.25,0,0,1,1.56.47,1.92,1.92,0,0,1,.51,1.5v4Zm-2-.63a1.81,1.81,0,0,0,1.31-.46,1.69,1.69,0,0,0,.47-1.28V83.1h-.89a3.11,3.11,0,0,0-1.53.33,1,1,0,0,0-.47.91,1,1,0,0,0,.29.74,1.24,1.24,0,0,0,.8.3Z"/>
    <path d="M150.19,86h-.89V77.65h.89Z"/>
    <path d="M153,86h-.89V77.65H153Z"/>
    <path d="M157.65,78.52a.59.59,0,0,1,.15-.44.54.54,0,0,1,.38-.15.51.51,0,0,1,.37.15.74.74,0,0,1,0,.89.51.51,0,0,1-.37.15.54.54,0,0,1-.38-.15A.58.58,0,0,1,157.65,78.52Zm1,7.49h-.89V80.12h.89Z"/>
    <path d="M162.41,85.38a1.77,1.77,0,0,0,.46,0,1.86,1.86,0,0,0,.34-.07V86a1.45,1.45,0,0,1-.42.12h-.51q-1.71,0-1.71-1.8v-3.5h-.84v-.43l.84-.37.38-1.25h.51v1.36h1.71v.69h-1.71v3.47a1.19,1.19,0,0,0,.26.81A.9.9,0,0,0,162.41,85.38Z"/>
    <path d="M172.06,86,171,82.55q-.1-.31-.39-1.44h0c-.14.63-.27,1.11-.37,1.45L169.06,86h-1l-1.6-5.89h.93l.87,3.38a13.52,13.52,0,0,1,.34,1.56h0a4.37,4.37,0,0,1,.19-.79c.08-.32.17-.58.23-.77l1.08-3.38h1l1,3.38a11.79,11.79,0,0,1,.41,1.55h0q0-.3.12-.6c.06-.26.43-1.71,1.12-4.33h.92L173.11,86Z"/>
    <path d="M179.42,86l-.17-.84h-.05a2.42,2.42,0,0,1-.87.75,2.74,2.74,0,0,1-1.1.19,1.94,1.94,0,0,1-1.37-.45,1.65,1.65,0,0,1-.5-1.28c0-1.19.95-1.81,2.86-1.87h1v-.37a1.49,1.49,0,0,0-.29-1,1.26,1.26,0,0,0-1-.33,3.85,3.85,0,0,0-1.66.45l-.28-.68a4.5,4.5,0,0,1,2-.51,2.25,2.25,0,0,1,1.56.47,2,2,0,0,1,.5,1.5v4Zm-2-.63a1.81,1.81,0,0,0,1.31-.46,1.69,1.69,0,0,0,.47-1.28V83.1h-.89a3.11,3.11,0,0,0-1.53.33,1,1,0,0,0-.47.91,1,1,0,0,0,.29.74,1.27,1.27,0,0,0,.81.3Z"/>
    <path d="M185.72,84.4a1.45,1.45,0,0,1-.61,1.27,2.81,2.81,0,0,1-1.72.44,3.74,3.74,0,0,1-1.83-.37v-.82a5,5,0,0,0,.91.33,3.33,3.33,0,0,0,.94.13,2.19,2.19,0,0,0,1.07-.22.76.76,0,0,0,.38-.68.73.73,0,0,0-.3-.59,4.67,4.67,0,0,0-1.16-.58,6.17,6.17,0,0,1-1.17-.53,1.84,1.84,0,0,1-.52-.52,1.44,1.44,0,0,1-.16-.7,1.31,1.31,0,0,1,.58-1.13,2.76,2.76,0,0,1,1.61-.42,4.6,4.6,0,0,1,1.86.39l-.32.72a4.49,4.49,0,0,0-1.61-.36,1.83,1.83,0,0,0-.95.2.58.58,0,0,0-.33.55.64.64,0,0,0,.13.4,1.18,1.18,0,0,0,.38.32,8.85,8.85,0,0,0,1,.43,4,4,0,0,1,1.41.77A1.35,1.35,0,0,1,185.72,84.4Z"/>
    <path d="M190.92,86H190V77.65h.89Z"/>
    <path d="M195.3,86.11a2.72,2.72,0,0,1-2.06-.79,3,3,0,0,1-.76-2.21,3.47,3.47,0,0,1,.7-2.26,2.31,2.31,0,0,1,1.88-.84,2.25,2.25,0,0,1,1.76.73,2.79,2.79,0,0,1,.64,1.92v.56h-4.05a2.32,2.32,0,0,0,.52,1.58,1.84,1.84,0,0,0,1.4.54,4.84,4.84,0,0,0,1.88-.4v.79a4.76,4.76,0,0,1-.9.3A5.66,5.66,0,0,1,195.3,86.11Zm-.25-5.35a1.45,1.45,0,0,0-1.13.46,2.14,2.14,0,0,0-.49,1.28h3.07a2,2,0,0,0-.37-1.29A1.34,1.34,0,0,0,195.05,80.76Z"/>
    <path d="M202.78,84.4a1.51,1.51,0,0,1-.61,1.27,2.88,2.88,0,0,1-1.72.44,3.74,3.74,0,0,1-1.83-.37v-.82a5,5,0,0,0,.91.33,3.33,3.33,0,0,0,.94.13,2.19,2.19,0,0,0,1.07-.22.76.76,0,0,0,.38-.68.73.73,0,0,0-.3-.59,5,5,0,0,0-1.16-.58,6.17,6.17,0,0,1-1.17-.53,1.84,1.84,0,0,1-.52-.52,1.42,1.42,0,0,1-.17-.7,1.32,1.32,0,0,1,.59-1.13A2.7,2.7,0,0,1,200.8,80a4.52,4.52,0,0,1,1.85.39l-.31.72a4.49,4.49,0,0,0-1.61-.36,1.83,1.83,0,0,0-.95.2.58.58,0,0,0-.33.55.72.72,0,0,0,.12.4,1.34,1.34,0,0,0,.39.32,9.71,9.71,0,0,0,1,.43,4.09,4.09,0,0,1,1.42.77A1.34,1.34,0,0,1,202.78,84.4Z"/>
    <path d="M208,84.4a1.48,1.48,0,0,1-.62,1.27,2.81,2.81,0,0,1-1.72.44,3.7,3.7,0,0,1-1.82-.37v-.82a5,5,0,0,0,.91.33,3.33,3.33,0,0,0,.94.13,2.19,2.19,0,0,0,1.07-.22.76.76,0,0,0,.38-.68.73.73,0,0,0-.3-.59,5,5,0,0,0-1.16-.58,6.17,6.17,0,0,1-1.17-.53,1.61,1.61,0,0,1-.52-.52,1.42,1.42,0,0,1-.17-.7,1.32,1.32,0,0,1,.59-1.13A2.64,2.64,0,0,1,206,80a4.6,4.6,0,0,1,1.86.39l-.32.72a4.44,4.44,0,0,0-1.6-.36,1.82,1.82,0,0,0-1,.2.62.62,0,0,0-.32.55.72.72,0,0,0,.12.4,1.34,1.34,0,0,0,.39.32,8.85,8.85,0,0,0,1,.43,4.09,4.09,0,0,1,1.42.77A1.37,1.37,0,0,1,208,84.4Z"/>
    <path d="M214.23,85.38a1.77,1.77,0,0,0,.46,0,2,2,0,0,0,.35-.07V86a1.62,1.62,0,0,1-.43.12h-.5q-1.71,0-1.71-1.8v-3.5h-.85v-.43l.85-.37.37-1.25h.52v1.36H215v.69h-1.71v3.47a1.19,1.19,0,0,0,.25.81A.9.9,0,0,0,214.23,85.38Z"/>
    <path d="M220.24,86V82.2a1.55,1.55,0,0,0-.32-1.08,1.35,1.35,0,0,0-1-.35,1.73,1.73,0,0,0-1.36.5,2.64,2.64,0,0,0-.42,1.66V86h-.89V77.65h.89v2.53a4.85,4.85,0,0,1,0,.76h.06a1.74,1.74,0,0,1,.75-.67A2.35,2.35,0,0,1,219,80a2.22,2.22,0,0,1,1.62.52,2.16,2.16,0,0,1,.54,1.63V86Z"/>
    <path d="M226.59,86l-.18-.84h0a2.55,2.55,0,0,1-.88.75,2.73,2.73,0,0,1-1.09.19,2,2,0,0,1-1.38-.45,1.64,1.64,0,0,1-.49-1.28c0-1.19,1-1.81,2.85-1.87h1v-.37a1.5,1.5,0,0,0-.3-1,1.23,1.23,0,0,0-1-.33,3.93,3.93,0,0,0-1.67.45l-.27-.68a4.37,4.37,0,0,1,2-.51,2.25,2.25,0,0,1,1.56.47,1.92,1.92,0,0,1,.51,1.5v4Zm-2-.63a1.81,1.81,0,0,0,1.31-.46,1.65,1.65,0,0,0,.48-1.28V83.1h-.89a3.17,3.17,0,0,0-1.54.33,1,1,0,0,0-.47.91,1,1,0,0,0,.29.74,1.24,1.24,0,0,0,.8.3Z"/>
    <path d="M233.11,86V82.2a1.61,1.61,0,0,0-.32-1.08,1.35,1.35,0,0,0-1-.35,1.7,1.7,0,0,0-1.35.5,2.48,2.48,0,0,0-.43,1.65V86h-.89V80.12h.72l.15.81h0a1.81,1.81,0,0,1,.77-.68,2.45,2.45,0,0,1,1.1-.24,2.17,2.17,0,0,1,1.6.52,2.14,2.14,0,0,1,.54,1.64V86Z"/>
    <path d="M241.59,86h-.87V79.08l-.25.24-1.28,1-.47-.61,2.08-1.61h.75Z"/>
    <path d="M247.8,80.5a3.42,3.42,0,0,1-.41,1.85,1.4,1.4,0,0,1-1.21.62,1.33,1.33,0,0,1-1.17-.64,3.42,3.42,0,0,1-.41-1.83,3.36,3.36,0,0,1,.4-1.84,1.31,1.31,0,0,1,1.18-.62,1.32,1.32,0,0,1,1.2.64A3.31,3.31,0,0,1,247.8,80.5Zm-2.46,0a3.36,3.36,0,0,0,.2,1.37.66.66,0,0,0,.64.45c.59,0,.88-.61.88-1.82s-.29-1.82-.88-1.82a.66.66,0,0,0-.64.45A3.36,3.36,0,0,0,245.34,80.5Zm5.8-2.35L246.79,86H246l4.35-7.86Zm1.39,5.49a3.42,3.42,0,0,1-.41,1.85,1.33,1.33,0,0,1-1.21.62,1.31,1.31,0,0,1-1.17-.63,3.46,3.46,0,0,1-.41-1.84,3.41,3.41,0,0,1,.4-1.83,1.33,1.33,0,0,1,1.18-.62,1.34,1.34,0,0,1,1.19.63A3.21,3.21,0,0,1,252.53,83.64Zm-2.47,0a3.79,3.79,0,0,0,.2,1.38.71.71,0,0,0,1.32,0,3.41,3.41,0,0,0,.21-1.38,3.49,3.49,0,0,0-.21-1.36.71.71,0,0,0-.67-.44.67.67,0,0,0-.65.44A3.71,3.71,0,0,0,250.06,83.64Z"/>
    <path d="M253.91,85.44a.89.89,0,0,1,.16-.55.62.62,0,0,1,.47-.18.68.68,0,0,1,.49.18.78.78,0,0,1,.18.55A.73.73,0,0,1,255,86a.65.65,0,0,1-.49.19.58.58,0,0,1-.45-.17A.71.71,0,0,1,253.91,85.44Z"/>
  </g>
  <g>
    <path class="cls-4" d="M39.56,109.21a14.83,14.83,0,0,1,1.12-2.86l.67-.07a18.3,18.3,0,0,0-.71,2.81Z"/>
    <path class="cls-4" d="M44.46,107.69h0l-1.35.73-.21-.81,1.7-.91h.9v7.8h-1Z"/>
    <path class="cls-4" d="M51.58,114.5v-2.12H48v-.7l3.48-5h1.14v4.85h1.09v.83H52.58v2.12Zm0-3V109c0-.41,0-.82,0-1.23h0c-.24.46-.43.79-.65,1.15L49,111.52v0Z"/>
  </g>
  <g>
    <path class="cls-4" d="M76,109.21a14.83,14.83,0,0,1,1.12-2.86l.67-.07a18.3,18.3,0,0,0-.71,2.81Z"/>
    <path class="cls-4" d="M80.85,107.69h0l-1.35.73-.21-.81,1.7-.91h.9v7.8h-1Z"/>
    <path class="cls-4" d="M89.36,107.59h-3l-.3,2a5,5,0,0,1,.64,0,3.36,3.36,0,0,1,1.67.41,2.22,2.22,0,0,1,1.12,2,2.7,2.7,0,0,1-2.9,2.66,3.87,3.87,0,0,1-2-.48l.27-.8a3.5,3.5,0,0,0,1.66.43,1.72,1.72,0,0,0,1.85-1.69c0-1-.68-1.73-2.24-1.73a9.44,9.44,0,0,0-1.08.08l.5-3.74h3.73Z"/>
  </g>
  <g>
    <path class="cls-4" d="M185.13,109.21a14.83,14.83,0,0,1,1.12-2.86l.67-.07a18.3,18.3,0,0,0-.71,2.81Z"/>
    <path class="cls-4" d="M190,107.69h0l-1.35.73-.21-.81,1.7-.91h.9v7.8h-1Z"/>
    <path class="cls-4" d="M193.79,112.52a2.24,2.24,0,0,1,1.55-2.09v0a1.94,1.94,0,0,1-1.24-1.75,2.19,2.19,0,0,1,2.41-2.08,2,2,0,0,1,2.27,1.92,2,2,0,0,1-1.28,1.82v0a2.16,2.16,0,0,1,1.57,2,2.4,2.4,0,0,1-2.65,2.27C194.78,114.63,193.79,113.66,193.79,112.52Zm4.2,0c0-1-.66-1.4-1.71-1.7a1.69,1.69,0,0,0-1.41,1.61,1.44,1.44,0,0,0,1.56,1.48A1.41,1.41,0,0,0,198,112.47Zm-2.9-3.9c0,.78.59,1.2,1.49,1.44a1.52,1.52,0,0,0,1.18-1.41,1.21,1.21,0,0,0-1.32-1.27A1.23,1.23,0,0,0,195.09,108.57Z"/>
  </g>
  <g>
    <path class="cls-4" d="M112.34,109.21a14.83,14.83,0,0,1,1.12-2.86l.67-.07a18.3,18.3,0,0,0-.71,2.81Z"/>
    <path class="cls-4" d="M117.24,107.69h0l-1.35.73-.21-.81,1.7-.91h.9v7.8h-1Z"/>
    <path class="cls-4" d="M125.55,107.45a3.72,3.72,0,0,0-.79,0,3.17,3.17,0,0,0-2.71,2.77h0a2.34,2.34,0,0,1,1.89-.89,2.31,2.31,0,0,1,2.35,2.51,2.61,2.61,0,0,1-2.59,2.75c-1.67,0-2.76-1.3-2.76-3.32a4.9,4.9,0,0,1,1.32-3.52,4.28,4.28,0,0,1,2.49-1.15,4.84,4.84,0,0,1,.77-.06Zm-.3,4.49a1.58,1.58,0,0,0-1.61-1.78,1.73,1.73,0,0,0-1.51,1,.89.89,0,0,0-.12.46c0,1.29.61,2.23,1.72,2.23C124.64,113.81,125.25,113.06,125.25,111.94Z"/>
  </g>
  <g>
    <path class="cls-4" d="M148.74,109.21a14.83,14.83,0,0,1,1.12-2.86l.67-.07a18.3,18.3,0,0,0-.71,2.81Z"/>
    <path class="cls-4" d="M153.64,107.69h0l-1.35.73-.21-.81,1.7-.91h.9v7.8h-1Z"/>
    <path class="cls-4" d="M162.56,106.7v.7l-3.39,7.1h-1.09l3.38-6.9v0h-3.82v-.88Z"/>
  </g>
</svg>
