<svg id="Layer_1" data-name="Layer 1" xmlns="http://www.w3.org/2000/svg" viewBox="0 0 423.23 285.49">
  <defs>
    <style>
      .cls-1 {
        fill: #e5e5e5;
      }

      .cls-2 {
        fill: #555;
      }

      .cls-10, .cls-12, .cls-3, .cls-4, .cls-6, .cls-7, .cls-9 {
        fill: none;
      }

      .cls-3 {
        stroke: #fff;
        stroke-width: 0.8px;
      }

      .cls-3, .cls-4 {
        stroke-linecap: square;
      }

      .cls-10, .cls-3, .cls-4, .cls-6, .cls-9 {
        stroke-linejoin: round;
      }

      .cls-4 {
        stroke: #bababa;
      }

      .cls-10, .cls-4 {
        stroke-width: 1.5px;
      }

      .cls-5 {
        fill: #5580b6;
      }

      .cls-6 {
        stroke: #5580b6;
      }

      .cls-6, .cls-9 {
        stroke-width: 0.5px;
      }

      .cls-8 {
        fill: #f07b7b;
      }

      .cls-9 {
        stroke: #f07b7b;
      }

      .cls-10 {
        stroke: gray;
      }

      .cls-11 {
        fill: #f4d678;
      }

      .cls-12 {
        stroke: #555;
        stroke-miterlimit: 10;
        stroke-width: 0.25px;
      }
    </style>
  </defs>
  <title>borough_ridership</title>
  <rect class="cls-1" y="26.23" width="423.23" height="259.26"/>
  <g>
    <path class="cls-2" d="M51.46,109.63,49,103.3h0c0,.5.07,1.1.07,1.79v4.54H48.3v-7.14h1.25l2.26,5.89h0l2.28-5.89h1.24v7.14h-.83V105c0-.53,0-1.1.07-1.72h0l-2.44,6.32Z"/>
    <path class="cls-2" d="M60.5,109.63l-.16-.76h0a2.31,2.31,0,0,1-.8.68,2.37,2.37,0,0,1-1,.18,1.81,1.81,0,0,1-1.25-.41,1.52,1.52,0,0,1-.45-1.17c0-1.08.86-1.65,2.59-1.7l.91,0v-.33a1.36,1.36,0,0,0-.27-.93,1.12,1.12,0,0,0-.87-.3,3.44,3.44,0,0,0-1.51.41l-.25-.62a3.84,3.84,0,0,1,1.81-.46,2.06,2.06,0,0,1,1.42.42A1.79,1.79,0,0,1,61.1,106v3.65Zm-1.83-.57a1.65,1.65,0,0,0,1.19-.42,1.51,1.51,0,0,0,.43-1.16V107l-.81,0a2.87,2.87,0,0,0-1.39.3.9.9,0,0,0-.43.83.87.87,0,0,0,.26.67A1.14,1.14,0,0,0,58.67,109.06Z"/>
    <path class="cls-2" d="M66.43,109.63v-3.46a1.43,1.43,0,0,0-.29-1,1.24,1.24,0,0,0-.94-.32,1.54,1.54,0,0,0-1.23.45,2.29,2.29,0,0,0-.39,1.5v2.81h-.81v-5.35h.66l.13.73h0a1.67,1.67,0,0,1,.7-.61,2.19,2.19,0,0,1,1-.22,2,2,0,0,1,1.46.47,2,2,0,0,1,.48,1.49v3.49Z"/>
    <path class="cls-2" d="M72.57,109.63v-3.46a1.39,1.39,0,0,0-.3-1,1.23,1.23,0,0,0-.93-.32,1.52,1.52,0,0,0-1.23.46,2.29,2.29,0,0,0-.39,1.5v2.8h-.81V102h.81v2.3a4.41,4.41,0,0,1,0,.69h0a1.68,1.68,0,0,1,.68-.61,2.18,2.18,0,0,1,1-.22,2,2,0,0,1,1.47.47,1.94,1.94,0,0,1,.49,1.48v3.49Z"/>
    <path class="cls-2" d="M78.34,109.63l-.16-.76h0a2.4,2.4,0,0,1-.8.68,2.43,2.43,0,0,1-1,.18,1.79,1.79,0,0,1-1.25-.41,1.52,1.52,0,0,1-.45-1.17c0-1.08.86-1.65,2.59-1.7l.91,0v-.33a1.36,1.36,0,0,0-.27-.93,1.12,1.12,0,0,0-.87-.3,3.4,3.4,0,0,0-1.51.41l-.25-.62a3.76,3.76,0,0,1,1.81-.46,2.06,2.06,0,0,1,1.42.42,1.82,1.82,0,0,1,.46,1.37v3.65Zm-1.83-.57a1.65,1.65,0,0,0,1.19-.42,1.55,1.55,0,0,0,.43-1.16V107l-.81,0a2.91,2.91,0,0,0-1.4.3.91.91,0,0,0-.42.83.84.84,0,0,0,.26.67A1.14,1.14,0,0,0,76.51,109.06Z"/>
    <path class="cls-2" d="M82.34,109.06a2.73,2.73,0,0,0,.41,0l.32-.07v.62a1.36,1.36,0,0,1-.39.1,2.68,2.68,0,0,1-.46,0c-1,0-1.55-.55-1.55-1.64v-3.18H79.9v-.39l.77-.34L81,103h.47v1.24H83v.63H81.48v3.15a1,1,0,0,0,.23.74A.8.8,0,0,0,82.34,109.06Z"/>
    <path class="cls-2" d="M85.87,109.06a2.73,2.73,0,0,0,.41,0l.32-.07v.62a1.36,1.36,0,0,1-.39.1,2.68,2.68,0,0,1-.46,0c-1,0-1.55-.55-1.55-1.64v-3.18h-.77v-.39l.77-.34.34-1.14H85v1.24h1.55v.63H85v3.15a1,1,0,0,0,.23.74A.8.8,0,0,0,85.87,109.06Z"/>
    <path class="cls-2" d="M91,109.63l-.16-.76h0a2.31,2.31,0,0,1-.8.68,2.4,2.4,0,0,1-1,.18,1.81,1.81,0,0,1-1.25-.41,1.52,1.52,0,0,1-.45-1.17c0-1.08.86-1.65,2.59-1.7l.91,0v-.33a1.36,1.36,0,0,0-.27-.93,1.12,1.12,0,0,0-.87-.3,3.44,3.44,0,0,0-1.51.41l-.25-.62a3.84,3.84,0,0,1,1.81-.46,2.06,2.06,0,0,1,1.42.42,1.79,1.79,0,0,1,.46,1.37v3.65Zm-1.83-.57a1.65,1.65,0,0,0,1.19-.42,1.51,1.51,0,0,0,.43-1.16V107l-.81,0a2.91,2.91,0,0,0-1.4.3.91.91,0,0,0-.42.83.87.87,0,0,0,.26.67A1.14,1.14,0,0,0,89.13,109.06Z"/>
    <path class="cls-2" d="M96.89,109.63v-3.46a1.39,1.39,0,0,0-.3-1,1.22,1.22,0,0,0-.93-.32,1.54,1.54,0,0,0-1.23.45,2.29,2.29,0,0,0-.39,1.5v2.81h-.81v-5.35h.66L94,105h0a1.67,1.67,0,0,1,.7-.61,2.19,2.19,0,0,1,1-.22,2,2,0,0,1,1.45.47,2,2,0,0,1,.49,1.49v3.49Z"/>
  </g>
  <g>
    <path class="cls-2" d="M150.86,102.49h2a3.83,3.83,0,0,1,2.05.42,1.53,1.53,0,0,1,.64,1.35,1.51,1.51,0,0,1-.36,1,1.66,1.66,0,0,1-1,.54v0c1.08.18,1.63.75,1.63,1.71a1.83,1.83,0,0,1-.65,1.49,2.75,2.75,0,0,1-1.81.54h-2.49Zm.83,3.06h1.37a2.26,2.26,0,0,0,1.26-.28,1.05,1.05,0,0,0,.39-.93,1,1,0,0,0-.43-.87,2.78,2.78,0,0,0-1.37-.26h-1.22Zm0,.7v2.67h1.49a2.15,2.15,0,0,0,1.3-.33,1.26,1.26,0,0,0,.44-1,1.12,1.12,0,0,0-.45-1,2.38,2.38,0,0,0-1.36-.31Z"/>
    <path class="cls-2" d="M159.66,104.18a3.1,3.1,0,0,1,.64.06l-.11.75a2.75,2.75,0,0,0-.59-.07,1.43,1.43,0,0,0-1.11.52,1.93,1.93,0,0,0-.46,1.32v2.87h-.81v-5.35h.67l.09,1h0a2.38,2.38,0,0,1,.72-.81A1.58,1.58,0,0,1,159.66,104.18Z"/>
    <path class="cls-2" d="M165.92,107a2.94,2.94,0,0,1-.66,2,2.33,2.33,0,0,1-1.82.74,2.47,2.47,0,0,1-1.28-.34,2.32,2.32,0,0,1-.86-1A3.38,3.38,0,0,1,161,107a2.94,2.94,0,0,1,.66-2,2.56,2.56,0,0,1,3.6,0A2.93,2.93,0,0,1,165.92,107Zm-4.08,0a2.57,2.57,0,0,0,.41,1.56,1.63,1.63,0,0,0,2.42,0,2.55,2.55,0,0,0,.41-1.56,2.51,2.51,0,0,0-.41-1.55,1.45,1.45,0,0,0-1.22-.53,1.42,1.42,0,0,0-1.2.52A2.53,2.53,0,0,0,161.84,107Z"/>
    <path class="cls-2" d="M172,107a2.94,2.94,0,0,1-.66,2,2.33,2.33,0,0,1-1.82.74,2.47,2.47,0,0,1-1.28-.34,2.32,2.32,0,0,1-.86-1A3.38,3.38,0,0,1,167,107a2.94,2.94,0,0,1,.66-2,2.56,2.56,0,0,1,3.6,0A2.93,2.93,0,0,1,172,107Zm-4.08,0a2.57,2.57,0,0,0,.41,1.56,1.63,1.63,0,0,0,2.42,0,2.55,2.55,0,0,0,.41-1.56,2.51,2.51,0,0,0-.41-1.55,1.45,1.45,0,0,0-1.22-.53,1.42,1.42,0,0,0-1.2.52A2.53,2.53,0,0,0,167.88,107Z"/>
    <path class="cls-2" d="M174.18,106.89a8.36,8.36,0,0,1,.64-.78l1.73-1.83h1l-2.17,2.28,2.32,3.07h-1l-1.89-2.53-.61.53v2h-.8V102h.8v4c0,.18,0,.45,0,.83Z"/>
    <path class="cls-2" d="M179.44,109.63h-.81V102h.81Z"/>
    <path class="cls-2" d="M180.31,104.28h.87l1.17,3a11.08,11.08,0,0,1,.48,1.51h0c0-.17.13-.45.26-.85s.58-1.64,1.33-3.71h.87l-2.3,6.09a3.1,3.1,0,0,1-.8,1.28,1.73,1.73,0,0,1-1.12.38,3.55,3.55,0,0,1-.73-.08v-.65a2.77,2.77,0,0,0,.6.06,1.25,1.25,0,0,0,1.19-.94l.3-.76Z"/>
    <path class="cls-2" d="M189.86,109.63v-3.46a1.39,1.39,0,0,0-.3-1,1.23,1.23,0,0,0-.93-.32,1.54,1.54,0,0,0-1.23.45,2.29,2.29,0,0,0-.39,1.5v2.81h-.81v-5.35h.66l.13.73h0a1.64,1.64,0,0,1,.69-.61,2.23,2.23,0,0,1,1-.22,2,2,0,0,1,1.45.47,2,2,0,0,1,.49,1.49v3.49Z"/>
  </g>
  <g>
    <path class="cls-2" d="M257.69,106.05a4.33,4.33,0,0,1-.55,2.28,2.73,2.73,0,0,1-1.56,1.23l1.7,1.77h-1.21l-1.39-1.61h-.27a3.09,3.09,0,0,1-2.43-1,4.7,4.7,0,0,1,0-5.42,3.12,3.12,0,0,1,2.44-1,3.06,3.06,0,0,1,2.41,1A4,4,0,0,1,257.69,106.05Zm-5.69,0a3.39,3.39,0,0,0,.62,2.2,2.52,2.52,0,0,0,3.59,0,4.32,4.32,0,0,0,0-4.39,2.53,2.53,0,0,0-3.59,0A3.37,3.37,0,0,0,252,106.05Z"/>
    <path class="cls-2" d="M259.92,104.28v3.47a1.42,1.42,0,0,0,.3,1,1.23,1.23,0,0,0,.93.32,1.55,1.55,0,0,0,1.23-.46,2.32,2.32,0,0,0,.39-1.5v-2.81h.81v5.35h-.67l-.12-.72h0a1.7,1.7,0,0,1-.69.61,2.34,2.34,0,0,1-1,.21,2,2,0,0,1-1.46-.47,1.94,1.94,0,0,1-.49-1.48v-3.5Z"/>
    <path class="cls-2" d="M267.56,109.73a2.42,2.42,0,0,1-1.87-.73,2.78,2.78,0,0,1-.69-2,3.08,3.08,0,0,1,.64-2.06,2.09,2.09,0,0,1,1.71-.76,2,2,0,0,1,1.59.66,2.54,2.54,0,0,1,.59,1.75v.51h-3.69a2.1,2.1,0,0,0,.48,1.43,1.62,1.62,0,0,0,1.27.49,4.38,4.38,0,0,0,1.71-.36v.72a5.22,5.22,0,0,1-.82.27A4.77,4.77,0,0,1,267.56,109.73Zm-.22-4.87a1.33,1.33,0,0,0-1,.42,2,2,0,0,0-.45,1.16h2.8a1.81,1.81,0,0,0-.34-1.17A1.19,1.19,0,0,0,267.34,104.86Z"/>
    <path class="cls-2" d="M273.17,109.73a2.42,2.42,0,0,1-1.87-.73,2.78,2.78,0,0,1-.69-2,3.08,3.08,0,0,1,.64-2.06,2.09,2.09,0,0,1,1.71-.76,2,2,0,0,1,1.59.66,2.54,2.54,0,0,1,.59,1.75v.51h-3.69a2.15,2.15,0,0,0,.48,1.43,1.62,1.62,0,0,0,1.27.49,4.38,4.38,0,0,0,1.71-.36v.72a5.22,5.22,0,0,1-.82.27A4.77,4.77,0,0,1,273.17,109.73Zm-.22-4.87a1.33,1.33,0,0,0-1,.42,2,2,0,0,0-.45,1.16h2.8a1.81,1.81,0,0,0-.34-1.17A1.19,1.19,0,0,0,273,104.86Z"/>
    <path class="cls-2" d="M280.18,109.63v-3.46a1.39,1.39,0,0,0-.3-1,1.23,1.23,0,0,0-.93-.32,1.54,1.54,0,0,0-1.23.45,2.29,2.29,0,0,0-.39,1.5v2.81h-.81v-5.35h.66l.13.73h0a1.61,1.61,0,0,1,.7-.61,2.19,2.19,0,0,1,1-.22,2,2,0,0,1,1.45.47,2,2,0,0,1,.49,1.49v3.49Z"/>
    <path class="cls-2" d="M286.11,108.17a1.34,1.34,0,0,1-.56,1.15,2.61,2.61,0,0,1-1.56.41,3.45,3.45,0,0,1-1.66-.34v-.75a3.72,3.72,0,0,0,.83.3,3.23,3.23,0,0,0,.85.12,1.9,1.9,0,0,0,1-.21.67.67,0,0,0,.34-.61.68.68,0,0,0-.27-.54,4.26,4.26,0,0,0-1.06-.52,5.77,5.77,0,0,1-1.06-.49,1.4,1.4,0,0,1-.47-.47,1.28,1.28,0,0,1-.16-.63,1.18,1.18,0,0,1,.54-1,2.48,2.48,0,0,1,1.46-.38,4.37,4.37,0,0,1,1.69.35l-.29.66a3.94,3.94,0,0,0-1.46-.33,1.66,1.66,0,0,0-.87.18.6.6,0,0,0-.18.86,1.06,1.06,0,0,0,.35.29,9.52,9.52,0,0,0,.94.4,3.54,3.54,0,0,1,1.28.69A1.22,1.22,0,0,1,286.11,108.17Z"/>
  </g>
  <g>
    <path class="cls-2" d="M344.81,109.63H344v-6.4h-2.26v-.74h5.35v.74h-2.26Z"/>
    <path class="cls-2" d="M351.68,109.63v-3.46a1.43,1.43,0,0,0-.29-1,1.24,1.24,0,0,0-.94-.32,1.52,1.52,0,0,0-1.23.46,2.29,2.29,0,0,0-.39,1.5v2.8H348V102h.81v2.3a4.41,4.41,0,0,1,0,.69h0a1.68,1.68,0,0,1,.68-.61,2.21,2.21,0,0,1,1-.22,2,2,0,0,1,1.47.47,1.94,1.94,0,0,1,.5,1.48v3.49Z"/>
    <path class="cls-2" d="M356.42,109.73a2.43,2.43,0,0,1-1.87-.73,2.78,2.78,0,0,1-.69-2,3.08,3.08,0,0,1,.64-2.06,2.11,2.11,0,0,1,1.71-.76,2,2,0,0,1,1.59.66,2.54,2.54,0,0,1,.59,1.75v.51H354.7a2.15,2.15,0,0,0,.48,1.43,1.62,1.62,0,0,0,1.27.49,4.3,4.3,0,0,0,1.71-.36v.72a5.48,5.48,0,0,1-.81.27A5,5,0,0,1,356.42,109.73Zm-.22-4.87a1.33,1.33,0,0,0-1,.42,2,2,0,0,0-.45,1.16h2.8a1.76,1.76,0,0,0-.34-1.17A1.19,1.19,0,0,0,356.2,104.86Z"/>
    <path class="cls-2" d="M362.49,102.49h2a3.83,3.83,0,0,1,2.05.42,1.72,1.72,0,0,1,.28,2.39,1.66,1.66,0,0,1-1,.54v0c1.08.18,1.63.75,1.63,1.71a1.83,1.83,0,0,1-.65,1.49,2.75,2.75,0,0,1-1.81.54h-2.49Zm.83,3.06h1.37a2.23,2.23,0,0,0,1.26-.28,1.05,1.05,0,0,0,.39-.93,1,1,0,0,0-.43-.87,2.78,2.78,0,0,0-1.37-.26h-1.22Zm0,.7v2.67h1.49a2.13,2.13,0,0,0,1.3-.33,1.26,1.26,0,0,0,.44-1,1.12,1.12,0,0,0-.45-1,2.38,2.38,0,0,0-1.36-.31Z"/>
    <path class="cls-2" d="M371.29,104.18a3.1,3.1,0,0,1,.64.06l-.11.75a2.75,2.75,0,0,0-.59-.07,1.43,1.43,0,0,0-1.11.52,1.93,1.93,0,0,0-.46,1.32v2.87h-.81v-5.35h.67l.09,1h0a2.38,2.38,0,0,1,.72-.81A1.58,1.58,0,0,1,371.29,104.18Z"/>
    <path class="cls-2" d="M377.55,107a2.94,2.94,0,0,1-.66,2,2.33,2.33,0,0,1-1.82.74,2.5,2.5,0,0,1-1.28-.34,2.32,2.32,0,0,1-.86-1,3.38,3.38,0,0,1-.3-1.47,2.94,2.94,0,0,1,.66-2,2.56,2.56,0,0,1,3.6,0A2.93,2.93,0,0,1,377.55,107Zm-4.08,0a2.57,2.57,0,0,0,.41,1.56,1.63,1.63,0,0,0,2.42,0,2.55,2.55,0,0,0,.41-1.56,2.51,2.51,0,0,0-.41-1.55,1.44,1.44,0,0,0-1.22-.53,1.42,1.42,0,0,0-1.2.52A2.53,2.53,0,0,0,373.47,107Z"/>
    <path class="cls-2" d="M382.63,109.63v-3.46a1.39,1.39,0,0,0-.3-1,1.22,1.22,0,0,0-.93-.32,1.54,1.54,0,0,0-1.23.45,2.29,2.29,0,0,0-.39,1.5v2.81H379v-5.35h.66l.13.73h0a1.67,1.67,0,0,1,.7-.61,2.19,2.19,0,0,1,1-.22,2,2,0,0,1,1.45.47,2,2,0,0,1,.49,1.49v3.49Z"/>
    <path class="cls-2" d="M386.4,106.89l-1.86-2.61h.92l1.41,2,1.41-2h.91l-1.86,2.61,2,2.74h-.92l-1.5-2.17-1.51,2.17h-.92Z"/>
  </g>
  <line class="cls-3" x1="25.43" y1="256.9" x2="416.03" y2="256.9"/>
  <g>
    <path class="cls-2" d="M5.37,252.51v-.68h4.69v.68Z"/>
    <path class="cls-2" d="M15.76,255.7h-4.7V255l1.88-1.89a15.74,15.74,0,0,0,1.14-1.24,3.18,3.18,0,0,0,.41-.73,2,2,0,0,0,.13-.75,1.22,1.22,0,0,0-.34-.91,1.36,1.36,0,0,0-1-.33,2.64,2.64,0,0,0-.84.14,3.37,3.37,0,0,0-.88.54l-.43-.56a3.3,3.3,0,0,1,2.14-.82,2.28,2.28,0,0,1,1.58.52,1.76,1.76,0,0,1,.57,1.38,2.64,2.64,0,0,1-.38,1.35,8.72,8.72,0,0,1-1.42,1.68l-1.57,1.52v0h3.68Z"/>
    <path class="cls-2" d="M21.51,252.12a5.2,5.2,0,0,1-.58,2.76,2,2,0,0,1-1.79.91,2,2,0,0,1-1.75-.93,6.73,6.73,0,0,1,0-5.51,2.15,2.15,0,0,1,3.54,0A5.07,5.07,0,0,1,21.51,252.12Zm-3.9,0a5.11,5.11,0,0,0,.37,2.26,1.2,1.2,0,0,0,1.16.71,1.23,1.23,0,0,0,1.18-.71,5.37,5.37,0,0,0,.36-2.26,5.31,5.31,0,0,0-.36-2.26,1.23,1.23,0,0,0-1.18-.71,1.21,1.21,0,0,0-1.16.7A5.13,5.13,0,0,0,17.61,252.12Z"/>
    <path class="cls-2" d="M32.29,255.7v-3.49a1.48,1.48,0,0,0-.27-1,1.09,1.09,0,0,0-.85-.32,1.37,1.37,0,0,0-1.12.44,2.06,2.06,0,0,0-.36,1.34v3h-.81v-3.49a1.48,1.48,0,0,0-.28-1,1.06,1.06,0,0,0-.85-.32,1.35,1.35,0,0,0-1.12.46,2.53,2.53,0,0,0-.35,1.5v2.81h-.81v-5.36h.66l.13.74h0a1.57,1.57,0,0,1,.64-.61,2,2,0,0,1,.94-.22,1.59,1.59,0,0,1,1.64.9h0a1.69,1.69,0,0,1,.69-.66,2.21,2.21,0,0,1,1-.24,1.82,1.82,0,0,1,1.36.46,2.09,2.09,0,0,1,.45,1.49v3.5Z"/>
    <path class="cls-2" d="M34.7,248.89a.52.52,0,0,1,.14-.4.45.45,0,0,1,.34-.13.48.48,0,0,1,.34.13.54.54,0,0,1,.14.4.55.55,0,0,1-.14.41.49.49,0,0,1-.34.14.46.46,0,0,1-.34-.14A.55.55,0,0,1,34.7,248.89Zm.88,6.81h-.81v-5.36h.81Z"/>
    <path class="cls-2" d="M38.11,255.7H37.3v-7.6h.81Z"/>
    <path class="cls-2" d="M40.64,255.7h-.81v-7.6h.81Z"/>
    <path class="cls-2" d="M42.29,248.89a.49.49,0,0,1,.14-.4.45.45,0,0,1,.34-.13.44.44,0,0,1,.33.13.51.51,0,0,1,.15.4.51.51,0,0,1-.15.41.45.45,0,0,1-.33.14.46.46,0,0,1-.34-.14A.51.51,0,0,1,42.29,248.89Zm.88,6.81h-.81v-5.36h.81Z"/>
    <path class="cls-2" d="M49.51,253a3,3,0,0,1-.66,2.05,2.32,2.32,0,0,1-1.82.73,2.46,2.46,0,0,1-1.28-.33,2.26,2.26,0,0,1-.86-1,3.4,3.4,0,0,1-.3-1.48,3,3,0,0,1,.65-2,2.31,2.31,0,0,1,1.82-.73,2.27,2.27,0,0,1,1.78.74A2.92,2.92,0,0,1,49.51,253Zm-4.08,0a2.58,2.58,0,0,0,.41,1.57,1.63,1.63,0,0,0,2.41,0,2.51,2.51,0,0,0,.42-1.57,2.42,2.42,0,0,0-.42-1.54,1.64,1.64,0,0,0-2.42,0A2.5,2.5,0,0,0,45.43,253Z"/>
    <path class="cls-2" d="M54.59,255.7v-3.47a1.37,1.37,0,0,0-.3-1,1.2,1.2,0,0,0-.93-.33,1.55,1.55,0,0,0-1.23.46,2.29,2.29,0,0,0-.39,1.5v2.81h-.81v-5.36h.66l.13.74h0a1.63,1.63,0,0,1,.7-.62,2.29,2.29,0,0,1,1-.21,2,2,0,0,1,1.45.46,2,2,0,0,1,.49,1.49v3.5Z"/>
  </g>
  <line class="cls-3" x1="25.43" y1="230.16" x2="416.03" y2="230.16"/>
  <g>
    <path class="cls-2" d="M5.37,225.77v-.67h4.69v.67Z"/>
    <path class="cls-2" d="M14.07,229h-.79v-5.09q0-.63,0-1.2a2.49,2.49,0,0,1-.23.22l-1.16,1-.43-.56,1.89-1.46h.69Z"/>
    <path class="cls-2" d="M21.51,225.38a5.22,5.22,0,0,1-.58,2.77,2,2,0,0,1-1.79.91,2,2,0,0,1-1.75-.94,5.09,5.09,0,0,1-.6-2.74,5.22,5.22,0,0,1,.58-2.77,2,2,0,0,1,1.77-.9,2,2,0,0,1,1.77.94A5.12,5.12,0,0,1,21.51,225.38Zm-3.9,0a5.13,5.13,0,0,0,.37,2.27,1.31,1.31,0,0,0,2.34,0,7.24,7.24,0,0,0,0-4.51,1.31,1.31,0,0,0-2.34,0A5.08,5.08,0,0,0,17.61,225.38Z"/>
  </g>
  <line class="cls-4" x1="25.43" y1="203.43" x2="416.03" y2="203.43"/>
  <path class="cls-2" d="M21.51,198.65a5.2,5.2,0,0,1-.58,2.76,2,2,0,0,1-1.79.91,2,2,0,0,1-1.75-.93,5.11,5.11,0,0,1-.6-2.74,5.17,5.17,0,0,1,.58-2.77,2,2,0,0,1,1.77-.9,2,2,0,0,1,1.77.94A5.12,5.12,0,0,1,21.51,198.65Zm-3.9,0a5.16,5.16,0,0,0,.37,2.27,1.31,1.31,0,0,0,2.34,0,7.27,7.27,0,0,0,0-4.52,1.23,1.23,0,0,0-1.18-.71,1.21,1.21,0,0,0-1.16.7A5.13,5.13,0,0,0,17.61,198.65Z"/>
  <line class="cls-3" x1="25.43" y1="176.7" x2="416.03" y2="176.7"/>
  <g>
    <path class="cls-2" d="M14.07,175.49h-.79V170.4q0-.63,0-1.2a2.49,2.49,0,0,1-.23.22l-1.16,1-.43-.56,1.89-1.46h.69Z"/>
    <path class="cls-2" d="M21.51,171.91a5.22,5.22,0,0,1-.58,2.77,2,2,0,0,1-1.79.91,2,2,0,0,1-1.75-.94,5.09,5.09,0,0,1-.6-2.74,5.22,5.22,0,0,1,.58-2.77,2,2,0,0,1,1.77-.9,2,2,0,0,1,1.77.94A5.12,5.12,0,0,1,21.51,171.91Zm-3.9,0a5.13,5.13,0,0,0,.37,2.27,1.31,1.31,0,0,0,2.34,0,7.24,7.24,0,0,0,0-4.51,1.31,1.31,0,0,0-2.34,0A5.08,5.08,0,0,0,17.61,171.91Z"/>
  </g>
  <line class="cls-3" x1="25.43" y1="149.96" x2="416.03" y2="149.96"/>
  <g>
    <path class="cls-2" d="M15.76,148.76h-4.7v-.7l1.88-1.89a14.09,14.09,0,0,0,1.14-1.24,3.35,3.35,0,0,0,.41-.72,2.13,2.13,0,0,0,.13-.76,1.22,1.22,0,0,0-.34-.91,1.36,1.36,0,0,0-1-.33,2.4,2.4,0,0,0-.84.15,3.06,3.06,0,0,0-.88.53l-.43-.55a3.25,3.25,0,0,1,2.14-.82,2.27,2.27,0,0,1,1.58.51,1.79,1.79,0,0,1,.57,1.39,2.6,2.6,0,0,1-.38,1.34,8.72,8.72,0,0,1-1.42,1.68L12.08,148v0h3.68Z"/>
    <path class="cls-2" d="M21.51,145.18a5.2,5.2,0,0,1-.58,2.76,2.15,2.15,0,0,1-3.54,0,5.11,5.11,0,0,1-.6-2.74,5.2,5.2,0,0,1,.58-2.77,2,2,0,0,1,1.77-.9,2,2,0,0,1,1.77.94A5.12,5.12,0,0,1,21.51,145.18Zm-3.9,0a5.16,5.16,0,0,0,.37,2.27,1.31,1.31,0,0,0,2.34,0,5.34,5.34,0,0,0,.36-2.26,5.23,5.23,0,0,0-.36-2.25,1.31,1.31,0,0,0-2.34,0A5.08,5.08,0,0,0,17.61,145.18Z"/>
  </g>
  <line class="cls-3" x1="25.43" y1="123.23" x2="416.03" y2="123.23"/>
  <g>
    <path class="cls-2" d="M15.49,116.56a1.61,1.61,0,0,1-.39,1.12,1.83,1.83,0,0,1-1.08.58v0a2,2,0,0,1,1.27.55,1.6,1.6,0,0,1,.42,1.15,1.87,1.87,0,0,1-.71,1.57,3.19,3.19,0,0,1-2,.55,6.56,6.56,0,0,1-1-.08,4,4,0,0,1-.92-.3V121a4.16,4.16,0,0,0,1,.35,4.47,4.47,0,0,0,1,.12c1.23,0,1.85-.48,1.85-1.45s-.68-1.3-2-1.3h-.71V118h.72a2.2,2.2,0,0,0,1.32-.37,1.24,1.24,0,0,0,.49-1,1,1,0,0,0-.36-.82,1.49,1.49,0,0,0-1-.29,3.17,3.17,0,0,0-.88.12,4.14,4.14,0,0,0-.95.47l-.41-.55a3.43,3.43,0,0,1,1-.54,3.68,3.68,0,0,1,1.2-.2,2.45,2.45,0,0,1,1.62.48A1.58,1.58,0,0,1,15.49,116.56Z"/>
    <path class="cls-2" d="M21.51,118.44a5.22,5.22,0,0,1-.58,2.77,2,2,0,0,1-1.79.91,2,2,0,0,1-1.75-.93,6.73,6.73,0,0,1,0-5.51,2,2,0,0,1,1.77-.91,2,2,0,0,1,1.77,1A5.06,5.06,0,0,1,21.51,118.44Zm-3.9,0a5.13,5.13,0,0,0,.37,2.27,1.2,1.2,0,0,0,1.16.71,1.22,1.22,0,0,0,1.18-.72,7.24,7.24,0,0,0,0-4.51,1.32,1.32,0,0,0-2.34,0A5.11,5.11,0,0,0,17.61,118.44Z"/>
  </g>
  <path class="cls-5" d="M54.73,141a4.34,4.34,0,1,0-3.06-1.27A4.33,4.33,0,0,0,54.73,141Z"/>
  <path class="cls-6" d="M54.73,141a4.34,4.34,0,1,0-3.06-1.27A4.33,4.33,0,0,0,54.73,141Z"/>
  <rect class="cls-7" x="49.9" y="131.87" width="9.66" height="9.66"/>
  <path class="cls-5" d="M152.38,180.14a4.34,4.34,0,1,0-3.06-1.27A4.33,4.33,0,0,0,152.38,180.14Z"/>
  <path class="cls-6" d="M152.38,180.14a4.34,4.34,0,1,0-3.06-1.27A4.33,4.33,0,0,0,152.38,180.14Z"/>
  <rect class="cls-7" x="147.55" y="170.98" width="9.66" height="9.66"/>
  <path class="cls-5" d="M250,194.42a4.34,4.34,0,1,0-3.06-1.27A4.33,4.33,0,0,0,250,194.42Z"/>
  <path class="cls-6" d="M250,194.42a4.34,4.34,0,1,0-3.06-1.27A4.33,4.33,0,0,0,250,194.42Z"/>
  <rect class="cls-7" x="245.2" y="185.26" width="9.66" height="9.66"/>
  <path class="cls-5" d="M347.68,198.67a4.32,4.32,0,0,0,3.06-1.26,4.33,4.33,0,1,0-6.12,0A4.32,4.32,0,0,0,347.68,198.67Z"/>
  <path class="cls-6" d="M347.68,198.67a4.32,4.32,0,0,0,3.06-1.26,4.33,4.33,0,1,0-6.12,0A4.32,4.32,0,0,0,347.68,198.67Z"/>
  <rect class="cls-7" x="342.85" y="189.51" width="9.66" height="9.66"/>
  <path class="cls-5" d="M64.49,194.31a4.32,4.32,0,1,0-3.06-1.26A4.36,4.36,0,0,0,64.49,194.31Z"/>
  <path class="cls-6" d="M64.49,194.31a4.32,4.32,0,1,0-3.06-1.26A4.36,4.36,0,0,0,64.49,194.31Z"/>
  <rect class="cls-7" x="59.66" y="185.15" width="9.66" height="9.66"/>
  <path class="cls-5" d="M162.14,194.86a4.32,4.32,0,1,0-3.06-1.26A4.36,4.36,0,0,0,162.14,194.86Z"/>
  <path class="cls-6" d="M162.14,194.86a4.32,4.32,0,1,0-3.06-1.26A4.36,4.36,0,0,0,162.14,194.86Z"/>
  <rect class="cls-7" x="157.31" y="185.7" width="9.66" height="9.66"/>
  <path class="cls-5" d="M259.79,203.36a4.34,4.34,0,1,0-3.06-1.27A4.33,4.33,0,0,0,259.79,203.36Z"/>
  <path class="cls-6" d="M259.79,203.36a4.34,4.34,0,1,0-3.06-1.27A4.33,4.33,0,0,0,259.79,203.36Z"/>
  <rect class="cls-7" x="254.96" y="194.2" width="9.66" height="9.66"/>
  <path class="cls-8" d="M357.44,208.28a4.34,4.34,0,1,0-3.06-1.27A4.37,4.37,0,0,0,357.44,208.28Z"/>
  <path class="cls-9" d="M357.44,208.28a4.34,4.34,0,1,0-3.06-1.27A4.37,4.37,0,0,0,357.44,208.28Z"/>
  <rect class="cls-7" x="352.61" y="199.12" width="9.66" height="9.66"/>
  <path class="cls-8" d="M74.26,218.29A4.34,4.34,0,1,0,71.2,217,4.33,4.33,0,0,0,74.26,218.29Z"/>
  <path class="cls-9" d="M74.26,218.29A4.34,4.34,0,1,0,71.2,217,4.33,4.33,0,0,0,74.26,218.29Z"/>
  <rect class="cls-7" x="69.43" y="209.13" width="9.66" height="9.66"/>
  <path class="cls-8" d="M171.91,215.8a4.34,4.34,0,1,0-3.06-1.27A4.29,4.29,0,0,0,171.91,215.8Z"/>
  <path class="cls-9" d="M171.91,215.8a4.34,4.34,0,1,0-3.06-1.27A4.29,4.29,0,0,0,171.91,215.8Z"/>
  <rect class="cls-7" x="167.08" y="206.64" width="9.66" height="9.66"/>
  <path class="cls-5" d="M269.56,206.55a4.34,4.34,0,1,0-3.06-1.27A4.33,4.33,0,0,0,269.56,206.55Z"/>
  <path class="cls-6" d="M269.56,206.55a4.34,4.34,0,1,0-3.06-1.27A4.33,4.33,0,0,0,269.56,206.55Z"/>
  <rect class="cls-7" x="264.73" y="197.39" width="9.66" height="9.66"/>
  <path class="cls-5" d="M367.21,205.73a4.34,4.34,0,1,0-3.06-1.27A4.33,4.33,0,0,0,367.21,205.73Z"/>
  <path class="cls-6" d="M367.21,205.73a4.34,4.34,0,1,0-3.06-1.27A4.33,4.33,0,0,0,367.21,205.73Z"/>
  <rect class="cls-7" x="362.38" y="196.57" width="9.66" height="9.66"/>
  <path class="cls-8" d="M84,236.69A4.34,4.34,0,1,0,81,235.42,4.33,4.33,0,0,0,84,236.69Z"/>
  <path class="cls-9" d="M84,236.69A4.34,4.34,0,1,0,81,235.42,4.33,4.33,0,0,0,84,236.69Z"/>
  <rect class="cls-7" x="79.19" y="227.53" width="9.66" height="9.66"/>
  <path class="cls-8" d="M181.67,221.58a4.34,4.34,0,1,0-3.06-1.27A4.37,4.37,0,0,0,181.67,221.58Z"/>
  <path class="cls-9" d="M181.67,221.58a4.34,4.34,0,1,0-3.06-1.27A4.37,4.37,0,0,0,181.67,221.58Z"/>
  <rect class="cls-7" x="176.84" y="212.42" width="9.66" height="9.66"/>
  <path class="cls-8" d="M279.32,233.61a4.34,4.34,0,1,0-3.06-1.27A4.37,4.37,0,0,0,279.32,233.61Z"/>
  <path class="cls-9" d="M279.32,233.61a4.34,4.34,0,1,0-3.06-1.27A4.37,4.37,0,0,0,279.32,233.61Z"/>
  <rect class="cls-7" x="274.49" y="224.45" width="9.66" height="9.66"/>
  <path class="cls-8" d="M377,218.07a4.32,4.32,0,1,0-3.06-1.26A4.36,4.36,0,0,0,377,218.07Z"/>
  <path class="cls-9" d="M377,218.07a4.32,4.32,0,1,0-3.06-1.26A4.36,4.36,0,0,0,377,218.07Z"/>
  <rect class="cls-7" x="372.14" y="208.91" width="9.66" height="9.66"/>
  <path class="cls-8" d="M93.79,258.7a4.32,4.32,0,0,0,3.06-1.26,4.33,4.33,0,1,0-6.12,0A4.32,4.32,0,0,0,93.79,258.7Z"/>
  <path class="cls-9" d="M93.79,258.7a4.32,4.32,0,0,0,3.06-1.26,4.33,4.33,0,1,0-6.12,0A4.32,4.32,0,0,0,93.79,258.7Z"/>
  <rect class="cls-7" x="88.96" y="249.54" width="9.66" height="9.66"/>
  <path class="cls-8" d="M191.44,232.2a4.34,4.34,0,1,0-3.06-1.27A4.33,4.33,0,0,0,191.44,232.2Z"/>
  <path class="cls-9" d="M191.44,232.2a4.34,4.34,0,1,0-3.06-1.27A4.33,4.33,0,0,0,191.44,232.2Z"/>
  <rect class="cls-7" x="186.61" y="223.04" width="9.66" height="9.66"/>
  <path class="cls-8" d="M289.09,231.9a4.34,4.34,0,1,0-3.06-1.27A4.33,4.33,0,0,0,289.09,231.9Z"/>
  <path class="cls-9" d="M289.09,231.9a4.34,4.34,0,1,0-3.06-1.27A4.33,4.33,0,0,0,289.09,231.9Z"/>
  <rect class="cls-7" x="284.26" y="222.74" width="9.66" height="9.66"/>
  <path class="cls-8" d="M386.74,234.45a4.34,4.34,0,1,0-3.06-1.27A4.33,4.33,0,0,0,386.74,234.45Z"/>
  <path class="cls-9" d="M386.74,234.45a4.34,4.34,0,1,0-3.06-1.27A4.33,4.33,0,0,0,386.74,234.45Z"/>
  <rect class="cls-7" x="381.91" y="225.29" width="9.66" height="9.66"/>
  <line class="cls-10" x1="54.73" y1="203.43" x2="54.73" y2="136.7"/>
  <line class="cls-10" x1="152.38" y1="203.43" x2="152.38" y2="175.81"/>
  <line class="cls-10" x1="250.03" y1="203.43" x2="250.03" y2="190.09"/>
  <line class="cls-10" x1="347.68" y1="203.43" x2="347.68" y2="194.34"/>
  <line class="cls-10" x1="64.49" y1="203.43" x2="64.49" y2="189.98"/>
  <line class="cls-10" x1="162.14" y1="203.43" x2="162.14" y2="190.53"/>
  <line class="cls-10" x1="259.79" y1="203.43" x2="259.79" y2="199.03"/>
  <line class="cls-10" x1="357.44" y1="203.43" x2="357.44" y2="203.95"/>
  <line class="cls-10" x1="74.26" y1="203.43" x2="74.26" y2="213.96"/>
  <line class="cls-10" x1="171.91" y1="203.43" x2="171.91" y2="211.47"/>
  <line class="cls-10" x1="269.56" y1="203.43" x2="269.56" y2="202.22"/>
  <line class="cls-10" x1="367.21" y1="203.43" x2="367.21" y2="201.4"/>
  <line class="cls-10" x1="84.02" y1="232.36" x2="84.02" y2="203.43"/>
  <line class="cls-10" x1="181.67" y1="217.25" x2="181.67" y2="203.43"/>
  <line class="cls-10" x1="279.32" y1="229.28" x2="279.32" y2="203.43"/>
  <line class="cls-10" x1="376.97" y1="213.74" x2="376.97" y2="203.43"/>
  <line class="cls-10" x1="93.79" y1="254.37" x2="93.79" y2="203.43"/>
  <line class="cls-10" x1="191.44" y1="227.87" x2="191.44" y2="203.43"/>
  <line class="cls-10" x1="289.09" y1="227.57" x2="289.09" y2="203.43"/>
  <line class="cls-10" x1="386.74" y1="230.12" x2="386.74" y2="203.43"/>
  <rect class="cls-11" x="6.1" width="257.67" height="52.57"/>
  <g>
    <path d="M17.51,21H15.29V9.37h-4V7.47H21.5v1.9h-4Z"/>
    <path d="M32.37,21H30.18V14.72A2.75,2.75,0,0,0,29.7,13a1.84,1.84,0,0,0-1.51-.59,2.4,2.4,0,0,0-2,.83,4.49,4.49,0,0,0-.65,2.75V21H23.34V6.59h2.18v3.67a15.72,15.72,0,0,1-.11,1.88h.14A3.06,3.06,0,0,1,26.79,11a4,4,0,0,1,1.85-.41c2.49,0,3.73,1.26,3.73,3.76Z"/>
    <path d="M39.88,21.22a5,5,0,0,1-3.74-1.4A5.3,5.3,0,0,1,34.79,16,5.85,5.85,0,0,1,36,12a4.33,4.33,0,0,1,3.44-1.44,4.22,4.22,0,0,1,3.21,1.24,4.68,4.68,0,0,1,1.18,3.39v1.18H37a3.41,3.41,0,0,0,.8,2.3,2.84,2.84,0,0,0,2.15.8,8.2,8.2,0,0,0,1.69-.17,9.81,9.81,0,0,0,1.68-.57v1.77a7.1,7.1,0,0,1-1.61.54A10.43,10.43,0,0,1,39.88,21.22Zm-.4-9a2.18,2.18,0,0,0-1.66.65,3.13,3.13,0,0,0-.75,1.92h4.66a2.85,2.85,0,0,0-.61-1.92A2.09,2.09,0,0,0,39.48,12.24Z"/>
    <path d="M59.34,17.35A3.44,3.44,0,0,1,58,20.19a5.72,5.72,0,0,1-3.61,1,8.59,8.59,0,0,1-3.77-.72V18.4a9.86,9.86,0,0,0,2,.69,8.13,8.13,0,0,0,1.94.25,3.09,3.09,0,0,0,1.94-.5,1.62,1.62,0,0,0,.63-1.34,1.66,1.66,0,0,0-.58-1.29A8.52,8.52,0,0,0,54.19,15a6.32,6.32,0,0,1-2.62-1.71,3.69,3.69,0,0,1-.76-2.32A3.23,3.23,0,0,1,52,8.25a5,5,0,0,1,3.24-1,9.44,9.44,0,0,1,3.87.86l-.7,1.8a8.61,8.61,0,0,0-3.23-.76,2.48,2.48,0,0,0-1.63.47A1.55,1.55,0,0,0,53,10.88a1.82,1.82,0,0,0,.22.9,2.2,2.2,0,0,0,.74.71,12,12,0,0,0,1.83.89A9.63,9.63,0,0,1,58,14.54a3.21,3.21,0,0,1,1,1.21A3.6,3.6,0,0,1,59.34,17.35Z"/>
    <path d="M65.55,19.45a5.19,5.19,0,0,0,1.6-.25v1.64a4,4,0,0,1-.93.27,6.58,6.58,0,0,1-1.19.11q-3.09,0-3.09-3.27V12.42h-1.4v-1l1.5-.8.74-2.17h1.35v2.28h2.92v1.65H64.13v5.49a1.56,1.56,0,0,0,.39,1.17A1.43,1.43,0,0,0,65.55,19.45Z"/>
    <path d="M73.68,21.22a5,5,0,0,1-3.74-1.4A5.3,5.3,0,0,1,68.59,16a5.85,5.85,0,0,1,1.25-4,4.33,4.33,0,0,1,3.44-1.44,4.22,4.22,0,0,1,3.21,1.24,4.68,4.68,0,0,1,1.18,3.39v1.18H70.83a3.36,3.36,0,0,0,.81,2.3,2.83,2.83,0,0,0,2.14.8,8.3,8.3,0,0,0,1.7-.17,9.81,9.81,0,0,0,1.68-.57v1.77a7.1,7.1,0,0,1-1.61.54A10.43,10.43,0,0,1,73.68,21.22Zm-.4-9a2.16,2.16,0,0,0-1.66.65,3.13,3.13,0,0,0-.75,1.92h4.66a2.9,2.9,0,0,0-.61-1.92A2.1,2.1,0,0,0,73.28,12.24Z"/>
    <path d="M84.63,21.22a5,5,0,0,1-3.75-1.4A5.34,5.34,0,0,1,79.54,16a5.8,5.8,0,0,1,1.25-4,4.31,4.31,0,0,1,3.44-1.44,4.26,4.26,0,0,1,3.21,1.24,4.72,4.72,0,0,1,1.18,3.39v1.18H81.78a3.36,3.36,0,0,0,.81,2.3,2.81,2.81,0,0,0,2.14.8,8.13,8.13,0,0,0,1.69-.17,9.61,9.61,0,0,0,1.69-.57v1.77a7,7,0,0,1-1.62.54A10.23,10.23,0,0,1,84.63,21.22Zm-.4-9a2.2,2.2,0,0,0-1.67.65,3.18,3.18,0,0,0-.74,1.92h4.65a2.8,2.8,0,0,0-.61-1.92A2.07,2.07,0,0,0,84.23,12.24Z"/>
    <path d="M96.3,21.22a3.6,3.6,0,0,1-3-1.41h-.12c.08.87.12,1.4.12,1.58v4.2H91.09V10.77h1.77c0,.19.15.65.3,1.37h.11a3.44,3.44,0,0,1,3.07-1.56,3.57,3.57,0,0,1,3,1.4,6.28,6.28,0,0,1,1.07,3.9,6.27,6.27,0,0,1-1.09,3.93A3.6,3.6,0,0,1,96.3,21.22Zm-.53-8.86a2.26,2.26,0,0,0-1.9.77,3.9,3.9,0,0,0-.6,2.43v.32a4.74,4.74,0,0,0,.6,2.71,2.2,2.2,0,0,0,1.94.84,2,2,0,0,0,1.74-.92,4.79,4.79,0,0,0,.61-2.65,4.66,4.66,0,0,0-.6-2.61A2,2,0,0,0,95.77,12.36Z"/>
    <path d="M119.13,14.12a6.75,6.75,0,0,1-1.86,5.13A7.5,7.5,0,0,1,111.89,21H108.1V7.47h4.19a7,7,0,0,1,5,1.74A6.52,6.52,0,0,1,119.13,14.12Zm-2.34.07c0-3.24-1.52-4.87-4.55-4.87h-1.92v9.85h1.57Q116.79,19.17,116.79,14.19Z"/>
    <path d="M126.29,21.22a5,5,0,0,1-3.74-1.4A5.3,5.3,0,0,1,121.2,16a5.85,5.85,0,0,1,1.25-4,4.33,4.33,0,0,1,3.44-1.44,4.22,4.22,0,0,1,3.21,1.24,4.68,4.68,0,0,1,1.18,3.39v1.18h-6.84a3.41,3.41,0,0,0,.81,2.3,2.84,2.84,0,0,0,2.15.8,8.2,8.2,0,0,0,1.69-.17,9.81,9.81,0,0,0,1.68-.57v1.77a7.1,7.1,0,0,1-1.61.54A10.43,10.43,0,0,1,126.29,21.22Zm-.4-9a2.18,2.18,0,0,0-1.66.65,3.13,3.13,0,0,0-.75,1.92h4.66a2.85,2.85,0,0,0-.61-1.92A2.09,2.09,0,0,0,125.89,12.24Z"/>
    <path d="M136.9,21.22a4.49,4.49,0,0,1-3.54-1.36,5.68,5.68,0,0,1-1.21-3.9,5.71,5.71,0,0,1,1.26-4,4.71,4.71,0,0,1,3.66-1.4,6.77,6.77,0,0,1,2.93.61l-.66,1.75a6.61,6.61,0,0,0-2.29-.54q-2.66,0-2.66,3.54a4.17,4.17,0,0,0,.67,2.59,2.29,2.29,0,0,0,1.94.87,5.47,5.47,0,0,0,2.75-.73v1.91a4.58,4.58,0,0,1-1.24.49A7.47,7.47,0,0,1,136.9,21.22Z"/>
    <path d="M144.35,21h-2.18V6.59h2.18Z"/>
    <path d="M147.33,8.05a1.22,1.22,0,0,1,.32-.9,1.27,1.27,0,0,1,.92-.31,1.21,1.21,0,0,1,.89.31,1.18,1.18,0,0,1,.32.9,1.18,1.18,0,0,1-.32.88,1.21,1.21,0,0,1-.89.32,1.27,1.27,0,0,1-.92-.32A1.22,1.22,0,0,1,147.33,8.05Zm2.31,13h-2.18V10.77h2.18Z"/>
    <path d="M161.79,21H159.6V14.72a2.75,2.75,0,0,0-.48-1.77,1.85,1.85,0,0,0-1.52-.59,2.43,2.43,0,0,0-2,.82,4.51,4.51,0,0,0-.64,2.74V21h-2.18V10.77h1.71l.3,1.34h.12A3,3,0,0,1,156.2,11a4.52,4.52,0,0,1,1.9-.4c2.46,0,3.69,1.26,3.69,3.76Z"/>
    <path d="M169.3,21.22a5,5,0,0,1-3.74-1.4A5.3,5.3,0,0,1,164.21,16a5.85,5.85,0,0,1,1.25-4,4.33,4.33,0,0,1,3.44-1.44,4.22,4.22,0,0,1,3.21,1.24,4.68,4.68,0,0,1,1.18,3.39v1.18h-6.84a3.41,3.41,0,0,0,.81,2.3,2.83,2.83,0,0,0,2.14.8,8.23,8.23,0,0,0,1.7-.17,9.81,9.81,0,0,0,1.68-.57v1.77a7.1,7.1,0,0,1-1.61.54A10.43,10.43,0,0,1,169.3,21.22Zm-.4-9a2.18,2.18,0,0,0-1.66.65,3.13,3.13,0,0,0-.75,1.92h4.66a2.85,2.85,0,0,0-.61-1.92A2.09,2.09,0,0,0,168.9,12.24Z"/>
    <path d="M191.63,21h-2.22V14.92h-6.26V21h-2.21V7.47h2.21V13h6.26V7.47h2.22Z"/>
    <path d="M201.39,21,201,19.6h-.08a4.17,4.17,0,0,1-1.49,1.28,4.84,4.84,0,0,1-1.93.34,3.27,3.27,0,0,1-2.36-.82,3,3,0,0,1-.85-2.31,2.69,2.69,0,0,1,1.18-2.39,6.75,6.75,0,0,1,3.59-.89l1.77-.05v-.55a2.07,2.07,0,0,0-.46-1.47,1.89,1.89,0,0,0-1.42-.49,4.84,4.84,0,0,0-1.52.24A11.11,11.11,0,0,0,196,13l-.7-1.56a7.34,7.34,0,0,1,1.83-.66,8.45,8.45,0,0,1,1.87-.23,4.42,4.42,0,0,1,2.95.86,3.32,3.32,0,0,1,1,2.68V21Zm-3.24-1.48a2.7,2.7,0,0,0,1.9-.67,2.4,2.4,0,0,0,.72-1.86v-.89l-1.32.06a4.53,4.53,0,0,0-2.24.51,1.59,1.59,0,0,0-.7,1.41,1.37,1.37,0,0,0,.41,1.06A1.76,1.76,0,0,0,198.15,19.55Z"/>
    <path d="M212.89,18.11a2.67,2.67,0,0,1-1.1,2.3,5.19,5.19,0,0,1-3.13.81,7.35,7.35,0,0,1-3.3-.63V18.71a8.07,8.07,0,0,0,3.37.84c1.34,0,2-.41,2-1.22a1,1,0,0,0-.22-.65,2.8,2.8,0,0,0-.73-.54,14.48,14.48,0,0,0-1.42-.63,6.61,6.61,0,0,1-2.4-1.37,2.53,2.53,0,0,1-.62-1.78,2.34,2.34,0,0,1,1.06-2,5.08,5.08,0,0,1,2.89-.73,8.19,8.19,0,0,1,3.42.74L212,13a7.6,7.6,0,0,0-2.8-.69c-1.15,0-1.72.33-1.72,1a1,1,0,0,0,.45.81,10,10,0,0,0,2,.92,9.36,9.36,0,0,1,1.85.9,2.51,2.51,0,0,1,1.13,2.22Z"/>
    <path d="M12.82,30.27h4a7.68,7.68,0,0,1,4,.81,2.88,2.88,0,0,1,1.25,2.58,3.14,3.14,0,0,1-.62,2,2.74,2.74,0,0,1-1.76,1v.09a3.51,3.51,0,0,1,2.1,1.07,3.17,3.17,0,0,1,.67,2.14,3.49,3.49,0,0,1-1.27,2.87,5.48,5.48,0,0,1-3.55,1h-4.9ZM15,35.87h2.13a3.66,3.66,0,0,0,2-.44,1.67,1.67,0,0,0,.64-1.5,1.49,1.49,0,0,0-.69-1.38A4.24,4.24,0,0,0,17,32.12H15Zm0,1.8V42H17.4a3.46,3.46,0,0,0,2.1-.54,2,2,0,0,0,.71-1.68,1.77,1.77,0,0,0-.73-1.57,3.82,3.82,0,0,0-2.2-.51Z"/>
    <path d="M29.61,44a5,5,0,0,1-3.74-1.4,5.3,5.3,0,0,1-1.35-3.85,5.85,5.85,0,0,1,1.25-4,4.33,4.33,0,0,1,3.44-1.44,4.22,4.22,0,0,1,3.21,1.24A4.68,4.68,0,0,1,33.6,38v1.18H26.77a3.41,3.41,0,0,0,.8,2.3,2.84,2.84,0,0,0,2.15.8,8.2,8.2,0,0,0,1.69-.17,9.81,9.81,0,0,0,1.68-.57v1.77a7.1,7.1,0,0,1-1.61.54A10.43,10.43,0,0,1,29.61,44Zm-.4-9a2.18,2.18,0,0,0-1.66.66,3.13,3.13,0,0,0-.75,1.92h4.66a2.85,2.85,0,0,0-.61-1.92A2.1,2.1,0,0,0,29.21,35Z"/>
    <path d="M40.56,44a5,5,0,0,1-3.74-1.4,5.3,5.3,0,0,1-1.35-3.85,5.85,5.85,0,0,1,1.25-4,4.33,4.33,0,0,1,3.44-1.44,4.22,4.22,0,0,1,3.21,1.24A4.68,4.68,0,0,1,44.55,38v1.18H37.71a3.36,3.36,0,0,0,.81,2.3,2.83,2.83,0,0,0,2.14.8,8.3,8.3,0,0,0,1.7-.17A9.81,9.81,0,0,0,44,41.55v1.77a7.1,7.1,0,0,1-1.61.54A10.43,10.43,0,0,1,40.56,44Zm-.4-9a2.17,2.17,0,0,0-1.66.66,3.13,3.13,0,0,0-.75,1.92h4.66a2.85,2.85,0,0,0-.62-1.92A2.07,2.07,0,0,0,40.16,35Z"/>
    <path d="M56.05,43.83H53.86V37.52a2.75,2.75,0,0,0-.47-1.77,1.86,1.86,0,0,0-1.52-.59,2.41,2.41,0,0,0-2,.82,4.51,4.51,0,0,0-.64,2.74v5.11H47V33.57h1.7L49,34.91h.11a3.12,3.12,0,0,1,1.32-1.13,4.51,4.51,0,0,1,1.89-.4c2.46,0,3.69,1.26,3.69,3.76Z"/>
    <path d="M68.09,36.45l3.21-6.18h2.41l-4.52,8.3v5.26H67V38.64l-4.5-8.37h2.42Z"/>
    <path d="M79.75,44A5,5,0,0,1,76,42.62a5.34,5.34,0,0,1-1.34-3.85,5.8,5.8,0,0,1,1.25-4,4.31,4.31,0,0,1,3.44-1.44,4.26,4.26,0,0,1,3.21,1.24A4.72,4.72,0,0,1,83.74,38v1.18H76.9a3.36,3.36,0,0,0,.81,2.3,2.81,2.81,0,0,0,2.14.8,8.13,8.13,0,0,0,1.69-.17,9.61,9.61,0,0,0,1.69-.57v1.77a7,7,0,0,1-1.62.54A10.23,10.23,0,0,1,79.75,44Zm-.4-9a2.21,2.21,0,0,0-1.67.66,3.18,3.18,0,0,0-.74,1.92h4.65A2.8,2.8,0,0,0,81,35.69,2.07,2.07,0,0,0,79.35,35Z"/>
    <path d="M92.63,43.83,92.2,42.4h-.08a4.17,4.17,0,0,1-1.49,1.28A4.8,4.8,0,0,1,88.7,44a3.29,3.29,0,0,1-2.36-.82,3.06,3.06,0,0,1-.85-2.31,2.69,2.69,0,0,1,1.18-2.39,6.75,6.75,0,0,1,3.59-.89l1.77,0V37a2.06,2.06,0,0,0-.46-1.47,1.88,1.88,0,0,0-1.42-.49,4.73,4.73,0,0,0-1.51.24,10.68,10.68,0,0,0-1.4.54l-.7-1.56a7.65,7.65,0,0,1,1.83-.66,8.45,8.45,0,0,1,1.87-.23,4.45,4.45,0,0,1,3,.86,3.35,3.35,0,0,1,1,2.68v6.91Zm-3.24-1.48a2.7,2.7,0,0,0,1.9-.67A2.4,2.4,0,0,0,92,39.82v-.89L90.7,39a4.47,4.47,0,0,0-2.24.51,1.58,1.58,0,0,0-.71,1.41A1.37,1.37,0,0,0,88.16,42,1.78,1.78,0,0,0,89.39,42.35Z"/>
    <path d="M102.44,33.38a4.76,4.76,0,0,1,1.09.1l-.22,2a3.82,3.82,0,0,0-1-.11,2.79,2.79,0,0,0-2.12.85,3.1,3.1,0,0,0-.81,2.22v5.36H97.24V33.57h1.7l.29,1.81h.11a4.17,4.17,0,0,1,1.33-1.46A3.17,3.17,0,0,1,102.44,33.38Z"/>
    <path d="M112.32,40.91a2.67,2.67,0,0,1-1.09,2.3,5.22,5.22,0,0,1-3.14.81,7.3,7.3,0,0,1-3.29-.63V41.51a8,8,0,0,0,3.37.84c1.34,0,2-.41,2-1.22a1,1,0,0,0-.22-.65,2.88,2.88,0,0,0-.74-.54,14.48,14.48,0,0,0-1.42-.63,6.61,6.61,0,0,1-2.4-1.37,2.57,2.57,0,0,1-.62-1.78,2.34,2.34,0,0,1,1.06-2,5.08,5.08,0,0,1,2.89-.73,8.12,8.12,0,0,1,3.42.74l-.7,1.64a7.61,7.61,0,0,0-2.79-.69c-1.15,0-1.73.33-1.73,1a1,1,0,0,0,.45.81,10,10,0,0,0,2,.92,9.08,9.08,0,0,1,1.85.9,2.51,2.51,0,0,1,1.13,2.22Z"/>
    <path d="M119.85,43.83V30.27h2.21V43.83Z"/>
    <path d="M134.44,43.83h-2.19V37.52a2.75,2.75,0,0,0-.48-1.77,1.85,1.85,0,0,0-1.52-.59,2.43,2.43,0,0,0-2,.82,4.58,4.58,0,0,0-.64,2.74v5.11h-2.18V33.57h1.71l.3,1.34h.12a3.09,3.09,0,0,1,1.31-1.13,4.52,4.52,0,0,1,1.9-.4c2.46,0,3.69,1.26,3.69,3.76Z"/>
    <path d="M147.32,43.83h-2.21V32.17h-4v-1.9h10.19v1.9h-4Z"/>
    <path d="M162.19,43.83H160V37.52a2.75,2.75,0,0,0-.48-1.77,1.85,1.85,0,0,0-1.52-.59,2.4,2.4,0,0,0-2,.83,4.49,4.49,0,0,0-.65,2.75v5.09h-2.18V29.39h2.18v3.67a18.12,18.12,0,0,1-.11,1.88h.14a3.06,3.06,0,0,1,1.24-1.15,4,4,0,0,1,1.85-.41c2.48,0,3.73,1.26,3.73,3.76Z"/>
    <path d="M169.7,44a5,5,0,0,1-3.74-1.4,5.3,5.3,0,0,1-1.35-3.85,5.85,5.85,0,0,1,1.25-4,4.33,4.33,0,0,1,3.44-1.44,4.22,4.22,0,0,1,3.21,1.24A4.68,4.68,0,0,1,173.69,38v1.18h-6.84a3.36,3.36,0,0,0,.81,2.3,2.83,2.83,0,0,0,2.14.8,8.3,8.3,0,0,0,1.7-.17,9.81,9.81,0,0,0,1.68-.57v1.77a7.1,7.1,0,0,1-1.61.54A10.43,10.43,0,0,1,169.7,44Zm-.4-9a2.17,2.17,0,0,0-1.66.66,3.13,3.13,0,0,0-.75,1.92h4.66a2.85,2.85,0,0,0-.61-1.92A2.1,2.1,0,0,0,169.3,35Z"/>
    <path d="M187.2,43.83,183.27,32.5h-.08c.11,1.68.16,3.26.16,4.73v6.6h-2V30.27h3.12l3.77,10.79h.05l3.88-10.79h3.14V43.83h-2.14V37.12c0-.67,0-1.55.05-2.63s.07-1.74.09-2h-.07l-4.07,11.31Z"/>
    <path d="M205.06,43.83l-.44-1.43h-.07a4.28,4.28,0,0,1-1.5,1.28,4.8,4.8,0,0,1-1.93.34,3.3,3.3,0,0,1-2.36-.82,3.1,3.1,0,0,1-.85-2.31,2.71,2.71,0,0,1,1.18-2.39,6.78,6.78,0,0,1,3.59-.89l1.77,0V37a2.1,2.1,0,0,0-.45-1.47,1.92,1.92,0,0,0-1.43-.49,4.77,4.77,0,0,0-1.51.24,10.54,10.54,0,0,0-1.39.54L199,34.27a7.65,7.65,0,0,1,1.83-.66,8.52,8.52,0,0,1,1.87-.23,4.45,4.45,0,0,1,3,.86,3.36,3.36,0,0,1,1,2.68v6.91Zm-3.25-1.48a2.73,2.73,0,0,0,1.91-.67,2.4,2.4,0,0,0,.72-1.86v-.89l-1.32.06a4.5,4.5,0,0,0-2.24.51,1.57,1.57,0,0,0-.7,1.41,1.34,1.34,0,0,0,.41,1.06A1.75,1.75,0,0,0,201.81,42.35Z"/>
    <path d="M211.76,38.41,213,36.87l3.1-3.3h2.51L214.48,38l4.39,5.85h-2.56L213,39.33l-1.2,1v3.52h-2.16V29.39h2.16v7l-.11,2Z"/>
    <path d="M220.39,30.85a1.22,1.22,0,0,1,.32-.9,1.27,1.27,0,0,1,.92-.31,1.21,1.21,0,0,1,.89.31,1.4,1.4,0,0,1,0,1.78,1.21,1.21,0,0,1-.89.32,1.27,1.27,0,0,1-.92-.32A1.22,1.22,0,0,1,220.39,30.85Zm2.31,13h-2.18V33.57h2.18Z"/>
    <path d="M234.85,43.83h-2.19V37.52a2.75,2.75,0,0,0-.48-1.77,1.85,1.85,0,0,0-1.52-.59,2.43,2.43,0,0,0-2,.82,4.51,4.51,0,0,0-.64,2.74v5.11h-2.18V33.57h1.71l.3,1.34h.11a3.12,3.12,0,0,1,1.32-1.13,4.51,4.51,0,0,1,1.89-.4c2.47,0,3.7,1.26,3.7,3.76Z"/>
    <path d="M246.55,33.57v1.2l-1.76.32a3.14,3.14,0,0,1,.56,1.8,3.08,3.08,0,0,1-1.1,2.5,4.6,4.6,0,0,1-3,.91,4.74,4.74,0,0,1-.89-.08,1.23,1.23,0,0,0-.71,1,.57.57,0,0,0,.33.53,2.79,2.79,0,0,0,1.21.18H243a4,4,0,0,1,2.58.72,2.54,2.54,0,0,1,.88,2.09A3,3,0,0,1,245,47.45a7.6,7.6,0,0,1-4.16.94,5.7,5.7,0,0,1-3.2-.74,2.38,2.38,0,0,1-1.1-2.11,2.28,2.28,0,0,1,.59-1.59,3.24,3.24,0,0,1,1.68-.9,1.6,1.6,0,0,1-.72-.6,1.56,1.56,0,0,1,0-1.84,3.82,3.82,0,0,1,1-.79,2.84,2.84,0,0,1-1.29-1.12,3.67,3.67,0,0,1,.56-4.4,4.43,4.43,0,0,1,3-.92,7.31,7.31,0,0,1,.91.06,6.12,6.12,0,0,1,.72.13Zm-8.07,11.86a1.18,1.18,0,0,0,.64,1.08,3.53,3.53,0,0,0,1.79.38,5.4,5.4,0,0,0,2.65-.51,1.53,1.53,0,0,0,.87-1.35,1,1,0,0,0-.48-1,3.81,3.81,0,0,0-1.78-.29h-1.65a2.31,2.31,0,0,0-1.48.44A1.46,1.46,0,0,0,238.48,45.43Zm.94-8.54a2,2,0,0,0,.5,1.48,1.85,1.85,0,0,0,1.42.52c1.26,0,1.89-.67,1.89-2a2.24,2.24,0,0,0-.47-1.54,1.77,1.77,0,0,0-1.42-.55,1.82,1.82,0,0,0-1.43.54A2.24,2.24,0,0,0,239.42,36.89Z"/>
  </g>
  <g>
    <path class="cls-5" d="M298.65,71a4.37,4.37,0,0,0,3.07-1.27,4.35,4.35,0,0,0,0-6.12A4.33,4.33,0,1,0,298.65,71Z"/>
    <path class="cls-8" d="M298.65,85.44a4.37,4.37,0,0,0,3.07-1.27,4.33,4.33,0,1,0-3.07,1.27Z"/>
    <g>
      <path class="cls-2" d="M306.28,62.94a.52.52,0,0,1,.14-.4.45.45,0,0,1,.34-.13.48.48,0,0,1,.34.13.54.54,0,0,1,.14.4.55.55,0,0,1-.14.41.49.49,0,0,1-.34.14.46.46,0,0,1-.34-.14A.55.55,0,0,1,306.28,62.94Zm.88,6.81h-.81V64.39h.81Z"/>
      <path class="cls-2" d="M312.54,69.75V66.28a1.37,1.37,0,0,0-.3-1,1.2,1.2,0,0,0-.93-.33,1.55,1.55,0,0,0-1.23.46,2.29,2.29,0,0,0-.39,1.5v2.81h-.81V64.39h.66l.13.74h0a1.63,1.63,0,0,1,.7-.62,2.33,2.33,0,0,1,1-.21,2,2,0,0,1,1.45.46,2,2,0,0,1,.49,1.49v3.5Z"/>
      <path class="cls-2" d="M317.15,69.84a2.28,2.28,0,0,1-1.79-.71,2.93,2.93,0,0,1-.64-2,3,3,0,0,1,.65-2.07,2.31,2.31,0,0,1,1.84-.73,3.42,3.42,0,0,1,.77.08,2.36,2.36,0,0,1,.6.19l-.24.69a4.55,4.55,0,0,0-.59-.18,3.16,3.16,0,0,0-.56-.07c-1.09,0-1.63.7-1.63,2.08a2.46,2.46,0,0,0,.4,1.52,1.36,1.36,0,0,0,1.17.52,3.66,3.66,0,0,0,1.38-.28v.71A2.89,2.89,0,0,1,317.15,69.84Z"/>
      <path class="cls-2" d="M322.22,64.3a4.06,4.06,0,0,1,.64,0l-.11.76a2.84,2.84,0,0,0-.59-.08,1.44,1.44,0,0,0-1.11.53,1.91,1.91,0,0,0-.46,1.31v2.88h-.81V64.39h.67l.09,1h0a2.42,2.42,0,0,1,.71-.8A1.64,1.64,0,0,1,322.22,64.3Z"/>
      <path class="cls-2" d="M326.12,69.84a2.45,2.45,0,0,1-1.87-.72,2.79,2.79,0,0,1-.69-2,3.07,3.07,0,0,1,.64-2,2.09,2.09,0,0,1,1.71-.76,2,2,0,0,1,1.59.66,2.53,2.53,0,0,1,.59,1.74v.52H324.4a2.17,2.17,0,0,0,.48,1.43,1.65,1.65,0,0,0,1.27.48,4.38,4.38,0,0,0,1.71-.36v.73a4.28,4.28,0,0,1-.82.26A4.09,4.09,0,0,1,326.12,69.84ZM325.9,65a1.33,1.33,0,0,0-1,.42,2,2,0,0,0-.45,1.17h2.8a1.84,1.84,0,0,0-.34-1.18A1.22,1.22,0,0,0,325.9,65Z"/>
      <path class="cls-2" d="M332.76,69.75,332.6,69h0a2.11,2.11,0,0,1-.8.68,2.37,2.37,0,0,1-1,.18,1.76,1.76,0,0,1-1.25-.41,1.48,1.48,0,0,1-.45-1.16c0-1.08.86-1.65,2.59-1.7l.91,0v-.33a1.36,1.36,0,0,0-.27-.93,1.09,1.09,0,0,0-.87-.31,3.58,3.58,0,0,0-1.51.41l-.25-.62a3.74,3.74,0,0,1,.87-.33,3.79,3.79,0,0,1,.94-.12,2.06,2.06,0,0,1,1.42.42,1.76,1.76,0,0,1,.46,1.36v3.66Zm-1.83-.58a1.64,1.64,0,0,0,1.19-.41,1.54,1.54,0,0,0,.43-1.16v-.49l-.81,0a2.84,2.84,0,0,0-1.39.3.9.9,0,0,0-.43.83.84.84,0,0,0,.26.66A1.09,1.09,0,0,0,330.93,69.17Z"/>
      <path class="cls-2" d="M338.48,68.29a1.34,1.34,0,0,1-.55,1.15,2.66,2.66,0,0,1-1.57.4,3.46,3.46,0,0,1-1.66-.33v-.76a3.94,3.94,0,0,0,.83.31,3.25,3.25,0,0,0,.85.11,1.89,1.89,0,0,0,1-.2.66.66,0,0,0,.34-.62.68.68,0,0,0-.27-.53,4.36,4.36,0,0,0-1.06-.53,5.55,5.55,0,0,1-1.06-.48,1.5,1.5,0,0,1-.47-.47,1.28,1.28,0,0,1-.15-.63,1.23,1.23,0,0,1,.53-1,2.51,2.51,0,0,1,1.46-.37,4.16,4.16,0,0,1,1.69.35l-.29.66a3.92,3.92,0,0,0-1.46-.34,1.61,1.61,0,0,0-.87.19.56.56,0,0,0-.29.49.62.62,0,0,0,.11.37,1.06,1.06,0,0,0,.35.29,8.83,8.83,0,0,0,.94.39,3.59,3.59,0,0,1,1.29.7A1.26,1.26,0,0,1,338.48,68.29Z"/>
      <path class="cls-2" d="M342.06,69.84a2.46,2.46,0,0,1-1.87-.72,2.79,2.79,0,0,1-.69-2,3.07,3.07,0,0,1,.64-2,2.11,2.11,0,0,1,1.71-.76,2,2,0,0,1,1.59.66A2.53,2.53,0,0,1,344,66.7v.52h-3.69a2.17,2.17,0,0,0,.48,1.43,1.65,1.65,0,0,0,1.27.48,4.3,4.3,0,0,0,1.71-.36v.73a4.43,4.43,0,0,1-.81.26A4.24,4.24,0,0,1,342.06,69.84ZM341.84,65a1.33,1.33,0,0,0-1,.42,2,2,0,0,0-.45,1.17h2.8a1.79,1.79,0,0,0-.34-1.18A1.22,1.22,0,0,0,341.84,65Z"/>
    </g>
    <g>
      <path class="cls-2" d="M310,83.66h0a1.93,1.93,0,0,1-1.68.82,2,2,0,0,1-1.64-.72,3.88,3.88,0,0,1,0-4.1,2.17,2.17,0,0,1,3.3.06H310l0-.39,0-.37V76.78h.81v7.6h-.66Zm-1.62.14a1.44,1.44,0,0,0,1.2-.46,2.25,2.25,0,0,0,.38-1.45v-.17a2.73,2.73,0,0,0-.38-1.63,1.44,1.44,0,0,0-1.21-.48,1.24,1.24,0,0,0-1.09.55,2.78,2.78,0,0,0-.38,1.57,2.61,2.61,0,0,0,.38,1.54A1.27,1.27,0,0,0,308.37,83.8Z"/>
      <path class="cls-2" d="M314.74,84.48a2.45,2.45,0,0,1-1.87-.73,2.78,2.78,0,0,1-.69-2,3.08,3.08,0,0,1,.64-2.06,2.09,2.09,0,0,1,1.71-.76,2,2,0,0,1,1.59.66,2.54,2.54,0,0,1,.59,1.75v.51H313a2.1,2.1,0,0,0,.48,1.43,1.66,1.66,0,0,0,1.27.49,4.38,4.38,0,0,0,1.71-.36v.72a4.28,4.28,0,0,1-.82.26A4,4,0,0,1,314.74,84.48Zm-.22-4.87a1.33,1.33,0,0,0-1,.42,1.91,1.91,0,0,0-.45,1.16h2.8A1.86,1.86,0,0,0,315.5,80,1.22,1.22,0,0,0,314.52,79.61Z"/>
      <path class="cls-2" d="M320.23,84.48a2.26,2.26,0,0,1-1.8-.72,2.92,2.92,0,0,1-.64-2,3,3,0,0,1,.65-2.08,2.31,2.31,0,0,1,1.84-.73,4,4,0,0,1,.77.08,2.55,2.55,0,0,1,.61.2l-.25.69a2.71,2.71,0,0,0-.59-.18,2.44,2.44,0,0,0-.56-.07c-1.09,0-1.63.69-1.63,2.08a2.45,2.45,0,0,0,.4,1.51,1.39,1.39,0,0,0,1.18.53,3.67,3.67,0,0,0,1.37-.29v.72A3,3,0,0,1,320.23,84.48Z"/>
      <path class="cls-2" d="M325.29,78.93a3.1,3.1,0,0,1,.64.06l-.11.75a2.68,2.68,0,0,0-.59-.07,1.43,1.43,0,0,0-1.11.52,1.91,1.91,0,0,0-.46,1.32v2.87h-.81V79h.67l.09,1h0a2.38,2.38,0,0,1,.72-.81A1.61,1.61,0,0,1,325.29,78.93Z"/>
      <path class="cls-2" d="M329.19,84.48a2.47,2.47,0,0,1-1.87-.73,2.78,2.78,0,0,1-.69-2,3.08,3.08,0,0,1,.64-2.06,2.11,2.11,0,0,1,1.71-.76,2,2,0,0,1,1.59.66,2.54,2.54,0,0,1,.59,1.75v.51h-3.69a2.15,2.15,0,0,0,.48,1.43,1.66,1.66,0,0,0,1.27.49,4.3,4.3,0,0,0,1.71-.36v.72a4.43,4.43,0,0,1-.81.26A4.19,4.19,0,0,1,329.19,84.48ZM329,79.61a1.33,1.33,0,0,0-1,.42,2,2,0,0,0-.45,1.16h2.8A1.8,1.8,0,0,0,330,80,1.22,1.22,0,0,0,329,79.61Z"/>
      <path class="cls-2" d="M335.83,84.38l-.16-.76h0a2.22,2.22,0,0,1-.8.68,2.37,2.37,0,0,1-1,.18,1.81,1.81,0,0,1-1.25-.41,1.52,1.52,0,0,1-.45-1.17c0-1.08.86-1.65,2.59-1.7l.91,0v-.33a1.36,1.36,0,0,0-.27-.93,1.12,1.12,0,0,0-.87-.3A3.44,3.44,0,0,0,333,80l-.25-.62a3.36,3.36,0,0,1,.87-.34,3.79,3.79,0,0,1,.94-.12,2.06,2.06,0,0,1,1.42.42,1.79,1.79,0,0,1,.46,1.37v3.65ZM334,83.81a1.63,1.63,0,0,0,1.19-.42,1.52,1.52,0,0,0,.43-1.16v-.48l-.81,0a2.87,2.87,0,0,0-1.39.3.9.9,0,0,0-.43.83.85.85,0,0,0,.27.67A1.09,1.09,0,0,0,334,83.81Z"/>
      <path class="cls-2" d="M341.55,82.92a1.33,1.33,0,0,1-.55,1.15,2.61,2.61,0,0,1-1.56.41,3.43,3.43,0,0,1-1.66-.34v-.75a3.64,3.64,0,0,0,.82.3,3.3,3.3,0,0,0,.86.12,1.86,1.86,0,0,0,1-.21.65.65,0,0,0,.34-.61.68.68,0,0,0-.27-.54,4.15,4.15,0,0,0-1.05-.52,6,6,0,0,1-1.07-.49,1.37,1.37,0,0,1-.46-.47,1.18,1.18,0,0,1-.16-.63,1.2,1.2,0,0,1,.53-1,2.43,2.43,0,0,1,1.46-.38,4.34,4.34,0,0,1,1.69.35l-.29.66a3.85,3.85,0,0,0-1.46-.33,1.64,1.64,0,0,0-.86.18.55.55,0,0,0-.3.5.61.61,0,0,0,.11.36,1.11,1.11,0,0,0,.36.29,9,9,0,0,0,.93.4,3.51,3.51,0,0,1,1.29.69A1.26,1.26,0,0,1,341.55,82.92Z"/>
      <path class="cls-2" d="M345.13,84.48a2.47,2.47,0,0,1-1.87-.73,2.77,2.77,0,0,1-.68-2,3.13,3.13,0,0,1,.63-2.06,2.12,2.12,0,0,1,1.71-.76,2,2,0,0,1,1.6.66,2.53,2.53,0,0,1,.58,1.75v.51h-3.68a2.1,2.1,0,0,0,.47,1.43,1.67,1.67,0,0,0,1.27.49,4.3,4.3,0,0,0,1.71-.36v.72a4.2,4.2,0,0,1-.81.26A4.12,4.12,0,0,1,345.13,84.48Zm-.22-4.87a1.3,1.3,0,0,0-1,.42,1.92,1.92,0,0,0-.46,1.16h2.8a1.8,1.8,0,0,0-.34-1.18A1.2,1.2,0,0,0,344.91,79.61Z"/>
    </g>
  </g>
  <g>
    <path d="M20.44,61.78l1.9-3.57h.9l-2.38,4.37v2.77H20V62.62l-2.38-4.41h.91Z"/>
    <path d="M26.36,65.44a2.45,2.45,0,0,1-1.87-.72,2.79,2.79,0,0,1-.69-2,3.07,3.07,0,0,1,.64-2.05,2.09,2.09,0,0,1,1.71-.76,2,2,0,0,1,1.59.66,2.53,2.53,0,0,1,.59,1.74v.52H24.64a2.12,2.12,0,0,0,.48,1.43,1.66,1.66,0,0,0,1.27.49,4.39,4.39,0,0,0,1.71-.37v.73a4.28,4.28,0,0,1-.82.26A4.09,4.09,0,0,1,26.36,65.44Zm-.22-4.87a1.37,1.37,0,0,0-1,.42,2,2,0,0,0-.45,1.17h2.8A1.84,1.84,0,0,0,27.12,61,1.22,1.22,0,0,0,26.14,60.57Z"/>
    <path d="M33,65.35l-.16-.77h0a2.11,2.11,0,0,1-.8.68,2.4,2.4,0,0,1-1,.18A1.76,1.76,0,0,1,29.76,65a1.48,1.48,0,0,1-.45-1.16c0-1.08.86-1.65,2.59-1.7l.91,0v-.33a1.36,1.36,0,0,0-.27-.93,1.09,1.09,0,0,0-.87-.31,3.46,3.46,0,0,0-1.51.42l-.25-.63a4,4,0,0,1,1.81-.45,2.06,2.06,0,0,1,1.42.42,1.76,1.76,0,0,1,.46,1.36v3.66Zm-1.83-.58a1.64,1.64,0,0,0,1.19-.41,1.54,1.54,0,0,0,.43-1.16v-.49l-.81,0a2.91,2.91,0,0,0-1.4.3.91.91,0,0,0-.42.83.84.84,0,0,0,.26.66A1.09,1.09,0,0,0,31.17,64.77Z"/>
    <path d="M37.71,59.9a4.06,4.06,0,0,1,.64.05l-.11.76a2.75,2.75,0,0,0-.59-.08,1.44,1.44,0,0,0-1.11.53,1.91,1.91,0,0,0-.46,1.31v2.88h-.81V60h.67L36,61h0a2.38,2.38,0,0,1,.72-.81A1.61,1.61,0,0,1,37.71,59.9Z"/>
    <path d="M38.9,63v-.75h2.4V63Z"/>
    <path d="M44.3,64.77a2.73,2.73,0,0,0,.41,0l.32-.06v.62a1.8,1.8,0,0,1-.39.1,2.6,2.6,0,0,1-.46,0c-1,0-1.55-.54-1.55-1.63V60.62h-.77v-.39l.77-.33L43,58.75h.47V60H45v.63H43.44v3.15a1.12,1.12,0,0,0,.23.75A.79.79,0,0,0,44.3,64.77Z"/>
    <path d="M50.72,62.66a3,3,0,0,1-.66,2,2.32,2.32,0,0,1-1.82.73A2.49,2.49,0,0,1,47,65.11a2.32,2.32,0,0,1-.86-1,3.4,3.4,0,0,1-.3-1.48,2.9,2.9,0,0,1,.66-2,2.57,2.57,0,0,1,3.6,0A3,3,0,0,1,50.72,62.66Zm-4.08,0a2.58,2.58,0,0,0,.41,1.57,1.65,1.65,0,0,0,2.42,0,2.58,2.58,0,0,0,.41-1.57,2.53,2.53,0,0,0-.41-1.55,1.46,1.46,0,0,0-1.22-.53,1.43,1.43,0,0,0-1.2.53A2.49,2.49,0,0,0,46.64,62.66Z"/>
    <path d="M51.69,63v-.75h2.4V63Z"/>
    <path d="M54.51,60h.87l1.17,3.06a11.07,11.07,0,0,1,.48,1.5h0c0-.16.13-.45.26-.85s.58-1.64,1.33-3.71h.87l-2.3,6.1a3.1,3.1,0,0,1-.8,1.28,1.71,1.71,0,0,1-1.12.38,3,3,0,0,1-.73-.09V67a3.64,3.64,0,0,0,.6,0,1.24,1.24,0,0,0,1.19-.93l.3-.77Z"/>
    <path d="M62.66,65.44a2.45,2.45,0,0,1-1.87-.72,2.79,2.79,0,0,1-.69-2,3.07,3.07,0,0,1,.64-2.05,2.09,2.09,0,0,1,1.71-.76,2,2,0,0,1,1.59.66,2.53,2.53,0,0,1,.59,1.74v.52H60.94a2.12,2.12,0,0,0,.48,1.43,1.66,1.66,0,0,0,1.27.49,4.39,4.39,0,0,0,1.71-.37v.73a4.28,4.28,0,0,1-.82.26A4.09,4.09,0,0,1,62.66,65.44Zm-.22-4.87a1.37,1.37,0,0,0-1,.42A1.89,1.89,0,0,0,61,62.16h2.8A1.79,1.79,0,0,0,63.41,61,1.19,1.19,0,0,0,62.44,60.57Z"/>
    <path d="M69.3,65.35l-.16-.77h0a2.18,2.18,0,0,1-.8.68,2.43,2.43,0,0,1-1,.18A1.76,1.76,0,0,1,66.06,65a1.48,1.48,0,0,1-.45-1.16c0-1.08.86-1.65,2.59-1.7l.91,0v-.33a1.36,1.36,0,0,0-.27-.93,1.09,1.09,0,0,0-.87-.31,3.43,3.43,0,0,0-1.51.42l-.25-.63A3.91,3.91,0,0,1,68,59.91a2.06,2.06,0,0,1,1.42.42,1.76,1.76,0,0,1,.46,1.36v3.66Zm-1.83-.58a1.64,1.64,0,0,0,1.19-.41,1.58,1.58,0,0,0,.43-1.16v-.49l-.81,0a2.91,2.91,0,0,0-1.4.3.91.91,0,0,0-.42.83.84.84,0,0,0,.26.66A1.09,1.09,0,0,0,67.47,64.77Z"/>
    <path d="M74,59.9a4.06,4.06,0,0,1,.64.05l-.11.76a2.75,2.75,0,0,0-.59-.08,1.44,1.44,0,0,0-1.11.53,1.91,1.91,0,0,0-.46,1.31v2.88h-.81V60h.67l.09,1h0a2.38,2.38,0,0,1,.72-.81A1.58,1.58,0,0,1,74,59.9Z"/>
    <path d="M80.69,59.9a4.06,4.06,0,0,1,.64.05l-.11.76a2.75,2.75,0,0,0-.59-.08,1.44,1.44,0,0,0-1.11.53,1.91,1.91,0,0,0-.46,1.31v2.88h-.81V60h.67L79,61h0a2.38,2.38,0,0,1,.72-.81A1.58,1.58,0,0,1,80.69,59.9Z"/>
    <path d="M82.26,58.54a.52.52,0,0,1,.14-.4.45.45,0,0,1,.34-.13.48.48,0,0,1,.34.13.54.54,0,0,1,.14.4.55.55,0,0,1-.14.41.49.49,0,0,1-.34.14A.46.46,0,0,1,82.4,59,.55.55,0,0,1,82.26,58.54Zm.88,6.81h-.81V60h.81Z"/>
    <path d="M88.5,64.63h0a1.92,1.92,0,0,1-1.68.81,2,2,0,0,1-1.63-.71,3.17,3.17,0,0,1-.59-2.05,3.21,3.21,0,0,1,.59-2,2.17,2.17,0,0,1,3.3.06h.06l0-.39,0-.37V57.75h.81v7.6h-.66Zm-1.62.13a1.46,1.46,0,0,0,1.2-.45,2.25,2.25,0,0,0,.38-1.45v-.18a2.7,2.7,0,0,0-.38-1.62,1.45,1.45,0,0,0-1.21-.49,1.25,1.25,0,0,0-1.09.56,2.77,2.77,0,0,0-.38,1.56,2.64,2.64,0,0,0,.38,1.55A1.27,1.27,0,0,0,86.88,64.76Z"/>
    <path d="M93.25,65.44a2.45,2.45,0,0,1-1.87-.72,2.79,2.79,0,0,1-.69-2,3.07,3.07,0,0,1,.64-2.05A2.09,2.09,0,0,1,93,59.9a2,2,0,0,1,1.59.66,2.53,2.53,0,0,1,.59,1.74v.52H91.53A2.12,2.12,0,0,0,92,64.25a1.66,1.66,0,0,0,1.27.49A4.39,4.39,0,0,0,95,64.37v.73a4.28,4.28,0,0,1-.82.26A4.09,4.09,0,0,1,93.25,65.44ZM93,60.57A1.37,1.37,0,0,0,92,61a2,2,0,0,0-.45,1.17h2.8A1.84,1.84,0,0,0,94,61,1.22,1.22,0,0,0,93,60.57Z"/>
    <path d="M99,59.9a4.06,4.06,0,0,1,.64.05l-.11.76a2.75,2.75,0,0,0-.59-.08,1.44,1.44,0,0,0-1.11.53,1.91,1.91,0,0,0-.46,1.31v2.88H96.6V60h.67l.09,1h0a2.38,2.38,0,0,1,.72-.81A1.58,1.58,0,0,1,99,59.9Z"/>
    <path d="M104.13,63.89a1.34,1.34,0,0,1-.55,1.15,2.66,2.66,0,0,1-1.57.4,3.46,3.46,0,0,1-1.66-.33v-.76a3.94,3.94,0,0,0,.83.31,3.25,3.25,0,0,0,.85.11,1.89,1.89,0,0,0,1-.2.66.66,0,0,0,.34-.62.68.68,0,0,0-.27-.53,4.36,4.36,0,0,0-1.06-.53,5.26,5.26,0,0,1-1.06-.48,1.5,1.5,0,0,1-.47-.47,1.28,1.28,0,0,1-.15-.63,1.23,1.23,0,0,1,.53-1,2.51,2.51,0,0,1,1.46-.37,4.16,4.16,0,0,1,1.69.35l-.29.66a3.92,3.92,0,0,0-1.46-.34,1.61,1.61,0,0,0-.87.19.56.56,0,0,0-.29.49.62.62,0,0,0,.11.37,1.06,1.06,0,0,0,.35.29,8.83,8.83,0,0,0,.94.39,3.59,3.59,0,0,1,1.29.7A1.26,1.26,0,0,1,104.13,63.89Z"/>
    <path d="M109.11,65.35V61.88a1.37,1.37,0,0,0-.3-1,1.17,1.17,0,0,0-.93-.33,1.55,1.55,0,0,0-1.23.46,2.34,2.34,0,0,0-.39,1.51v2.8h-.81v-7.6h.81v2.3a4.58,4.58,0,0,1,0,.69h0a1.68,1.68,0,0,1,.68-.61,2.21,2.21,0,0,1,1-.22,2.06,2.06,0,0,1,1.47.46,2,2,0,0,1,.49,1.48v3.5Z"/>
    <path d="M111.52,58.54a.52.52,0,0,1,.14-.4A.45.45,0,0,1,112,58a.48.48,0,0,1,.34.13.54.54,0,0,1,.14.4.55.55,0,0,1-.14.41.49.49,0,0,1-.34.14.46.46,0,0,1-.34-.14A.55.55,0,0,1,111.52,58.54Zm.88,6.81h-.81V60h.81Z"/>
    <path d="M116.61,65.44a2.32,2.32,0,0,1-1-.19,1.86,1.86,0,0,1-.72-.59h-.06a7,7,0,0,1,.06.89v2.2h-.81V60h.66l.11.74h0a1.83,1.83,0,0,1,.73-.64,2.18,2.18,0,0,1,1-.19,2,2,0,0,1,1.64.72,3.87,3.87,0,0,1,0,4.09A2,2,0,0,1,116.61,65.44Zm-.12-4.86a1.46,1.46,0,0,0-1.19.46,2.3,2.3,0,0,0-.37,1.44v.18a2.71,2.71,0,0,0,.37,1.62,1.45,1.45,0,0,0,1.21.48,1.26,1.26,0,0,0,1.09-.56,2.67,2.67,0,0,0,.39-1.55,2.58,2.58,0,0,0-.39-1.53A1.3,1.3,0,0,0,116.49,60.58Z"/>
    <path d="M125,65.44a2.32,2.32,0,0,1-1.8-.71,3,3,0,0,1-.63-2,3,3,0,0,1,.64-2.07A2.33,2.33,0,0,1,125,59.9a3.42,3.42,0,0,1,.77.08,2.5,2.5,0,0,1,.6.19l-.25.69a4.39,4.39,0,0,0-.58-.18,3.16,3.16,0,0,0-.56-.07c-1.09,0-1.63.7-1.63,2.08a2.53,2.53,0,0,0,.39,1.52,1.4,1.4,0,0,0,1.18.53,3.59,3.59,0,0,0,1.37-.29v.71A2.82,2.82,0,0,1,125,65.44Z"/>
    <path d="M131.27,65.35V61.88a1.37,1.37,0,0,0-.3-1,1.2,1.2,0,0,0-.93-.33,1.56,1.56,0,0,0-1.24.46,2.34,2.34,0,0,0-.39,1.51v2.8h-.81v-7.6h.81v2.3a6.73,6.73,0,0,1,0,.69h0a1.65,1.65,0,0,1,.69-.61,2.16,2.16,0,0,1,1-.22,2.08,2.08,0,0,1,1.48.46,2,2,0,0,1,.49,1.48v3.5Z"/>
    <path d="M137,65.35l-.16-.77h0a2,2,0,0,1-.8.68,2.37,2.37,0,0,1-1,.18,1.76,1.76,0,0,1-1.25-.41,1.48,1.48,0,0,1-.45-1.16c0-1.08.87-1.65,2.59-1.7l.91,0v-.33a1.36,1.36,0,0,0-.27-.93,1.09,1.09,0,0,0-.87-.31,3.46,3.46,0,0,0-1.51.42l-.25-.63a3.92,3.92,0,0,1,.87-.33,3.79,3.79,0,0,1,.94-.12,2.06,2.06,0,0,1,1.42.42,1.76,1.76,0,0,1,.46,1.36v3.66Zm-1.83-.58a1.63,1.63,0,0,0,1.19-.41,1.54,1.54,0,0,0,.43-1.16v-.49l-.81,0a2.87,2.87,0,0,0-1.39.3.9.9,0,0,0-.43.83.81.81,0,0,0,.27.66A1,1,0,0,0,135.2,64.77Z"/>
    <path d="M143,65.35V61.88a1.37,1.37,0,0,0-.3-1,1.21,1.21,0,0,0-.94-.33,1.55,1.55,0,0,0-1.23.46,2.29,2.29,0,0,0-.39,1.5v2.81h-.81V60H140l.13.74h0a1.69,1.69,0,0,1,.7-.62,2.33,2.33,0,0,1,1-.21,2,2,0,0,1,1.46.46,2,2,0,0,1,.49,1.49v3.5Z"/>
    <path d="M149.82,60v.52l-1,.11a1.89,1.89,0,0,1,.24.45,1.52,1.52,0,0,1,.11.62,1.58,1.58,0,0,1-.54,1.26,2.16,2.16,0,0,1-1.47.47,3.14,3.14,0,0,1-.45,0,.8.8,0,0,0-.52.69.35.35,0,0,0,.18.32,1.31,1.31,0,0,0,.62.11H148a2.16,2.16,0,0,1,1.34.36,1.28,1.28,0,0,1,.46,1.07,1.52,1.52,0,0,1-.71,1.35,3.84,3.84,0,0,1-2.08.47,2.85,2.85,0,0,1-1.62-.39,1.27,1.27,0,0,1-.57-1.11,1.28,1.28,0,0,1,.31-.84,1.58,1.58,0,0,1,.88-.48.94.94,0,0,1-.34-.29.78.78,0,0,1-.14-.46.84.84,0,0,1,.16-.51,1.4,1.4,0,0,1,.49-.42,1.48,1.48,0,0,1-.68-.59,1.71,1.71,0,0,1-.26-.93,1.75,1.75,0,0,1,.53-1.36,2.13,2.13,0,0,1,1.49-.47A2.93,2.93,0,0,1,148,60Zm-4.27,6.25a.74.74,0,0,0,.37.66,2,2,0,0,0,1.05.23,2.86,2.86,0,0,0,1.51-.31A.93.93,0,0,0,149,66a.66.66,0,0,0-.27-.6,2.09,2.09,0,0,0-1-.17h-1a1.27,1.27,0,0,0-.86.27A1,1,0,0,0,145.55,66.24Zm.44-4.53a1.1,1.1,0,0,0,.32.85,1.28,1.28,0,0,0,.88.29,1,1,0,0,0,1.19-1.16,1.06,1.06,0,0,0-1.2-1.2,1.22,1.22,0,0,0-.88.3A1.28,1.28,0,0,0,146,61.71Z"/>
    <path d="M153.18,65.44a2.46,2.46,0,0,1-1.87-.72,2.79,2.79,0,0,1-.69-2,3.07,3.07,0,0,1,.64-2.05A2.09,2.09,0,0,1,153,59.9a2,2,0,0,1,1.59.66,2.53,2.53,0,0,1,.59,1.74v.52h-3.69a2.17,2.17,0,0,0,.48,1.43,1.66,1.66,0,0,0,1.27.49,4.32,4.32,0,0,0,1.71-.37v.73a4.43,4.43,0,0,1-.81.26A4.24,4.24,0,0,1,153.18,65.44ZM153,60.57a1.37,1.37,0,0,0-1,.42,2,2,0,0,0-.45,1.17h2.8a1.79,1.79,0,0,0-.34-1.18A1.22,1.22,0,0,0,153,60.57Z"/>
    <path d="M161.54,60.62h-1.36v4.73h-.81V60.62h-1v-.36l1-.3v-.29c0-1.32.57-2,1.72-2a3.73,3.73,0,0,1,1,.17l-.21.65a2.75,2.75,0,0,0-.8-.15.76.76,0,0,0-.68.31,1.67,1.67,0,0,0-.22,1V60h1.36Z"/>
    <path d="M165,59.9a4.06,4.06,0,0,1,.64.05l-.12.76a2.67,2.67,0,0,0-.58-.08,1.44,1.44,0,0,0-1.11.53,1.91,1.91,0,0,0-.46,1.31v2.88h-.81V60h.67l.09,1h0a2.36,2.36,0,0,1,.71-.81A1.62,1.62,0,0,1,165,59.9Z"/>
    <path d="M171.22,62.66a3,3,0,0,1-.66,2,2.32,2.32,0,0,1-1.82.73,2.46,2.46,0,0,1-1.28-.33,2.26,2.26,0,0,1-.86-1,3.4,3.4,0,0,1-.3-1.48,3,3,0,0,1,.65-2,2.58,2.58,0,0,1,3.61,0A3,3,0,0,1,171.22,62.66Zm-4.08,0a2.58,2.58,0,0,0,.41,1.57,1.42,1.42,0,0,0,1.21.53,1.4,1.4,0,0,0,1.2-.53,2.51,2.51,0,0,0,.42-1.57,2.47,2.47,0,0,0-.42-1.55,1.44,1.44,0,0,0-1.21-.53,1.43,1.43,0,0,0-1.2.53A2.49,2.49,0,0,0,167.14,62.66Z"/>
    <path d="M179.46,65.35V61.86a1.48,1.48,0,0,0-.27-1,1.09,1.09,0,0,0-.85-.32,1.37,1.37,0,0,0-1.12.44,2.08,2.08,0,0,0-.36,1.34v3h-.81V61.86a1.43,1.43,0,0,0-.28-1,1.06,1.06,0,0,0-.85-.32,1.35,1.35,0,0,0-1.12.46,2.53,2.53,0,0,0-.35,1.5v2.81h-.81V60h.66l.13.74h0a1.53,1.53,0,0,1,.65-.61,1.91,1.91,0,0,1,.93-.22,1.59,1.59,0,0,1,1.64.9h0a1.69,1.69,0,0,1,.69-.66,2.21,2.21,0,0,1,1-.24,1.82,1.82,0,0,1,1.36.46,2.09,2.09,0,0,1,.45,1.49v3.5Z"/>
    <path d="M188.86,65.35h-4.69v-.7l1.88-1.89a15,15,0,0,0,1.13-1.24,3.18,3.18,0,0,0,.41-.73,2,2,0,0,0,.14-.75,1.23,1.23,0,0,0-.35-.91,1.33,1.33,0,0,0-1-.33,2.55,2.55,0,0,0-.84.14,3.25,3.25,0,0,0-.89.54l-.43-.56a3.33,3.33,0,0,1,2.15-.82,2.27,2.27,0,0,1,1.57.52,1.73,1.73,0,0,1,.58,1.38,2.74,2.74,0,0,1-.38,1.35A8.85,8.85,0,0,1,186.75,63l-1.56,1.52v0h3.67Z"/>
    <path d="M194.62,61.77a5.19,5.19,0,0,1-.59,2.76,2.16,2.16,0,0,1-3.54,0,5.13,5.13,0,0,1-.6-2.74,5.16,5.16,0,0,1,.59-2.77A2.14,2.14,0,0,1,194,59,5.09,5.09,0,0,1,194.62,61.77Zm-3.91,0a5.25,5.25,0,0,0,.37,2.26,1.31,1.31,0,0,0,2.34,0,7.06,7.06,0,0,0,0-4.51,1.32,1.32,0,0,0-2.34,0A5.28,5.28,0,0,0,190.71,61.77Z"/>
    <path d="M198.6,65.35h-.79V60.26c0-.43,0-.83,0-1.2-.07.06-.14.14-.23.21s-.47.39-1.16.95l-.43-.55,1.89-1.46h.68Z"/>
    <path d="M205.74,59.89a1.58,1.58,0,0,1-.38,1.11,2,2,0,0,1-1.09.59v0a2.12,2.12,0,0,1,1.28.55,1.59,1.59,0,0,1,.41,1.15,1.86,1.86,0,0,1-.7,1.57,3.24,3.24,0,0,1-2,.55,6.53,6.53,0,0,1-1-.08,3.81,3.81,0,0,1-.92-.3v-.77a4.14,4.14,0,0,0,1,.34,4.45,4.45,0,0,0,1,.12c1.24,0,1.85-.48,1.85-1.45s-.68-1.29-2-1.29h-.7v-.7h.71a2.21,2.21,0,0,0,1.33-.37,1.23,1.23,0,0,0,.48-1,1,1,0,0,0-.36-.82,1.44,1.44,0,0,0-1-.3,3.12,3.12,0,0,0-.88.12,4.37,4.37,0,0,0-.95.47l-.41-.54a3.39,3.39,0,0,1,1-.55,3.79,3.79,0,0,1,1.21-.2,2.48,2.48,0,0,1,1.62.48A1.61,1.61,0,0,1,205.74,59.89Z"/>
    <path d="M20.23,76.77a2.73,2.73,0,0,0,.41,0l.32-.06v.62a1.8,1.8,0,0,1-.39.1,2.6,2.6,0,0,1-.46,0c-1,0-1.55-.54-1.55-1.63V72.62h-.77v-.39l.77-.33.34-1.15h.47V72h1.55v.63H19.37v3.15a1.07,1.07,0,0,0,.23.75A.79.79,0,0,0,20.23,76.77Z"/>
    <path d="M26.65,74.66a3,3,0,0,1-.66,2,2.32,2.32,0,0,1-1.82.73,2.46,2.46,0,0,1-1.28-.33,2.26,2.26,0,0,1-.86-1,3.4,3.4,0,0,1-.3-1.48,3,3,0,0,1,.65-2,2.58,2.58,0,0,1,3.61,0A3,3,0,0,1,26.65,74.66Zm-4.08,0A2.58,2.58,0,0,0,23,76.23a1.42,1.42,0,0,0,1.21.53,1.4,1.4,0,0,0,1.2-.53,2.51,2.51,0,0,0,.42-1.57,2.47,2.47,0,0,0-.42-1.55,1.44,1.44,0,0,0-1.21-.53,1.43,1.43,0,0,0-1.2.53A2.49,2.49,0,0,0,22.57,74.66Z"/>
    <path d="M35,77.35h-4.7v-.7l1.88-1.89a13.92,13.92,0,0,0,1.14-1.24,3.18,3.18,0,0,0,.41-.73,2,2,0,0,0,.13-.75,1.22,1.22,0,0,0-.34-.91,1.33,1.33,0,0,0-1-.33,2.66,2.66,0,0,0-.85.14,3.37,3.37,0,0,0-.88.54l-.43-.56a3.31,3.31,0,0,1,2.15-.82,2.27,2.27,0,0,1,1.57.52A1.76,1.76,0,0,1,34.68,72a2.64,2.64,0,0,1-.38,1.35A8.72,8.72,0,0,1,32.88,75l-1.57,1.52v0H35Z"/>
    <path d="M40.74,73.77a5.2,5.2,0,0,1-.58,2.76,2.16,2.16,0,0,1-3.54,0,5.13,5.13,0,0,1-.6-2.74A5.27,5.27,0,0,1,36.6,71a2.15,2.15,0,0,1,3.54,0A5.09,5.09,0,0,1,40.74,73.77Zm-3.9,0A5.11,5.11,0,0,0,37.21,76a1.31,1.31,0,0,0,2.34,0,7.24,7.24,0,0,0,0-4.51,1.32,1.32,0,0,0-2.34,0A5.13,5.13,0,0,0,36.84,73.77Z"/>
    <path d="M44.73,77.35h-.79V72.26c0-.43,0-.83,0-1.2-.07.06-.14.14-.23.21s-.47.39-1.16,1l-.43-.55,1.89-1.46h.68Z"/>
    <path d="M49.81,70.1a2.44,2.44,0,0,1,1.55.46,1.51,1.51,0,0,1,.57,1.25,1.58,1.58,0,0,1-.33,1,3,3,0,0,1-1,.79,3.3,3.3,0,0,1,1.23.87,1.59,1.59,0,0,1,.37,1,1.77,1.77,0,0,1-.62,1.42,2.49,2.49,0,0,1-1.7.53,2.69,2.69,0,0,1-1.76-.5,1.71,1.71,0,0,1-.61-1.42A2.13,2.13,0,0,1,49,73.61a2.71,2.71,0,0,1-1-.82,1.77,1.77,0,0,1-.29-1,1.48,1.48,0,0,1,.58-1.23A2.35,2.35,0,0,1,49.81,70.1Zm-1.54,5.44a1.1,1.1,0,0,0,.41.92,1.82,1.82,0,0,0,1.14.32A1.68,1.68,0,0,0,51,76.44a1.2,1.2,0,0,0,0-1.78A4.07,4.07,0,0,0,49.65,74a2.89,2.89,0,0,0-1,.69A1.32,1.32,0,0,0,48.27,75.54Zm1.53-4.78a1.43,1.43,0,0,0-1,.3,1,1,0,0,0-.34.78,1.09,1.09,0,0,0,.29.77,2.94,2.94,0,0,0,1.06.64,2.48,2.48,0,0,0,1-.63,1.16,1.16,0,0,0,.29-.78,1,1,0,0,0-.35-.79A1.55,1.55,0,0,0,49.8,70.76Z"/>
    <path d="M59.8,77.35V73.88a1.37,1.37,0,0,0-.3-1,1.2,1.2,0,0,0-.93-.33,1.56,1.56,0,0,0-1.24.46,2.34,2.34,0,0,0-.39,1.51v2.8h-.81v-7.6h.81v2.3a6.73,6.73,0,0,1,0,.69h0a1.65,1.65,0,0,1,.69-.61,2.16,2.16,0,0,1,1-.22,2.08,2.08,0,0,1,1.48.46,2,2,0,0,1,.49,1.48v3.5Z"/>
    <path d="M65.56,77.35l-.16-.77h0a2,2,0,0,1-.8.68,2.37,2.37,0,0,1-1,.18A1.76,1.76,0,0,1,62.32,77a1.48,1.48,0,0,1-.45-1.16c0-1.08.87-1.65,2.59-1.7l.91,0v-.33a1.36,1.36,0,0,0-.27-.93,1.09,1.09,0,0,0-.87-.31,3.46,3.46,0,0,0-1.51.42l-.25-.63a3.92,3.92,0,0,1,.87-.33,3.79,3.79,0,0,1,.94-.12,2.06,2.06,0,0,1,1.42.42,1.76,1.76,0,0,1,.46,1.36v3.66Zm-1.83-.58a1.63,1.63,0,0,0,1.19-.41,1.54,1.54,0,0,0,.43-1.16v-.49l-.81,0a2.87,2.87,0,0,0-1.39.3.9.9,0,0,0-.43.83.81.81,0,0,0,.27.66A1,1,0,0,0,63.73,76.77Z"/>
    <path d="M71.29,75.89A1.35,1.35,0,0,1,70.73,77a2.61,2.61,0,0,1-1.56.4,3.44,3.44,0,0,1-1.66-.33v-.76a3.66,3.66,0,0,0,.82.31,3.27,3.27,0,0,0,.86.11,1.87,1.87,0,0,0,1-.2A.66.66,0,0,0,70.5,76a.68.68,0,0,0-.27-.53,4.44,4.44,0,0,0-1-.53,5.41,5.41,0,0,1-1.07-.48,1.46,1.46,0,0,1-.46-.47,1.18,1.18,0,0,1-.16-.63,1.23,1.23,0,0,1,.53-1,2.53,2.53,0,0,1,1.46-.37,4.16,4.16,0,0,1,1.69.35l-.28.66a4,4,0,0,0-1.46-.34,1.56,1.56,0,0,0-.87.19.55.55,0,0,0-.3.49.62.62,0,0,0,.11.37,1.11,1.11,0,0,0,.36.29,7.61,7.61,0,0,0,.93.39A3.5,3.5,0,0,1,71,75,1.26,1.26,0,0,1,71.29,75.89Z"/>
    <path d="M77.69,71.91a2,2,0,0,1,1.64.72,3.15,3.15,0,0,1,.58,2,3.19,3.19,0,0,1-.58,2,2,2,0,0,1-1.64.73,2.27,2.27,0,0,1-1-.19,1.89,1.89,0,0,1-.73-.59H76l-.17.69H75.2v-7.6H76v1.84c0,.42,0,.79,0,1.12h0A1.92,1.92,0,0,1,77.69,71.91Zm-.12.67a1.4,1.4,0,0,0-1.19.48,2.64,2.64,0,0,0-.37,1.6,2.7,2.7,0,0,0,.38,1.62,1.43,1.43,0,0,0,1.2.48,1.27,1.27,0,0,0,1.12-.54,2.83,2.83,0,0,0,.36-1.57,2.71,2.71,0,0,0-.36-1.55A1.32,1.32,0,0,0,77.57,72.58Z"/>
    <path d="M83.59,77.44a2.46,2.46,0,0,1-1.87-.72,2.79,2.79,0,0,1-.69-2,3.07,3.07,0,0,1,.64-2,2.09,2.09,0,0,1,1.71-.76,2,2,0,0,1,1.59.66,2.53,2.53,0,0,1,.59,1.74v.52H81.87a2.17,2.17,0,0,0,.48,1.43,1.66,1.66,0,0,0,1.27.49,4.32,4.32,0,0,0,1.71-.37v.73a4.43,4.43,0,0,1-.81.26A4.24,4.24,0,0,1,83.59,77.44Zm-.22-4.87a1.37,1.37,0,0,0-1,.42,2,2,0,0,0-.45,1.17h2.8A1.79,1.79,0,0,0,84.35,73,1.22,1.22,0,0,0,83.37,72.57Z"/>
    <path d="M89.2,77.44a2.46,2.46,0,0,1-1.87-.72,2.79,2.79,0,0,1-.69-2,3.07,3.07,0,0,1,.64-2A2.09,2.09,0,0,1,89,71.9a2,2,0,0,1,1.59.66,2.53,2.53,0,0,1,.59,1.74v.52H87.48A2.17,2.17,0,0,0,88,76.25a1.66,1.66,0,0,0,1.27.49,4.32,4.32,0,0,0,1.71-.37v.73a4.43,4.43,0,0,1-.81.26A4.24,4.24,0,0,1,89.2,77.44ZM89,72.57A1.37,1.37,0,0,0,88,73a2,2,0,0,0-.45,1.17h2.8A1.79,1.79,0,0,0,90,73,1.22,1.22,0,0,0,89,72.57Z"/>
    <path d="M96.21,77.35V73.88a1.37,1.37,0,0,0-.3-1,1.17,1.17,0,0,0-.93-.33,1.55,1.55,0,0,0-1.23.46,2.29,2.29,0,0,0-.39,1.5v2.81h-.81V72h.66l.13.74h0a1.69,1.69,0,0,1,.7-.62,2.33,2.33,0,0,1,1-.21,2,2,0,0,1,1.45.46A2,2,0,0,1,97,73.85v3.5Z"/>
    <path d="M104.74,75.89a1.35,1.35,0,0,1-.56,1.15,2.61,2.61,0,0,1-1.56.4,3.46,3.46,0,0,1-1.66-.33v-.76a3.74,3.74,0,0,0,.83.31,3.15,3.15,0,0,0,.85.11,1.85,1.85,0,0,0,1-.2A.67.67,0,0,0,104,76a.68.68,0,0,0-.27-.53,4.8,4.8,0,0,0-1.06-.53,5.26,5.26,0,0,1-1.06-.48,1.5,1.5,0,0,1-.47-.47,1.28,1.28,0,0,1-.16-.63,1.21,1.21,0,0,1,.54-1,2.48,2.48,0,0,1,1.46-.37,4.2,4.2,0,0,1,1.69.35l-.29.66a4,4,0,0,0-1.46-.34,1.56,1.56,0,0,0-.87.19.54.54,0,0,0-.29.49.56.56,0,0,0,.11.37,1.06,1.06,0,0,0,.35.29,7.28,7.28,0,0,0,.94.39,3.52,3.52,0,0,1,1.28.7A1.22,1.22,0,0,1,104.74,75.89Z"/>
    <path d="M107.78,76.77a2.77,2.77,0,0,0,.42,0l.32-.06v.62a1.8,1.8,0,0,1-.39.1,2.68,2.68,0,0,1-.46,0c-1,0-1.56-.54-1.56-1.63V72.62h-.76v-.39l.76-.33.35-1.15h.47V72h1.55v.63h-1.55v3.15a1.12,1.12,0,0,0,.22.75A.82.82,0,0,0,107.78,76.77Z"/>
    <path d="M111.85,77.44a2.49,2.49,0,0,1-1.88-.72,2.83,2.83,0,0,1-.68-2,3.07,3.07,0,0,1,.64-2,2.09,2.09,0,0,1,1.71-.76,2,2,0,0,1,1.59.66,2.52,2.52,0,0,1,.58,1.74v.52h-3.68a2.12,2.12,0,0,0,.47,1.43,1.69,1.69,0,0,0,1.28.49,4.39,4.39,0,0,0,1.71-.37v.73a4.28,4.28,0,0,1-.82.26A4.09,4.09,0,0,1,111.85,77.44Zm-.22-4.87a1.35,1.35,0,0,0-1,.42,1.89,1.89,0,0,0-.45,1.17H113A1.79,1.79,0,0,0,112.6,73,1.19,1.19,0,0,0,111.63,72.57Z"/>
    <path d="M118.49,77.35l-.16-.77h0a2.18,2.18,0,0,1-.8.68,2.43,2.43,0,0,1-1,.18,1.75,1.75,0,0,1-1.25-.41,1.48,1.48,0,0,1-.45-1.16c0-1.08.86-1.65,2.59-1.7l.91,0v-.33a1.36,1.36,0,0,0-.27-.93,1.09,1.09,0,0,0-.87-.31,3.43,3.43,0,0,0-1.51.42l-.25-.63a3.91,3.91,0,0,1,1.81-.45,2.06,2.06,0,0,1,1.42.42,1.8,1.8,0,0,1,.46,1.36v3.66Zm-1.83-.58a1.64,1.64,0,0,0,1.19-.41,1.58,1.58,0,0,0,.43-1.16v-.49l-.81,0a2.91,2.91,0,0,0-1.4.3.91.91,0,0,0-.42.83.8.8,0,0,0,.26.66A1.09,1.09,0,0,0,116.66,76.77Z"/>
    <path d="M124.4,76.63h0a1.92,1.92,0,0,1-1.68.81,2,2,0,0,1-1.64-.71,3.17,3.17,0,0,1-.58-2,3.21,3.21,0,0,1,.59-2.05,2.17,2.17,0,0,1,3.3.06h.06l0-.39,0-.37V69.75h.81v7.6h-.66Zm-1.62.13a1.48,1.48,0,0,0,1.2-.45,2.25,2.25,0,0,0,.38-1.45v-.18a2.7,2.7,0,0,0-.38-1.62,1.45,1.45,0,0,0-1.21-.49,1.23,1.23,0,0,0-1.09.56,2.77,2.77,0,0,0-.38,1.56,2.64,2.64,0,0,0,.38,1.55A1.25,1.25,0,0,0,122.78,76.76Z"/>
    <path d="M126.82,70.54a.52.52,0,0,1,.13-.4.49.49,0,0,1,.35-.13.44.44,0,0,1,.33.13.5.5,0,0,1,.14.4.51.51,0,0,1-.14.41.45.45,0,0,1-.33.14A.5.5,0,0,1,127,71,.55.55,0,0,1,126.82,70.54Zm.88,6.81h-.81V72h.81Z"/>
    <path d="M130.23,77.35h-.81v-7.6h.81Z"/>
    <path d="M131.1,72H132l1.18,3.06a12.21,12.21,0,0,1,.47,1.5h0c0-.16.13-.45.27-.85s.58-1.64,1.33-3.71h.86l-2.3,6.1a3,3,0,0,1-.79,1.28,1.73,1.73,0,0,1-1.12.38,3.06,3.06,0,0,1-.74-.09V79a3.64,3.64,0,0,0,.6,0,1.24,1.24,0,0,0,1.2-.93l.29-.77Z"/>
    <path d="M142,72.62h-1.36v4.73h-.81V72.62h-1v-.36l1-.3v-.29c0-1.32.58-2,1.72-2a3.67,3.67,0,0,1,1,.17l-.21.65a2.69,2.69,0,0,0-.8-.15.77.77,0,0,0-.68.31,1.67,1.67,0,0,0-.22,1V72H142Z"/>
    <path d="M146.26,77.35l-.16-.77h0a2.11,2.11,0,0,1-.8.68,2.37,2.37,0,0,1-1,.18A1.76,1.76,0,0,1,143,77a1.48,1.48,0,0,1-.45-1.16c0-1.08.86-1.65,2.59-1.7l.91,0v-.33a1.36,1.36,0,0,0-.27-.93,1.09,1.09,0,0,0-.87-.31,3.46,3.46,0,0,0-1.51.42l-.25-.63A3.74,3.74,0,0,1,144,72a3.79,3.79,0,0,1,.94-.12,2.06,2.06,0,0,1,1.42.42,1.76,1.76,0,0,1,.46,1.36v3.66Zm-1.83-.58a1.64,1.64,0,0,0,1.19-.41,1.54,1.54,0,0,0,.43-1.16v-.49l-.81,0a2.87,2.87,0,0,0-1.39.3.9.9,0,0,0-.43.83.81.81,0,0,0,.27.66A1,1,0,0,0,144.43,76.77Z"/>
    <path d="M149.34,77.35h-.81v-7.6h.81Z"/>
    <path d="M151.87,77.35h-.81v-7.6h.81Z"/>
    <path d="M153.52,70.54a.52.52,0,0,1,.14-.4A.45.45,0,0,1,154,70a.48.48,0,0,1,.34.13.54.54,0,0,1,.14.4.55.55,0,0,1-.14.41.49.49,0,0,1-.34.14.46.46,0,0,1-.34-.14A.55.55,0,0,1,153.52,70.54Zm.88,6.81h-.81V72h.81Z"/>
    <path d="M159.78,77.35V73.88a1.37,1.37,0,0,0-.3-1,1.18,1.18,0,0,0-.93-.33,1.55,1.55,0,0,0-1.23.46,2.29,2.29,0,0,0-.39,1.5v2.81h-.81V72h.66l.13.74h0a1.69,1.69,0,0,1,.7-.62,2.33,2.33,0,0,1,1-.21,2,2,0,0,1,1.45.46,2,2,0,0,1,.49,1.49v3.5Z"/>
    <path d="M166.64,72v.52l-1,.11a1.89,1.89,0,0,1,.24.45,1.71,1.71,0,0,1,.11.62,1.58,1.58,0,0,1-.54,1.26,2.18,2.18,0,0,1-1.47.47,3.14,3.14,0,0,1-.45,0,.79.79,0,0,0-.52.69.35.35,0,0,0,.18.32,1.31,1.31,0,0,0,.62.11h1a2.13,2.13,0,0,1,1.33.36,1.29,1.29,0,0,1,.47,1.07,1.52,1.52,0,0,1-.71,1.35,3.84,3.84,0,0,1-2.08.47,2.85,2.85,0,0,1-1.62-.39,1.27,1.27,0,0,1-.57-1.11,1.23,1.23,0,0,1,.31-.84,1.55,1.55,0,0,1,.88-.48.87.87,0,0,1-.34-.29.72.72,0,0,1-.14-.46.9.9,0,0,1,.15-.51,1.54,1.54,0,0,1,.5-.42,1.44,1.44,0,0,1-.68-.59,1.92,1.92,0,0,1,.27-2.29A2.13,2.13,0,0,1,164,71.9a3,3,0,0,1,.76.09Zm-4.27,6.25a.72.72,0,0,0,.37.66,2,2,0,0,0,1,.23,2.86,2.86,0,0,0,1.51-.31,1,1,0,0,0,.49-.83.66.66,0,0,0-.27-.6,2.12,2.12,0,0,0-1-.17h-1a1.25,1.25,0,0,0-.86.27A.92.92,0,0,0,162.37,78.24Zm.44-4.53a1.1,1.1,0,0,0,.32.85,1.26,1.26,0,0,0,.88.29,1,1,0,0,0,1.19-1.16,1.06,1.06,0,0,0-1.2-1.2,1.19,1.19,0,0,0-.88.3A1.23,1.23,0,0,0,162.81,73.71Z"/>
    <path d="M172.75,72.62h-1.37v4.73h-.81V72.62h-.95v-.36l.95-.3v-.29c0-1.32.58-2,1.73-2a3.67,3.67,0,0,1,1,.17l-.21.65a2.69,2.69,0,0,0-.8-.15.78.78,0,0,0-.68.31,1.75,1.75,0,0,0-.22,1V72h1.37Z"/>
    <path d="M178.34,74.66a3,3,0,0,1-.66,2,2.31,2.31,0,0,1-1.82.73,2.43,2.43,0,0,1-1.27-.33,2.26,2.26,0,0,1-.86-1,3.4,3.4,0,0,1-.31-1.48,2.9,2.9,0,0,1,.66-2,2.57,2.57,0,0,1,3.6,0A3,3,0,0,1,178.34,74.66Zm-4.08,0a2.58,2.58,0,0,0,.41,1.57,1.65,1.65,0,0,0,2.42,0,2.58,2.58,0,0,0,.41-1.57,2.53,2.53,0,0,0-.41-1.55,1.46,1.46,0,0,0-1.22-.53,1.43,1.43,0,0,0-1.2.53A2.49,2.49,0,0,0,174.26,74.66Z"/>
    <path d="M182.2,71.9a4.06,4.06,0,0,1,.64,0l-.11.76a2.75,2.75,0,0,0-.58-.08,1.45,1.45,0,0,0-1.12.53,2,2,0,0,0-.46,1.31v2.88h-.81V72h.67l.09,1h0a2.38,2.38,0,0,1,.72-.81A1.61,1.61,0,0,1,182.2,71.9Z"/>
    <path d="M185.59,72h.87l1.17,3.06a11.07,11.07,0,0,1,.48,1.5h0c0-.16.13-.45.27-.85s.57-1.64,1.32-3.71h.87l-2.3,6.1a3,3,0,0,1-.8,1.28,1.69,1.69,0,0,1-1.12.38,3,3,0,0,1-.73-.09V79a3.64,3.64,0,0,0,.6,0,1.23,1.23,0,0,0,1.19-.93l.3-.77Z"/>
    <path d="M193.74,77.44a2.46,2.46,0,0,1-1.87-.72,2.79,2.79,0,0,1-.69-2,3.12,3.12,0,0,1,.64-2,2.12,2.12,0,0,1,1.71-.76,2,2,0,0,1,1.59.66,2.53,2.53,0,0,1,.59,1.74v.52H192a2.17,2.17,0,0,0,.48,1.43,1.66,1.66,0,0,0,1.27.49,4.32,4.32,0,0,0,1.71-.37v.73a4.43,4.43,0,0,1-.81.26A4.24,4.24,0,0,1,193.74,77.44Zm-.22-4.87a1.37,1.37,0,0,0-1,.42,2,2,0,0,0-.45,1.17h2.8A1.79,1.79,0,0,0,194.5,73,1.21,1.21,0,0,0,193.52,72.57Z"/>
    <path d="M200.38,77.35l-.16-.77h0a2,2,0,0,1-.8.68,2.37,2.37,0,0,1-1,.18,1.76,1.76,0,0,1-1.25-.41,1.48,1.48,0,0,1-.45-1.16c0-1.08.87-1.65,2.59-1.7l.91,0v-.33a1.36,1.36,0,0,0-.27-.93,1.09,1.09,0,0,0-.87-.31,3.46,3.46,0,0,0-1.51.42l-.25-.63a3.92,3.92,0,0,1,.87-.33,3.79,3.79,0,0,1,.94-.12,2.06,2.06,0,0,1,1.42.42,1.76,1.76,0,0,1,.46,1.36v3.66Zm-1.83-.58a1.63,1.63,0,0,0,1.19-.41,1.54,1.54,0,0,0,.43-1.16v-.49l-.81,0a2.87,2.87,0,0,0-1.39.3.9.9,0,0,0-.43.83.81.81,0,0,0,.27.66A1,1,0,0,0,198.55,76.77Z"/>
    <path d="M205.09,71.9a4.06,4.06,0,0,1,.64,0l-.11.76a2.67,2.67,0,0,0-.58-.08,1.45,1.45,0,0,0-1.12.53,2,2,0,0,0-.46,1.31v2.88h-.81V72h.67l.09,1h0a2.38,2.38,0,0,1,.72-.81A1.61,1.61,0,0,1,205.09,71.9Z"/>
    <path d="M210.19,75.89a1.35,1.35,0,0,1-.56,1.15,2.61,2.61,0,0,1-1.56.4,3.44,3.44,0,0,1-1.66-.33v-.76a3.74,3.74,0,0,0,.83.31,3.15,3.15,0,0,0,.85.11,1.85,1.85,0,0,0,1-.2.67.67,0,0,0,.35-.62.66.66,0,0,0-.28-.53,4.44,4.44,0,0,0-1-.53,5.26,5.26,0,0,1-1.06-.48,1.5,1.5,0,0,1-.47-.47,1.18,1.18,0,0,1-.16-.63,1.21,1.21,0,0,1,.54-1,2.48,2.48,0,0,1,1.46-.37,4.15,4.15,0,0,1,1.68.35l-.28.66a4,4,0,0,0-1.46-.34,1.56,1.56,0,0,0-.87.19.55.55,0,0,0-.3.49.62.62,0,0,0,.11.37,1.23,1.23,0,0,0,.36.29,7.28,7.28,0,0,0,.94.39,3.52,3.52,0,0,1,1.28.7A1.22,1.22,0,0,1,210.19,75.89Z"/>
    <path d="M211.39,76.83a.73.73,0,0,1,.15-.5.54.54,0,0,1,.42-.17.61.61,0,0,1,.45.17.73.73,0,0,1,.15.5.69.69,0,0,1-.16.49.57.57,0,0,1-.44.17.56.56,0,0,1-.41-.16A.65.65,0,0,1,211.39,76.83Z"/>
  </g>
  <g>
    <path d="M376,268.05a1.38,1.38,0,0,1-.55,1.17,2.37,2.37,0,0,1-1.48.42,3.6,3.6,0,0,1-1.56-.26v-.64a4,4,0,0,0,.76.24,4.65,4.65,0,0,0,.82.08,1.64,1.64,0,0,0,1-.25.84.84,0,0,0,.34-.7.91.91,0,0,0-.12-.49,1.18,1.18,0,0,0-.4-.35,7.45,7.45,0,0,0-.85-.36,2.64,2.64,0,0,1-1.14-.68,1.47,1.47,0,0,1-.34-1,1.25,1.25,0,0,1,.5-1.06,2,2,0,0,1,1.31-.39,3.78,3.78,0,0,1,1.56.32l-.2.57a3.68,3.68,0,0,0-1.38-.29,1.33,1.33,0,0,0-.82.22.75.75,0,0,0-.3.63,1,1,0,0,0,.11.49,1,1,0,0,0,.37.35,5.35,5.35,0,0,0,.79.35,3.14,3.14,0,0,1,1.24.68A1.36,1.36,0,0,1,376,268.05Z"/>
    <path d="M380.8,267.42a2.37,2.37,0,0,1-.52,1.64,1.86,1.86,0,0,1-1.46.58,2,2,0,0,1-1-.26,1.75,1.75,0,0,1-.69-.78,2.7,2.7,0,0,1-.24-1.18,2.35,2.35,0,0,1,.52-1.63,2.08,2.08,0,0,1,2.89,0A2.37,2.37,0,0,1,380.8,267.42Zm-3.26,0a2,2,0,0,0,.33,1.25,1.3,1.3,0,0,0,1.93,0,2.51,2.51,0,0,0,0-2.49,1.15,1.15,0,0,0-1-.42,1.12,1.12,0,0,0-1,.42A2,2,0,0,0,377.54,267.42Z"/>
    <path d="M382.55,265.29v2.77a1.1,1.1,0,0,0,.24.78,1,1,0,0,0,.75.26,1.21,1.21,0,0,0,1-.37,1.87,1.87,0,0,0,.31-1.19v-2.25h.65v4.28h-.54l-.09-.58h0a1.31,1.31,0,0,1-.55.49,1.92,1.92,0,0,1-.81.16,1.63,1.63,0,0,1-1.17-.37,1.55,1.55,0,0,1-.39-1.18v-2.8Z"/>
    <path d="M388.8,265.21a2.68,2.68,0,0,1,.52,0l-.09.61a2.23,2.23,0,0,0-.47-.06,1.15,1.15,0,0,0-.89.42,1.51,1.51,0,0,0-.37,1v2.3h-.65v-4.28h.54l.07.79h0a1.94,1.94,0,0,1,.58-.65A1.28,1.28,0,0,1,388.8,265.21Z"/>
    <path d="M391.83,269.64a1.83,1.83,0,0,1-1.44-.57,2.35,2.35,0,0,1-.51-1.62,2.41,2.41,0,0,1,.52-1.66,1.84,1.84,0,0,1,1.47-.58,3.26,3.26,0,0,1,.62.06,2.22,2.22,0,0,1,.48.16l-.2.55a2.89,2.89,0,0,0-.47-.14,1.85,1.85,0,0,0-.44-.06c-.87,0-1.31.56-1.31,1.67a2,2,0,0,0,.32,1.21,1.11,1.11,0,0,0,.94.42,2.93,2.93,0,0,0,1.1-.23v.57A2.34,2.34,0,0,1,391.83,269.64Z"/>
    <path d="M395.73,269.64a2,2,0,0,1-1.49-.57,2.23,2.23,0,0,1-.55-1.61,2.46,2.46,0,0,1,.51-1.64,1.68,1.68,0,0,1,1.37-.61,1.59,1.59,0,0,1,1.27.53,2,2,0,0,1,.47,1.39v.41h-2.95a1.69,1.69,0,0,0,.38,1.15,1.32,1.32,0,0,0,1,.39,3.55,3.55,0,0,0,1.37-.29v.58a3.13,3.13,0,0,1-.66.21A3.88,3.88,0,0,1,395.73,269.64Zm-.17-3.89a1,1,0,0,0-.82.34,1.46,1.46,0,0,0-.36.93h2.23a1.42,1.42,0,0,0-.27-.94A1,1,0,0,0,395.56,265.75Z"/>
    <path d="M398.32,265.7c0-.35.15-.52.46-.52s.48.17.48.52a.53.53,0,0,1-.13.39.45.45,0,0,1-.35.14.48.48,0,0,1-.33-.12A.53.53,0,0,1,398.32,265.7Zm0,3.45a.57.57,0,0,1,.12-.39.43.43,0,0,1,.34-.14.45.45,0,0,1,.35.14.65.65,0,0,1,0,.78.45.45,0,0,1-.35.14.48.48,0,0,1-.33-.12A.55.55,0,0,1,398.32,269.15Z"/>
    <path d="M405.25,269.57l-1.94-5.07h0c0,.41.05.88.05,1.43v3.64h-.61v-5.71h1l1.81,4.71h0l1.82-4.71h1v5.71h-.67v-3.68q0-.63.06-1.38h0l-2,5.06Z"/>
    <path d="M411.7,269.57H411v-5.12h-1.81v-.59h4.28v.59H411.7Z"/>
    <path d="M418,269.57l-.71-1.82H415l-.71,1.82h-.67l2.26-5.74h.56l2.24,5.74Zm-.92-2.42-.66-1.77a7.9,7.9,0,0,1-.27-.82,7.35,7.35,0,0,1-.25.82l-.67,1.77Z"/>
    <path d="M342.52,278.57h1.94v2.78a5.61,5.61,0,0,1-.92.22,6.91,6.91,0,0,1-1.08.07,2.6,2.6,0,0,1-2-.77,3,3,0,0,1-.73-2.16,3.27,3.27,0,0,1,.36-1.56,2.36,2.36,0,0,1,1-1,3.29,3.29,0,0,1,1.58-.36,4.37,4.37,0,0,1,1.7.34l-.26.59a3.76,3.76,0,0,0-1.49-.33A2.12,2.12,0,0,0,341,277a2.4,2.4,0,0,0-.58,1.72,2.51,2.51,0,0,0,.56,1.76,2.21,2.21,0,0,0,1.66.59,5,5,0,0,0,1.16-.13v-1.76h-1.28Z"/>
    <path d="M347.69,277.21a2.64,2.64,0,0,1,.51,0l-.09.61a2.09,2.09,0,0,0-.47-.06,1.13,1.13,0,0,0-.88.42,1.51,1.51,0,0,0-.37,1v2.3h-.65v-4.28h.53l.08.79h0a2,2,0,0,1,.57-.65A1.31,1.31,0,0,1,347.69,277.21Z"/>
    <path d="M351.64,281.57l-.13-.61h0a1.79,1.79,0,0,1-.64.54,1.88,1.88,0,0,1-.8.14,1.45,1.45,0,0,1-1-.32,1.21,1.21,0,0,1-.36-.94c0-.86.7-1.31,2.08-1.36l.72,0v-.27a1.11,1.11,0,0,0-.21-.74.91.91,0,0,0-.7-.24,2.83,2.83,0,0,0-1.21.33l-.2-.5a3.91,3.91,0,0,1,.7-.27,3.2,3.2,0,0,1,.75-.09,1.69,1.69,0,0,1,1.14.33,1.45,1.45,0,0,1,.37,1.09v2.93Zm-1.47-.46a1.31,1.31,0,0,0,.95-.33,1.23,1.23,0,0,0,.35-.93v-.39l-.65,0a2.34,2.34,0,0,0-1.11.24.72.72,0,0,0-.35.66.66.66,0,0,0,.22.54A.89.89,0,0,0,350.17,281.11Z"/>
    <path d="M355.45,281.64a1.92,1.92,0,0,1-.77-.15,1.46,1.46,0,0,1-.58-.47h-.05a4.39,4.39,0,0,1,.05.71v1.76h-.65v-6.2H354l.09.58h0a1.64,1.64,0,0,1,.58-.51,1.86,1.86,0,0,1,.77-.15,1.58,1.58,0,0,1,1.31.58,2.55,2.55,0,0,1,.46,1.63,2.5,2.5,0,0,1-.47,1.64A1.57,1.57,0,0,1,355.45,281.64Zm-.1-3.88a1.16,1.16,0,0,0-1,.36,1.94,1.94,0,0,0-.3,1.16v.14a2.15,2.15,0,0,0,.3,1.29,1.14,1.14,0,0,0,1,.39,1,1,0,0,0,.87-.45,2.13,2.13,0,0,0,.31-1.24,2,2,0,0,0-.31-1.22A1,1,0,0,0,355.35,277.76Z"/>
    <path d="M361.29,281.57V278.8a1.1,1.1,0,0,0-.24-.78,1,1,0,0,0-.75-.26,1.22,1.22,0,0,0-1,.37,1.88,1.88,0,0,0-.31,1.2v2.24h-.64v-6.08H359v1.84a4.22,4.22,0,0,1,0,.55h0a1.31,1.31,0,0,1,.55-.49,1.71,1.71,0,0,1,.8-.17,1.64,1.64,0,0,1,1.18.37,1.57,1.57,0,0,1,.39,1.18v2.8Z"/>
    <path d="M363.21,276.13a.45.45,0,0,1,.11-.33.41.41,0,0,1,.54,0,.42.42,0,0,1,.12.33.41.41,0,0,1-.12.32.39.39,0,0,1-.54,0A.44.44,0,0,1,363.21,276.13Zm.7,5.44h-.64v-4.28h.64Z"/>
    <path d="M367,281.64a1.83,1.83,0,0,1-1.44-.57,2.35,2.35,0,0,1-.51-1.62,2.41,2.41,0,0,1,.52-1.66,1.84,1.84,0,0,1,1.47-.58,3.26,3.26,0,0,1,.62.06,2,2,0,0,1,.48.16L368,278a3.23,3.23,0,0,0-.47-.14,2,2,0,0,0-.45-.06c-.87,0-1.31.56-1.31,1.67a2,2,0,0,0,.32,1.21,1.11,1.11,0,0,0,.94.42,2.93,2.93,0,0,0,1.1-.23v.57A2.34,2.34,0,0,1,367,281.64Z"/>
    <path d="M369,277.7c0-.35.16-.52.46-.52s.49.17.49.52a.57.57,0,0,1-.13.39.49.49,0,0,1-.36.14.48.48,0,0,1-.33-.12A.57.57,0,0,1,369,277.7Zm0,3.45a.57.57,0,0,1,.12-.39.44.44,0,0,1,.34-.14.47.47,0,0,1,.36.14.65.65,0,0,1,0,.78.49.49,0,0,1-.36.14.48.48,0,0,1-.33-.12A.59.59,0,0,1,369,281.15Z"/>
    <path d="M376.63,280.05a1.41,1.41,0,0,1-.55,1.17,2.4,2.4,0,0,1-1.49.42,3.66,3.66,0,0,1-1.56-.26v-.64a4.34,4.34,0,0,0,.77.24,4.56,4.56,0,0,0,.82.08,1.66,1.66,0,0,0,1-.25.83.83,0,0,0,.33-.7.91.91,0,0,0-.12-.49,1.24,1.24,0,0,0-.39-.35,7.45,7.45,0,0,0-.85-.36,2.53,2.53,0,0,1-1.14-.68,1.47,1.47,0,0,1-.34-1,1.27,1.27,0,0,1,.49-1.06,2.06,2.06,0,0,1,1.31-.39,3.86,3.86,0,0,1,1.57.32l-.21.57a3.67,3.67,0,0,0-1.37-.29,1.36,1.36,0,0,0-.83.22.77.77,0,0,0-.29.63.91.91,0,0,0,.11.49,1,1,0,0,0,.37.35,4.9,4.9,0,0,0,.79.35,3.22,3.22,0,0,1,1.24.68A1.41,1.41,0,0,1,376.63,280.05Z"/>
    <path d="M380.33,281.57l-.13-.61h0a1.79,1.79,0,0,1-.64.54,1.88,1.88,0,0,1-.8.14,1.41,1.41,0,0,1-1-.32,1.21,1.21,0,0,1-.36-.94c0-.86.69-1.31,2.07-1.36l.73,0v-.27A1.11,1.11,0,0,0,380,278a.9.9,0,0,0-.69-.24,2.83,2.83,0,0,0-1.22.33l-.19-.5a3.54,3.54,0,0,1,.69-.27,3.2,3.2,0,0,1,.75-.09,1.69,1.69,0,0,1,1.14.33,1.41,1.41,0,0,1,.37,1.09v2.93Zm-1.47-.46a1.31,1.31,0,0,0,.95-.33,1.23,1.23,0,0,0,.35-.93v-.39l-.65,0a2.37,2.37,0,0,0-1.11.24.72.72,0,0,0-.35.66.69.69,0,0,0,.22.54A.89.89,0,0,0,378.86,281.11Z"/>
    <path d="M385.64,281.57l-.78-2.52c-.05-.15-.15-.5-.28-1h0c-.11.45-.2.81-.28,1.05l-.81,2.51h-.75l-1.16-4.28h.68c.27,1.07.48,1.89.63,2.45s.22.94.25,1.14h0c0-.15.07-.34.14-.58s.11-.42.16-.56l.79-2.45h.7l.77,2.45a9,9,0,0,1,.29,1.13h0a3.34,3.34,0,0,1,.09-.43q.06-.3.81-3.15h.67l-1.18,4.28Z"/>
    <path d="M387.69,277.29h.69l.94,2.44a8.6,8.6,0,0,1,.38,1.2h0c0-.13.11-.36.22-.68s.46-1.31,1.06-3h.69l-1.84,4.87a2.43,2.43,0,0,1-.64,1,1.35,1.35,0,0,1-.89.3,2.32,2.32,0,0,1-.59-.07v-.52a2.44,2.44,0,0,0,.48.05,1,1,0,0,0,1-.75l.23-.61Z"/>
    <path d="M394.21,281.64a2,2,0,0,1-1.5-.57,2.23,2.23,0,0,1-.55-1.61,2.46,2.46,0,0,1,.51-1.64,1.69,1.69,0,0,1,1.37-.61,1.58,1.58,0,0,1,1.27.53,2,2,0,0,1,.47,1.39v.41h-2.95a1.69,1.69,0,0,0,.38,1.15,1.32,1.32,0,0,0,1,.39,3.51,3.51,0,0,0,1.37-.29v.58a3.25,3.25,0,0,1-.65.21A4,4,0,0,1,394.21,281.64Zm-.18-3.89a1,1,0,0,0-.82.34,1.46,1.46,0,0,0-.36.93h2.24a1.37,1.37,0,0,0-.28-.94A1,1,0,0,0,394,277.75Z"/>
    <path d="M398.84,277.21a2.64,2.64,0,0,1,.51,0l-.09.61a2.16,2.16,0,0,0-.47-.06,1.16,1.16,0,0,0-.89.42,1.56,1.56,0,0,0-.36,1v2.3h-.65v-4.28h.53l.08.79h0a2,2,0,0,1,.57-.65A1.31,1.31,0,0,1,398.84,277.21Z"/>
    <path d="M404.77,276.37a1.88,1.88,0,0,0-1.48.62,2.5,2.5,0,0,0-.55,1.72,2.56,2.56,0,0,0,.53,1.73,1.86,1.86,0,0,0,1.5.61,5.25,5.25,0,0,0,1.36-.21v.58a4.18,4.18,0,0,1-1.47.22,2.45,2.45,0,0,1-1.94-.76,3.15,3.15,0,0,1-.69-2.18,3.39,3.39,0,0,1,.33-1.54,2.37,2.37,0,0,1,.95-1,2.91,2.91,0,0,1,1.47-.36,3.52,3.52,0,0,1,1.57.33l-.28.57A3,3,0,0,0,404.77,276.37Z"/>
    <path d="M407.93,281.57h-.65v-6.08h.65Z"/>
    <path d="M409.25,276.13a.41.41,0,0,1,.11-.33.36.36,0,0,1,.27-.1.39.39,0,0,1,.27.1.45.45,0,0,1,.11.33.44.44,0,0,1-.11.32.4.4,0,0,1-.27.11.37.37,0,0,1-.27-.11A.4.4,0,0,1,409.25,276.13Zm.7,5.44h-.65v-4.28H410Z"/>
    <path d="M413,281.64a1.83,1.83,0,0,1-1.44-.57,2.35,2.35,0,0,1-.51-1.62,2.46,2.46,0,0,1,.51-1.66,1.88,1.88,0,0,1,1.48-.58,3.34,3.34,0,0,1,.62.06,2.43,2.43,0,0,1,.48.16l-.2.55a2.89,2.89,0,0,0-.47-.14,2,2,0,0,0-.45-.06c-.87,0-1.3.56-1.3,1.67a1.94,1.94,0,0,0,.32,1.21,1.1,1.1,0,0,0,.94.42,3,3,0,0,0,1.1-.23v.57A2.34,2.34,0,0,1,413,281.64Z"/>
    <path d="M415.77,279.38c.12-.16.29-.37.52-.63l1.38-1.46h.77l-1.74,1.82,1.86,2.46h-.79l-1.51-2-.49.43v1.6h-.64v-6.08h.64v3.22c0,.14,0,.37,0,.67Z"/>
  </g>
  <line class="cls-12" x1="94.08" y1="242.19" x2="105.72" y2="242.19"/>
  <g>
    <path class="cls-2" d="M108.05,241.3l0-.08a7.73,7.73,0,0,1,.24-.76c.11-.31.23-.6.36-.88H109a15.43,15.43,0,0,0-.35,1.72Z"/>
    <path class="cls-2" d="M111.56,244.58H111V241q0-.45,0-.84l-.16.15-.81.67-.31-.39,1.33-1h.48Z"/>
    <path class="cls-2" d="M114.09,244.58l2.07-4.47h-2.72v-.53h3.32V240l-2,4.54Z"/>
    <path class="cls-2" d="M119.22,243v-.52h1.68V243Z"/>
    <path class="cls-2" d="M124.06,239.58l0,.08c-.06.23-.14.49-.25.79s-.23.59-.35.85h-.42a17.54,17.54,0,0,0,.35-1.72Z"/>
    <path class="cls-2" d="M126.64,244.58h-.55V241c0-.3,0-.58,0-.84a1.17,1.17,0,0,1-.16.15l-.81.67-.3-.39,1.32-1h.48Z"/>
    <path class="cls-2" d="M130.19,239.51a1.72,1.72,0,0,1,1.09.32,1.13,1.13,0,0,1,.17,1.55,2,2,0,0,1-.73.56,2.35,2.35,0,0,1,.86.61,1.15,1.15,0,0,1,.26.74,1.25,1.25,0,0,1-.44,1,1.75,1.75,0,0,1-1.19.37,1.94,1.94,0,0,1-1.23-.35,1.23,1.23,0,0,1-.43-1,1.48,1.48,0,0,1,1-1.34,2,2,0,0,1-.68-.58,1.24,1.24,0,0,1-.2-.69,1,1,0,0,1,.4-.86A1.65,1.65,0,0,1,130.19,239.51Zm-1.08,3.81a.78.78,0,0,0,.29.64,1.27,1.27,0,0,0,.8.23A1.17,1.17,0,0,0,131,244a.82.82,0,0,0,.29-.66.81.81,0,0,0-.27-.59,2.77,2.77,0,0,0-.93-.5,2.11,2.11,0,0,0-.74.49A.92.92,0,0,0,129.11,243.32Zm1.08-3.35a1,1,0,0,0-.67.21.7.7,0,0,0-.25.55.76.76,0,0,0,.21.54,2.06,2.06,0,0,0,.74.45,1.9,1.9,0,0,0,.69-.44.81.81,0,0,0,.21-.55.69.69,0,0,0-.25-.55A1,1,0,0,0,130.19,240Z"/>
  </g>
  <line class="cls-12" x1="55.2" y1="163.11" x2="66.84" y2="163.11"/>
  <g>
    <path class="cls-2" d="M69.17,162.22l0-.07a7.8,7.8,0,0,1,.24-.77,8.75,8.75,0,0,1,.36-.87h.42a15.74,15.74,0,0,0-.35,1.71Z"/>
    <path class="cls-2" d="M72.68,165.51h-.56v-3.57q0-.44,0-.84l-.16.15c-.06.06-.33.28-.81.67l-.3-.39,1.32-1h.48Z"/>
    <path class="cls-2" d="M77.67,161.68a1.16,1.16,0,0,1-.26.79,1.33,1.33,0,0,1-.76.4v0a1.47,1.47,0,0,1,.89.38,1.16,1.16,0,0,1,.29.81,1.31,1.31,0,0,1-.5,1.1,2.23,2.23,0,0,1-1.41.38,4,4,0,0,1-.72-.06,2.53,2.53,0,0,1-.64-.21v-.54a3,3,0,0,0,.69.25,3.5,3.5,0,0,0,.7.08c.86,0,1.29-.34,1.29-1s-.48-.91-1.43-.91h-.49v-.49h.5a1.53,1.53,0,0,0,.93-.26.86.86,0,0,0,.34-.72.73.73,0,0,0-.25-.57,1.05,1.05,0,0,0-.69-.21,2,2,0,0,0-.61.09,2.74,2.74,0,0,0-.67.33l-.29-.38a2.58,2.58,0,0,1,.71-.39,2.65,2.65,0,0,1,.85-.13,1.73,1.73,0,0,1,1.13.33A1.11,1.11,0,0,1,77.67,161.68Z"/>
    <path class="cls-2" d="M80.34,163.89v-.52H82v.52Z"/>
    <path class="cls-2" d="M85.18,160.51l.06.07c-.06.23-.15.5-.26.8s-.23.58-.35.84h-.42c.16-.65.28-1.22.35-1.71Z"/>
    <path class="cls-2" d="M87.76,165.51h-.55v-3.57c0-.29,0-.57,0-.84a1.17,1.17,0,0,1-.16.15c0,.06-.33.28-.81.67l-.3-.39,1.32-1h.48Z"/>
    <path class="cls-2" d="M93.18,164.36h-.74v1.15H91.9v-1.15H89.47v-.5l2.37-3.38h.6v3.36h.74Zm-1.28-.52v-1.66c0-.33,0-.69,0-1.1h0c-.11.21-.21.4-.3.54L90,163.84Z"/>
  </g>
</svg>
