<svg id="Layer_1" data-name="Layer 1" xmlns="http://www.w3.org/2000/svg" viewBox="0 0 423.23 268.74">
  <defs>
    <style>
      .cls-1 {
        fill: #e5e5e5;
      }

      .cls-2 {
        fill: #555;
      }

      .cls-11, .cls-12, .cls-3, .cls-4, .cls-5, .cls-6, .cls-7 {
        fill: none;
      }

      .cls-3 {
        stroke: #fff;
        stroke-width: 0.8px;
      }

      .cls-11, .cls-3 {
        stroke-linecap: square;
      }

      .cls-11, .cls-3, .cls-5, .cls-6, .cls-7 {
        stroke-linejoin: round;
      }

      .cls-5 {
        stroke: #5580b6;
      }

      .cls-5, .cls-6 {
        stroke-width: 0.5px;
      }

      .cls-6 {
        stroke: #f07b7b;
      }

      .cls-7 {
        stroke: gray;
        stroke-width: 1.5px;
      }

      .cls-8 {
        fill: #f4d678;
      }

      .cls-9 {
        fill: #5580b6;
      }

      .cls-10 {
        fill: #f07b7b;
      }

      .cls-11, .cls-12 {
        stroke: #bababa;
      }

      .cls-11 {
        stroke-width: 2px;
      }

      .cls-12 {
        stroke-miterlimit: 10;
      }

      .cls-13 {
        fill: #545454;
      }
    </style>
  </defs>
  <title>percent_change_by_borough</title>
  <rect class="cls-1" y="17" width="423.23" height="251.74"/>
  <g>
    <path class="cls-2" d="M52.92,90.05l-2.43-6.33h0c0,.5.06,1.1.06,1.79v4.54h-.76V82.91H51l2.26,5.89h0l2.28-5.89h1.24v7.14H56v-4.6c0-.53,0-1.1.07-1.72h0l-2.45,6.32Z"/>
    <path class="cls-2" d="M62,90.05l-.16-.76h0A2.18,2.18,0,0,1,61,90a2.45,2.45,0,0,1-1,.18,1.83,1.83,0,0,1-1.25-.41,1.49,1.49,0,0,1-.45-1.17c0-1.08.87-1.64,2.6-1.7l.9,0v-.33a1.36,1.36,0,0,0-.27-.93,1.11,1.11,0,0,0-.86-.3,3.62,3.62,0,0,0-1.52.41l-.25-.62a4.77,4.77,0,0,1,.87-.34,3.79,3.79,0,0,1,.94-.12,2,2,0,0,1,1.42.43,1.75,1.75,0,0,1,.46,1.36v3.65Zm-1.83-.57a1.67,1.67,0,0,0,1.19-.41,1.55,1.55,0,0,0,.43-1.17v-.48l-.81,0a3.12,3.12,0,0,0-1.39.3.91.91,0,0,0-.43.83.83.83,0,0,0,.27.67A1.11,1.11,0,0,0,60.12,89.48Z"/>
    <path class="cls-2" d="M67.89,90.05V86.59a1.4,1.4,0,0,0-.3-1,1.23,1.23,0,0,0-.93-.32,1.54,1.54,0,0,0-1.23.45,2.32,2.32,0,0,0-.39,1.5v2.81h-.82V84.7h.66l.14.73h0a1.67,1.67,0,0,1,.7-.61,2.22,2.22,0,0,1,1-.22,2,2,0,0,1,1.46.47,2,2,0,0,1,.49,1.49v3.49Z"/>
    <path class="cls-2" d="M74,90.05V86.59a1.4,1.4,0,0,0-.29-1,1.24,1.24,0,0,0-.94-.32,1.52,1.52,0,0,0-1.23.46,2.32,2.32,0,0,0-.39,1.5v2.8h-.81v-7.6h.81v2.3a4.41,4.41,0,0,1,0,.69h.05a1.68,1.68,0,0,1,.68-.61,2.34,2.34,0,0,1,1-.22,2,2,0,0,1,1.47.47,1.94,1.94,0,0,1,.49,1.48v3.49Z"/>
    <path class="cls-2" d="M79.79,90.05l-.16-.76h0a2.2,2.2,0,0,1-.8.68,2.37,2.37,0,0,1-1,.18,1.81,1.81,0,0,1-1.25-.41,1.49,1.49,0,0,1-.45-1.17c0-1.08.86-1.64,2.59-1.7l.91,0v-.33a1.36,1.36,0,0,0-.27-.93,1.12,1.12,0,0,0-.87-.3,3.58,3.58,0,0,0-1.51.41l-.25-.62a4.26,4.26,0,0,1,.87-.34,3.79,3.79,0,0,1,.94-.12,2,2,0,0,1,1.42.43,1.75,1.75,0,0,1,.46,1.36v3.65ZM78,89.48a1.69,1.69,0,0,0,1.19-.41,1.55,1.55,0,0,0,.43-1.17v-.48l-.81,0a3.12,3.12,0,0,0-1.39.3.91.91,0,0,0-.43.83.83.83,0,0,0,.27.67A1.09,1.09,0,0,0,78,89.48Z"/>
    <path class="cls-2" d="M83.79,89.48a3,3,0,0,0,.42,0,1.61,1.61,0,0,0,.31-.07V90a1.23,1.23,0,0,1-.39.11,2.6,2.6,0,0,1-.46,0c-1,0-1.55-.55-1.55-1.64V85.33h-.77v-.39l.77-.34.34-1.14h.47V84.7h1.55v.63H82.93v3.15a1.09,1.09,0,0,0,.23.74A.8.8,0,0,0,83.79,89.48Z"/>
    <path class="cls-2" d="M87.32,89.48a3,3,0,0,0,.42,0,1.61,1.61,0,0,0,.31-.07V90a1.23,1.23,0,0,1-.39.11,2.6,2.6,0,0,1-.46,0c-1,0-1.55-.55-1.55-1.64V85.33h-.77v-.39l.77-.34L86,83.46h.47V84.7H88v.63H86.46v3.15a1.09,1.09,0,0,0,.23.74A.8.8,0,0,0,87.32,89.48Z"/>
    <path class="cls-2" d="M92.41,90.05l-.16-.76h0a2.12,2.12,0,0,1-.8.68,2.37,2.37,0,0,1-1,.18,1.81,1.81,0,0,1-1.25-.41,1.49,1.49,0,0,1-.45-1.17c0-1.08.87-1.64,2.59-1.7l.91,0v-.33a1.36,1.36,0,0,0-.27-.93,1.12,1.12,0,0,0-.87-.3,3.58,3.58,0,0,0-1.51.41l-.25-.62a4.77,4.77,0,0,1,.87-.34,3.79,3.79,0,0,1,.94-.12,2,2,0,0,1,1.42.43A1.75,1.75,0,0,1,93,86.4v3.65Zm-1.83-.57a1.67,1.67,0,0,0,1.19-.41,1.55,1.55,0,0,0,.43-1.17v-.48l-.81,0a3.12,3.12,0,0,0-1.39.3.91.91,0,0,0-.43.83.83.83,0,0,0,.27.67A1.09,1.09,0,0,0,90.58,89.48Z"/>
    <path class="cls-2" d="M98.35,90.05V86.59a1.4,1.4,0,0,0-.3-1,1.23,1.23,0,0,0-.93-.32,1.58,1.58,0,0,0-1.24.45,2.32,2.32,0,0,0-.39,1.5v2.81h-.81V84.7h.66l.13.73h0a1.67,1.67,0,0,1,.7-.61,2.22,2.22,0,0,1,1-.22,2,2,0,0,1,1.46.47,2,2,0,0,1,.49,1.49v3.49Z"/>
  </g>
  <g>
    <path class="cls-2" d="M150.86,82.91h2a3.72,3.72,0,0,1,2.05.43,1.5,1.5,0,0,1,.64,1.34,1.56,1.56,0,0,1-.36,1,1.7,1.7,0,0,1-1,.53v0c1.08.19,1.63.76,1.63,1.71a1.82,1.82,0,0,1-.65,1.49,2.75,2.75,0,0,1-1.81.54h-2.49Zm.83,3.06h1.37a2.17,2.17,0,0,0,1.26-.28,1.05,1.05,0,0,0,.39-.93.94.94,0,0,0-.43-.86,2.66,2.66,0,0,0-1.37-.27h-1.22Zm0,.7v2.67h1.49a2.15,2.15,0,0,0,1.3-.33,1.24,1.24,0,0,0,.44-1.05,1.09,1.09,0,0,0-.45-1,2.37,2.37,0,0,0-1.36-.32Z"/>
    <path class="cls-2" d="M159.66,84.6a3.1,3.1,0,0,1,.64.06l-.11.75a2.75,2.75,0,0,0-.59-.07,1.44,1.44,0,0,0-1.11.53,1.91,1.91,0,0,0-.46,1.31v2.87h-.81V84.7h.67l.09,1h0a2.26,2.26,0,0,1,.72-.8A1.59,1.59,0,0,1,159.66,84.6Z"/>
    <path class="cls-2" d="M165.92,87.37a2.94,2.94,0,0,1-.66,2,2.33,2.33,0,0,1-1.82.74,2.38,2.38,0,0,1-1.28-.34,2.24,2.24,0,0,1-.86-1,3.43,3.43,0,0,1-.3-1.48,2.94,2.94,0,0,1,.66-2,2.32,2.32,0,0,1,1.81-.73,2.27,2.27,0,0,1,1.79.75A2.94,2.94,0,0,1,165.92,87.37Zm-4.08,0a2.55,2.55,0,0,0,.41,1.56,1.42,1.42,0,0,0,1.21.54,1.46,1.46,0,0,0,1.21-.53,2.58,2.58,0,0,0,.41-1.57,2.51,2.51,0,0,0-.41-1.55,1.48,1.48,0,0,0-1.22-.53,1.45,1.45,0,0,0-1.2.52A2.53,2.53,0,0,0,161.84,87.37Z"/>
    <path class="cls-2" d="M172,87.37a2.94,2.94,0,0,1-.66,2,2.33,2.33,0,0,1-1.82.74,2.38,2.38,0,0,1-1.28-.34,2.24,2.24,0,0,1-.86-1,3.43,3.43,0,0,1-.3-1.48,2.94,2.94,0,0,1,.66-2,2.32,2.32,0,0,1,1.81-.73,2.27,2.27,0,0,1,1.79.75A2.94,2.94,0,0,1,172,87.37Zm-4.08,0a2.55,2.55,0,0,0,.41,1.56,1.42,1.42,0,0,0,1.21.54,1.46,1.46,0,0,0,1.21-.53,2.58,2.58,0,0,0,.41-1.57,2.51,2.51,0,0,0-.41-1.55,1.48,1.48,0,0,0-1.22-.53,1.45,1.45,0,0,0-1.2.52A2.53,2.53,0,0,0,167.88,87.37Z"/>
    <path class="cls-2" d="M174.18,87.31a8.36,8.36,0,0,1,.64-.78l1.73-1.83h1L175.34,87l2.32,3.07h-1l-1.89-2.53-.61.53v2h-.8v-7.6h.8v4c0,.18,0,.46,0,.83Z"/>
    <path class="cls-2" d="M179.44,90.05h-.81v-7.6h.81Z"/>
    <path class="cls-2" d="M180.31,84.7h.87l1.17,3a11.08,11.08,0,0,1,.48,1.51h0c0-.17.13-.45.26-.85s.58-1.64,1.33-3.71h.87L183,90.79a3.14,3.14,0,0,1-.8,1.29,1.72,1.72,0,0,1-1.12.37,3,3,0,0,1-.73-.08v-.65a2.77,2.77,0,0,0,.6.06,1.24,1.24,0,0,0,1.19-.94l.3-.76Z"/>
    <path class="cls-2" d="M189.86,90.05V86.59a1.4,1.4,0,0,0-.3-1,1.23,1.23,0,0,0-.93-.32,1.54,1.54,0,0,0-1.23.45,2.32,2.32,0,0,0-.39,1.5v2.81h-.81V84.7h.66l.13.73h0a1.64,1.64,0,0,1,.69-.61,2.23,2.23,0,0,1,1-.22,2,2,0,0,1,1.45.47,2,2,0,0,1,.49,1.49v3.49Z"/>
  </g>
  <g>
    <path class="cls-2" d="M257.69,86.47a4.28,4.28,0,0,1-.55,2.28A2.73,2.73,0,0,1,255.58,90l1.7,1.77h-1.21l-1.39-1.61h-.27a3.06,3.06,0,0,1-2.43-1,4.7,4.7,0,0,1,0-5.42,3.12,3.12,0,0,1,2.44-1,3.06,3.06,0,0,1,2.41,1A4,4,0,0,1,257.69,86.47Zm-5.69,0a3.39,3.39,0,0,0,.62,2.2,2.52,2.52,0,0,0,3.59,0,3.44,3.44,0,0,0,.6-2.2,3.39,3.39,0,0,0-.6-2.18,2.16,2.16,0,0,0-1.79-.75,2.19,2.19,0,0,0-1.8.75A3.37,3.37,0,0,0,252,86.47Z"/>
    <path class="cls-2" d="M259.92,84.7v3.47a1.4,1.4,0,0,0,.3,1,1.23,1.23,0,0,0,.93.32,1.52,1.52,0,0,0,1.23-.46,2.29,2.29,0,0,0,.39-1.5V84.7h.81v5.35h-.67l-.12-.72h0a1.63,1.63,0,0,1-.69.61,2.34,2.34,0,0,1-1,.21,2.08,2.08,0,0,1-1.46-.46,2,2,0,0,1-.49-1.49V84.7Z"/>
    <path class="cls-2" d="M267.56,90.15a2.45,2.45,0,0,1-1.87-.72,2.8,2.8,0,0,1-.69-2,3.1,3.1,0,0,1,.64-2.06,2.12,2.12,0,0,1,1.71-.76,2,2,0,0,1,1.59.66,2.56,2.56,0,0,1,.59,1.75v.51h-3.69a2.08,2.08,0,0,0,.48,1.43,1.62,1.62,0,0,0,1.27.49,4.38,4.38,0,0,0,1.71-.36v.72a4.35,4.35,0,0,1-.82.27A4.77,4.77,0,0,1,267.56,90.15Zm-.22-4.87a1.33,1.33,0,0,0-1,.42,2,2,0,0,0-.45,1.16h2.8a1.81,1.81,0,0,0-.34-1.17A1.22,1.22,0,0,0,267.34,85.28Z"/>
    <path class="cls-2" d="M273.17,90.15a2.45,2.45,0,0,1-1.87-.72,2.8,2.8,0,0,1-.69-2,3.1,3.1,0,0,1,.64-2.06A2.12,2.12,0,0,1,273,84.6a2,2,0,0,1,1.59.66,2.56,2.56,0,0,1,.59,1.75v.51h-3.69a2.13,2.13,0,0,0,.48,1.43,1.62,1.62,0,0,0,1.27.49,4.38,4.38,0,0,0,1.71-.36v.72a4.35,4.35,0,0,1-.82.27A4.77,4.77,0,0,1,273.17,90.15ZM273,85.28a1.33,1.33,0,0,0-1,.42,2,2,0,0,0-.45,1.16h2.8a1.81,1.81,0,0,0-.34-1.17A1.22,1.22,0,0,0,273,85.28Z"/>
    <path class="cls-2" d="M280.18,90.05V86.59a1.4,1.4,0,0,0-.3-1,1.23,1.23,0,0,0-.93-.32,1.54,1.54,0,0,0-1.23.45,2.32,2.32,0,0,0-.39,1.5v2.81h-.81V84.7h.66l.13.73h0a1.61,1.61,0,0,1,.7-.61,2.19,2.19,0,0,1,1-.22,2,2,0,0,1,1.45.47,2,2,0,0,1,.49,1.49v3.49Z"/>
    <path class="cls-2" d="M286.11,88.59a1.34,1.34,0,0,1-.56,1.15,2.61,2.61,0,0,1-1.56.41,3.34,3.34,0,0,1-1.66-.34v-.75a4.31,4.31,0,0,0,.83.31,3.67,3.67,0,0,0,.85.11,2,2,0,0,0,1-.2.69.69,0,0,0,.34-.62.65.65,0,0,0-.27-.53A4.2,4.2,0,0,0,284,87.6a5.77,5.77,0,0,1-1.06-.49,1.32,1.32,0,0,1-.47-.47,1.23,1.23,0,0,1-.16-.63,1.2,1.2,0,0,1,.54-1,2.48,2.48,0,0,1,1.46-.38A4.37,4.37,0,0,1,286,85l-.29.66a3.94,3.94,0,0,0-1.46-.33,1.66,1.66,0,0,0-.87.18.55.55,0,0,0-.29.5.6.6,0,0,0,.11.37,1,1,0,0,0,.35.28,6.24,6.24,0,0,0,.94.4,3.38,3.38,0,0,1,1.28.7A1.2,1.2,0,0,1,286.11,88.59Z"/>
  </g>
  <g>
    <path class="cls-2" d="M344.81,90.05H344v-6.4h-2.26v-.74h5.35v.74h-2.26Z"/>
    <path class="cls-2" d="M351.68,90.05V86.59a1.45,1.45,0,0,0-.29-1,1.24,1.24,0,0,0-.94-.32,1.52,1.52,0,0,0-1.23.46,2.32,2.32,0,0,0-.39,1.5v2.8H348v-7.6h.81v2.3a4.41,4.41,0,0,1,0,.69h0a1.68,1.68,0,0,1,.68-.61,2.34,2.34,0,0,1,1-.22,2,2,0,0,1,1.47.47,1.94,1.94,0,0,1,.5,1.48v3.49Z"/>
    <path class="cls-2" d="M356.42,90.15a2.46,2.46,0,0,1-1.87-.72,2.8,2.8,0,0,1-.69-2,3.1,3.1,0,0,1,.64-2.06,2.14,2.14,0,0,1,1.71-.76,2,2,0,0,1,1.59.66,2.56,2.56,0,0,1,.59,1.75v.51H354.7a2.13,2.13,0,0,0,.48,1.43,1.62,1.62,0,0,0,1.27.49,4.3,4.3,0,0,0,1.71-.36v.72a4.52,4.52,0,0,1-.81.27A5,5,0,0,1,356.42,90.15Zm-.22-4.87a1.33,1.33,0,0,0-1,.42,2,2,0,0,0-.45,1.16h2.8a1.76,1.76,0,0,0-.34-1.17A1.22,1.22,0,0,0,356.2,85.28Z"/>
    <path class="cls-2" d="M362.49,82.91h2a3.72,3.72,0,0,1,2.05.43,1.48,1.48,0,0,1,.64,1.34,1.56,1.56,0,0,1-.36,1,1.7,1.7,0,0,1-1,.53v0c1.08.19,1.63.76,1.63,1.71a1.82,1.82,0,0,1-.65,1.49,2.75,2.75,0,0,1-1.81.54h-2.49Zm.83,3.06h1.37a2.15,2.15,0,0,0,1.26-.28,1.05,1.05,0,0,0,.39-.93.94.94,0,0,0-.43-.86,2.66,2.66,0,0,0-1.37-.27h-1.22Zm0,.7v2.67h1.49a2.13,2.13,0,0,0,1.3-.33,1.24,1.24,0,0,0,.44-1.05,1.09,1.09,0,0,0-.45-1,2.37,2.37,0,0,0-1.36-.32Z"/>
    <path class="cls-2" d="M371.29,84.6a3.1,3.1,0,0,1,.64.06l-.11.75a2.75,2.75,0,0,0-.59-.07,1.44,1.44,0,0,0-1.11.53,1.91,1.91,0,0,0-.46,1.31v2.87h-.81V84.7h.67l.09,1h0a2.26,2.26,0,0,1,.72-.8A1.59,1.59,0,0,1,371.29,84.6Z"/>
    <path class="cls-2" d="M377.55,87.37a2.94,2.94,0,0,1-.66,2,2.33,2.33,0,0,1-1.82.74,2.4,2.4,0,0,1-1.28-.34,2.24,2.24,0,0,1-.86-1,3.43,3.43,0,0,1-.3-1.48,2.94,2.94,0,0,1,.66-2,2.32,2.32,0,0,1,1.81-.73,2.27,2.27,0,0,1,1.79.75A2.94,2.94,0,0,1,377.55,87.37Zm-4.08,0a2.55,2.55,0,0,0,.41,1.56,1.44,1.44,0,0,0,1.21.54,1.46,1.46,0,0,0,1.21-.53,2.58,2.58,0,0,0,.41-1.57,2.51,2.51,0,0,0-.41-1.55,1.46,1.46,0,0,0-1.22-.53,1.45,1.45,0,0,0-1.2.52A2.53,2.53,0,0,0,373.47,87.37Z"/>
    <path class="cls-2" d="M382.63,90.05V86.59a1.4,1.4,0,0,0-.3-1,1.22,1.22,0,0,0-.93-.32,1.54,1.54,0,0,0-1.23.45,2.32,2.32,0,0,0-.39,1.5v2.81H379V84.7h.66l.13.73h0a1.67,1.67,0,0,1,.7-.61,2.19,2.19,0,0,1,1-.22,2,2,0,0,1,1.45.47,2,2,0,0,1,.49,1.49v3.49Z"/>
    <path class="cls-2" d="M386.4,87.31l-1.86-2.61h.92l1.41,2,1.41-2h.91l-1.86,2.61,2,2.74h-.92l-1.5-2.17-1.51,2.17h-.92Z"/>
  </g>
  <line class="cls-3" x1="20.7" y1="231.32" x2="416.03" y2="231.32"/>
  <line class="cls-3" x1="20.7" y1="204.59" x2="416.03" y2="204.59"/>
  <line class="cls-3" x1="20.7" y1="151.12" x2="416.03" y2="151.12"/>
  <line class="cls-3" x1="45.89" y1="124.38" x2="416.03" y2="124.38"/>
  <g>
    <path class="cls-2" d="M1.37,230.93v-.67H6.06v.67Z"/>
    <path class="cls-2" d="M11.76,234.12H7.06v-.7l1.88-1.89a14.09,14.09,0,0,0,1.14-1.24,3.35,3.35,0,0,0,.41-.72,2.13,2.13,0,0,0,.13-.76,1.18,1.18,0,0,0-.34-.9,1.32,1.32,0,0,0-1-.34,2.4,2.4,0,0,0-.84.15,3.06,3.06,0,0,0-.88.53l-.43-.55a3.25,3.25,0,0,1,2.14-.82,2.27,2.27,0,0,1,1.58.51,1.79,1.79,0,0,1,.57,1.39,2.6,2.6,0,0,1-.38,1.34,8.72,8.72,0,0,1-1.42,1.68l-1.57,1.53v0h3.68Z"/>
    <path class="cls-2" d="M17.51,230.54a5.2,5.2,0,0,1-.58,2.76,2,2,0,0,1-1.79.92,2,2,0,0,1-1.75-.94,5.11,5.11,0,0,1-.6-2.74,5.2,5.2,0,0,1,.58-2.77,2,2,0,0,1,1.77-.9,2,2,0,0,1,1.77.94A5.12,5.12,0,0,1,17.51,230.54Zm-3.9,0a5.16,5.16,0,0,0,.37,2.27,1.31,1.31,0,0,0,2.34,0,5.34,5.34,0,0,0,.36-2.26,5.23,5.23,0,0,0-.36-2.25,1.31,1.31,0,0,0-2.34,0A5.08,5.08,0,0,0,13.61,230.54Z"/>
  </g>
  <g>
    <path class="cls-2" d="M1.37,204.2v-.68H6.06v.68Z"/>
    <path class="cls-2" d="M10.07,207.38H9.28V202.3c0-.43,0-.83,0-1.21a2.49,2.49,0,0,1-.23.22c-.08.08-.47.39-1.16.95l-.43-.55,1.89-1.46h.69Z"/>
    <path class="cls-2" d="M17.51,203.8a5.22,5.22,0,0,1-.58,2.77,2,2,0,0,1-1.79.91,2,2,0,0,1-1.75-.93,6.73,6.73,0,0,1,0-5.51,2,2,0,0,1,1.77-.91,2,2,0,0,1,1.77,1A5.06,5.06,0,0,1,17.51,203.8Zm-3.9,0a5.13,5.13,0,0,0,.37,2.27,1.2,1.2,0,0,0,1.16.71,1.22,1.22,0,0,0,1.18-.72,7.24,7.24,0,0,0,0-4.51,1.32,1.32,0,0,0-2.34,0A5.11,5.11,0,0,0,13.61,203.8Z"/>
  </g>
  <path class="cls-2" d="M17.51,177.07a5.18,5.18,0,0,1-.58,2.76,2,2,0,0,1-1.79.92,2,2,0,0,1-1.75-.94,5.11,5.11,0,0,1-.6-2.74,5.2,5.2,0,0,1,.58-2.77,2,2,0,0,1,1.77-.9,2,2,0,0,1,1.77.94A5.12,5.12,0,0,1,17.51,177.07Zm-3.9,0a5.16,5.16,0,0,0,.37,2.27,1.31,1.31,0,0,0,2.34,0,7.24,7.24,0,0,0,0-4.51,1.31,1.31,0,0,0-2.34,0A5.08,5.08,0,0,0,13.61,177.07Z"/>
  <g>
    <path class="cls-2" d="M10.07,153.92H9.28v-5.09q0-.65,0-1.2a2.51,2.51,0,0,1-.23.21c-.08.08-.47.39-1.16.95l-.43-.55,1.89-1.46h.69Z"/>
    <path class="cls-2" d="M17.51,150.34a5.2,5.2,0,0,1-.58,2.76,2,2,0,0,1-1.79.91,2,2,0,0,1-1.75-.93,6.73,6.73,0,0,1,0-5.51,2,2,0,0,1,1.77-.91,2,2,0,0,1,1.77,1A5.09,5.09,0,0,1,17.51,150.34Zm-3.9,0A5.11,5.11,0,0,0,14,152.6a1.2,1.2,0,0,0,1.16.71,1.22,1.22,0,0,0,1.18-.72,7.24,7.24,0,0,0,0-4.51,1.23,1.23,0,0,0-1.18-.71,1.21,1.21,0,0,0-1.16.7A5.13,5.13,0,0,0,13.61,150.34Z"/>
  </g>
  <g>
    <path class="cls-2" d="M11.76,127.18H7.06v-.7l1.88-1.89a14.09,14.09,0,0,0,1.14-1.24,3.13,3.13,0,0,0,.41-.72,2.09,2.09,0,0,0,.13-.76,1.18,1.18,0,0,0-.34-.9,1.32,1.32,0,0,0-1-.34,2.4,2.4,0,0,0-.84.15,3.3,3.3,0,0,0-.88.53l-.43-.55a3.25,3.25,0,0,1,2.14-.82,2.27,2.27,0,0,1,1.58.51,1.79,1.79,0,0,1,.57,1.39,2.6,2.6,0,0,1-.38,1.34,8.72,8.72,0,0,1-1.42,1.68l-1.57,1.53v0h3.68Z"/>
    <path class="cls-2" d="M17.51,123.6a5.22,5.22,0,0,1-.58,2.77,2,2,0,0,1-1.79.91,2,2,0,0,1-1.75-.94,5.09,5.09,0,0,1-.6-2.74,5.22,5.22,0,0,1,.58-2.77,2,2,0,0,1,1.77-.9,2,2,0,0,1,1.77.94A5.12,5.12,0,0,1,17.51,123.6Zm-3.9,0a5.13,5.13,0,0,0,.37,2.27,1.31,1.31,0,0,0,2.34,0,7.24,7.24,0,0,0,0-4.51,1.31,1.31,0,0,0-2.34,0A5.08,5.08,0,0,0,13.61,123.6Z"/>
  </g>
  <rect class="cls-4" x="49.9" y="106.29" width="9.66" height="9.66"/>
  <path class="cls-5" d="M152.38,154.56a4.34,4.34,0,1,0-3.06-1.27A4.33,4.33,0,0,0,152.38,154.56Z"/>
  <rect class="cls-4" x="147.55" y="145.4" width="9.66" height="9.66"/>
  <path class="cls-5" d="M250,168.84a4.34,4.34,0,1,0-3.06-1.27A4.33,4.33,0,0,0,250,168.84Z"/>
  <rect class="cls-4" x="245.2" y="159.68" width="9.66" height="9.66"/>
  <path class="cls-5" d="M347.68,173.1a4.34,4.34,0,1,0-3.06-1.27A4.33,4.33,0,0,0,347.68,173.1Z"/>
  <rect class="cls-4" x="342.85" y="163.94" width="9.66" height="9.66"/>
  <path class="cls-5" d="M64.49,168.74a4.37,4.37,0,0,0,3.07-1.27,4.33,4.33,0,1,0-3.07,1.27Z"/>
  <rect class="cls-4" x="59.66" y="159.58" width="9.66" height="9.66"/>
  <path class="cls-5" d="M162.14,169.29a4.37,4.37,0,0,0,3.07-1.27,4.33,4.33,0,1,0-3.07,1.27Z"/>
  <rect class="cls-4" x="157.31" y="160.13" width="9.66" height="9.66"/>
  <path class="cls-5" d="M259.79,177.79a4.34,4.34,0,1,0-3.06-1.27A4.37,4.37,0,0,0,259.79,177.79Z"/>
  <rect class="cls-4" x="254.96" y="168.63" width="9.66" height="9.66"/>
  <path class="cls-6" d="M357.44,182.7a4.37,4.37,0,0,0,3.07-1.27,4.33,4.33,0,1,0-3.07,1.27Z"/>
  <rect class="cls-4" x="352.61" y="173.54" width="9.66" height="9.66"/>
  <path class="cls-6" d="M74.26,192.71a4.34,4.34,0,1,0-3.06-1.27A4.33,4.33,0,0,0,74.26,192.71Z"/>
  <rect class="cls-4" x="69.43" y="183.55" width="9.66" height="9.66"/>
  <path class="cls-6" d="M171.91,190.23a4.34,4.34,0,1,0-3.06-1.27A4.33,4.33,0,0,0,171.91,190.23Z"/>
  <rect class="cls-4" x="167.08" y="181.07" width="9.66" height="9.66"/>
  <path class="cls-5" d="M269.56,181a4.34,4.34,0,1,0-3.06-1.27A4.29,4.29,0,0,0,269.56,181Z"/>
  <rect class="cls-4" x="264.73" y="171.81" width="9.66" height="9.66"/>
  <path class="cls-5" d="M367.21,180.15a4.34,4.34,0,1,0-3.06-1.27A4.33,4.33,0,0,0,367.21,180.15Z"/>
  <rect class="cls-4" x="362.38" y="170.99" width="9.66" height="9.66"/>
  <path class="cls-6" d="M84,211.11A4.32,4.32,0,1,0,81,209.85,4.36,4.36,0,0,0,84,211.11Z"/>
  <rect class="cls-4" x="79.19" y="201.95" width="9.66" height="9.66"/>
  <path class="cls-6" d="M181.67,196a4.37,4.37,0,0,0,3.07-1.27,4.33,4.33,0,1,0-3.07,1.27Z"/>
  <rect class="cls-4" x="176.84" y="186.84" width="9.66" height="9.66"/>
  <path class="cls-6" d="M279.32,208a4.37,4.37,0,0,0,3.07-1.27,4.33,4.33,0,1,0-3.07,1.27Z"/>
  <rect class="cls-4" x="274.49" y="198.87" width="9.66" height="9.66"/>
  <path class="cls-6" d="M377,192.5a4.37,4.37,0,0,0,3.07-1.27A4.33,4.33,0,1,0,377,192.5Z"/>
  <rect class="cls-4" x="372.14" y="183.34" width="9.66" height="9.66"/>
  <path class="cls-6" d="M93.79,233.13a4.34,4.34,0,1,0-3.06-1.27A4.33,4.33,0,0,0,93.79,233.13Z"/>
  <rect class="cls-4" x="88.96" y="223.97" width="9.66" height="9.66"/>
  <path class="cls-6" d="M191.44,206.62a4.34,4.34,0,1,0-3.06-1.27A4.29,4.29,0,0,0,191.44,206.62Z"/>
  <rect class="cls-4" x="186.61" y="197.46" width="9.66" height="9.66"/>
  <path class="cls-6" d="M289.09,206.32a4.34,4.34,0,1,0-3.06-1.27A4.33,4.33,0,0,0,289.09,206.32Z"/>
  <rect class="cls-4" x="284.26" y="197.16" width="9.66" height="9.66"/>
  <path class="cls-6" d="M386.74,208.87a4.34,4.34,0,1,0-3.06-1.27A4.33,4.33,0,0,0,386.74,208.87Z"/>
  <rect class="cls-4" x="381.91" y="199.71" width="9.66" height="9.66"/>
  <line class="cls-7" x1="54.73" y1="177.85" x2="54.73" y2="111.12"/>
  <line class="cls-7" x1="152.38" y1="177.85" x2="152.38" y2="150.23"/>
  <line class="cls-7" x1="250.03" y1="177.85" x2="250.03" y2="164.51"/>
  <line class="cls-7" x1="347.68" y1="177.85" x2="347.68" y2="168.77"/>
  <line class="cls-7" x1="64.49" y1="177.85" x2="64.49" y2="164.41"/>
  <line class="cls-7" x1="162.14" y1="177.85" x2="162.14" y2="164.96"/>
  <line class="cls-7" x1="259.79" y1="177.85" x2="259.79" y2="173.46"/>
  <line class="cls-7" x1="357.44" y1="177.85" x2="357.44" y2="178.37"/>
  <line class="cls-7" x1="74.26" y1="177.85" x2="74.26" y2="188.38"/>
  <line class="cls-7" x1="171.91" y1="177.85" x2="171.91" y2="185.9"/>
  <line class="cls-7" x1="269.56" y1="177.85" x2="269.56" y2="176.64"/>
  <line class="cls-7" x1="367.21" y1="177.85" x2="367.21" y2="175.82"/>
  <line class="cls-7" x1="84.02" y1="206.78" x2="84.02" y2="177.85"/>
  <line class="cls-7" x1="181.67" y1="191.67" x2="181.67" y2="177.85"/>
  <line class="cls-7" x1="279.32" y1="203.7" x2="279.32" y2="177.85"/>
  <line class="cls-7" x1="376.97" y1="188.17" x2="376.97" y2="177.85"/>
  <line class="cls-7" x1="93.79" y1="228.8" x2="93.79" y2="177.85"/>
  <line class="cls-7" x1="191.44" y1="202.29" x2="191.44" y2="177.85"/>
  <line class="cls-7" x1="289.09" y1="201.99" x2="289.09" y2="177.85"/>
  <line class="cls-7" x1="386.74" y1="204.54" x2="386.74" y2="177.85"/>
  <rect class="cls-8" x="6.1" width="195.45" height="34.99"/>
  <g>
    <path d="M16.65,17.41l3.21-6.18h2.42l-4.52,8.3v5.26H15.53V19.6L11,11.23h2.41Z"/>
    <path d="M28.31,25a5,5,0,0,1-3.74-1.4,5.3,5.3,0,0,1-1.35-3.85,5.85,5.85,0,0,1,1.25-4,4.35,4.35,0,0,1,3.45-1.44,4.26,4.26,0,0,1,3.21,1.24A4.72,4.72,0,0,1,32.3,19v1.18H25.47a3.41,3.41,0,0,0,.8,2.3,2.85,2.85,0,0,0,2.15.8,8.2,8.2,0,0,0,1.69-.17,9.81,9.81,0,0,0,1.68-.57v1.77a7.1,7.1,0,0,1-1.61.54A10.35,10.35,0,0,1,28.31,25Zm-.39-9a2.19,2.19,0,0,0-1.67.66,3.13,3.13,0,0,0-.75,1.92h4.66a2.85,2.85,0,0,0-.61-1.92A2.09,2.09,0,0,0,27.92,16Z"/>
    <path d="M41.2,24.79l-.43-1.43h-.08a4.17,4.17,0,0,1-1.49,1.28,4.84,4.84,0,0,1-1.93.34,3.27,3.27,0,0,1-2.36-.82,3.06,3.06,0,0,1-.85-2.31,2.69,2.69,0,0,1,1.18-2.39,6.75,6.75,0,0,1,3.59-.89l1.77-.05V18a2.06,2.06,0,0,0-.46-1.47A1.9,1.9,0,0,0,38.71,16a4.82,4.82,0,0,0-1.51.24,11.11,11.11,0,0,0-1.39.54l-.7-1.56a7.42,7.42,0,0,1,1.82-.66,8.61,8.61,0,0,1,1.88-.23,4.42,4.42,0,0,1,2.95.86,3.32,3.32,0,0,1,1,2.68v6.91ZM38,23.31a2.71,2.71,0,0,0,1.91-.67,2.4,2.4,0,0,0,.72-1.86v-.89L39.26,20a4.53,4.53,0,0,0-2.24.51,1.57,1.57,0,0,0-.7,1.41,1.37,1.37,0,0,0,.41,1.06A1.75,1.75,0,0,0,38,23.31Z"/>
    <path d="M51,14.34a4.61,4.61,0,0,1,1.08.1l-.21,2a3.85,3.85,0,0,0-1-.11,2.8,2.8,0,0,0-2.12.85A3.1,3.1,0,0,0,48,19.43v5.36H45.8V14.53h1.71l.29,1.81h.11a4.08,4.08,0,0,1,1.33-1.46A3.17,3.17,0,0,1,51,14.34Z"/>
    <path d="M60.89,21.87a2.67,2.67,0,0,1-1.1,2.3,5.19,5.19,0,0,1-3.13.81,7.35,7.35,0,0,1-3.3-.63V22.47a8.07,8.07,0,0,0,3.37.84c1.34,0,2-.41,2-1.22a1,1,0,0,0-.22-.65,2.8,2.8,0,0,0-.73-.54,14.48,14.48,0,0,0-1.42-.63A6.61,6.61,0,0,1,54,18.9a2.53,2.53,0,0,1-.62-1.78,2.34,2.34,0,0,1,1.06-2.05,5.08,5.08,0,0,1,2.89-.73,8.19,8.19,0,0,1,3.42.74L60,16.72a7.6,7.6,0,0,0-2.8-.69c-1.15,0-1.72.33-1.72,1a1,1,0,0,0,.45.81,10,10,0,0,0,2,.92,9.36,9.36,0,0,1,1.85.9,2.51,2.51,0,0,1,1.13,2.22Z"/>
    <path d="M68.05,11.81a1.22,1.22,0,0,1,.32-.9,1.24,1.24,0,0,1,.91-.31,1.21,1.21,0,1,1,0,2.41,1.24,1.24,0,0,1-.91-.32A1.22,1.22,0,0,1,68.05,11.81Zm2.31,13H68.18V14.53h2.18Z"/>
    <path d="M82.5,24.79H80.31V18.48a2.75,2.75,0,0,0-.47-1.77,1.86,1.86,0,0,0-1.52-.59,2.41,2.41,0,0,0-2,.82,4.51,4.51,0,0,0-.64,2.74v5.11H73.48V14.53h1.7l.31,1.34h.11a3.12,3.12,0,0,1,1.32-1.13,4.51,4.51,0,0,1,1.89-.4c2.46,0,3.69,1.26,3.69,3.76Z"/>
    <path d="M94.3,23.21A5.17,5.17,0,0,0,95.89,23V24.6a4,4,0,0,1-.93.27,6.56,6.56,0,0,1-1.18.11q-3.11,0-3.1-3.27V16.18h-1.4v-1l1.5-.8.74-2.17h1.35v2.28h2.92v1.65H92.87v5.49a1.56,1.56,0,0,0,.39,1.17A1.44,1.44,0,0,0,94.3,23.21Z"/>
    <path d="M107,24.79h-2.19V18.48a2.75,2.75,0,0,0-.48-1.77,1.85,1.85,0,0,0-1.52-.59,2.4,2.4,0,0,0-2,.83,4.49,4.49,0,0,0-.65,2.75v5.09H97.94V10.35h2.18V14A18.12,18.12,0,0,1,100,15.9h.14a3.06,3.06,0,0,1,1.24-1.15,4,4,0,0,1,1.85-.41c2.49,0,3.73,1.26,3.73,3.76Z"/>
    <path d="M114.48,25a5,5,0,0,1-3.74-1.4,5.3,5.3,0,0,1-1.35-3.85,5.85,5.85,0,0,1,1.25-4,4.33,4.33,0,0,1,3.44-1.44,4.22,4.22,0,0,1,3.21,1.24A4.68,4.68,0,0,1,118.47,19v1.18h-6.84a3.41,3.41,0,0,0,.81,2.3,2.83,2.83,0,0,0,2.14.8,8.23,8.23,0,0,0,1.7-.17,9.81,9.81,0,0,0,1.68-.57v1.77a7.1,7.1,0,0,1-1.61.54A10.43,10.43,0,0,1,114.48,25Zm-.4-9a2.18,2.18,0,0,0-1.66.66,3.13,3.13,0,0,0-.75,1.92h4.66a2.85,2.85,0,0,0-.61-1.92A2.1,2.1,0,0,0,114.08,16Z"/>
    <path d="M132,24.79l-3.93-11.33H128c.11,1.68.16,3.26.16,4.73v6.6h-2V11.23h3.12L133,22h.06l3.87-10.79h3.14V24.79H138V18.08c0-.67,0-1.55.05-2.63s.06-1.74.08-2H138l-4.07,11.31Z"/>
    <path d="M149.84,24.79l-.44-1.43h-.07a4.19,4.19,0,0,1-1.5,1.28,4.79,4.79,0,0,1-1.92.34,3.31,3.31,0,0,1-2.37-.82,3.09,3.09,0,0,1-.84-2.31,2.7,2.7,0,0,1,1.17-2.39,6.81,6.81,0,0,1,3.59-.89l1.78-.05V18a2.1,2.1,0,0,0-.46-1.47,1.9,1.9,0,0,0-1.43-.49,4.77,4.77,0,0,0-1.51.24,10.54,10.54,0,0,0-1.39.54l-.71-1.56a7.65,7.65,0,0,1,1.83-.66,8.53,8.53,0,0,1,1.88-.23,4.42,4.42,0,0,1,3,.86,3.36,3.36,0,0,1,1,2.68v6.91Zm-3.25-1.48a2.73,2.73,0,0,0,1.91-.67,2.4,2.4,0,0,0,.72-1.86v-.89L147.9,20a4.5,4.5,0,0,0-2.24.51,1.57,1.57,0,0,0-.7,1.41,1.34,1.34,0,0,0,.41,1.06A1.75,1.75,0,0,0,146.59,23.31Z"/>
    <path d="M156.55,19.37l1.23-1.54,3.1-3.3h2.51l-4.13,4.41,4.39,5.85h-2.56l-3.29-4.5-1.2,1v3.52h-2.16V10.35h2.16v7l-.11,2Z"/>
    <path d="M165.17,11.81a1.22,1.22,0,0,1,.32-.9,1.27,1.27,0,0,1,.92-.31,1.21,1.21,0,0,1,.89.31,1.18,1.18,0,0,1,.32.9,1.18,1.18,0,0,1-.32.88,1.21,1.21,0,0,1-.89.32,1.27,1.27,0,0,1-.92-.32A1.22,1.22,0,0,1,165.17,11.81Zm2.31,13H165.3V14.53h2.18Z"/>
    <path d="M179.63,24.79h-2.19V18.48a2.75,2.75,0,0,0-.48-1.77,1.85,1.85,0,0,0-1.52-.59,2.43,2.43,0,0,0-2,.82,4.58,4.58,0,0,0-.64,2.74v5.11H170.6V14.53h1.71l.3,1.34h.12A3.09,3.09,0,0,1,174,14.74a4.52,4.52,0,0,1,1.9-.4c2.46,0,3.69,1.26,3.69,3.76Z"/>
    <path d="M191.33,14.53v1.2l-1.76.32a2.72,2.72,0,0,1,.4.8,3,3,0,0,1,.16,1,3.08,3.08,0,0,1-1.09,2.5,4.63,4.63,0,0,1-3,.91,4.82,4.82,0,0,1-.89-.08,1.23,1.23,0,0,0-.71,1,.57.57,0,0,0,.33.53,2.82,2.82,0,0,0,1.21.18h1.8a4,4,0,0,1,2.57.72,2.55,2.55,0,0,1,.89,2.09,3,3,0,0,1-1.44,2.69,7.6,7.6,0,0,1-4.16.94,5.7,5.7,0,0,1-3.2-.74,2.38,2.38,0,0,1-1.1-2.11,2.25,2.25,0,0,1,.6-1.59,3.17,3.17,0,0,1,1.67-.9,1.6,1.6,0,0,1-.72-.6,1.48,1.48,0,0,1-.28-.87,1.53,1.53,0,0,1,.32-1,3.71,3.71,0,0,1,1-.79,2.87,2.87,0,0,1-1.3-1.12,3.27,3.27,0,0,1-.49-1.81,3.26,3.26,0,0,1,1-2.59,4.43,4.43,0,0,1,3-.92,7.19,7.19,0,0,1,.91.06,6.12,6.12,0,0,1,.72.13Zm-8.06,11.86a1.19,1.19,0,0,0,.63,1.08,3.53,3.53,0,0,0,1.79.38,5.4,5.4,0,0,0,2.65-.51,1.53,1.53,0,0,0,.87-1.35,1,1,0,0,0-.48-.95,3.76,3.76,0,0,0-1.77-.29h-1.65a2.34,2.34,0,0,0-1.49.44A1.45,1.45,0,0,0,183.27,26.39Zm.93-8.54a2.05,2.05,0,0,0,.5,1.48,1.85,1.85,0,0,0,1.42.52c1.26,0,1.9-.67,1.9-2a2.29,2.29,0,0,0-.47-1.54,2.15,2.15,0,0,0-2.86,0A2.24,2.24,0,0,0,184.2,17.85Z"/>
  </g>
  <path class="cls-5" d="M54.73,115.45a4.32,4.32,0,0,0,3.06-1.26,4.33,4.33,0,1,0-6.12,0A4.32,4.32,0,0,0,54.73,115.45Z"/>
  <path class="cls-9" d="M54.73,115.45a4.32,4.32,0,0,0,3.06-1.26,4.33,4.33,0,1,0-6.12,0A4.32,4.32,0,0,0,54.73,115.45Z"/>
  <path class="cls-9" d="M64.49,168.74a4.37,4.37,0,0,0,3.07-1.27,4.33,4.33,0,1,0-3.07,1.27Z"/>
  <path class="cls-10" d="M74.26,192.71a4.34,4.34,0,1,0-3.06-1.27A4.33,4.33,0,0,0,74.26,192.71Z"/>
  <path class="cls-10" d="M84,211.11A4.32,4.32,0,1,0,81,209.85,4.36,4.36,0,0,0,84,211.11Z"/>
  <path class="cls-10" d="M93.79,233.13a4.34,4.34,0,1,0-3.06-1.27A4.33,4.33,0,0,0,93.79,233.13Z"/>
  <path class="cls-9" d="M152.38,154.56a4.34,4.34,0,1,0-3.06-1.27A4.33,4.33,0,0,0,152.38,154.56Z"/>
  <path class="cls-9" d="M162.14,169.29a4.37,4.37,0,0,0,3.07-1.27,4.33,4.33,0,1,0-3.07,1.27Z"/>
  <path class="cls-10" d="M171.91,190.23a4.34,4.34,0,1,0-3.06-1.27A4.33,4.33,0,0,0,171.91,190.23Z"/>
  <path class="cls-10" d="M181.67,196a4.37,4.37,0,0,0,3.07-1.27,4.33,4.33,0,1,0-3.07,1.27Z"/>
  <path class="cls-10" d="M191.44,206.62a4.34,4.34,0,1,0-3.06-1.27A4.29,4.29,0,0,0,191.44,206.62Z"/>
  <path class="cls-9" d="M250,168.84a4.34,4.34,0,1,0-3.06-1.27A4.33,4.33,0,0,0,250,168.84Z"/>
  <path class="cls-10" d="M279.32,208a4.37,4.37,0,0,0,3.07-1.27,4.33,4.33,0,1,0-3.07,1.27Z"/>
  <path class="cls-10" d="M289.09,206.32a4.34,4.34,0,1,0-3.06-1.27A4.33,4.33,0,0,0,289.09,206.32Z"/>
  <path class="cls-9" d="M347.68,173.1a4.34,4.34,0,1,0-3.06-1.27A4.33,4.33,0,0,0,347.68,173.1Z"/>
  <path class="cls-10" d="M386.74,208.87a4.34,4.34,0,1,0-3.06-1.27A4.33,4.33,0,0,0,386.74,208.87Z"/>
  <path class="cls-10" d="M377,192.5a4.37,4.37,0,0,0,3.07-1.27A4.33,4.33,0,1,0,377,192.5Z"/>
  <line class="cls-11" x1="20.7" y1="177.85" x2="416.03" y2="177.85"/>
  <path class="cls-10" d="M357.44,182.7a4.37,4.37,0,0,0,3.07-1.27,4.33,4.33,0,1,0-3.07,1.27Z"/>
  <path class="cls-9" d="M367.21,180.15a4.34,4.34,0,1,0-3.06-1.27A4.33,4.33,0,0,0,367.21,180.15Z"/>
  <path class="cls-9" d="M259.79,177.79a4.34,4.34,0,1,0-3.06-1.27A4.37,4.37,0,0,0,259.79,177.79Z"/>
  <path class="cls-9" d="M269.56,181a4.34,4.34,0,1,0-3.06-1.27A4.29,4.29,0,0,0,269.56,181Z"/>
  <g>
    <g>
      <path class="cls-2" d="M50,96.38l0-.07a7.8,7.8,0,0,1,.24-.77q.18-.45.36-.87H51c-.15.58-.26,1.15-.35,1.71Z"/>
      <path class="cls-2" d="M53.51,99.67H53V96.11c0-.3,0-.58,0-.85l-.16.16-.81.66-.3-.39,1.32-1h.48Z"/>
      <path class="cls-2" d="M58.93,98.52h-.74v1.15h-.54V98.52H55.21V98l2.38-3.38h.6V98h.74ZM57.65,98V96.34c0-.32,0-.69,0-1.1h0a4.12,4.12,0,0,1-.31.54L55.78,98Z"/>
    </g>
    <g>
      <path class="cls-2" d="M88.84,96.38l0-.07a6.06,6.06,0,0,1,.25-.77c.11-.3.23-.59.35-.87h.42c-.15.58-.26,1.15-.35,1.71Z"/>
      <path class="cls-2" d="M92.35,99.67H91.8V96.11c0-.3,0-.58,0-.85,0,0-.1.1-.16.16l-.81.66-.3-.39,1.32-1h.48Z"/>
      <path class="cls-2" d="M95.91,94.6a1.65,1.65,0,0,1,1.08.32,1,1,0,0,1,.4.87,1.14,1.14,0,0,1-.23.68,2,2,0,0,1-.73.55,2.61,2.61,0,0,1,.86.61,1.15,1.15,0,0,1,.26.74,1.24,1.24,0,0,1-.43,1,1.77,1.77,0,0,1-1.19.38,1.9,1.9,0,0,1-1.23-.35,1.23,1.23,0,0,1-.44-1,1.48,1.48,0,0,1,1-1.33,2,2,0,0,1-.68-.58,1.29,1.29,0,0,1-.2-.69,1.06,1.06,0,0,1,.4-.87A1.71,1.71,0,0,1,95.91,94.6Zm-1.08,3.81a.79.79,0,0,0,.28.64,1.27,1.27,0,0,0,.8.22,1.21,1.21,0,0,0,.8-.24.81.81,0,0,0,.28-.65.79.79,0,0,0-.27-.59,2.77,2.77,0,0,0-.93-.5,2,2,0,0,0-.74.48A1,1,0,0,0,94.83,98.41Zm1.07-3.35a1,1,0,0,0-.67.2.69.69,0,0,0-.24.55.76.76,0,0,0,.2.54,2.06,2.06,0,0,0,.74.45,1.79,1.79,0,0,0,.7-.44.85.85,0,0,0,.2-.55.67.67,0,0,0-.25-.55A1.06,1.06,0,0,0,95.9,95.06Z"/>
    </g>
    <line class="cls-12" x1="86.49" y1="97.14" x2="61.81" y2="97.14"/>
  </g>
  <g>
    <path d="M13.89,47.27h-.74V41.51h-2v-.66h4.82v.66h-2Z"/>
    <path d="M20.08,47.27V44.16a1.25,1.25,0,0,0-.27-.88A1.11,1.11,0,0,0,19,43a1.41,1.41,0,0,0-1.11.41,2.13,2.13,0,0,0-.35,1.36v2.51h-.73V40.44h.73v2.07a5.46,5.46,0,0,1,0,.62h0a1.44,1.44,0,0,1,.62-.55,2,2,0,0,1,.9-.2,1.88,1.88,0,0,1,1.33.42,1.77,1.77,0,0,1,.44,1.33v3.14Z"/>
    <path d="M24.34,47.36a2.21,2.21,0,0,1-1.68-.65,2.51,2.51,0,0,1-.62-1.8,2.83,2.83,0,0,1,.57-1.86,1.94,1.94,0,0,1,1.54-.68,1.83,1.83,0,0,1,1.44.6,2.27,2.27,0,0,1,.52,1.57V45H22.8a1.87,1.87,0,0,0,.42,1.28,1.47,1.47,0,0,0,1.15.44,3.83,3.83,0,0,0,1.54-.32v.65a4.22,4.22,0,0,1-.74.24A4,4,0,0,1,24.34,47.36ZM24.14,43a1.2,1.2,0,0,0-.92.38,1.73,1.73,0,0,0-.41,1h2.52a1.55,1.55,0,0,0-.31-1A1.05,1.05,0,0,0,24.14,43Z"/>
    <path d="M31.62,47.36A2,2,0,0,1,30,46.72a2.66,2.66,0,0,1-.57-1.82A2.72,2.72,0,0,1,30,43a2.1,2.1,0,0,1,1.66-.66,3.23,3.23,0,0,1,.69.07,2.21,2.21,0,0,1,.55.18l-.23.62a3.53,3.53,0,0,0-.52-.16,2.5,2.5,0,0,0-.51-.06c-1,0-1.47.62-1.47,1.87a2.22,2.22,0,0,0,.36,1.36,1.23,1.23,0,0,0,1.06.47,3.31,3.31,0,0,0,1.24-.25v.64A2.63,2.63,0,0,1,31.62,47.36Z"/>
    <path d="M37.28,47.27V44.16a1.25,1.25,0,0,0-.27-.88,1.11,1.11,0,0,0-.84-.29,1.38,1.38,0,0,0-1.11.41,2.13,2.13,0,0,0-.35,1.36v2.51H34V40.44h.73v2.07a3.72,3.72,0,0,1,0,.62h0a1.42,1.42,0,0,1,.61-.55,2.06,2.06,0,0,1,.91-.2,1.84,1.84,0,0,1,1.32.42A1.74,1.74,0,0,1,38,44.13v3.14Z"/>
    <path d="M42.47,47.27l-.15-.68h0a1.78,1.78,0,0,1-1.62.77A1.58,1.58,0,0,1,39.55,47a1.33,1.33,0,0,1-.41-1.05q0-1.45,2.34-1.53l.81,0v-.3a1.24,1.24,0,0,0-.24-.84,1,1,0,0,0-.78-.27,3.1,3.1,0,0,0-1.36.37l-.23-.56a3.32,3.32,0,0,1,.78-.3,3.15,3.15,0,0,1,.85-.11,1.86,1.86,0,0,1,1.28.38A1.59,1.59,0,0,1,43,44v3.28Zm-1.65-.51a1.48,1.48,0,0,0,1.07-.37,1.39,1.39,0,0,0,.39-1v-.43l-.73,0a2.68,2.68,0,0,0-1.26.27.81.81,0,0,0-.38.74.74.74,0,0,0,.24.6A1,1,0,0,0,40.82,46.76Z"/>
    <path d="M47.8,47.27V44.16a1.25,1.25,0,0,0-.26-.88A1.11,1.11,0,0,0,46.7,43a1.38,1.38,0,0,0-1.11.41,2.08,2.08,0,0,0-.35,1.35v2.52h-.73V42.46h.59l.12.66h0a1.53,1.53,0,0,1,.62-.56,2.06,2.06,0,0,1,.91-.19,1.8,1.8,0,0,1,1.3.42,1.76,1.76,0,0,1,.44,1.34v3.14Z"/>
    <path d="M54,42.46v.46l-.89.1a1.57,1.57,0,0,1,.22.41,1.4,1.4,0,0,1,.1.56,1.44,1.44,0,0,1-.48,1.13,2,2,0,0,1-1.33.42,1.78,1.78,0,0,1-.41,0,.72.72,0,0,0-.46.62.31.31,0,0,0,.16.29,1.12,1.12,0,0,0,.56.1h.85a1.9,1.9,0,0,1,1.2.33,1.15,1.15,0,0,1,.42,1A1.37,1.37,0,0,1,53.27,49a3.43,3.43,0,0,1-1.87.42,2.52,2.52,0,0,1-1.46-.36,1.12,1.12,0,0,1-.51-1,1.1,1.1,0,0,1,.28-.76,1.42,1.42,0,0,1,.79-.43,1,1,0,0,1-.31-.26.73.73,0,0,1-.12-.41.72.72,0,0,1,.14-.46,1.43,1.43,0,0,1,.44-.39,1.27,1.27,0,0,1-.61-.52,1.6,1.6,0,0,1-.23-.84,1.57,1.57,0,0,1,.47-1.22,1.94,1.94,0,0,1,1.35-.43,2.38,2.38,0,0,1,.68.09Zm-3.84,5.62a.67.67,0,0,0,.33.6,1.89,1.89,0,0,0,.95.2,2.58,2.58,0,0,0,1.36-.28.84.84,0,0,0,.44-.74.59.59,0,0,0-.24-.54,1.77,1.77,0,0,0-.91-.16h-.88a1.15,1.15,0,0,0-.77.24A.87.87,0,0,0,50.13,48.08Zm.4-4.08a1,1,0,0,0,.28.76,1.14,1.14,0,0,0,.8.26c.71,0,1.07-.34,1.07-1A1,1,0,0,0,51.6,42.9a1,1,0,0,0-.79.28A1.09,1.09,0,0,0,50.53,44Z"/>
    <path d="M57,47.36a2.24,2.24,0,0,1-1.69-.65,2.5,2.5,0,0,1-.61-1.8,2.83,2.83,0,0,1,.57-1.86,1.91,1.91,0,0,1,1.54-.68,1.81,1.81,0,0,1,1.43.6,2.28,2.28,0,0,1,.53,1.57V45H55.45a1.93,1.93,0,0,0,.43,1.28,1.45,1.45,0,0,0,1.14.44,3.8,3.8,0,0,0,1.54-.32v.65a4.13,4.13,0,0,1-.73.24A4,4,0,0,1,57,47.36ZM56.8,43a1.17,1.17,0,0,0-.92.38,1.73,1.73,0,0,0-.41,1H58a1.6,1.6,0,0,0-.31-1A1.08,1.08,0,0,0,56.8,43Z"/>
    <path d="M62.29,41.15a.47.47,0,0,1,.12-.36.43.43,0,0,1,.31-.12.41.41,0,0,1,.3.12.45.45,0,0,1,.13.36.46.46,0,0,1-.13.37.41.41,0,0,1-.3.12.43.43,0,0,1-.31-.12A.5.5,0,0,1,62.29,41.15Zm.79,6.12h-.73V42.46h.73Z"/>
    <path d="M67.92,47.27V44.16a1.25,1.25,0,0,0-.27-.88,1.07,1.07,0,0,0-.83-.29,1.38,1.38,0,0,0-1.11.41,2,2,0,0,0-.35,1.35v2.52h-.73V42.46h.59l.12.66h0a1.56,1.56,0,0,1,.63-.56,2,2,0,0,1,.9-.19,1.82,1.82,0,0,1,1.31.42,1.76,1.76,0,0,1,.44,1.34v3.14Z"/>
    <path d="M74.69,42.37a3.27,3.27,0,0,1,.57.05l-.1.68a2.15,2.15,0,0,0-.53-.07,1.28,1.28,0,0,0-1,.48,1.75,1.75,0,0,0-.41,1.18v2.58h-.73V42.46h.6l.08.89h0a2.11,2.11,0,0,1,.65-.73A1.42,1.42,0,0,1,74.69,42.37Z"/>
    <path d="M76.1,41.15a.47.47,0,0,1,.12-.36.45.45,0,0,1,.31-.12.41.41,0,0,1,.3.12.45.45,0,0,1,.13.36.46.46,0,0,1-.13.37.41.41,0,0,1-.3.12.45.45,0,0,1-.31-.12A.5.5,0,0,1,76.1,41.15Zm.79,6.12h-.73V42.46h.73Z"/>
    <path d="M81.72,46.63h0a1.71,1.71,0,0,1-1.51.73,1.79,1.79,0,0,1-1.47-.64,3.48,3.48,0,0,1,0-3.69,2,2,0,0,1,3,0h.06l0-.35,0-.33v-2h.73v6.83h-.6Zm-1.46.12a1.29,1.29,0,0,0,1.08-.41A2,2,0,0,0,81.68,45v-.15a2.47,2.47,0,0,0-.34-1.46A1.31,1.31,0,0,0,80.25,43a1.11,1.11,0,0,0-1,.5,2.45,2.45,0,0,0-.34,1.41,2.34,2.34,0,0,0,.34,1.39A1.14,1.14,0,0,0,80.26,46.75Z"/>
    <path d="M86,47.36a2.24,2.24,0,0,1-1.69-.65,2.5,2.5,0,0,1-.61-1.8,2.83,2.83,0,0,1,.57-1.86,1.92,1.92,0,0,1,1.54-.68,1.81,1.81,0,0,1,1.43.6,2.28,2.28,0,0,1,.53,1.57V45H84.44a1.93,1.93,0,0,0,.43,1.28,1.46,1.46,0,0,0,1.15.44,3.79,3.79,0,0,0,1.53-.32v.65a3.88,3.88,0,0,1-.73.24A4,4,0,0,1,86,47.36ZM85.79,43a1.18,1.18,0,0,0-.92.38,1.73,1.73,0,0,0-.41,1H87a1.55,1.55,0,0,0-.31-1A1.08,1.08,0,0,0,85.79,43Z"/>
    <path d="M91.2,42.37a3.39,3.39,0,0,1,.58.05l-.1.68a2.21,2.21,0,0,0-.53-.07,1.28,1.28,0,0,0-1,.48,1.71,1.71,0,0,0-.42,1.18v2.58H89V42.46h.61l.08.89h0a2.21,2.21,0,0,1,.65-.73A1.45,1.45,0,0,1,91.2,42.37Z"/>
    <path d="M95.78,46a1.2,1.2,0,0,1-.5,1,2.36,2.36,0,0,1-1.4.36,3.11,3.11,0,0,1-1.5-.3v-.68a3.52,3.52,0,0,0,.75.28,2.94,2.94,0,0,0,.76.1,1.73,1.73,0,0,0,.88-.18.63.63,0,0,0,.07-1,4.08,4.08,0,0,0-1-.47,5,5,0,0,1-1-.44,1.29,1.29,0,0,1-.42-.42,1.15,1.15,0,0,1-.14-.57,1.09,1.09,0,0,1,.48-.93,2.21,2.21,0,0,1,1.31-.34,3.67,3.67,0,0,1,1.52.32l-.26.59a3.46,3.46,0,0,0-1.31-.3,1.47,1.47,0,0,0-.78.16.51.51,0,0,0-.27.45.59.59,0,0,0,.1.33,1,1,0,0,0,.32.26,8.52,8.52,0,0,0,.85.36,3,3,0,0,1,1.15.62A1.14,1.14,0,0,1,95.78,46Z"/>
    <path d="M100.27,47.27V44.16a1.25,1.25,0,0,0-.27-.88,1.11,1.11,0,0,0-.84-.29,1.38,1.38,0,0,0-1.11.41,2.13,2.13,0,0,0-.35,1.36v2.51H97V40.44h.73v2.07a5.46,5.46,0,0,1,0,.62h0a1.42,1.42,0,0,1,.61-.55,2.06,2.06,0,0,1,.91-.2,1.84,1.84,0,0,1,1.32.42,1.74,1.74,0,0,1,.45,1.33v3.14Z"/>
    <path d="M102.43,41.15a.44.44,0,0,1,.13-.36.41.41,0,0,1,.3-.12.45.45,0,0,1,.31.12.49.49,0,0,1,.12.36.5.5,0,0,1-.12.37.45.45,0,0,1-.31.12.41.41,0,0,1-.3-.12A.46.46,0,0,1,102.43,41.15Zm.79,6.12h-.73V42.46h.73Z"/>
    <path d="M107,47.36a2.2,2.2,0,0,1-.86-.17,1.69,1.69,0,0,1-.65-.54h0a7.8,7.8,0,0,1,0,.8v2h-.73v-7h.59l.11.66h0a1.61,1.61,0,0,1,.66-.57,1.9,1.9,0,0,1,.85-.18,1.8,1.8,0,0,1,1.48.65,3.49,3.49,0,0,1,0,3.68A1.77,1.77,0,0,1,107,47.36Zm-.1-4.37a1.3,1.3,0,0,0-1.07.41,2.11,2.11,0,0,0-.34,1.3v.16a2.36,2.36,0,0,0,.34,1.45,1.26,1.26,0,0,0,1.08.44,1.13,1.13,0,0,0,1-.5,2.4,2.4,0,0,0,.36-1.4,2.27,2.27,0,0,0-.36-1.38A1.16,1.16,0,0,0,106.91,43Z"/>
    <path d="M114.79,43h-1.22v4.25h-.73V43H112v-.33l.86-.26v-.27c0-1.18.52-1.77,1.55-1.77a3.3,3.3,0,0,1,.9.15l-.19.59a2.16,2.16,0,0,0-.72-.14.7.7,0,0,0-.61.27,1.5,1.5,0,0,0-.2.89v.31h1.22Z"/>
    <path d="M117.87,42.37a3.39,3.39,0,0,1,.58.05l-.1.68a2.21,2.21,0,0,0-.53-.07,1.28,1.28,0,0,0-1,.48,1.71,1.71,0,0,0-.42,1.18v2.58h-.73V42.46h.61l.08.89h0a2.21,2.21,0,0,1,.65-.73A1.45,1.45,0,0,1,117.87,42.37Z"/>
    <path d="M123.5,44.86a2.63,2.63,0,0,1-.59,1.84,2.08,2.08,0,0,1-1.64.66,2.16,2.16,0,0,1-1.14-.3,2,2,0,0,1-.78-.87,3.07,3.07,0,0,1-.27-1.33,2.65,2.65,0,0,1,.59-1.83,2.07,2.07,0,0,1,1.63-.66,2,2,0,0,1,1.61.67A2.64,2.64,0,0,1,123.5,44.86Zm-3.66,0a2.33,2.33,0,0,0,.36,1.41,1.48,1.48,0,0,0,2.18,0,2.26,2.26,0,0,0,.37-1.41,2.2,2.2,0,0,0-.37-1.39,1.32,1.32,0,0,0-1.1-.48,1.28,1.28,0,0,0-1.08.47A2.27,2.27,0,0,0,119.84,44.86Z"/>
    <path d="M130.92,47.27V44.14a1.32,1.32,0,0,0-.24-.86,1,1,0,0,0-.77-.29,1.22,1.22,0,0,0-1,.39,1.83,1.83,0,0,0-.33,1.2v2.69h-.73V44.14a1.26,1.26,0,0,0-.25-.86,1,1,0,0,0-.76-.29,1.21,1.21,0,0,0-1,.41,2.23,2.23,0,0,0-.32,1.35v2.52h-.73V42.46h.6l.12.66h0a1.4,1.4,0,0,1,.58-.55,1.8,1.8,0,0,1,.84-.2,1.42,1.42,0,0,1,1.48.82h0a1.5,1.5,0,0,1,.62-.6,1.88,1.88,0,0,1,.93-.22,1.65,1.65,0,0,1,1.23.42,1.88,1.88,0,0,1,.4,1.34v3.14Z"/>
    <path d="M134.73,42.46h.78l1.06,2.74a11.51,11.51,0,0,1,.43,1.36h0c0-.15.12-.4.24-.76s.52-1.48,1.19-3.34h.79l-2.07,5.48a2.77,2.77,0,0,1-.72,1.15,1.53,1.53,0,0,1-1,.35,3,3,0,0,1-.66-.08v-.58a2.92,2.92,0,0,0,.54,0A1.11,1.11,0,0,0,136.4,48l.27-.69Z"/>
    <path d="M142.06,47.36a2.21,2.21,0,0,1-1.68-.65,2.51,2.51,0,0,1-.62-1.8,2.83,2.83,0,0,1,.57-1.86,1.94,1.94,0,0,1,1.54-.68,1.81,1.81,0,0,1,1.44.6,2.27,2.27,0,0,1,.52,1.57V45h-3.31a1.87,1.87,0,0,0,.42,1.28,1.49,1.49,0,0,0,1.15.44,3.83,3.83,0,0,0,1.54-.32v.65a4.13,4.13,0,0,1-.73.24A4.06,4.06,0,0,1,142.06,47.36ZM141.87,43a1.21,1.21,0,0,0-.93.38,1.73,1.73,0,0,0-.41,1h2.52a1.55,1.55,0,0,0-.31-1A1,1,0,0,0,141.87,43Z"/>
    <path d="M148,47.27l-.15-.68h0a2.06,2.06,0,0,1-.72.61,2.15,2.15,0,0,1-.89.16,1.6,1.6,0,0,1-1.13-.37,1.33,1.33,0,0,1-.4-1.05c0-1,.78-1.48,2.33-1.53l.82,0v-.3a1.19,1.19,0,0,0-.25-.84,1,1,0,0,0-.78-.27,3.13,3.13,0,0,0-1.36.37l-.22-.56a3.16,3.16,0,0,1,.78-.3,3.05,3.05,0,0,1,.85-.11,1.84,1.84,0,0,1,1.27.38,1.59,1.59,0,0,1,.42,1.23v3.28Zm-1.65-.51a1.47,1.47,0,0,0,1.07-.37,1.39,1.39,0,0,0,.39-1v-.43l-.73,0a2.6,2.6,0,0,0-1.25.27.8.8,0,0,0-.39.74.74.74,0,0,0,.24.6A1,1,0,0,0,146.39,46.76Z"/>
    <path d="M152.28,42.37a3.39,3.39,0,0,1,.58.05l-.11.68a2.07,2.07,0,0,0-.52-.07,1.27,1.27,0,0,0-1,.48,1.71,1.71,0,0,0-.42,1.18v2.58h-.73V42.46h.61l.08.89h0a2.21,2.21,0,0,1,.65-.73A1.45,1.45,0,0,1,152.28,42.37Z"/>
    <path d="M153.35,45.2v-.67h2.16v.67Z"/>
    <path d="M158.21,46.76a2.22,2.22,0,0,0,.37,0l.29-.06v.56a1.17,1.17,0,0,1-.35.09,2.19,2.19,0,0,1-.42,0c-.93,0-1.39-.49-1.39-1.47V43H156v-.35l.69-.3.3-1h.43v1.12h1.39V43h-1.39v2.84a1,1,0,0,0,.2.67A.75.75,0,0,0,158.21,46.76Z"/>
    <path d="M164,44.86a2.63,2.63,0,0,1-.6,1.84,2.08,2.08,0,0,1-1.64.66,2.16,2.16,0,0,1-1.14-.3,2,2,0,0,1-.78-.87,3.07,3.07,0,0,1-.27-1.33,2.65,2.65,0,0,1,.59-1.83,2.08,2.08,0,0,1,1.64-.66,2,2,0,0,1,1.6.67A2.65,2.65,0,0,1,164,44.86Zm-3.67,0a2.26,2.26,0,0,0,.37,1.41,1.26,1.26,0,0,0,1.08.48,1.3,1.3,0,0,0,1.09-.48,2.26,2.26,0,0,0,.37-1.41,2.2,2.2,0,0,0-.37-1.39,1.49,1.49,0,0,0-2.18,0A2.27,2.27,0,0,0,160.32,44.86Z"/>
    <path d="M164.86,45.2v-.67H167v.67Z"/>
    <path d="M167.4,42.46h.78l1,2.74a10.29,10.29,0,0,1,.44,1.36h0c0-.15.12-.4.24-.76s.52-1.48,1.19-3.34h.79l-2.07,5.48a2.77,2.77,0,0,1-.72,1.15,1.53,1.53,0,0,1-1,.35,3,3,0,0,1-.66-.08v-.58a2.92,2.92,0,0,0,.54,0,1.11,1.11,0,0,0,1.07-.84l.27-.69Z"/>
    <path d="M174.73,47.36a2.21,2.21,0,0,1-1.68-.65,2.46,2.46,0,0,1-.62-1.8,2.83,2.83,0,0,1,.57-1.86,1.92,1.92,0,0,1,1.54-.68A1.83,1.83,0,0,1,176,43a2.27,2.27,0,0,1,.52,1.57V45h-3.31a1.87,1.87,0,0,0,.42,1.28,1.47,1.47,0,0,0,1.15.44,3.83,3.83,0,0,0,1.54-.32v.65a4.22,4.22,0,0,1-.74.24A4,4,0,0,1,174.73,47.36Zm-.2-4.38a1.2,1.2,0,0,0-.92.38,1.73,1.73,0,0,0-.41,1h2.52a1.55,1.55,0,0,0-.31-1A1.05,1.05,0,0,0,174.53,43Z"/>
    <path d="M180.71,47.27l-.15-.68h0a2.06,2.06,0,0,1-.72.61,2.15,2.15,0,0,1-.89.16,1.6,1.6,0,0,1-1.13-.37,1.33,1.33,0,0,1-.4-1.05c0-1,.77-1.48,2.33-1.53l.82,0v-.3a1.19,1.19,0,0,0-.25-.84,1,1,0,0,0-.78-.27,3.13,3.13,0,0,0-1.36.37l-.22-.56a3,3,0,0,1,.78-.3,3.05,3.05,0,0,1,.85-.11,1.84,1.84,0,0,1,1.27.38,1.59,1.59,0,0,1,.42,1.23v3.28Zm-1.65-.51a1.48,1.48,0,0,0,1.07-.37,1.39,1.39,0,0,0,.39-1v-.43l-.73,0a2.6,2.6,0,0,0-1.25.27.8.8,0,0,0-.39.74.74.74,0,0,0,.24.6A1,1,0,0,0,179.06,46.76Z"/>
    <path d="M185,42.37a3.27,3.27,0,0,1,.57.05l-.1.68a2.13,2.13,0,0,0-.52-.07,1.27,1.27,0,0,0-1,.48,1.71,1.71,0,0,0-.42,1.18v2.58h-.73V42.46h.6l.09.89h0a2.21,2.21,0,0,1,.65-.73A1.45,1.45,0,0,1,185,42.37Z"/>
    <path d="M15.1,58.07V55a1.25,1.25,0,0,0-.27-.88,1.11,1.11,0,0,0-.84-.29,1.41,1.41,0,0,0-1.11.41,2.13,2.13,0,0,0-.35,1.36v2.51H11.8V51.24h.73v2.07a5.46,5.46,0,0,1,0,.62h0a1.44,1.44,0,0,1,.62-.55,2,2,0,0,1,.9-.2,1.88,1.88,0,0,1,1.33.42,1.77,1.77,0,0,1,.44,1.33v3.14Z"/>
    <path d="M20.29,58.07l-.14-.68h0a2.06,2.06,0,0,1-.72.61,2.15,2.15,0,0,1-.89.16,1.62,1.62,0,0,1-1.13-.37,1.33,1.33,0,0,1-.4-1c0-1,.78-1.48,2.33-1.53l.82,0v-.3a1.24,1.24,0,0,0-.24-.84,1,1,0,0,0-.78-.27,3.14,3.14,0,0,0-1.37.37l-.22-.56a3.32,3.32,0,0,1,.78-.3,3.48,3.48,0,0,1,.85-.11,1.88,1.88,0,0,1,1.28.38,1.63,1.63,0,0,1,.41,1.23v3.28Zm-1.65-.51a1.47,1.47,0,0,0,1.07-.37,1.39,1.39,0,0,0,.39-1v-.43l-.73,0a2.6,2.6,0,0,0-1.25.27.8.8,0,0,0-.39.74.74.74,0,0,0,.24.6A1,1,0,0,0,18.64,57.56Z"/>
    <path d="M25.44,56.76a1.23,1.23,0,0,1-.5,1,2.37,2.37,0,0,1-1.41.36,3.1,3.1,0,0,1-1.49-.3v-.68a3.65,3.65,0,0,0,.74.28,3.07,3.07,0,0,0,.77.1,1.75,1.75,0,0,0,.88-.18.6.6,0,0,0,.31-.56.58.58,0,0,0-.25-.48,3.88,3.88,0,0,0-.95-.47,4.86,4.86,0,0,1-.95-.44,1.29,1.29,0,0,1-.42-.42,1,1,0,0,1-.14-.57,1.09,1.09,0,0,1,.48-.93,2.17,2.17,0,0,1,1.31-.34,3.88,3.88,0,0,1,1.52.32l-.26.59a3.46,3.46,0,0,0-1.31-.3,1.53,1.53,0,0,0-.79.16.55.55,0,0,0-.16.78,1,1,0,0,0,.32.26,8,8,0,0,0,.84.36,3.08,3.08,0,0,1,1.16.62A1.14,1.14,0,0,1,25.44,56.76Z"/>
    <path d="M32.91,53.26v.46l-.89.1a1.57,1.57,0,0,1,.21.41,1.4,1.4,0,0,1,.1.56,1.43,1.43,0,0,1-.48,1.13,2,2,0,0,1-1.33.42,1.7,1.7,0,0,1-.4,0c-.31.17-.47.37-.47.62a.32.32,0,0,0,.16.29,1.12,1.12,0,0,0,.56.1h.85a1.92,1.92,0,0,1,1.21.33,1.15,1.15,0,0,1,.42,1,1.37,1.37,0,0,1-.65,1.22,3.41,3.41,0,0,1-1.87.42,2.48,2.48,0,0,1-1.45-.36,1.11,1.11,0,0,1-.52-1,1.15,1.15,0,0,1,.28-.76,1.45,1.45,0,0,1,.8-.43.79.79,0,0,1-.31-.26A.67.67,0,0,1,29,57a.78.78,0,0,1,.14-.46,1.43,1.43,0,0,1,.44-.39,1.25,1.25,0,0,1-.6-.52,1.5,1.5,0,0,1-.24-.84,1.54,1.54,0,0,1,.48-1.22,1.89,1.89,0,0,1,1.34-.43,2.38,2.38,0,0,1,.68.09Zm-3.84,5.62a.67.67,0,0,0,.33.6,1.85,1.85,0,0,0,.94.2,2.56,2.56,0,0,0,1.36-.28.82.82,0,0,0,.44-.74.59.59,0,0,0-.24-.54A1.74,1.74,0,0,0,31,58h-.87a1.17,1.17,0,0,0-.78.24A.87.87,0,0,0,29.07,58.88Zm.39-4.08a1,1,0,0,0,.29.76,1.09,1.09,0,0,0,.79.26c.71,0,1.07-.34,1.07-1a1,1,0,0,0-1.08-1.09,1,1,0,0,0-.79.28A1.09,1.09,0,0,0,29.46,54.8Z"/>
    <path d="M35.93,58.16a2.18,2.18,0,0,1-1.68-.65,2.46,2.46,0,0,1-.62-1.8,2.78,2.78,0,0,1,.57-1.85,1.9,1.9,0,0,1,1.54-.69,1.79,1.79,0,0,1,1.43.6,2.23,2.23,0,0,1,.53,1.57v.46H34.38a2,2,0,0,0,.43,1.29,1.49,1.49,0,0,0,1.15.43,3.83,3.83,0,0,0,1.54-.32v.65a4.22,4.22,0,0,1-.74.24A4,4,0,0,1,35.93,58.16Zm-.2-4.38a1.2,1.2,0,0,0-.92.38,1.73,1.73,0,0,0-.41,1h2.52a1.55,1.55,0,0,0-.31-1.05A1.07,1.07,0,0,0,35.73,53.78Z"/>
    <path d="M42.24,58.07V55a1.25,1.25,0,0,0-.27-.88,1.11,1.11,0,0,0-.84-.29,1.38,1.38,0,0,0-1.1.41,2,2,0,0,0-.36,1.35v2.52H39V53.26h.59l.12.66h0a1.56,1.56,0,0,1,.63-.56,2.2,2.2,0,0,1,.9-.19,1.82,1.82,0,0,1,1.31.42A1.8,1.8,0,0,1,43,54.93v3.14Z"/>
    <path d="M46.5,58.16a2.18,2.18,0,0,1-1.68-.65,2.51,2.51,0,0,1-.62-1.8,2.78,2.78,0,0,1,.57-1.85,1.92,1.92,0,0,1,1.54-.69,1.81,1.81,0,0,1,1.44.6,2.27,2.27,0,0,1,.52,1.57v.46H45a1.87,1.87,0,0,0,.43,1.29,1.48,1.48,0,0,0,1.14.43,3.83,3.83,0,0,0,1.54-.32v.65a4.13,4.13,0,0,1-.73.24A4.06,4.06,0,0,1,46.5,58.16Zm-.19-4.38a1.21,1.21,0,0,0-.93.38,1.79,1.79,0,0,0-.41,1h2.52a1.6,1.6,0,0,0-.3-1.05A1.08,1.08,0,0,0,46.31,53.78Z"/>
    <path d="M51.72,53.17a3.27,3.27,0,0,1,.57,0l-.1.68a2.76,2.76,0,0,0-.53-.07,1.28,1.28,0,0,0-1,.48,1.75,1.75,0,0,0-.41,1.18v2.58h-.73V53.26h.6l.08.89h0a2.11,2.11,0,0,1,.65-.73A1.42,1.42,0,0,1,51.72,53.17Z"/>
    <path d="M56.15,58.07,56,57.39h0a2.13,2.13,0,0,1-.71.61,2.16,2.16,0,0,1-.9.16,1.58,1.58,0,0,1-1.12-.37,1.33,1.33,0,0,1-.41-1q0-1.45,2.34-1.53l.81,0v-.3a1.24,1.24,0,0,0-.24-.84,1,1,0,0,0-.78-.27,3.1,3.1,0,0,0-1.36.37l-.23-.56a3.32,3.32,0,0,1,.78-.3,3.61,3.61,0,0,1,.85-.11,1.86,1.86,0,0,1,1.28.38,1.59,1.59,0,0,1,.41,1.23v3.28Zm-1.64-.51a1.48,1.48,0,0,0,1.07-.37,1.39,1.39,0,0,0,.39-1v-.43l-.73,0A2.68,2.68,0,0,0,54,56a.79.79,0,0,0-.38.74.74.74,0,0,0,.24.6A1,1,0,0,0,54.51,57.56Z"/>
    <path d="M58.93,58.07H58.2V51.24h.73Z"/>
    <path d="M61.2,58.07h-.73V51.24h.73Z"/>
    <path d="M62,53.26h.78l1,2.74a9.84,9.84,0,0,1,.43,1.36h0c0-.15.12-.4.24-.76s.52-1.48,1.19-3.34h.78l-2.07,5.48a2.78,2.78,0,0,1-.71,1.16,1.6,1.6,0,0,1-1,.34,2.84,2.84,0,0,1-.66-.08v-.58a2.92,2.92,0,0,0,.54.05,1.11,1.11,0,0,0,1.07-.84l.27-.69Z"/>
    <path d="M72.9,57.43h0a1.7,1.7,0,0,1-1.51.73,1.79,1.79,0,0,1-1.47-.64,2.86,2.86,0,0,1-.52-1.84,2.91,2.91,0,0,1,.52-1.85,2,2,0,0,1,3,.05h.06l0-.35,0-.33v-2h.73v6.83H73Zm-1.46.12a1.32,1.32,0,0,0,1.09-.41,2.06,2.06,0,0,0,.33-1.31v-.15a2.39,2.39,0,0,0-.34-1.46,1.31,1.31,0,0,0-1.09-.44,1.13,1.13,0,0,0-1,.5,2.45,2.45,0,0,0-.34,1.41,2.34,2.34,0,0,0,.34,1.39A1.16,1.16,0,0,0,71.44,57.55Z"/>
    <path d="M77.34,53.17a3.27,3.27,0,0,1,.57,0l-.1.68a2.76,2.76,0,0,0-.53-.07,1.28,1.28,0,0,0-1,.48,1.75,1.75,0,0,0-.41,1.18v2.58h-.73V53.26h.6l.08.89h0a2.11,2.11,0,0,1,.65-.73A1.42,1.42,0,0,1,77.34,53.17Z"/>
    <path d="M83,55.66a2.68,2.68,0,0,1-.59,1.84,2.11,2.11,0,0,1-1.64.66,2.19,2.19,0,0,1-1.15-.3,2,2,0,0,1-.77-.87,3.07,3.07,0,0,1-.28-1.33,2.65,2.65,0,0,1,.59-1.83,2.1,2.1,0,0,1,1.64-.66,2,2,0,0,1,1.6.67A2.65,2.65,0,0,1,83,55.66Zm-3.67,0a2.26,2.26,0,0,0,.37,1.41,1.47,1.47,0,0,0,2.17,0,2.26,2.26,0,0,0,.37-1.41,2.2,2.2,0,0,0-.37-1.39,1.48,1.48,0,0,0-2.17,0A2.21,2.21,0,0,0,79.3,55.66Z"/>
    <path d="M86.49,58.16a2.2,2.2,0,0,1-.86-.17,1.62,1.62,0,0,1-.65-.54h0a7.8,7.8,0,0,1,0,.8v2h-.73v-7h.59l.1.66h0a1.58,1.58,0,0,1,.65-.57,2,2,0,0,1,.86-.18,1.8,1.8,0,0,1,1.48.65,3.49,3.49,0,0,1,0,3.68A1.77,1.77,0,0,1,86.49,58.16Zm-.11-4.37a1.29,1.29,0,0,0-1.06.41A2,2,0,0,0,85,55.5v.16a2.36,2.36,0,0,0,.34,1.45,1.24,1.24,0,0,0,1.08.44,1.14,1.14,0,0,0,1-.5,2.4,2.4,0,0,0,.35-1.4,2.27,2.27,0,0,0-.35-1.38A1.18,1.18,0,0,0,86.38,53.79Z"/>
    <path d="M92,58.16a2.15,2.15,0,0,1-.85-.17,1.72,1.72,0,0,1-.66-.54h0a5.72,5.72,0,0,1,0,.8v2h-.73v-7h.6l.1.66h0a1.61,1.61,0,0,1,.66-.57,1.93,1.93,0,0,1,.85-.18,1.79,1.79,0,0,1,1.48.65A2.88,2.88,0,0,1,94,55.66a2.8,2.8,0,0,1-.53,1.84A1.77,1.77,0,0,1,92,58.16Zm-.1-4.37a1.31,1.31,0,0,0-1.07.41,2.11,2.11,0,0,0-.34,1.3v.16a2.43,2.43,0,0,0,.34,1.45,1.28,1.28,0,0,0,1.09.44,1.13,1.13,0,0,0,1-.5,2.4,2.4,0,0,0,.36-1.4,2.27,2.27,0,0,0-.36-1.38A1.15,1.15,0,0,0,91.9,53.79Z"/>
    <path d="M97.31,58.16a2.18,2.18,0,0,1-1.68-.65,2.51,2.51,0,0,1-.62-1.8,2.78,2.78,0,0,1,.57-1.85,1.92,1.92,0,0,1,1.54-.69,1.81,1.81,0,0,1,1.44.6,2.27,2.27,0,0,1,.52,1.57v.46H95.77a1.92,1.92,0,0,0,.42,1.29,1.52,1.52,0,0,0,1.15.43,3.83,3.83,0,0,0,1.54-.32v.65a4.13,4.13,0,0,1-.73.24A4.06,4.06,0,0,1,97.31,58.16Zm-.19-4.38a1.21,1.21,0,0,0-.93.38,1.79,1.79,0,0,0-.41,1H98.3A1.55,1.55,0,0,0,98,54.15,1,1,0,0,0,97.12,53.78Z"/>
    <path d="M103.61,57.43h0a1.71,1.71,0,0,1-1.51.73,1.82,1.82,0,0,1-1.48-.64,2.86,2.86,0,0,1-.52-1.84,2.91,2.91,0,0,1,.53-1.85,2,2,0,0,1,3,.05h.06l0-.35V51.24h.73v6.83h-.6Zm-1.46.12a1.29,1.29,0,0,0,1.08-.41,2,2,0,0,0,.34-1.31v-.15a2.47,2.47,0,0,0-.34-1.46,1.31,1.31,0,0,0-1.09-.44,1.11,1.11,0,0,0-1,.5,2.45,2.45,0,0,0-.34,1.41,2.42,2.42,0,0,0,.33,1.39A1.17,1.17,0,0,0,102.15,57.55Z"/>
    <path d="M111.14,58.07l-.14-.68h0a2.06,2.06,0,0,1-.72.61,2.08,2.08,0,0,1-.89.16,1.58,1.58,0,0,1-1.12-.37,1.33,1.33,0,0,1-.41-1c0-1,.78-1.48,2.33-1.53l.82,0v-.3a1.24,1.24,0,0,0-.24-.84,1,1,0,0,0-.78-.27,3.1,3.1,0,0,0-1.36.37l-.23-.56a3.32,3.32,0,0,1,.78-.3,3.54,3.54,0,0,1,.85-.11,1.86,1.86,0,0,1,1.28.38,1.59,1.59,0,0,1,.41,1.23v3.28Zm-1.64-.51a1.44,1.44,0,0,0,1.06-.37,1.39,1.39,0,0,0,.39-1v-.43l-.73,0A2.63,2.63,0,0,0,109,56a.79.79,0,0,0-.38.74.77.77,0,0,0,.23.6A1,1,0,0,0,109.5,57.56Z"/>
    <path d="M114.74,57.56a2.34,2.34,0,0,0,.38,0l.28-.06V58a1.09,1.09,0,0,1-.35.09,2.1,2.1,0,0,1-.41,0c-.93,0-1.4-.49-1.4-1.47V53.82h-.69v-.35l.69-.3.31-1H114v1.12h1.4v.56H114v2.84a1,1,0,0,0,.21.67A.71.71,0,0,0,114.74,57.56Z"/>
    <path d="M121.66,58.07l-.14-.68h0a2.13,2.13,0,0,1-.71.61,2.16,2.16,0,0,1-.9.16,1.58,1.58,0,0,1-1.12-.37,1.33,1.33,0,0,1-.41-1c0-1,.78-1.48,2.33-1.53l.82,0v-.3a1.24,1.24,0,0,0-.24-.84,1,1,0,0,0-.78-.27,3.1,3.1,0,0,0-1.36.37l-.23-.56a3.32,3.32,0,0,1,.78-.3,3.54,3.54,0,0,1,.85-.11,1.86,1.86,0,0,1,1.28.38,1.59,1.59,0,0,1,.41,1.23v3.28ZM120,57.56a1.48,1.48,0,0,0,1.07-.37,1.38,1.38,0,0,0,.38-1v-.43l-.72,0a2.68,2.68,0,0,0-1.26.27.79.79,0,0,0-.38.74.74.74,0,0,0,.24.6A1,1,0,0,0,120,57.56Z"/>
    <path d="M130,58.07l-.89-2.82c-.05-.17-.15-.57-.31-1.18h0c-.12.51-.22.91-.31,1.19l-.91,2.81h-.84l-1.32-4.81h.77c.31,1.21.54,2.13.71,2.76s.25,1.06.28,1.28h0c0-.17.09-.38.16-.65s.13-.47.18-.63l.89-2.76h.79L130,56a10.51,10.51,0,0,1,.33,1.27h0a4.52,4.52,0,0,1,.09-.49c.05-.22.36-1.4.92-3.54h.76l-1.34,4.81Z"/>
    <path d="M137.2,55.66a2.68,2.68,0,0,1-.59,1.84,2.1,2.1,0,0,1-1.64.66,2.22,2.22,0,0,1-1.15-.3,2,2,0,0,1-.77-.87,3.07,3.07,0,0,1-.27-1.33,2.6,2.6,0,0,1,.59-1.83,2.31,2.31,0,0,1,3.24,0A2.69,2.69,0,0,1,137.2,55.66Zm-3.67,0a2.33,2.33,0,0,0,.37,1.41,1.48,1.48,0,0,0,2.18,0,2.33,2.33,0,0,0,.37-1.41,2.26,2.26,0,0,0-.37-1.39,1.32,1.32,0,0,0-1.1-.48,1.28,1.28,0,0,0-1.08.47A2.21,2.21,0,0,0,133.53,55.66Z"/>
    <path d="M140.68,53.17a3.27,3.27,0,0,1,.57,0l-.1.68a2.77,2.77,0,0,0-.52-.07,1.27,1.27,0,0,0-1,.48,1.71,1.71,0,0,0-.42,1.18v2.58h-.73V53.26h.6l.09.89h0a2.21,2.21,0,0,1,.65-.73A1.45,1.45,0,0,1,140.68,53.17Z"/>
    <path d="M145.26,56.76a1.2,1.2,0,0,1-.5,1,2.37,2.37,0,0,1-1.41.36,3.1,3.1,0,0,1-1.49-.3v-.68a3.52,3.52,0,0,0,.75.28,2.94,2.94,0,0,0,.76.1,1.75,1.75,0,0,0,.88-.18.63.63,0,0,0,.07-1,4,4,0,0,0-1-.47,5.16,5.16,0,0,1-1-.44A1.29,1.29,0,0,1,142,55a1,1,0,0,1-.14-.57,1.09,1.09,0,0,1,.48-.93,2.19,2.19,0,0,1,1.31-.34,3.84,3.84,0,0,1,1.52.32l-.26.59a3.46,3.46,0,0,0-1.31-.3,1.47,1.47,0,0,0-.78.16.51.51,0,0,0-.27.45.59.59,0,0,0,.1.33A1,1,0,0,0,143,55q.22.12.84.36A3.08,3.08,0,0,1,145,56,1.14,1.14,0,0,1,145.26,56.76Z"/>
    <path d="M148.48,58.16a2.18,2.18,0,0,1-1.68-.65,2.51,2.51,0,0,1-.62-1.8,2.78,2.78,0,0,1,.57-1.85,1.92,1.92,0,0,1,1.54-.69,1.81,1.81,0,0,1,1.44.6,2.27,2.27,0,0,1,.52,1.57v.46h-3.31a1.92,1.92,0,0,0,.42,1.29,1.52,1.52,0,0,0,1.15.43,3.83,3.83,0,0,0,1.54-.32v.65a4.13,4.13,0,0,1-.73.24A4.06,4.06,0,0,1,148.48,58.16Zm-.19-4.38a1.21,1.21,0,0,0-.93.38,1.79,1.79,0,0,0-.41,1h2.52a1.55,1.55,0,0,0-.31-1.05A1,1,0,0,0,148.29,53.78Z"/>
    <path d="M154.79,58.07V55a1.3,1.3,0,0,0-.26-.88,1.11,1.11,0,0,0-.84-.29,1.38,1.38,0,0,0-1.11.41,2,2,0,0,0-.35,1.35v2.52h-.73V53.26h.59l.12.66h0a1.47,1.47,0,0,1,.62-.56,2.2,2.2,0,0,1,.9-.19,1.82,1.82,0,0,1,1.31.42,1.76,1.76,0,0,1,.44,1.34v3.14Z"/>
    <path d="M159.06,58.16a2.19,2.19,0,0,1-1.69-.65,2.51,2.51,0,0,1-.62-1.8,2.73,2.73,0,0,1,.58-1.85,1.89,1.89,0,0,1,1.54-.69,1.81,1.81,0,0,1,1.43.6,2.28,2.28,0,0,1,.53,1.57v.46h-3.32a1.92,1.92,0,0,0,.43,1.29,1.48,1.48,0,0,0,1.14.43,3.83,3.83,0,0,0,1.54-.32v.65a4.13,4.13,0,0,1-.73.24A4,4,0,0,1,159.06,58.16Zm-.2-4.38a1.21,1.21,0,0,0-.93.38,1.72,1.72,0,0,0-.4,1h2.52a1.6,1.6,0,0,0-.31-1.05A1.08,1.08,0,0,0,158.86,53.78Z"/>
    <path d="M165.35,57.43h0a1.71,1.71,0,0,1-1.51.73,1.79,1.79,0,0,1-1.47-.64,2.86,2.86,0,0,1-.53-1.84,2.91,2.91,0,0,1,.53-1.85,2,2,0,0,1,3,.05h.06l0-.35,0-.33v-2H166v6.83h-.59Zm-1.46.12a1.29,1.29,0,0,0,1.08-.41,2,2,0,0,0,.34-1.31v-.15a2.39,2.39,0,0,0-.34-1.46,1.31,1.31,0,0,0-1.09-.44,1.12,1.12,0,0,0-1,.5,2.45,2.45,0,0,0-.34,1.41,2.34,2.34,0,0,0,.34,1.39A1.14,1.14,0,0,0,163.89,57.55Z"/>
    <path d="M172.17,58.16a2.16,2.16,0,0,1-.86-.17,1.72,1.72,0,0,1-.66-.54h-.05a5.72,5.72,0,0,1,.05.8v2h-.73v-7h.6l.1.66h0a1.61,1.61,0,0,1,.66-.57,1.94,1.94,0,0,1,.86-.18,1.78,1.78,0,0,1,1.47.65,3.46,3.46,0,0,1,0,3.68A1.8,1.8,0,0,1,172.17,58.16Zm-.11-4.37a1.31,1.31,0,0,0-1.07.41,2.11,2.11,0,0,0-.34,1.3v.16a2.43,2.43,0,0,0,.34,1.45,1.28,1.28,0,0,0,1.09.44,1.16,1.16,0,0,0,1-.5,2.48,2.48,0,0,0,.35-1.4,2.34,2.34,0,0,0-.35-1.38A1.18,1.18,0,0,0,172.06,53.79Z"/>
    <path d="M178.4,58.07l-.14-.68h0a2.06,2.06,0,0,1-.72.61,2.12,2.12,0,0,1-.89.16,1.58,1.58,0,0,1-1.12-.37,1.3,1.3,0,0,1-.41-1c0-1,.78-1.48,2.33-1.53l.82,0v-.3a1.24,1.24,0,0,0-.24-.84,1,1,0,0,0-.78-.27,3.14,3.14,0,0,0-1.37.37l-.22-.56a3.32,3.32,0,0,1,.78-.3,3.54,3.54,0,0,1,.85-.11,1.88,1.88,0,0,1,1.28.38,1.63,1.63,0,0,1,.41,1.23v3.28Zm-1.65-.51a1.47,1.47,0,0,0,1.07-.37,1.39,1.39,0,0,0,.39-1v-.43l-.73,0a2.6,2.6,0,0,0-1.25.27.8.8,0,0,0-.39.74.74.74,0,0,0,.24.6A1,1,0,0,0,176.75,57.56Z"/>
    <path d="M182.37,58.16a2,2,0,0,1-1.62-.64,2.66,2.66,0,0,1-.57-1.82,2.72,2.72,0,0,1,.58-1.87,2.1,2.1,0,0,1,1.66-.66,3.23,3.23,0,0,1,.69.07,2.21,2.21,0,0,1,.55.18l-.23.62a3.53,3.53,0,0,0-.52-.16,2.5,2.5,0,0,0-.51-.06c-1,0-1.47.62-1.47,1.87a2.22,2.22,0,0,0,.36,1.36,1.23,1.23,0,0,0,1.06.47,3.31,3.31,0,0,0,1.24-.25v.64A2.63,2.63,0,0,1,182.37,58.16Z"/>
    <path d="M186.76,58.16a2.18,2.18,0,0,1-1.68-.65,2.51,2.51,0,0,1-.62-1.8,2.73,2.73,0,0,1,.58-1.85,1.89,1.89,0,0,1,1.54-.69,1.81,1.81,0,0,1,1.43.6,2.28,2.28,0,0,1,.53,1.57v.46h-3.32a1.87,1.87,0,0,0,.43,1.29,1.48,1.48,0,0,0,1.14.43,3.83,3.83,0,0,0,1.54-.32v.65a4.13,4.13,0,0,1-.73.24A4.06,4.06,0,0,1,186.76,58.16Zm-.19-4.38a1.21,1.21,0,0,0-.93.38,1.79,1.79,0,0,0-.41,1h2.52a1.6,1.6,0,0,0-.3-1.05A1.08,1.08,0,0,0,186.57,53.78Z"/>
    <path d="M189.67,57.61a.65.65,0,0,1,.14-.45.48.48,0,0,1,.38-.15.54.54,0,0,1,.4.15.65.65,0,0,1,.14.45.64.64,0,0,1-.14.44.54.54,0,0,1-.4.15.49.49,0,0,1-.37-.14A.58.58,0,0,1,189.67,57.61Z"/>
  </g>
  <g>
    <g>
      <path class="cls-13" d="M7.66,262.52A1.59,1.59,0,0,1,7,263.84a2.63,2.63,0,0,1-1.67.47A4.1,4.1,0,0,1,3.62,264v-.72a4.33,4.33,0,0,0,.86.26,4.18,4.18,0,0,0,.92.1,1.89,1.89,0,0,0,1.13-.28.93.93,0,0,0,.37-.79,1,1,0,0,0-.13-.55,1.27,1.27,0,0,0-.45-.39,6.28,6.28,0,0,0-1-.41,3.2,3.2,0,0,1-1.29-.76,1.71,1.71,0,0,1-.38-1.15,1.43,1.43,0,0,1,.56-1.18,2.32,2.32,0,0,1,1.47-.44,4.47,4.47,0,0,1,1.77.35l-.24.65a4,4,0,0,0-1.54-.33,1.49,1.49,0,0,0-.93.25.85.85,0,0,0-.33.71,1.12,1.12,0,0,0,.12.55,1.19,1.19,0,0,0,.41.39,5.14,5.14,0,0,0,.9.39,3.48,3.48,0,0,1,1.39.78A1.52,1.52,0,0,1,7.66,262.52Z"/>
      <path class="cls-13" d="M13,261.81a2.68,2.68,0,0,1-.59,1.84,2.1,2.1,0,0,1-1.64.66,2.19,2.19,0,0,1-1.15-.3,2,2,0,0,1-.77-.87,3.07,3.07,0,0,1-.27-1.33A2.66,2.66,0,0,1,9.18,260a2.1,2.1,0,0,1,1.64-.66,2,2,0,0,1,1.6.67A2.65,2.65,0,0,1,13,261.81Zm-3.67,0a2.26,2.26,0,0,0,.37,1.41,1.3,1.3,0,0,0,1.09.48,1.28,1.28,0,0,0,1.08-.48,2.26,2.26,0,0,0,.37-1.41,2.21,2.21,0,0,0-.37-1.39,1.28,1.28,0,0,0-1.09-.48,1.28,1.28,0,0,0-1.08.47A2.23,2.23,0,0,0,9.35,261.81Z"/>
      <path class="cls-13" d="M15,259.41v3.13a1.23,1.23,0,0,0,.27.87,1.07,1.07,0,0,0,.84.29,1.37,1.37,0,0,0,1.11-.41,2.08,2.08,0,0,0,.35-1.35v-2.53h.73v4.82h-.61l-.1-.65h0a1.5,1.5,0,0,1-.62.55,2.21,2.21,0,0,1-.91.18,1.83,1.83,0,0,1-1.32-.41,1.8,1.8,0,0,1-.43-1.34v-3.15Z"/>
      <path class="cls-13" d="M22,259.32a2.65,2.65,0,0,1,.58.06l-.11.67A2.68,2.68,0,0,0,22,260a1.26,1.26,0,0,0-1,.47,1.72,1.72,0,0,0-.42,1.18v2.59h-.73v-4.82h.6l.09.89h0a2.17,2.17,0,0,1,.65-.72A1.46,1.46,0,0,1,22,259.32Z"/>
      <path class="cls-13" d="M25.42,264.31a2,2,0,0,1-1.62-.64,2.65,2.65,0,0,1-.57-1.82,2.72,2.72,0,0,1,.58-1.87,2.1,2.1,0,0,1,1.66-.66,3.25,3.25,0,0,1,.69.08,2.79,2.79,0,0,1,.55.17l-.23.62A3.53,3.53,0,0,0,26,260a2.5,2.5,0,0,0-.51-.06c-1,0-1.47.62-1.47,1.87a2.2,2.2,0,0,0,.36,1.36,1.24,1.24,0,0,0,1.06.48,3.32,3.32,0,0,0,1.24-.26v.64A2.6,2.6,0,0,1,25.42,264.31Z"/>
      <path class="cls-13" d="M29.82,264.31a2.19,2.19,0,0,1-1.69-.65,2.51,2.51,0,0,1-.62-1.8,2.75,2.75,0,0,1,.58-1.85,1.89,1.89,0,0,1,1.54-.69,1.81,1.81,0,0,1,1.43.6,2.28,2.28,0,0,1,.53,1.57V262H28.27a1.88,1.88,0,0,0,.43,1.29,1.48,1.48,0,0,0,1.14.44,3.85,3.85,0,0,0,1.54-.33V264a4.13,4.13,0,0,1-.73.24A4,4,0,0,1,29.82,264.31Zm-.2-4.38a1.21,1.21,0,0,0-.93.38,1.73,1.73,0,0,0-.4,1.05H30.8a1.65,1.65,0,0,0-.3-1.06A1.11,1.11,0,0,0,29.62,259.93Z"/>
      <path class="cls-13" d="M32.72,259.88c0-.4.18-.59.52-.59s.54.19.54.59a.6.6,0,0,1-.14.44.54.54,0,0,1-.4.15.52.52,0,0,1-.37-.13A.62.62,0,0,1,32.72,259.88Zm0,3.88a.67.67,0,0,1,.14-.45.49.49,0,0,1,.38-.15.52.52,0,0,1,.4.15.62.62,0,0,1,.14.45.6.6,0,0,1-.14.44.54.54,0,0,1-.4.15.52.52,0,0,1-.37-.13A.62.62,0,0,1,32.72,263.76Z"/>
      <path class="cls-13" d="M40.52,264.23l-2.18-5.7h0c0,.45.06,1,.06,1.61v4.09h-.69V257.8H38.8l2,5.3h0l2.05-5.3H44v6.43h-.75v-4.14c0-.48,0-1,.06-1.55h0l-2.19,5.69Z"/>
      <path class="cls-13" d="M47.78,264.23H47v-5.76H45v-.67h4.82v.67h-2Z"/>
      <path class="cls-13" d="M54.81,264.23l-.8-2.05H51.44l-.79,2.05h-.76l2.54-6.45h.63l2.53,6.45Zm-1-2.72-.74-2a8.58,8.58,0,0,1-.3-.93c-.07.28-.16.59-.28.93l-.76,2Z"/>
    </g>
    <g>
      <path class="cls-13" d="M372.41,263.52a1.58,1.58,0,0,1-.61,1.32,2.65,2.65,0,0,1-1.67.47,4.15,4.15,0,0,1-1.76-.29v-.72a4.33,4.33,0,0,0,.86.26,4.18,4.18,0,0,0,.92.1,1.86,1.86,0,0,0,1.13-.28.94.94,0,0,0,.38-.79,1,1,0,0,0-.14-.55,1.27,1.27,0,0,0-.45-.39,5.85,5.85,0,0,0-.95-.41,3.08,3.08,0,0,1-1.28-.76,1.67,1.67,0,0,1-.39-1.15,1.43,1.43,0,0,1,.56-1.18,2.35,2.35,0,0,1,1.48-.44,4.42,4.42,0,0,1,1.76.35l-.23.65a4,4,0,0,0-1.55-.33,1.49,1.49,0,0,0-.93.25.85.85,0,0,0-.33.71,1.12,1.12,0,0,0,.12.55,1.14,1.14,0,0,0,.42.39,4.67,4.67,0,0,0,.89.39,3.48,3.48,0,0,1,1.39.78A1.48,1.48,0,0,1,372.41,263.52Z"/>
      <path class="cls-13" d="M376.58,265.23l-.15-.69h0a2,2,0,0,1-.72.61,2.15,2.15,0,0,1-.89.16,1.65,1.65,0,0,1-1.13-.36,1.37,1.37,0,0,1-.4-1.06c0-1,.77-1.48,2.33-1.52l.82,0V262a1.19,1.19,0,0,0-.25-.84,1,1,0,0,0-.78-.27,3.28,3.28,0,0,0-1.36.37l-.22-.56a3.42,3.42,0,0,1,.78-.3,3.48,3.48,0,0,1,.85-.11,1.84,1.84,0,0,1,1.27.38,1.61,1.61,0,0,1,.42,1.23v3.29Zm-1.65-.52a1.48,1.48,0,0,0,1.07-.37,1.39,1.39,0,0,0,.39-1v-.43l-.73,0a2.6,2.6,0,0,0-1.25.27.81.81,0,0,0-.39.74.76.76,0,0,0,.24.61A1,1,0,0,0,374.93,264.71Z"/>
      <path class="cls-13" d="M382.56,265.23l-.89-2.83c-.05-.17-.16-.56-.31-1.18h0c-.12.52-.23.91-.31,1.19l-.91,2.82h-.85L378,260.41h.76l.71,2.76a9.44,9.44,0,0,1,.28,1.28h0c0-.16.08-.38.15-.65l.19-.63.88-2.76h.79l.87,2.76a10.51,10.51,0,0,1,.33,1.27h0a4.45,4.45,0,0,1,.09-.48c.05-.22.36-1.41.92-3.55h.75l-1.33,4.82Z"/>
      <path class="cls-13" d="M384.86,260.41h.78l1.05,2.75a10.28,10.28,0,0,1,.44,1.35h0c0-.14.12-.4.24-.76s.52-1.48,1.19-3.34h.79l-2.07,5.48a2.82,2.82,0,0,1-.72,1.16,1.52,1.52,0,0,1-1,.34,3,3,0,0,1-.66-.08v-.58a2.92,2.92,0,0,0,.54,0,1.11,1.11,0,0,0,1.07-.84l.27-.69Z"/>
      <path class="cls-13" d="M392.19,265.31a2.18,2.18,0,0,1-1.68-.65,2.46,2.46,0,0,1-.62-1.8,2.8,2.8,0,0,1,.57-1.85,1.9,1.9,0,0,1,1.54-.69,1.83,1.83,0,0,1,1.44.6,2.27,2.27,0,0,1,.52,1.57V263h-3.31a1.88,1.88,0,0,0,.42,1.29,1.51,1.51,0,0,0,1.15.44,3.85,3.85,0,0,0,1.54-.33V265a4.22,4.22,0,0,1-.74.24A4,4,0,0,1,392.19,265.31Zm-.2-4.38a1.2,1.2,0,0,0-.92.38,1.73,1.73,0,0,0-.41,1.05h2.52a1.6,1.6,0,0,0-.31-1.06A1.08,1.08,0,0,0,392,260.93Z"/>
      <path class="cls-13" d="M397.4,260.32a2.52,2.52,0,0,1,.58.06l-.1.67a2.77,2.77,0,0,0-.53-.06,1.27,1.27,0,0,0-1,.47,1.72,1.72,0,0,0-.41,1.18v2.59h-.73v-4.82h.6l.08.89h0a2.15,2.15,0,0,1,.64-.72A1.46,1.46,0,0,1,397.4,260.32Z"/>
      <path class="cls-13" d="M404.08,259.38a2.09,2.09,0,0,0-1.67.7,2.85,2.85,0,0,0-.62,1.93,2.89,2.89,0,0,0,.59,1.95,2.12,2.12,0,0,0,1.69.69,5.73,5.73,0,0,0,1.53-.24v.65a4.6,4.6,0,0,1-1.64.25,2.79,2.79,0,0,1-2.2-.86A3.55,3.55,0,0,1,401,262a3.78,3.78,0,0,1,.38-1.74,2.62,2.62,0,0,1,1.07-1.16,3.2,3.2,0,0,1,1.65-.4,3.9,3.9,0,0,1,1.76.37l-.31.64A3.42,3.42,0,0,0,404.08,259.38Z"/>
      <path class="cls-13" d="M407.63,265.23h-.73v-6.84h.73Z"/>
      <path class="cls-13" d="M409.11,259.11a.5.5,0,0,1,.12-.37.45.45,0,0,1,.31-.12.41.41,0,0,1,.3.12.46.46,0,0,1,.13.37.45.45,0,0,1-.13.36.41.41,0,0,1-.3.12.45.45,0,0,1-.31-.12A.49.49,0,0,1,409.11,259.11Zm.79,6.12h-.73v-4.82h.73Z"/>
      <path class="cls-13" d="M413.37,265.31a2.07,2.07,0,0,1-1.62-.64,2.65,2.65,0,0,1-.57-1.82,2.72,2.72,0,0,1,.58-1.87,2.1,2.1,0,0,1,1.66-.66,3.42,3.42,0,0,1,.7.08,2.67,2.67,0,0,1,.54.17l-.22.62a3.67,3.67,0,0,0-.53-.16,2.5,2.5,0,0,0-.51-.06c-1,0-1.46.62-1.46,1.87a2.27,2.27,0,0,0,.35,1.36,1.26,1.26,0,0,0,1.07.48,3.28,3.28,0,0,0,1.23-.26v.64A2.6,2.6,0,0,1,413.37,265.31Z"/>
      <path class="cls-13" d="M416.45,262.76a9,9,0,0,1,.58-.7l1.55-1.65h.87l-1.95,2,2.09,2.77h-.89L417,263l-.55.48v1.8h-.72v-6.84h.72V262q0,.25,0,.75Z"/>
    </g>
  </g>
  <g>
    <path class="cls-13" d="M26.06,126.62v-2.79a1.11,1.11,0,0,0-.22-.76.85.85,0,0,0-.68-.26,1.1,1.1,0,0,0-.89.35,1.61,1.61,0,0,0-.29,1.07v2.39h-.65v-2.79a1.11,1.11,0,0,0-.22-.76.85.85,0,0,0-.68-.26,1.06,1.06,0,0,0-.9.37,2,2,0,0,0-.28,1.19v2.25H20.6v-4.28h.53l.11.58h0a1.27,1.27,0,0,1,.51-.49,1.72,1.72,0,0,1,.75-.17,1.26,1.26,0,0,1,1.31.73h0a1.3,1.3,0,0,1,.55-.54,1.72,1.72,0,0,1,.83-.19,1.45,1.45,0,0,1,1.09.37,1.69,1.69,0,0,1,.36,1.2v2.79Z"/>
    <path class="cls-13" d="M28,121.18a.45.45,0,0,1,.11-.33.41.41,0,0,1,.54,0,.41.41,0,0,1,.11.33.4.4,0,0,1-.11.32.39.39,0,0,1-.54,0A.44.44,0,0,1,28,121.18Zm.7,5.44H28v-4.28h.65Z"/>
    <path class="cls-13" d="M30.72,126.62h-.65v-6.08h.65Z"/>
    <path class="cls-13" d="M32.74,126.62h-.65v-6.08h.65Z"/>
    <path class="cls-13" d="M34.06,121.18a.45.45,0,0,1,.11-.33.41.41,0,0,1,.54,0,.42.42,0,0,1,.12.33.41.41,0,0,1-.12.32.39.39,0,0,1-.54,0A.44.44,0,0,1,34.06,121.18Zm.7,5.44h-.65v-4.28h.65Z"/>
    <path class="cls-13" d="M39.83,124.47a2.37,2.37,0,0,1-.52,1.64,1.88,1.88,0,0,1-1.46.59,1.94,1.94,0,0,1-1-.27,1.75,1.75,0,0,1-.69-.78,2.7,2.7,0,0,1-.24-1.18,2.36,2.36,0,0,1,.52-1.63,1.86,1.86,0,0,1,1.46-.58,1.79,1.79,0,0,1,1.42.6A2.3,2.3,0,0,1,39.83,124.47Zm-3.26,0a2,2,0,0,0,.33,1.25,1.13,1.13,0,0,0,1,.43,1.15,1.15,0,0,0,1-.42,2.06,2.06,0,0,0,.33-1.26,2,2,0,0,0-.33-1.24,1.15,1.15,0,0,0-1-.42,1.12,1.12,0,0,0-1,.42A2,2,0,0,0,36.57,124.47Z"/>
    <path class="cls-13" d="M43.9,126.62v-2.77a1.1,1.1,0,0,0-.24-.78,1,1,0,0,0-.74-.26,1.25,1.25,0,0,0-1,.36,1.86,1.86,0,0,0-.31,1.2v2.25H41v-4.28h.53l.1.58h0a1.41,1.41,0,0,1,.56-.49,1.91,1.91,0,0,1,.8-.17,1.63,1.63,0,0,1,1.17.37,1.6,1.6,0,0,1,.39,1.2v2.79Z"/>
  </g>
</svg>
