<svg id="Layer_1" data-name="Layer 1" xmlns="http://www.w3.org/2000/svg" viewBox="0 0 891.15 301.39">
  <defs>
    <style>
      .cls-1 {
        fill: #e5e5e5;
      }

      .cls-2 {
        fill: #555;
      }

      .cls-3 {
        fill: #f4d678;
      }

      .cls-4 {
        fill: #545454;
      }

      .cls-5, .cls-6, .cls-9 {
        fill: none;
      }

      .cls-5 {
        stroke: #fff;
        stroke-linecap: square;
        stroke-linejoin: round;
        stroke-width: 0.8px;
      }

      .cls-7 {
        fill: #5580b6;
      }

      .cls-8 {
        fill: #f07b7b;
      }

      .cls-9 {
        stroke: #eee;
        stroke-miterlimit: 10;
        stroke-width: 0.5px;
      }
    </style>
  </defs>
  <title>ridership_loss_top_4</title>
  <rect class="cls-1" y="17.78" width="891.15" height="282.86"/>
  <path class="cls-2" d="M32.32,107.73a3.71,3.71,0,0,1-.45,2,1.49,1.49,0,0,1-1.32.68,1.44,1.44,0,0,1-1.27-.69,4.69,4.69,0,0,1,0-4,1.44,1.44,0,0,1,1.29-.68,1.49,1.49,0,0,1,1.31.7A3.67,3.67,0,0,1,32.32,107.73Zm-2.69,0a4.05,4.05,0,0,0,.22,1.5.72.72,0,0,0,.7.49c.64,0,1-.66,1-2s-.32-2-1-2a.72.72,0,0,0-.7.49A4,4,0,0,0,29.63,107.73ZM36,105.18l-4.76,8.56h-.86l4.76-8.56Zm1.51,6a3.71,3.71,0,0,1-.45,2,1.49,1.49,0,0,1-1.32.68,1.43,1.43,0,0,1-1.28-.7,3.78,3.78,0,0,1-.44-2,3.74,3.74,0,0,1,.43-2,1.43,1.43,0,0,1,1.29-.67,1.48,1.48,0,0,1,1.3.69A3.51,3.51,0,0,1,37.48,111.16Zm-2.69,0a3.82,3.82,0,0,0,.22,1.5.73.73,0,0,0,.7.5.77.77,0,0,0,.73-.49,3.61,3.61,0,0,0,.24-1.51,3.49,3.49,0,0,0-.24-1.48.76.76,0,0,0-.73-.48.72.72,0,0,0-.7.48A3.71,3.71,0,0,0,34.79,111.16Z"/>
  <rect class="cls-3" x="7.81" width="330.45" height="37.47"/>
  <g>
    <path d="M29.29,25.66H26.71V18.58H19.47v7.08H16.9V10h2.57v6.43h7.24V10h2.58Z"/>
    <path d="M40.59,25.66,40.08,24H40a4.86,4.86,0,0,1-1.73,1.48,5.52,5.52,0,0,1-2.24.39,3.76,3.76,0,0,1-2.73-.94,3.52,3.52,0,0,1-1-2.68,3.14,3.14,0,0,1,1.37-2.77,7.91,7.91,0,0,1,4.16-1l2-.06v-.64a2.4,2.4,0,0,0-.53-1.7,2.17,2.17,0,0,0-1.65-.57,5.62,5.62,0,0,0-1.75.27,12.69,12.69,0,0,0-1.62.64l-.81-1.81a9.27,9.27,0,0,1,2.11-.77,10.09,10.09,0,0,1,2.17-.26,5.14,5.14,0,0,1,3.43,1,3.86,3.86,0,0,1,1.15,3.1v8Zm-3.76-1.72a3.12,3.12,0,0,0,2.2-.77A2.77,2.77,0,0,0,39.87,21V20l-1.53.06a5.1,5.1,0,0,0-2.59.6,1.79,1.79,0,0,0-.81,1.62,1.57,1.57,0,0,0,.47,1.23A2,2,0,0,0,36.83,23.94Z"/>
    <path d="M51.94,13.56a6.2,6.2,0,0,1,1.26.11L53,16a5.12,5.12,0,0,0-1.12-.13,3.21,3.21,0,0,0-2.45,1,3.57,3.57,0,0,0-.94,2.57v6.21H45.91V13.78h2l.33,2.09h.13a4.84,4.84,0,0,1,1.54-1.69A3.73,3.73,0,0,1,51.94,13.56Z"/>
    <path d="M63.38,22.27a3.1,3.1,0,0,1-1.27,2.67,6,6,0,0,1-3.63.93,8.57,8.57,0,0,1-3.81-.72V23a9.31,9.31,0,0,0,3.9,1c1.55,0,2.33-.47,2.33-1.41a1.12,1.12,0,0,0-.26-.75,2.87,2.87,0,0,0-.85-.62,13.16,13.16,0,0,0-1.64-.73,7.66,7.66,0,0,1-2.78-1.59,3,3,0,0,1-.72-2.07,2.73,2.73,0,0,1,1.23-2.37,5.83,5.83,0,0,1,3.34-.84,9.44,9.44,0,0,1,4,.85l-.82,1.9a8.79,8.79,0,0,0-3.23-.79c-1.33,0-2,.38-2,1.14a1.13,1.13,0,0,0,.52.94,11.57,11.57,0,0,0,2.27,1.06,10.06,10.06,0,0,1,2.14,1.05,3.09,3.09,0,0,1,1,1.09A3.19,3.19,0,0,1,63.38,22.27Z"/>
    <path d="M76.56,25.66H74V18.35a3.19,3.19,0,0,0-.56-2.05,2.13,2.13,0,0,0-1.75-.68,2.81,2.81,0,0,0-2.34,1,5.25,5.25,0,0,0-.75,3.19v5.9H66.11V8.94h2.52v4.25a18.94,18.94,0,0,1-.13,2.18h.17A3.49,3.49,0,0,1,70.1,14a4.69,4.69,0,0,1,2.14-.47q4.32,0,4.32,4.35Z"/>
    <path d="M98.83,17.65a7.82,7.82,0,0,1-2.16,6,8.68,8.68,0,0,1-6.22,2.06H86.06V10h4.85a8.08,8.08,0,0,1,5.84,2A7.54,7.54,0,0,1,98.83,17.65Zm-2.71.09q0-5.64-5.27-5.64H88.63V23.5h1.82Q96.12,23.5,96.12,17.74Z"/>
    <path d="M108,13.56a6.2,6.2,0,0,1,1.26.11L109,16a5.12,5.12,0,0,0-1.12-.13,3.22,3.22,0,0,0-2.45,1,3.57,3.57,0,0,0-.94,2.57v6.21h-2.53V13.78h2l.33,2.09h.13a4.84,4.84,0,0,1,1.54-1.69A3.73,3.73,0,0,1,108,13.56Z"/>
    <path d="M122,19.7a6.46,6.46,0,0,1-1.5,4.54,5.33,5.33,0,0,1-4.15,1.63,5.75,5.75,0,0,1-3-.75,5,5,0,0,1-2-2.16,7.34,7.34,0,0,1-.69-3.26,6.49,6.49,0,0,1,1.48-4.52,5.38,5.38,0,0,1,4.18-1.62,5.21,5.21,0,0,1,4.08,1.66A6.39,6.39,0,0,1,122,19.7Zm-8.65,0q0,4.11,3,4.11t3-4.11q0-4.08-3-4.08A2.58,2.58,0,0,0,114,16.68,5.39,5.39,0,0,0,113.31,19.7Z"/>
    <path d="M130.88,25.87a4.16,4.16,0,0,1-3.5-1.62h-.15q.15,1.5.15,1.83v4.86h-2.52V13.78h2c.06.22.17.75.35,1.59h.13a4,4,0,0,1,3.55-1.81,4.13,4.13,0,0,1,3.46,1.61,7.26,7.26,0,0,1,1.24,4.53,7.27,7.27,0,0,1-1.26,4.54A4.15,4.15,0,0,1,130.88,25.87Zm-.61-10.25a2.63,2.63,0,0,0-2.19.88,4.53,4.53,0,0,0-.7,2.82v.38a5.55,5.55,0,0,0,.69,3.14,2.56,2.56,0,0,0,2.25,1,2.27,2.27,0,0,0,2-1.07,5.51,5.51,0,0,0,.71-3.07,5.33,5.33,0,0,0-.7-3A2.36,2.36,0,0,0,130.27,15.62Z"/>
    <path d="M146.55,22.27a3.12,3.12,0,0,1-1.27,2.67,6.08,6.08,0,0,1-3.63.93,8.61,8.61,0,0,1-3.82-.72V23a9.31,9.31,0,0,0,3.9,1q2.34,0,2.34-1.41a1.12,1.12,0,0,0-.26-.75,3,3,0,0,0-.85-.62,13.88,13.88,0,0,0-1.64-.73,7.57,7.57,0,0,1-2.78-1.59,3,3,0,0,1-.73-2.07A2.73,2.73,0,0,1,139,14.4a5.87,5.87,0,0,1,3.35-.84,9.36,9.36,0,0,1,4,.85l-.81,1.9a8.83,8.83,0,0,0-3.24-.79c-1.33,0-2,.38-2,1.14a1.13,1.13,0,0,0,.52.94,11,11,0,0,0,2.27,1.06,10.32,10.32,0,0,1,2.14,1.05,3,3,0,0,1,1,1.09A3.07,3.07,0,0,1,146.55,22.27Z"/>
    <path d="M164.14,25.66h-8.88V10h8.88v2.17h-6.31V16.4h5.92v2.15h-5.92v4.93h6.31Z"/>
    <path d="M169.91,19.59l-4-5.81h2.87l2.71,4.15,2.73-4.15h2.86l-4,5.81,4.2,6.07h-2.86l-2.93-4.45-2.92,4.45h-2.86Z"/>
    <path d="M185.41,25.87a4.16,4.16,0,0,1-3.5-1.62h-.15q.15,1.5.15,1.83v4.86h-2.52V13.78h2c0,.22.17.75.35,1.59h.13a4,4,0,0,1,3.55-1.81,4.13,4.13,0,0,1,3.46,1.61,7.26,7.26,0,0,1,1.24,4.53,7.27,7.27,0,0,1-1.26,4.54A4.16,4.16,0,0,1,185.41,25.87Zm-.61-10.25a2.65,2.65,0,0,0-2.2.88,4.6,4.6,0,0,0-.69,2.82v.38a5.55,5.55,0,0,0,.69,3.14,2.54,2.54,0,0,0,2.24,1,2.28,2.28,0,0,0,2-1.07,5.6,5.6,0,0,0,.71-3.07,5.33,5.33,0,0,0-.7-3A2.36,2.36,0,0,0,184.8,15.62Z"/>
    <path d="M198.28,25.87A5.76,5.76,0,0,1,194,24.26a6.13,6.13,0,0,1-1.57-4.46,6.75,6.75,0,0,1,1.45-4.57,5,5,0,0,1,4-1.67A4.91,4.91,0,0,1,201.54,15a5.44,5.44,0,0,1,1.36,3.93v1.37H195a3.88,3.88,0,0,0,.94,2.65,3.24,3.24,0,0,0,2.48.93,9.38,9.38,0,0,0,2-.19,11,11,0,0,0,1.95-.67v2.06a7.89,7.89,0,0,1-1.87.62A11.63,11.63,0,0,1,198.28,25.87Zm-.46-10.4a2.54,2.54,0,0,0-1.93.77,3.61,3.61,0,0,0-.86,2.22h5.39a3.32,3.32,0,0,0-.71-2.23A2.45,2.45,0,0,0,197.82,15.47Z"/>
    <path d="M210.56,25.87a5.21,5.21,0,0,1-4.1-1.57,6.61,6.61,0,0,1-1.4-4.52,6.61,6.61,0,0,1,1.47-4.61,5.44,5.44,0,0,1,4.23-1.61,7.91,7.91,0,0,1,3.39.7l-.77,2a7.45,7.45,0,0,0-2.64-.62q-3.08,0-3.08,4.09a4.91,4.91,0,0,0,.77,3,2.66,2.66,0,0,0,2.25,1,6.45,6.45,0,0,0,3.19-.84v2.2a4.67,4.67,0,0,1-1.45.57A8.94,8.94,0,0,1,210.56,25.87Z"/>
    <path d="M221.09,23.83a6.2,6.2,0,0,0,1.84-.29v1.9a4.74,4.74,0,0,1-1.08.31,7.56,7.56,0,0,1-1.36.12c-2.4,0-3.59-1.26-3.59-3.78v-6.4h-1.62V14.57l1.74-.92.86-2.52h1.55v2.65h3.39v1.91h-3.39v6.36a1.77,1.77,0,0,0,.46,1.35A1.65,1.65,0,0,0,221.09,23.83Z"/>
    <path d="M230.5,25.87a5.78,5.78,0,0,1-4.34-1.61,6.17,6.17,0,0,1-1.56-4.46,6.7,6.7,0,0,1,1.45-4.57,5,5,0,0,1,4-1.67A4.9,4.9,0,0,1,233.75,15a5.45,5.45,0,0,1,1.37,3.93v1.37H227.2a3.87,3.87,0,0,0,.93,2.65,3.27,3.27,0,0,0,2.49.93,9.38,9.38,0,0,0,2-.19,11,11,0,0,0,1.95-.67v2.06a7.89,7.89,0,0,1-1.87.62A11.63,11.63,0,0,1,230.5,25.87ZM230,15.47a2.52,2.52,0,0,0-1.93.77,3.56,3.56,0,0,0-.87,2.22h5.39a3.32,3.32,0,0,0-.7-2.23A2.45,2.45,0,0,0,230,15.47Z"/>
    <path d="M242,25.87a4.15,4.15,0,0,1-3.47-1.61,7.23,7.23,0,0,1-1.24-4.52,7.26,7.26,0,0,1,1.26-4.55A4.15,4.15,0,0,1,242,13.56a4.1,4.1,0,0,1,3.57,1.73h.13a15.24,15.24,0,0,1-.18-2V8.94h2.53V25.66h-2l-.43-1.56h-.12A4,4,0,0,1,242,25.87Zm.68-2a2.77,2.77,0,0,0,2.27-.87,4.71,4.71,0,0,0,.73-2.85v-.35a5.37,5.37,0,0,0-.73-3.19,2.72,2.72,0,0,0-2.29-1,2.33,2.33,0,0,0-2.06,1.08,5.55,5.55,0,0,0-.71,3.08,5.43,5.43,0,0,0,.69,3A2.36,2.36,0,0,0,242.67,23.83Z"/>
    <path d="M257.67,25.66V10h2.57v13.5h6.65v2.21Z"/>
    <path d="M269.18,10.63a1.38,1.38,0,0,1,.37-1,1.43,1.43,0,0,1,1.06-.37A1.3,1.3,0,0,1,272,10.63a1.34,1.34,0,0,1-.38,1,1.37,1.37,0,0,1-1,.37,1.43,1.43,0,0,1-1.06-.37A1.34,1.34,0,0,1,269.18,10.63Zm2.67,15h-2.52V13.78h2.52Z"/>
    <path d="M285.92,25.66h-2.54V18.35a3.2,3.2,0,0,0-.55-2.05,2.16,2.16,0,0,0-1.76-.68,2.78,2.78,0,0,0-2.34,1,5.19,5.19,0,0,0-.74,3.17v5.92h-2.53V13.78h2l.35,1.55h.13A3.58,3.58,0,0,1,279.45,14a5.24,5.24,0,0,1,2.19-.46q4.28,0,4.28,4.35Z"/>
    <path d="M294.62,25.87a5.78,5.78,0,0,1-4.34-1.61,6.17,6.17,0,0,1-1.56-4.46,6.7,6.7,0,0,1,1.45-4.57,5,5,0,0,1,4-1.67A4.91,4.91,0,0,1,297.87,15a5.45,5.45,0,0,1,1.37,3.93v1.37h-7.92a3.87,3.87,0,0,0,.93,2.65,3.26,3.26,0,0,0,2.48.93,9.41,9.41,0,0,0,2-.19,11,11,0,0,0,1.95-.67v2.06a7.89,7.89,0,0,1-1.87.62A11.63,11.63,0,0,1,294.62,25.87Zm-.47-10.4a2.52,2.52,0,0,0-1.92.77,3.56,3.56,0,0,0-.87,2.22h5.39a3.32,3.32,0,0,0-.7-2.23A2.45,2.45,0,0,0,294.15,15.47Z"/>
    <path d="M310.09,22.27a3.12,3.12,0,0,1-1.27,2.67,6.08,6.08,0,0,1-3.63.93,8.58,8.58,0,0,1-3.82-.72V23a9.31,9.31,0,0,0,3.9,1c1.56,0,2.33-.47,2.33-1.41a1.11,1.11,0,0,0-.25-.75,3.16,3.16,0,0,0-.85-.62,13.41,13.41,0,0,0-1.65-.73,7.6,7.6,0,0,1-2.77-1.59,2.93,2.93,0,0,1-.73-2.07,2.73,2.73,0,0,1,1.23-2.37,5.87,5.87,0,0,1,3.35-.84,9.4,9.4,0,0,1,4,.85l-.81,1.9a8.83,8.83,0,0,0-3.24-.79c-1.33,0-2,.38-2,1.14a1.15,1.15,0,0,0,.53.94,11,11,0,0,0,2.27,1.06,9.94,9.94,0,0,1,2.13,1.05,2.91,2.91,0,0,1,1,1.09A3.07,3.07,0,0,1,310.09,22.27Z"/>
  </g>
  <g>
    <g>
      <path class="cls-4" d="M11.89,294.64a2.09,2.09,0,0,1-.82,1.76,3.58,3.58,0,0,1-2.23.63,5.62,5.62,0,0,1-2.34-.39v-1a5.53,5.53,0,0,0,1.15.35,5.71,5.71,0,0,0,1.23.13,2.51,2.51,0,0,0,1.5-.38,1.25,1.25,0,0,0,.5-1,1.34,1.34,0,0,0-.18-.73,1.62,1.62,0,0,0-.59-.52,9.23,9.23,0,0,0-1.28-.55,4.06,4.06,0,0,1-1.71-1,2.24,2.24,0,0,1-.51-1.53,1.92,1.92,0,0,1,.74-1.58,3.12,3.12,0,0,1,2-.58,5.64,5.64,0,0,1,2.35.47l-.31.86a5.38,5.38,0,0,0-2.06-.44,2,2,0,0,0-1.24.34,1.12,1.12,0,0,0-.44.94,1.44,1.44,0,0,0,.16.73,1.58,1.58,0,0,0,.56.52,6.4,6.4,0,0,0,1.19.53,4.59,4.59,0,0,1,1.85,1A2,2,0,0,1,11.89,294.64Z"/>
      <path class="cls-4" d="M19,293.7a3.57,3.57,0,0,1-.79,2.45,2.79,2.79,0,0,1-2.19.88,2.91,2.91,0,0,1-1.53-.4,2.71,2.71,0,0,1-1-1.16,4.05,4.05,0,0,1-.36-1.77,3.57,3.57,0,0,1,.78-2.45,2.8,2.8,0,0,1,2.18-.87,2.72,2.72,0,0,1,2.14.89A3.54,3.54,0,0,1,19,293.7Zm-4.89,0a3.05,3.05,0,0,0,.49,1.88,1.74,1.74,0,0,0,1.45.64,1.72,1.72,0,0,0,1.45-.64A3.05,3.05,0,0,0,18,293.7a3,3,0,0,0-.49-1.86,1.76,1.76,0,0,0-1.47-.64,1.72,1.72,0,0,0-1.44.63A3.05,3.05,0,0,0,14.15,293.7Z"/>
      <path class="cls-4" d="M21.66,290.49v4.17a1.66,1.66,0,0,0,.36,1.17,1.43,1.43,0,0,0,1.11.39,1.82,1.82,0,0,0,1.48-.55,2.8,2.8,0,0,0,.46-1.8v-3.38h1v6.43h-.81l-.14-.86h-.05a2,2,0,0,1-.83.72A2.76,2.76,0,0,1,23,297a2.45,2.45,0,0,1-1.75-.55,2.37,2.37,0,0,1-.59-1.78v-4.21Z"/>
      <path class="cls-4" d="M31,290.38a3.67,3.67,0,0,1,.77.07l-.14.9a3.2,3.2,0,0,0-.7-.09,1.67,1.67,0,0,0-1.33.64,2.29,2.29,0,0,0-.56,1.57v3.45h-1v-6.43h.8l.11,1.19h.05a2.89,2.89,0,0,1,.86-1A1.94,1.94,0,0,1,31,290.38Z"/>
      <path class="cls-4" d="M35.57,297a2.75,2.75,0,0,1-2.16-.85,3.56,3.56,0,0,1-.76-2.43,3.61,3.61,0,0,1,.78-2.49,2.76,2.76,0,0,1,2.21-.88,4.05,4.05,0,0,1,.92.1,2.86,2.86,0,0,1,.73.23l-.3.83a4.42,4.42,0,0,0-.7-.22,3.65,3.65,0,0,0-.68-.08c-1.3,0-2,.83-2,2.5a3,3,0,0,0,.48,1.81,1.65,1.65,0,0,0,1.41.63,4.35,4.35,0,0,0,1.65-.34v.86A3.55,3.55,0,0,1,35.57,297Z"/>
      <path class="cls-4" d="M41.43,297a3,3,0,0,1-2.24-.86,3.36,3.36,0,0,1-.83-2.41,3.73,3.73,0,0,1,.77-2.47,2.53,2.53,0,0,1,2-.91,2.41,2.41,0,0,1,1.91.79,3,3,0,0,1,.7,2.1v.61H39.37a2.55,2.55,0,0,0,.57,1.72,2,2,0,0,0,1.53.58,5.17,5.17,0,0,0,2.05-.43v.87a5.31,5.31,0,0,1-1,.32A5.78,5.78,0,0,1,41.43,297Zm-.26-5.84a1.56,1.56,0,0,0-1.23.51,2.32,2.32,0,0,0-.55,1.39h3.36a2.17,2.17,0,0,0-.41-1.41A1.45,1.45,0,0,0,41.17,291.19Z"/>
      <path class="cls-4" d="M45.31,291.12c0-.53.23-.79.69-.79s.72.26.72.79a.82.82,0,0,1-.19.59.71.71,0,0,1-.53.2.69.69,0,0,1-.49-.18A.81.81,0,0,1,45.31,291.12Zm0,5.18a.88.88,0,0,1,.18-.6.66.66,0,0,1,.51-.2.69.69,0,0,1,.53.2.83.83,0,0,1,.19.6.81.81,0,0,1-.19.58.68.68,0,0,1-.53.21.66.66,0,0,1-.49-.19A.79.79,0,0,1,45.31,296.3Z"/>
      <path class="cls-4" d="M55.7,296.92l-2.91-7.6h0c0,.6.08,1.32.08,2.15v5.45h-.92v-8.57h1.5l2.71,7.07h.05l2.74-7.07h1.48v8.57h-1V291.4c0-.64,0-1.32.08-2.07h0l-2.93,7.59Z"/>
      <path class="cls-4" d="M65.38,296.92h-1v-7.68H61.67v-.89h6.42v.89H65.38Z"/>
      <path class="cls-4" d="M74.77,296.92l-1.07-2.73H70.27l-1.06,2.73h-1l3.39-8.6h.84l3.37,8.6Zm-1.38-3.62-1-2.66c-.12-.33-.26-.75-.39-1.23a12.47,12.47,0,0,1-.37,1.23l-1,2.66Z"/>
    </g>
    <g>
      <path class="cls-4" d="M822.34,294.64a2.11,2.11,0,0,1-.82,1.76,3.58,3.58,0,0,1-2.23.63,5.59,5.59,0,0,1-2.34-.39v-1a5.53,5.53,0,0,0,1.15.35,5.71,5.71,0,0,0,1.23.13,2.51,2.51,0,0,0,1.5-.38,1.25,1.25,0,0,0,.5-1,1.34,1.34,0,0,0-.18-.73,1.66,1.66,0,0,0-.6-.52,9,9,0,0,0-1.27-.55,4,4,0,0,1-1.71-1,2.24,2.24,0,0,1-.51-1.53,1.92,1.92,0,0,1,.74-1.58,3.12,3.12,0,0,1,2-.58,5.67,5.67,0,0,1,2.35.47l-.31.86a5.42,5.42,0,0,0-2.06-.44,2,2,0,0,0-1.24.34,1.1,1.1,0,0,0-.44.94,1.44,1.44,0,0,0,.16.73,1.54,1.54,0,0,0,.55.52,6.55,6.55,0,0,0,1.2.53,4.66,4.66,0,0,1,1.85,1A2,2,0,0,1,822.34,294.64Z"/>
      <path class="cls-4" d="M827.89,296.92l-.19-.92h-.05a2.6,2.6,0,0,1-1,.82,2.92,2.92,0,0,1-1.19.21,2.17,2.17,0,0,1-1.5-.49,1.79,1.79,0,0,1-.54-1.4c0-1.3,1-2,3.11-2l1.09,0v-.4a1.61,1.61,0,0,0-.32-1.12,1.34,1.34,0,0,0-1-.36,4.36,4.36,0,0,0-1.82.49l-.3-.74a4.8,4.8,0,0,1,2.18-.55,2.45,2.45,0,0,1,1.7.51,2.11,2.11,0,0,1,.55,1.63v4.39Zm-2.19-.69a1.92,1.92,0,0,0,1.42-.5,1.81,1.81,0,0,0,.52-1.39v-.58l-1,0a3.57,3.57,0,0,0-1.67.36,1.07,1.07,0,0,0-.52,1,1,1,0,0,0,.32.81A1.34,1.34,0,0,0,825.7,296.23Z"/>
      <path class="cls-4" d="M835.86,296.92l-1.18-3.77c-.07-.23-.21-.75-.41-1.57h0c-.16.68-.29,1.21-.41,1.58l-1.21,3.76h-1.13l-1.75-6.43h1c.41,1.62.73,2.85,1,3.69a15.57,15.57,0,0,1,.37,1.71h.05c0-.23.11-.52.2-.87s.18-.63.25-.84l1.18-3.69h1l1.15,3.69a12.83,12.83,0,0,1,.45,1.69h.05a4.69,4.69,0,0,1,.12-.65c.07-.29.48-1.87,1.22-4.73h1L837,296.92Z"/>
      <path class="cls-4" d="M838.93,290.49h1l1.41,3.67A14.71,14.71,0,0,1,842,296h0c0-.2.16-.54.32-1s.69-2,1.59-4.46H845l-2.76,7.32a3.85,3.85,0,0,1-1,1.54,2.07,2.07,0,0,1-1.35.45,3.77,3.77,0,0,1-.88-.1v-.78a3.26,3.26,0,0,0,.72.07,1.48,1.48,0,0,0,1.43-1.12l.36-.92Z"/>
      <path class="cls-4" d="M848.71,297a3,3,0,0,1-2.25-.86,3.4,3.4,0,0,1-.82-2.41,3.73,3.73,0,0,1,.77-2.47,2.53,2.53,0,0,1,2.05-.91,2.42,2.42,0,0,1,1.91.79,3,3,0,0,1,.7,2.1v.61h-4.42a2.55,2.55,0,0,0,.57,1.72,2,2,0,0,0,1.53.58,5.17,5.17,0,0,0,2-.43v.87a5.57,5.57,0,0,1-1,.32A5.93,5.93,0,0,1,848.71,297Zm-.26-5.84a1.59,1.59,0,0,0-1.24.51,2.38,2.38,0,0,0-.54,1.39H850a2.17,2.17,0,0,0-.41-1.41A1.45,1.45,0,0,0,848.45,291.19Z"/>
      <path class="cls-4" d="M855.66,290.38a3.61,3.61,0,0,1,.77.07l-.14.9a3.2,3.2,0,0,0-.7-.09,1.69,1.69,0,0,0-1.33.64,2.29,2.29,0,0,0-.56,1.57v3.45h-1v-6.43h.8l.11,1.19h.05a2.89,2.89,0,0,1,.86-1A1.94,1.94,0,0,1,855.66,290.38Z"/>
      <path class="cls-4" d="M864.56,289.12a2.8,2.8,0,0,0-2.23.94,3.81,3.81,0,0,0-.82,2.57,3.9,3.9,0,0,0,.79,2.6,2.82,2.82,0,0,0,2.25.92,7.78,7.78,0,0,0,2-.32v.87a6.31,6.31,0,0,1-2.19.33,3.71,3.71,0,0,1-2.92-1.14,4.73,4.73,0,0,1-1-3.27,5.18,5.18,0,0,1,.49-2.32,3.59,3.59,0,0,1,1.43-1.53,4.35,4.35,0,0,1,2.2-.54,5.29,5.29,0,0,1,2.36.49l-.42.86A4.49,4.49,0,0,0,864.56,289.12Z"/>
      <path class="cls-4" d="M869.29,296.92h-1V287.8h1Z"/>
      <path class="cls-4" d="M871.27,288.75a.62.62,0,0,1,.16-.48.56.56,0,0,1,.41-.16.57.57,0,0,1,.41.16.64.64,0,0,1,.17.48.65.65,0,0,1-.17.49.58.58,0,0,1-.41.17.57.57,0,0,1-.41-.17A.64.64,0,0,1,871.27,288.75Zm1.05,8.17h-1v-6.43h1Z"/>
      <path class="cls-4" d="M877,297a2.75,2.75,0,0,1-2.16-.85,3.56,3.56,0,0,1-.76-2.43,3.61,3.61,0,0,1,.78-2.49,2.76,2.76,0,0,1,2.21-.88,4.12,4.12,0,0,1,.92.1,2.86,2.86,0,0,1,.73.23l-.3.83a4.42,4.42,0,0,0-.7-.22,3.65,3.65,0,0,0-.68-.08c-1.3,0-2,.83-2,2.5a3,3,0,0,0,.47,1.81,1.67,1.67,0,0,0,1.42.63,4.39,4.39,0,0,0,1.65-.34v.86A3.55,3.55,0,0,1,877,297Z"/>
      <path class="cls-4" d="M881.06,293.63a10.92,10.92,0,0,1,.77-.94l2.07-2.2h1.16l-2.6,2.74,2.78,3.69h-1.18l-2.27-3-.73.63v2.41h-1V287.8h1v4.83c0,.22,0,.55,0,1Z"/>
    </g>
  </g>
  <g>
    <path d="M18.32,51.14h-.91v-7H14.92v-.81h5.89v.81H18.32Z"/>
    <path d="M25.89,51.14V47.33a1.51,1.51,0,0,0-.33-1.07,1.33,1.33,0,0,0-1-.36,1.65,1.65,0,0,0-1.35.51,2.51,2.51,0,0,0-.43,1.65v3.08h-.89V42.78h.89v2.53a7.42,7.42,0,0,1,0,.76h.05a1.75,1.75,0,0,1,.75-.67,2.45,2.45,0,0,1,1.11-.24,2.28,2.28,0,0,1,1.62.51,2.16,2.16,0,0,1,.54,1.63v3.84Z"/>
    <path d="M31.1,51.25a2.7,2.7,0,0,1-2.06-.8,3,3,0,0,1-.76-2.2A3.42,3.42,0,0,1,29,46a2.36,2.36,0,0,1,1.88-.83,2.25,2.25,0,0,1,1.76.72,2.85,2.85,0,0,1,.64,1.92v.57H29.2a2.35,2.35,0,0,0,.53,1.57,1.81,1.81,0,0,0,1.4.54,4.68,4.68,0,0,0,1.88-.4v.8a5.48,5.48,0,0,1-.9.29A4.91,4.91,0,0,1,31.1,51.25Zm-.25-5.36a1.48,1.48,0,0,0-1.13.46,2.15,2.15,0,0,0-.49,1.28H32.3a2,2,0,0,0-.37-1.29A1.33,1.33,0,0,0,30.85,45.89Z"/>
    <path d="M41.43,49.53a1.47,1.47,0,0,1-.61,1.27,2.86,2.86,0,0,1-1.72.45,3.78,3.78,0,0,1-1.82-.37v-.83a4.28,4.28,0,0,0,.91.34,3.85,3.85,0,0,0,.94.12,2.11,2.11,0,0,0,1.07-.22.75.75,0,0,0,.38-.68.73.73,0,0,0-.3-.59,5.14,5.14,0,0,0-1.17-.58A6.32,6.32,0,0,1,38,47.91a1.61,1.61,0,0,1-.52-.52,1.36,1.36,0,0,1-.17-.69,1.34,1.34,0,0,1,.59-1.14,2.69,2.69,0,0,1,1.6-.41,4.8,4.8,0,0,1,1.86.38l-.32.73a4.13,4.13,0,0,0-1.6-.37,1.91,1.91,0,0,0-1,.2.63.63,0,0,0-.32.55.65.65,0,0,0,.12.4,1.19,1.19,0,0,0,.39.32,8.94,8.94,0,0,0,1,.43,4,4,0,0,1,1.42.77A1.37,1.37,0,0,1,41.43,49.53Z"/>
    <path d="M44.79,50.51a3.29,3.29,0,0,0,.45,0,2.7,2.7,0,0,0,.35-.08v.69a1.9,1.9,0,0,1-.42.11,3.36,3.36,0,0,1-.51,0q-1.71,0-1.71-1.8V46h-.84v-.43l.84-.37.38-1.26h.51v1.36h1.71V46H43.84v3.46a1.18,1.18,0,0,0,.25.82A.88.88,0,0,0,44.79,50.51Z"/>
    <path d="M49.25,51.25a2.72,2.72,0,0,1-2.06-.8,3.07,3.07,0,0,1-.75-2.2,3.42,3.42,0,0,1,.7-2.27A2.36,2.36,0,0,1,49,45.15a2.21,2.21,0,0,1,1.75.72,2.81,2.81,0,0,1,.65,1.92v.57H47.36a2.35,2.35,0,0,0,.53,1.57,1.81,1.81,0,0,0,1.4.54,4.68,4.68,0,0,0,1.88-.4v.8a5.48,5.48,0,0,1-.9.29A5,5,0,0,1,49.25,51.25ZM49,45.89a1.48,1.48,0,0,0-1.13.46,2.15,2.15,0,0,0-.49,1.28h3.07a2,2,0,0,0-.37-1.29A1.33,1.33,0,0,0,49,45.89Z"/>
    <path d="M55.43,51.25a2.7,2.7,0,0,1-2.06-.8,3,3,0,0,1-.76-2.2,3.48,3.48,0,0,1,.7-2.27,2.36,2.36,0,0,1,1.89-.83,2.24,2.24,0,0,1,1.75.72,2.8,2.8,0,0,1,.64,1.92v.57H53.54a2.29,2.29,0,0,0,.52,1.57,1.81,1.81,0,0,0,1.4.54,4.68,4.68,0,0,0,1.88-.4v.8a5.19,5.19,0,0,1-.9.29A4.91,4.91,0,0,1,55.43,51.25Zm-.25-5.36a1.48,1.48,0,0,0-1.13.46,2.15,2.15,0,0,0-.49,1.28h3.07a2,2,0,0,0-.37-1.29A1.33,1.33,0,0,0,55.18,45.89Z"/>
    <path d="M61.85,51.25A2.59,2.59,0,0,1,60.8,51a2,2,0,0,1-.8-.66h-.06a8.57,8.57,0,0,1,.06,1v2.42h-.89V45.25h.73l.12.81h0a2.1,2.1,0,0,1,.8-.7,2.52,2.52,0,0,1,1.05-.21,2.17,2.17,0,0,1,1.81.8,4.3,4.3,0,0,1,0,4.5A2.19,2.19,0,0,1,61.85,51.25Zm-.13-5.35a1.57,1.57,0,0,0-1.3.5A2.61,2.61,0,0,0,60,48v.2A2.93,2.93,0,0,0,60.42,50a1.57,1.57,0,0,0,1.32.53,1.37,1.37,0,0,0,1.2-.62,2.91,2.91,0,0,0,.43-1.7,2.81,2.81,0,0,0-.43-1.69A1.44,1.44,0,0,0,61.72,45.9Z"/>
    <path d="M68.34,51.25a2.7,2.7,0,0,1-2.06-.8,3.08,3.08,0,0,1-.76-2.2,3.48,3.48,0,0,1,.7-2.27,2.36,2.36,0,0,1,1.89-.83,2.23,2.23,0,0,1,1.75.72,2.8,2.8,0,0,1,.64,1.92v.57h-4A2.34,2.34,0,0,0,67,49.93a1.81,1.81,0,0,0,1.4.54,4.68,4.68,0,0,0,1.88-.4v.8a5.1,5.1,0,0,1-.89.29A5,5,0,0,1,68.34,51.25Zm-.24-5.36a1.47,1.47,0,0,0-1.13.46,2.16,2.16,0,0,0-.5,1.28h3.08a2,2,0,0,0-.38-1.29A1.32,1.32,0,0,0,68.1,45.89Z"/>
    <path d="M75.82,49.53a1.47,1.47,0,0,1-.61,1.27,2.86,2.86,0,0,1-1.72.45,3.85,3.85,0,0,1-1.83-.37v-.83a4.73,4.73,0,0,0,.91.34,4,4,0,0,0,.94.12,2.08,2.08,0,0,0,1.07-.22A.77.77,0,0,0,74.66,49a5,5,0,0,0-1.16-.58,6.16,6.16,0,0,1-1.17-.53,1.57,1.57,0,0,1-.51-.52,1.26,1.26,0,0,1-.17-.69,1.33,1.33,0,0,1,.58-1.14,2.72,2.72,0,0,1,1.61-.41,4.87,4.87,0,0,1,1.86.38l-.32.73a4.17,4.17,0,0,0-1.61-.37,1.84,1.84,0,0,0-1,.2.61.61,0,0,0-.32.55.65.65,0,0,0,.12.4,1.19,1.19,0,0,0,.39.32,8.94,8.94,0,0,0,1,.43,3.81,3.81,0,0,1,1.41.77A1.34,1.34,0,0,1,75.82,49.53Z"/>
    <path d="M79.17,50.51a3.44,3.44,0,0,0,.46,0L80,50.4v.69a2,2,0,0,1-.43.11,3.36,3.36,0,0,1-.51,0q-1.71,0-1.71-1.8V46h-.84v-.43l.84-.37.38-1.26h.52v1.36h1.7V46h-1.7v3.46a1.18,1.18,0,0,0,.25.82A.88.88,0,0,0,79.17,50.51Z"/>
    <path d="M88,50.35h0a2.09,2.09,0,0,1-1.85.9,2.18,2.18,0,0,1-1.79-.79,3.49,3.49,0,0,1-.65-2.25A3.54,3.54,0,0,1,84.33,46,2.39,2.39,0,0,1,88,46H88l0-.43,0-.41v-2.4h.89v8.36h-.72Zm-1.79.15a1.62,1.62,0,0,0,1.33-.5A2.52,2.52,0,0,0,88,48.4v-.19a2.91,2.91,0,0,0-.42-1.78,1.56,1.56,0,0,0-1.33-.54,1.38,1.38,0,0,0-1.2.61,3.1,3.1,0,0,0-.41,1.72A3,3,0,0,0,85,49.93,1.41,1.41,0,0,0,86.23,50.5Z"/>
    <path d="M93.44,45.15a3.73,3.73,0,0,1,.7.06L94,46a2.73,2.73,0,0,0-.65-.08,1.57,1.57,0,0,0-1.22.58A2.1,2.1,0,0,0,91.64,48v3.16h-.89V45.25h.74l.1,1.09h0a2.61,2.61,0,0,1,.79-.88A1.78,1.78,0,0,1,93.44,45.15Z"/>
    <path d="M100.32,48.19a3.27,3.27,0,0,1-.72,2.25,2.56,2.56,0,0,1-2,.81,2.73,2.73,0,0,1-1.4-.37,2.4,2.4,0,0,1-.94-1.07,3.72,3.72,0,0,1-.34-1.62A3.23,3.23,0,0,1,95.63,46a2.54,2.54,0,0,1,2-.8,2.49,2.49,0,0,1,2,.82A3.26,3.26,0,0,1,100.32,48.19Zm-4.48,0a2.8,2.8,0,0,0,.45,1.72,1.79,1.79,0,0,0,2.66,0,2.78,2.78,0,0,0,.45-1.72,2.72,2.72,0,0,0-.45-1.7,1.82,1.82,0,0,0-2.67,0A2.8,2.8,0,0,0,95.84,48.19Z"/>
    <path d="M104.63,51.25a2.52,2.52,0,0,1-1-.21,2,2,0,0,1-.8-.66h-.07a6.84,6.84,0,0,1,.07,1v2.42h-.89V45.25h.72l.12.81h0a2,2,0,0,1,.8-.7,2.46,2.46,0,0,1,1-.21,2.14,2.14,0,0,1,1.8.8,3.47,3.47,0,0,1,.64,2.24,3.54,3.54,0,0,1-.65,2.26A2.19,2.19,0,0,1,104.63,51.25Zm-.13-5.35a1.6,1.6,0,0,0-1.31.5,2.61,2.61,0,0,0-.41,1.59v.2a3,3,0,0,0,.41,1.78,1.6,1.6,0,0,0,1.33.53,1.35,1.35,0,0,0,1.19-.62,2.91,2.91,0,0,0,.44-1.7,2.81,2.81,0,0,0-.44-1.69A1.42,1.42,0,0,0,104.5,45.9Z"/>
    <path d="M112.42,49.53a1.47,1.47,0,0,1-.61,1.27,2.86,2.86,0,0,1-1.72.45,3.78,3.78,0,0,1-1.82-.37v-.83a4.28,4.28,0,0,0,.91.34,3.83,3.83,0,0,0,.93.12,2.12,2.12,0,0,0,1.08-.22.74.74,0,0,0,.37-.68.72.72,0,0,0-.29-.59,5.14,5.14,0,0,0-1.17-.58,6.32,6.32,0,0,1-1.16-.53,1.61,1.61,0,0,1-.52-.52,1.36,1.36,0,0,1-.17-.69,1.34,1.34,0,0,1,.59-1.14,2.69,2.69,0,0,1,1.6-.41,4.8,4.8,0,0,1,1.86.38l-.32.73a4.13,4.13,0,0,0-1.6-.37,1.91,1.91,0,0,0-1,.2.63.63,0,0,0-.32.55.65.65,0,0,0,.12.4,1.19,1.19,0,0,0,.39.32,8.94,8.94,0,0,0,1,.43,4,4,0,0,1,1.42.77A1.37,1.37,0,0,1,112.42,49.53Z"/>
    <path d="M120.76,51.14V47.33a1.51,1.51,0,0,0-.33-1.07,1.32,1.32,0,0,0-1-.36,1.69,1.69,0,0,0-1.36.51,2.57,2.57,0,0,0-.43,1.65v3.08h-.89V42.78h.89v2.53a5.35,5.35,0,0,1,0,.76h0a1.88,1.88,0,0,1,.75-.67,2.51,2.51,0,0,1,1.11-.24,2.28,2.28,0,0,1,1.62.51,2.16,2.16,0,0,1,.54,1.63v3.84Z"/>
    <path d="M123.41,43.66a.58.58,0,0,1,.15-.45.53.53,0,0,1,.37-.14.57.57,0,0,1,.38.14.75.75,0,0,1,0,.9.53.53,0,0,1-.38.14.49.49,0,0,1-.37-.14A.61.61,0,0,1,123.41,43.66Zm1,7.48h-.9V45.25h.9Z"/>
    <path d="M128.17,50.51a3.29,3.29,0,0,0,.45,0,2.7,2.7,0,0,0,.35-.08v.69a1.9,1.9,0,0,1-.42.11,3.36,3.36,0,0,1-.51,0q-1.71,0-1.71-1.8V46h-.84v-.43l.84-.37.38-1.26h.51v1.36h1.71V46h-1.71v3.46a1.24,1.24,0,0,0,.25.82A.88.88,0,0,0,128.17,50.51Z"/>
    <path d="M135.75,51.25A2.52,2.52,0,0,1,134.7,51a2,2,0,0,1-.8-.66h-.07a6.84,6.84,0,0,1,.07,1v2.42H133V45.25h.72l.12.81h.05a2,2,0,0,1,.8-.7,2.46,2.46,0,0,1,1.05-.21,2.14,2.14,0,0,1,1.8.8,3.47,3.47,0,0,1,.64,2.24,3.54,3.54,0,0,1-.65,2.26A2.19,2.19,0,0,1,135.75,51.25Zm-.13-5.35a1.6,1.6,0,0,0-1.31.5A2.61,2.61,0,0,0,133.9,48v.2a3,3,0,0,0,.41,1.78,1.6,1.6,0,0,0,1.33.53,1.35,1.35,0,0,0,1.19-.62,2.91,2.91,0,0,0,.44-1.7,2.81,2.81,0,0,0-.44-1.69A1.42,1.42,0,0,0,135.62,45.9Z"/>
    <path d="M142.43,45.15a3.84,3.84,0,0,1,.71.06L143,46a2.66,2.66,0,0,0-.64-.08,1.54,1.54,0,0,0-1.22.58,2.1,2.1,0,0,0-.51,1.44v3.16h-.89V45.25h.73l.1,1.09h0a2.61,2.61,0,0,1,.79-.88A1.74,1.74,0,0,1,142.43,45.15Z"/>
    <path d="M146.72,51.25a2.72,2.72,0,0,1-2.06-.8,3.07,3.07,0,0,1-.75-2.2,3.42,3.42,0,0,1,.7-2.27,2.36,2.36,0,0,1,1.88-.83,2.23,2.23,0,0,1,1.75.72,2.81,2.81,0,0,1,.65,1.92v.57h-4.06a2.35,2.35,0,0,0,.53,1.57,1.79,1.79,0,0,0,1.4.54,4.68,4.68,0,0,0,1.88-.4v.8a5.48,5.48,0,0,1-.9.29A5,5,0,0,1,146.72,51.25Zm-.24-5.36a1.48,1.48,0,0,0-1.13.46,2.22,2.22,0,0,0-.5,1.28h3.08a2,2,0,0,0-.37-1.29A1.33,1.33,0,0,0,146.48,45.89Z"/>
    <path d="M154.42,50.35h0a2.09,2.09,0,0,1-1.85.9,2.21,2.21,0,0,1-1.8-.79,3.49,3.49,0,0,1-.64-2.25,3.54,3.54,0,0,1,.65-2.26,2.39,2.39,0,0,1,3.63.07h.07l0-.43,0-.41v-2.4h.89v8.36h-.73Zm-1.79.15A1.62,1.62,0,0,0,154,50a2.52,2.52,0,0,0,.41-1.6v-.19a2.91,2.91,0,0,0-.42-1.78,1.58,1.58,0,0,0-1.33-.54,1.38,1.38,0,0,0-1.2.61,3,3,0,0,0-.42,1.72,2.89,2.89,0,0,0,.42,1.71A1.4,1.4,0,0,0,152.63,50.5Z"/>
    <path d="M157.07,43.66a.58.58,0,0,1,.15-.45.56.56,0,0,1,.38-.14.55.55,0,0,1,.37.14.71.71,0,0,1,0,.9.5.5,0,0,1-.37.14.51.51,0,0,1-.38-.14A.61.61,0,0,1,157.07,43.66Zm1,7.48h-.89V45.25H158Z"/>
    <path d="M162.28,51.25a2.5,2.5,0,0,1-2-.79,3.27,3.27,0,0,1-.7-2.23,3.32,3.32,0,0,1,.72-2.28,2.54,2.54,0,0,1,2-.8,4,4,0,0,1,.85.09,3,3,0,0,1,.67.21l-.28.76a4.83,4.83,0,0,0-.64-.2,2.94,2.94,0,0,0-.62-.07c-1.19,0-1.79.76-1.79,2.28a2.68,2.68,0,0,0,.44,1.67,1.5,1.5,0,0,0,1.29.58,4,4,0,0,0,1.51-.32v.79A3.14,3.14,0,0,1,162.28,51.25Z"/>
    <path d="M167.07,50.51a3.44,3.44,0,0,0,.46,0l.35-.08v.69a2,2,0,0,1-.43.11,3.36,3.36,0,0,1-.51,0q-1.71,0-1.71-1.8V46h-.84v-.43l.84-.37.38-1.26h.51v1.36h1.71V46h-1.71v3.46a1.19,1.19,0,0,0,.26.82A.88.88,0,0,0,167.07,50.51Z"/>
    <path d="M172.67,51.14l-.18-.84h0a2.37,2.37,0,0,1-.88.75,2.65,2.65,0,0,1-1.09.2,2,2,0,0,1-1.37-.45,1.66,1.66,0,0,1-.5-1.29c0-1.19.95-1.81,2.85-1.87l1,0v-.36a1.49,1.49,0,0,0-.3-1,1.2,1.2,0,0,0-.95-.33,3.88,3.88,0,0,0-1.66.45l-.28-.68a4.28,4.28,0,0,1,2-.5,2.27,2.27,0,0,1,1.57.46,2,2,0,0,1,.5,1.5v4Zm-2-.63a1.84,1.84,0,0,0,1.31-.45,1.72,1.72,0,0,0,.47-1.28v-.53l-.89,0a3.34,3.34,0,0,0-1.53.33,1,1,0,0,0-.47.91.9.9,0,0,0,.29.74A1.2,1.2,0,0,0,170.66,50.51Z"/>
    <path d="M177.91,45.16a2.18,2.18,0,0,1,1.8.79,3.46,3.46,0,0,1,.64,2.24,3.53,3.53,0,0,1-.64,2.26,2.22,2.22,0,0,1-1.8.8,2.59,2.59,0,0,1-1-.21,2,2,0,0,1-.8-.66H176l-.19.76h-.64V42.78h.89v2c0,.46,0,.87,0,1.23h0A2.11,2.11,0,0,1,177.91,45.16Zm-.13.74a1.57,1.57,0,0,0-1.32.53,3,3,0,0,0-.4,1.76,3,3,0,0,0,.41,1.78,1.6,1.6,0,0,0,1.33.53,1.38,1.38,0,0,0,1.23-.6,3.15,3.15,0,0,0,.4-1.72,3,3,0,0,0-.4-1.71A1.43,1.43,0,0,0,177.78,45.9Z"/>
    <path d="M182.8,51.14h-.89V42.78h.89Z"/>
    <path d="M187.18,51.25a2.7,2.7,0,0,1-2.06-.8,3.08,3.08,0,0,1-.76-2.2,3.43,3.43,0,0,1,.71-2.27,2.33,2.33,0,0,1,1.88-.83,2.23,2.23,0,0,1,1.75.72,2.8,2.8,0,0,1,.64,1.92v.57h-4.05a2.34,2.34,0,0,0,.52,1.57,1.81,1.81,0,0,0,1.4.54,4.64,4.64,0,0,0,1.88-.4v.8a5.1,5.1,0,0,1-.89.29A5,5,0,0,1,187.18,51.25Zm-.24-5.36a1.47,1.47,0,0,0-1.13.46,2.16,2.16,0,0,0-.5,1.28h3.08a2,2,0,0,0-.38-1.29A1.32,1.32,0,0,0,186.94,45.89Z"/>
    <path d="M194.61,51.14h-.89V42.78h.89Z"/>
    <path d="M196.43,43.66a.58.58,0,0,1,.15-.45.53.53,0,0,1,.37-.14.57.57,0,0,1,.38.14.75.75,0,0,1,0,.9.53.53,0,0,1-.38.14.49.49,0,0,1-.37-.14A.61.61,0,0,1,196.43,43.66Zm1,7.48h-.9V45.25h.9Z"/>
    <path d="M203.31,51.14V47.33a1.55,1.55,0,0,0-.32-1.07,1.33,1.33,0,0,0-1-.36,1.68,1.68,0,0,0-1.35.5,2.53,2.53,0,0,0-.43,1.65v3.09h-.89V45.25H200l.15.81h0a1.74,1.74,0,0,1,.77-.67,2.47,2.47,0,0,1,1.1-.24,2.24,2.24,0,0,1,1.6.51,2.17,2.17,0,0,1,.54,1.64v3.84Z"/>
    <path d="M208.52,51.25a2.72,2.72,0,0,1-2.06-.8,3.07,3.07,0,0,1-.75-2.2,3.42,3.42,0,0,1,.7-2.27,2.36,2.36,0,0,1,1.88-.83,2.23,2.23,0,0,1,1.75.72,2.81,2.81,0,0,1,.65,1.92v.57h-4.06a2.35,2.35,0,0,0,.53,1.57,1.79,1.79,0,0,0,1.4.54,4.68,4.68,0,0,0,1.88-.4v.8a5.48,5.48,0,0,1-.9.29A5,5,0,0,1,208.52,51.25Zm-.24-5.36a1.48,1.48,0,0,0-1.13.46,2.22,2.22,0,0,0-.5,1.28h3.08a2,2,0,0,0-.37-1.29A1.33,1.33,0,0,0,208.28,45.89Z"/>
    <path d="M216,49.53a1.48,1.48,0,0,1-.62,1.27,2.84,2.84,0,0,1-1.72.45,3.8,3.8,0,0,1-1.82-.37v-.83a4.49,4.49,0,0,0,.91.34,3.91,3.91,0,0,0,.94.12,2.11,2.11,0,0,0,1.07-.22.75.75,0,0,0,.38-.68.73.73,0,0,0-.3-.59,5.23,5.23,0,0,0-1.16-.58,6.16,6.16,0,0,1-1.17-.53,1.61,1.61,0,0,1-.52-.52,1.36,1.36,0,0,1-.17-.69,1.34,1.34,0,0,1,.59-1.14,2.69,2.69,0,0,1,1.6-.41,4.8,4.8,0,0,1,1.86.38l-.31.73a4.21,4.21,0,0,0-1.61-.37,1.91,1.91,0,0,0-1,.2.63.63,0,0,0-.32.55.65.65,0,0,0,.12.4,1.19,1.19,0,0,0,.39.32,8.94,8.94,0,0,0,1,.43,4,4,0,0,1,1.42.77A1.38,1.38,0,0,1,216,49.53Z"/>
    <path d="M218.39,49.86l.08.13c-.09.35-.23.77-.4,1.24s-.36.92-.55,1.33h-.67c.1-.37.2-.83.32-1.38s.2-1,.24-1.32Z"/>
    <path d="M227.82,51.14l-1.08-3.45c-.07-.21-.2-.69-.38-1.44h-.05c-.14.62-.27,1.11-.37,1.45l-1.11,3.44h-1l-1.6-5.89h.93l.87,3.38a13.87,13.87,0,0,1,.34,1.57h0c0-.21.11-.47.19-.8s.17-.58.23-.77l1.08-3.38h1l1,3.38a11.77,11.77,0,0,1,.41,1.55h0c0-.12.06-.32.12-.59s.43-1.72,1.12-4.34h.92l-1.62,5.89Z"/>
    <path d="M235.59,51.14V47.33a1.55,1.55,0,0,0-.32-1.07,1.33,1.33,0,0,0-1-.36,1.69,1.69,0,0,0-1.36.51,2.57,2.57,0,0,0-.42,1.65v3.08h-.89V42.78h.89v2.53a5.15,5.15,0,0,1-.05.76h.06a1.75,1.75,0,0,1,.75-.67,2.45,2.45,0,0,1,1.11-.24,2.28,2.28,0,0,1,1.62.51,2.16,2.16,0,0,1,.54,1.63v3.84Z"/>
    <path d="M240.8,51.25a2.72,2.72,0,0,1-2.06-.8,3.07,3.07,0,0,1-.75-2.2,3.42,3.42,0,0,1,.7-2.27,2.36,2.36,0,0,1,1.88-.83,2.23,2.23,0,0,1,1.75.72,2.81,2.81,0,0,1,.65,1.92v.57h-4.06a2.35,2.35,0,0,0,.53,1.57,1.79,1.79,0,0,0,1.4.54,4.68,4.68,0,0,0,1.88-.4v.8a5.48,5.48,0,0,1-.9.29A5,5,0,0,1,240.8,51.25Zm-.24-5.36a1.48,1.48,0,0,0-1.13.46,2.15,2.15,0,0,0-.49,1.28H242a2,2,0,0,0-.37-1.29A1.33,1.33,0,0,0,240.56,45.89Z"/>
    <path d="M247.17,45.15a3.76,3.76,0,0,1,.71.06l-.13.83a2.6,2.6,0,0,0-.64-.08,1.55,1.55,0,0,0-1.22.58,2.1,2.1,0,0,0-.51,1.44v3.16h-.89V45.25h.73l.11,1.09h0a2.61,2.61,0,0,1,.79-.88A1.77,1.77,0,0,1,247.17,45.15Z"/>
    <path d="M251.47,51.25a2.7,2.7,0,0,1-2.06-.8,3,3,0,0,1-.76-2.2,3.48,3.48,0,0,1,.7-2.27,2.36,2.36,0,0,1,1.88-.83,2.25,2.25,0,0,1,1.76.72,2.8,2.8,0,0,1,.64,1.92v.57h-4a2.29,2.29,0,0,0,.52,1.57,1.81,1.81,0,0,0,1.4.54,4.68,4.68,0,0,0,1.88-.4v.8a5.48,5.48,0,0,1-.9.29A4.91,4.91,0,0,1,251.47,51.25Zm-.25-5.36a1.48,1.48,0,0,0-1.13.46,2.15,2.15,0,0,0-.49,1.28h3.07a2,2,0,0,0-.37-1.29A1.33,1.33,0,0,0,251.22,45.89Z"/>
    <path d="M19.57,62.73A1.5,1.5,0,0,1,19,64a2.86,2.86,0,0,1-1.72.45,3.85,3.85,0,0,1-1.83-.37v-.83a4.49,4.49,0,0,0,.91.34,4,4,0,0,0,.94.12,2.11,2.11,0,0,0,1.07-.22.75.75,0,0,0,.38-.68.73.73,0,0,0-.3-.59,5,5,0,0,0-1.16-.58,6.16,6.16,0,0,1-1.17-.53,1.72,1.72,0,0,1-.52-.52,1.35,1.35,0,0,1-.16-.69A1.33,1.33,0,0,1,16,58.76a2.8,2.8,0,0,1,1.61-.41,4.87,4.87,0,0,1,1.86.38l-.32.73a4.17,4.17,0,0,0-1.61-.37,1.84,1.84,0,0,0-.95.2.62.62,0,0,0-.33.55.6.6,0,0,0,.13.4,1.26,1.26,0,0,0,.38.32,9.34,9.34,0,0,0,1,.43,3.9,3.9,0,0,1,1.41.77A1.34,1.34,0,0,1,19.57,62.73Z"/>
    <path d="M23.51,64.45a2.7,2.7,0,0,1-2.06-.8,3,3,0,0,1-.76-2.2,3.48,3.48,0,0,1,.7-2.27,2.36,2.36,0,0,1,1.88-.83,2.25,2.25,0,0,1,1.76.72A2.8,2.8,0,0,1,25.67,61v.57H21.62a2.29,2.29,0,0,0,.52,1.57,1.81,1.81,0,0,0,1.4.54,4.68,4.68,0,0,0,1.88-.4v.8a5.48,5.48,0,0,1-.9.29A4.91,4.91,0,0,1,23.51,64.45Zm-.25-5.36a1.48,1.48,0,0,0-1.13.46,2.15,2.15,0,0,0-.49,1.28h3.07a2,2,0,0,0-.37-1.29A1.33,1.33,0,0,0,23.26,59.09Z"/>
    <path d="M29.88,58.35a3.73,3.73,0,0,1,.7.06l-.12.83a2.73,2.73,0,0,0-.65-.08,1.57,1.57,0,0,0-1.22.58,2.1,2.1,0,0,0-.51,1.44v3.16h-.89V58.45h.74l.1,1.09h0a2.61,2.61,0,0,1,.79-.88A1.78,1.78,0,0,1,29.88,58.35Z"/>
    <path d="M33,64.34l-2.23-5.89h1L33,62a14.87,14.87,0,0,1,.5,1.58h0a12.1,12.1,0,0,1,.37-1.17c.21-.6.68-1.9,1.41-3.91h1L34,64.34Z"/>
    <path d="M37.12,56.86a.6.6,0,0,1,.15-.45.56.56,0,0,1,.74,0,.71.71,0,0,1,0,.9.56.56,0,0,1-.74,0A.61.61,0,0,1,37.12,56.86Zm1,7.48h-.89V58.45h.89Z"/>
    <path d="M42.33,64.45a2.48,2.48,0,0,1-2-.79,3.22,3.22,0,0,1-.7-2.23,3.31,3.31,0,0,1,.71-2.28,2.58,2.58,0,0,1,2-.8,4,4,0,0,1,.84.09,2.8,2.8,0,0,1,.67.21l-.27.76a5.52,5.52,0,0,0-.65-.2,2.94,2.94,0,0,0-.62-.07c-1.19,0-1.79.76-1.79,2.28A2.75,2.75,0,0,0,41,63.09a1.5,1.5,0,0,0,1.29.58,3.94,3.94,0,0,0,1.51-.32v.79A3.12,3.12,0,0,1,42.33,64.45Z"/>
    <path d="M47.7,64.45a2.7,2.7,0,0,1-2.06-.8,3,3,0,0,1-.76-2.2,3.48,3.48,0,0,1,.7-2.27,2.36,2.36,0,0,1,1.89-.83,2.24,2.24,0,0,1,1.75.72A2.8,2.8,0,0,1,49.86,61v.57h-4a2.29,2.29,0,0,0,.52,1.57,1.81,1.81,0,0,0,1.4.54,4.68,4.68,0,0,0,1.88-.4v.8a5.39,5.39,0,0,1-.89.29A5.09,5.09,0,0,1,47.7,64.45Zm-.24-5.36a1.51,1.51,0,0,0-1.14.46,2.15,2.15,0,0,0-.49,1.28h3.08a2,2,0,0,0-.38-1.29A1.32,1.32,0,0,0,47.46,59.09Z"/>
    <path d="M56.59,64.45a2.5,2.5,0,0,1-2-.79,3.27,3.27,0,0,1-.7-2.23,3.36,3.36,0,0,1,.71-2.28,2.59,2.59,0,0,1,2-.8,4.09,4.09,0,0,1,.85.09,3.14,3.14,0,0,1,.67.21l-.28.76a5.35,5.35,0,0,0-.64-.2,3,3,0,0,0-.62-.07c-1.2,0-1.79.76-1.79,2.28a2.75,2.75,0,0,0,.43,1.67,1.52,1.52,0,0,0,1.3.58,4,4,0,0,0,1.51-.32v.79A3.14,3.14,0,0,1,56.59,64.45Z"/>
    <path d="M60.31,58.45v3.82a1.55,1.55,0,0,0,.33,1.08,1.36,1.36,0,0,0,1,.35A1.71,1.71,0,0,0,63,63.2a2.59,2.59,0,0,0,.43-1.65v-3.1h.89v5.89H63.6l-.13-.79h0a1.78,1.78,0,0,1-.76.67,2.59,2.59,0,0,1-1.11.23,2.23,2.23,0,0,1-1.6-.51,2.17,2.17,0,0,1-.54-1.64V58.45Z"/>
    <path d="M68.13,63.71a3.44,3.44,0,0,0,.46,0,2.92,2.92,0,0,0,.34-.08v.69a1.75,1.75,0,0,1-.42.11,3.36,3.36,0,0,1-.51,0q-1.71,0-1.71-1.8v-3.5h-.84v-.43l.84-.37.38-1.26h.51v1.36h1.71v.7H67.18v3.46a1.19,1.19,0,0,0,.26.82A.86.86,0,0,0,68.13,63.71Z"/>
    <path d="M73.91,62.73A1.5,1.5,0,0,1,73.3,64a2.88,2.88,0,0,1-1.72.45,3.85,3.85,0,0,1-1.83-.37v-.83a4.49,4.49,0,0,0,.91.34,4,4,0,0,0,.94.12,2.11,2.11,0,0,0,1.07-.22.75.75,0,0,0,.38-.68.73.73,0,0,0-.3-.59,5.23,5.23,0,0,0-1.16-.58,6.16,6.16,0,0,1-1.17-.53,1.72,1.72,0,0,1-.52-.52,1.36,1.36,0,0,1-.17-.69,1.34,1.34,0,0,1,.59-1.14,2.8,2.8,0,0,1,1.61-.41,4.79,4.79,0,0,1,1.85.38l-.31.73a4.17,4.17,0,0,0-1.61-.37,1.84,1.84,0,0,0-1,.2.62.62,0,0,0-.33.55.65.65,0,0,0,.12.4,1.19,1.19,0,0,0,.39.32,9.34,9.34,0,0,0,1,.43,4,4,0,0,1,1.41.77A1.34,1.34,0,0,1,73.91,62.73Z"/>
    <path d="M81.84,64.34l-.18-.84h0a2.53,2.53,0,0,1-.88.75,2.7,2.7,0,0,1-1.1.2A2,2,0,0,1,78.27,64a1.65,1.65,0,0,1-.49-1.29c0-1.19,1-1.81,2.85-1.87l1,0v-.36a1.49,1.49,0,0,0-.3-1,1.23,1.23,0,0,0-1-.33,3.88,3.88,0,0,0-1.67.45l-.27-.68a4,4,0,0,1,1-.37,4.06,4.06,0,0,1,1-.13,2.25,2.25,0,0,1,1.56.46,2,2,0,0,1,.51,1.5v4Zm-2-.63a1.83,1.83,0,0,0,1.31-.45A1.68,1.68,0,0,0,81.6,62v-.53l-.89,0a3.34,3.34,0,0,0-1.53.33,1,1,0,0,0-.47.91.93.93,0,0,0,.29.74A1.22,1.22,0,0,0,79.82,63.71Z"/>
    <path d="M88.36,64.34V60.53A1.51,1.51,0,0,0,88,59.46a1.3,1.3,0,0,0-1-.36,1.72,1.72,0,0,0-1.36.5,2.59,2.59,0,0,0-.42,1.65v3.09h-.9V58.45h.73l.14.81h0a1.77,1.77,0,0,1,.76-.67,2.51,2.51,0,0,1,1.11-.24,2.26,2.26,0,0,1,1.6.51,2.21,2.21,0,0,1,.53,1.64v3.84Z"/>
    <path d="M95.09,63.55h0a2.08,2.08,0,0,1-1.84.9,2.21,2.21,0,0,1-1.8-.79,3.49,3.49,0,0,1-.64-2.25,3.53,3.53,0,0,1,.64-2.26,2.19,2.19,0,0,1,1.8-.8,2.13,2.13,0,0,1,1.83.87h.07l0-.43,0-.41V56h.9v8.36h-.73Zm-1.78.15a1.58,1.58,0,0,0,1.32-.5A2.46,2.46,0,0,0,95,61.6v-.19a3,3,0,0,0-.41-1.78,1.58,1.58,0,0,0-1.33-.54,1.37,1.37,0,0,0-1.2.61,3,3,0,0,0-.42,1.72,3,3,0,0,0,.41,1.71A1.41,1.41,0,0,0,93.31,63.7Z"/>
    <path d="M108.19,64.34V60.51a1.57,1.57,0,0,0-.3-1,1.16,1.16,0,0,0-.94-.36,1.52,1.52,0,0,0-1.23.48,2.3,2.3,0,0,0-.4,1.47v3.29h-.89V60.51a1.57,1.57,0,0,0-.3-1,1.15,1.15,0,0,0-.94-.36,1.45,1.45,0,0,0-1.23.51,2.69,2.69,0,0,0-.39,1.64v3.09h-.89V58.45h.73l.14.81h0a1.65,1.65,0,0,1,.71-.67,2.17,2.17,0,0,1,1-.24,1.74,1.74,0,0,1,1.8,1h0a1.81,1.81,0,0,1,.77-.73,2.34,2.34,0,0,1,1.14-.27,2,2,0,0,1,1.49.51,2.3,2.3,0,0,1,.5,1.64v3.84Z"/>
    <path d="M114.54,64.34l-.18-.84h0a2.43,2.43,0,0,1-.87.75,2.7,2.7,0,0,1-1.1.2A2,2,0,0,1,111,64a1.66,1.66,0,0,1-.5-1.29c0-1.19,1-1.81,2.86-1.87l1,0v-.36a1.49,1.49,0,0,0-.3-1,1.24,1.24,0,0,0-1-.33,3.88,3.88,0,0,0-1.66.45l-.27-.68a4,4,0,0,1,1-.37,4.06,4.06,0,0,1,1-.13,2.25,2.25,0,0,1,1.56.46,2,2,0,0,1,.51,1.5v4Zm-2-.63a1.83,1.83,0,0,0,1.31-.45A1.68,1.68,0,0,0,114.3,62v-.53l-.89,0a3.34,3.34,0,0,0-1.53.33,1,1,0,0,0-.47.91.93.93,0,0,0,.29.74A1.22,1.22,0,0,0,112.52,63.71Z"/>
    <path d="M117,56.86a.6.6,0,0,1,.15-.45.56.56,0,0,1,.74,0,.71.71,0,0,1,0,.9.56.56,0,0,1-.74,0A.61.61,0,0,1,117,56.86Zm1,7.48H117V58.45h.89Z"/>
    <path d="M123.84,64.34V60.53a1.55,1.55,0,0,0-.32-1.07,1.33,1.33,0,0,0-1-.36,1.68,1.68,0,0,0-1.35.5,2.53,2.53,0,0,0-.43,1.65v3.09h-.9V58.45h.73l.15.81h0a1.74,1.74,0,0,1,.77-.67,2.47,2.47,0,0,1,1.1-.24,2.24,2.24,0,0,1,1.6.51,2.17,2.17,0,0,1,.53,1.64v3.84Z"/>
    <path d="M128.47,63.71a3.19,3.19,0,0,0,.45,0,2.7,2.7,0,0,0,.35-.08v.69a1.9,1.9,0,0,1-.42.11,3.36,3.36,0,0,1-.51,0q-1.71,0-1.71-1.8v-3.5h-.84v-.43l.84-.37.38-1.26h.51v1.36h1.71v.7h-1.71v3.46a1.24,1.24,0,0,0,.25.82A.88.88,0,0,0,128.47,63.71Z"/>
    <path d="M132.94,64.45a2.7,2.7,0,0,1-2.06-.8,3,3,0,0,1-.76-2.2,3.48,3.48,0,0,1,.7-2.27,2.36,2.36,0,0,1,1.89-.83,2.24,2.24,0,0,1,1.75.72A2.8,2.8,0,0,1,135.1,61v.57h-4a2.29,2.29,0,0,0,.52,1.57,1.81,1.81,0,0,0,1.4.54,4.68,4.68,0,0,0,1.88-.4v.8a5.19,5.19,0,0,1-.9.29A4.91,4.91,0,0,1,132.94,64.45Zm-.25-5.36a1.5,1.5,0,0,0-1.13.46,2.15,2.15,0,0,0-.49,1.28h3.08a2,2,0,0,0-.38-1.29A1.33,1.33,0,0,0,132.69,59.09Z"/>
    <path d="M140.65,64.34V60.53a1.51,1.51,0,0,0-.33-1.07,1.32,1.32,0,0,0-1-.36,1.72,1.72,0,0,0-1.36.5,2.59,2.59,0,0,0-.43,1.65v3.09h-.89V58.45h.73l.14.81h0a1.8,1.8,0,0,1,.77-.67,2.5,2.5,0,0,1,1.1-.24,2.23,2.23,0,0,1,1.6.51,2.17,2.17,0,0,1,.54,1.64v3.84Z"/>
    <path d="M147,64.34l-.17-.84h0a2.37,2.37,0,0,1-.88.75,2.65,2.65,0,0,1-1.09.2,2,2,0,0,1-1.37-.45,1.66,1.66,0,0,1-.5-1.29c0-1.19.95-1.81,2.85-1.87l1,0v-.36a1.49,1.49,0,0,0-.3-1,1.2,1.2,0,0,0-.95-.33,3.88,3.88,0,0,0-1.66.45l-.28-.68a4.28,4.28,0,0,1,2-.5,2.25,2.25,0,0,1,1.56.46,2,2,0,0,1,.5,1.5v4Zm-2-.63a1.84,1.84,0,0,0,1.31-.45,1.72,1.72,0,0,0,.47-1.28v-.53l-.89,0a3.34,3.34,0,0,0-1.53.33,1,1,0,0,0-.47.91.9.9,0,0,0,.29.74A1.2,1.2,0,0,0,145,63.71Z"/>
    <path d="M153.52,64.34V60.53a1.51,1.51,0,0,0-.33-1.07,1.32,1.32,0,0,0-1-.36,1.72,1.72,0,0,0-1.36.5,2.53,2.53,0,0,0-.43,1.65v3.09h-.89V58.45h.73l.14.81h0a1.8,1.8,0,0,1,.77-.67,2.5,2.5,0,0,1,1.1-.24,2.23,2.23,0,0,1,1.6.51,2.17,2.17,0,0,1,.54,1.64v3.84Z"/>
    <path d="M158.59,64.45a2.5,2.5,0,0,1-2-.79,3.27,3.27,0,0,1-.7-2.23,3.32,3.32,0,0,1,.72-2.28,2.57,2.57,0,0,1,2-.8,4,4,0,0,1,.85.09,3,3,0,0,1,.67.21l-.28.76a4.83,4.83,0,0,0-.64-.2,2.94,2.94,0,0,0-.62-.07c-1.19,0-1.79.76-1.79,2.28a2.68,2.68,0,0,0,.44,1.67,1.5,1.5,0,0,0,1.29.58,4,4,0,0,0,1.51-.32v.79A3.14,3.14,0,0,1,158.59,64.45Z"/>
    <path d="M164,64.45a2.7,2.7,0,0,1-2.06-.8,3,3,0,0,1-.76-2.2,3.42,3.42,0,0,1,.7-2.27,2.36,2.36,0,0,1,1.88-.83,2.25,2.25,0,0,1,1.76.72,2.8,2.8,0,0,1,.64,1.92v.57h-4.06a2.35,2.35,0,0,0,.53,1.57,1.81,1.81,0,0,0,1.4.54,4.68,4.68,0,0,0,1.88-.4v.8a5.48,5.48,0,0,1-.9.29A4.91,4.91,0,0,1,164,64.45Zm-.25-5.36a1.48,1.48,0,0,0-1.13.46,2.15,2.15,0,0,0-.49,1.28h3.07a2,2,0,0,0-.37-1.29A1.33,1.33,0,0,0,163.72,59.09Z"/>
    <path d="M173,64.45a2.72,2.72,0,0,1-2.06-.8,3.07,3.07,0,0,1-.75-2.2,3.42,3.42,0,0,1,.7-2.27,2.36,2.36,0,0,1,1.88-.83,2.23,2.23,0,0,1,1.75.72,2.81,2.81,0,0,1,.65,1.92v.57H171.1a2.35,2.35,0,0,0,.53,1.57,1.79,1.79,0,0,0,1.4.54,4.68,4.68,0,0,0,1.88-.4v.8a5.48,5.48,0,0,1-.9.29A5,5,0,0,1,173,64.45Zm-.24-5.36a1.48,1.48,0,0,0-1.13.46,2.15,2.15,0,0,0-.49,1.28h3.07a2,2,0,0,0-.37-1.29A1.33,1.33,0,0,0,172.75,59.09Z"/>
    <path d="M179.33,59.15h-1.5v5.19h-.89V59.15h-1.05v-.41l1.05-.32v-.33c0-1.44.63-2.17,1.9-2.17a4.1,4.1,0,0,1,1.09.19l-.23.72a2.94,2.94,0,0,0-.88-.17.84.84,0,0,0-.74.34,1.78,1.78,0,0,0-.25,1.07v.38h1.5Zm3.73,0h-1.5v5.19h-.89V59.15h-1v-.41l1-.32v-.33c0-1.44.63-2.17,1.9-2.17a4.1,4.1,0,0,1,1.09.19l-.23.72a3,3,0,0,0-.88-.17.85.85,0,0,0-.75.34,1.86,1.86,0,0,0-.24,1.07v.38h1.5Z"/>
    <path d="M189.22,61.39a3.27,3.27,0,0,1-.72,2.25,2.58,2.58,0,0,1-2,.81,2.73,2.73,0,0,1-1.4-.37,2.48,2.48,0,0,1-1-1.07,3.72,3.72,0,0,1-.33-1.62,3.23,3.23,0,0,1,.72-2.24,2.54,2.54,0,0,1,2-.8,2.47,2.47,0,0,1,2,.82A3.21,3.21,0,0,1,189.22,61.39Zm-4.48,0a2.8,2.8,0,0,0,.45,1.72,1.57,1.57,0,0,0,1.32.59,1.55,1.55,0,0,0,1.33-.59,2.71,2.71,0,0,0,.46-1.72,2.67,2.67,0,0,0-.46-1.7,1.8,1.8,0,0,0-2.66,0A2.73,2.73,0,0,0,184.74,61.39Z"/>
    <path d="M193.47,58.35a3.73,3.73,0,0,1,.7.06l-.12.83a2.67,2.67,0,0,0-.65-.08,1.57,1.57,0,0,0-1.22.58,2.1,2.1,0,0,0-.51,1.44v3.16h-.89V58.45h.74l.1,1.09h0a2.72,2.72,0,0,1,.79-.88A1.78,1.78,0,0,1,193.47,58.35Z"/>
    <path d="M197.17,63.71a3.44,3.44,0,0,0,.46,0l.35-.08v.69a2,2,0,0,1-.43.11,3.13,3.13,0,0,1-.5,0q-1.71,0-1.71-1.8v-3.5h-.85v-.43l.85-.37.37-1.26h.52v1.36h1.71v.7h-1.71v3.46a1.18,1.18,0,0,0,.25.82A.88.88,0,0,0,197.17,63.71Z"/>
    <path d="M203,62.73a1.47,1.47,0,0,1-.61,1.27,2.86,2.86,0,0,1-1.72.45,3.78,3.78,0,0,1-1.82-.37v-.83a4.28,4.28,0,0,0,.91.34,3.83,3.83,0,0,0,.93.12,2.12,2.12,0,0,0,1.08-.22.74.74,0,0,0,.37-.68.72.72,0,0,0-.29-.59,5.14,5.14,0,0,0-1.17-.58,6.32,6.32,0,0,1-1.16-.53,1.52,1.52,0,0,1-.52-.52,1.36,1.36,0,0,1-.17-.69,1.34,1.34,0,0,1,.59-1.14,2.76,2.76,0,0,1,1.6-.41,4.8,4.8,0,0,1,1.86.38l-.32.73a4.13,4.13,0,0,0-1.6-.37,1.91,1.91,0,0,0-1,.2.63.63,0,0,0-.32.55.65.65,0,0,0,.12.4,1.19,1.19,0,0,0,.39.32,8.94,8.94,0,0,0,1,.43,4,4,0,0,1,1.42.77A1.37,1.37,0,0,1,203,62.73Z"/>
    <path d="M212.07,64.34,211,60.89c-.07-.21-.2-.69-.38-1.44h-.05c-.14.62-.26,1.11-.37,1.45l-1.11,3.44h-1l-1.61-5.89h.93l.87,3.38a13.87,13.87,0,0,1,.34,1.57h0c0-.21.1-.47.19-.8s.16-.58.22-.77l1.08-3.38h1l1,3.38a11.77,11.77,0,0,1,.41,1.55h0a5.34,5.34,0,0,1,.11-.59c.06-.27.44-1.71,1.12-4.34h.92l-1.62,5.89Z"/>
    <path d="M218.3,64.45a2.72,2.72,0,0,1-2.06-.8,3.07,3.07,0,0,1-.75-2.2,3.42,3.42,0,0,1,.7-2.27,2.36,2.36,0,0,1,1.88-.83,2.21,2.21,0,0,1,1.75.72,2.81,2.81,0,0,1,.65,1.92v.57h-4.06a2.35,2.35,0,0,0,.53,1.57,1.81,1.81,0,0,0,1.4.54,4.68,4.68,0,0,0,1.88-.4v.8a5.48,5.48,0,0,1-.9.29A5,5,0,0,1,218.3,64.45Zm-.24-5.36a1.48,1.48,0,0,0-1.13.46,2.15,2.15,0,0,0-.49,1.28h3.07a2,2,0,0,0-.37-1.29A1.33,1.33,0,0,0,218.06,59.09Z"/>
    <path d="M226,64.34V60.53a1.51,1.51,0,0,0-.33-1.07,1.33,1.33,0,0,0-1-.36,1.71,1.71,0,0,0-1.35.5,2.53,2.53,0,0,0-.43,1.65v3.09H222V58.45h.72l.15.81h0a1.74,1.74,0,0,1,.77-.67,2.5,2.5,0,0,1,1.1-.24,2.24,2.24,0,0,1,1.6.51,2.17,2.17,0,0,1,.54,1.64v3.84Z"/>
    <path d="M230.64,63.71a3.44,3.44,0,0,0,.46,0l.35-.08v.69a2,2,0,0,1-.43.11,3.36,3.36,0,0,1-.51,0c-1.14,0-1.7-.6-1.7-1.8v-3.5H228v-.43l.85-.37.37-1.26h.52v1.36h1.7v.7h-1.7v3.46a1.18,1.18,0,0,0,.25.82A.88.88,0,0,0,230.64,63.71Z"/>
    <path d="M239.49,63.55h-.05a2.09,2.09,0,0,1-1.85.9,2.18,2.18,0,0,1-1.79-.79,3.49,3.49,0,0,1-.65-2.25,3.54,3.54,0,0,1,.65-2.26,2.19,2.19,0,0,1,1.79-.8,2.15,2.15,0,0,1,1.84.87h.07l0-.43,0-.41V56h.89v8.36h-.72Zm-1.78.15a1.61,1.61,0,0,0,1.32-.5,2.52,2.52,0,0,0,.41-1.6v-.19a2.91,2.91,0,0,0-.42-1.78,1.56,1.56,0,0,0-1.33-.54,1.38,1.38,0,0,0-1.2.61,3.1,3.1,0,0,0-.41,1.72,3,3,0,0,0,.41,1.71A1.41,1.41,0,0,0,237.71,63.7Z"/>
    <path d="M244.71,64.45a2.7,2.7,0,0,1-2.06-.8,3.08,3.08,0,0,1-.76-2.2,3.43,3.43,0,0,1,.71-2.27,2.33,2.33,0,0,1,1.88-.83,2.23,2.23,0,0,1,1.75.72,2.8,2.8,0,0,1,.64,1.92v.57h-4.05a2.34,2.34,0,0,0,.52,1.57,1.81,1.81,0,0,0,1.4.54,4.64,4.64,0,0,0,1.88-.4v.8a5.1,5.1,0,0,1-.89.29A5,5,0,0,1,244.71,64.45Zm-.24-5.36a1.47,1.47,0,0,0-1.13.46,2.16,2.16,0,0,0-.5,1.28h3.08a2,2,0,0,0-.38-1.29A1.32,1.32,0,0,0,244.47,59.09Z"/>
    <path d="M250.88,64.45a2.7,2.7,0,0,1-2.06-.8,3.07,3.07,0,0,1-.75-2.2,3.42,3.42,0,0,1,.7-2.27,2.33,2.33,0,0,1,1.88-.83,2.23,2.23,0,0,1,1.75.72A2.8,2.8,0,0,1,253,61v.57h-4a2.34,2.34,0,0,0,.52,1.57,1.81,1.81,0,0,0,1.4.54,4.64,4.64,0,0,0,1.88-.4v.8a5.1,5.1,0,0,1-.89.29A5,5,0,0,1,250.88,64.45Zm-.24-5.36a1.48,1.48,0,0,0-1.13.46,2.16,2.16,0,0,0-.5,1.28h3.08a2,2,0,0,0-.38-1.29A1.32,1.32,0,0,0,250.64,59.09Z"/>
    <path d="M257.3,64.45a2.59,2.59,0,0,1-1.05-.21,2,2,0,0,1-.79-.66h-.07a6.84,6.84,0,0,1,.07,1V67h-.9V58.45h.73l.12.81h.05a2,2,0,0,1,.8-.7,2.44,2.44,0,0,1,1-.21,2.16,2.16,0,0,1,1.81.8,3.47,3.47,0,0,1,.64,2.24,3.54,3.54,0,0,1-.65,2.26A2.19,2.19,0,0,1,257.3,64.45Zm-.12-5.35a1.59,1.59,0,0,0-1.31.5,2.54,2.54,0,0,0-.41,1.59v.2a2.94,2.94,0,0,0,.41,1.78,1.6,1.6,0,0,0,1.33.53,1.35,1.35,0,0,0,1.19-.62,2.91,2.91,0,0,0,.43-1.7,2.81,2.81,0,0,0-.43-1.69A1.42,1.42,0,0,0,257.18,59.1Z"/>
    <path d="M261.18,63.77a.77.77,0,0,1,.16-.54.58.58,0,0,1,.47-.19.63.63,0,0,1,.49.19.78.78,0,0,1,.17.54.77.77,0,0,1-.18.54.69.69,0,0,1-.93,0A.75.75,0,0,1,261.18,63.77Z"/>
  </g>
  <line class="cls-5" x1="31.83" y1="249.01" x2="213.78" y2="249.01"/>
  <rect class="cls-6" x="31.83" y="103.39" width="181.96" height="172.96"/>
  <line class="cls-5" x1="31.83" y1="220.94" x2="213.78" y2="220.94"/>
  <rect class="cls-6" x="31.83" y="103.39" width="181.96" height="172.96"/>
  <line class="cls-5" x1="31.83" y1="192.87" x2="213.78" y2="192.87"/>
  <rect class="cls-6" x="31.83" y="103.39" width="181.96" height="172.96"/>
  <line class="cls-5" x1="31.83" y1="164.8" x2="213.78" y2="164.8"/>
  <rect class="cls-6" x="31.83" y="103.39" width="181.96" height="172.96"/>
  <line class="cls-5" x1="31.83" y1="136.74" x2="213.78" y2="136.74"/>
  <rect class="cls-6" x="31.83" y="103.39" width="181.96" height="172.96"/>
  <line class="cls-5" x1="40.93" y1="108.67" x2="213.78" y2="108.67"/>
  <rect class="cls-6" x="31.83" y="103.39" width="181.96" height="172.96"/>
  <g>
    <g>
      <path class="cls-2" d="M14.36,250.09v-.81H20v.81Z"/>
      <path class="cls-2" d="M21.3,250.25a6.07,6.07,0,0,1,1-3.77,3.44,3.44,0,0,1,2.9-1.26,3.69,3.69,0,0,1,1.05.12v.83a3.69,3.69,0,0,0-1-.14,2.59,2.59,0,0,0-2.1.86,4.43,4.43,0,0,0-.8,2.69h.07a2.24,2.24,0,0,1,2-1,2.4,2.4,0,0,1,1.82.69,2.62,2.62,0,0,1,.67,1.9,3,3,0,0,1-.73,2.1,2.61,2.61,0,0,1-2,.76,2.52,2.52,0,0,1-2.11-1A4.4,4.4,0,0,1,21.3,250.25Zm2.87,2.95a1.64,1.64,0,0,0,1.3-.52,2.25,2.25,0,0,0,.46-1.51,2,2,0,0,0-.43-1.34,1.64,1.64,0,0,0-1.28-.49,2.26,2.26,0,0,0-1,.22,1.77,1.77,0,0,0-.7.6,1.4,1.4,0,0,0-.26.79,2.62,2.62,0,0,0,.24,1.12,2,2,0,0,0,.66.83A1.69,1.69,0,0,0,24.17,253.2Z"/>
    </g>
    <g>
      <path class="cls-2" d="M14.36,222v-.81H20V222Z"/>
      <path class="cls-2" d="M27.23,223.88H26v2H25v-2H20.86V223l4.07-5.8h1V223h1.27ZM25,223v-2.84c0-.56,0-1.19.06-1.9H25a7.3,7.3,0,0,1-.53.93L21.84,223Z"/>
    </g>
    <g>
      <path class="cls-2" d="M14.36,194v-.81H20V194Z"/>
      <path class="cls-2" d="M26.83,197.78H21.2v-.84l2.25-2.27a15.31,15.31,0,0,0,1.36-1.49,3.67,3.67,0,0,0,.5-.86,2.49,2.49,0,0,0,.16-.91,1.44,1.44,0,0,0-.42-1.09,1.56,1.56,0,0,0-1.15-.4,2.83,2.83,0,0,0-1,.18,3.77,3.77,0,0,0-1.06.64l-.52-.67a4,4,0,0,1,2.58-1,2.69,2.69,0,0,1,1.89.62,2.11,2.11,0,0,1,.69,1.66A3.26,3.26,0,0,1,26,193a10.59,10.59,0,0,1-1.71,2l-1.88,1.84v0h4.41Z"/>
    </g>
    <path class="cls-2" d="M25.73,165.41a6.22,6.22,0,0,1-.7,3.32,2.37,2.37,0,0,1-2.14,1.1,2.34,2.34,0,0,1-2.1-1.13,6.11,6.11,0,0,1-.72-3.29,6.32,6.32,0,0,1,.69-3.32A2.37,2.37,0,0,1,22.89,161,2.37,2.37,0,0,1,25,162.14,6.12,6.12,0,0,1,25.73,165.41Zm-4.68,0a6.35,6.35,0,0,0,.44,2.73,1.58,1.58,0,0,0,2.81,0,8.53,8.53,0,0,0,0-5.41,1.58,1.58,0,0,0-2.81,0A6.25,6.25,0,0,0,21.05,165.41Z"/>
    <path class="cls-2" d="M25.69,141.64H20.05v-.84l2.26-2.26a16.62,16.62,0,0,0,1.36-1.49,3.87,3.87,0,0,0,.49-.87,2.46,2.46,0,0,0,.17-.91,1.42,1.42,0,0,0-.42-1.08,1.58,1.58,0,0,0-1.15-.41,2.88,2.88,0,0,0-1,.18,4.19,4.19,0,0,0-1.06.64l-.51-.66a3.9,3.9,0,0,1,2.57-1,2.75,2.75,0,0,1,1.9.62,2.15,2.15,0,0,1,.68,1.66,3.16,3.16,0,0,1-.46,1.61,9.89,9.89,0,0,1-1.71,2l-1.87,1.83v.05h4.41Z"/>
    <path class="cls-2" d="M26.09,111.6H24.82v2h-.93v-2H19.72v-.84l4.07-5.8h1v5.76h1.27Zm-2.2-.88v-2.85c0-.56,0-1.19.05-1.89h0a9.9,9.9,0,0,1-.53.93l-2.68,3.81Z"/>
  </g>
  <rect class="cls-7" x="40.93" y="140.07" width="18.2" height="24.74"/>
  <rect class="cls-6" x="31.83" y="103.39" width="181.96" height="172.96"/>
  <rect class="cls-7" x="77.32" y="147.12" width="18.2" height="17.69"/>
  <rect class="cls-6" x="31.83" y="103.39" width="181.96" height="172.96"/>
  <rect class="cls-7" x="113.71" y="164.64" width="18.2" height="0.16"/>
  <rect class="cls-6" x="31.83" y="103.39" width="181.96" height="172.96"/>
  <rect class="cls-8" x="150.1" y="164.8" width="18.2" height="25.43"/>
  <rect class="cls-6" x="31.83" y="103.39" width="181.96" height="172.96"/>
  <rect class="cls-8" x="186.49" y="164.8" width="18.2" height="63.8"/>
  <rect class="cls-3" x="167.21" y="98.31" width="49.48" height="23.52"/>
  <rect class="cls-9" x="167.21" y="98.31" width="49.48" height="23.52"/>
  <g>
    <path d="M174.42,114.2h-1.24V103.5h6v1.1h-4.73v3.92h4.44v1.11h-4.44Z"/>
    <path d="M185.85,114.2h-1.22V102.81h1.22Z"/>
    <path d="M188.33,104a.79.79,0,0,1,.2-.61.78.78,0,0,1,1,0,1,1,0,0,1,0,1.22.75.75,0,0,1-1,0A.8.8,0,0,1,188.33,104Zm1.31,10.2h-1.21v-8h1.21Z"/>
    <path d="M197.72,114.2V109a2.08,2.08,0,0,0-.45-1.46,1.81,1.81,0,0,0-1.4-.49,2.33,2.33,0,0,0-1.85.68,3.47,3.47,0,0,0-.58,2.25v4.21h-1.22v-8h1l.2,1.09h.06a2.49,2.49,0,0,1,1-.91A3.38,3.38,0,0,1,196,106a3,3,0,0,1,2.18.7,3,3,0,0,1,.73,2.24v5.23Z"/>
    <path d="M204.82,114.35a3.7,3.7,0,0,1-2.81-1.08,4.2,4.2,0,0,1-1-3,4.64,4.64,0,0,1,1-3.09A3.17,3.17,0,0,1,204.5,106a3,3,0,0,1,2.39,1,3.79,3.79,0,0,1,.88,2.62v.77h-5.53a3.19,3.19,0,0,0,.72,2.15,2.48,2.48,0,0,0,1.9.73,6.52,6.52,0,0,0,2.57-.54v1.08a6.18,6.18,0,0,1-1.22.4A7,7,0,0,1,204.82,114.35Zm-.33-7.3a2,2,0,0,0-1.54.63,2.87,2.87,0,0,0-.68,1.74h4.2a2.68,2.68,0,0,0-.51-1.76A1.81,1.81,0,0,0,204.49,107.05Z"/>
  </g>
  <line class="cls-5" x1="250.18" y1="249.01" x2="432.13" y2="249.01"/>
  <rect class="cls-6" x="250.18" y="103.39" width="181.96" height="172.96"/>
  <line class="cls-5" x1="250.18" y1="220.94" x2="432.13" y2="220.94"/>
  <rect class="cls-6" x="250.18" y="103.39" width="181.96" height="172.96"/>
  <line class="cls-5" x1="250.18" y1="192.87" x2="432.13" y2="192.87"/>
  <rect class="cls-6" x="250.18" y="103.39" width="181.96" height="172.96"/>
  <line class="cls-5" x1="250.18" y1="164.8" x2="432.13" y2="164.8"/>
  <rect class="cls-6" x="250.18" y="103.39" width="181.96" height="172.96"/>
  <line class="cls-5" x1="250.18" y1="136.74" x2="432.13" y2="136.74"/>
  <rect class="cls-6" x="250.18" y="103.39" width="181.96" height="172.96"/>
  <line class="cls-5" x1="250.18" y1="108.67" x2="432.13" y2="108.67"/>
  <rect class="cls-6" x="250.18" y="103.39" width="181.96" height="172.96"/>
  <rect class="cls-7" x="259.27" y="124.35" width="18.2" height="40.46"/>
  <rect class="cls-6" x="250.18" y="103.39" width="181.96" height="172.96"/>
  <rect class="cls-7" x="295.66" y="154.97" width="18.2" height="9.83"/>
  <rect class="cls-6" x="250.18" y="103.39" width="181.96" height="172.96"/>
  <rect class="cls-8" x="332.06" y="164.8" width="18.2" height="4.01"/>
  <rect class="cls-6" x="250.18" y="103.39" width="181.96" height="172.96"/>
  <rect class="cls-8" x="368.45" y="164.8" width="18.2" height="12.51"/>
  <rect class="cls-6" x="250.18" y="103.39" width="181.96" height="172.96"/>
  <rect class="cls-8" x="404.84" y="164.8" width="18.2" height="55.19"/>
  <rect class="cls-6" x="250.18" y="103.39" width="181.96" height="172.96"/>
  <rect class="cls-3" x="384.72" y="98.31" width="51.16" height="23.52"/>
  <rect class="cls-9" x="384.72" y="98.31" width="51.16" height="23.52"/>
  <g>
    <path d="M390.69,103.5h3a5.76,5.76,0,0,1,3.08.63,2.27,2.27,0,0,1,.95,2,2.35,2.35,0,0,1-.53,1.57,2.54,2.54,0,0,1-1.55.8v.07c1.63.28,2.44,1.14,2.44,2.57a2.75,2.75,0,0,1-1,2.24,4.17,4.17,0,0,1-2.71.8h-3.74Zm1.25,4.58H394a3.35,3.35,0,0,0,1.89-.41,1.6,1.6,0,0,0,.58-1.4,1.41,1.41,0,0,0-.64-1.3,4.11,4.11,0,0,0-2.05-.4h-1.83Zm0,1.06v4h2.23a3.22,3.22,0,0,0,1.95-.5,1.84,1.84,0,0,0,.66-1.57,1.69,1.69,0,0,0-.67-1.47,3.62,3.62,0,0,0-2-.46Z"/>
    <path d="M405.34,114.2h-1.22V102.81h1.22Z"/>
    <path d="M407.81,104a.79.79,0,0,1,.21-.61.78.78,0,0,1,1,0,1,1,0,0,1,0,1.22.75.75,0,0,1-1,0A.81.81,0,0,1,407.81,104Zm1.32,10.2h-1.21v-8h1.21Z"/>
    <path d="M417.2,114.2V109a2.07,2.07,0,0,0-.44-1.46,1.81,1.81,0,0,0-1.4-.49,2.33,2.33,0,0,0-1.85.68,3.47,3.47,0,0,0-.58,2.25v4.21h-1.22v-8h1l.2,1.09H413a2.43,2.43,0,0,1,1-.91,3.38,3.38,0,0,1,1.51-.33,3,3,0,0,1,2.18.7,3,3,0,0,1,.73,2.24v5.23Z"/>
    <path d="M424.31,114.35a3.7,3.7,0,0,1-2.81-1.08,4.2,4.2,0,0,1-1-3,4.64,4.64,0,0,1,1-3.09A3.16,3.16,0,0,1,424,106a3,3,0,0,1,2.39,1,3.79,3.79,0,0,1,.88,2.62v.77h-5.53a3.19,3.19,0,0,0,.72,2.15,2.48,2.48,0,0,0,1.9.73,6.52,6.52,0,0,0,2.57-.54v1.08a6.18,6.18,0,0,1-1.22.4A7,7,0,0,1,424.31,114.35Zm-.33-7.3a2,2,0,0,0-1.54.63,2.87,2.87,0,0,0-.68,1.74H426a2.62,2.62,0,0,0-.52-1.76A1.79,1.79,0,0,0,424,107.05Z"/>
  </g>
  <line class="cls-5" x1="468.52" y1="249.01" x2="650.48" y2="249.01"/>
  <rect class="cls-6" x="468.52" y="103.39" width="181.96" height="172.96"/>
  <line class="cls-5" x1="468.52" y1="220.94" x2="650.48" y2="220.94"/>
  <rect class="cls-6" x="468.52" y="103.39" width="181.96" height="172.96"/>
  <line class="cls-5" x1="468.52" y1="192.87" x2="650.48" y2="192.87"/>
  <rect class="cls-6" x="468.52" y="103.39" width="181.96" height="172.96"/>
  <line class="cls-5" x1="468.52" y1="164.8" x2="650.48" y2="164.8"/>
  <rect class="cls-6" x="468.52" y="103.39" width="181.96" height="172.96"/>
  <line class="cls-5" x1="468.52" y1="136.74" x2="650.48" y2="136.74"/>
  <rect class="cls-6" x="468.52" y="103.39" width="181.96" height="172.96"/>
  <line class="cls-5" x1="468.52" y1="108.67" x2="650.48" y2="108.67"/>
  <rect class="cls-6" x="468.52" y="103.39" width="181.96" height="172.96"/>
  <rect class="cls-7" x="477.62" y="146.98" width="18.2" height="17.83"/>
  <rect class="cls-6" x="468.52" y="103.39" width="181.96" height="172.96"/>
  <rect class="cls-8" x="514.01" y="164.8" width="18.2" height="11.23"/>
  <rect class="cls-6" x="468.52" y="103.39" width="181.96" height="172.96"/>
  <rect class="cls-8" x="550.4" y="164.8" width="18.2" height="19.43"/>
  <rect class="cls-6" x="468.52" y="103.39" width="181.96" height="172.96"/>
  <rect class="cls-8" x="586.8" y="164.8" width="18.2" height="103.69"/>
  <rect class="cls-6" x="468.52" y="103.39" width="181.96" height="172.96"/>
  <rect class="cls-8" x="623.19" y="164.8" width="18.2" height="53.79"/>
  <rect class="cls-3" x="603.44" y="98.31" width="50.41" height="23.52"/>
  <rect class="cls-9" x="603.44" y="98.31" width="50.41" height="23.52"/>
  <g>
    <path d="M608.8,109.63a7.54,7.54,0,0,1,1.23-4.72,4.3,4.3,0,0,1,3.63-1.57,4.94,4.94,0,0,1,1.3.14v1a4.28,4.28,0,0,0-1.29-.18,3.24,3.24,0,0,0-2.63,1.07,5.47,5.47,0,0,0-1,3.37h.09a2.81,2.81,0,0,1,2.55-1.26,3,3,0,0,1,2.28.87,3.31,3.31,0,0,1,.83,2.37,3.66,3.66,0,0,1-.91,2.62,3.25,3.25,0,0,1-2.47,1,3.18,3.18,0,0,1-2.64-1.25A5.51,5.51,0,0,1,608.8,109.63Zm3.6,3.69a2,2,0,0,0,1.61-.66,2.81,2.81,0,0,0,.57-1.89,2.41,2.41,0,0,0-.53-1.67,2,2,0,0,0-1.6-.61,2.65,2.65,0,0,0-1.2.27,2.22,2.22,0,0,0-.88.75,1.73,1.73,0,0,0-.33,1,3.29,3.29,0,0,0,.3,1.4,2.45,2.45,0,0,0,.83,1A2.11,2.11,0,0,0,612.4,113.32Z"/>
    <path d="M622.92,114.2H621.7V102.81h1.22Z"/>
    <path d="M625.4,104a.79.79,0,0,1,.2-.61.78.78,0,0,1,1,0,1,1,0,0,1,0,1.22.75.75,0,0,1-1,0A.8.8,0,0,1,625.4,104Zm1.31,10.2H625.5v-8h1.21Z"/>
    <path d="M634.79,114.2V109a2.08,2.08,0,0,0-.45-1.46,1.81,1.81,0,0,0-1.4-.49,2.33,2.33,0,0,0-1.85.68,3.47,3.47,0,0,0-.58,2.25v4.21h-1.22v-8h1l.2,1.09h.06a2.43,2.43,0,0,1,1-.91,3.38,3.38,0,0,1,1.51-.33,3,3,0,0,1,2.18.7A3,3,0,0,1,636,109v5.23Z"/>
    <path d="M641.89,114.35a3.7,3.7,0,0,1-2.81-1.08,4.24,4.24,0,0,1-1-3,4.64,4.64,0,0,1,1-3.09,3.18,3.18,0,0,1,2.57-1.14,3,3,0,0,1,2.38,1,3.79,3.79,0,0,1,.88,2.62v.77h-5.53a3.19,3.19,0,0,0,.72,2.15,2.48,2.48,0,0,0,1.9.73,6.52,6.52,0,0,0,2.57-.54v1.08a6.18,6.18,0,0,1-1.22.4A7,7,0,0,1,641.89,114.35Zm-.33-7.3a2,2,0,0,0-1.54.63,2.93,2.93,0,0,0-.68,1.74h4.2a2.68,2.68,0,0,0-.51-1.76A1.81,1.81,0,0,0,641.56,107.05Z"/>
  </g>
  <line class="cls-5" x1="686.87" y1="249.01" x2="868.83" y2="249.01"/>
  <rect class="cls-6" x="686.87" y="103.39" width="181.96" height="172.96"/>
  <line class="cls-5" x1="686.87" y1="220.94" x2="868.83" y2="220.94"/>
  <rect class="cls-6" x="686.87" y="103.39" width="181.96" height="172.96"/>
  <line class="cls-5" x1="686.87" y1="192.87" x2="868.83" y2="192.87"/>
  <rect class="cls-6" x="686.87" y="103.39" width="181.96" height="172.96"/>
  <line class="cls-5" x1="686.87" y1="164.8" x2="868.83" y2="164.8"/>
  <rect class="cls-6" x="686.87" y="103.39" width="181.96" height="172.96"/>
  <line class="cls-5" x1="686.87" y1="136.74" x2="868.83" y2="136.74"/>
  <rect class="cls-6" x="686.87" y="103.39" width="181.96" height="172.96"/>
  <line class="cls-5" x1="686.87" y1="108.67" x2="868.83" y2="108.67"/>
  <rect class="cls-6" x="686.87" y="103.39" width="181.96" height="172.96"/>
  <rect class="cls-7" x="695.97" y="111.25" width="18.2" height="53.55"/>
  <rect class="cls-6" x="686.87" y="103.39" width="181.96" height="172.96"/>
  <rect class="cls-8" x="732.36" y="164.8" width="18.2" height="12.64"/>
  <rect class="cls-6" x="686.87" y="103.39" width="181.96" height="172.96"/>
  <rect class="cls-8" x="768.75" y="164.8" width="18.2" height="7.31"/>
  <rect class="cls-6" x="686.87" y="103.39" width="181.96" height="172.96"/>
  <rect class="cls-8" x="805.14" y="164.8" width="18.2" height="9.08"/>
  <rect class="cls-6" x="686.87" y="103.39" width="181.96" height="172.96"/>
  <rect class="cls-8" x="841.53" y="164.8" width="18.2" height="51.28"/>
  <rect class="cls-6" x="686.87" y="103.39" width="181.96" height="172.96"/>
  <rect class="cls-3" x="822.38" y="98.31" width="49.22" height="23.52"/>
  <rect class="cls-9" x="822.38" y="98.31" width="49.22" height="23.52"/>
  <g>
    <path d="M828.36,114.2V103.5h1.24v9.58h4.73v1.12Z"/>
    <path d="M841.07,114.2h-1.22V102.81h1.22Z"/>
    <path d="M843.55,104a.83.83,0,0,1,.2-.61.78.78,0,0,1,1,0,1,1,0,0,1,0,1.22.75.75,0,0,1-1,0A.84.84,0,0,1,843.55,104Zm1.32,10.2h-1.22v-8h1.22Z"/>
    <path d="M852.94,114.2V109a2.08,2.08,0,0,0-.45-1.46,1.81,1.81,0,0,0-1.4-.49,2.33,2.33,0,0,0-1.85.68,3.47,3.47,0,0,0-.58,2.25v4.21h-1.22v-8h1l.2,1.09h.06a2.46,2.46,0,0,1,1-.91,3.31,3.31,0,0,1,1.5-.33,3,3,0,0,1,2.18.7,3,3,0,0,1,.73,2.24v5.23Z"/>
    <path d="M860,114.35a3.7,3.7,0,0,1-2.81-1.08,4.24,4.24,0,0,1-1-3,4.64,4.64,0,0,1,1-3.09,3.18,3.18,0,0,1,2.57-1.14,3,3,0,0,1,2.38,1,3.79,3.79,0,0,1,.88,2.62v.77h-5.53a3.19,3.19,0,0,0,.72,2.15,2.48,2.48,0,0,0,1.9.73,6.52,6.52,0,0,0,2.57-.54v1.08a6.18,6.18,0,0,1-1.22.4A7,7,0,0,1,860,114.35Zm-.33-7.3a2,2,0,0,0-1.54.63,2.93,2.93,0,0,0-.68,1.74h4.2a2.68,2.68,0,0,0-.51-1.76A1.81,1.81,0,0,0,859.71,107.05Z"/>
  </g>
</svg>
