<?xml version="1.0" encoding="utf-8" standalone="no"?>
<!DOCTYPE svg PUBLIC "-//W3C//DTD SVG 1.1//EN"
  "http://www.w3.org/Graphics/SVG/1.1/DTD/svg11.dtd">
<!-- Created with matplotlib (https://matplotlib.org/) -->
<svg height="261.959875pt" version="1.1" viewBox="0 0 727.243125 261.959875" width="727.243125pt" xmlns="http://www.w3.org/2000/svg" xmlns:xlink="http://www.w3.org/1999/xlink">
 <defs>
  <style type="text/css">
*{stroke-linecap:butt;stroke-linejoin:round;white-space:pre;}
  </style>
 </defs>
 <g id="figure_1">
  <g id="patch_1">
   <path d="M 0 261.959875 
L 727.243125 261.959875 
L 727.243125 0 
L 0 0 
z
" style="fill:#f0f0f0;"/>
  </g>
  <g id="axes_1">
   <g id="patch_2">
    <path d="M 344.203125 241.58175 
L 720.043125 241.58175 
L 720.043125 24.14175 
L 344.203125 24.14175 
z
" style="fill:#f0f0f0;"/>
   </g>
   <g id="matplotlib.axis_1">
    <g id="xtick_1">
     <g id="line2d_1">
      <path clip-path="url(#pc198cbd4ce)" d="M 344.203125 241.58175 
L 344.203125 24.14175 
" style="fill:none;stroke:#cbcbcb;"/>
     </g>
     <g id="line2d_2"/>
     <g id="text_1">
      <!-- 0 -->
      <defs>
       <path d="M 31.78125 66.40625 
Q 24.171875 66.40625 20.328125 58.90625 
Q 16.5 51.421875 16.5 36.375 
Q 16.5 21.390625 20.328125 13.890625 
Q 24.171875 6.390625 31.78125 6.390625 
Q 39.453125 6.390625 43.28125 13.890625 
Q 47.125 21.390625 47.125 36.375 
Q 47.125 51.421875 43.28125 58.90625 
Q 39.453125 66.40625 31.78125 66.40625 
z
M 31.78125 74.21875 
Q 44.046875 74.21875 50.515625 64.515625 
Q 56.984375 54.828125 56.984375 36.375 
Q 56.984375 17.96875 50.515625 8.265625 
Q 44.046875 -1.421875 31.78125 -1.421875 
Q 19.53125 -1.421875 13.0625 8.265625 
Q 6.59375 17.96875 6.59375 36.375 
Q 6.59375 54.828125 13.0625 64.515625 
Q 19.53125 74.21875 31.78125 74.21875 
z
" id="DejaVuSans-48"/>
      </defs>
      <g transform="translate(341.021875 252.680188)scale(0.1 -0.1)">
       <use xlink:href="#DejaVuSans-48"/>
      </g>
     </g>
    </g>
    <g id="xtick_2">
     <g id="line2d_3">
      <path clip-path="url(#pc198cbd4ce)" d="M 409.283644 241.58175 
L 409.283644 24.14175 
" style="fill:none;stroke:#cbcbcb;"/>
     </g>
     <g id="line2d_4"/>
     <g id="text_2">
      <!-- 10 -->
      <defs>
       <path d="M 12.40625 8.296875 
L 28.515625 8.296875 
L 28.515625 63.921875 
L 10.984375 60.40625 
L 10.984375 69.390625 
L 28.421875 72.90625 
L 38.28125 72.90625 
L 38.28125 8.296875 
L 54.390625 8.296875 
L 54.390625 0 
L 12.40625 0 
z
" id="DejaVuSans-49"/>
      </defs>
      <g transform="translate(402.921144 252.680188)scale(0.1 -0.1)">
       <use xlink:href="#DejaVuSans-49"/>
       <use x="63.623047" xlink:href="#DejaVuSans-48"/>
      </g>
     </g>
    </g>
    <g id="xtick_3">
     <g id="line2d_5">
      <path clip-path="url(#pc198cbd4ce)" d="M 474.364164 241.58175 
L 474.364164 24.14175 
" style="fill:none;stroke:#cbcbcb;"/>
     </g>
     <g id="line2d_6"/>
     <g id="text_3">
      <!-- 20 -->
      <defs>
       <path d="M 19.1875 8.296875 
L 53.609375 8.296875 
L 53.609375 0 
L 7.328125 0 
L 7.328125 8.296875 
Q 12.9375 14.109375 22.625 23.890625 
Q 32.328125 33.6875 34.8125 36.53125 
Q 39.546875 41.84375 41.421875 45.53125 
Q 43.3125 49.21875 43.3125 52.78125 
Q 43.3125 58.59375 39.234375 62.25 
Q 35.15625 65.921875 28.609375 65.921875 
Q 23.96875 65.921875 18.8125 64.3125 
Q 13.671875 62.703125 7.8125 59.421875 
L 7.8125 69.390625 
Q 13.765625 71.78125 18.9375 73 
Q 24.125 74.21875 28.421875 74.21875 
Q 39.75 74.21875 46.484375 68.546875 
Q 53.21875 62.890625 53.21875 53.421875 
Q 53.21875 48.921875 51.53125 44.890625 
Q 49.859375 40.875 45.40625 35.40625 
Q 44.1875 33.984375 37.640625 27.21875 
Q 31.109375 20.453125 19.1875 8.296875 
z
" id="DejaVuSans-50"/>
      </defs>
      <g transform="translate(468.001664 252.680188)scale(0.1 -0.1)">
       <use xlink:href="#DejaVuSans-50"/>
       <use x="63.623047" xlink:href="#DejaVuSans-48"/>
      </g>
     </g>
    </g>
    <g id="xtick_4">
     <g id="line2d_7">
      <path clip-path="url(#pc198cbd4ce)" d="M 539.444683 241.58175 
L 539.444683 24.14175 
" style="fill:none;stroke:#cbcbcb;"/>
     </g>
     <g id="line2d_8"/>
     <g id="text_4">
      <!-- 30 -->
      <defs>
       <path d="M 40.578125 39.3125 
Q 47.65625 37.796875 51.625 33 
Q 55.609375 28.21875 55.609375 21.1875 
Q 55.609375 10.40625 48.1875 4.484375 
Q 40.765625 -1.421875 27.09375 -1.421875 
Q 22.515625 -1.421875 17.65625 -0.515625 
Q 12.796875 0.390625 7.625 2.203125 
L 7.625 11.71875 
Q 11.71875 9.328125 16.59375 8.109375 
Q 21.484375 6.890625 26.8125 6.890625 
Q 36.078125 6.890625 40.9375 10.546875 
Q 45.796875 14.203125 45.796875 21.1875 
Q 45.796875 27.640625 41.28125 31.265625 
Q 36.765625 34.90625 28.71875 34.90625 
L 20.21875 34.90625 
L 20.21875 43.015625 
L 29.109375 43.015625 
Q 36.375 43.015625 40.234375 45.921875 
Q 44.09375 48.828125 44.09375 54.296875 
Q 44.09375 59.90625 40.109375 62.90625 
Q 36.140625 65.921875 28.71875 65.921875 
Q 24.65625 65.921875 20.015625 65.03125 
Q 15.375 64.15625 9.8125 62.3125 
L 9.8125 71.09375 
Q 15.4375 72.65625 20.34375 73.4375 
Q 25.25 74.21875 29.59375 74.21875 
Q 40.828125 74.21875 47.359375 69.109375 
Q 53.90625 64.015625 53.90625 55.328125 
Q 53.90625 49.265625 50.4375 45.09375 
Q 46.96875 40.921875 40.578125 39.3125 
z
" id="DejaVuSans-51"/>
      </defs>
      <g transform="translate(533.082183 252.680188)scale(0.1 -0.1)">
       <use xlink:href="#DejaVuSans-51"/>
       <use x="63.623047" xlink:href="#DejaVuSans-48"/>
      </g>
     </g>
    </g>
    <g id="xtick_5">
     <g id="line2d_9">
      <path clip-path="url(#pc198cbd4ce)" d="M 604.525203 241.58175 
L 604.525203 24.14175 
" style="fill:none;stroke:#cbcbcb;"/>
     </g>
     <g id="line2d_10"/>
     <g id="text_5">
      <!-- 40 -->
      <defs>
       <path d="M 37.796875 64.3125 
L 12.890625 25.390625 
L 37.796875 25.390625 
z
M 35.203125 72.90625 
L 47.609375 72.90625 
L 47.609375 25.390625 
L 58.015625 25.390625 
L 58.015625 17.1875 
L 47.609375 17.1875 
L 47.609375 0 
L 37.796875 0 
L 37.796875 17.1875 
L 4.890625 17.1875 
L 4.890625 26.703125 
z
" id="DejaVuSans-52"/>
      </defs>
      <g transform="translate(598.162703 252.680188)scale(0.1 -0.1)">
       <use xlink:href="#DejaVuSans-52"/>
       <use x="63.623047" xlink:href="#DejaVuSans-48"/>
      </g>
     </g>
    </g>
    <g id="xtick_6">
     <g id="line2d_11">
      <path clip-path="url(#pc198cbd4ce)" d="M 669.605722 241.58175 
L 669.605722 24.14175 
" style="fill:none;stroke:#cbcbcb;"/>
     </g>
     <g id="line2d_12"/>
     <g id="text_6">
      <!-- 50 -->
      <defs>
       <path d="M 10.796875 72.90625 
L 49.515625 72.90625 
L 49.515625 64.59375 
L 19.828125 64.59375 
L 19.828125 46.734375 
Q 21.96875 47.46875 24.109375 47.828125 
Q 26.265625 48.1875 28.421875 48.1875 
Q 40.625 48.1875 47.75 41.5 
Q 54.890625 34.8125 54.890625 23.390625 
Q 54.890625 11.625 47.5625 5.09375 
Q 40.234375 -1.421875 26.90625 -1.421875 
Q 22.3125 -1.421875 17.546875 -0.640625 
Q 12.796875 0.140625 7.71875 1.703125 
L 7.71875 11.625 
Q 12.109375 9.234375 16.796875 8.0625 
Q 21.484375 6.890625 26.703125 6.890625 
Q 35.15625 6.890625 40.078125 11.328125 
Q 45.015625 15.765625 45.015625 23.390625 
Q 45.015625 31 40.078125 35.4375 
Q 35.15625 39.890625 26.703125 39.890625 
Q 22.75 39.890625 18.8125 39.015625 
Q 14.890625 38.140625 10.796875 36.28125 
z
" id="DejaVuSans-53"/>
      </defs>
      <g transform="translate(663.243222 252.680188)scale(0.1 -0.1)">
       <use xlink:href="#DejaVuSans-53"/>
       <use x="63.623047" xlink:href="#DejaVuSans-48"/>
      </g>
     </g>
    </g>
   </g>
   <g id="matplotlib.axis_2">
    <g id="ytick_1">
     <g id="line2d_13">
      <path clip-path="url(#pc198cbd4ce)" d="M 344.203125 236.639932 
L 720.043125 236.639932 
" style="fill:none;stroke:#cbcbcb;"/>
     </g>
     <g id="line2d_14"/>
     <g id="text_7">
      <!-- Pro-LGBT Rights extremists -->
      <defs>
       <path d="M 19.671875 64.796875 
L 19.671875 37.40625 
L 32.078125 37.40625 
Q 38.96875 37.40625 42.71875 40.96875 
Q 46.484375 44.53125 46.484375 51.125 
Q 46.484375 57.671875 42.71875 61.234375 
Q 38.96875 64.796875 32.078125 64.796875 
z
M 9.8125 72.90625 
L 32.078125 72.90625 
Q 44.34375 72.90625 50.609375 67.359375 
Q 56.890625 61.8125 56.890625 51.125 
Q 56.890625 40.328125 50.609375 34.8125 
Q 44.34375 29.296875 32.078125 29.296875 
L 19.671875 29.296875 
L 19.671875 0 
L 9.8125 0 
z
" id="DejaVuSans-80"/>
       <path d="M 41.109375 46.296875 
Q 39.59375 47.171875 37.8125 47.578125 
Q 36.03125 48 33.890625 48 
Q 26.265625 48 22.1875 43.046875 
Q 18.109375 38.09375 18.109375 28.8125 
L 18.109375 0 
L 9.078125 0 
L 9.078125 54.6875 
L 18.109375 54.6875 
L 18.109375 46.1875 
Q 20.953125 51.171875 25.484375 53.578125 
Q 30.03125 56 36.53125 56 
Q 37.453125 56 38.578125 55.875 
Q 39.703125 55.765625 41.0625 55.515625 
z
" id="DejaVuSans-114"/>
       <path d="M 30.609375 48.390625 
Q 23.390625 48.390625 19.1875 42.75 
Q 14.984375 37.109375 14.984375 27.296875 
Q 14.984375 17.484375 19.15625 11.84375 
Q 23.34375 6.203125 30.609375 6.203125 
Q 37.796875 6.203125 41.984375 11.859375 
Q 46.1875 17.53125 46.1875 27.296875 
Q 46.1875 37.015625 41.984375 42.703125 
Q 37.796875 48.390625 30.609375 48.390625 
z
M 30.609375 56 
Q 42.328125 56 49.015625 48.375 
Q 55.71875 40.765625 55.71875 27.296875 
Q 55.71875 13.875 49.015625 6.21875 
Q 42.328125 -1.421875 30.609375 -1.421875 
Q 18.84375 -1.421875 12.171875 6.21875 
Q 5.515625 13.875 5.515625 27.296875 
Q 5.515625 40.765625 12.171875 48.375 
Q 18.84375 56 30.609375 56 
z
" id="DejaVuSans-111"/>
       <path d="M 4.890625 31.390625 
L 31.203125 31.390625 
L 31.203125 23.390625 
L 4.890625 23.390625 
z
" id="DejaVuSans-45"/>
       <path d="M 9.8125 72.90625 
L 19.671875 72.90625 
L 19.671875 8.296875 
L 55.171875 8.296875 
L 55.171875 0 
L 9.8125 0 
z
" id="DejaVuSans-76"/>
       <path d="M 59.515625 10.40625 
L 59.515625 29.984375 
L 43.40625 29.984375 
L 43.40625 38.09375 
L 69.28125 38.09375 
L 69.28125 6.78125 
Q 63.578125 2.734375 56.6875 0.65625 
Q 49.8125 -1.421875 42 -1.421875 
Q 24.90625 -1.421875 15.25 8.5625 
Q 5.609375 18.5625 5.609375 36.375 
Q 5.609375 54.25 15.25 64.234375 
Q 24.90625 74.21875 42 74.21875 
Q 49.125 74.21875 55.546875 72.453125 
Q 61.96875 70.703125 67.390625 67.28125 
L 67.390625 56.78125 
Q 61.921875 61.421875 55.765625 63.765625 
Q 49.609375 66.109375 42.828125 66.109375 
Q 29.4375 66.109375 22.71875 58.640625 
Q 16.015625 51.171875 16.015625 36.375 
Q 16.015625 21.625 22.71875 14.15625 
Q 29.4375 6.6875 42.828125 6.6875 
Q 48.046875 6.6875 52.140625 7.59375 
Q 56.25 8.5 59.515625 10.40625 
z
" id="DejaVuSans-71"/>
       <path d="M 19.671875 34.8125 
L 19.671875 8.109375 
L 35.5 8.109375 
Q 43.453125 8.109375 47.28125 11.40625 
Q 51.125 14.703125 51.125 21.484375 
Q 51.125 28.328125 47.28125 31.5625 
Q 43.453125 34.8125 35.5 34.8125 
z
M 19.671875 64.796875 
L 19.671875 42.828125 
L 34.28125 42.828125 
Q 41.5 42.828125 45.03125 45.53125 
Q 48.578125 48.25 48.578125 53.8125 
Q 48.578125 59.328125 45.03125 62.0625 
Q 41.5 64.796875 34.28125 64.796875 
z
M 9.8125 72.90625 
L 35.015625 72.90625 
Q 46.296875 72.90625 52.390625 68.21875 
Q 58.5 63.53125 58.5 54.890625 
Q 58.5 48.1875 55.375 44.234375 
Q 52.25 40.28125 46.1875 39.3125 
Q 53.46875 37.75 57.5 32.78125 
Q 61.53125 27.828125 61.53125 20.40625 
Q 61.53125 10.640625 54.890625 5.3125 
Q 48.25 0 35.984375 0 
L 9.8125 0 
z
" id="DejaVuSans-66"/>
       <path d="M -0.296875 72.90625 
L 61.375 72.90625 
L 61.375 64.59375 
L 35.5 64.59375 
L 35.5 0 
L 25.59375 0 
L 25.59375 64.59375 
L -0.296875 64.59375 
z
" id="DejaVuSans-84"/>
       <path id="DejaVuSans-32"/>
       <path d="M 44.390625 34.1875 
Q 47.5625 33.109375 50.5625 29.59375 
Q 53.5625 26.078125 56.59375 19.921875 
L 66.609375 0 
L 56 0 
L 46.6875 18.703125 
Q 43.0625 26.03125 39.671875 28.421875 
Q 36.28125 30.8125 30.421875 30.8125 
L 19.671875 30.8125 
L 19.671875 0 
L 9.8125 0 
L 9.8125 72.90625 
L 32.078125 72.90625 
Q 44.578125 72.90625 50.734375 67.671875 
Q 56.890625 62.453125 56.890625 51.90625 
Q 56.890625 45.015625 53.6875 40.46875 
Q 50.484375 35.9375 44.390625 34.1875 
z
M 19.671875 64.796875 
L 19.671875 38.921875 
L 32.078125 38.921875 
Q 39.203125 38.921875 42.84375 42.21875 
Q 46.484375 45.515625 46.484375 51.90625 
Q 46.484375 58.296875 42.84375 61.546875 
Q 39.203125 64.796875 32.078125 64.796875 
z
" id="DejaVuSans-82"/>
       <path d="M 9.421875 54.6875 
L 18.40625 54.6875 
L 18.40625 0 
L 9.421875 0 
z
M 9.421875 75.984375 
L 18.40625 75.984375 
L 18.40625 64.59375 
L 9.421875 64.59375 
z
" id="DejaVuSans-105"/>
       <path d="M 45.40625 27.984375 
Q 45.40625 37.75 41.375 43.109375 
Q 37.359375 48.484375 30.078125 48.484375 
Q 22.859375 48.484375 18.828125 43.109375 
Q 14.796875 37.75 14.796875 27.984375 
Q 14.796875 18.265625 18.828125 12.890625 
Q 22.859375 7.515625 30.078125 7.515625 
Q 37.359375 7.515625 41.375 12.890625 
Q 45.40625 18.265625 45.40625 27.984375 
z
M 54.390625 6.78125 
Q 54.390625 -7.171875 48.1875 -13.984375 
Q 42 -20.796875 29.203125 -20.796875 
Q 24.46875 -20.796875 20.265625 -20.09375 
Q 16.0625 -19.390625 12.109375 -17.921875 
L 12.109375 -9.1875 
Q 16.0625 -11.328125 19.921875 -12.34375 
Q 23.78125 -13.375 27.78125 -13.375 
Q 36.625 -13.375 41.015625 -8.765625 
Q 45.40625 -4.15625 45.40625 5.171875 
L 45.40625 9.625 
Q 42.625 4.78125 38.28125 2.390625 
Q 33.9375 0 27.875 0 
Q 17.828125 0 11.671875 7.65625 
Q 5.515625 15.328125 5.515625 27.984375 
Q 5.515625 40.671875 11.671875 48.328125 
Q 17.828125 56 27.875 56 
Q 33.9375 56 38.28125 53.609375 
Q 42.625 51.21875 45.40625 46.390625 
L 45.40625 54.6875 
L 54.390625 54.6875 
z
" id="DejaVuSans-103"/>
       <path d="M 54.890625 33.015625 
L 54.890625 0 
L 45.90625 0 
L 45.90625 32.71875 
Q 45.90625 40.484375 42.875 44.328125 
Q 39.84375 48.1875 33.796875 48.1875 
Q 26.515625 48.1875 22.3125 43.546875 
Q 18.109375 38.921875 18.109375 30.90625 
L 18.109375 0 
L 9.078125 0 
L 9.078125 75.984375 
L 18.109375 75.984375 
L 18.109375 46.1875 
Q 21.34375 51.125 25.703125 53.5625 
Q 30.078125 56 35.796875 56 
Q 45.21875 56 50.046875 50.171875 
Q 54.890625 44.34375 54.890625 33.015625 
z
" id="DejaVuSans-104"/>
       <path d="M 18.3125 70.21875 
L 18.3125 54.6875 
L 36.8125 54.6875 
L 36.8125 47.703125 
L 18.3125 47.703125 
L 18.3125 18.015625 
Q 18.3125 11.328125 20.140625 9.421875 
Q 21.96875 7.515625 27.59375 7.515625 
L 36.8125 7.515625 
L 36.8125 0 
L 27.59375 0 
Q 17.1875 0 13.234375 3.875 
Q 9.28125 7.765625 9.28125 18.015625 
L 9.28125 47.703125 
L 2.6875 47.703125 
L 2.6875 54.6875 
L 9.28125 54.6875 
L 9.28125 70.21875 
z
" id="DejaVuSans-116"/>
       <path d="M 44.28125 53.078125 
L 44.28125 44.578125 
Q 40.484375 46.53125 36.375 47.5 
Q 32.28125 48.484375 27.875 48.484375 
Q 21.1875 48.484375 17.84375 46.4375 
Q 14.5 44.390625 14.5 40.28125 
Q 14.5 37.15625 16.890625 35.375 
Q 19.28125 33.59375 26.515625 31.984375 
L 29.59375 31.296875 
Q 39.15625 29.25 43.1875 25.515625 
Q 47.21875 21.78125 47.21875 15.09375 
Q 47.21875 7.46875 41.1875 3.015625 
Q 35.15625 -1.421875 24.609375 -1.421875 
Q 20.21875 -1.421875 15.453125 -0.5625 
Q 10.6875 0.296875 5.421875 2 
L 5.421875 11.28125 
Q 10.40625 8.6875 15.234375 7.390625 
Q 20.0625 6.109375 24.8125 6.109375 
Q 31.15625 6.109375 34.5625 8.28125 
Q 37.984375 10.453125 37.984375 14.40625 
Q 37.984375 18.0625 35.515625 20.015625 
Q 33.0625 21.96875 24.703125 23.78125 
L 21.578125 24.515625 
Q 13.234375 26.265625 9.515625 29.90625 
Q 5.8125 33.546875 5.8125 39.890625 
Q 5.8125 47.609375 11.28125 51.796875 
Q 16.75 56 26.8125 56 
Q 31.78125 56 36.171875 55.265625 
Q 40.578125 54.546875 44.28125 53.078125 
z
" id="DejaVuSans-115"/>
       <path d="M 56.203125 29.59375 
L 56.203125 25.203125 
L 14.890625 25.203125 
Q 15.484375 15.921875 20.484375 11.0625 
Q 25.484375 6.203125 34.421875 6.203125 
Q 39.59375 6.203125 44.453125 7.46875 
Q 49.3125 8.734375 54.109375 11.28125 
L 54.109375 2.78125 
Q 49.265625 0.734375 44.1875 -0.34375 
Q 39.109375 -1.421875 33.890625 -1.421875 
Q 20.796875 -1.421875 13.15625 6.1875 
Q 5.515625 13.8125 5.515625 26.8125 
Q 5.515625 40.234375 12.765625 48.109375 
Q 20.015625 56 32.328125 56 
Q 43.359375 56 49.78125 48.890625 
Q 56.203125 41.796875 56.203125 29.59375 
z
M 47.21875 32.234375 
Q 47.125 39.59375 43.09375 43.984375 
Q 39.0625 48.390625 32.421875 48.390625 
Q 24.90625 48.390625 20.390625 44.140625 
Q 15.875 39.890625 15.1875 32.171875 
z
" id="DejaVuSans-101"/>
       <path d="M 54.890625 54.6875 
L 35.109375 28.078125 
L 55.90625 0 
L 45.3125 0 
L 29.390625 21.484375 
L 13.484375 0 
L 2.875 0 
L 24.125 28.609375 
L 4.6875 54.6875 
L 15.28125 54.6875 
L 29.78125 35.203125 
L 44.28125 54.6875 
z
" id="DejaVuSans-120"/>
       <path d="M 52 44.1875 
Q 55.375 50.25 60.0625 53.125 
Q 64.75 56 71.09375 56 
Q 79.640625 56 84.28125 50.015625 
Q 88.921875 44.046875 88.921875 33.015625 
L 88.921875 0 
L 79.890625 0 
L 79.890625 32.71875 
Q 79.890625 40.578125 77.09375 44.375 
Q 74.3125 48.1875 68.609375 48.1875 
Q 61.625 48.1875 57.5625 43.546875 
Q 53.515625 38.921875 53.515625 30.90625 
L 53.515625 0 
L 44.484375 0 
L 44.484375 32.71875 
Q 44.484375 40.625 41.703125 44.40625 
Q 38.921875 48.1875 33.109375 48.1875 
Q 26.21875 48.1875 22.15625 43.53125 
Q 18.109375 38.875 18.109375 30.90625 
L 18.109375 0 
L 9.078125 0 
L 9.078125 54.6875 
L 18.109375 54.6875 
L 18.109375 46.1875 
Q 21.1875 51.21875 25.484375 53.609375 
Q 29.78125 56 35.6875 56 
Q 41.65625 56 45.828125 52.96875 
Q 50 49.953125 52 44.1875 
z
" id="DejaVuSans-109"/>
      </defs>
      <g transform="translate(203.542187 240.439151)scale(0.1 -0.1)">
       <use xlink:href="#DejaVuSans-80"/>
       <use x="60.287109" xlink:href="#DejaVuSans-114"/>
       <use x="101.369141" xlink:href="#DejaVuSans-111"/>
       <use x="162.566406" xlink:href="#DejaVuSans-45"/>
       <use x="198.650391" xlink:href="#DejaVuSans-76"/>
       <use x="254.363281" xlink:href="#DejaVuSans-71"/>
       <use x="331.853516" xlink:href="#DejaVuSans-66"/>
       <use x="400.457031" xlink:href="#DejaVuSans-84"/>
       <use x="461.541016" xlink:href="#DejaVuSans-32"/>
       <use x="493.328125" xlink:href="#DejaVuSans-82"/>
       <use x="562.810547" xlink:href="#DejaVuSans-105"/>
       <use x="590.59375" xlink:href="#DejaVuSans-103"/>
       <use x="654.070312" xlink:href="#DejaVuSans-104"/>
       <use x="717.449219" xlink:href="#DejaVuSans-116"/>
       <use x="756.658203" xlink:href="#DejaVuSans-115"/>
       <use x="808.757812" xlink:href="#DejaVuSans-32"/>
       <use x="840.544922" xlink:href="#DejaVuSans-101"/>
       <use x="902.052734" xlink:href="#DejaVuSans-120"/>
       <use x="961.232422" xlink:href="#DejaVuSans-116"/>
       <use x="1000.441406" xlink:href="#DejaVuSans-114"/>
       <use x="1041.523438" xlink:href="#DejaVuSans-101"/>
       <use x="1103.046875" xlink:href="#DejaVuSans-109"/>
       <use x="1200.458984" xlink:href="#DejaVuSans-105"/>
       <use x="1228.242188" xlink:href="#DejaVuSans-115"/>
       <use x="1280.341797" xlink:href="#DejaVuSans-116"/>
       <use x="1319.550781" xlink:href="#DejaVuSans-115"/>
      </g>
     </g>
    </g>
    <g id="ytick_2">
     <g id="line2d_15">
      <path clip-path="url(#pc198cbd4ce)" d="M 344.203125 226.756295 
L 720.043125 226.756295 
" style="fill:none;stroke:#cbcbcb;"/>
     </g>
     <g id="line2d_16"/>
     <g id="text_8">
      <!-- Court Reform extremists -->
      <defs>
       <path d="M 64.40625 67.28125 
L 64.40625 56.890625 
Q 59.421875 61.53125 53.78125 63.8125 
Q 48.140625 66.109375 41.796875 66.109375 
Q 29.296875 66.109375 22.65625 58.46875 
Q 16.015625 50.828125 16.015625 36.375 
Q 16.015625 21.96875 22.65625 14.328125 
Q 29.296875 6.6875 41.796875 6.6875 
Q 48.140625 6.6875 53.78125 8.984375 
Q 59.421875 11.28125 64.40625 15.921875 
L 64.40625 5.609375 
Q 59.234375 2.09375 53.4375 0.328125 
Q 47.65625 -1.421875 41.21875 -1.421875 
Q 24.65625 -1.421875 15.125 8.703125 
Q 5.609375 18.84375 5.609375 36.375 
Q 5.609375 53.953125 15.125 64.078125 
Q 24.65625 74.21875 41.21875 74.21875 
Q 47.75 74.21875 53.53125 72.484375 
Q 59.328125 70.75 64.40625 67.28125 
z
" id="DejaVuSans-67"/>
       <path d="M 8.5 21.578125 
L 8.5 54.6875 
L 17.484375 54.6875 
L 17.484375 21.921875 
Q 17.484375 14.15625 20.5 10.265625 
Q 23.53125 6.390625 29.59375 6.390625 
Q 36.859375 6.390625 41.078125 11.03125 
Q 45.3125 15.671875 45.3125 23.6875 
L 45.3125 54.6875 
L 54.296875 54.6875 
L 54.296875 0 
L 45.3125 0 
L 45.3125 8.40625 
Q 42.046875 3.421875 37.71875 1 
Q 33.40625 -1.421875 27.6875 -1.421875 
Q 18.265625 -1.421875 13.375 4.4375 
Q 8.5 10.296875 8.5 21.578125 
z
M 31.109375 56 
z
" id="DejaVuSans-117"/>
       <path d="M 37.109375 75.984375 
L 37.109375 68.5 
L 28.515625 68.5 
Q 23.6875 68.5 21.796875 66.546875 
Q 19.921875 64.59375 19.921875 59.515625 
L 19.921875 54.6875 
L 34.71875 54.6875 
L 34.71875 47.703125 
L 19.921875 47.703125 
L 19.921875 0 
L 10.890625 0 
L 10.890625 47.703125 
L 2.296875 47.703125 
L 2.296875 54.6875 
L 10.890625 54.6875 
L 10.890625 58.5 
Q 10.890625 67.625 15.140625 71.796875 
Q 19.390625 75.984375 28.609375 75.984375 
z
" id="DejaVuSans-102"/>
      </defs>
      <g transform="translate(217.182812 230.555514)scale(0.1 -0.1)">
       <use xlink:href="#DejaVuSans-67"/>
       <use x="69.824219" xlink:href="#DejaVuSans-111"/>
       <use x="131.005859" xlink:href="#DejaVuSans-117"/>
       <use x="194.384766" xlink:href="#DejaVuSans-114"/>
       <use x="235.498047" xlink:href="#DejaVuSans-116"/>
       <use x="274.707031" xlink:href="#DejaVuSans-32"/>
       <use x="306.494141" xlink:href="#DejaVuSans-82"/>
       <use x="375.914062" xlink:href="#DejaVuSans-101"/>
       <use x="437.4375" xlink:href="#DejaVuSans-102"/>
       <use x="472.642578" xlink:href="#DejaVuSans-111"/>
       <use x="533.824219" xlink:href="#DejaVuSans-114"/>
       <use x="574.921875" xlink:href="#DejaVuSans-109"/>
       <use x="672.333984" xlink:href="#DejaVuSans-32"/>
       <use x="704.121094" xlink:href="#DejaVuSans-101"/>
       <use x="765.628906" xlink:href="#DejaVuSans-120"/>
       <use x="824.808594" xlink:href="#DejaVuSans-116"/>
       <use x="864.017578" xlink:href="#DejaVuSans-114"/>
       <use x="905.099609" xlink:href="#DejaVuSans-101"/>
       <use x="966.623047" xlink:href="#DejaVuSans-109"/>
       <use x="1064.035156" xlink:href="#DejaVuSans-105"/>
       <use x="1091.818359" xlink:href="#DejaVuSans-115"/>
       <use x="1143.917969" xlink:href="#DejaVuSans-116"/>
       <use x="1183.126953" xlink:href="#DejaVuSans-115"/>
      </g>
     </g>
    </g>
    <g id="ytick_3">
     <g id="line2d_17">
      <path clip-path="url(#pc198cbd4ce)" d="M 344.203125 216.872659 
L 720.043125 216.872659 
" style="fill:none;stroke:#cbcbcb;"/>
     </g>
     <g id="line2d_18"/>
     <g id="text_9">
      <!-- Anti-Trump extremists -->
      <defs>
       <path d="M 34.1875 63.1875 
L 20.796875 26.90625 
L 47.609375 26.90625 
z
M 28.609375 72.90625 
L 39.796875 72.90625 
L 67.578125 0 
L 57.328125 0 
L 50.6875 18.703125 
L 17.828125 18.703125 
L 11.1875 0 
L 0.78125 0 
z
" id="DejaVuSans-65"/>
       <path d="M 54.890625 33.015625 
L 54.890625 0 
L 45.90625 0 
L 45.90625 32.71875 
Q 45.90625 40.484375 42.875 44.328125 
Q 39.84375 48.1875 33.796875 48.1875 
Q 26.515625 48.1875 22.3125 43.546875 
Q 18.109375 38.921875 18.109375 30.90625 
L 18.109375 0 
L 9.078125 0 
L 9.078125 54.6875 
L 18.109375 54.6875 
L 18.109375 46.1875 
Q 21.34375 51.125 25.703125 53.5625 
Q 30.078125 56 35.796875 56 
Q 45.21875 56 50.046875 50.171875 
Q 54.890625 44.34375 54.890625 33.015625 
z
" id="DejaVuSans-110"/>
       <path d="M 18.109375 8.203125 
L 18.109375 -20.796875 
L 9.078125 -20.796875 
L 9.078125 54.6875 
L 18.109375 54.6875 
L 18.109375 46.390625 
Q 20.953125 51.265625 25.265625 53.625 
Q 29.59375 56 35.59375 56 
Q 45.5625 56 51.78125 48.09375 
Q 58.015625 40.1875 58.015625 27.296875 
Q 58.015625 14.40625 51.78125 6.484375 
Q 45.5625 -1.421875 35.59375 -1.421875 
Q 29.59375 -1.421875 25.265625 0.953125 
Q 20.953125 3.328125 18.109375 8.203125 
z
M 48.6875 27.296875 
Q 48.6875 37.203125 44.609375 42.84375 
Q 40.53125 48.484375 33.40625 48.484375 
Q 26.265625 48.484375 22.1875 42.84375 
Q 18.109375 37.203125 18.109375 27.296875 
Q 18.109375 17.390625 22.1875 11.75 
Q 26.265625 6.109375 33.40625 6.109375 
Q 40.53125 6.109375 44.609375 11.75 
Q 48.6875 17.390625 48.6875 27.296875 
z
" id="DejaVuSans-112"/>
      </defs>
      <g transform="translate(228.321875 220.671878)scale(0.1 -0.1)">
       <use xlink:href="#DejaVuSans-65"/>
       <use x="68.408203" xlink:href="#DejaVuSans-110"/>
       <use x="131.787109" xlink:href="#DejaVuSans-116"/>
       <use x="170.996094" xlink:href="#DejaVuSans-105"/>
       <use x="198.779297" xlink:href="#DejaVuSans-45"/>
       <use x="234.722656" xlink:href="#DejaVuSans-84"/>
       <use x="295.587891" xlink:href="#DejaVuSans-114"/>
       <use x="336.701172" xlink:href="#DejaVuSans-117"/>
       <use x="400.080078" xlink:href="#DejaVuSans-109"/>
       <use x="497.492188" xlink:href="#DejaVuSans-112"/>
       <use x="560.96875" xlink:href="#DejaVuSans-32"/>
       <use x="592.755859" xlink:href="#DejaVuSans-101"/>
       <use x="654.263672" xlink:href="#DejaVuSans-120"/>
       <use x="713.443359" xlink:href="#DejaVuSans-116"/>
       <use x="752.652344" xlink:href="#DejaVuSans-114"/>
       <use x="793.734375" xlink:href="#DejaVuSans-101"/>
       <use x="855.257812" xlink:href="#DejaVuSans-109"/>
       <use x="952.669922" xlink:href="#DejaVuSans-105"/>
       <use x="980.453125" xlink:href="#DejaVuSans-115"/>
       <use x="1032.552734" xlink:href="#DejaVuSans-116"/>
       <use x="1071.761719" xlink:href="#DejaVuSans-115"/>
      </g>
     </g>
    </g>
    <g id="ytick_4">
     <g id="line2d_19">
      <path clip-path="url(#pc198cbd4ce)" d="M 344.203125 206.989023 
L 720.043125 206.989023 
" style="fill:none;stroke:#cbcbcb;"/>
     </g>
     <g id="line2d_20"/>
     <g id="text_10">
      <!-- Citizens for Constitutional Freedom -->
      <defs>
       <path d="M 5.515625 54.6875 
L 48.1875 54.6875 
L 48.1875 46.484375 
L 14.40625 7.171875 
L 48.1875 7.171875 
L 48.1875 0 
L 4.296875 0 
L 4.296875 8.203125 
L 38.09375 47.515625 
L 5.515625 47.515625 
z
" id="DejaVuSans-122"/>
       <path d="M 34.28125 27.484375 
Q 23.390625 27.484375 19.1875 25 
Q 14.984375 22.515625 14.984375 16.5 
Q 14.984375 11.71875 18.140625 8.90625 
Q 21.296875 6.109375 26.703125 6.109375 
Q 34.1875 6.109375 38.703125 11.40625 
Q 43.21875 16.703125 43.21875 25.484375 
L 43.21875 27.484375 
z
M 52.203125 31.203125 
L 52.203125 0 
L 43.21875 0 
L 43.21875 8.296875 
Q 40.140625 3.328125 35.546875 0.953125 
Q 30.953125 -1.421875 24.3125 -1.421875 
Q 15.921875 -1.421875 10.953125 3.296875 
Q 6 8.015625 6 15.921875 
Q 6 25.140625 12.171875 29.828125 
Q 18.359375 34.515625 30.609375 34.515625 
L 43.21875 34.515625 
L 43.21875 35.40625 
Q 43.21875 41.609375 39.140625 45 
Q 35.0625 48.390625 27.6875 48.390625 
Q 23 48.390625 18.546875 47.265625 
Q 14.109375 46.140625 10.015625 43.890625 
L 10.015625 52.203125 
Q 14.9375 54.109375 19.578125 55.046875 
Q 24.21875 56 28.609375 56 
Q 40.484375 56 46.34375 49.84375 
Q 52.203125 43.703125 52.203125 31.203125 
z
" id="DejaVuSans-97"/>
       <path d="M 9.421875 75.984375 
L 18.40625 75.984375 
L 18.40625 0 
L 9.421875 0 
z
" id="DejaVuSans-108"/>
       <path d="M 9.8125 72.90625 
L 51.703125 72.90625 
L 51.703125 64.59375 
L 19.671875 64.59375 
L 19.671875 43.109375 
L 48.578125 43.109375 
L 48.578125 34.8125 
L 19.671875 34.8125 
L 19.671875 0 
L 9.8125 0 
z
" id="DejaVuSans-70"/>
       <path d="M 45.40625 46.390625 
L 45.40625 75.984375 
L 54.390625 75.984375 
L 54.390625 0 
L 45.40625 0 
L 45.40625 8.203125 
Q 42.578125 3.328125 38.25 0.953125 
Q 33.9375 -1.421875 27.875 -1.421875 
Q 17.96875 -1.421875 11.734375 6.484375 
Q 5.515625 14.40625 5.515625 27.296875 
Q 5.515625 40.1875 11.734375 48.09375 
Q 17.96875 56 27.875 56 
Q 33.9375 56 38.25 53.625 
Q 42.578125 51.265625 45.40625 46.390625 
z
M 14.796875 27.296875 
Q 14.796875 17.390625 18.875 11.75 
Q 22.953125 6.109375 30.078125 6.109375 
Q 37.203125 6.109375 41.296875 11.75 
Q 45.40625 17.390625 45.40625 27.296875 
Q 45.40625 37.203125 41.296875 42.84375 
Q 37.203125 48.484375 30.078125 48.484375 
Q 22.953125 48.484375 18.875 42.84375 
Q 14.796875 37.203125 14.796875 27.296875 
z
" id="DejaVuSans-100"/>
      </defs>
      <g transform="translate(163.982812 210.788241)scale(0.1 -0.1)">
       <use xlink:href="#DejaVuSans-67"/>
       <use x="69.824219" xlink:href="#DejaVuSans-105"/>
       <use x="97.607422" xlink:href="#DejaVuSans-116"/>
       <use x="136.816406" xlink:href="#DejaVuSans-105"/>
       <use x="164.599609" xlink:href="#DejaVuSans-122"/>
       <use x="217.089844" xlink:href="#DejaVuSans-101"/>
       <use x="278.613281" xlink:href="#DejaVuSans-110"/>
       <use x="341.992188" xlink:href="#DejaVuSans-115"/>
       <use x="394.091797" xlink:href="#DejaVuSans-32"/>
       <use x="425.878906" xlink:href="#DejaVuSans-102"/>
       <use x="461.083984" xlink:href="#DejaVuSans-111"/>
       <use x="522.265625" xlink:href="#DejaVuSans-114"/>
       <use x="563.378906" xlink:href="#DejaVuSans-32"/>
       <use x="595.166016" xlink:href="#DejaVuSans-67"/>
       <use x="664.990234" xlink:href="#DejaVuSans-111"/>
       <use x="726.171875" xlink:href="#DejaVuSans-110"/>
       <use x="789.550781" xlink:href="#DejaVuSans-115"/>
       <use x="841.650391" xlink:href="#DejaVuSans-116"/>
       <use x="880.859375" xlink:href="#DejaVuSans-105"/>
       <use x="908.642578" xlink:href="#DejaVuSans-116"/>
       <use x="947.851562" xlink:href="#DejaVuSans-117"/>
       <use x="1011.230469" xlink:href="#DejaVuSans-116"/>
       <use x="1050.439453" xlink:href="#DejaVuSans-105"/>
       <use x="1078.222656" xlink:href="#DejaVuSans-111"/>
       <use x="1139.404297" xlink:href="#DejaVuSans-110"/>
       <use x="1202.783203" xlink:href="#DejaVuSans-97"/>
       <use x="1264.0625" xlink:href="#DejaVuSans-108"/>
       <use x="1291.845703" xlink:href="#DejaVuSans-32"/>
       <use x="1323.632812" xlink:href="#DejaVuSans-70"/>
       <use x="1381.042969" xlink:href="#DejaVuSans-114"/>
       <use x="1422.125" xlink:href="#DejaVuSans-101"/>
       <use x="1483.648438" xlink:href="#DejaVuSans-101"/>
       <use x="1545.171875" xlink:href="#DejaVuSans-100"/>
       <use x="1608.648438" xlink:href="#DejaVuSans-111"/>
       <use x="1669.830078" xlink:href="#DejaVuSans-109"/>
      </g>
     </g>
    </g>
    <g id="ytick_5">
     <g id="line2d_21">
      <path clip-path="url(#pc198cbd4ce)" d="M 344.203125 197.105386 
L 720.043125 197.105386 
" style="fill:none;stroke:#cbcbcb;"/>
     </g>
     <g id="line2d_22"/>
     <g id="text_11">
      <!-- Neo-Nazi extremists -->
      <defs>
       <path d="M 9.8125 72.90625 
L 23.09375 72.90625 
L 55.421875 11.921875 
L 55.421875 72.90625 
L 64.984375 72.90625 
L 64.984375 0 
L 51.703125 0 
L 19.390625 60.984375 
L 19.390625 0 
L 9.8125 0 
z
" id="DejaVuSans-78"/>
      </defs>
      <g transform="translate(239.417187 200.904605)scale(0.1 -0.1)">
       <use xlink:href="#DejaVuSans-78"/>
       <use x="74.804688" xlink:href="#DejaVuSans-101"/>
       <use x="136.328125" xlink:href="#DejaVuSans-111"/>
       <use x="197.525391" xlink:href="#DejaVuSans-45"/>
       <use x="233.609375" xlink:href="#DejaVuSans-78"/>
       <use x="308.414062" xlink:href="#DejaVuSans-97"/>
       <use x="369.693359" xlink:href="#DejaVuSans-122"/>
       <use x="422.183594" xlink:href="#DejaVuSans-105"/>
       <use x="449.966797" xlink:href="#DejaVuSans-32"/>
       <use x="481.753906" xlink:href="#DejaVuSans-101"/>
       <use x="543.261719" xlink:href="#DejaVuSans-120"/>
       <use x="602.441406" xlink:href="#DejaVuSans-116"/>
       <use x="641.650391" xlink:href="#DejaVuSans-114"/>
       <use x="682.732422" xlink:href="#DejaVuSans-101"/>
       <use x="744.255859" xlink:href="#DejaVuSans-109"/>
       <use x="841.667969" xlink:href="#DejaVuSans-105"/>
       <use x="869.451172" xlink:href="#DejaVuSans-115"/>
       <use x="921.550781" xlink:href="#DejaVuSans-116"/>
       <use x="960.759766" xlink:href="#DejaVuSans-115"/>
      </g>
     </g>
    </g>
    <g id="ytick_6">
     <g id="line2d_23">
      <path clip-path="url(#pc198cbd4ce)" d="M 344.203125 187.22175 
L 720.043125 187.22175 
" style="fill:none;stroke:#cbcbcb;"/>
     </g>
     <g id="line2d_24"/>
     <g id="text_12">
      <!-- Anti-Republican extremists -->
      <defs>
       <path d="M 48.6875 27.296875 
Q 48.6875 37.203125 44.609375 42.84375 
Q 40.53125 48.484375 33.40625 48.484375 
Q 26.265625 48.484375 22.1875 42.84375 
Q 18.109375 37.203125 18.109375 27.296875 
Q 18.109375 17.390625 22.1875 11.75 
Q 26.265625 6.109375 33.40625 6.109375 
Q 40.53125 6.109375 44.609375 11.75 
Q 48.6875 17.390625 48.6875 27.296875 
z
M 18.109375 46.390625 
Q 20.953125 51.265625 25.265625 53.625 
Q 29.59375 56 35.59375 56 
Q 45.5625 56 51.78125 48.09375 
Q 58.015625 40.1875 58.015625 27.296875 
Q 58.015625 14.40625 51.78125 6.484375 
Q 45.5625 -1.421875 35.59375 -1.421875 
Q 29.59375 -1.421875 25.265625 0.953125 
Q 20.953125 3.328125 18.109375 8.203125 
L 18.109375 0 
L 9.078125 0 
L 9.078125 75.984375 
L 18.109375 75.984375 
z
" id="DejaVuSans-98"/>
       <path d="M 48.78125 52.59375 
L 48.78125 44.1875 
Q 44.96875 46.296875 41.140625 47.34375 
Q 37.3125 48.390625 33.40625 48.390625 
Q 24.65625 48.390625 19.8125 42.84375 
Q 14.984375 37.3125 14.984375 27.296875 
Q 14.984375 17.28125 19.8125 11.734375 
Q 24.65625 6.203125 33.40625 6.203125 
Q 37.3125 6.203125 41.140625 7.25 
Q 44.96875 8.296875 48.78125 10.40625 
L 48.78125 2.09375 
Q 45.015625 0.34375 40.984375 -0.53125 
Q 36.96875 -1.421875 32.421875 -1.421875 
Q 20.0625 -1.421875 12.78125 6.34375 
Q 5.515625 14.109375 5.515625 27.296875 
Q 5.515625 40.671875 12.859375 48.328125 
Q 20.21875 56 33.015625 56 
Q 37.15625 56 41.109375 55.140625 
Q 45.0625 54.296875 48.78125 52.59375 
z
" id="DejaVuSans-99"/>
      </defs>
      <g transform="translate(205.28125 191.020969)scale(0.1 -0.1)">
       <use xlink:href="#DejaVuSans-65"/>
       <use x="68.408203" xlink:href="#DejaVuSans-110"/>
       <use x="131.787109" xlink:href="#DejaVuSans-116"/>
       <use x="170.996094" xlink:href="#DejaVuSans-105"/>
       <use x="198.779297" xlink:href="#DejaVuSans-45"/>
       <use x="234.863281" xlink:href="#DejaVuSans-82"/>
       <use x="304.283203" xlink:href="#DejaVuSans-101"/>
       <use x="365.806641" xlink:href="#DejaVuSans-112"/>
       <use x="429.283203" xlink:href="#DejaVuSans-117"/>
       <use x="492.662109" xlink:href="#DejaVuSans-98"/>
       <use x="556.138672" xlink:href="#DejaVuSans-108"/>
       <use x="583.921875" xlink:href="#DejaVuSans-105"/>
       <use x="611.705078" xlink:href="#DejaVuSans-99"/>
       <use x="666.685547" xlink:href="#DejaVuSans-97"/>
       <use x="727.964844" xlink:href="#DejaVuSans-110"/>
       <use x="791.34375" xlink:href="#DejaVuSans-32"/>
       <use x="823.130859" xlink:href="#DejaVuSans-101"/>
       <use x="884.638672" xlink:href="#DejaVuSans-120"/>
       <use x="943.818359" xlink:href="#DejaVuSans-116"/>
       <use x="983.027344" xlink:href="#DejaVuSans-114"/>
       <use x="1024.109375" xlink:href="#DejaVuSans-101"/>
       <use x="1085.632812" xlink:href="#DejaVuSans-109"/>
       <use x="1183.044922" xlink:href="#DejaVuSans-105"/>
       <use x="1210.828125" xlink:href="#DejaVuSans-115"/>
       <use x="1262.927734" xlink:href="#DejaVuSans-116"/>
       <use x="1302.136719" xlink:href="#DejaVuSans-115"/>
      </g>
     </g>
    </g>
    <g id="ytick_7">
     <g id="line2d_25">
      <path clip-path="url(#pc198cbd4ce)" d="M 344.203125 177.338114 
L 720.043125 177.338114 
" style="fill:none;stroke:#cbcbcb;"/>
     </g>
     <g id="line2d_26"/>
     <g id="text_13">
      <!-- Right-wing extremists -->
      <defs>
       <path d="M 4.203125 54.6875 
L 13.1875 54.6875 
L 24.421875 12.015625 
L 35.59375 54.6875 
L 46.1875 54.6875 
L 57.421875 12.015625 
L 68.609375 54.6875 
L 77.59375 54.6875 
L 63.28125 0 
L 52.6875 0 
L 40.921875 44.828125 
L 29.109375 0 
L 18.5 0 
z
" id="DejaVuSans-119"/>
      </defs>
      <g transform="translate(230.832812 181.137332)scale(0.1 -0.1)">
       <use xlink:href="#DejaVuSans-82"/>
       <use x="69.482422" xlink:href="#DejaVuSans-105"/>
       <use x="97.265625" xlink:href="#DejaVuSans-103"/>
       <use x="160.742188" xlink:href="#DejaVuSans-104"/>
       <use x="224.121094" xlink:href="#DejaVuSans-116"/>
       <use x="263.330078" xlink:href="#DejaVuSans-45"/>
       <use x="299.414062" xlink:href="#DejaVuSans-119"/>
       <use x="381.201172" xlink:href="#DejaVuSans-105"/>
       <use x="408.984375" xlink:href="#DejaVuSans-110"/>
       <use x="472.363281" xlink:href="#DejaVuSans-103"/>
       <use x="535.839844" xlink:href="#DejaVuSans-32"/>
       <use x="567.626953" xlink:href="#DejaVuSans-101"/>
       <use x="629.134766" xlink:href="#DejaVuSans-120"/>
       <use x="688.314453" xlink:href="#DejaVuSans-116"/>
       <use x="727.523438" xlink:href="#DejaVuSans-114"/>
       <use x="768.605469" xlink:href="#DejaVuSans-101"/>
       <use x="830.128906" xlink:href="#DejaVuSans-109"/>
       <use x="927.541016" xlink:href="#DejaVuSans-105"/>
       <use x="955.324219" xlink:href="#DejaVuSans-115"/>
       <use x="1007.423828" xlink:href="#DejaVuSans-116"/>
       <use x="1046.632812" xlink:href="#DejaVuSans-115"/>
      </g>
     </g>
    </g>
    <g id="ytick_8">
     <g id="line2d_27">
      <path clip-path="url(#pc198cbd4ce)" d="M 344.203125 167.454477 
L 720.043125 167.454477 
" style="fill:none;stroke:#cbcbcb;"/>
     </g>
     <g id="line2d_28"/>
     <g id="text_14">
      <!-- Anti-Arab extremists -->
      <g transform="translate(237.50625 171.253696)scale(0.1 -0.1)">
       <use xlink:href="#DejaVuSans-65"/>
       <use x="68.408203" xlink:href="#DejaVuSans-110"/>
       <use x="131.787109" xlink:href="#DejaVuSans-116"/>
       <use x="170.996094" xlink:href="#DejaVuSans-105"/>
       <use x="198.779297" xlink:href="#DejaVuSans-45"/>
       <use x="234.832031" xlink:href="#DejaVuSans-65"/>
       <use x="303.240234" xlink:href="#DejaVuSans-114"/>
       <use x="344.353516" xlink:href="#DejaVuSans-97"/>
       <use x="405.632812" xlink:href="#DejaVuSans-98"/>
       <use x="469.109375" xlink:href="#DejaVuSans-32"/>
       <use x="500.896484" xlink:href="#DejaVuSans-101"/>
       <use x="562.404297" xlink:href="#DejaVuSans-120"/>
       <use x="621.583984" xlink:href="#DejaVuSans-116"/>
       <use x="660.792969" xlink:href="#DejaVuSans-114"/>
       <use x="701.875" xlink:href="#DejaVuSans-101"/>
       <use x="763.398438" xlink:href="#DejaVuSans-109"/>
       <use x="860.810547" xlink:href="#DejaVuSans-105"/>
       <use x="888.59375" xlink:href="#DejaVuSans-115"/>
       <use x="940.693359" xlink:href="#DejaVuSans-116"/>
       <use x="979.902344" xlink:href="#DejaVuSans-115"/>
      </g>
     </g>
    </g>
    <g id="ytick_9">
     <g id="line2d_29">
      <path clip-path="url(#pc198cbd4ce)" d="M 344.203125 157.570841 
L 720.043125 157.570841 
" style="fill:none;stroke:#cbcbcb;"/>
     </g>
     <g id="line2d_30"/>
     <g id="text_15">
      <!-- Anti-Government extremists -->
      <defs>
       <path d="M 2.984375 54.6875 
L 12.5 54.6875 
L 29.59375 8.796875 
L 46.6875 54.6875 
L 56.203125 54.6875 
L 35.6875 0 
L 23.484375 0 
z
" id="DejaVuSans-118"/>
      </defs>
      <g transform="translate(198.389062 161.37006)scale(0.1 -0.1)">
       <use xlink:href="#DejaVuSans-65"/>
       <use x="68.408203" xlink:href="#DejaVuSans-110"/>
       <use x="131.787109" xlink:href="#DejaVuSans-116"/>
       <use x="170.996094" xlink:href="#DejaVuSans-105"/>
       <use x="198.779297" xlink:href="#DejaVuSans-45"/>
       <use x="234.910156" xlink:href="#DejaVuSans-71"/>
       <use x="312.400391" xlink:href="#DejaVuSans-111"/>
       <use x="373.582031" xlink:href="#DejaVuSans-118"/>
       <use x="432.761719" xlink:href="#DejaVuSans-101"/>
       <use x="494.285156" xlink:href="#DejaVuSans-114"/>
       <use x="535.382812" xlink:href="#DejaVuSans-110"/>
       <use x="598.761719" xlink:href="#DejaVuSans-109"/>
       <use x="696.173828" xlink:href="#DejaVuSans-101"/>
       <use x="757.697266" xlink:href="#DejaVuSans-110"/>
       <use x="821.076172" xlink:href="#DejaVuSans-116"/>
       <use x="860.285156" xlink:href="#DejaVuSans-32"/>
       <use x="892.072266" xlink:href="#DejaVuSans-101"/>
       <use x="953.580078" xlink:href="#DejaVuSans-120"/>
       <use x="1012.759766" xlink:href="#DejaVuSans-116"/>
       <use x="1051.96875" xlink:href="#DejaVuSans-114"/>
       <use x="1093.050781" xlink:href="#DejaVuSans-101"/>
       <use x="1154.574219" xlink:href="#DejaVuSans-109"/>
       <use x="1251.986328" xlink:href="#DejaVuSans-105"/>
       <use x="1279.769531" xlink:href="#DejaVuSans-115"/>
       <use x="1331.869141" xlink:href="#DejaVuSans-116"/>
       <use x="1371.078125" xlink:href="#DejaVuSans-115"/>
      </g>
     </g>
    </g>
    <g id="ytick_10">
     <g id="line2d_31">
      <path clip-path="url(#pc198cbd4ce)" d="M 344.203125 147.687205 
L 720.043125 147.687205 
" style="fill:none;stroke:#cbcbcb;"/>
     </g>
     <g id="line2d_32"/>
     <g id="text_16">
      <!-- Anti-Semitic extremists -->
      <defs>
       <path d="M 53.515625 70.515625 
L 53.515625 60.890625 
Q 47.90625 63.578125 42.921875 64.890625 
Q 37.9375 66.21875 33.296875 66.21875 
Q 25.25 66.21875 20.875 63.09375 
Q 16.5 59.96875 16.5 54.203125 
Q 16.5 49.359375 19.40625 46.890625 
Q 22.3125 44.4375 30.421875 42.921875 
L 36.375 41.703125 
Q 47.40625 39.59375 52.65625 34.296875 
Q 57.90625 29 57.90625 20.125 
Q 57.90625 9.515625 50.796875 4.046875 
Q 43.703125 -1.421875 29.984375 -1.421875 
Q 24.8125 -1.421875 18.96875 -0.25 
Q 13.140625 0.921875 6.890625 3.21875 
L 6.890625 13.375 
Q 12.890625 10.015625 18.65625 8.296875 
Q 24.421875 6.59375 29.984375 6.59375 
Q 38.421875 6.59375 43.015625 9.90625 
Q 47.609375 13.234375 47.609375 19.390625 
Q 47.609375 24.75 44.3125 27.78125 
Q 41.015625 30.8125 33.5 32.328125 
L 27.484375 33.5 
Q 16.453125 35.6875 11.515625 40.375 
Q 6.59375 45.0625 6.59375 53.421875 
Q 6.59375 63.09375 13.40625 68.65625 
Q 20.21875 74.21875 32.171875 74.21875 
Q 37.3125 74.21875 42.625 73.28125 
Q 47.953125 72.359375 53.515625 70.515625 
z
" id="DejaVuSans-83"/>
      </defs>
      <g transform="translate(223.714062 151.486423)scale(0.1 -0.1)">
       <use xlink:href="#DejaVuSans-65"/>
       <use x="68.408203" xlink:href="#DejaVuSans-110"/>
       <use x="131.787109" xlink:href="#DejaVuSans-116"/>
       <use x="170.996094" xlink:href="#DejaVuSans-105"/>
       <use x="198.779297" xlink:href="#DejaVuSans-45"/>
       <use x="234.863281" xlink:href="#DejaVuSans-83"/>
       <use x="298.339844" xlink:href="#DejaVuSans-101"/>
       <use x="359.863281" xlink:href="#DejaVuSans-109"/>
       <use x="457.275391" xlink:href="#DejaVuSans-105"/>
       <use x="485.058594" xlink:href="#DejaVuSans-116"/>
       <use x="524.267578" xlink:href="#DejaVuSans-105"/>
       <use x="552.050781" xlink:href="#DejaVuSans-99"/>
       <use x="607.03125" xlink:href="#DejaVuSans-32"/>
       <use x="638.818359" xlink:href="#DejaVuSans-101"/>
       <use x="700.326172" xlink:href="#DejaVuSans-120"/>
       <use x="759.505859" xlink:href="#DejaVuSans-116"/>
       <use x="798.714844" xlink:href="#DejaVuSans-114"/>
       <use x="839.796875" xlink:href="#DejaVuSans-101"/>
       <use x="901.320312" xlink:href="#DejaVuSans-109"/>
       <use x="998.732422" xlink:href="#DejaVuSans-105"/>
       <use x="1026.515625" xlink:href="#DejaVuSans-115"/>
       <use x="1078.615234" xlink:href="#DejaVuSans-116"/>
       <use x="1117.824219" xlink:href="#DejaVuSans-115"/>
      </g>
     </g>
    </g>
    <g id="ytick_11">
     <g id="line2d_33">
      <path clip-path="url(#pc198cbd4ce)" d="M 344.203125 137.803568 
L 720.043125 137.803568 
" style="fill:none;stroke:#cbcbcb;"/>
     </g>
     <g id="line2d_34"/>
     <g id="text_17">
      <!-- White Rabbit Three Percent Illinois Patriot Freedom Fighters Militia -->
      <defs>
       <path d="M 3.328125 72.90625 
L 13.28125 72.90625 
L 28.609375 11.28125 
L 43.890625 72.90625 
L 54.984375 72.90625 
L 70.3125 11.28125 
L 85.59375 72.90625 
L 95.609375 72.90625 
L 77.296875 0 
L 64.890625 0 
L 49.515625 63.28125 
L 33.984375 0 
L 21.578125 0 
z
" id="DejaVuSans-87"/>
       <path d="M 9.8125 72.90625 
L 19.671875 72.90625 
L 19.671875 0 
L 9.8125 0 
z
" id="DejaVuSans-73"/>
       <path d="M 9.8125 72.90625 
L 24.515625 72.90625 
L 43.109375 23.296875 
L 61.8125 72.90625 
L 76.515625 72.90625 
L 76.515625 0 
L 66.890625 0 
L 66.890625 64.015625 
L 48.09375 14.015625 
L 38.1875 14.015625 
L 19.390625 64.015625 
L 19.390625 0 
L 9.8125 0 
z
" id="DejaVuSans-77"/>
      </defs>
      <g transform="translate(7.2 141.602787)scale(0.1 -0.1)">
       <use xlink:href="#DejaVuSans-87"/>
       <use x="98.876953" xlink:href="#DejaVuSans-104"/>
       <use x="162.255859" xlink:href="#DejaVuSans-105"/>
       <use x="190.039062" xlink:href="#DejaVuSans-116"/>
       <use x="229.248047" xlink:href="#DejaVuSans-101"/>
       <use x="290.771484" xlink:href="#DejaVuSans-32"/>
       <use x="322.558594" xlink:href="#DejaVuSans-82"/>
       <use x="392.009766" xlink:href="#DejaVuSans-97"/>
       <use x="453.289062" xlink:href="#DejaVuSans-98"/>
       <use x="516.765625" xlink:href="#DejaVuSans-98"/>
       <use x="580.242188" xlink:href="#DejaVuSans-105"/>
       <use x="608.025391" xlink:href="#DejaVuSans-116"/>
       <use x="647.234375" xlink:href="#DejaVuSans-32"/>
       <use x="679.021484" xlink:href="#DejaVuSans-84"/>
       <use x="740.105469" xlink:href="#DejaVuSans-104"/>
       <use x="803.484375" xlink:href="#DejaVuSans-114"/>
       <use x="844.566406" xlink:href="#DejaVuSans-101"/>
       <use x="906.089844" xlink:href="#DejaVuSans-101"/>
       <use x="967.613281" xlink:href="#DejaVuSans-32"/>
       <use x="999.400391" xlink:href="#DejaVuSans-80"/>
       <use x="1059.65625" xlink:href="#DejaVuSans-101"/>
       <use x="1121.179688" xlink:href="#DejaVuSans-114"/>
       <use x="1162.261719" xlink:href="#DejaVuSans-99"/>
       <use x="1217.242188" xlink:href="#DejaVuSans-101"/>
       <use x="1278.765625" xlink:href="#DejaVuSans-110"/>
       <use x="1342.144531" xlink:href="#DejaVuSans-116"/>
       <use x="1381.353516" xlink:href="#DejaVuSans-32"/>
       <use x="1413.140625" xlink:href="#DejaVuSans-73"/>
       <use x="1442.632812" xlink:href="#DejaVuSans-108"/>
       <use x="1470.416016" xlink:href="#DejaVuSans-108"/>
       <use x="1498.199219" xlink:href="#DejaVuSans-105"/>
       <use x="1525.982422" xlink:href="#DejaVuSans-110"/>
       <use x="1589.361328" xlink:href="#DejaVuSans-111"/>
       <use x="1650.542969" xlink:href="#DejaVuSans-105"/>
       <use x="1678.326172" xlink:href="#DejaVuSans-115"/>
       <use x="1730.425781" xlink:href="#DejaVuSans-32"/>
       <use x="1762.212891" xlink:href="#DejaVuSans-80"/>
       <use x="1822.453125" xlink:href="#DejaVuSans-97"/>
       <use x="1883.732422" xlink:href="#DejaVuSans-116"/>
       <use x="1922.941406" xlink:href="#DejaVuSans-114"/>
       <use x="1964.054688" xlink:href="#DejaVuSans-105"/>
       <use x="1991.837891" xlink:href="#DejaVuSans-111"/>
       <use x="2053.019531" xlink:href="#DejaVuSans-116"/>
       <use x="2092.228516" xlink:href="#DejaVuSans-32"/>
       <use x="2124.015625" xlink:href="#DejaVuSans-70"/>
       <use x="2181.425781" xlink:href="#DejaVuSans-114"/>
       <use x="2222.507812" xlink:href="#DejaVuSans-101"/>
       <use x="2284.03125" xlink:href="#DejaVuSans-101"/>
       <use x="2345.554688" xlink:href="#DejaVuSans-100"/>
       <use x="2409.03125" xlink:href="#DejaVuSans-111"/>
       <use x="2470.212891" xlink:href="#DejaVuSans-109"/>
       <use x="2567.625" xlink:href="#DejaVuSans-32"/>
       <use x="2599.412109" xlink:href="#DejaVuSans-70"/>
       <use x="2656.822266" xlink:href="#DejaVuSans-105"/>
       <use x="2684.605469" xlink:href="#DejaVuSans-103"/>
       <use x="2748.082031" xlink:href="#DejaVuSans-104"/>
       <use x="2811.460938" xlink:href="#DejaVuSans-116"/>
       <use x="2850.669922" xlink:href="#DejaVuSans-101"/>
       <use x="2912.193359" xlink:href="#DejaVuSans-114"/>
       <use x="2953.306641" xlink:href="#DejaVuSans-115"/>
       <use x="3005.40625" xlink:href="#DejaVuSans-32"/>
       <use x="3037.193359" xlink:href="#DejaVuSans-77"/>
       <use x="3123.472656" xlink:href="#DejaVuSans-105"/>
       <use x="3151.255859" xlink:href="#DejaVuSans-108"/>
       <use x="3179.039062" xlink:href="#DejaVuSans-105"/>
       <use x="3206.822266" xlink:href="#DejaVuSans-116"/>
       <use x="3246.03125" xlink:href="#DejaVuSans-105"/>
       <use x="3273.814453" xlink:href="#DejaVuSans-97"/>
      </g>
     </g>
    </g>
    <g id="ytick_12">
     <g id="line2d_35">
      <path clip-path="url(#pc198cbd4ce)" d="M 344.203125 127.919932 
L 720.043125 127.919932 
" style="fill:none;stroke:#cbcbcb;"/>
     </g>
     <g id="line2d_36"/>
     <g id="text_18">
      <!-- Environmentalists -->
      <defs>
       <path d="M 9.8125 72.90625 
L 55.90625 72.90625 
L 55.90625 64.59375 
L 19.671875 64.59375 
L 19.671875 43.015625 
L 54.390625 43.015625 
L 54.390625 34.71875 
L 19.671875 34.71875 
L 19.671875 8.296875 
L 56.78125 8.296875 
L 56.78125 0 
L 9.8125 0 
z
" id="DejaVuSans-69"/>
      </defs>
      <g transform="translate(250.610937 131.719151)scale(0.1 -0.1)">
       <use xlink:href="#DejaVuSans-69"/>
       <use x="63.183594" xlink:href="#DejaVuSans-110"/>
       <use x="126.5625" xlink:href="#DejaVuSans-118"/>
       <use x="185.742188" xlink:href="#DejaVuSans-105"/>
       <use x="213.525391" xlink:href="#DejaVuSans-114"/>
       <use x="254.607422" xlink:href="#DejaVuSans-111"/>
       <use x="315.789062" xlink:href="#DejaVuSans-110"/>
       <use x="379.167969" xlink:href="#DejaVuSans-109"/>
       <use x="476.580078" xlink:href="#DejaVuSans-101"/>
       <use x="538.103516" xlink:href="#DejaVuSans-110"/>
       <use x="601.482422" xlink:href="#DejaVuSans-116"/>
       <use x="640.691406" xlink:href="#DejaVuSans-97"/>
       <use x="701.970703" xlink:href="#DejaVuSans-108"/>
       <use x="729.753906" xlink:href="#DejaVuSans-105"/>
       <use x="757.537109" xlink:href="#DejaVuSans-115"/>
       <use x="809.636719" xlink:href="#DejaVuSans-116"/>
       <use x="848.845703" xlink:href="#DejaVuSans-115"/>
      </g>
     </g>
    </g>
    <g id="ytick_13">
     <g id="line2d_37">
      <path clip-path="url(#pc198cbd4ce)" d="M 344.203125 118.036295 
L 720.043125 118.036295 
" style="fill:none;stroke:#cbcbcb;"/>
     </g>
     <g id="line2d_38"/>
     <g id="text_19">
      <!-- Ku Klux Klan -->
      <defs>
       <path d="M 9.8125 72.90625 
L 19.671875 72.90625 
L 19.671875 42.09375 
L 52.390625 72.90625 
L 65.09375 72.90625 
L 28.90625 38.921875 
L 67.671875 0 
L 54.6875 0 
L 19.671875 35.109375 
L 19.671875 0 
L 9.8125 0 
z
" id="DejaVuSans-75"/>
      </defs>
      <g transform="translate(278.065625 121.835514)scale(0.1 -0.1)">
       <use xlink:href="#DejaVuSans-75"/>
       <use x="65.498047" xlink:href="#DejaVuSans-117"/>
       <use x="128.876953" xlink:href="#DejaVuSans-32"/>
       <use x="160.664062" xlink:href="#DejaVuSans-75"/>
       <use x="226.240234" xlink:href="#DejaVuSans-108"/>
       <use x="254.023438" xlink:href="#DejaVuSans-117"/>
       <use x="317.402344" xlink:href="#DejaVuSans-120"/>
       <use x="376.582031" xlink:href="#DejaVuSans-32"/>
       <use x="408.369141" xlink:href="#DejaVuSans-75"/>
       <use x="473.945312" xlink:href="#DejaVuSans-108"/>
       <use x="501.728516" xlink:href="#DejaVuSans-97"/>
       <use x="563.007812" xlink:href="#DejaVuSans-110"/>
      </g>
     </g>
    </g>
    <g id="ytick_14">
     <g id="line2d_39">
      <path clip-path="url(#pc198cbd4ce)" d="M 344.203125 108.152659 
L 720.043125 108.152659 
" style="fill:none;stroke:#cbcbcb;"/>
     </g>
     <g id="line2d_40"/>
     <g id="text_20">
      <!-- Black Hebrew Israelites -->
      <defs>
       <path d="M 9.078125 75.984375 
L 18.109375 75.984375 
L 18.109375 31.109375 
L 44.921875 54.6875 
L 56.390625 54.6875 
L 27.390625 29.109375 
L 57.625 0 
L 45.90625 0 
L 18.109375 26.703125 
L 18.109375 0 
L 9.078125 0 
z
" id="DejaVuSans-107"/>
       <path d="M 9.8125 72.90625 
L 19.671875 72.90625 
L 19.671875 43.015625 
L 55.515625 43.015625 
L 55.515625 72.90625 
L 65.375 72.90625 
L 65.375 0 
L 55.515625 0 
L 55.515625 34.71875 
L 19.671875 34.71875 
L 19.671875 0 
L 9.8125 0 
z
" id="DejaVuSans-72"/>
      </defs>
      <g transform="translate(223.439062 111.951878)scale(0.1 -0.1)">
       <use xlink:href="#DejaVuSans-66"/>
       <use x="68.603516" xlink:href="#DejaVuSans-108"/>
       <use x="96.386719" xlink:href="#DejaVuSans-97"/>
       <use x="157.666016" xlink:href="#DejaVuSans-99"/>
       <use x="212.646484" xlink:href="#DejaVuSans-107"/>
       <use x="270.556641" xlink:href="#DejaVuSans-32"/>
       <use x="302.34375" xlink:href="#DejaVuSans-72"/>
       <use x="377.539062" xlink:href="#DejaVuSans-101"/>
       <use x="439.0625" xlink:href="#DejaVuSans-98"/>
       <use x="502.539062" xlink:href="#DejaVuSans-114"/>
       <use x="543.621094" xlink:href="#DejaVuSans-101"/>
       <use x="605.144531" xlink:href="#DejaVuSans-119"/>
       <use x="686.931641" xlink:href="#DejaVuSans-32"/>
       <use x="718.71875" xlink:href="#DejaVuSans-73"/>
       <use x="748.210938" xlink:href="#DejaVuSans-115"/>
       <use x="800.310547" xlink:href="#DejaVuSans-114"/>
       <use x="841.423828" xlink:href="#DejaVuSans-97"/>
       <use x="902.703125" xlink:href="#DejaVuSans-101"/>
       <use x="964.226562" xlink:href="#DejaVuSans-108"/>
       <use x="992.009766" xlink:href="#DejaVuSans-105"/>
       <use x="1019.792969" xlink:href="#DejaVuSans-116"/>
       <use x="1059.001953" xlink:href="#DejaVuSans-101"/>
       <use x="1120.525391" xlink:href="#DejaVuSans-115"/>
      </g>
     </g>
    </g>
    <g id="ytick_15">
     <g id="line2d_41">
      <path clip-path="url(#pc198cbd4ce)" d="M 344.203125 98.269023 
L 720.043125 98.269023 
" style="fill:none;stroke:#cbcbcb;"/>
     </g>
     <g id="line2d_42"/>
     <g id="text_21">
      <!-- Muslim extremists -->
      <g transform="translate(248.94375 102.068241)scale(0.1 -0.1)">
       <use xlink:href="#DejaVuSans-77"/>
       <use x="86.279297" xlink:href="#DejaVuSans-117"/>
       <use x="149.658203" xlink:href="#DejaVuSans-115"/>
       <use x="201.757812" xlink:href="#DejaVuSans-108"/>
       <use x="229.541016" xlink:href="#DejaVuSans-105"/>
       <use x="257.324219" xlink:href="#DejaVuSans-109"/>
       <use x="354.736328" xlink:href="#DejaVuSans-32"/>
       <use x="386.523438" xlink:href="#DejaVuSans-101"/>
       <use x="448.03125" xlink:href="#DejaVuSans-120"/>
       <use x="507.210938" xlink:href="#DejaVuSans-116"/>
       <use x="546.419922" xlink:href="#DejaVuSans-114"/>
       <use x="587.501953" xlink:href="#DejaVuSans-101"/>
       <use x="649.025391" xlink:href="#DejaVuSans-109"/>
       <use x="746.4375" xlink:href="#DejaVuSans-105"/>
       <use x="774.220703" xlink:href="#DejaVuSans-115"/>
       <use x="826.320312" xlink:href="#DejaVuSans-116"/>
       <use x="865.529297" xlink:href="#DejaVuSans-115"/>
      </g>
     </g>
    </g>
    <g id="ytick_16">
     <g id="line2d_43">
      <path clip-path="url(#pc198cbd4ce)" d="M 344.203125 88.385386 
L 720.043125 88.385386 
" style="fill:none;stroke:#cbcbcb;"/>
     </g>
     <g id="line2d_44"/>
     <g id="text_22">
      <!-- Anti-LGBT extremists -->
      <g transform="translate(234.642187 92.184605)scale(0.1 -0.1)">
       <use xlink:href="#DejaVuSans-65"/>
       <use x="68.408203" xlink:href="#DejaVuSans-110"/>
       <use x="131.787109" xlink:href="#DejaVuSans-116"/>
       <use x="170.996094" xlink:href="#DejaVuSans-105"/>
       <use x="198.779297" xlink:href="#DejaVuSans-45"/>
       <use x="234.863281" xlink:href="#DejaVuSans-76"/>
       <use x="290.576172" xlink:href="#DejaVuSans-71"/>
       <use x="368.066406" xlink:href="#DejaVuSans-66"/>
       <use x="436.669922" xlink:href="#DejaVuSans-84"/>
       <use x="497.753906" xlink:href="#DejaVuSans-32"/>
       <use x="529.541016" xlink:href="#DejaVuSans-101"/>
       <use x="591.048828" xlink:href="#DejaVuSans-120"/>
       <use x="650.228516" xlink:href="#DejaVuSans-116"/>
       <use x="689.4375" xlink:href="#DejaVuSans-114"/>
       <use x="730.519531" xlink:href="#DejaVuSans-101"/>
       <use x="792.042969" xlink:href="#DejaVuSans-109"/>
       <use x="889.455078" xlink:href="#DejaVuSans-105"/>
       <use x="917.238281" xlink:href="#DejaVuSans-115"/>
       <use x="969.337891" xlink:href="#DejaVuSans-116"/>
       <use x="1008.546875" xlink:href="#DejaVuSans-115"/>
      </g>
     </g>
    </g>
    <g id="ytick_17">
     <g id="line2d_45">
      <path clip-path="url(#pc198cbd4ce)" d="M 344.203125 78.50175 
L 720.043125 78.50175 
" style="fill:none;stroke:#cbcbcb;"/>
     </g>
     <g id="line2d_46"/>
     <g id="text_23">
      <!-- Anti-Police extremists -->
      <g transform="translate(231.579687 82.300969)scale(0.1 -0.1)">
       <use xlink:href="#DejaVuSans-65"/>
       <use x="68.408203" xlink:href="#DejaVuSans-110"/>
       <use x="131.787109" xlink:href="#DejaVuSans-116"/>
       <use x="170.996094" xlink:href="#DejaVuSans-105"/>
       <use x="198.779297" xlink:href="#DejaVuSans-45"/>
       <use x="234.863281" xlink:href="#DejaVuSans-80"/>
       <use x="295.119141" xlink:href="#DejaVuSans-111"/>
       <use x="356.300781" xlink:href="#DejaVuSans-108"/>
       <use x="384.083984" xlink:href="#DejaVuSans-105"/>
       <use x="411.867188" xlink:href="#DejaVuSans-99"/>
       <use x="466.847656" xlink:href="#DejaVuSans-101"/>
       <use x="528.371094" xlink:href="#DejaVuSans-32"/>
       <use x="560.158203" xlink:href="#DejaVuSans-101"/>
       <use x="621.666016" xlink:href="#DejaVuSans-120"/>
       <use x="680.845703" xlink:href="#DejaVuSans-116"/>
       <use x="720.054688" xlink:href="#DejaVuSans-114"/>
       <use x="761.136719" xlink:href="#DejaVuSans-101"/>
       <use x="822.660156" xlink:href="#DejaVuSans-109"/>
       <use x="920.072266" xlink:href="#DejaVuSans-105"/>
       <use x="947.855469" xlink:href="#DejaVuSans-115"/>
       <use x="999.955078" xlink:href="#DejaVuSans-116"/>
       <use x="1039.164062" xlink:href="#DejaVuSans-115"/>
      </g>
     </g>
    </g>
    <g id="ytick_18">
     <g id="line2d_47">
      <path clip-path="url(#pc198cbd4ce)" d="M 344.203125 68.618114 
L 720.043125 68.618114 
" style="fill:none;stroke:#cbcbcb;"/>
     </g>
     <g id="line2d_48"/>
     <g id="text_24">
      <!-- Anti-White extremists -->
      <g transform="translate(231.860937 72.417332)scale(0.1 -0.1)">
       <use xlink:href="#DejaVuSans-65"/>
       <use x="68.408203" xlink:href="#DejaVuSans-110"/>
       <use x="131.787109" xlink:href="#DejaVuSans-116"/>
       <use x="170.996094" xlink:href="#DejaVuSans-105"/>
       <use x="198.779297" xlink:href="#DejaVuSans-45"/>
       <use x="234.800781" xlink:href="#DejaVuSans-87"/>
       <use x="333.677734" xlink:href="#DejaVuSans-104"/>
       <use x="397.056641" xlink:href="#DejaVuSans-105"/>
       <use x="424.839844" xlink:href="#DejaVuSans-116"/>
       <use x="464.048828" xlink:href="#DejaVuSans-101"/>
       <use x="525.572266" xlink:href="#DejaVuSans-32"/>
       <use x="557.359375" xlink:href="#DejaVuSans-101"/>
       <use x="618.867188" xlink:href="#DejaVuSans-120"/>
       <use x="678.046875" xlink:href="#DejaVuSans-116"/>
       <use x="717.255859" xlink:href="#DejaVuSans-114"/>
       <use x="758.337891" xlink:href="#DejaVuSans-101"/>
       <use x="819.861328" xlink:href="#DejaVuSans-109"/>
       <use x="917.273438" xlink:href="#DejaVuSans-105"/>
       <use x="945.056641" xlink:href="#DejaVuSans-115"/>
       <use x="997.15625" xlink:href="#DejaVuSans-116"/>
       <use x="1036.365234" xlink:href="#DejaVuSans-115"/>
      </g>
     </g>
    </g>
    <g id="ytick_19">
     <g id="line2d_49">
      <path clip-path="url(#pc198cbd4ce)" d="M 344.203125 58.734477 
L 720.043125 58.734477 
" style="fill:none;stroke:#cbcbcb;"/>
     </g>
     <g id="line2d_50"/>
     <g id="text_25">
      <!-- Anti-Muslim extremists -->
      <g transform="translate(225.459375 62.533696)scale(0.1 -0.1)">
       <use xlink:href="#DejaVuSans-65"/>
       <use x="68.408203" xlink:href="#DejaVuSans-110"/>
       <use x="131.787109" xlink:href="#DejaVuSans-116"/>
       <use x="170.996094" xlink:href="#DejaVuSans-105"/>
       <use x="198.779297" xlink:href="#DejaVuSans-45"/>
       <use x="234.863281" xlink:href="#DejaVuSans-77"/>
       <use x="321.142578" xlink:href="#DejaVuSans-117"/>
       <use x="384.521484" xlink:href="#DejaVuSans-115"/>
       <use x="436.621094" xlink:href="#DejaVuSans-108"/>
       <use x="464.404297" xlink:href="#DejaVuSans-105"/>
       <use x="492.1875" xlink:href="#DejaVuSans-109"/>
       <use x="589.599609" xlink:href="#DejaVuSans-32"/>
       <use x="621.386719" xlink:href="#DejaVuSans-101"/>
       <use x="682.894531" xlink:href="#DejaVuSans-120"/>
       <use x="742.074219" xlink:href="#DejaVuSans-116"/>
       <use x="781.283203" xlink:href="#DejaVuSans-114"/>
       <use x="822.365234" xlink:href="#DejaVuSans-101"/>
       <use x="883.888672" xlink:href="#DejaVuSans-109"/>
       <use x="981.300781" xlink:href="#DejaVuSans-105"/>
       <use x="1009.083984" xlink:href="#DejaVuSans-115"/>
       <use x="1061.183594" xlink:href="#DejaVuSans-116"/>
       <use x="1100.392578" xlink:href="#DejaVuSans-115"/>
      </g>
     </g>
    </g>
    <g id="ytick_20">
     <g id="line2d_51">
      <path clip-path="url(#pc198cbd4ce)" d="M 344.203125 48.850841 
L 720.043125 48.850841 
" style="fill:none;stroke:#cbcbcb;"/>
     </g>
     <g id="line2d_52"/>
     <g id="text_26">
      <!-- White extremists -->
      <g transform="translate(255.339062 52.65006)scale(0.1 -0.1)">
       <use xlink:href="#DejaVuSans-87"/>
       <use x="98.876953" xlink:href="#DejaVuSans-104"/>
       <use x="162.255859" xlink:href="#DejaVuSans-105"/>
       <use x="190.039062" xlink:href="#DejaVuSans-116"/>
       <use x="229.248047" xlink:href="#DejaVuSans-101"/>
       <use x="290.771484" xlink:href="#DejaVuSans-32"/>
       <use x="322.558594" xlink:href="#DejaVuSans-101"/>
       <use x="384.066406" xlink:href="#DejaVuSans-120"/>
       <use x="443.246094" xlink:href="#DejaVuSans-116"/>
       <use x="482.455078" xlink:href="#DejaVuSans-114"/>
       <use x="523.537109" xlink:href="#DejaVuSans-101"/>
       <use x="585.060547" xlink:href="#DejaVuSans-109"/>
       <use x="682.472656" xlink:href="#DejaVuSans-105"/>
       <use x="710.255859" xlink:href="#DejaVuSans-115"/>
       <use x="762.355469" xlink:href="#DejaVuSans-116"/>
       <use x="801.564453" xlink:href="#DejaVuSans-115"/>
      </g>
     </g>
    </g>
    <g id="ytick_21">
     <g id="line2d_53">
      <path clip-path="url(#pc198cbd4ce)" d="M 344.203125 38.967205 
L 720.043125 38.967205 
" style="fill:none;stroke:#cbcbcb;"/>
     </g>
     <g id="line2d_54"/>
     <g id="text_27">
      <!-- Jihadi-inspired extremists -->
      <defs>
       <path d="M 9.8125 72.90625 
L 19.671875 72.90625 
L 19.671875 5.078125 
Q 19.671875 -8.109375 14.671875 -14.0625 
Q 9.671875 -20.015625 -1.421875 -20.015625 
L -5.171875 -20.015625 
L -5.171875 -11.71875 
L -2.09375 -11.71875 
Q 4.4375 -11.71875 7.125 -8.046875 
Q 9.8125 -4.390625 9.8125 5.078125 
z
" id="DejaVuSans-74"/>
      </defs>
      <g transform="translate(213.426562 42.766423)scale(0.1 -0.1)">
       <use xlink:href="#DejaVuSans-74"/>
       <use x="29.492188" xlink:href="#DejaVuSans-105"/>
       <use x="57.275391" xlink:href="#DejaVuSans-104"/>
       <use x="120.654297" xlink:href="#DejaVuSans-97"/>
       <use x="181.933594" xlink:href="#DejaVuSans-100"/>
       <use x="245.410156" xlink:href="#DejaVuSans-105"/>
       <use x="273.193359" xlink:href="#DejaVuSans-45"/>
       <use x="309.277344" xlink:href="#DejaVuSans-105"/>
       <use x="337.060547" xlink:href="#DejaVuSans-110"/>
       <use x="400.439453" xlink:href="#DejaVuSans-115"/>
       <use x="452.539062" xlink:href="#DejaVuSans-112"/>
       <use x="516.015625" xlink:href="#DejaVuSans-105"/>
       <use x="543.798828" xlink:href="#DejaVuSans-114"/>
       <use x="584.880859" xlink:href="#DejaVuSans-101"/>
       <use x="646.404297" xlink:href="#DejaVuSans-100"/>
       <use x="709.880859" xlink:href="#DejaVuSans-32"/>
       <use x="741.667969" xlink:href="#DejaVuSans-101"/>
       <use x="803.175781" xlink:href="#DejaVuSans-120"/>
       <use x="862.355469" xlink:href="#DejaVuSans-116"/>
       <use x="901.564453" xlink:href="#DejaVuSans-114"/>
       <use x="942.646484" xlink:href="#DejaVuSans-101"/>
       <use x="1004.169922" xlink:href="#DejaVuSans-109"/>
       <use x="1101.582031" xlink:href="#DejaVuSans-105"/>
       <use x="1129.365234" xlink:href="#DejaVuSans-115"/>
       <use x="1181.464844" xlink:href="#DejaVuSans-116"/>
       <use x="1220.673828" xlink:href="#DejaVuSans-115"/>
      </g>
     </g>
    </g>
    <g id="ytick_22">
     <g id="line2d_55">
      <path clip-path="url(#pc198cbd4ce)" d="M 344.203125 29.083568 
L 720.043125 29.083568 
" style="fill:none;stroke:#cbcbcb;"/>
     </g>
     <g id="line2d_56"/>
     <g id="text_28">
      <!-- Unknown -->
      <defs>
       <path d="M 8.6875 72.90625 
L 18.609375 72.90625 
L 18.609375 28.609375 
Q 18.609375 16.890625 22.84375 11.734375 
Q 27.09375 6.59375 36.625 6.59375 
Q 46.09375 6.59375 50.34375 11.734375 
Q 54.59375 16.890625 54.59375 28.609375 
L 54.59375 72.90625 
L 64.5 72.90625 
L 64.5 27.390625 
Q 64.5 13.140625 57.4375 5.859375 
Q 50.390625 -1.421875 36.625 -1.421875 
Q 22.796875 -1.421875 15.734375 5.859375 
Q 8.6875 13.140625 8.6875 27.390625 
z
" id="DejaVuSans-85"/>
      </defs>
      <g transform="translate(294.284375 32.882787)scale(0.1 -0.1)">
       <use xlink:href="#DejaVuSans-85"/>
       <use x="73.193359" xlink:href="#DejaVuSans-110"/>
       <use x="136.572266" xlink:href="#DejaVuSans-107"/>
       <use x="194.482422" xlink:href="#DejaVuSans-110"/>
       <use x="257.861328" xlink:href="#DejaVuSans-111"/>
       <use x="319.042969" xlink:href="#DejaVuSans-119"/>
       <use x="400.830078" xlink:href="#DejaVuSans-110"/>
      </g>
     </g>
    </g>
   </g>
   <g id="patch_3">
    <path clip-path="url(#pc198cbd4ce)" d="M 344.203125 239.110841 
L 350.711177 239.110841 
L 350.711177 234.169023 
L 344.203125 234.169023 
z
" style="fill:#008fd5;"/>
   </g>
   <g id="patch_4">
    <path clip-path="url(#pc198cbd4ce)" d="M 344.203125 229.227205 
L 350.711177 229.227205 
L 350.711177 224.285386 
L 344.203125 224.285386 
z
" style="fill:#008fd5;"/>
   </g>
   <g id="patch_5">
    <path clip-path="url(#pc198cbd4ce)" d="M 344.203125 219.343568 
L 350.711177 219.343568 
L 350.711177 214.40175 
L 344.203125 214.40175 
z
" style="fill:#008fd5;"/>
   </g>
   <g id="patch_6">
    <path clip-path="url(#pc198cbd4ce)" d="M 344.203125 209.459932 
L 350.711177 209.459932 
L 350.711177 204.518114 
L 344.203125 204.518114 
z
" style="fill:#008fd5;"/>
   </g>
   <g id="patch_7">
    <path clip-path="url(#pc198cbd4ce)" d="M 344.203125 199.576295 
L 350.711177 199.576295 
L 350.711177 194.634477 
L 344.203125 194.634477 
z
" style="fill:#008fd5;"/>
   </g>
   <g id="patch_8">
    <path clip-path="url(#pc198cbd4ce)" d="M 344.203125 189.692659 
L 350.711177 189.692659 
L 350.711177 184.750841 
L 344.203125 184.750841 
z
" style="fill:#008fd5;"/>
   </g>
   <g id="patch_9">
    <path clip-path="url(#pc198cbd4ce)" d="M 344.203125 179.809023 
L 350.711177 179.809023 
L 350.711177 174.867205 
L 344.203125 174.867205 
z
" style="fill:#008fd5;"/>
   </g>
   <g id="patch_10">
    <path clip-path="url(#pc198cbd4ce)" d="M 344.203125 169.925386 
L 350.711177 169.925386 
L 350.711177 164.983568 
L 344.203125 164.983568 
z
" style="fill:#008fd5;"/>
   </g>
   <g id="patch_11">
    <path clip-path="url(#pc198cbd4ce)" d="M 344.203125 160.04175 
L 357.219229 160.04175 
L 357.219229 155.099932 
L 344.203125 155.099932 
z
" style="fill:#008fd5;"/>
   </g>
   <g id="patch_12">
    <path clip-path="url(#pc198cbd4ce)" d="M 344.203125 150.158114 
L 357.219229 150.158114 
L 357.219229 145.216295 
L 344.203125 145.216295 
z
" style="fill:#008fd5;"/>
   </g>
   <g id="patch_13">
    <path clip-path="url(#pc198cbd4ce)" d="M 344.203125 140.274477 
L 357.219229 140.274477 
L 357.219229 135.332659 
L 344.203125 135.332659 
z
" style="fill:#008fd5;"/>
   </g>
   <g id="patch_14">
    <path clip-path="url(#pc198cbd4ce)" d="M 344.203125 130.390841 
L 357.219229 130.390841 
L 357.219229 125.449023 
L 344.203125 125.449023 
z
" style="fill:#008fd5;"/>
   </g>
   <g id="patch_15">
    <path clip-path="url(#pc198cbd4ce)" d="M 344.203125 120.507205 
L 363.727281 120.507205 
L 363.727281 115.565386 
L 344.203125 115.565386 
z
" style="fill:#008fd5;"/>
   </g>
   <g id="patch_16">
    <path clip-path="url(#pc198cbd4ce)" d="M 344.203125 110.623568 
L 363.727281 110.623568 
L 363.727281 105.68175 
L 344.203125 105.68175 
z
" style="fill:#008fd5;"/>
   </g>
   <g id="patch_17">
    <path clip-path="url(#pc198cbd4ce)" d="M 344.203125 100.739932 
L 363.727281 100.739932 
L 363.727281 95.798114 
L 344.203125 95.798114 
z
" style="fill:#008fd5;"/>
   </g>
   <g id="patch_18">
    <path clip-path="url(#pc198cbd4ce)" d="M 344.203125 90.856295 
L 370.235333 90.856295 
L 370.235333 85.914477 
L 344.203125 85.914477 
z
" style="fill:#008fd5;"/>
   </g>
   <g id="patch_19">
    <path clip-path="url(#pc198cbd4ce)" d="M 344.203125 80.972659 
L 376.743385 80.972659 
L 376.743385 76.030841 
L 344.203125 76.030841 
z
" style="fill:#008fd5;"/>
   </g>
   <g id="patch_20">
    <path clip-path="url(#pc198cbd4ce)" d="M 344.203125 71.089023 
L 383.251437 71.089023 
L 383.251437 66.147205 
L 344.203125 66.147205 
z
" style="fill:#008fd5;"/>
   </g>
   <g id="patch_21">
    <path clip-path="url(#pc198cbd4ce)" d="M 344.203125 61.205386 
L 415.791696 61.205386 
L 415.791696 56.263568 
L 344.203125 56.263568 
z
" style="fill:#008fd5;"/>
   </g>
   <g id="patch_22">
    <path clip-path="url(#pc198cbd4ce)" d="M 344.203125 51.32175 
L 415.791696 51.32175 
L 415.791696 46.379932 
L 344.203125 46.379932 
z
" style="fill:#008fd5;"/>
   </g>
   <g id="patch_23">
    <path clip-path="url(#pc198cbd4ce)" d="M 344.203125 41.438114 
L 422.299748 41.438114 
L 422.299748 36.496295 
L 344.203125 36.496295 
z
" style="fill:#008fd5;"/>
   </g>
   <g id="patch_24">
    <path clip-path="url(#pc198cbd4ce)" d="M 344.203125 31.554477 
L 702.145982 31.554477 
L 702.145982 26.612659 
L 344.203125 26.612659 
z
" style="fill:#008fd5;"/>
   </g>
   <g id="patch_25">
    <path d="M 344.203125 241.58175 
L 344.203125 24.14175 
" style="fill:none;stroke:#f0f0f0;stroke-linecap:square;stroke-linejoin:miter;stroke-width:3;"/>
   </g>
   <g id="patch_26">
    <path d="M 720.043125 241.58175 
L 720.043125 24.14175 
" style="fill:none;stroke:#f0f0f0;stroke-linecap:square;stroke-linejoin:miter;stroke-width:3;"/>
   </g>
   <g id="patch_27">
    <path d="M 344.203125 241.58175 
L 720.043125 241.58175 
" style="fill:none;stroke:#f0f0f0;stroke-linecap:square;stroke-linejoin:miter;stroke-width:3;"/>
   </g>
   <g id="patch_28">
    <path d="M 344.203125 24.14175 
L 720.043125 24.14175 
" style="fill:none;stroke:#f0f0f0;stroke-linecap:square;stroke-linejoin:miter;stroke-width:3;"/>
   </g>
   <g id="text_29">
    <!-- Attacks on regligious figures and institutions -->
    <g transform="translate(371.185125 18.14175)scale(0.144 -0.144)">
     <use xlink:href="#DejaVuSans-65"/>
     <use x="68.392578" xlink:href="#DejaVuSans-116"/>
     <use x="107.601562" xlink:href="#DejaVuSans-116"/>
     <use x="146.810547" xlink:href="#DejaVuSans-97"/>
     <use x="208.089844" xlink:href="#DejaVuSans-99"/>
     <use x="263.070312" xlink:href="#DejaVuSans-107"/>
     <use x="320.980469" xlink:href="#DejaVuSans-115"/>
     <use x="373.080078" xlink:href="#DejaVuSans-32"/>
     <use x="404.867188" xlink:href="#DejaVuSans-111"/>
     <use x="466.048828" xlink:href="#DejaVuSans-110"/>
     <use x="529.427734" xlink:href="#DejaVuSans-32"/>
     <use x="561.214844" xlink:href="#DejaVuSans-114"/>
     <use x="602.296875" xlink:href="#DejaVuSans-101"/>
     <use x="663.820312" xlink:href="#DejaVuSans-103"/>
     <use x="727.296875" xlink:href="#DejaVuSans-108"/>
     <use x="755.080078" xlink:href="#DejaVuSans-105"/>
     <use x="782.863281" xlink:href="#DejaVuSans-103"/>
     <use x="846.339844" xlink:href="#DejaVuSans-105"/>
     <use x="874.123047" xlink:href="#DejaVuSans-111"/>
     <use x="935.304688" xlink:href="#DejaVuSans-117"/>
     <use x="998.683594" xlink:href="#DejaVuSans-115"/>
     <use x="1050.783203" xlink:href="#DejaVuSans-32"/>
     <use x="1082.570312" xlink:href="#DejaVuSans-102"/>
     <use x="1117.775391" xlink:href="#DejaVuSans-105"/>
     <use x="1145.558594" xlink:href="#DejaVuSans-103"/>
     <use x="1209.035156" xlink:href="#DejaVuSans-117"/>
     <use x="1272.414062" xlink:href="#DejaVuSans-114"/>
     <use x="1313.496094" xlink:href="#DejaVuSans-101"/>
     <use x="1375.019531" xlink:href="#DejaVuSans-115"/>
     <use x="1427.119141" xlink:href="#DejaVuSans-32"/>
     <use x="1458.90625" xlink:href="#DejaVuSans-97"/>
     <use x="1520.185547" xlink:href="#DejaVuSans-110"/>
     <use x="1583.564453" xlink:href="#DejaVuSans-100"/>
     <use x="1647.041016" xlink:href="#DejaVuSans-32"/>
     <use x="1678.828125" xlink:href="#DejaVuSans-105"/>
     <use x="1706.611328" xlink:href="#DejaVuSans-110"/>
     <use x="1769.990234" xlink:href="#DejaVuSans-115"/>
     <use x="1822.089844" xlink:href="#DejaVuSans-116"/>
     <use x="1861.298828" xlink:href="#DejaVuSans-105"/>
     <use x="1889.082031" xlink:href="#DejaVuSans-116"/>
     <use x="1928.291016" xlink:href="#DejaVuSans-117"/>
     <use x="1991.669922" xlink:href="#DejaVuSans-116"/>
     <use x="2030.878906" xlink:href="#DejaVuSans-105"/>
     <use x="2058.662109" xlink:href="#DejaVuSans-111"/>
     <use x="2119.84375" xlink:href="#DejaVuSans-110"/>
     <use x="2183.222656" xlink:href="#DejaVuSans-115"/>
    </g>
   </g>
  </g>
 </g>
 <defs>
  <clipPath id="pc198cbd4ce">
   <rect height="217.44" width="375.84" x="344.203125" y="24.14175"/>
  </clipPath>
 </defs>
</svg>
