<svg id="Layer_1" data-name="Layer 1" xmlns="http://www.w3.org/2000/svg" viewBox="0 0 507.05 1101"><title>drugs_2018_convicted</title><line x1="89.45" y1="1087.2" x2="89.45" style="fill:none;stroke:#cbcbcb;stroke-linejoin:round"/><text transform="translate(86.27 1098.29)" style="font-size:10px;font-family:OpenSans, Open Sans">0</text><line x1="154.19" y1="1087.2" x2="154.19" style="fill:none;stroke:#cbcbcb;stroke-linejoin:round"/><text transform="translate(147.83 1098.29)" style="font-size:10px;font-family:OpenSans, Open Sans">20</text><line x1="218.94" y1="1087.2" x2="218.94" style="fill:none;stroke:#cbcbcb;stroke-linejoin:round"/><text transform="translate(212.58 1098.29)" style="font-size:10px;font-family:OpenSans, Open Sans">40</text><line x1="283.68" y1="1087.2" x2="283.68" style="fill:none;stroke:#cbcbcb;stroke-linejoin:round"/><text transform="translate(277.32 1098.29)" style="font-size:10px;font-family:OpenSans, Open Sans">60</text><line x1="348.42" y1="1087.2" x2="348.42" style="fill:none;stroke:#cbcbcb;stroke-linejoin:round"/><text transform="translate(342.06 1098.29)" style="font-size:10px;font-family:OpenSans, Open Sans">80</text><line x1="413.17" y1="1087.2" x2="413.17" style="fill:none;stroke:#cbcbcb;stroke-linejoin:round"/><text transform="translate(403.63 1098.29)" style="font-size:10px;font-family:OpenSans, Open Sans">100</text><line x1="477.91" y1="1087.2" x2="477.91" style="fill:none;stroke:#cbcbcb;stroke-linejoin:round"/><text transform="translate(468.37 1098.29)" style="font-size:10px;font-family:OpenSans, Open Sans">120</text><text transform="translate(45.91 1078.92)" style="font-size:10px;font-family:OpenSans, Open Sans">ILLINOIS</text><text transform="translate(44.87 1054.76)" style="font-size:10px;font-family:OpenSans, Open Sans">INDIANA</text><text transform="translate(30.81 1030.6)" style="font-size:10px;font-family:OpenSans, Open Sans">COLORADO</text><text transform="translate(29.07 1006.44)" style="font-size:10px;font-family:OpenSans, Open Sans">CALIFORNIA</text><text transform="translate(42.81 982.28)" style="font-size:10px;font-family:OpenSans, Open Sans">ARIZONA</text><text transform="translate(48.16 958.12)" style="font-size:10px;font-family:OpenSans, Open Sans">KANSAS</text><text transform="translate(36.19 933.96)" style="font-size:10px;font-family:OpenSans, Open Sans">WYOMING</text><text transform="translate(33.95 909.8)" style="font-size:10px;font-family:OpenSans, Open Sans">LOUISIANA</text><text transform="translate(4.24 885.64)" style="font-size:10px;font-family:OpenSans, Open Sans">MASSACHUSETTS</text><text transform="translate(36.03 861.48)" style="font-size:10px;font-family:OpenSans, Open Sans">MICHIGAN</text><text transform="translate(30.49 837.32)" style="font-size:10px;font-family:OpenSans, Open Sans">WISCONSIN</text><text transform="translate(38.64 813.16)" style="font-size:10px;font-family:OpenSans, Open Sans">MISSOURI</text><text transform="translate(46.47 789)" style="font-size:10px;font-family:OpenSans, Open Sans">NEVADA</text><text transform="translate(4.36 764.84)" style="font-size:10px;font-family:OpenSans, Open Sans">NEW HAMPSHIRE</text><text transform="translate(23.27 740.68)" style="font-size:10px;font-family:OpenSans, Open Sans">NEW MEXICO</text><text transform="translate(59.73 716.52)" style="font-size:10px;font-family:OpenSans, Open Sans">OHIO</text><text transform="translate(29.5 692.36)" style="font-size:10px;font-family:OpenSans, Open Sans">OKLAHOMA</text><text transform="translate(43.33 668.2)" style="font-size:10px;font-family:OpenSans, Open Sans">OREGON</text><text transform="translate(0.95 644.04)" style="font-size:10px;font-family:OpenSans, Open Sans">SOUTH CAROLINA</text><text transform="translate(31.64 619.88)" style="font-size:10px;font-family:OpenSans, Open Sans">TENNESSEE</text><text transform="translate(33.77 595.72)" style="font-size:10px;font-family:OpenSans, Open Sans">DELAWARE</text><text transform="translate(58.95 571.56)" style="font-size:10px;font-family:OpenSans, Open Sans">UTAH</text><text transform="translate(31.3 547.4)" style="font-size:10px;font-family:OpenSans, Open Sans">MISSISSIPPI</text><text transform="translate(35.37 523.24)" style="font-size:10px;font-family:OpenSans, Open Sans">KENTUCKY</text><text transform="translate(50.6 499.08)" style="font-size:10px;font-family:OpenSans, Open Sans">HAWAII</text><text transform="translate(42.26 474.92)" style="font-size:10px;font-family:OpenSans, Open Sans">GEORGIA</text><text transform="translate(53.9 450.76)" style="font-size:10px;font-family:OpenSans, Open Sans">IDAHO</text><text transform="translate(0 426.6)" style="font-size:10px;font-family:OpenSans, Open Sans">NORTH CAROLINA</text><text transform="translate(35.42 402.44)" style="font-size:10px;font-family:OpenSans, Open Sans">NEBRASKA</text><text transform="translate(54.23 378.28)" style="font-size:10px;font-family:OpenSans, Open Sans">MAINE</text><text transform="translate(59.31 354.12)" style="font-size:10px;font-family:OpenSans, Open Sans">IOWA</text><text transform="translate(37.89 329.96)" style="font-size:10px;font-family:OpenSans, Open Sans">VERMONT</text><text transform="translate(31.98 305.8)" style="font-size:10px;font-family:OpenSans, Open Sans">MARYLAND</text><text transform="translate(14.05 281.64)" style="font-size:10px;font-family:OpenSans, Open Sans">RHODE ISLAND</text><text transform="translate(13.59 257.48)" style="font-size:10px;font-family:OpenSans, Open Sans">PENNSYLVANIA</text><text transform="translate(56.79 233.32)" style="font-size:10px;font-family:OpenSans, Open Sans">TEXAS</text><text transform="translate(16.98 209.16)" style="font-size:10px;font-family:OpenSans, Open Sans">CONNECTICUT</text><text transform="translate(29.45 185)" style="font-size:10px;font-family:OpenSans, Open Sans">NEW JERSEY</text><text transform="translate(35.65 160.84)" style="font-size:10px;font-family:OpenSans, Open Sans">ARKANSAS</text><text transform="translate(44.74 136.68)" style="font-size:10px;font-family:OpenSans, Open Sans">FLORIDA</text><text transform="translate(18.55 112.52)" style="font-size:10px;font-family:OpenSans, Open Sans">WASHINGTON</text><text transform="translate(34.8 88.36)" style="font-size:10px;font-family:OpenSans, Open Sans">NEW YORK</text><text transform="translate(43.82 64.2)" style="font-size:10px;font-family:OpenSans, Open Sans">VIRGINIA</text><text transform="translate(39.46 40.04)" style="font-size:10px;font-family:OpenSans, Open Sans">ALABAMA</text><text transform="translate(27.88 15.88)" style="font-size:10px;font-family:OpenSans, Open Sans">MINNESOTA</text><polygon points="89.45 1081.16 89.45 1081.16 89.45 1069.08 89.45 1081.16" style="fill:#2cc990"/><polygon points="89.45 1057 89.45 1057 89.45 1044.92 89.45 1057" style="fill:#f8cd00"/><polygon points="89.45 1032.84 89.45 1032.84 89.45 1020.76 89.45 1032.84" style="fill:#2cc990"/><polygon points="89.45 1008.68 89.45 1008.68 89.45 996.6 89.45 1008.68" style="fill:#2cc990"/><polygon points="89.45 984.52 89.45 984.52 89.45 972.44 89.45 984.52" style="fill:#f8cd00"/><polygon points="89.45 960.36 89.45 960.36 89.45 948.28 89.45 960.36" style="fill:#f8cd00"/><polygon points="89.45 936.2 89.45 936.2 89.45 924.12 89.45 936.2" style="fill:#f8cd00"/><polygon points="89.45 912.04 89.45 912.04 89.45 899.96 89.45 912.04" style="fill:#fc6042"/><polygon points="89.45 887.88 89.45 887.88 89.45 875.8 89.45 887.88" style="fill:#2cc990"/><polygon points="89.45 863.72 89.45 863.72 89.45 851.64 89.45 863.72" style="fill:#2cc990"/><polygon points="89.45 839.56 89.45 839.56 89.45 827.48 89.45 839.56" style="fill:#f8cd00"/><polygon points="89.45 815.4 89.45 815.4 89.45 803.32 89.45 815.4" style="fill:#f8cd00"/><polygon points="89.45 791.24 89.45 791.24 89.45 779.16 89.45 791.24" style="fill:#2cc990"/><polygon points="89.45 767.08 89.45 767.08 89.45 755 89.45 767.08" style="fill:#f8cd00"/><polygon points="89.45 742.92 89.45 742.92 89.45 730.84 89.45 742.92" style="fill:#f8cd00"/><polygon points="89.45 718.76 89.45 718.76 89.45 706.68 89.45 718.76" style="fill:#f8cd00"/><polygon points="89.45 694.6 89.45 694.6 89.45 682.52 89.45 694.6" style="fill:#f8cd00"/><polygon points="89.45 670.44 89.45 670.44 89.45 658.36 89.45 670.44" style="fill:#2cc990"/><polygon points="89.45 646.28 89.45 646.28 89.45 634.2 89.45 646.28" style="fill:#f8cd00"/><polygon points="89.45 622.12 89.45 622.12 89.45 610.04 89.45 622.12" style="fill:#f8cd00"/><polygon points="89.45 597.96 89.45 597.96 89.45 585.88 89.45 597.96" style="fill:#f8cd00"/><polygon points="89.45 573.8 89.45 573.8 89.45 561.72 89.45 573.8" style="fill:#f8cd00"/><polygon points="89.45 549.64 89.45 549.64 89.45 537.56 89.45 549.64" style="fill:#f8cd00"/><polygon points="89.45 525.48 89.45 525.48 89.45 513.4 89.45 525.48" style="fill:#f8cd00"/><polygon points="89.45 501.32 89.45 501.32 89.45 489.24 89.45 501.32" style="fill:#f8cd00"/><polygon points="89.45 477.16 89.45 477.16 89.45 465.08 89.45 477.16" style="fill:#f8cd00"/><polygon points="89.45 453 89.45 453 89.45 440.92 89.45 453" style="fill:#fc6042"/><rect x="89.45" y="416.76" width="3.24" height="12.08" style="fill:#f8cd00"/><rect x="89.45" y="392.6" width="3.24" height="12.08" style="fill:#fc6042"/><rect x="89.45" y="368.44" width="3.24" height="12.08" style="fill:#2cc990"/><rect x="89.45" y="344.28" width="6.47" height="12.08" style="fill:#f8cd00"/><rect x="89.45" y="320.12" width="12.95" height="12.08" style="fill:#2cc990"/><rect x="89.45" y="295.96" width="16.19" height="12.08" style="fill:#f8cd00"/><rect x="89.45" y="271.8" width="25.9" height="12.08" style="fill:#f8cd00"/><rect x="89.45" y="247.64" width="25.9" height="12.08" style="fill:#f8cd00"/><rect x="89.45" y="223.48" width="29.13" height="12.08" style="fill:#f8cd00"/><rect x="89.45" y="199.32" width="35.61" height="12.08" style="fill:#f8cd00"/><rect x="89.45" y="175.16" width="48.56" height="12.08" style="fill:#f8cd00"/><rect x="89.45" y="151" width="51.8" height="12.08" style="fill:#f8cd00"/><rect x="89.45" y="126.84" width="64.74" height="12.08" style="fill:#f8cd00"/><rect x="89.45" y="102.68" width="93.88" height="12.08" style="fill:#2cc990"/><rect x="89.45" y="78.52" width="97.12" height="12.08" style="fill:#f8cd00"/><rect x="89.45" y="54.36" width="100.35" height="12.08" style="fill:#f8cd00"/><rect x="89.45" y="30.2" width="103.59" height="12.08" style="fill:#f8cd00"/><rect x="89.45" y="6.04" width="417.6" height="12.08" style="fill:#f8cd00"/></svg>