<svg id="Layer_1" data-name="Layer 1" xmlns="http://www.w3.org/2000/svg" viewBox="0 0 963.84 554.48"><defs><style>.cls-1{font-size:17px;}.cls-1,.cls-11{font-family:OpenSans, Open Sans;}.cls-2{fill:#4c72b0;}.cls-3{fill:#dd8452;}.cls-4{fill:#c44e52;}.cls-5{fill:#8172b3;}.cls-6{fill:#da8bc3;}.cls-7{fill:#8c8c8c;}.cls-10,.cls-8{fill:none;}.cls-8{stroke:#fff;stroke-linejoin:round;}.cls-9{fill:#f0f0f0;}.cls-10,.cls-9{opacity:0.8;}.cls-10{stroke:#ccc;stroke-miterlimit:10;stroke-width:0.5px;}.cls-11{font-size:17.73px;}</style></defs><title>categorical_breakdown_by_year</title><text class="cls-1" transform="translate(67.02 549.87)">2013</text><text class="cls-1" transform="translate(226.63 549.87)">2014</text><text class="cls-1" transform="translate(386.24 549.87)">2015</text><text class="cls-1" transform="translate(545.85 549.87)">2016</text><text class="cls-1" transform="translate(705.46 549.87)">2017</text><text class="cls-1" transform="translate(865.06 549.87)">2018</text><text class="cls-1" transform="translate(19.08 537.58)">0</text><text class="cls-1" transform="translate(6.36 461.82)">500</text><text class="cls-1" transform="translate(0 386.06)">1000</text><text class="cls-1" transform="translate(0 310.3)">1500</text><text class="cls-1" transform="translate(0 234.54)">2000</text><text class="cls-1" transform="translate(0 158.78)">2500</text><text class="cls-1" transform="translate(0 83.02)">3000</text><rect class="cls-2" x="45.84" y="530.81" width="79.8" height="1.97"/><rect class="cls-2" x="205.45" y="529.6" width="79.8" height="3.18"/><rect class="cls-2" x="365.06" y="528.39" width="79.8" height="4.39"/><rect class="cls-2" x="524.66" y="530.96" width="79.8" height="1.82"/><rect class="cls-2" x="684.27" y="529.45" width="79.8" height="3.33"/><rect class="cls-2" x="843.88" y="528.08" width="79.8" height="4.7"/><rect class="cls-3" x="45.84" y="514.9" width="79.8" height="15.91"/><rect class="cls-3" x="205.45" y="522.17" width="79.8" height="7.42"/><rect class="cls-3" x="365.06" y="486.42" width="79.8" height="41.97"/><rect class="cls-3" x="524.66" y="489.6" width="79.8" height="41.36"/><rect class="cls-3" x="684.27" y="466.26" width="79.8" height="63.18"/><rect class="cls-3" x="843.88" y="473.23" width="79.8" height="54.85"/><rect class="cls-4" x="45.84" y="175.8" width="79.8" height="339.1"/><rect class="cls-4" x="205.45" y="231.86" width="79.8" height="290.31"/><rect class="cls-4" x="365.06" y="146.1" width="79.8" height="340.31"/><rect class="cls-4" x="524.66" y="66.56" width="79.8" height="423.04"/><rect class="cls-4" x="684.27" y="114.44" width="79.8" height="351.83"/><rect class="cls-4" x="843.88" y="209.89" width="79.8" height="263.34"/><rect class="cls-5" x="45.84" y="168.38" width="79.8" height="7.42"/><rect class="cls-5" x="205.45" y="214.74" width="79.8" height="17.12"/><rect class="cls-5" x="365.06" y="107.62" width="79.8" height="38.49"/><rect class="cls-5" x="524.66" y="43.68" width="79.8" height="22.88"/><rect class="cls-5" x="684.27" y="100.8" width="79.8" height="13.64"/><rect class="cls-5" x="843.88" y="200.5" width="79.8" height="9.39"/><rect class="cls-6" x="45.84" y="167.62" width="79.8" height="0.76"/><rect class="cls-6" x="205.45" y="214.59" width="79.8" height="0.15"/><rect class="cls-6" x="365.06" y="104.44" width="79.8" height="3.18"/><rect class="cls-6" x="524.66" y="41.25" width="79.8" height="2.42"/><rect class="cls-6" x="684.27" y="96.56" width="79.8" height="4.24"/><rect class="cls-6" x="843.88" y="197.62" width="79.8" height="2.88"/><rect class="cls-7" x="45.84" y="166.26" width="79.8" height="1.36"/><rect class="cls-7" x="205.45" y="212.32" width="79.8" height="2.27"/><rect class="cls-7" x="365.06" y="97.16" width="79.8" height="7.27"/><rect class="cls-7" x="524.66" y="33.83" width="79.8" height="7.42"/><rect class="cls-7" x="684.27" y="90.35" width="79.8" height="6.21"/><rect class="cls-7" x="843.88" y="191.11" width="79.8" height="6.52"/><line class="cls-8" x1="45.84" y1="457.02" x2="963.59" y2="457.02"/><line class="cls-8" x1="45.84" y1="381.26" x2="963.59" y2="381.26"/><line class="cls-8" x1="45.84" y1="305.5" x2="963.59" y2="305.5"/><line class="cls-8" x1="45.84" y1="229.74" x2="963.59" y2="229.74"/><line class="cls-8" x1="45.84" y1="153.98" x2="963.59" y2="153.98"/><line class="cls-8" x1="45.84" y1="77.22" x2="848.87" y2="77.22"/><rect class="cls-9" x="801.41" y="0.25" width="162.18" height="161.43" rx="3.55"/><rect class="cls-10" x="801.41" y="0.25" width="162.18" height="161.43" rx="3.55"/><rect class="cls-2" x="808.51" y="8.4" width="35.47" height="12.41"/><text class="cls-11" transform="translate(858.16 20.81)">Civil</text><rect class="cls-3" x="808.51" y="34.41" width="35.47" height="12.41"/><text class="cls-11" transform="translate(858.16 46.83)">Conspiracy</text><rect class="cls-4" x="808.51" y="60.43" width="35.47" height="12.41"/><text class="cls-11" transform="translate(858.16 72.84)">Drugs</text><rect class="cls-5" x="808.51" y="86.45" width="35.47" height="12.41"/><text class="cls-11" transform="translate(858.16 98.86)">Money</text><rect class="cls-6" x="808.51" y="112.47" width="35.47" height="12.41"/><text class="cls-11" transform="translate(858.16 124.88)">Other</text><rect class="cls-7" x="808.51" y="138.49" width="35.47" height="12.41"/><text class="cls-11" transform="translate(858.16 150.9)">Violence</text></svg>